<?xml version="1.0" encoding="UTF-8" standalone="no"?>
<!-- Created with Inkscape (http://www.inkscape.org/) -->

<svg
   version="1.1"
   id="svg824"
   width="1706.6667"
   height="1706.6667"
   viewBox="0 0 1706.6667 1706.6667"
   sodipodi:docname="aying_scritch_frame2.svg"
   inkscape:version="1.1 (c68e22c387, 2021-05-23)"
   inkscape:export-filename="D:\Pictures\yingmotes\ying_scritch.png"
   inkscape:export-xdpi="72"
   inkscape:export-ydpi="72"
   xmlns:inkscape="http://www.inkscape.org/namespaces/inkscape"
   xmlns:sodipodi="http://sodipodi.sourceforge.net/DTD/sodipodi-0.dtd"
   xmlns="http://www.w3.org/2000/svg"
   xmlns:svg="http://www.w3.org/2000/svg">
  <defs
     id="defs828" />
  <sodipodi:namedview
     id="namedview826"
     pagecolor="#ffffff"
     bordercolor="#666666"
     borderopacity="1.0"
     inkscape:pageshadow="2"
     inkscape:pageopacity="0.0"
     inkscape:pagecheckerboard="0"
     showgrid="false"
     inkscape:zoom="0.70106524"
     inkscape:cx="930.0133"
     inkscape:cy="1087.6306"
     inkscape:window-width="1920"
     inkscape:window-height="1001"
     inkscape:window-x="-9"
     inkscape:window-y="-9"
     inkscape:window-maximized="1"
     inkscape:current-layer="g12988"
     showguides="false">
    <inkscape:grid
       type="xygrid"
       id="grid1300" />
  </sodipodi:namedview>
  <g
     id="layer1"
     inkscape:label="Ying"
     style="display:inline"
     inkscape:groupmode="layer">
    <path
       style="display:none;fill:#123456;stroke:#123456;stroke-width:64;stroke-linecap:round;stroke-linejoin:round;-inkscape-stroke:none;paint-order:fill markers stroke;stop-color:#000000"
       d="m 1298.031,865.09775 c 70.7982,131.45402 185.3824,239.02475 198.7064,401.82835 -29.438,-19.1346 -55.9321,-14.719 -79.4825,13.2471 91.0222,54.7003 58.5139,175.917 81.6903,267.1496 l -99.3531,6.6236 c 66.7588,58.9185 81.773,128.1858 90.5218,198.7063 l -494.50725,2.2079 c -24.3802,-41.4813 23.11455,-208.5632 66.23555,-227.0436 0,0 3.3791,-20.0154 -75.35325,-9.4549 C 1015.23,1271.0896 1172.1837,1096.1858 1298.031,865.09775 Z"
       id="path3091"
       sodipodi:nodetypes="cccccccccc"
       inkscape:label="mane" />
    <path
       style="opacity:1;fill:#ffcb4c;fill-opacity:1;stroke:#ffcb4c;stroke-width:64;stroke-linecap:round;stroke-linejoin:round;stroke-miterlimit:4;stroke-dasharray:none;stroke-dashoffset:0;stroke-opacity:1;paint-order:fill markers stroke;stop-color:#000000"
       d="m 885.0458,1465.0695 -64.7849,239.5079 62.82173,-25.5214 -51.04266,200.2443 459.38383,-15.7054 c 0,0 -127.6066,-94.2326 -149.2016,-184.5389 -21.5949,-90.3062 51.0427,-253.25 51.0427,-253.25 z"
       id="path3340"
       inkscape:label="neck" />
    <g
       id="g12988"
       inkscape:label="head"
       transform="rotate(-4.9650404,1815.8621,1040.9021)">
      <path
         style="display:inline;fill:none;fill-opacity:1;stroke:#f19020;stroke-width:32;stroke-linecap:round;stroke-linejoin:round;stroke-miterlimit:4;stroke-dasharray:none;stroke-dashoffset:0;stroke-opacity:1;paint-order:fill markers stroke;stop-color:#000000"
         d="M 206.04942,553.69361 C 359.57534,632.15556 520.10219,745.58707 632.84304,860.1874"
         id="path6280-0-6"
         sodipodi:nodetypes="cc"
         inkscape:label="eyelash left small"
         inkscape:transform-center-x="176.9307"
         inkscape:transform-center-y="-180.36966" />
      <path
         style="display:inline;fill:none;fill-opacity:1;stroke:#f19020;stroke-width:32;stroke-linecap:round;stroke-linejoin:round;stroke-miterlimit:4;stroke-dasharray:none;stroke-dashoffset:0;stroke-opacity:1;paint-order:fill markers stroke;stop-color:#000000"
         d="M 214.16336,309.7307 C 453.69957,464.0528 646.24703,652.29099 747.66977,906.30212"
         id="path6280-3"
         sodipodi:nodetypes="cc"
         inkscape:label="eyelash left big"
         inkscape:transform-center-x="186.77844"
         inkscape:transform-center-y="-317.18768" />
      <g
         id="g12997"
         inkscape:label="left eye"
         style="fill:#d19020;fill-opacity:1"
         transform="translate(-47.533635,-12.228763)">
        <path
           id="path1915-9"
           style="display:inline;fill:#d19020;fill-opacity:1;stroke:#65471b;stroke-width:64;stroke-linecap:round;stroke-linejoin:round;paint-order:fill markers stroke;stop-color:#000000"
           inkscape:label="lefteye"
           d="m 869.11322,1070.7592 c 1e-5,120.7167 -155.86024,218.577 -276.57698,218.577 -120.71674,0 -160.57699,-55.8603 -160.57698,-176.577 0,-120.71672 97.86025,-260.57697 218.57698,-260.57697 120.71673,0 218.57698,97.86025 218.57698,218.57697 z"
           sodipodi:nodetypes="sssss" />
      </g>
      <path
         style="opacity:1;fill:#f19020;fill-opacity:1;stroke:#f19020;stroke-width:64;stroke-linecap:round;stroke-miterlimit:4;stroke-dasharray:none;stroke-dashoffset:0;stroke-opacity:1;paint-order:fill markers stroke;stop-color:#000000"
         d="m 823.58111,785.50448 c 0,0 43.38764,-171.84538 139.57423,-327.21305 105.81486,-170.91988 280.59126,-320.05131 342.13996,-289.79006 61.5486,30.26125 59.4014,255.63548 15.0096,390.54447 -44.3918,134.90901 -225.9653,384.52843 -225.9653,384.52843 z"
         id="path1640"
         inkscape:label="left ear"
         sodipodi:nodetypes="cssscc"
         inkscape:transform-center-x="-75.882027"
         inkscape:transform-center-y="-248.48464" />
      <path
         id="path1148"
         style="display:inline;opacity:1;fill:#ffcb4c;stroke:#ffcb4c;stroke-width:64;stroke-linecap:round;stroke-linejoin:round;stroke-miterlimit:4;stroke-dasharray:6.4, 6.4;stroke-dashoffset:0;stroke-opacity:1;paint-order:fill markers stroke;stop-color:#000000"
         inkscape:label="head"
         d="m 1299.0547,1153.5586 c 0,0 -0.1078,-10.8206 -0.9512,-28.418 -0.4217,-8.7987 -1.0259,-19.2912 -1.8945,-30.9726 -0.8686,-11.6814 -1.9997,-24.5525 -3.4727,-38.1055 -1.4729,-13.553 -3.2888,-27.7877 -5.5234,-42.2012 -2.2347,-14.41345 -4.8892,-29.0047 -8.043,-43.26755 -1.5769,-7.13143 -3.279,-14.18175 -5.1152,-21.08594 -1.8362,-6.90419 -3.8068,-13.66232 -5.9219,-20.21289 -2.1151,-6.55056 -4.3733,-12.89234 -6.7871,-18.96289 -2.4138,-6.07055 -4.9828,-11.86984 -7.7148,-17.33398 -2.7321,-5.46415 -5.9346,-10.78574 -9.5391,-15.96094 -3.6045,-5.1752 -7.6114,-10.20474 -11.9492,-15.08399 -4.3379,-4.87924 -9.0074,-9.60926 -13.9395,-14.18554 -4.9321,-4.57628 -10.1264,-8.99932 -15.5136,-13.26563 -5.3873,-4.2663 -10.9666,-8.37489 -16.67,-12.32422 -5.7033,-3.94932 -11.5298,-7.73794 -17.4101,-11.36328 -11.7607,-7.25067 -23.7371,-13.84709 -35.3711,-19.75976 -11.634,-5.91267 -22.9257,-11.14156 -33.3203,-15.66016 -10.3946,-4.5186 -19.8912,-8.32606 -27.9336,-11.39453 -16.085,-6.13693 -26.3535,-9.31836 -26.3535,-9.31836 -106.83135,-15.98813 -232.17461,6.96944 -312.62504,60.01367 -101.26734,66.76968 -136.88727,176.62945 -198.70703,211.95509 -61.81975,35.3255 -225.20029,77.273 -280.39649,83.8965 -55.19621,6.6235 -183.250354,6.6246 -161.171871,123.6406 22.078481,117.016 112.599211,282.6048 377.541011,247.2793 264.94179,-35.3256 313.51517,-44.1575 536.50782,-88.3145 22.8973,-4.5341 53.8481,-18.3195 86.8281,-36.9472 l 213.8711,-11.4278 -92.9258,-75.2558 c 5.3578,-4.8405 10.5999,-9.7184 15.6328,-14.6367 l 142.0762,-2.375 -84.8808,-69.668 c 3.4806,-6.5537 6.4805,-13.0207 8.6269,-19.3066 1.0523,-3.0817 2.0328,-6.6268 3.0469,-9.9766 z" />
      <path
         style="display:none;fill:#123456;stroke:#123456;stroke-width:64;stroke-linecap:round;stroke-linejoin:round;-inkscape-stroke:none;paint-order:fill markers stroke;stop-color:#000000"
         d="M 880.93148,744.0449 C 763.91552,771.643 622.61323,916.25706 622.61323,916.25706 620.95257,833.21142 611.27974,749.4374 735.2135,677.80944 c -124.69479,-7.45678 -249.2876,-15.1175 -408.45194,46.36482 0,0 303.22641,-263.62224 490.14233,-280.39675 172.2122,-15.45493 264.94181,37.53343 264.94181,37.53343 -0.1923,-45.68323 -31.4577,-88.25915 -90.52179,-128.0552 0,0 295.85169,97.14532 333.38509,194.29065 37.5334,97.14533 28.702,167.79647 28.702,167.79647 l -243.7525,34.92308 c 0,0 -111.71105,-33.81914 -228.72702,-6.22104 z"
         id="path1637"
         sodipodi:nodetypes="zcccsccsccz"
         inkscape:label="top hair" />
      <path
         id="path13483"
         style="display:inline;opacity:1;fill:#ffcb4c;stroke:#ffcb4c;stroke-width:64;stroke-linecap:round;stroke-linejoin:round;stroke-miterlimit:4;stroke-dasharray:6.4, 6.4;stroke-dashoffset:0;stroke-opacity:1;paint-order:fill markers stroke;stop-color:#000000"
         inkscape:label="right ear"
         d="m 1522.4709,142.84309 c -79.1173,-7.61183 -265.9691,260.59695 -301.4444,343.63086 -31.5853,73.92859 -124.2804,258.77839 -150.6042,311.15761 -101.1027,357.39074 105.6674,365.01414 214.0598,421.31334 107.6728,-107.7163 310.9911,-336.76918 341.2088,-558.23889 41.3718,-303.21857 -51.9143,-512.92686 -103.22,-517.86292 z"
         sodipodi:nodetypes="ssccss"
         inkscape:transform-center-x="-124.55412"
         inkscape:transform-center-y="-351.15445" />
      <g
         id="g13003"
         inkscape:label="face">
        <path
           style="opacity:1;fill:none;fill-opacity:1;stroke:#65471b;stroke-width:64;stroke-linecap:round;stroke-linejoin:round;stroke-miterlimit:4;stroke-dasharray:none;stroke-dashoffset:0;stroke-opacity:1;paint-order:fill markers stroke;stop-color:#000000"
           d="m 83.898236,1201.0695 68.443294,6.6235 -37.53342,39.7413"
           id="path2163"
           inkscape:label="left nostril" />
        <path
           style="opacity:1;fill:none;fill-opacity:1;stroke:#65471b;stroke-width:64;stroke-linecap:round;stroke-linejoin:round;stroke-miterlimit:4;stroke-dasharray:none;stroke-dashoffset:0;stroke-opacity:1;paint-order:fill markers stroke;stop-color:#000000"
           d="m 401.82839,1251.85 -59.6119,-44.157 121.43166,-17.6628"
           id="path2198"
           inkscape:label="right nostril" />
        <path
           style="opacity:1;fill:none;fill-opacity:1;stroke:#65471b;stroke-width:64;stroke-linecap:round;stroke-linejoin:round;stroke-miterlimit:4;stroke-dasharray:none;stroke-dashoffset:0;stroke-opacity:1;paint-order:fill markers stroke;stop-color:#000000"
           d="m 132.4709,1346.7875 90.52178,-72.859 c 0,0 217.48605,146.2586 293.67006,143.7063 131.8052,-4.4157 92.28791,-123.8223 92.28791,-123.8223"
           id="path2200"
           sodipodi:nodetypes="ccsc"
           inkscape:label="mouf" />
        <path
           style="opacity:1;fill:#ffffff;fill-opacity:1;stroke:#65471b;stroke-width:64;stroke-linecap:round;stroke-linejoin:round;stroke-miterlimit:4;stroke-dasharray:none;stroke-dashoffset:0;stroke-opacity:1;paint-order:fill markers stroke;stop-color:#000000"
           d="m 222.99268,1530.0389 -90.52178,-183.2514 90.52178,-72.859 103.76887,66.2354 z"
           id="path2202"
           sodipodi:nodetypes="ccccc"
           inkscape:label="toof" />
      </g>
      <path
         style="opacity:1;fill:none;fill-opacity:1;stroke:#ffcb4c;stroke-width:32;stroke-linecap:round;stroke-linejoin:round;stroke-miterlimit:4;stroke-dasharray:none;stroke-dashoffset:0;stroke-opacity:1;paint-order:fill markers stroke;stop-color:#000000"
         d="M 348.06639,170.59586 C 555.16776,366.30467 709.84839,586.718 762.87021,855.0404"
         id="path6280"
         sodipodi:nodetypes="cc"
         inkscape:label="eyelash right big"
         inkscape:transform-center-x="128.00583"
         inkscape:transform-center-y="-353.79851" />
      <path
         style="display:inline;fill:none;fill-opacity:1;stroke:#ffcb4c;stroke-width:32;stroke-linecap:round;stroke-linejoin:round;stroke-miterlimit:4;stroke-dasharray:none;stroke-dashoffset:0;stroke-opacity:1;paint-order:fill markers stroke;stop-color:#000000"
         d="M 653.82603,321.64676 C 742.29711,469.63107 818.14094,650.96857 852.8649,807.93348"
         id="path6280-0"
         sodipodi:nodetypes="cc"
         inkscape:label="eyelash right small"
         inkscape:transform-center-x="51.895383"
         inkscape:transform-center-y="-238.23839" />
      <g
         id="g12993"
         inkscape:label="right eye"
         transform="rotate(-0.1862072,-3778.7265,-7002.4747)"
         style="display:inline;fill:#d19020;fill-opacity:1">
        <path
           style="opacity:1;fill:#d19020;fill-opacity:1;stroke:#65471b;stroke-width:64;stroke-linecap:round;stroke-linejoin:round;stroke-miterlimit:4;stroke-dasharray:none;stroke-dashoffset:0;stroke-opacity:1;paint-order:fill markers stroke;stop-color:#000000"
           d="m 661.97569,1226.0485 53.36716,-115.5008 86.53085,168.711 z"
           id="path7852"
           inkscape:label="eyenub"
           sodipodi:nodetypes="cccc" />
        <path
           id="path1915"
           style="opacity:1;fill:#d19020;fill-opacity:1;stroke:#65471b;stroke-width:64;stroke-linecap:round;stroke-linejoin:round;paint-order:fill markers stroke;stop-color:#000000"
           inkscape:label="righteye"
           d="m 1150.289,1075.2222 c 0,120.7167 -151.8603,218.5769 -272.57702,218.5769 -120.71671,0 -164.57695,-71.8602 -164.57699,-192.5769 -2e-5,-120.71675 97.86024,-244.57702 218.57699,-244.57701 120.71672,-2e-5 218.57702,97.86025 218.57702,218.57701 z"
           sodipodi:nodetypes="sssss" />
        <path
           id="path1749"
           style="display:inline;fill:#d19020;fill-opacity:1;stroke:#65471b;stroke-width:64;stroke-linecap:round;stroke-linejoin:round;-inkscape-stroke:none;paint-order:fill markers stroke;stop-color:#000000"
           d="m 925.10752,1017.9783 c -111.90142,23.5165 -173.92489,144.3569 -203.42694,191.8365 39.96804,93.9647 177.10005,86.8811 225.00615,74.9035 60.34347,-15.0872 171.34587,-89.0116 196.72947,-172.4815 -38.4856,-7.457 -106.4073,-117.77502 -218.30868,-94.2585 z"
           inkscape:label="right lid"
           sodipodi:nodetypes="zcscz" />
      </g>
    </g>
    <g
       id="layer2"
       inkscape:label="hand"
       transform="rotate(9.5233726,-843.6035,278.42545)"
       style="display:inline">
      <path
         id="rect21082"
         style="color:#000000;fill:#007c8d;fill-opacity:1;stroke:#ffffff;stroke-width:128;stroke-linecap:round;stroke-linejoin:round;stroke-miterlimit:4;stroke-dasharray:none;paint-order:stroke fill markers"
         d="m 1441.8282,305.02957 c -67.6624,-28.08873 -121.546,-35.07033 -207.7471,-41.53887 9.4788,0.7476 37.9883,-8.14724 45.7803,-7.09908 23.686,-2.31929 54.3534,16.76768 70.8966,3.05304 13.8038,-14.81235 9.9193,-42.10025 -8.6762,-60.94866 -7.7981,-7.90385 -13.9275,-12.55123 -19.0974,-15.42224 -8.6166,-4.78512 -14.5697,-4.63529 -21.1521,-6.41511 -10.5319,-2.84767 -38.4544,-6.2181 -50.4842,-7.8364 -24.0595,-3.23655 -54.6727,6.19177 -82.5791,5.68788 -27.9063,-0.504 -55.1478,0.28582 -77.454,2.92285 -3.3703,0.39843 -6.5854,0.84869 -9.7352,1.3355 L 980.5094,12.517895 c -16.08866,-26.45996 -47.0521,-39.76682 -69.16337,-29.72368 L 851.69838,9.8974052 C 829.32582,20.065495 824.63714,50.203755 841.28916,76.806565 L 982.60673,302.51772 c 2.51757,3.91991 5.42785,7.62176 8.66393,11.02047 5.98234,17.23485 5.80312,53.48538 14.73874,65.37949 20.4689,27.24585 43.6913,43.60173 43.6913,43.60173 2.4319,1.74546 4.9616,3.28375 7.5548,4.59404 0.9047,0.76949 -0.9414,-0.71049 0,0 104.2059,51.75311 149.0611,31.25745 261.8021,117.74298 21.5464,14.34191 45.8928,10.39835 54.3804,-8.80837 8.4874,-19.20732 0.3173,-37.29265 -23.6449,-60.7485 -23.9622,-23.45585 -29.6569,-27.92743 -90.5711,-51.58234 65.5642,7.5759 91.0314,27.415 153.8596,66.48531 22.4642,11.73391 45.2349,4.30117 50.8605,-16.6017 5.6265,-20.90296 -11.4508,-45.99864 -61.5667,-80.4106 -50.116,-34.41195 -77.7411,-21.48705 -158.5909,-40.77087 91.794,-2.50734 131.0298,-4.47998 217.7124,51.84886 22.881,9.80335 45.8975,2.23822 47.907,-21.86229 2.0095,-24.10051 0.087,-49.28763 -67.5757,-77.37636 z"
         sodipodi:nodetypes="zcccsssssscccccccsccccczccczcczz" />
    </g>
    <path
       id="path3101-8"
       style="color:#000000;display:inline;fill:#007c8d;stroke:#ffffff;stroke-width:128;stroke-linecap:round;stroke-linejoin:round;stroke-miterlimit:4;stroke-dasharray:none;stroke-opacity:1;paint-order:stroke fill markers"
       d="m 1498.1671,1221.8493 a 35.169321,35.169321 0 0 0 -46.769,16.924 c -14.4026,30.7368 -42.2251,52.9678 -75.3822,60.2339 -33.1569,7.2663 -67.7267,-1.2925 -93.6635,-23.1891 a 35.169321,35.169321 0 0 0 -49.56,4.1856 35.169321,35.169321 0 0 0 4.1848,49.5612 c 42.6124,35.9745 99.6218,50.0886 154.0963,38.1509 54.4743,-11.9378 100.3554,-48.5993 124.0175,-99.0975 a 35.169321,35.169321 0 0 0 -16.9239,-46.769 z m 5.5906,-178.2483 a 48,48 0 0 0 -63.8316,23.0982 c -19.657,41.9503 -57.6299,72.2918 -102.8835,82.2089 -45.2534,9.917 -92.4352,-1.7641 -127.8344,-31.6491 a 48,48 0 0 0 -67.6409,5.7124 48,48 0 0 0 5.7117,67.6425 c 58.1584,49.0989 135.9664,68.3623 210.3147,52.0692 74.348,-16.293 136.9673,-66.3294 169.2622,-135.2507 a 48,48 0 0 0 -23.0982,-63.8314 z" />
    <path
       id="path3101-2-2"
       style="color:#000000;display:inline;fill:#007c8d;stroke:#ffffff;stroke-width:128;stroke-linecap:round;stroke-linejoin:round;stroke-miterlimit:4;stroke-dasharray:none;stroke-opacity:1;paint-order:stroke fill markers"
       d="m 1258.0751,163.79896 a 41.47722,41.47722 0 0 0 55.6385,18.57568 c 35.8143,-17.88578 77.8146,-18.0839 113.7968,-0.53832 35.982,17.54563 61.6893,50.76036 69.6516,89.99248 a 41.47722,41.47722 0 0 0 48.8988,32.39831 41.47722,41.47722 0 0 0 32.3983,-48.89883 c -13.0813,-64.4554 -55.4751,-119.22863 -114.5909,-148.05477 -59.1157,-28.826134 -128.3775,-28.498198 -187.2175,0.88674 a 41.47722,41.47722 0 0 0 -18.5756,55.63871 z m -91.9872,142.32409 a 48,48 0 0 0 64.3886,21.49693 c 41.4463,-20.69851 90.0517,-20.9278 131.6924,-0.62296 41.6406,20.30489 71.3908,58.743 80.6052,104.14485 a 48,48 0 0 0 56.5888,37.49331 48,48 0 0 0 37.4932,-56.58875 c -15.1384,-74.59174 -64.1991,-137.97873 -132.6115,-171.33811 -68.4124,-33.35938 -148.5666,-32.97986 -216.6597,1.02621 a 48,48 0 0 0 -21.497,64.38852 z"
       inkscape:transform-center-x="-46.299846"
       inkscape:transform-center-y="4.0554519" />
  </g>
</svg>
