<?xml version="1.0" encoding="UTF-8" standalone="no"?>
<!-- Created with Inkscape (http://www.inkscape.org/) -->

<svg
   version="1.1"
   id="svg824"
   width="1706.6667"
   height="1706.6667"
   viewBox="0 0 1706.6667 1706.6667"
   sodipodi:docname="ying_science_laugh.svg"
   inkscape:version="1.3.2 (091e20e, 2023-11-25, custom)"
   inkscape:export-filename="D:\Pictures\yingmotes\ying.png"
   inkscape:export-xdpi="72"
   inkscape:export-ydpi="72"
   xmlns:inkscape="http://www.inkscape.org/namespaces/inkscape"
   xmlns:sodipodi="http://sodipodi.sourceforge.net/DTD/sodipodi-0.dtd"
   xmlns:xlink="http://www.w3.org/1999/xlink"
   xmlns="http://www.w3.org/2000/svg"
   xmlns:svg="http://www.w3.org/2000/svg">
  <defs
     id="defs828">
    <linearGradient
       inkscape:collect="always"
       id="linearGradient1851">
      <stop
         style="stop-color:#ffffff;stop-opacity:1;"
         offset="0"
         id="stop1847" />
      <stop
         style="stop-color:#ffffff;stop-opacity:0;"
         offset="1"
         id="stop1849" />
    </linearGradient>
    <linearGradient
       inkscape:collect="always"
       xlink:href="#linearGradient1851"
       id="linearGradient1853"
       x1="810.1181"
       y1="812.41211"
       x2="1303.485"
       y2="1505.4333"
       gradientUnits="userSpaceOnUse"
       gradientTransform="rotate(-11.474216,954.69733,1797.402)" />
    <linearGradient
       inkscape:collect="always"
       xlink:href="#linearGradient1851"
       id="linearGradient1855"
       x1="810.1181"
       y1="812.41211"
       x2="1303.485"
       y2="1505.4333"
       gradientUnits="userSpaceOnUse"
       gradientTransform="rotate(-11.474216,838.1696,981.66525)" />
  </defs>
  <sodipodi:namedview
     id="namedview826"
     pagecolor="#ffffff"
     bordercolor="#666666"
     borderopacity="1.0"
     inkscape:pageshadow="2"
     inkscape:pageopacity="0.0"
     inkscape:pagecheckerboard="0"
     showgrid="false"
     inkscape:zoom="0.2908047"
     inkscape:cx="925.01943"
     inkscape:cy="827.01551"
     inkscape:window-width="1920"
     inkscape:window-height="1001"
     inkscape:window-x="-9"
     inkscape:window-y="-9"
     inkscape:window-maximized="1"
     inkscape:current-layer="layer1"
     inkscape:showpageshadow="2"
     inkscape:deskcolor="#d1d1d1" />
  <g
     id="layer1"
     inkscape:label="Ying"
     style="display:inline"
     inkscape:groupmode="layer">
    <path
       style="fill:#f2f2f2;stroke:#808080;stroke-width:64;stroke-linecap:round;stroke-linejoin:round;paint-order:fill markers stroke;stop-color:#000000"
       d="m 890.56584,1583.5316 -65.56766,113.8254 155.78872,-46.6842 58.7486,-79.7302 z"
       id="path1634"
       sodipodi:nodetypes="ccccc" />
    <path
       style="fill:#b3b3b3;stroke:#808080;stroke-width:64;stroke-linecap:round;stroke-linejoin:round;paint-order:fill markers stroke;stop-color:#000000"
       d="m 890.56584,1583.5316 10.49082,327.3137 230.79814,44.0615 -92.3192,-383.9642 z"
       id="path1161"
       sodipodi:nodetypes="ccccc" />
    <path
       style="display:none;fill:#123456;stroke:#123456;stroke-width:64;stroke-linecap:round;stroke-linejoin:round;-inkscape-stroke:none;paint-order:fill markers stroke;stop-color:#000000"
       d="m 1382.031,865.09775 c 70.7982,131.45402 185.3824,239.02475 198.7064,401.82835 -29.438,-19.1346 -55.9321,-14.719 -79.4825,13.2471 91.0222,54.7003 58.5139,175.917 81.6903,267.1496 l -99.3531,6.6236 c 66.7588,58.9185 81.773,128.1858 90.5218,198.7063 l -494.5073,2.2079 c -24.3802,-41.4813 23.1146,-208.5632 66.2356,-227.0436 0,0 3.3791,-20.0154 -75.3533,-9.4549 28.7411,-247.2725 185.6948,-422.1763 311.5421,-653.26435 z"
       id="path3091"
       sodipodi:nodetypes="cccccccccc"
       inkscape:label="mane" />
    <path
       style="opacity:1;fill:#ffcb4c;fill-opacity:1;stroke:#ffcb4c;stroke-width:64;stroke-linecap:round;stroke-linejoin:round;stroke-miterlimit:4;stroke-dasharray:none;stroke-dashoffset:0;stroke-opacity:1;paint-order:fill markers stroke;stop-color:#000000"
       d="m 1012.694,1332.0105 -64.78485,239.5079 62.82175,-25.5214 -51.04268,200.2443 459.38388,-15.7054 c 0,0 -127.6066,-94.2326 -149.2016,-184.5389 -21.5949,-90.3062 51.0427,-253.25 51.0427,-253.25 z"
       id="path3340"
       inkscape:label="neck" />
    <g
       id="g12988"
       inkscape:label="head"
       transform="rotate(11.474216,838.1696,981.66521)">
      <path
         style="display:inline;fill:none;fill-opacity:1;stroke:#f19020;stroke-width:32;stroke-linecap:round;stroke-linejoin:round;stroke-miterlimit:4;stroke-dasharray:none;stroke-dashoffset:0;stroke-opacity:1;paint-order:fill markers stroke;stop-color:#000000"
         d="m 374.18977,471.15078 c 146.95696,90.16728 298.17327,215.74277 401.65747,338.76616"
         id="path6280-0-6"
         sodipodi:nodetypes="cc"
         inkscape:label="eyelash left small" />
      <path
         style="display:inline;fill:none;fill-opacity:1;stroke:#f19020;stroke-width:32;stroke-linecap:round;stroke-linejoin:round;stroke-miterlimit:4;stroke-dasharray:none;stroke-dashoffset:0;stroke-opacity:1;paint-order:fill markers stroke;stop-color:#000000"
         d="M 296.25042,276.18655 C 546.30661,412.80579 751.94624,586.64617 871.44939,832.66898"
         id="path6280-3"
         sodipodi:nodetypes="cc"
         inkscape:label="eyelash left big" />
      <g
         id="g12997"
         inkscape:label="left eye"
         transform="translate(159.94302,-39.483544)">
        <path
           id="path1915-9"
           style="display:inline;fill:#fefefe;stroke:#65471b;stroke-width:64;stroke-linecap:round;stroke-linejoin:round;paint-order:fill markers stroke;stop-color:#000000"
           inkscape:label="lefteye"
           d="m 792.61751,1048.7279 c 10e-6,120.7167 -155.86024,218.577 -276.57698,218.577 -120.71674,0 -160.57699,-55.8603 -160.57698,-176.577 0,-120.71673 97.86025,-260.57698 218.57698,-260.57698 120.71673,0 218.57698,97.86025 218.57698,218.57698 z"
           sodipodi:nodetypes="sssss" />
        <path
           style="opacity:1;fill:#ffffff;fill-opacity:1;stroke:#65471b;stroke-width:48;stroke-linecap:round;stroke-linejoin:round;stroke-miterlimit:4;stroke-dasharray:none;stroke-dashoffset:0;stroke-opacity:1;paint-order:fill markers stroke;stop-color:#000000"
           d="M 498.97372,962.62186 V 1132.6262"
           id="path2372"
           inkscape:label="left pupil" />
      </g>
      <path
         style="opacity:1;fill:#f19020;fill-opacity:1;stroke:#f19020;stroke-width:64;stroke-linecap:round;stroke-miterlimit:4;stroke-dasharray:none;stroke-dashoffset:0;stroke-opacity:1;paint-order:fill markers stroke;stop-color:#000000"
         d="m 989.74792,829.04844 c 0,0 -79.20981,-158.55324 -107.65181,-339.05815 C 850.80708,291.41693 886.00065,64.37416 952.39143,47.162304 1018.782,29.950443 1164.1673,202.17492 1218.5222,333.38701 c 54.3549,131.2121 79.5582,438.85411 79.5582,438.85411 z"
         id="path1640"
         inkscape:label="left ear"
         sodipodi:nodetypes="cssscc" />
      <circle
         style="display:inline;fill:url(#linearGradient1855);fill-opacity:1;stroke:#000000;stroke-width:64;stroke-linecap:round;stroke-linejoin:round;paint-order:fill markers stroke;stop-color:#000000"
         id="path2117-5"
         cx="764.60791"
         cy="1038.4189"
         r="297.56189" />
      <path
         style="display:inline;opacity:0.293666;fill:none;fill-opacity:1;stroke:#ffffff;stroke-width:88.8718;stroke-linecap:round;stroke-linejoin:round;paint-order:fill markers stroke;stop-color:#000000"
         id="path3405-0"
         sodipodi:type="arc"
         sodipodi:cx="-354.0769"
         sodipodi:cy="-1185.3599"
         sodipodi:rx="204.88176"
         sodipodi:ry="175.41107"
         sodipodi:start="0"
         sodipodi:end="1.8072524"
         sodipodi:open="true"
         sodipodi:arc-type="arc"
         transform="matrix(-0.96350683,0.26768376,-0.38277068,-0.92384339,0,0)"
         inkscape:transform-center-x="109.6421"
         inkscape:transform-center-y="-62.634976"
         d="m -149.19514,-1185.3599 a 204.88176,175.41107 0 0 1 -78.10802,137.7987 204.88176,175.41107 0 0 1 -174.7691,32.7315" />
      <path
         id="path1148"
         style="display:inline;opacity:1;fill:#ffcb4c;stroke:#ffcb4c;stroke-width:64;stroke-linecap:round;stroke-linejoin:round;stroke-miterlimit:4;stroke-dasharray:6.4, 6.4;stroke-dashoffset:0;stroke-opacity:1;paint-order:fill markers stroke;stop-color:#000000"
         inkscape:label="head"
         d="m 1458.9969,1114.0737 c 0,0 -0.1078,-10.8206 -0.9512,-28.418 -0.4217,-8.7987 -1.0259,-19.2912 -1.8945,-30.9726 -0.8686,-11.6814 -1.9997,-24.5525 -3.4727,-38.1055 -1.4729,-13.553 -3.2888,-27.78625 -5.5234,-42.19973 -2.2347,-14.41345 -4.8892,-29.0047 -8.043,-43.26755 -1.5769,-7.13143 -3.279,-14.18175 -5.1152,-21.08594 -1.8362,-6.90419 -3.8068,-13.66232 -5.9219,-20.21289 -2.1151,-6.55056 -4.3733,-12.89234 -6.7871,-18.96289 -2.4138,-6.07055 -4.9828,-11.86984 -7.7148,-17.33398 -2.7321,-5.46415 -5.9346,-10.78574 -9.5391,-15.96094 -3.6045,-5.1752 -7.6114,-10.20474 -11.9492,-15.08399 -4.3379,-4.87924 -9.0074,-9.60926 -13.9395,-14.18554 -4.9321,-4.57628 -10.1264,-8.99932 -15.5136,-13.26563 -5.3873,-4.2663 -10.9666,-8.37489 -16.67,-12.32422 -5.7033,-3.94932 -11.5298,-7.73794 -17.4101,-11.36328 -11.7607,-7.25067 -23.7371,-13.84709 -35.3711,-19.75976 -11.634,-5.91267 -22.9257,-11.14156 -33.3203,-15.66016 -10.3946,-4.5186 -19.8912,-8.32606 -27.9336,-11.39453 -16.085,-6.13693 -26.3535,-9.31836 -26.3535,-9.31836 -106.8314,-15.98813 -232.17382,6.96944 -312.62422,60.01367 -101.26734,66.76968 -136.88727,176.62945 -198.70703,211.95509 -61.81975,35.32403 -225.20029,77.27153 -280.39649,83.89503 -55.19621,6.6235 -183.25035,6.6246 -161.17187,123.6406 22.07848,117.016 112.59921,282.6048 377.54101,247.2793 264.94179,-35.3256 313.51517,-44.1575 536.507,-88.3145 22.8973,-4.5341 53.8481,-18.3195 86.8281,-36.9472 l 213.8711,-11.4278 -92.9258,-75.2558 c 5.3578,-4.8405 10.5999,-9.7184 15.6328,-14.6367 l 40.7348,-36.612 16.4606,-35.431 c 3.4806,-6.5537 6.4805,-13.0207 8.6269,-19.3066 1.0523,-3.0817 2.0328,-6.6268 3.0469,-9.9766 z"
         sodipodi:nodetypes="csssssssssssssssssscssssssccccccsc" />
      <path
         style="display:none;fill:#123456;stroke:#123456;stroke-width:64;stroke-linecap:round;stroke-linejoin:round;-inkscape-stroke:none;paint-order:fill markers stroke;stop-color:#000000"
         d="M 880.93148,744.0449 C 763.91552,771.643 622.61323,916.25706 622.61323,916.25706 620.95257,833.21142 611.27974,749.4374 735.2135,677.80944 c -124.69479,-7.45678 -249.2876,-15.1175 -408.45194,46.36482 0,0 303.22641,-263.62224 490.14233,-280.39675 172.2122,-15.45493 264.94181,37.53343 264.94181,37.53343 -0.1923,-45.68323 -31.4577,-88.25915 -90.52179,-128.0552 0,0 295.85169,97.14532 333.38509,194.29065 37.5334,97.14533 28.702,167.79647 28.702,167.79647 l -243.7525,34.92308 c 0,0 -111.71105,-33.81914 -228.72702,-6.22104 z"
         id="path1637"
         sodipodi:nodetypes="zcccsccsccz"
         inkscape:label="top hair" />
      <path
         id="path13483"
         style="display:inline;opacity:1;fill:#ffcb4c;stroke:#ffcb4c;stroke-width:64;stroke-linecap:round;stroke-linejoin:round;stroke-miterlimit:4;stroke-dasharray:6.4, 6.4;stroke-dashoffset:0;stroke-opacity:1;paint-order:fill markers stroke;stop-color:#000000"
         inkscape:label="right ear"
         d="M 1312.7365,6.7313009 C 1235.3852,25.014087 1144.903,339.12002 1138.0696,429.15578 c -6.0841,80.16262 -34.2851,285.01999 -42.3307,343.08713 0,0 10.725,0.73414 27.7903,3.00659 8.5327,1.13626 18.6504,2.65719 29.8057,4.66363 11.1552,2.00646 23.3469,4.49779 36.029,7.57583 12.6821,3.07804 25.8547,6.74274 38.9679,11.09375 6.5565,2.17553 13.0982,4.52233 19.557,7.05387 6.4589,2.53151 12.8336,5.24657 19.0578,8.15927 6.2241,2.91273 12.2965,6.02236 18.149,9.34144 5.8525,3.31907 11.4849,6.84817 16.8288,10.59875 5.3438,3.75063 10.4001,7.72362 15.0984,11.93094 4.6982,4.20731 9.039,8.64956 12.9547,13.33874 3.9156,4.68921 7.7496,9.74206 11.4951,15.0946 3.7455,5.35255 7.4019,11.00483 10.967,16.89322 3.5652,5.8884 7.0375,12.01203 10.4125,18.30872 3.3751,6.29669 6.6533,12.76644 9.8283,19.34392 6.35,13.15495 12.2897,26.7443 17.7799,40.25732 5.4901,13.5129 10.5315,26.94805 15.0824,39.7983 4.551,12.8508 8.6125,25.1165 12.1447,36.2849 3.5323,11.1684 6.5339,21.2405 8.9682,29.7063 4.8685,16.9315 7.4625,27.4372 7.4625,27.4372 67.2297,-136.6609 185.9151,-419.0034 143.1721,-638.40025 C 1518.77,163.34932 1362.897,-5.1246773 1312.7365,6.7313009 Z" />
      <g
         id="g12993"
         inkscape:label="right eye"
         transform="translate(159.94302,-39.483544)">
        <path
           style="opacity:1;fill:#65471b;fill-opacity:1;stroke:#65471b;stroke-width:64;stroke-linecap:round;stroke-linejoin:round;stroke-miterlimit:4;stroke-dasharray:none;stroke-dashoffset:0;stroke-opacity:1;paint-order:fill markers stroke;stop-color:#000000"
           d="m 661.97569,1226.0485 53.36716,-115.5008 86.53085,168.711 z"
           id="path7852"
           inkscape:label="eyenub"
           sodipodi:nodetypes="cccc" />
        <path
           id="path1915"
           style="opacity:1;fill:#d19020;fill-opacity:1;stroke:#65471b;stroke-width:64;stroke-linecap:round;stroke-linejoin:round;paint-order:fill markers stroke;stop-color:#000000"
           inkscape:label="righteye"
           d="m 1150.289,1075.2222 c 0,120.7167 -151.8603,218.5769 -272.57702,218.5769 -120.71671,0 -164.57695,-71.8602 -164.57699,-192.5769 -2e-5,-120.71675 97.86024,-244.57702 218.57699,-244.57701 120.71672,-2e-5 218.57702,97.86025 218.57702,218.57701 z"
           sodipodi:nodetypes="sssss" />
        <path
           style="display:inline;fill:#d19020;fill-opacity:1;stroke:#65471b;stroke-width:64;stroke-linecap:round;stroke-linejoin:round;stroke-dasharray:none;stroke-opacity:1;paint-order:fill markers stroke"
           d="m 713.13499,1101.2222 c 0,0 78.13001,-86.6193 183.04033,-83.027 104.91028,3.5924 240.08368,120.3099 240.08368,120.3099"
           id="path1" />
      </g>
      <g
         id="g1475"
         inkscape:label="right lid"
         style="display:inline" />
      <path
         style="opacity:1;fill:none;fill-opacity:1;stroke:#ffcb4c;stroke-width:32;stroke-linecap:round;stroke-linejoin:round;stroke-miterlimit:4;stroke-dasharray:none;stroke-dashoffset:0;stroke-opacity:1;paint-order:fill markers stroke;stop-color:#000000"
         d="M 582.04101,85.617826 C 759.04314,308.91856 880.63172,549.17748 894.75756,822.32339"
         id="path6280"
         sodipodi:nodetypes="cc"
         inkscape:label="eyelash right big" />
      <path
         style="display:inline;fill:none;fill-opacity:1;stroke:#ffcb4c;stroke-width:32;stroke-linecap:round;stroke-linejoin:round;stroke-miterlimit:4;stroke-dasharray:none;stroke-dashoffset:0;stroke-opacity:1;paint-order:fill markers stroke;stop-color:#000000"
         d="m 871.51099,256.80938 c 57.33566,162.60107 95.67474,355.38513 98.55013,516.11928"
         id="path6280-0"
         sodipodi:nodetypes="cc"
         inkscape:label="eyelash right small" />
      <g
         id="g1"
         style="display:inline"
         transform="translate(159.94302,-39.483544)">
        <ellipse
           style="fill:url(#linearGradient1853);fill-opacity:1;stroke:#000000;stroke-width:64;stroke-linecap:round;stroke-linejoin:round;paint-order:fill markers stroke;stop-color:#000000"
           id="path2117"
           cx="923.27612"
           cy="1067.8856"
           rx="297.56201"
           ry="297.56189" />
        <path
           style="fill:#ffffff;fill-opacity:0.251656;stroke:#000000;stroke-width:64;stroke-linecap:round;stroke-linejoin:round;paint-order:fill markers stroke;stop-color:#000000"
           d="m 634.05713,995.58093 -71.95714,-42.0619 30.93809,-41.01905 52.49048,33.71905 z"
           id="path2614" />
        <path
           style="fill:#000000;fill-opacity:1;stroke:#000000;stroke-width:64;stroke-linecap:round;stroke-linejoin:round;paint-order:fill markers stroke;stop-color:#000000"
           d="m 1216.2694,1120.7238 118.0589,52.4625 -42.4539,116.4057 -122.6533,-47.5535 c 42.1764,-40.0079 47.6842,-81.3069 47.0483,-121.3147 z"
           id="path2729"
           sodipodi:nodetypes="ccccc" />
        <path
           style="opacity:0.293666;fill:none;fill-opacity:1;stroke:#ffffff;stroke-width:80.043;stroke-linecap:round;stroke-linejoin:round;paint-order:fill markers stroke;stop-color:#000000"
           id="path3405"
           sodipodi:type="arc"
           sodipodi:cx="-542.32513"
           sodipodi:cy="-1301.9989"
           sodipodi:rx="208.66182"
           sodipodi:ry="210.7543"
           sodipodi:start="0"
           sodipodi:end="1.8072524"
           sodipodi:open="true"
           sodipodi:arc-type="arc"
           d="m -333.66331,-1301.9989 a 208.66182,210.7543 0 0 1 -79.54911,165.5635 208.66182,210.7543 0 0 1 -177.99358,39.3264"
           transform="matrix(-0.94605222,0.32401418,-0.31858053,-0.9478958,0,0)"
           inkscape:transform-center-x="109.64211"
           inkscape:transform-center-y="-77.214484" />
      </g>
      <g
         id="g13003"
         inkscape:label="face"
         style="display:inline"
         transform="rotate(1.942547,1884.0472,5750.5167)">
        <path
           style="display:inline;fill:#ff5678;fill-opacity:1;stroke:#65471b;stroke-width:64;stroke-linecap:round;stroke-linejoin:round;stroke-miterlimit:4;stroke-dasharray:none;stroke-dashoffset:0;stroke-opacity:1;paint-order:fill markers stroke;stop-color:#000000"
           d="m 132.4709,1346.7875 c 0,0 79.95948,128.8338 202.37657,126.341 122.41709,-2.4928 264.25593,-17.3037 337.3054,-148.133"
           id="path2200-0"
           sodipodi:nodetypes="czc"
           inkscape:label="mouf" />
        <path
           style="opacity:1;fill:none;fill-opacity:1;stroke:#65471b;stroke-width:64;stroke-linecap:round;stroke-linejoin:round;stroke-miterlimit:4;stroke-dasharray:none;stroke-dashoffset:0;stroke-opacity:1;paint-order:fill markers stroke;stop-color:#000000"
           d="m 83.898236,1201.0695 68.443294,6.6235 -37.53342,39.7413"
           id="path2163"
           inkscape:label="left nostril" />
        <path
           style="opacity:1;fill:none;fill-opacity:1;stroke:#65471b;stroke-width:64;stroke-linecap:round;stroke-linejoin:round;stroke-miterlimit:4;stroke-dasharray:none;stroke-dashoffset:0;stroke-opacity:1;paint-order:fill markers stroke;stop-color:#000000"
           d="m 401.82839,1251.85 -59.6119,-44.157 121.43166,-17.6628"
           id="path2198"
           inkscape:label="right nostril" />
        <path
           style="opacity:1;fill:#ffcb4c;fill-opacity:1;stroke:#65471b;stroke-width:64;stroke-linecap:round;stroke-linejoin:round;stroke-miterlimit:4;stroke-dasharray:none;stroke-dashoffset:0;stroke-opacity:1;paint-order:fill markers stroke;stop-color:#000000"
           d="m 132.4709,1346.7875 90.52178,-72.859 c 0,0 149.51349,126.8704 283.04735,97.7414 128.84913,-28.1072 165.64878,-48.6198 165.64878,-48.6198"
           id="path2200"
           sodipodi:nodetypes="ccsc"
           inkscape:label="mouf" />
        <path
           style="opacity:1;fill:#ffffff;fill-opacity:1;stroke:#65471b;stroke-width:64;stroke-linecap:round;stroke-linejoin:round;stroke-miterlimit:4;stroke-dasharray:none;stroke-dashoffset:0;stroke-opacity:1;paint-order:fill markers stroke;stop-color:#000000"
           d="m 222.99268,1530.0389 -90.52178,-183.2514 90.52178,-72.859 103.76887,66.2354 z"
           id="path2202"
           sodipodi:nodetypes="ccccc"
           inkscape:label="toof" />
      </g>
      <g
         id="path9452"
         style="display:inline;fill:#00ff00;stroke:#ffffff;stroke-width:96;stroke-miterlimit:4;stroke-dasharray:none;paint-order:stroke fill markers"
         transform="rotate(-25.668609,475.28784,899.58582)">
        <path
           id="path9729"
           style="color:#000000;fill:#00ff00;stroke:#000000;stroke-width:96;stroke-linecap:round;stroke-linejoin:round;stroke-miterlimit:4;stroke-dasharray:none;paint-order:stroke fill markers"
           d="m 501.30654,429.37996 a 48,48 0 0 0 -41.07422,54.04492 l 35.6875,261.75195 a 48,48 0 0 0 54.04492,41.07422 48,48 0 0 0 41.07422,-54.04492 l -35.6875,-261.75 a 48,48 0 0 0 -54.04492,-41.07617 z m 42.17282,309.31156 -35.68794,-261.7509 M 276.93544,464.3448 a 48,48 0 0 0 -17.66601,6.22071 48,48 0 0 0 -16.82227,65.76367 l 152.46485,257.28125 a 48,48 0 0 0 65.76367,16.82226 48,48 0 0 0 16.82422,-65.76367 L 325.03505,487.38777 A 48,48 0 0 0 276.93544,464.3448 Z M 436.20566,769.13977 283.7405,511.85902 M 118.79286,647.87996 a 48,48 0 0 0 -31.12695,19.51172 48,48 0 0 0 11.296875,66.93554 L 326.72841,896.30574 a 48,48 0 0 0 66.93555,-11.29688 48,48 0 0 0 -11.29883,-66.93554 L 154.5995,656.09285 a 48,48 0 0 0 -35.80664,-8.21289 z M 354.54738,857.18938 126.78179,695.21041" />
      </g>
    </g>
    <path
       style="display:inline;fill:#f2f2f2;stroke:#808080;stroke-width:64;stroke-linecap:round;stroke-linejoin:round;paint-order:fill markers stroke;stop-color:#000000"
       d="m 956.67571,1896.9405 82.85979,-325.9979 c 0,0 153.1661,14.6871 209.8166,-2.0982 56.6504,-16.7853 56.6504,-29.3743 56.6504,-29.3743 l 186.7367,272.7614 z"
       id="path877"
       sodipodi:nodetypes="ccsccc" />
    <path
       style="display:inline;fill:#f2f2f2;stroke:#808080;stroke-width:64;stroke-linecap:round;stroke-linejoin:round;paint-order:fill markers stroke;stop-color:#000000"
       d="m 1039.5355,1570.9426 -65.8473,151.2987 432.7773,-105.7721 -100.463,-76.9991 -266.4669,31.4725"
       id="path1046"
       sodipodi:nodetypes="ccccc" />
  </g>
</svg>
