<?xml version="1.0" encoding="UTF-8" standalone="no"?>
<!-- Created with Inkscape (http://www.inkscape.org/) -->

<svg
   version="1.1"
   id="svg824"
   width="1706.6667"
   height="1706.6667"
   viewBox="0 0 1706.6667 1706.6667"
   sodipodi:docname="ying_paintbrush.svg"
   inkscape:version="1.1 (c68e22c387, 2021-05-23)"
   inkscape:export-filename="D:\Pictures\yingmotes\ying_mug.png"
   inkscape:export-xdpi="72"
   inkscape:export-ydpi="72"
   xmlns:inkscape="http://www.inkscape.org/namespaces/inkscape"
   xmlns:sodipodi="http://sodipodi.sourceforge.net/DTD/sodipodi-0.dtd"
   xmlns="http://www.w3.org/2000/svg"
   xmlns:svg="http://www.w3.org/2000/svg">
  <defs
     id="defs828" />
  <sodipodi:namedview
     id="namedview826"
     pagecolor="#ffffff"
     bordercolor="#666666"
     borderopacity="1.0"
     inkscape:pageshadow="2"
     inkscape:pageopacity="0.0"
     inkscape:pagecheckerboard="0"
     showgrid="false"
     inkscape:zoom="0.90585932"
     inkscape:cx="709.27128"
     inkscape:cy="1022.7857"
     inkscape:window-width="1920"
     inkscape:window-height="1001"
     inkscape:window-x="-9"
     inkscape:window-y="-9"
     inkscape:window-maximized="1"
     inkscape:current-layer="g13003"
     inkscape:lockguides="true" />
  <g
     id="layer1"
     inkscape:label="Ying"
     style="display:inline"
     transform="translate(24.978953)">
    <path
       style="display:none;fill:#123456;stroke:#123456;stroke-width:64;stroke-linecap:round;stroke-linejoin:round;-inkscape-stroke:none;paint-order:fill markers stroke;stop-color:#000000"
       d="m 1430.5019,851.85066 c 70.7982,131.45402 185.3824,239.02474 198.7064,401.82834 -29.438,-19.1346 -55.9321,-14.719 -79.4825,13.2471 91.0222,54.7003 58.5139,175.917 81.6903,267.1496 l -99.3531,6.6236 c 66.7588,58.9185 81.773,128.1858 90.5218,198.7063 l -494.5072,2.2079 c -24.3802,-41.4813 23.1145,-208.5632 66.2355,-227.0436 0,0 3.3791,-20.0154 -75.3532,-9.4549 28.741,-247.2725 185.6947,-422.1763 311.542,-653.26434 z"
       id="path3091"
       sodipodi:nodetypes="cccccccccc"
       inkscape:label="mane" />
    <path
       style="opacity:1;fill:#ffcb4c;fill-opacity:1;stroke:#ffcb4c;stroke-width:64;stroke-linecap:round;stroke-linejoin:round;stroke-miterlimit:4;stroke-dasharray:none;stroke-dashoffset:0;stroke-opacity:1;paint-order:fill markers stroke;stop-color:#000000"
       d="m 1057.292,1323.2762 -64.78487,239.5079 62.82177,-25.5214 -51.0427,200.2443 459.3838,-15.7054 c 0,0 -127.6066,-94.2326 -149.2016,-184.5389 -21.5949,-90.3062 51.0427,-253.25 51.0427,-253.25 z"
       id="path3340"
       inkscape:label="neck" />
    <g
       id="g12988"
       inkscape:label="head"
       transform="rotate(14.037417,864.68,1035.7055)">
      <path
         style="display:inline;fill:none;fill-opacity:1;stroke:#f19020;stroke-width:32;stroke-linecap:round;stroke-linejoin:round;stroke-miterlimit:4;stroke-dasharray:none;stroke-dashoffset:0;stroke-opacity:1;paint-order:fill markers stroke;stop-color:#000000"
         d="m 413.41155,444.74627 c 146.95696,90.16728 298.17327,215.74277 401.65747,338.76616"
         id="path6280-0-6"
         sodipodi:nodetypes="cc"
         inkscape:label="eyelash left small" />
      <path
         style="display:inline;fill:none;fill-opacity:1;stroke:#f19020;stroke-width:32;stroke-linecap:round;stroke-linejoin:round;stroke-miterlimit:4;stroke-dasharray:none;stroke-dashoffset:0;stroke-opacity:1;paint-order:fill markers stroke;stop-color:#000000"
         d="M 335.4722,249.78204 C 585.52839,386.40128 791.16802,560.24166 910.67117,806.26447"
         id="path6280-3"
         sodipodi:nodetypes="cc"
         inkscape:label="eyelash left big" />
      <g
         id="g12997"
         inkscape:label="left eye"
         transform="translate(199.1648,-65.887939)">
        <path
           id="path1915-9"
           style="display:inline;fill:#fefefe;stroke:#65471b;stroke-width:64;stroke-linecap:round;stroke-linejoin:round;paint-order:fill markers stroke;stop-color:#000000"
           inkscape:label="lefteye"
           d="m 792.61751,1048.7279 c 10e-6,120.7167 -155.86024,218.577 -276.57698,218.577 -120.71674,0 -160.57699,-55.8603 -160.57698,-176.577 0,-120.71673 97.86025,-260.57698 218.57698,-260.57698 120.71673,0 218.57698,97.86025 218.57698,218.57698 z"
           sodipodi:nodetypes="sssss" />
        <path
           style="opacity:1;fill:#ffffff;fill-opacity:1;stroke:#65471b;stroke-width:48;stroke-linecap:round;stroke-linejoin:round;stroke-miterlimit:4;stroke-dasharray:none;stroke-dashoffset:0;stroke-opacity:1;paint-order:fill markers stroke;stop-color:#000000"
           d="m 473.27072,969.04817 25.703,163.57803"
           id="path2372"
           inkscape:label="left pupil"
           sodipodi:nodetypes="cc" />
      </g>
      <path
         style="opacity:1;fill:#f19020;fill-opacity:1;stroke:#f19020;stroke-width:64;stroke-linecap:round;stroke-miterlimit:4;stroke-dasharray:none;stroke-dashoffset:0;stroke-opacity:1;paint-order:fill markers stroke;stop-color:#000000"
         d="m 939.23743,860.34461 c 0,0 -83.18079,-156.50647 -116.16321,-336.2372 -36.28394,-197.72166 -6.82394,-425.579269 59.11195,-444.458969 65.9359,-18.87971 215.61583,149.625709 273.26043,279.426169 57.6447,129.80044 90.5939,436.7095 90.5939,436.7095 z"
         id="path1640"
         inkscape:label="left ear"
         sodipodi:nodetypes="cssscc"
         inkscape:transform-center-x="4.5182473"
         inkscape:transform-center-y="-229.54228" />
      <path
         id="path1148"
         style="display:inline;opacity:1;fill:#ffcb4c;stroke:#ffcb4c;stroke-width:64;stroke-linecap:round;stroke-linejoin:round;stroke-miterlimit:4;stroke-dasharray:6.4, 6.4;stroke-dashoffset:0;stroke-opacity:1;paint-order:fill markers stroke;stop-color:#000000"
         inkscape:label="head"
         d="m 1498.2195,1087.6707 c 0,0 -0.1078,-10.8206 -0.9512,-28.418 -0.4217,-8.7987 -1.0259,-19.2912 -1.8945,-30.9726 -0.8686,-11.6814 -1.9997,-24.5525 -3.4727,-38.10554 -1.4729,-13.553 -3.2888,-27.7877 -5.5234,-42.2012 -2.2347,-14.41345 -4.8892,-29.0047 -8.043,-43.26755 -1.5769,-7.13143 -3.279,-14.18175 -5.1152,-21.08594 -1.8362,-6.90419 -3.8068,-13.66232 -5.9219,-20.21289 -2.1151,-6.55056 -4.3733,-12.89234 -6.7871,-18.96289 -2.4138,-6.07055 -4.9828,-11.86984 -7.7148,-17.33398 -2.7321,-5.46415 -5.9346,-10.78574 -9.5391,-15.96094 -3.6045,-5.1752 -7.6114,-10.20474 -11.9492,-15.08399 -4.3379,-4.87924 -9.0074,-9.60926 -13.9395,-14.18554 -4.9321,-4.57628 -10.1264,-8.99932 -15.5136,-13.26563 -5.3873,-4.2663 -10.9666,-8.37489 -16.67,-12.32422 -5.7033,-3.94932 -11.5298,-7.73794 -17.4101,-11.36328 -11.7607,-7.25067 -23.7371,-13.84709 -35.3711,-19.75976 -11.634,-5.91267 -22.9257,-11.14156 -33.3203,-15.66016 -10.3946,-4.5186 -19.8912,-8.32606 -27.9336,-11.39453 -16.085,-6.13693 -26.3535,-9.31836 -26.3535,-9.31836 -106.8313,-15.98813 -232.1746,6.96944 -312.62504,60.01367 -101.26734,66.76968 -136.88727,176.62945 -198.70703,211.95509 -61.81975,35.3255 -225.20029,77.27304 -280.39649,83.89654 -55.19621,6.6235 -183.25035,6.6246 -161.17187,123.6406 22.07848,117.016 112.59921,282.6048 377.54101,247.2793 264.94179,-35.3256 313.51517,-44.1575 536.50782,-88.3145 22.8973,-4.5341 53.8481,-18.3195 86.8281,-36.9472 l 213.8711,-11.4278 -92.9258,-75.2558 c 5.3578,-4.8405 10.5999,-9.7184 15.6328,-14.6367 l 142.0762,-2.375 -84.8808,-69.668 c 3.4806,-6.5537 6.4805,-13.0207 8.6269,-19.3066 1.0523,-3.0817 2.0328,-6.6268 3.0469,-9.9766 z" />
      <path
         style="display:none;fill:#123456;stroke:#123456;stroke-width:64;stroke-linecap:round;stroke-linejoin:round;-inkscape-stroke:none;paint-order:fill markers stroke;stop-color:#000000"
         d="m 1022.0915,653.63588 c -109.87896,48.79551 -221.94899,217.08061 -221.94899,217.08061 -17.01456,-81.30093 -42.03756,-161.83353 66.4838,-255.17836 -123.91817,15.76962 -247.7739,31.31993 -392.79546,121.22049 0,0 249.14803,-315.22722 429.7222,-366.33409 166.36935,-47.08654 267.30975,-12.19156 267.30975,-12.19156 -8.6509,-44.85706 -47.2616,-80.90488 -112.6755,-109.07175 0,0 308.7267,40.66328 363.6049,129.17516 54.8783,88.51187 59.2865,159.57624 59.2865,159.57624 l -233.0655,79.46929 c 0,0 -116.0423,-12.54154 -225.9217,36.25397 z"
         id="path1637"
         sodipodi:nodetypes="zcccsccsccz"
         inkscape:label="top hair" />
      <path
         id="path13483"
         style="display:inline;opacity:1;fill:#ffcb4c;stroke:#ffcb4c;stroke-width:64;stroke-linecap:round;stroke-linejoin:round;stroke-miterlimit:4;stroke-dasharray:6.4, 6.4;stroke-dashoffset:0;stroke-opacity:1;paint-order:fill markers stroke;stop-color:#000000"
         inkscape:label="right ear"
         d="m 1169.6319,31.352354 c -73.0939,31.221194 -108.6175,356.163656 -99.9779,446.044076 7.6921,80.02433 14.8825,286.68861 16.8693,345.27682 0,0 10.6928,-1.1078 27.8955,-1.78242 8.6013,-0.33727 18.8302,-0.56616 30.1642,-0.4938 11.334,0.0723 23.7721,0.44549 36.7935,1.31301 13.0214,0.86753 26.6262,2.22935 40.2897,4.27756 6.8317,1.02412 13.6782,2.21952 20.4743,3.61113 6.7963,1.39156 13.541,2.97834 20.1711,4.78556 6.63,1.80726 13.1443,3.83443 19.4775,6.10552 6.3333,2.27109 12.4854,4.78671 18.3912,7.56983 5.9057,2.78314 11.5662,5.83449 16.9138,9.17784 5.3476,3.34337 10.3831,6.97925 15.0419,10.93102 4.6588,3.95179 9.2993,8.27583 13.9036,12.91029 4.6043,4.63446 9.1721,9.57947 13.6903,14.77267 4.5182,5.19323 8.985,10.63409 13.3857,16.26206 4.4005,5.62799 8.7352,11.44301 12.9866,17.38182 8.5028,11.87763 16.6755,24.25333 24.3923,36.63043 7.7167,12.3772 14.9781,24.7545 21.6563,36.63953 6.6782,11.885 12.7743,23.2773 18.1616,33.6786 5.3873,10.4012 10.0645,19.8131 13.9084,27.7389 7.688,15.8517 12.0375,25.7602 12.0375,25.7602 42.9092,-146.13373 111.645,-444.59462 32.0702,-653.47205 C 1399.3809,150.4927 1217.0317,11.106099 1169.6319,31.352354 Z" />
      <g
         id="g13003"
         inkscape:label="face"
         transform="translate(199.1648,-65.887939)">
        <path
           style="opacity:1;fill:#ffcb4c;fill-opacity:1;stroke:none;stroke-width:64;stroke-linecap:round;stroke-linejoin:round;stroke-miterlimit:4;stroke-dasharray:none;stroke-dashoffset:0;stroke-opacity:1;paint-order:fill markers stroke;stop-color:#000000"
           d="m 132.4709,1346.7875 90.52178,-72.859 c 0,0 146.93476,106.6315 222.99268,101.561 66.23545,-4.4157 119.2238,-37.5334 119.2238,-37.5334 l -32.92171,-235.8975 -431.65198,43.5528 -7.569527,162.8166 z"
           id="path3264"
           sodipodi:nodetypes="ccsc"
           inkscape:label="mouf" />
        <path
           style="opacity:1;fill:none;fill-opacity:1;stroke:#65471b;stroke-width:64;stroke-linecap:round;stroke-linejoin:round;stroke-miterlimit:4;stroke-dasharray:none;stroke-dashoffset:0;stroke-opacity:1;paint-order:fill markers stroke;stop-color:#000000"
           d="m 83.898236,1201.0695 68.443294,6.6235 -37.53342,39.7413"
           id="path2163"
           inkscape:label="left nostril" />
        <path
           style="opacity:1;fill:none;fill-opacity:1;stroke:#65471b;stroke-width:64;stroke-linecap:round;stroke-linejoin:round;stroke-miterlimit:4;stroke-dasharray:none;stroke-dashoffset:0;stroke-opacity:1;paint-order:fill markers stroke;stop-color:#000000"
           d="m 401.82839,1251.85 -59.6119,-44.157 121.43166,-17.6628"
           id="path2198"
           inkscape:label="right nostril" />
        <path
           style="display:inline;fill:#ffcb4c;fill-opacity:1;stroke:#65471b;stroke-width:64;stroke-linecap:round;stroke-linejoin:round;stroke-miterlimit:4;stroke-dasharray:none;stroke-dashoffset:0;stroke-opacity:1;paint-order:fill markers stroke;stop-color:#000000"
           d="m 132.47086,1346.7875 90.52178,-72.859 c 0,0 123.5026,100.0607 216.76669,100.5603 93.26409,0.4996 134.75315,-71.3205 134.75315,-71.3205"
           id="path2200"
           sodipodi:nodetypes="cczc"
           inkscape:label="mouf" />
        <path
           style="opacity:1;fill:#ffffff;fill-opacity:1;stroke:#65471b;stroke-width:64;stroke-linecap:round;stroke-linejoin:round;stroke-miterlimit:4;stroke-dasharray:none;stroke-dashoffset:0;stroke-opacity:1;paint-order:fill markers stroke;stop-color:#000000"
           d="m 222.99268,1530.0389 -90.52178,-183.2514 90.52178,-72.859 103.76887,66.2354 z"
           id="path2202"
           sodipodi:nodetypes="ccccc"
           inkscape:label="toof" />
      </g>
      <g
         id="g12993"
         inkscape:label="right eye"
         transform="translate(199.1648,-65.887939)">
        <path
           style="opacity:1;fill:#65471b;fill-opacity:1;stroke:#65471b;stroke-width:64;stroke-linecap:round;stroke-linejoin:round;stroke-miterlimit:4;stroke-dasharray:none;stroke-dashoffset:0;stroke-opacity:1;paint-order:fill markers stroke;stop-color:#000000"
           d="m 661.97569,1226.0485 53.36716,-115.5008 86.53085,168.711 z"
           id="path7852"
           inkscape:label="eyenub"
           sodipodi:nodetypes="cccc" />
        <path
           id="path1915"
           style="opacity:1;fill:#fefefe;stroke:#65471b;stroke-width:64;stroke-linecap:round;stroke-linejoin:round;paint-order:fill markers stroke;stop-color:#000000"
           inkscape:label="righteye"
           d="m 1150.289,1075.2222 c 0,120.7167 -151.8603,218.5769 -272.57702,218.5769 -120.71671,0 -164.57695,-71.8602 -164.57699,-192.5769 -2e-5,-120.71675 97.86024,-244.57702 218.57699,-244.57701 120.71672,-2e-5 218.57702,97.86025 218.57702,218.57701 z"
           sodipodi:nodetypes="sssss" />
        <path
           style="opacity:1;fill:#ffffff;fill-opacity:1;stroke:#65471b;stroke-width:48;stroke-linecap:round;stroke-linejoin:round;stroke-miterlimit:4;stroke-dasharray:none;stroke-dashoffset:0;stroke-opacity:1;paint-order:fill markers stroke;stop-color:#000000"
           d="M 818.74112,985.18485 863.6393,1169.675"
           id="path2350"
           inkscape:label="right pupil" />
      </g>
      <path
         style="opacity:1;fill:none;fill-opacity:1;stroke:#ffcb4c;stroke-width:32;stroke-linecap:round;stroke-linejoin:round;stroke-miterlimit:4;stroke-dasharray:none;stroke-dashoffset:0;stroke-opacity:1;paint-order:fill markers stroke;stop-color:#000000"
         d="M 621.26279,59.213431 C 798.26492,282.51405 919.8535,522.77297 933.97934,795.91888"
         id="path6280"
         sodipodi:nodetypes="cc"
         inkscape:label="eyelash right big" />
      <path
         style="display:inline;fill:none;fill-opacity:1;stroke:#ffcb4c;stroke-width:32;stroke-linecap:round;stroke-linejoin:round;stroke-miterlimit:4;stroke-dasharray:none;stroke-dashoffset:0;stroke-opacity:1;paint-order:fill markers stroke;stop-color:#000000"
         d="M 910.73277,230.40487 C 968.06843,393.00594 1006.4075,585.79 1009.2829,746.52415"
         id="path6280-0"
         sodipodi:nodetypes="cc"
         inkscape:label="eyelash right small" />
      <g
         id="g4571"
         transform="matrix(0.58971581,-0.31875562,0.31873813,0.60103133,152.6181,693.04356)"
         style="stroke-width:1.48081">
        <rect
           style="fill:#784421;stroke:#784421;stroke-width:94.7719;stroke-linecap:round;stroke-linejoin:round;paint-order:stroke fill markers;stop-color:#000000"
           id="rect1220"
           width="81.181595"
           height="1008.5252"
           x="-736.02582"
           y="1056.1898"
           transform="rotate(-14.037417)" />
        <g
           id="g4577"
           transform="matrix(0.82046233,-0.09358002,0.09224483,0.83211108,-170.59183,168.6386)"
           style="stroke-width:1.78095">
          <path
             id="path3646"
             style="fill:#e9c6af;stroke:#e9c6af;stroke-width:113.981;stroke-linecap:round;stroke-linejoin:round;paint-order:stroke fill markers;stop-color:#000000"
             d="m -294.72624,1012.9959 c 22.10824,88.4254 -31.65238,178.0305 -120.07772,200.1388 -88.42534,22.1082 -178.03053,-31.6524 -200.13881,-120.0777 -22.10825,-88.4254 80.78373,-357.30109 80.78373,-357.30109 0,0 217.32453,188.81464 239.4328,277.23999 z"
             sodipodi:nodetypes="ssscs" />
          <path
             id="path4505"
             style="fill:#00d4aa;stroke:#00d4aa;stroke-width:113.981;stroke-linecap:round;stroke-linejoin:round;paint-order:stroke fill markers;stop-color:#000000"
             d="m -394.65234,405.41797 c 0,0 -127.27782,181.94282 -158.26368,287.98828 a 102.11299,102.11299 0 0 0 68.84571,27.45703 102.11299,102.11299 0 0 0 66.60742,-24.74609 125.84736,125.84736 0 0 0 112.22851,69.45508 125.84736,125.84736 0 0 0 75.41797,-25.15039 c 0.12559,-2.64108 0.19922,-5.29659 0.19922,-7.96876 -1e-5,-91.14723 -165.03515,-327.03515 -165.03515,-327.03515 z"
             transform="rotate(-14.037417,877.16948,1137.1503)" />
        </g>
      </g>
      <g
         id="layer2"
         inkscape:label="hand"
         transform="matrix(-0.77789605,0.40158455,0.42495291,1.0930695,-46.326828,63.497541)"
         style="display:inline;fill:none;fill-opacity:1;stroke:#888800;stroke-width:0.989687;stroke-opacity:1">
        <path
           style="fill:none;fill-opacity:1;stroke:#a18020;stroke-width:95.0099;stroke-linecap:round;stroke-linejoin:round;stroke-miterlimit:4;stroke-dasharray:none;stroke-opacity:1;paint-order:fill markers stroke;stop-color:#000000"
           d="m 83.265067,1455.261 c 0,0 -46.374345,55.1899 -58.970242,72.2879"
           id="path15392"
           sodipodi:nodetypes="cc" />
        <path
           style="fill:none;fill-opacity:1;stroke:#a18020;stroke-width:95.0099;stroke-linecap:round;stroke-linejoin:round;stroke-miterlimit:4;stroke-dasharray:none;stroke-opacity:1;paint-order:fill markers stroke;stop-color:#000000"
           d="m 277.63359,1471.865 c -59.8589,30.7091 -127.24835,42.2017 -188.139119,25.2875"
           id="path20257"
           sodipodi:nodetypes="cc" />
        <path
           style="fill:none;fill-opacity:1;stroke:#a18020;stroke-width:95.0099;stroke-linecap:round;stroke-linejoin:round;stroke-miterlimit:4;stroke-dasharray:none;stroke-opacity:1;paint-order:fill markers stroke;stop-color:#000000"
           d="m 83.585394,1562.0096 c 61.353666,-0.072 121.637446,-17.8548 182.068076,-33.2069"
           id="path20259"
           sodipodi:nodetypes="cc" />
        <path
           style="fill:none;fill-opacity:1;stroke:#a18020;stroke-width:95.0099;stroke-linecap:round;stroke-linejoin:round;stroke-miterlimit:4;stroke-dasharray:none;stroke-opacity:1;paint-order:fill markers stroke;stop-color:#000000"
           d="m 71.288958,1621.58 c 57.429262,0.9097 115.240372,-0.2554 179.011012,-33.8028"
           id="path20261"
           sodipodi:nodetypes="cc" />
        <path
           style="fill:none;fill-opacity:1;stroke:#a18020;stroke-width:95.0099;stroke-linecap:round;stroke-linejoin:round;stroke-miterlimit:4;stroke-dasharray:none;stroke-opacity:1;paint-order:fill markers stroke;stop-color:#000000"
           d="m 89.494447,1497.1525 c 0,0 -88.0865714,16.5046 -83.8990211,77.9416 4.1875585,61.437 65.6935321,46.4859 65.6935321,46.4859 l 18.205513,-124.4275"
           id="path20376"
           sodipodi:nodetypes="cscc" />
      </g>
    </g>
  </g>
</svg>
