<?xml version="1.0" encoding="UTF-8" standalone="no"?>
<!-- Created with Inkscape (http://www.inkscape.org/) -->

<svg
   version="1.1"
   id="svg824"
   width="1706.6667"
   height="1706.6667"
   viewBox="0 0 1706.6667 1706.6667"
   sodipodi:docname="ying_boop.svg"
   inkscape:version="1.1 (c68e22c387, 2021-05-23)"
   inkscape:export-filename="D:\Pictures\yingmotes\ying.png"
   inkscape:export-xdpi="72"
   inkscape:export-ydpi="72"
   xmlns:inkscape="http://www.inkscape.org/namespaces/inkscape"
   xmlns:sodipodi="http://sodipodi.sourceforge.net/DTD/sodipodi-0.dtd"
   xmlns="http://www.w3.org/2000/svg"
   xmlns:svg="http://www.w3.org/2000/svg">
  <defs
     id="defs828" />
  <sodipodi:namedview
     id="namedview826"
     pagecolor="#ffffff"
     bordercolor="#666666"
     borderopacity="1.0"
     inkscape:pageshadow="2"
     inkscape:pageopacity="0.0"
     inkscape:pagecheckerboard="0"
     showgrid="false"
     inkscape:zoom="0.32026963"
     inkscape:cx="1576.7964"
     inkscape:cy="878.9469"
     inkscape:window-width="1920"
     inkscape:window-height="1001"
     inkscape:window-x="-9"
     inkscape:window-y="-9"
     inkscape:window-maximized="1"
     inkscape:current-layer="svg824" />
  <g
     id="layer2"
     inkscape:label="hand"
     transform="rotate(4.0566829,-1806.9021,3296.148)">
    <path
       id="path8979-5"
       style="color:#000000;fill:none;stroke:#ffffff;stroke-width:96;stroke-linecap:round;stroke-linejoin:round;stroke-miterlimit:4;stroke-dasharray:none;paint-order:stroke fill markers"
       d="m 839.19141,954.30271 a 64,64 0 0 0 -62.59961,41.73633 64,64 0 0 0 37.80859,82.23436 l 299.74801,110.9278 a 64,64 0 0 0 82.2344,-37.8086 64,64 0 0 0 -37.8105,-82.2344 L 858.82617,958.23045 a 64,64 0 0 0 -19.63476,-3.92774 z M 517.28229,642.68718 A 64.0064,64.0064 0 0 0 452.723,699.98772 l -12.48898,118.79052 a 64.0064,64.0064 0 0 0 31.56561,62.06697 l 332.72772,192.78469 a 64.0064,64.0064 0 0 0 85.73044,-90.27939 c -16.58166,-25.48672 -16.39266,-36.0683 -14.14805,-48.30575 2.24471,-12.23736 11.2652,-29.57053 27.49217,-51.41551 A 64.0064,64.0064 0 0 0 861.3362,782.11692 C 808.87225,774.57151 771.94547,756.69554 723.83303,730.9799 675.72058,705.26425 617.86604,672.01432 535.91381,645.73614 a 64.0064,64.0064 0 0 0 -18.63152,-3.04896 z m 343.07904,139.29717 a 64,64 0 0 0 -71.61719,55.34375 64,64 0 0 0 55.34375,71.61915 l 568.27151,72.83984 a 64,64 0 0 0 71.6172,-55.34375 64,64 0 0 0 -55.3438,-71.61719 z m -3.00977,-0.3125 a 64,64 0 0 0 -53.72461,22.14844 64,64 0 0 0 6.95313,90.24219 l 181.03906,155.13872 12.54296,100.4023 a 64,64 0 0 0 71.4414,55.5723 64,64 0 0 0 55.5703,-71.4395 l -15.6113,-124.9609 a 64.0064,64.0064 0 0 0 -21.8613,-40.66409 L 893.86914,796.86912 a 64,64 0 0 0 -36.51758,-15.19727 z m -84.30469,18.73438 a 64,64 0 0 0 -53.72265,22.14844 64,64 0 0 0 6.95117,90.24218 l 181.03906,155.13865 12.54297,100.4024 a 64,64 0 0 0 71.44141,55.5723 64,64 0 0 0 55.57227,-71.4395 l -15.6113,-124.9609 a 64.0064,64.0064 0 0 0 -21.8614,-40.66412 L 809.56641,815.6035 a 64,64 0 0 0 -36.51954,-15.19727 z" />
    <path
       style="color:#000000;fill:#004a54;stroke-linecap:round;stroke-linejoin:round;-inkscape-stroke:none;paint-order:stroke fill markers"
       d="m 773.04687,800.40625 a 64,64 0 0 0 -53.72265,22.14844 64,64 0 0 0 6.95117,90.24218 l 181.03906,155.13863 12.54297,100.4024 a 64,64 0 0 0 71.44141,55.5723 64,64 0 0 0 55.57227,-71.4395 l -15.6113,-124.9609 a 64.0064,64.0064 0 0 0 -21.8614,-40.6641 L 809.56641,815.60352 a 64,64 0 0 0 -36.51954,-15.19727 z"
       id="path11400" />
    <path
       style="color:#000000;fill:#004a54;stroke-linecap:round;stroke-linejoin:round;-inkscape-stroke:none;paint-order:stroke fill markers"
       d="m 857.35156,781.67187 a 64,64 0 0 0 -53.72461,22.14844 64,64 0 0 0 6.95313,90.24219 l 181.03906,155.1387 12.54296,100.4023 a 64,64 0 0 0 71.4414,55.5723 64,64 0 0 0 55.5703,-71.4395 l -15.6113,-124.9609 a 64.0064,64.0064 0 0 0 -21.8613,-40.66407 L 893.86914,796.86914 a 64,64 0 0 0 -36.51758,-15.19727 z"
       id="path9451" />
    <path
       style="color:#000000;fill:#007c8d;stroke-linecap:round;stroke-linejoin:round;-inkscape-stroke:none;paint-order:stroke fill markers"
       d="m 860.36133,781.98437 a 64,64 0 0 0 -71.61719,55.34375 64,64 0 0 0 55.34375,71.61915 l 568.27151,72.83984 a 64,64 0 0 0 71.6172,-55.34375 64,64 0 0 0 -55.3438,-71.61719 z"
       id="path8584" />
    <path
       id="path12340"
       style="color:#000000;fill:#007c8d;stroke-linecap:round;stroke-linejoin:round;-inkscape-stroke:none;paint-order:stroke fill markers"
       d="M 517.28229,642.6872 A 64.0064,64.0064 0 0 0 452.723,699.98774 l -12.48898,118.79052 a 64.0064,64.0064 0 0 0 31.56561,62.06697 l 332.72772,192.78467 a 64.0064,64.0064 0 0 0 85.73044,-90.27937 c -16.58166,-25.48672 -16.39266,-36.0683 -14.14805,-48.30575 2.24471,-12.23736 11.2652,-29.57053 27.49217,-51.41551 A 64.0064,64.0064 0 0 0 861.3362,782.11694 C 808.87225,774.57153 771.94547,756.69556 723.83303,730.97992 675.72058,705.26427 617.86604,672.01434 535.91381,645.73616 a 64.0064,64.0064 0 0 0 -18.63152,-3.04896 z" />
    <path
       style="color:#000000;fill:#007c8d;stroke-linecap:round;stroke-linejoin:round;-inkscape-stroke:none;paint-order:stroke fill markers"
       d="m 839.19141,954.30273 a 64,64 0 0 0 -62.59961,41.73633 64,64 0 0 0 37.80859,82.23434 l 299.74801,110.9278 a 64,64 0 0 0 82.2344,-37.8086 64,64 0 0 0 -37.8105,-82.2344 L 858.82617,958.23047 a 64,64 0 0 0 -19.63476,-3.92774 z"
       id="path8979" />
  </g>
</svg>
