<?xml version="1.0" encoding="UTF-8" standalone="no"?>
<!-- Created with Inkscape (http://www.inkscape.org/) -->

<svg
   version="1.1"
   id="svg824"
   width="1706.6667"
   height="1706.6667"
   viewBox="0 0 1706.6667 1706.6667"
   sodipodi:docname="ying_zapped.svg"
   inkscape:version="1.3.2 (091e20e, 2023-11-25, custom)"
   inkscape:export-filename="D:\Pictures\yingmotes\ying.png"
   inkscape:export-xdpi="72"
   inkscape:export-ydpi="72"
   xmlns:inkscape="http://www.inkscape.org/namespaces/inkscape"
   xmlns:sodipodi="http://sodipodi.sourceforge.net/DTD/sodipodi-0.dtd"
   xmlns="http://www.w3.org/2000/svg"
   xmlns:svg="http://www.w3.org/2000/svg">
  <defs
     id="defs828" />
  <sodipodi:namedview
     id="namedview826"
     pagecolor="#ffffff"
     bordercolor="#666666"
     borderopacity="1.0"
     inkscape:pageshadow="2"
     inkscape:pageopacity="0.0"
     inkscape:pagecheckerboard="0"
     showgrid="false"
     inkscape:zoom="0.2791636"
     inkscape:cx="902.69649"
     inkscape:cy="847.17349"
     inkscape:window-width="1920"
     inkscape:window-height="1001"
     inkscape:window-x="-9"
     inkscape:window-y="-9"
     inkscape:window-maximized="1"
     inkscape:current-layer="g25"
     inkscape:showpageshadow="2"
     inkscape:deskcolor="#d1d1d1" />
  <g
     id="g29"
     style="display:inline;opacity:1"
     transform="translate(40.527162,7.598843)">
    <g
       id="layer1"
       inkscape:label="shadow"
       style="display:inline"
       inkscape:groupmode="layer">
      <path
         style="display:none;fill:#000000;stroke:#000000;stroke-width:128;stroke-linecap:round;stroke-linejoin:round;stroke-dasharray:none;paint-order:fill markers stroke;stop-color:#000000;fill-opacity:1;stroke-opacity:1"
         d="m 1298.031,925.09775 c 70.7982,131.45405 284.1674,251.68945 297.4914,414.49305 -29.438,-19.1346 -154.7171,-27.3837 -178.2675,0.5824 91.0222,54.7003 88.9093,150.5875 157.6787,244.3531 l -175.3415,29.4201 c 66.7588,58.9185 145.0967,130.7187 153.8455,201.2392 l -557.83095,-0.325 c -24.3802,-41.4813 23.11455,-208.5632 66.23555,-227.0436 0,0 3.3791,-20.0154 -75.35325,-9.4549 C 1015.23,1331.0896 1172.1837,1156.1858 1298.031,925.09775 Z"
         id="path3091"
         sodipodi:nodetypes="cccccccccc"
         inkscape:label="mane" />
      <path
         style="opacity:1;fill:#000000;fill-opacity:1;stroke:#000000;stroke-width:64;stroke-linecap:round;stroke-linejoin:round;stroke-miterlimit:4;stroke-dasharray:none;stroke-dashoffset:0;stroke-opacity:1;paint-order:fill markers stroke;stop-color:#000000"
         d="m 848.0933,1398.888 -148.37217,244.5738 146.409,-30.5873 -51.04266,200.2443 459.38383,-15.7054 c 0,0 -127.6067,-94.2326 -149.2016,-184.5389 -8.588,-35.9137 142.6968,-31.1359 142.6968,-31.1359 l -91.6541,-222.1141 z"
         id="path3340"
         inkscape:label="neck"
         sodipodi:nodetypes="cccccsccc" />
      <g
         id="g12988"
         inkscape:label="head"
         transform="translate(0,60)"
         style="fill:#000000;stroke:#000000;fill-opacity:1;stroke-opacity:1">
        <path
           style="display:inline;fill:#000000;fill-opacity:1;stroke:#000000;stroke-width:64;stroke-linecap:round;stroke-linejoin:round;stroke-miterlimit:4;stroke-dasharray:none;stroke-dashoffset:0;stroke-opacity:1;paint-order:fill markers stroke;stop-color:#000000"
           d="M 128.27566,585.85892 615.90422,849.40037"
           id="path6280-0-6"
           sodipodi:nodetypes="cc"
           inkscape:label="eyelash left small" />
        <path
           style="display:inline;fill:#000000;fill-opacity:1;stroke:#000000;stroke-width:64;stroke-linecap:round;stroke-linejoin:round;stroke-miterlimit:4;stroke-dasharray:none;stroke-dashoffset:0;stroke-opacity:1;paint-order:fill markers stroke;stop-color:#000000"
           d="M 136.3074,315.66998 711.50637,872.15241"
           id="path6280-3"
           sodipodi:nodetypes="cc"
           inkscape:label="eyelash left big" />
        <path
           style="opacity:1;fill:#000000;fill-opacity:1;stroke:#000000;stroke-width:128;stroke-linecap:round;stroke-miterlimit:4;stroke-dasharray:none;stroke-dashoffset:0;stroke-opacity:1;paint-order:fill markers stroke;stop-color:#000000"
           d="m 838.98236,834.56666 c 0,0 -47.96997,-170.62298 -41.94911,-353.25573 0.53255,-16.15392 -61.80187,-57.73722 -60.39719,-73.97276 5.35376,-61.87957 80.06569,-98.16398 95.20117,-152.96809 6.91152,-25.02595 -63.91696,-61.29664 -55.66046,-82.85945 7.50354,-19.5964 93.99394,-24.84058 102.26498,-40.59429 22.50611,-42.867049 47.24834,-69.776391 70.93303,-71.304435 68.44332,-4.415697 178.83572,192.082805 207.53772,331.177245 28.702,139.09445 -4.4157,445.98536 -4.4157,445.98536 z"
           id="path1640"
           inkscape:label="left ear"
           sodipodi:nodetypes="cssssssscc" />
        <path
           id="path1148"
           style="display:inline;opacity:1;fill:#000000;stroke:#000000;stroke-width:128;stroke-linecap:round;stroke-linejoin:round;stroke-miterlimit:4;stroke-dasharray:none;stroke-dashoffset:0;stroke-opacity:1;paint-order:fill markers stroke;stop-color:#000000;fill-opacity:1"
           inkscape:label="head"
           d="m 1299.0547,1153.5586 c 0,0 -0.1078,-10.8206 -0.9512,-28.418 -0.4217,-8.7987 -1.0259,-19.2912 -1.8945,-30.9726 -0.8686,-11.6814 -1.9997,-24.5525 -3.4727,-38.1055 -1.4729,-13.553 -3.2888,-27.7877 -5.5234,-42.2012 -2.2347,-14.41345 -4.8892,-29.0047 -8.043,-43.26755 -1.5769,-7.13143 -3.279,-14.18175 -5.1152,-21.08594 -1.8362,-6.90419 -3.8068,-13.66232 -5.9219,-20.21289 -2.1151,-6.55056 -4.3733,-12.89234 -6.7871,-18.96289 -2.4138,-6.07055 -4.9828,-11.86984 -7.7148,-17.33398 -2.7321,-5.46415 -5.9346,-10.78574 -9.5391,-15.96094 -3.6045,-5.1752 -7.6114,-10.20474 -11.9492,-15.08399 -4.3379,-4.87924 -9.0074,-9.60926 -13.9395,-14.18554 -4.9321,-4.57628 -10.1264,-8.99932 -15.5136,-13.26563 -5.3873,-4.2663 -10.9666,-8.37489 -16.67,-12.32422 -5.7033,-3.94932 -11.5298,-7.73794 -17.4101,-11.36328 -11.7607,-7.25067 -23.7371,-13.84709 -35.3711,-19.75976 -11.634,-5.91267 -22.9257,-11.14156 -33.3203,-15.66016 -10.3946,-4.5186 -19.8912,-8.32606 -27.9336,-11.39453 -16.085,-6.13693 -26.3535,-9.31836 -26.3535,-9.31836 -106.83135,-15.98813 -232.17461,6.96944 -312.62504,60.01367 -101.26734,66.76968 -136.88727,176.62945 -198.70703,211.95509 -61.81975,35.3255 -225.20029,77.273 -280.39649,83.8965 -55.19621,6.6235 -183.250354,6.6246 -161.171871,123.6406 22.078481,117.016 112.599211,282.6048 377.541011,247.2793 264.94179,-35.3256 313.51517,-44.1575 536.50782,-88.3145 22.8973,-4.5341 53.8481,-18.3195 86.8281,-36.9472 l 282.2607,74.6924 -161.3154,-161.376 c 5.3578,-4.8405 10.5999,-9.7184 15.6328,-14.6367 l 230.7294,-4.9079 -173.534,-67.1351 c 3.4806,-6.5537 6.4805,-13.0207 8.6269,-19.3066 1.0523,-3.0817 2.0328,-6.6268 3.0469,-9.9766 z"
           sodipodi:nodetypes="csssssssssssssssssscssssssccccccsc" />
        <path
           style="display:none;fill:#000000;stroke:#000000;stroke-width:128;stroke-linecap:round;stroke-linejoin:round;stroke-dasharray:none;paint-order:fill markers stroke;stop-color:#000000;fill-opacity:1;stroke-opacity:1"
           d="M 880.93148,744.0449 C 763.91552,771.643 273.06645,890.92758 273.06645,890.92758 412.39925,739.41503 611.27974,749.4374 735.2135,677.80944 610.51871,670.35266 502.13501,531.64019 378.43193,382.88785 c 0,0 251.55604,77.66417 438.47196,60.88966 172.2122,-15.45493 264.94181,37.53343 264.94181,37.53343 -0.1923,-45.68323 -47.5943,-105.06418 -106.65835,-144.86023 0,0 311.98825,113.95035 349.52165,211.09568 37.5334,97.14533 28.702,167.79647 28.702,167.79647 l -243.7525,34.92308 c 0,0 -111.71105,-33.81914 -228.72702,-6.22104 z"
           id="path1637"
           sodipodi:nodetypes="zcccsccsccz"
           inkscape:label="top hair" />
        <path
           id="path13483"
           style="display:inline;opacity:1;fill:#000000;stroke:#000000;stroke-width:128;stroke-linecap:round;stroke-linejoin:round;stroke-miterlimit:4;stroke-dasharray:none;stroke-dashoffset:0;stroke-opacity:1;paint-order:fill markers stroke;stop-color:#000000;fill-opacity:1"
           inkscape:label="right ear"
           d="m 1271.4243,49.550403 c -78.3168,13.563348 -187.6611,321.611027 -199.9362,411.067457 -10.929,79.64683 -51.4882,282.41958 -63.0366,339.89269 0,0 -45.32719,155.73772 94.213,298.99815 73.171,75.1218 223.5602,50.7826 223.5602,50.7826 17.1377,-30.0851 37.3859,-67.5242 58.0996,-110.0223 10.0186,-20.555 159.4581,31.162 169.3951,8.4998 14.908,-33.9988 -109.9247,-143.53229 -96.8844,-180.81256 5.4228,-15.50287 10.5967,-31.21366 15.4491,-47.06931 6.6459,-21.71619 93.743,12.02073 98.9959,-10.07691 7.4958,-31.53293 -67.6711,-119.01412 -63.9346,-150.52313 5.6055,-47.27008 6.3702,-93.9835 0.4623,-138.55081 -1.4107,-10.64166 87.498,13.79718 85.8372,3.46764 -4.4404,-27.61652 -100.1929,-89.03397 -106.1951,-114.35082 -5.002,-21.09798 -10.4891,-41.38005 -16.366,-60.81726 C 1411.4542,152.81606 1311.6975,42.575666 1271.4243,49.550403 Z"
           sodipodi:nodetypes="sscscsssssssssss" />
        <path
           style="opacity:1;fill:#000000;fill-opacity:1;stroke:#000000;stroke-width:64;stroke-linecap:round;stroke-linejoin:round;stroke-miterlimit:4;stroke-dasharray:none;stroke-dashoffset:0;stroke-opacity:1;paint-order:fill markers stroke;stop-color:#000000"
           d="M 343.29115,83.906887 734.81454,861.80682"
           id="path6280"
           sodipodi:nodetypes="cc"
           inkscape:label="eyelash right big" />
        <path
           style="display:inline;fill:#000000;fill-opacity:1;stroke:#000000;stroke-width:64;stroke-linecap:round;stroke-linejoin:round;stroke-miterlimit:4;stroke-dasharray:none;stroke-dashoffset:0;stroke-opacity:1;paint-order:fill markers stroke;stop-color:#000000"
           d="m 604.1041,176.29149 206.01402,636.1206"
           id="path6280-0"
           sodipodi:nodetypes="cc"
           inkscape:label="eyelash right small" />
      </g>
    </g>
  </g>
  <g
     id="g20"
     inkscape:label="skeleton"
     style="display:inline"
     inkscape:groupmode="layer">
    <g
       id="g28"
       transform="rotate(-13.762443,1293.3205,1990.872)"
       inkscape:transform-center-x="-30.262755"
       inkscape:transform-center-y="395.63655"
       style="display:inline;fill:#a6ad00;stroke:#a6ad00;stroke-opacity:1;fill-opacity:1">
      <path
         style="display:inline;opacity:1;fill:#a6ad00;fill-opacity:1;stroke:#a6ad00;stroke-width:64;stroke-linecap:round;stroke-linejoin:round;stroke-dasharray:none;stroke-dashoffset:0;stroke-opacity:1;paint-order:fill markers stroke"
         d="m 1139.2679,688.31944 25.605,-128.74337 c 0,0 120.4558,-11.15179 194.5169,36.25148 135.0084,86.41297 129.7451,152.81158 129.7451,152.81158 l -12.931,81.68528 c 0,0 -54.607,68.77656 -191.4266,-62.73931 -71.3697,-68.6031 -145.5094,-79.26566 -145.5094,-79.26566 z"
         id="path26"
         sodipodi:nodetypes="ccsccsc"
         transform="translate(0,60)" />
      <path
         style="opacity:1;fill:#a6ad00;fill-opacity:1;stroke:#a6ad00;stroke-width:64;stroke-linecap:round;stroke-linejoin:round;stroke-dasharray:none;stroke-dashoffset:0;stroke-opacity:1;paint-order:fill markers stroke"
         d="m 1193.6833,481.884 40.4964,-115.09896 c 0,0 45.5423,-2.2439 167.0048,16.77992 167.249,26.19504 163.0913,48.62373 163.0913,48.62373 -5.8355,66.88842 4.2509,111.46675 -15.6708,159.76064 0,0 -57.4106,-46.09877 -182.3381,-74.66518 C 1255.4688,491.94861 1193.6833,481.884 1193.6833,481.884 Z"
         id="path27"
         sodipodi:nodetypes="ccsccsc" />
      <path
         style="opacity:1;fill:#a6ad00;fill-opacity:1;stroke:#a6ad00;stroke-width:64;stroke-linecap:round;stroke-linejoin:round;stroke-dasharray:none;stroke-dashoffset:0;stroke-opacity:1;paint-order:fill markers stroke"
         d="m 1297.4239,242.39473 c 0,0 39.3264,-131.88651 135.4706,-122.7834 96.1442,9.1031 112.626,181.20185 112.626,181.20185 0,0 -47.9847,-22.68996 -126.3418,-39.05781 -98.4747,-20.57018 -121.7548,-19.36064 -121.7548,-19.36064 z"
         id="path28"
         sodipodi:nodetypes="cscsc" />
    </g>
    <g
       id="g19"
       inkscape:label="head"
       transform="translate(40.527162,67.598843)">
      <g
         id="g6"
         inkscape:label="left eye"
         style="display:inline;fill:#f9f9f9">
        <path
           id="path5"
           style="display:inline;fill:#f9f9f9;stroke:#000000;stroke-width:64;stroke-linecap:round;stroke-linejoin:round;stroke-opacity:1;paint-order:fill markers stroke;stop-color:#000000"
           inkscape:label="lefteye"
           d="m 792.61751,1048.7279 c 10e-6,120.7167 -155.86024,218.577 -276.57698,218.577 -120.71674,0 -160.57699,-55.8603 -160.57698,-176.577 0,-120.71673 97.86025,-260.57698 218.57698,-260.57698 120.71673,0 218.57698,97.86025 218.57698,218.57698 z"
           sodipodi:nodetypes="sssss" />
      </g>
      <path
         id="path22"
         style="display:inline;opacity:1;fill:#000000;stroke:#000000;stroke-width:128;stroke-linecap:round;stroke-linejoin:round;stroke-miterlimit:4;stroke-dasharray:12.8, 12.8;stroke-dashoffset:0;stroke-opacity:1;paint-order:fill markers stroke;stop-color:#000000"
         inkscape:label="headline"
         d="m 661.64788,878.01302 c -51.79786,58.89629 -82.75765,123.15658 -127.34905,148.63738 -31.92706,18.244 -90.94291,38.2543 -148.15492,54.2526"
         sodipodi:nodetypes="csc" />
      <path
         id="path8"
         style="display:inline;opacity:1;fill:#f6ff00;stroke:#f6ff00;stroke-width:64;stroke-linecap:round;stroke-linejoin:round;stroke-miterlimit:4;stroke-dasharray:6.4, 6.4;stroke-dashoffset:0;stroke-opacity:1;paint-order:fill markers stroke;stop-color:#000000;fill-opacity:1"
         inkscape:label="head"
         d="m 1299.0547,1153.5586 c 0,0 -0.1078,-10.8206 -0.9512,-28.418 -0.4217,-8.7987 -1.0259,-19.2912 -1.8945,-30.9726 -0.8686,-11.6814 -1.9997,-24.5525 -3.4727,-38.1055 -1.4729,-13.553 -3.2888,-27.7877 -5.5234,-42.2012 -2.2347,-14.41345 -4.8892,-29.0047 -8.043,-43.26755 -1.5769,-7.13143 -3.279,-14.18175 -5.1152,-21.08594 -1.8362,-6.90419 -3.8068,-13.66232 -5.9219,-20.21289 -2.1151,-6.55056 -4.3733,-12.89234 -6.7871,-18.96289 -2.4138,-6.07055 -4.9828,-11.86984 -7.7148,-17.33398 -2.7321,-5.46415 -5.9346,-10.78574 -9.5391,-15.96094 -3.6045,-5.1752 -7.6114,-10.20474 -11.9492,-15.08399 -4.3379,-4.87924 -9.0074,-9.60926 -13.9395,-14.18554 -4.9321,-4.57628 -10.1264,-8.99932 -15.5136,-13.26563 -5.3873,-4.2663 -10.9666,-8.37489 -16.67,-12.32422 -5.7033,-3.94932 -11.5298,-7.73794 -17.4101,-11.36328 -11.7607,-7.25067 -23.7371,-13.84709 -35.3711,-19.75976 -11.634,-5.91267 -22.9257,-11.14156 -33.3203,-15.66016 -10.3946,-4.5186 -19.8912,-8.32606 -27.9336,-11.39453 -16.085,-6.13693 -26.3535,-9.31836 -26.3535,-9.31836 -106.83135,-15.98813 -232.17461,6.96944 -312.62504,60.01367 -101.26734,66.76968 -136.88721,176.62955 -198.70703,211.95509 -33.95073,19.4004 -98.53309,40.798 -159.00483,57.245 -49.63922,13.5007 -96.50861,23.6656 -121.39166,26.6515 -55.19621,6.6235 -183.250354,6.6246 -161.171871,123.6406 22.078481,117.016 112.599211,282.6048 377.541011,247.2793 264.94179,-35.3256 313.51517,-44.1575 536.50782,-88.3145 22.8973,-4.5341 53.8481,-18.3195 86.8281,-36.9472 l 213.8711,-11.4278 -92.9258,-75.2558 c 5.3578,-4.8405 10.5999,-9.7184 15.6328,-14.6367 l 142.0762,-2.375 -84.8808,-69.668 c 3.4806,-6.5537 6.4805,-13.0207 8.6269,-19.3066 1.0523,-3.0817 2.0328,-6.6268 3.0469,-9.9766 z"
         sodipodi:nodetypes="csssssssssssssssssscsssssssccccccsc" />
      <g
         id="g14"
         inkscape:label="face"
         style="stroke:#000000">
        <path
           style="opacity:1;fill:none;fill-opacity:1;stroke:#000000;stroke-width:64;stroke-linecap:round;stroke-linejoin:round;stroke-miterlimit:4;stroke-dasharray:none;stroke-dashoffset:0;stroke-opacity:1;paint-order:fill markers stroke;stop-color:#000000"
           d="m 83.898236,1201.0695 68.443294,6.6235 -37.53342,39.7413"
           id="path11"
           inkscape:label="left nostril" />
        <path
           style="opacity:1;fill:none;fill-opacity:1;stroke:#000000;stroke-width:64;stroke-linecap:round;stroke-linejoin:round;stroke-miterlimit:4;stroke-dasharray:none;stroke-dashoffset:0;stroke-opacity:1;paint-order:fill markers stroke;stop-color:#000000"
           d="m 401.82839,1251.85 -59.6119,-44.157 121.43166,-17.6628"
           id="path12"
           inkscape:label="right nostril" />
        <path
           style="opacity:1;fill:#f2f2f2;fill-opacity:1;stroke:#000000;stroke-width:64;stroke-linecap:round;stroke-linejoin:round;stroke-miterlimit:4;stroke-dasharray:none;stroke-dashoffset:0;stroke-opacity:1;paint-order:fill markers stroke;stop-color:#000000"
           d="m 225.20053,1554.3252 -117.01596,-195.3945 114.80811,-85.0022 123.76018,73.9389 z"
           id="path14"
           sodipodi:nodetypes="ccccc"
           inkscape:label="toof" />
        <path
           style="opacity:1;fill:none;fill-opacity:1;stroke:#000000;stroke-width:64;stroke-linecap:round;stroke-linejoin:round;stroke-miterlimit:4;stroke-dasharray:none;stroke-dashoffset:0;stroke-opacity:1;paint-order:fill markers stroke;stop-color:#000000"
           d="m 132.4709,1346.7875 90.52178,-72.859 c 0,0 152.46221,98.2252 251.69471,125.8473"
           id="path13"
           sodipodi:nodetypes="ccc"
           inkscape:label="mouf" />
      </g>
      <g
         id="g17"
         inkscape:label="right eye"
         style="fill:#f9f9f9;stroke:#000000;stroke-opacity:1">
        <path
           id="path16"
           style="opacity:1;fill:#f9f9f9;stroke:#000000;stroke-width:64;stroke-linecap:round;stroke-linejoin:round;stroke-opacity:1;paint-order:fill markers stroke;stop-color:#000000"
           inkscape:label="righteye"
           d="m 1150.289,1075.2222 c 0,120.7167 -151.8603,218.5769 -272.57702,218.5769 -120.71671,0 -164.57695,-71.8602 -164.57699,-192.5769 -2e-5,-120.71675 97.86024,-244.57702 218.57699,-244.57701 120.71672,-2e-5 218.57702,97.86025 218.57702,218.57701 z"
           sodipodi:nodetypes="sssss" />
      </g>
    </g>
    <path
       style="fill:#f6ff00;fill-opacity:1;stroke:#f6ff00;stroke-width:32;stroke-linecap:round;stroke-linejoin:round;stroke-dasharray:none;stroke-dashoffset:0;stroke-opacity:1;paint-order:fill markers stroke"
       d="m 888.97554,1583.8068 c 75.2561,-2.5847 153.56826,-14.0509 242.97196,-57.7531 l -12.3426,78.0761 c -91.5845,42.1259 -139.11909,36.7347 -220.29053,39.859 z"
       id="path20"
       sodipodi:nodetypes="ccccc" />
    <path
       style="fill:#f6ff00;fill-opacity:1;stroke:#f6ff00;stroke-width:32;stroke-linecap:round;stroke-linejoin:round;stroke-dasharray:none;stroke-dashoffset:0;stroke-opacity:1;paint-order:fill markers stroke"
       d="m 922.32716,1730.8476 c 75.2561,-2.5847 130.89744,-3.8375 220.30114,-47.5397 l 28.9991,61.9153 c -91.5844,42.1259 -157.79,42.6821 -238.96141,45.8064 z"
       id="path21"
       sodipodi:nodetypes="ccccc" />
    <g
       id="g25"
       style="display:inline;stroke:#f6ff00;stroke-opacity:1;fill:#f6ff00;fill-opacity:1"
       transform="rotate(-9.5775994,1414.8144,813.04583)">
      <path
         style="display:inline;opacity:1;fill:#f6ff00;fill-opacity:1;stroke:#f6ff00;stroke-width:64;stroke-linecap:round;stroke-linejoin:round;stroke-dasharray:none;stroke-dashoffset:0;stroke-opacity:1;paint-order:fill markers stroke"
         d="m 1091.9485,618.67459 35.6356,-79.75404 c 0,0 114.4171,19.34957 188.4782,66.75284 135.0084,86.41297 195.1929,223.65918 195.1929,223.65918 l -72.2634,130.81772 c 0,0 2.4757,-85.33565 -134.3439,-216.85152 -71.3697,-68.6031 -212.6994,-124.62418 -212.6994,-124.62418 z"
         id="path23"
         sodipodi:nodetypes="ccsccsc"
         transform="translate(0,60)" />
      <path
         style="opacity:1;fill:#f6ff00;fill-opacity:1;stroke:#f6ff00;stroke-width:64;stroke-linecap:round;stroke-linejoin:round;stroke-dasharray:none;stroke-dashoffset:0;stroke-opacity:1;paint-order:fill markers stroke"
         d="m 1165.7441,490.53125 39.7533,-89.69504 c 0,0 103.7654,-17.69416 228.1151,45.22588 151.0519,76.43113 152.5283,132.79725 152.5283,132.79725 -5.8355,66.88842 -4.2015,88.22828 -24.1232,136.52217 0,0 -85.1674,-105.16984 -199.3404,-164.87995 -93.0859,-48.68196 -196.9331,-59.97031 -196.9331,-59.97031 z"
         id="path24"
         sodipodi:nodetypes="ccsccsc" />
      <path
         style="opacity:1;fill:#f6ff00;fill-opacity:1;stroke:#f6ff00;stroke-width:64;stroke-linecap:round;stroke-linejoin:round;stroke-dasharray:none;stroke-dashoffset:0;stroke-opacity:1;paint-order:fill markers stroke"
         d="m 1283.1363,267.67094 c 0,0 53.614,-157.16272 149.7582,-148.05961 96.1442,9.1031 129.965,239.81481 129.965,239.81481 0,0 -59.7668,-54.48086 -138.1239,-70.84871 -98.4747,-20.57018 -141.5993,-20.90649 -141.5993,-20.90649 z"
         id="path25"
         sodipodi:nodetypes="cscsc" />
      <path
         style="opacity:1;fill:#a6ad00;fill-opacity:1;stroke:#ffff00;stroke-width:96;stroke-linecap:round;stroke-linejoin:round;stroke-dasharray:none;stroke-opacity:1;paint-order:fill markers stroke"
         d="m 1452.8104,1463.9837 74.829,46.1921"
         id="path6" />
      <path
         style="opacity:1;fill:#a6ad00;fill-opacity:1;stroke:#ffff00;stroke-width:96;stroke-linecap:round;stroke-linejoin:round;stroke-dasharray:none;stroke-opacity:1;paint-order:fill markers stroke"
         d="m 1366.5248,1583.5861 84.4162,65.8836"
         id="path7" />
      <path
         style="opacity:1;fill:#a6ad00;fill-opacity:1;stroke:#ffff00;stroke-width:96.0003;stroke-linecap:round;stroke-linejoin:round;stroke-dasharray:none;stroke-opacity:1;paint-order:fill markers stroke"
         d="m 5.0168188,1359.2242 -50.4624148,38.1459"
         id="path9"
         sodipodi:nodetypes="cc" />
      <path
         style="opacity:1;fill:#a6ad00;fill-opacity:1;stroke:#ffff00;stroke-width:96;stroke-linecap:round;stroke-linejoin:round;stroke-dasharray:none;stroke-opacity:1;paint-order:fill markers stroke"
         d="m 63.562481,761.57591 96.994499,98.92347"
         id="path10"
         sodipodi:nodetypes="cc" />
      <path
         style="opacity:1;fill:#a6ad00;fill-opacity:1;stroke:#ffff00;stroke-width:96;stroke-linecap:round;stroke-linejoin:round;stroke-dasharray:none;stroke-opacity:1;paint-order:fill markers stroke"
         d="m 240.16958,647.4753 63.5392,145.12503"
         id="path15" />
      <path
         style="opacity:1;fill:#a6ad00;fill-opacity:1;stroke:#ffff00;stroke-width:96;stroke-linecap:round;stroke-linejoin:round;stroke-dasharray:none;stroke-opacity:1;paint-order:fill markers stroke"
         d="m 1652.3651,191.25458 100.1211,-42.49153"
         id="path17" />
    </g>
  </g>
  <path
     style="opacity:1;fill:#ffff00;fill-opacity:1;stroke:#ffff00;stroke-width:96;stroke-linecap:round;stroke-linejoin:round;stroke-dasharray:none;stroke-opacity:1;paint-order:fill markers stroke"
     d="M -123.61188,63.013564 0,480.4642 165.24612,306.25309 273.33708,709.95386 421.17085,553.85022 538.0086,782.24429 575.59041,291.19953 390.89922,388.89994 435.82726,0 232.82634,70.651524 194.63653,-168.67128 l -346.25427,20.3679 z"
     id="path1"
     sodipodi:nodetypes="ccccccccccccc" />
</svg>
