<?xml version="1.0" encoding="UTF-8" standalone="no"?>
<!-- Created with Inkscape (http://www.inkscape.org/) -->

<svg
   version="1.1"
   id="svg824"
   width="1706.6667"
   height="1706.6667"
   viewBox="0 0 1706.6667 1706.6667"
   sodipodi:docname="ying_bath.svg"
   inkscape:version="1.3.2 (091e20e, 2023-11-25, custom)"
   inkscape:export-filename="D:\Pictures\yingmotes\ying_smol.png"
   inkscape:export-xdpi="72"
   inkscape:export-ydpi="72"
   xmlns:inkscape="http://www.inkscape.org/namespaces/inkscape"
   xmlns:sodipodi="http://sodipodi.sourceforge.net/DTD/sodipodi-0.dtd"
   xmlns="http://www.w3.org/2000/svg"
   xmlns:svg="http://www.w3.org/2000/svg">
  <defs
     id="defs828" />
  <sodipodi:namedview
     id="namedview826"
     pagecolor="#ffffff"
     bordercolor="#666666"
     borderopacity="1.0"
     inkscape:pageshadow="2"
     inkscape:pageopacity="0.0"
     inkscape:pagecheckerboard="true"
     showgrid="false"
     inkscape:zoom="0.38128555"
     inkscape:cx="663.54468"
     inkscape:cy="723.86693"
     inkscape:window-width="2560"
     inkscape:window-height="1017"
     inkscape:window-x="-8"
     inkscape:window-y="-8"
     inkscape:window-maximized="1"
     inkscape:current-layer="svg824"
     inkscape:showpageshadow="2"
     inkscape:deskcolor="#d1d1d1" />
  <path
     style="fill:#f2f2f2;stroke:#4d4d4d;stroke-width:64;stroke-linecap:round;stroke-linejoin:round"
     d="m 309.63331,1506.2628 -50.27624,119.0431 h -48.41919"
     id="path2" />
  <path
     style="fill:#f2f2f2;stroke:#4d4d4d;stroke-width:64;stroke-linecap:round;stroke-linejoin:round"
     d="m 1384,1506.2628 50.2762,119.0431 h 48.4192"
     id="path2-5" />
  <g
     id="layer1"
     inkscape:label="Ying"
     style="display:inline;stroke-width:1.25853"
     transform="matrix(0.90051785,0,0,0.91153017,52.552915,301.94377)">
    <path
       style="display:inline;fill:#ffcb4c;fill-opacity:1;stroke:#ffcb4c;stroke-width:80.5456;stroke-linecap:round;stroke-linejoin:round;stroke-opacity:1;paint-order:fill markers stroke;stop-color:#000000"
       d="m 824.74528,555.16076 c 0,0 -74.4444,116.58457 -65.24603,209.03497 10.52851,183.10719 125.06145,393.57807 308.57695,374.66897 l -8.0471,-177.76948 C 953.25025,909.52102 881.40713,881.71438 873.31794,736.20434 865.86828,602.19822 886.23949,525.72977 886.23949,525.72977"
       id="path2053"
       sodipodi:nodetypes="ccccsc" />
    <g
       id="g31027"
       inkscape:label="head"
       transform="rotate(11.146873,669.47929,2605.2254)"
       style="display:inline;stroke-width:1.25853">
      <path
         style="display:inline;fill:none;stroke:#65471b;stroke-width:80.5456;stroke-linecap:round;stroke-linejoin:round;stroke-opacity:1;paint-order:fill markers stroke;stop-color:#000000"
         d="m 282.68851,375.07131 3.08897,103.83206"
         id="path1517-8"
         sodipodi:nodetypes="cc" />
      <path
         style="fill:none;stroke:#65471b;stroke-width:80.5456;stroke-linecap:round;stroke-linejoin:round;stroke-opacity:1;paint-order:fill markers stroke;stop-color:#000000"
         d="m 137.99052,534.29931 21.93043,93.52394"
         id="path1858"
         sodipodi:nodetypes="cc" />
      <path
         style="fill:#f19020;fill-opacity:1;stroke:#f19020;stroke-width:80.5459;stroke-linecap:round;stroke-miterlimit:4;stroke-dasharray:none;stroke-dashoffset:0;stroke-opacity:1;paint-order:fill markers stroke;stop-color:#000000"
         d="m 372.38879,370.87806 c 0,0 -24.31783,-55.49827 -31.09119,-117.64073 -7.45138,-68.36288 8.06808,-145.33185 30.82939,-150.09373 22.76132,-4.761905 69.27809,56.52104 85.61016,102.26058 16.33206,45.73956 19.99342,151.25963 19.99342,151.25963 z"
         id="path1640"
         inkscape:label="left ear"
         sodipodi:nodetypes="cssscc" />
      <path
         style="display:none;fill:#123456;fill-opacity:1;stroke:#123456;stroke-width:80.5456;stroke-linecap:round;stroke-linejoin:round;stroke-opacity:1;paint-order:fill markers stroke;stop-color:#000000"
         d="m 598.12651,319.56637 85.27302,422.75304 -62.7557,-65.54462 -29.92676,63.21549 -54.64047,-93.1347 -30.87653,49.04433 -23.53187,-287.38979 z"
         id="path30938"
         inkscape:label="mane" />
      <path
         id="path1148"
         style="display:inline;fill:#ffcb4c;stroke:#ffcb4c;stroke-width:80.5459;stroke-linecap:round;stroke-linejoin:round;stroke-miterlimit:4;stroke-dasharray:8.05457, 8.05457;stroke-dashoffset:0;stroke-opacity:1;paint-order:fill markers stroke;stop-color:#000000"
         inkscape:label="head"
         d="m 539.60091,477.49373 c 0,0 -0.0366,-3.70164 -0.3225,-9.72156 -0.14297,-3.00997 -0.34782,-6.59936 -0.64231,-10.59548 -0.29449,-3.99611 -0.67797,-8.3992 -1.17738,-13.03557 -0.49937,-4.63637 -1.11503,-9.50595 -1.87265,-14.43669 -0.75765,-4.93072 -1.65763,-9.92227 -2.7269,-14.80147 -0.53463,-2.4396 -1.11171,-4.85146 -1.73425,-7.21333 -0.62254,-2.36186 -1.29066,-4.67376 -2.00776,-6.91466 -0.7171,-2.24089 -1.48272,-4.41036 -2.30109,-6.48705 -0.81838,-2.07668 -1.68937,-4.06057 -2.61562,-5.92981 -0.92629,-1.86924 -2.01207,-3.68971 -3.23414,-5.46011 -1.22206,-1.77039 -2.58056,-3.49095 -4.05125,-5.1601 -1.47072,-1.66915 -3.05386,-3.28725 -4.72604,-4.85276 -1.67217,-1.56551 -3.43325,-3.07859 -5.25972,-4.53806 -1.82651,-1.45947 -3.71811,-2.86498 -5.65179,-4.21602 -1.93364,-1.35103 -3.90906,-2.64708 -5.90271,-3.88728 -3.98734,-2.4804 -8.04781,-4.73698 -11.9922,-6.75965 -3.94438,-2.02268 -7.77272,-3.81144 -11.2969,-5.35722 -3.52418,-1.54577 -6.7439,-2.84827 -9.47059,-3.89797 -5.45345,-2.09939 -8.93488,-3.18773 -8.93488,-3.18773 -36.22004,-5.46941 -78.71636,2.38418 -105.99223,20.53018 -34.33362,22.84136 -46.41019,60.42348 -67.36953,72.50809 -20.95933,12.08456 -76.35178,26.43446 -95.06548,28.7003 -18.71369,2.26585 -62.1291,2.26622 -54.64363,42.29643 7.48548,40.03021 38.17558,96.67678 128.00132,84.59222 89.82572,-12.0846 106.29402,-15.10592 181.89733,-30.21167 7.76309,-1.55108 18.25663,-6.26695 29.43815,-12.63933 l 72.51075,-3.90936 -31.50552,-25.74439 c 1.81651,-1.65589 3.59379,-3.32458 5.30014,-5.00709 l 48.16944,-0.81247 -28.77794,-23.83285 c 1.18006,-2.24196 2.19714,-4.45427 2.92486,-6.60463 0.35677,-1.05422 0.6892,-2.26697 1.03302,-3.41291 z" />
      <path
         style="display:none;fill:#123456;fill-opacity:1;stroke:#123456;stroke-width:80.5456;stroke-linecap:round;stroke-linejoin:round;stroke-opacity:1;paint-order:fill markers stroke;stop-color:#000000"
         d="m 351.05068,306.25232 c -43.27807,57.76498 -68.36217,68.81899 -104.67815,141.48998 -23.1205,-68.48962 37.50655,-200.70839 123.44192,-233.21024 -13.38457,-19.87716 -84.29806,34.35045 -117.78211,37.17401 62.19573,-49.68961 182.64268,-90.18107 262.03297,-68.24251 11.48715,33.4857 35.33869,66.9714 -33.11772,100.4571 -56.18757,-3.20348 -81.18815,-30.55596 -129.89691,22.33166 z"
         id="path30246"
         sodipodi:nodetypes="ccccccc"
         inkscape:label="top hair" />
      <path
         id="path13483"
         style="display:inline;fill:#ffcb4c;stroke:#ffcb4c;stroke-width:80.5459;stroke-linecap:round;stroke-linejoin:round;stroke-miterlimit:4;stroke-dasharray:8.05457, 8.05457;stroke-dashoffset:0;stroke-opacity:1;paint-order:fill markers stroke;stop-color:#000000"
         inkscape:label="right ear"
         d="m 634.24383,124.07068 c -26.09194,-6.73733 -103.08077,74.03116 -119.42208,100.21398 -14.54936,23.31167 -73.39572,96.70351 -85.02561,113.01236 0,0 20.97063,-13.90197 25.72601,-10.50581 2.37765,1.69808 5.16948,3.76419 8.19527,6.14197 3.0258,2.37778 6.28534,5.06687 9.59875,8.01147 3.31343,2.94459 6.68077,6.14468 9.92135,9.5432 1.62026,1.69926 3.20892,3.44803 4.74337,5.23959 1.53449,1.79159 3.01462,3.62539 4.41824,5.49516 1.40357,1.86977 2.73043,3.77509 3.9581,5.70895 1.22767,1.93386 2.35599,3.89638 3.36269,5.88022 1.00667,1.98384 1.89186,3.9894 2.63249,6.0091 0.74063,2.01971 1.33679,4.05383 1.76632,6.09529 0.4295,2.04145 0.77683,4.1801 1.05002,6.39544 0.27318,2.21534 0.47208,4.50733 0.60615,6.85634 0.13407,2.34902 0.20297,4.75453 0.21524,7.19703 0.0123,2.44251 -0.032,4.92205 -0.12427,7.41784 -0.18456,4.99158 -0.56112,10.04961 -1.06028,15.01317 -0.4992,4.96356 -1.12056,9.83242 -1.7962,14.4464 -0.67561,4.61399 -1.40515,8.97312 -2.1191,12.91595 -0.71395,3.94284 -1.413,7.46945 -2.02711,10.41957 -1.2282,5.90024 -2.11827,9.49346 -2.11827,9.49346 41.84953,-30.71957 122.25131,-97.39326 144.26517,-170.6197 30.13961,-100.25579 10.15379,-176.01198 -6.76625,-180.38098 z"
         sodipodi:nodetypes="sscsssssssssssssssssscss" />
      <path
         style="fill:none;stroke:#65471b;stroke-width:80.5456;stroke-linecap:round;stroke-linejoin:round;stroke-opacity:1;paint-order:fill markers stroke;stop-color:#000000"
         d="m 413.42417,389.34377 3.08897,103.83206"
         id="path1517" />
    </g>
    <path
       style="fill:#ffcb4c;fill-opacity:1;stroke:#ffcb4c;stroke-width:80.5456;stroke-linecap:round;stroke-linejoin:round;stroke-opacity:1;paint-order:fill markers stroke;stop-color:#000000"
       d="m 774.20794,656.39356 -29.82622,193.16026 24.14503,-35.5074"
       id="path964"
       sodipodi:nodetypes="ccc"
       inkscape:label="path964" />
    <path
       style="fill:#ffcb4c;fill-opacity:1;stroke:#ffcb4c;stroke-width:80.5456;stroke-linecap:round;stroke-linejoin:round;stroke-opacity:1;paint-order:fill markers stroke;stop-color:#000000"
       d="m 768.52675,873.69885 32.66681,180.37755 31.24652,-24.145"
       id="path5564"
       sodipodi:nodetypes="ccc" />
    <path
       style="display:inline;fill:#ffcb4c;fill-opacity:1;stroke:#ffcb4c;stroke-width:80.5456;stroke-linecap:round;stroke-linejoin:round;stroke-opacity:1;paint-order:fill markers stroke;stop-color:#000000"
       d="m 883.57073,1100.9462 66.75392,66.0437"
       id="path6398" />
  </g>
  <g
     id="g11"
     transform="matrix(1.140233,0,0,1.140233,-85.708163,-41.152979)"
     style="opacity:1">
    <circle
       style="opacity:0.85;fill:#aaffee;fill-opacity:1;stroke:#aaffee;stroke-width:63.9999;stroke-linecap:round;stroke-linejoin:round;stroke-dasharray:none;stroke-dashoffset:96;stroke-opacity:1"
       id="path10-3-1"
       cx="847.09393"
       cy="810.62891"
       r="17.987738" />
    <circle
       style="opacity:0.85;fill:#aaffee;stroke:#aaeeff;stroke-width:63.9999;stroke-linecap:round;stroke-linejoin:round;stroke-dasharray:none;stroke-dashoffset:96;stroke-opacity:1"
       id="path10-3-1-01"
       cx="847.09393"
       cy="846.60437"
       r="17.987738" />
    <circle
       style="opacity:0.85;fill:#aaffee;stroke:#aaffee;stroke-width:63.9999;stroke-linecap:round;stroke-linejoin:round;stroke-dasharray:none;stroke-dashoffset:96"
       id="path10-3-1-3"
       cx="697.93213"
       cy="870.52631"
       r="17.987738" />
    <circle
       style="opacity:0.85;fill:#afe9dd;fill-opacity:1;stroke:#afe9dd;stroke-width:63.9999;stroke-linecap:round;stroke-linejoin:round;stroke-dasharray:none;stroke-dashoffset:96;stroke-opacity:1"
       id="path10-3-1-0"
       cx="997.20233"
       cy="574.58539"
       r="17.987738" />
    <circle
       style="opacity:0.85;fill:#afe9dd;fill-opacity:1;stroke:#afe9dd;stroke-width:63.9999;stroke-linecap:round;stroke-linejoin:round;stroke-dasharray:none;stroke-dashoffset:96;stroke-opacity:1"
       id="path10-3-1-0-8"
       cx="1079.1266"
       cy="725.02338"
       r="17.987738" />
    <circle
       style="opacity:0.85;fill:#afe9dd;fill-opacity:1;stroke:#afe9dd;stroke-width:63.9999;stroke-linecap:round;stroke-linejoin:round;stroke-dasharray:none;stroke-dashoffset:96;stroke-opacity:1"
       id="path10-3-1-0-8-5"
       cx="431.00247"
       cy="757.66193"
       r="17.987738" />
    <circle
       style="opacity:0.85;fill:#aaffee;fill-opacity:1;stroke:#aaffee;stroke-width:63.9999;stroke-linecap:round;stroke-linejoin:round;stroke-dasharray:none;stroke-dashoffset:96;stroke-opacity:1"
       id="path10-3-1-0-9"
       cx="751.13348"
       cy="837.92133"
       r="17.987738" />
    <circle
       style="opacity:0.85;fill:#aaffee;stroke:#aaffee;stroke-width:63.9999;stroke-linecap:round;stroke-linejoin:round;stroke-dasharray:none;stroke-dashoffset:96"
       id="path10-3-1-8"
       cx="547.60437"
       cy="591.88818"
       r="17.987738" />
    <circle
       style="opacity:0.85;fill:#afe9dd;fill-opacity:1;stroke:#afe9dd;stroke-width:63.9999;stroke-linecap:round;stroke-linejoin:round;stroke-dasharray:none;stroke-dashoffset:96;stroke-opacity:1"
       id="path10-3-1-8-8"
       cx="776.71265"
       cy="905.63763"
       r="17.987738" />
  </g>
  <g
     id="g10"
     transform="translate(20.176816,89.175539)">
    <ellipse
       style="opacity:1;fill:#afe9dd;stroke:#afe9dd;stroke-width:63.9998;stroke-linecap:round;stroke-linejoin:round;stroke-dasharray:none;stroke-dashoffset:96"
       id="path8"
       cx="225.3549"
       cy="1007.265"
       rx="110.85968"
       ry="113.56481" />
    <ellipse
       style="fill:#afe9dd;stroke:#afe9dd;stroke-width:63.9998;stroke-linecap:round;stroke-linejoin:round;stroke-dasharray:none;stroke-dashoffset:96"
       id="path8-9"
       cx="1110.1124"
       cy="1000.5018"
       rx="110.85968"
       ry="113.56481" />
    <circle
       style="opacity:1;fill:#aaeeff;stroke:#aaeeff;stroke-width:64;stroke-linecap:round;stroke-linejoin:round;stroke-dasharray:none;stroke-dashoffset:96"
       id="path9"
       cx="406.89413"
       cy="1007.1192"
       r="76.433151" />
    <circle
       style="fill:#aaeeff;stroke:#aaeeff;stroke-width:64;stroke-linecap:round;stroke-linejoin:round;stroke-dasharray:none;stroke-dashoffset:96"
       id="path9-12"
       cx="1456.0123"
       cy="1042.9058"
       r="76.433151" />
    <circle
       style="fill:#aaeeff;stroke:#aaeeff;stroke-width:64;stroke-linecap:round;stroke-linejoin:round;stroke-dasharray:none;stroke-dashoffset:96"
       id="path9-1"
       cx="730.30157"
       cy="989.19067"
       r="76.433151" />
    <circle
       style="opacity:1;fill:#aaffee;stroke:#aaffee;stroke-width:64;stroke-linecap:round;stroke-linejoin:round;stroke-dasharray:none;stroke-dashoffset:96"
       id="path10"
       cx="590.95538"
       cy="1031.8477"
       r="98.635956" />
    <circle
       style="fill:#aaffee;stroke:#aaffee;stroke-width:64;stroke-linecap:round;stroke-linejoin:round;stroke-dasharray:none;stroke-dashoffset:96"
       id="path10-7"
       cx="1295.0304"
       cy="1040.8605"
       r="98.635956" />
    <circle
       style="fill:#aaffee;stroke:#aaffee;stroke-width:64;stroke-linecap:round;stroke-linejoin:round;stroke-dasharray:none;stroke-dashoffset:96"
       id="path10-3"
       cx="908.32922"
       cy="1002.3879"
       r="98.635956" />
  </g>
  <g
     id="g12">
    <path
       style="fill:none;stroke:#999999;stroke-width:64;stroke-linecap:round;stroke-linejoin:round"
       d="M 1532.4455,1093.9115 V 150.0995 H 1198.375 v 108.94318"
       id="path3" />
    <path
       style="fill:#f2f2f2;stroke:#999999;stroke-width:64;stroke-linecap:round;stroke-linejoin:round"
       d="M 1280.6876,260.25316 H 1096.6947"
       id="path4"
       sodipodi:nodetypes="cc" />
    <path
       style="fill:#f2f2f2;stroke:#999999;stroke-width:64;stroke-linecap:round;stroke-linejoin:round"
       d="m 1532.4455,944.17425 -91.9745,-2.42096 c -40.3764,0.3447 -60.6995,37.12451 -48.4192,60.52401"
       id="path5"
       sodipodi:nodetypes="ccc" />
    <path
       style="fill:#f2f2f2;stroke:#999999;stroke-width:64;stroke-linecap:round;stroke-linejoin:round"
       d="m 1430.471,937.75329 -2.421,-67.15455"
       id="path6"
       sodipodi:nodetypes="cc" />
    <path
       style="fill:#f2f2f2;stroke:#999999;stroke-width:64;stroke-linecap:round;stroke-linejoin:round"
       d="m 1386.5459,860.37649 78.7986,-1.87166"
       id="path7" />
  </g>
  <path
     id="rect1"
     style="fill:#f2f2f2;stroke:#cccccc;stroke-width:64;stroke-linecap:round;stroke-linejoin:round"
     d="m 1605.0963,1100.1677 c 0,412.7795 -378.0973,490.9621 -762.60231,489.7714 -378.04632,-1.1707 -762.60232,-63.1504 -762.60232,-489.7714 0,-12.0866 1525.20463,-11.066 1525.20463,0 z"
     sodipodi:nodetypes="ssss" />
</svg>
