<?xml version="1.0" encoding="UTF-8" standalone="no"?>
<!-- Created with Inkscape (http://www.inkscape.org/) -->

<svg
   version="1.1"
   id="svg824"
   width="1706.6667"
   height="1706.6667"
   viewBox="0 0 1706.6667 1706.6667"
   sodipodi:docname="ying_plead_zatzhing.svg"
   inkscape:version="1.3.2 (091e20e, 2023-11-25, custom)"
   inkscape:export-filename="D:\Pictures\yingmotes\ying_plead.png"
   inkscape:export-xdpi="72"
   inkscape:export-ydpi="72"
   xmlns:inkscape="http://www.inkscape.org/namespaces/inkscape"
   xmlns:sodipodi="http://sodipodi.sourceforge.net/DTD/sodipodi-0.dtd"
   xmlns="http://www.w3.org/2000/svg"
   xmlns:svg="http://www.w3.org/2000/svg">
  <defs
     id="defs828" />
  <sodipodi:namedview
     id="namedview826"
     pagecolor="#ffffff"
     bordercolor="#666666"
     borderopacity="1.0"
     inkscape:pageshadow="2"
     inkscape:pageopacity="0.0"
     inkscape:pagecheckerboard="0"
     showgrid="false"
     inkscape:zoom="0.16013482"
     inkscape:cx="437.13168"
     inkscape:cy="827.42781"
     inkscape:window-width="1920"
     inkscape:window-height="1001"
     inkscape:window-x="-9"
     inkscape:window-y="-9"
     inkscape:window-maximized="1"
     inkscape:current-layer="g12988"
     inkscape:showpageshadow="2"
     inkscape:deskcolor="#d1d1d1" />
  <g
     id="layer1"
     inkscape:label="Ying"
     style="display:inline"
     inkscape:groupmode="layer">
    <path
       style="display:none;fill:#123456;stroke:#123456;stroke-width:64;stroke-linecap:round;stroke-linejoin:round;-inkscape-stroke:none;paint-order:fill markers stroke;stop-color:#000000"
       d="m 1332.3771,866.83969 c 70.7982,131.45402 185.3824,239.02471 198.7064,401.82831 -29.438,-19.1346 -55.9321,-14.719 -79.4825,13.2471 91.0222,54.7003 58.5139,175.917 81.6903,267.1496 l -99.3531,6.6236 c 66.7588,58.9185 81.773,128.1858 90.5218,198.7063 l -494.5073,2.2079 c -24.3802,-41.4813 23.1146,-208.5632 66.2356,-227.0436 0,0 3.3791,-20.0154 -75.3533,-9.4549 28.7411,-247.2725 185.6948,-422.1763 311.5421,-653.26431 z"
       id="path3091"
       sodipodi:nodetypes="cccccccccc"
       inkscape:label="mane" />
    <path
       style="display:inline;fill:#ffcb4c;fill-opacity:1;stroke:#ffcb4c;stroke-width:64;stroke-linecap:round;stroke-linejoin:round;stroke-miterlimit:4;stroke-dasharray:none;stroke-dashoffset:0;stroke-opacity:1;paint-order:fill markers stroke;stop-color:#000000"
       d="m 882.43936,1340.6299 -64.7849,239.5079 62.82173,-25.5214 -51.04266,200.2443 459.38387,-15.7054 c 0,0 -127.6066,-94.2326 -149.2016,-184.5389 -21.5949,-90.3062 51.0427,-253.25 51.0427,-253.25 z"
       id="path3340"
       inkscape:label="neck" />
    <g
       id="g12988"
       inkscape:label="head"
       transform="rotate(23.970572,1064.2008,1337.0882)">
      <path
         style="display:inline;fill:none;fill-opacity:1;stroke:#f19020;stroke-width:32;stroke-linecap:round;stroke-linejoin:round;stroke-miterlimit:4;stroke-dasharray:none;stroke-dashoffset:0;stroke-opacity:1;paint-order:fill markers stroke;stop-color:#000000"
         d="M 103.27127,866.18303 C 272.8829,835.22534 469.30154,827.7893 628.47545,850.31487"
         id="path6280-0-6"
         sodipodi:nodetypes="cc"
         inkscape:label="eyelash left small"
         inkscape:transform-center-x="245.38549"
         inkscape:transform-center-y="-81.939857" />
      <path
         style="display:inline;fill:none;fill-opacity:1;stroke:#f19020;stroke-width:32;stroke-linecap:round;stroke-linejoin:round;stroke-miterlimit:4;stroke-dasharray:none;stroke-dashoffset:0;stroke-opacity:1;paint-order:fill markers stroke;stop-color:#000000"
         d="M -60.019482,698.09977 C 224.37421,680.40393 491.02747,717.8762 723.27692,862.33527"
         id="path6280-3"
         sodipodi:nodetypes="cc"
         inkscape:label="eyelash left big"
         inkscape:transform-center-x="309.88345"
         inkscape:transform-center-y="-210.71201" />
      <path
         style="opacity:1;fill:#f19020;fill-opacity:1;stroke:#f19020;stroke-width:64;stroke-linecap:round;stroke-miterlimit:4;stroke-dasharray:none;stroke-dashoffset:0;stroke-opacity:1;paint-order:fill markers stroke;stop-color:#000000"
         d="m 739.93918,1002.4031 c 0,0 -141.89198,-106.20729 -248.24774,-254.79876 C 374.68953,584.13895 304.34817,365.41749 355.97418,320.26509 c 51.62602,-45.15241 258.79864,43.60372 366.21519,136.51633 107.41656,92.91261 267.88187,356.59747 267.88187,356.59747 z"
         id="path1640"
         inkscape:label="left ear"
         sodipodi:nodetypes="cssscc"
         inkscape:transform-center-x="55.93538"
         inkscape:transform-center-y="-307.15733" />
      <g
         id="g12997"
         inkscape:label="left eye">
        <path
           id="path1915-9"
           style="display:inline;fill:#fefefe;stroke:#65471b;stroke-width:64;stroke-linecap:round;stroke-linejoin:round;paint-order:fill markers stroke;stop-color:#000000"
           inkscape:label="lefteye"
           d="m 792.61751,1048.7279 c 10e-6,120.7167 -155.86024,218.577 -276.57698,218.577 -120.71674,0 -160.57699,-55.8603 -160.57698,-176.577 0,-120.71673 97.86025,-260.57698 218.57698,-260.57698 120.71673,0 218.57698,97.86025 218.57698,218.57698 z"
           sodipodi:nodetypes="sssss" />
        <ellipse
           style="fill:#65471b;fill-opacity:1;stroke:none;stroke-width:128;stroke-linecap:round;stroke-linejoin:round;stroke-dasharray:12.8, 12.8;paint-order:fill markers stroke;stop-color:#000000"
           id="ellipse4421"
           cx="130.57169"
           cy="1121.0419"
           transform="rotate(-23.970572)"
           rx="153.0853"
           ry="154.55727"
           inkscape:label="left pupil" />
        <ellipse
           style="display:inline;opacity:0.75;fill:#ffffff;fill-opacity:1;stroke:none;stroke-width:531.199;stroke-linecap:round;stroke-linejoin:round;stroke-dasharray:53.1199, 53.1199;paint-order:fill markers stroke;stop-color:#000000"
           id="ellipse4421-6"
           cx="130.57169"
           cy="1121.0419"
           transform="matrix(0.22541719,-0.1002235,0.09562257,0.21506902,347.88463,715.07496)"
           rx="153.0853"
           ry="154.55727"
           inkscape:label="highlight" />
      </g>
      <path
         id="path1148"
         style="display:inline;opacity:1;fill:#ffcb4c;stroke:#ffcb4c;stroke-width:64;stroke-linecap:round;stroke-linejoin:round;stroke-miterlimit:4;stroke-dasharray:6.4, 6.4;stroke-dashoffset:0;stroke-opacity:1;paint-order:fill markers stroke;stop-color:#000000"
         inkscape:label="head"
         d="m 1299.0547,1153.5586 c 0,0 -0.1078,-10.8206 -0.9512,-28.418 -0.4217,-8.7987 -1.0259,-19.2912 -1.8945,-30.9726 -0.8686,-11.6814 -1.9997,-24.5525 -3.4727,-38.1055 -1.4729,-13.553 -3.2888,-27.7877 -5.5234,-42.2012 -2.2347,-14.41345 -4.8892,-29.0047 -8.043,-43.26755 -1.5769,-7.13143 -3.279,-14.18175 -5.1152,-21.08594 -1.8362,-6.90419 -3.8068,-13.66232 -5.9219,-20.21289 -2.1151,-6.55056 -4.3733,-12.89234 -6.7871,-18.96289 -2.4138,-6.07055 -4.9828,-11.86984 -7.7148,-17.33398 -2.7321,-5.46415 -5.9346,-10.78574 -9.5391,-15.96094 -3.6045,-5.1752 -7.6114,-10.20474 -11.9492,-15.08399 -4.3379,-4.87924 -9.0074,-9.60926 -13.9395,-14.18554 -4.9321,-4.57628 -10.1264,-8.99932 -15.5136,-13.26563 -5.3873,-4.2663 -10.9666,-8.37489 -16.67,-12.32422 -5.7033,-3.94932 -11.5298,-7.73794 -17.4101,-11.36328 -11.7607,-7.25067 -23.7371,-13.84709 -35.3711,-19.75976 -11.634,-5.91267 -22.9257,-11.14156 -33.3203,-15.66016 -10.3946,-4.5186 -19.8912,-8.32606 -27.9336,-11.39453 -16.085,-6.13693 -26.3535,-9.31836 -26.3535,-9.31836 -106.83135,-15.98813 -232.17461,6.96944 -312.62504,60.01367 -101.26734,66.76968 -136.88727,176.62945 -198.70703,211.95509 -61.81975,35.3255 -225.20029,77.273 -280.39649,83.8965 -55.19621,6.6235 -183.250354,6.6246 -161.171871,123.6406 22.078481,117.016 112.599211,282.6048 377.541011,247.2793 264.94179,-35.3256 313.51517,-44.1575 536.50782,-88.3145 22.8973,-4.5341 53.8481,-18.3195 86.8281,-36.9472 l 213.8711,-11.4278 -92.9258,-75.2558 c 5.3578,-4.8405 10.5999,-9.7184 15.6328,-14.6367 l 142.0762,-2.375 -84.8808,-69.668 c 3.4806,-6.5537 6.4805,-13.0207 8.6269,-19.3066 1.0523,-3.0817 2.0328,-6.6268 3.0469,-9.9766 z" />
      <path
         style="display:none;fill:#123456;stroke:#123456;stroke-width:64;stroke-linecap:round;stroke-linejoin:round;-inkscape-stroke:none;paint-order:fill markers stroke;stop-color:#000000"
         d="M 880.93148,744.0449 C 763.91552,771.643 622.61323,916.25706 622.61323,916.25706 620.95257,833.21142 611.27974,749.4374 735.2135,677.80944 c -124.69479,-7.45678 -249.2876,-15.1175 -408.45194,46.36482 0,0 303.22641,-263.62224 490.14233,-280.39675 172.2122,-15.45493 264.94181,37.53343 264.94181,37.53343 -0.1923,-45.68323 -31.4577,-88.25915 -90.52179,-128.0552 0,0 295.85169,97.14532 333.38509,194.29065 37.5334,97.14533 28.702,167.79647 28.702,167.79647 l -243.7525,34.92308 c 0,0 -111.71105,-33.81914 -228.72702,-6.22104 z"
         id="path1637"
         sodipodi:nodetypes="zcccsccsccz"
         inkscape:label="top hair" />
      <path
         id="path13483"
         style="display:inline;opacity:1;fill:#ffcb4c;stroke:#ffcb4c;stroke-width:64;stroke-linecap:round;stroke-linejoin:round;stroke-miterlimit:4;stroke-dasharray:6.4, 6.4;stroke-dashoffset:0;stroke-opacity:1;paint-order:fill markers stroke;stop-color:#000000"
         inkscape:label="right ear"
         d="m 950.04761,65.535811 c -71.41693,34.887019 -90.41968,361.212649 -77.23416,450.539439 11.73964,79.53138 29.39891,285.56532 34.35373,343.97743 0,0 10.62293,-1.64853 27.76936,-3.19449 8.57307,-0.77294 18.77721,-1.52015 30.10032,-2.02256 11.3231,-0.5024 23.76407,-0.76035 36.81284,-0.55415 13.0486,0.2062 26.705,0.87648 40.4548,2.22929 6.8748,0.67643 13.773,1.52318 20.631,2.5684 6.8581,1.0452 13.6746,2.28795 20.3878,3.75669 6.7131,1.4688 13.3217,3.16308 19.762,5.11015 6.4402,1.94706 12.712,4.14753 18.7513,6.62762 6.0393,2.48014 11.8472,5.24056 17.3574,8.30848 5.5103,3.06793 10.7236,6.44384 15.5768,10.15431 4.8532,3.7105 9.7069,7.7937 14.5403,12.18874 4.8334,4.39506 9.646,9.10211 14.4216,14.05956 4.7757,4.95747 9.5127,10.16485 14.193,15.56247 4.6803,5.39762 9.3042,10.9854 13.8513,16.70101 9.0942,11.4312 17.8837,23.37665 26.2181,35.34659 8.3343,11.97004 16.2139,23.96301 23.4862,35.49421 7.2722,11.5311 13.9381,22.5997 19.8458,32.7144 5.9077,10.1148 11.056,19.2774 15.2969,26.998 8.4818,15.4415 2.4307,71.4572 2.4307,71.4572 35.4448,-148.121 99.8571,-496.02357 9.7941,-700.59776 C 1185.5418,172.87424 996.35998,42.91235 950.04761,65.535811 Z"
         inkscape:transform-center-x="-102.05385"
         inkscape:transform-center-y="-290.52834"
         sodipodi:nodetypes="sscsssssssssssssssssscss" />
      <g
         id="g3805"
         inkscape:label="zatzhing"
         transform="matrix(-0.30013692,0.12867173,-0.12992482,-0.30305989,694.83688,1741.6809)"
         style="display:inline;stroke-width:3.04747">
        <path
           style="fill:#999999;stroke:#999999;stroke-width:292.556;stroke-linecap:round;stroke-linejoin:round;stroke-miterlimit:4;stroke-dasharray:none;paint-order:stroke fill markers;stop-color:#000000"
           d="M 212.32134,913.26019 409.13224,716.68238 303.30736,510.58957 623.92477,141.78843 l 86.65336,97.84521 342.28077,-105.37176 216.6335,327.40508 -64.9901,86.55537 282.2571,169.60996 55.691,383.59171 -355.2788,380.091 -103.984,-82.7921 -662.89821,165.5842 18.34773,-360.1735 -156.99311,-31.2072 z"
           id="path1057"
           sodipodi:nodetypes="cccccccccccccccc" />
        <path
           style="fill:#00d300;fill-opacity:1;stroke:#4d4d4d;stroke-width:292.555;stroke-linecap:round;stroke-linejoin:round;stroke-miterlimit:4;stroke-dasharray:none;paint-order:stroke fill markers;stop-color:#000000"
           d="m 825.29713,801.40829 5.05996,-457.94856 465.51631,328.89033 -30.3597,495.41704 z"
           id="path1399"
           sodipodi:nodetypes="ccccc" />
        <path
           style="fill:#00d300;fill-opacity:1;stroke:#4d4d4d;stroke-width:292.556;stroke-linecap:round;stroke-linejoin:round;stroke-miterlimit:4;stroke-dasharray:none;paint-order:stroke fill markers;stop-color:#000000"
           d="m 513.92392,1279.6157 136.1228,-198.5686 127.78324,237.5902 -103.47375,127.6653 z"
           id="path1799" />
      </g>
      <g
         id="g13003"
         inkscape:label="face">
        <path
           style="display:inline;fill:#ffcb4c;stroke:none;stroke-width:96;stroke-linecap:round;stroke-linejoin:round;stroke-dashoffset:192;paint-order:stroke fill markers;fill-opacity:1"
           d="m 132.4709,1346.7875 90.52178,-72.859 148.76714,102.333 117.28213,7.4996 64.91847,-259.7141 -392.17139,49.6661 z"
           id="path1" />
        <path
           style="opacity:1;fill:none;fill-opacity:1;stroke:#65471b;stroke-width:64;stroke-linecap:round;stroke-linejoin:round;stroke-miterlimit:4;stroke-dasharray:none;stroke-dashoffset:0;stroke-opacity:1;paint-order:fill markers stroke;stop-color:#000000"
           d="m 83.898236,1201.0695 68.443294,6.6235 -37.53342,39.7413"
           id="path2163"
           inkscape:label="left nostril" />
        <path
           style="opacity:1;fill:none;fill-opacity:1;stroke:#65471b;stroke-width:64;stroke-linecap:round;stroke-linejoin:round;stroke-miterlimit:4;stroke-dasharray:none;stroke-dashoffset:0;stroke-opacity:1;paint-order:fill markers stroke;stop-color:#000000"
           d="m 401.82839,1251.85 -59.6119,-44.157 121.43166,-17.6628"
           id="path2198"
           inkscape:label="right nostril" />
        <path
           style="opacity:1;fill:none;fill-opacity:1;stroke:#65471b;stroke-width:64;stroke-linecap:round;stroke-linejoin:round;stroke-miterlimit:4;stroke-dasharray:none;stroke-dashoffset:0;stroke-opacity:1;paint-order:fill markers stroke;stop-color:#000000"
           d="m 132.4709,1346.7875 90.52178,-72.859 c 0,0 146.93476,106.6315 222.99268,101.561 66.23545,-4.4157 69.00736,35.7818 69.00736,35.7818"
           id="path2200"
           sodipodi:nodetypes="ccsc"
           inkscape:label="mouf" />
        <path
           style="opacity:1;fill:#ffffff;fill-opacity:1;stroke:#65471b;stroke-width:64;stroke-linecap:round;stroke-linejoin:round;stroke-miterlimit:4;stroke-dasharray:none;stroke-dashoffset:0;stroke-opacity:1;paint-order:fill markers stroke;stop-color:#000000"
           d="m 222.99268,1530.0389 -90.52178,-183.2514 90.52178,-72.859 103.76887,66.2354 z"
           id="path2202"
           sodipodi:nodetypes="ccccc"
           inkscape:label="toof" />
      </g>
      <g
         id="g12993"
         inkscape:label="right eye">
        <path
           style="opacity:1;fill:#65471b;fill-opacity:1;stroke:#65471b;stroke-width:64;stroke-linecap:round;stroke-linejoin:round;stroke-miterlimit:4;stroke-dasharray:none;stroke-dashoffset:0;stroke-opacity:1;paint-order:fill markers stroke;stop-color:#000000"
           d="m 661.97569,1226.0485 53.36716,-115.5008 86.53085,168.711 z"
           id="path7852"
           inkscape:label="eyenub"
           sodipodi:nodetypes="cccc" />
        <path
           id="path1915"
           style="opacity:1;fill:#fefefe;stroke:#65471b;stroke-width:64;stroke-linecap:round;stroke-linejoin:round;paint-order:fill markers stroke;stop-color:#000000"
           inkscape:label="righteye"
           d="m 1150.289,1075.2222 c 0,120.7167 -151.8603,218.5769 -272.57702,218.5769 -120.71671,0 -164.57695,-71.8602 -164.57699,-192.5769 -2e-5,-120.71675 97.86024,-244.57702 218.57699,-244.57701 120.71672,-2e-5 218.57702,97.86025 218.57702,218.57701 z"
           sodipodi:nodetypes="sssss" />
        <ellipse
           style="fill:#65471b;fill-opacity:1;stroke:none;stroke-width:128;stroke-linecap:round;stroke-linejoin:round;stroke-dasharray:12.8, 12.8;paint-order:fill markers stroke;stop-color:#000000"
           id="path1031"
           cx="370.40475"
           cy="1311.5063"
           transform="rotate(-23.970572)"
           rx="153.0853"
           ry="154.55727"
           inkscape:label="right pupil" />
        <ellipse
           style="display:inline;opacity:0.75;fill:#ffffff;fill-opacity:1;stroke:none;stroke-width:470.299;stroke-linecap:round;stroke-linejoin:round;stroke-dasharray:47.0299, 47.0299;paint-order:fill markers stroke;stop-color:#000000"
           id="path1031-0"
           cx="410.99554"
           cy="1295.8945"
           transform="matrix(0.25370501,-0.11280065,0.10838879,0.24378211,589.81308,717.80549)"
           rx="153.0853"
           ry="154.55727"
           inkscape:label="highlight" />
      </g>
      <path
         style="opacity:1;fill:none;fill-opacity:1;stroke:#ffcb4c;stroke-width:32;stroke-linecap:round;stroke-linejoin:round;stroke-miterlimit:4;stroke-dasharray:none;stroke-dashoffset:0;stroke-opacity:1;paint-order:fill markers stroke;stop-color:#000000"
         d="M 37.362611,522.92702 C 318.51761,569.23884 570.0512,665.35847 764.14039,858.06969"
         id="path6280"
         sodipodi:nodetypes="cc"
         inkscape:label="eyelash right big"
         inkscape:transform-center-x="267.61085"
         inkscape:transform-center-y="-229.36148" />
      <path
         style="display:inline;fill:none;fill-opacity:1;stroke:#ffcb4c;stroke-width:32;stroke-linecap:round;stroke-linejoin:round;stroke-miterlimit:4;stroke-dasharray:none;stroke-dashoffset:0;stroke-opacity:1;paint-order:fill markers stroke;stop-color:#000000"
         d="m 443.56183,455.23715 c 143.64508,95.355 290.28303,226.24767 389.31036,352.88623"
         id="path6280-0"
         sodipodi:nodetypes="cc"
         inkscape:label="eyelash right small"
         inkscape:transform-center-x="102.87503"
         inkscape:transform-center-y="-203.97091" />
      <path
         style="display:inline;fill:#ffffff;fill-opacity:1;stroke:#65471b;stroke-width:64;stroke-linecap:round;stroke-linejoin:round;stroke-miterlimit:4;stroke-dasharray:none;stroke-dashoffset:0;stroke-opacity:1;paint-order:fill markers stroke;stop-color:#000000"
         d="m 222.99268,1530.0389 -90.52178,-183.2514 90.52178,-72.859 103.76887,66.2354 z"
         id="path2202-8"
         sodipodi:nodetypes="ccccc"
         inkscape:label="toof" />
    </g>
  </g>
</svg>
