<?xml version="1.0" encoding="UTF-8" standalone="no"?>
<!-- Created with Inkscape (http://www.inkscape.org/) -->

<svg
   version="1.1"
   id="svg824"
   width="1706.6667"
   height="1706.6667"
   viewBox="0 0 1706.6667 1706.6667"
   sodipodi:docname="ying_tail_hug.svg"
   inkscape:version="1.3.2 (091e20e, 2023-11-25, custom)"
   inkscape:export-filename="..\..\..\Downloads\ying_tail_hug.png"
   inkscape:export-xdpi="72"
   inkscape:export-ydpi="72"
   xmlns:inkscape="http://www.inkscape.org/namespaces/inkscape"
   xmlns:sodipodi="http://sodipodi.sourceforge.net/DTD/sodipodi-0.dtd"
   xmlns="http://www.w3.org/2000/svg"
   xmlns:svg="http://www.w3.org/2000/svg">
  <defs
     id="defs828" />
  <sodipodi:namedview
     id="namedview826"
     pagecolor="#ffffff"
     bordercolor="#666666"
     borderopacity="1.0"
     inkscape:pageshadow="2"
     inkscape:pageopacity="0.0"
     inkscape:pagecheckerboard="0"
     showgrid="false"
     inkscape:zoom="0.370575"
     inkscape:cx="500.57343"
     inkscape:cy="832.49005"
     inkscape:window-width="1920"
     inkscape:window-height="1001"
     inkscape:window-x="-9"
     inkscape:window-y="-9"
     inkscape:window-maximized="1"
     inkscape:current-layer="svg824"
     inkscape:showpageshadow="2"
     inkscape:deskcolor="#d1d1d1" />
  <path
     id="path4"
     style="fill:#5fd3bc;fill-opacity:1;stroke:#5fd3bc;stroke-width:64;stroke-linecap:round;stroke-linejoin:round;stroke-miterlimit:4;stroke-dasharray:6.4, 6.4;stroke-dashoffset:0;stroke-opacity:1;paint-order:markers stroke fill;stop-color:#000000"
     inkscape:label="tail"
     d="m 847.41519,587.85729 c 34.19212,91.60364 52.38644,292.2149 -19.92434,419.48651 -64.26314,113.1072 -189.07785,143.9586 -198.83789,262.623 l 179.61914,4.2578 C 807.26279,1184.2886 916.74823,1071.562 950.31312,966.66016 1004.8182,796.31282 905.19544,633.29013 847.41519,587.85729 Z"
     sodipodi:nodetypes="csccsc" />
  <path
     style="fill:#ffcb4c;fill-opacity:1;stroke:#ffcb4c;stroke-width:64;stroke-linecap:round;stroke-linejoin:round;stroke-miterlimit:4;stroke-dasharray:6.4, 6.4;stroke-dashoffset:0;stroke-opacity:1;paint-order:markers stroke fill;stop-color:#000000"
     d="m 407.41817,1734.4938 c 145.43299,-80.8657 443.6504,-250.2595 488.47991,-438.5301 22.15616,-93.0493 -103.20774,-215.7697 -139.53449,-329.30334 -54.50519,-170.34751 33.27129,-333.37019 91.0516,-378.80307 -34.19215,91.60373 -51.49267,241.13388 20.81818,368.40557 65.88972,115.97014 210.26643,181.23554 210.36723,322.84024 0.1548,217.4705 -278.63277,466.7124 -324.96233,443.9419 z"
     id="path980"
     sodipodi:nodetypes="csscsscc"
     inkscape:label="tail"
     inkscape:export-filename="D:\Pictures\yingmotes\path980.png"
     inkscape:export-xdpi="72"
     inkscape:export-ydpi="72" />
  <path
     id="path3"
     style="fill:#5fd3bc;fill-opacity:1;stroke:#5fd3bc;stroke-width:64;stroke-linecap:round;stroke-linejoin:round;stroke-miterlimit:4;stroke-dasharray:6.4, 6.4;stroke-dashoffset:0;stroke-opacity:1;paint-order:markers stroke fill;stop-color:#000000"
     inkscape:label="tail"
     d="m 808.2721,1274.2246 -179.61914,-4.2578 c -0.24703,3.0034 -0.47948,6.018 -0.57617,9.1367 -6.73932,217.3659 278.63338,466.7119 324.96289,443.9414 l 346.21882,11.4492 c -145.4329,-80.8656 -443.64912,-250.2608 -488.47859,-438.5312 -1.68447,-7.0743 -2.42476,-14.3381 -2.50781,-21.7383 z" />
  <path
     style="display:none;fill:#234567;fill-opacity:1;stroke:#234567;stroke-width:64;stroke-linecap:round;stroke-linejoin:round;stroke-miterlimit:4;stroke-dasharray:6.4, 6.4;stroke-dashoffset:0;stroke-opacity:1;paint-order:markers stroke fill;stop-color:#000000"
     d="M 905.57099,205.64226 C 736.21571,290.95317 679.12016,487.2637 639.74032,643.49747 l -47.37538,-82.81322 c 14.70032,211.04902 88.98087,335.63546 180.45008,351.2206 91.81073,-39.33274 151.92234,-185.23673 151.92234,-185.23673 -1.18195,-80.97263 143.06014,-178.94269 254.20224,-206.97522 -29.2542,-31.46718 -149.096,-1.39182 -193.69671,36.06657 -29.10993,-110.73848 -14.54739,-221.70321 222.31191,-333.82005 -89.668,10.65865 -198.2596,26.69819 -310.72467,176.24909 -79.40807,-8.79749 -17.51108,-123.30322 8.74086,-192.54625 z"
     id="path7036"
     sodipodi:nodetypes="cccccccccc"
     inkscape:label="tail tuft" />
</svg>
