<?xml version="1.0" encoding="UTF-8" standalone="no"?>
<!-- Created with Inkscape (http://www.inkscape.org/) -->

<svg
   version="1.1"
   id="svg824"
   width="1706.6667"
   height="1706.6667"
   viewBox="0 0 1706.6667 1706.6667"
   sodipodi:docname="ying_bite_ear.svg"
   inkscape:version="1.3.2 (091e20e, 2023-11-25, custom)"
   inkscape:export-filename="D:\Pictures\yingmotes\ying_nom_pizza.png"
   inkscape:export-xdpi="72"
   inkscape:export-ydpi="72"
   xmlns:inkscape="http://www.inkscape.org/namespaces/inkscape"
   xmlns:sodipodi="http://sodipodi.sourceforge.net/DTD/sodipodi-0.dtd"
   xmlns="http://www.w3.org/2000/svg"
   xmlns:svg="http://www.w3.org/2000/svg">
  <defs
     id="defs828" />
  <sodipodi:namedview
     id="namedview826"
     pagecolor="#ffffff"
     bordercolor="#666666"
     borderopacity="1.0"
     inkscape:pageshadow="2"
     inkscape:pageopacity="0.0"
     inkscape:pagecheckerboard="0"
     showgrid="false"
     inkscape:zoom="0.38951011"
     inkscape:cx="589.20165"
     inkscape:cy="794.58785"
     inkscape:window-width="1920"
     inkscape:window-height="1001"
     inkscape:window-x="-9"
     inkscape:window-y="-9"
     inkscape:window-maximized="1"
     inkscape:current-layer="g20"
     inkscape:showpageshadow="2"
     inkscape:deskcolor="#d1d1d1" />
  <g
     id="layer1"
     inkscape:label="Ying"
     style="display:inline"
     inkscape:groupmode="layer">
    <path
       style="display:none;fill:#123456;stroke:#123456;stroke-width:64;stroke-linecap:round;stroke-linejoin:round;-inkscape-stroke:none;paint-order:fill markers stroke;stop-color:#000000"
       d="m 1628.4292,846.944 c 70.7982,131.45402 185.3824,239.0248 198.7064,401.8284 -29.438,-19.1346 -55.9321,-14.719 -79.4825,13.2471 91.0222,54.7003 58.5139,175.917 81.6903,267.1496 l -99.3531,6.6236 c 66.7588,58.9185 81.773,128.1858 90.5218,198.7063 l -494.5073,2.2079 c -24.3802,-41.4813 23.1146,-208.5632 66.2356,-227.0436 0,0 3.3791,-20.0154 -75.3533,-9.4549 28.7411,-247.2725 185.6948,-422.1763 311.5421,-653.2644 z"
       id="path3091"
       sodipodi:nodetypes="cccccccccc"
       inkscape:label="mane" />
    <path
       style="opacity:1;fill:#ffcb4c;fill-opacity:1;stroke:#ffcb4c;stroke-width:64;stroke-linecap:round;stroke-linejoin:round;stroke-miterlimit:4;stroke-dasharray:none;stroke-dashoffset:0;stroke-opacity:1;paint-order:fill markers stroke;stop-color:#000000"
       d="m 1178.4915,1320.7343 -64.7849,239.5079 62.8217,-25.5214 -51.0426,200.2443 459.3838,-15.7054 c 0,0 -127.6066,-94.2326 -149.2016,-184.5389 -21.5949,-90.3062 51.0427,-253.25 51.0427,-253.25 z"
       id="path3340"
       inkscape:label="neck" />
    <g
       id="g12988"
       inkscape:label="head"
       transform="rotate(14.037417,1103.6053,2368.445)">
      <path
         style="display:inline;fill:none;fill-opacity:1;stroke:#f19020;stroke-width:32;stroke-linecap:round;stroke-linejoin:round;stroke-miterlimit:4;stroke-dasharray:none;stroke-dashoffset:0;stroke-opacity:1;paint-order:fill markers stroke;stop-color:#000000"
         d="m 214.24675,510.63421 c 146.95696,90.16728 298.17327,215.74277 401.65747,338.76616"
         id="path6280-0-6"
         sodipodi:nodetypes="cc"
         inkscape:label="eyelash left small" />
      <path
         style="display:inline;fill:none;fill-opacity:1;stroke:#f19020;stroke-width:32;stroke-linecap:round;stroke-linejoin:round;stroke-miterlimit:4;stroke-dasharray:none;stroke-dashoffset:0;stroke-opacity:1;paint-order:fill markers stroke;stop-color:#000000"
         d="M 136.3074,315.66998 C 386.36359,452.28922 592.00322,626.1296 711.50637,872.15241"
         id="path6280-3"
         sodipodi:nodetypes="cc"
         inkscape:label="eyelash left big" />
      <g
         id="g12997"
         inkscape:label="left eye">
        <path
           id="path1915-9"
           style="display:inline;fill:#fefefe;stroke:#65471b;stroke-width:64;stroke-linecap:round;stroke-linejoin:round;paint-order:fill markers stroke;stop-color:#000000"
           inkscape:label="lefteye"
           d="m 792.61751,1048.7279 c 10e-6,120.7167 -155.86024,218.577 -276.57698,218.577 -120.71674,0 -160.57699,-55.8603 -160.57698,-176.577 0,-120.71673 97.86025,-260.57698 218.57698,-260.57698 120.71673,0 218.57698,97.86025 218.57698,218.57698 z"
           sodipodi:nodetypes="sssss" />
        <path
           style="opacity:1;fill:#ffffff;fill-opacity:1;stroke:#65471b;stroke-width:48;stroke-linecap:round;stroke-linejoin:round;stroke-miterlimit:4;stroke-dasharray:none;stroke-dashoffset:0;stroke-opacity:1;paint-order:fill markers stroke;stop-color:#000000"
           d="m 473.49888,996.69615 24.99037,166.97495"
           id="path2372"
           inkscape:label="left pupil"
           sodipodi:nodetypes="cc" />
      </g>
      <path
         style="opacity:1;fill:#f19020;fill-opacity:1;stroke:#f19020;stroke-width:64;stroke-linecap:round;stroke-miterlimit:4;stroke-dasharray:none;stroke-dashoffset:0;stroke-opacity:1;paint-order:fill markers stroke;stop-color:#000000"
         d="m 834.17099,894.54897 c 0,0 -75.39274,-160.40341 -99.5069,-341.53728 -26.52799,-199.26527 14.08889,-425.40074 80.87256,-441.01886 66.78368,-15.618127 208.00585,160.03621 259.20505,292.5115 51.1993,132.47529 69.0332,440.63234 69.0332,440.63234 z"
         id="path1640"
         inkscape:label="left ear"
         sodipodi:nodetypes="cssscc" />
      <path
         style="display:inline;opacity:1;fill:#389482;fill-opacity:1;stroke:#389482;stroke-width:63.2534;stroke-linecap:round;stroke-miterlimit:4;stroke-dasharray:none;stroke-dashoffset:0;stroke-opacity:1;paint-order:fill markers stroke;stop-color:#000000"
         d="m -267.65929,1436.1569 c 0,0 140.34887,-104.8183 310.942124,-164.1004 187.669646,-65.2163 414.676026,-70.7522 443.046686,-9.1894 28.37067,61.5628 -113.68475,233.144 -231.79261,308.9972 -118.10787,75.8533 -412.9334,154.2543 -412.9334,154.2543 z"
         id="path6"
         inkscape:label="left ear (P2)"
         sodipodi:nodetypes="cssscc"
         inkscape:transform-center-x="-224.46103"
         inkscape:transform-center-y="-44.27191" />
      <path
         id="path1148"
         style="display:inline;opacity:1;fill:#ffcb4c;stroke:#ffcb4c;stroke-width:64;stroke-linecap:round;stroke-linejoin:round;stroke-miterlimit:4;stroke-dasharray:6.4, 6.4;stroke-dashoffset:0;stroke-opacity:1;paint-order:fill markers stroke;stop-color:#000000"
         inkscape:label="head"
         d="m 1299.0547,1153.5586 c 0,0 -0.1078,-10.8206 -0.9512,-28.418 -0.4217,-8.7987 -1.0259,-19.2912 -1.8945,-30.9726 -0.8686,-11.6814 -1.9997,-24.5525 -3.4727,-38.1055 -1.4729,-13.553 -3.2888,-27.7877 -5.5234,-42.2012 -2.2347,-14.41345 -4.8892,-29.0047 -8.043,-43.26755 -1.5769,-7.13143 -3.279,-14.18175 -5.1152,-21.08594 -1.8362,-6.90419 -3.8068,-13.66232 -5.9219,-20.21289 -2.1151,-6.55056 -4.3733,-12.89234 -6.7871,-18.96289 -2.4138,-6.07055 -4.9828,-11.86984 -7.7148,-17.33398 -2.7321,-5.46415 -5.9346,-10.78574 -9.5391,-15.96094 -3.6045,-5.1752 -7.6114,-10.20474 -11.9492,-15.08399 -4.3379,-4.87924 -9.0074,-9.60926 -13.9395,-14.18554 -4.9321,-4.57628 -10.1264,-8.99932 -15.5136,-13.26563 -5.3873,-4.2663 -10.9666,-8.37489 -16.67,-12.32422 -5.7033,-3.94932 -11.5298,-7.73794 -17.4101,-11.36328 -11.7607,-7.25067 -23.7371,-13.84709 -35.3711,-19.75976 -11.634,-5.91267 -22.9257,-11.14156 -33.3203,-15.66016 -10.3946,-4.5186 -19.8912,-8.32606 -27.9336,-11.39453 -16.085,-6.13693 -26.3535,-9.31836 -26.3535,-9.31836 -106.83135,-15.98813 -232.17461,6.96944 -312.62504,60.01367 -101.26734,66.76968 -136.88727,176.62945 -198.70703,211.95509 -61.81975,35.3255 -225.20029,77.273 -280.39649,83.8965 -55.19621,6.6235 -183.250354,6.6246 -161.171871,123.6406 22.078481,117.016 112.599211,282.6048 377.541011,247.2793 264.94179,-35.3256 313.51517,-44.1575 536.50782,-88.3145 22.8973,-4.5341 53.8481,-18.3195 86.8281,-36.9472 l 213.8711,-11.4278 -92.9258,-75.2558 c 5.3578,-4.8405 10.5999,-9.7184 15.6328,-14.6367 l 142.0762,-2.375 -84.8808,-69.668 c 3.4806,-6.5537 6.4805,-13.0207 8.6269,-19.3066 1.0523,-3.0817 2.0328,-6.6268 3.0469,-9.9766 z" />
      <path
         style="display:none;fill:#123456;stroke:#123456;stroke-width:64;stroke-linecap:round;stroke-linejoin:round;-inkscape-stroke:none;paint-order:fill markers stroke;stop-color:#000000"
         d="M 880.93148,744.0449 C 763.91552,771.643 622.61323,916.25706 622.61323,916.25706 620.95257,833.21142 611.27974,749.4374 735.2135,677.80944 c -124.69479,-7.45678 -249.2876,-15.1175 -408.45194,46.36482 0,0 303.22641,-263.62224 490.14233,-280.39675 172.2122,-15.45493 264.94181,37.53343 264.94181,37.53343 -0.1923,-45.68323 -31.4577,-88.25915 -90.52179,-128.0552 0,0 295.85169,97.14532 333.38509,194.29065 37.5334,97.14533 28.702,167.79647 28.702,167.79647 l -243.7525,34.92308 c 0,0 -111.71105,-33.81914 -228.72702,-6.22104 z"
         id="path1637"
         sodipodi:nodetypes="zcccsccsccz"
         inkscape:label="top hair" />
      <g
         id="g21"
         inkscape:label="player 2"
         style="display:inline"
         inkscape:groupmode="layer"
         transform="matrix(0.98323821,-0.10023485,0.10023485,0.98323821,-1451.861,945.67753)">
        <path
           style="display:none;fill:#345612;fill-opacity:1;stroke:#345612;stroke-width:64;stroke-linecap:round;stroke-linejoin:round;stroke-opacity:1;-inkscape-stroke:none;paint-order:fill markers stroke;stop-color:#000000"
           d="m 1705.2607,883.68281 c 70.7982,131.45409 185.3824,239.02479 198.7064,401.82839 -29.438,-19.1346 -55.9321,-14.719 -79.4825,13.2471 91.0222,54.7003 58.5139,175.917 81.6903,267.1496 l -99.3531,6.6236 c 66.7588,58.9185 81.773,128.1858 90.5218,198.7063 l -494.5073,2.2079 c -24.3802,-41.4813 23.1146,-208.5632 66.2356,-227.0436 0,0 3.3791,-20.0154 -75.3533,-9.4549 28.7411,-247.2725 185.6948,-422.1763 311.5421,-653.26439 z"
           id="path3091-6"
           sodipodi:nodetypes="cccccccccc"
           inkscape:label="mane" />
        <g
           id="g20"
           inkscape:label="head"
           transform="rotate(14.037417,1399.5762,196.73713)">
          <path
             style="display:inline;fill:none;fill-opacity:1;stroke:#2ca089;stroke-width:32;stroke-linecap:round;stroke-linejoin:round;stroke-miterlimit:4;stroke-dasharray:none;stroke-dashoffset:0;stroke-opacity:1;paint-order:fill markers stroke;stop-color:#000000"
             d="M 723.58429,367.19633 C 870.54125,457.36361 1021.7576,582.9391 1125.2418,705.96249"
             id="path3"
             sodipodi:nodetypes="cc"
             inkscape:label="eyelash left small" />
          <path
             style="display:inline;fill:none;fill-opacity:1;stroke:#2ca089;stroke-width:32;stroke-linecap:round;stroke-linejoin:round;stroke-miterlimit:4;stroke-dasharray:none;stroke-dashoffset:0;stroke-opacity:1;paint-order:fill markers stroke;stop-color:#000000"
             d="M 645.64494,172.2321 C 895.70113,308.85134 1101.3408,482.69172 1220.8439,728.71453"
             id="path4"
             sodipodi:nodetypes="cc"
             inkscape:label="eyelash left big" />
          <g
             id="g5"
             inkscape:label="left eye"
             transform="translate(509.33754,-143.43787)"
             style="fill:#ccfefe;fill-opacity:1;stroke:#165044;stroke-opacity:1">
            <path
               id="path5"
               style="display:inline;fill:#ccfefe;fill-opacity:1;stroke:#165044;stroke-width:64;stroke-linecap:round;stroke-linejoin:round;stroke-opacity:1;paint-order:fill markers stroke;stop-color:#000000"
               inkscape:label="lefteye"
               d="m 792.61751,1048.7279 c 10e-6,120.7167 -155.86024,218.577 -276.57698,218.577 -120.71674,0 -160.57699,-55.8603 -160.57698,-176.577 0,-120.71673 97.86025,-260.57698 218.57698,-260.57698 120.71673,0 218.57698,97.86025 218.57698,218.57698 z"
               sodipodi:nodetypes="sssss" />
          </g>
          <path
             id="path7"
             style="display:inline;opacity:1;fill:#5fd3bc;fill-opacity:1;stroke:#5fd3bc;stroke-width:64;stroke-linecap:round;stroke-linejoin:round;stroke-miterlimit:4;stroke-dasharray:6.4, 6.4;stroke-dashoffset:0;stroke-opacity:1;paint-order:fill markers stroke;stop-color:#000000"
             inkscape:label="head"
             d="m 1808.3922,1010.1208 c 0,0 -0.1078,-10.82064 -0.9512,-28.41804 -0.4217,-8.7987 -1.0259,-19.2912 -1.8945,-30.9726 -0.8686,-11.6814 -1.9997,-24.5525 -3.4727,-38.10554 -1.4729,-13.553 -3.2888,-27.7877 -5.5234,-42.2012 -2.2347,-14.41345 -4.8892,-29.0047 -8.043,-43.26755 -1.5769,-7.13143 -3.279,-14.18175 -5.1152,-21.08594 -1.8362,-6.90419 -3.8068,-13.66232 -5.9219,-20.21289 -2.1151,-6.55056 -4.3733,-12.89234 -6.7871,-18.96289 -2.4138,-6.07055 -4.9828,-11.86984 -7.7148,-17.33398 -2.7321,-5.46415 -5.9346,-10.78574 -9.5391,-15.96094 -3.6045,-5.1752 -7.6114,-10.20474 -11.9492,-15.08399 -4.3379,-4.87924 -9.0074,-9.60926 -13.9395,-14.18554 -4.9321,-4.57628 -10.1264,-8.99932 -15.5136,-13.26563 -5.3873,-4.2663 -10.9666,-8.37489 -16.67,-12.32422 -5.7033,-3.94932 -11.5298,-7.73794 -17.4101,-11.36328 -11.7607,-7.25067 -23.7371,-13.84709 -35.3711,-19.75976 -11.634,-5.91267 -22.9257,-11.14156 -33.3203,-15.66016 -10.3946,-4.5186 -19.8912,-8.32606 -27.9336,-11.39453 -16.085,-6.13693 -26.3535,-9.31836 -26.3535,-9.31836 -106.8313,-15.98813 -232.1746,6.96944 -312.625,60.01367 -101.2673,66.76968 -136.8873,176.62945 -198.707,211.95509 -61.81978,35.3255 -225.20032,77.27304 -280.39652,83.89654 -55.19621,6.6235 -183.25035,6.6246 -161.17187,123.64064 22.07848,117.016 112.59921,282.6048 377.54101,247.2793 264.94178,-35.3256 313.51518,-44.1575 536.50778,-88.3145 22.8973,-4.5341 53.8481,-18.3195 86.8281,-36.9472 l 213.8711,-11.4278 -92.9258,-75.2558 c 5.3578,-4.8405 10.5999,-9.7184 15.6328,-14.6367 l 142.0762,-2.375 -84.8808,-69.668 c 3.4806,-6.5537 6.4805,-13.0207 8.6269,-19.3066 1.0523,-3.0817 2.0328,-6.6268 3.0469,-9.9766 z" />
          <path
             style="display:none;fill:#345612;fill-opacity:1;stroke:#345612;stroke-width:64;stroke-linecap:round;stroke-linejoin:round;stroke-opacity:1;-inkscape-stroke:none;paint-order:fill markers stroke;stop-color:#000000"
             d="M 1216.0243,677.8378 C 1106.1454,726.6333 994.07535,894.9184 994.07535,894.9184 977.06076,813.61747 952.03779,733.08488 1060.5591,639.74006 936.64091,655.50969 812.78519,671.06 667.76366,760.96055 c 0,0 249.14808,-315.22723 429.72214,-366.33409 166.3693,-47.08653 267.3097,-12.19155 267.3097,-12.19155 -8.6508,-44.85706 -47.2615,-80.90488 -112.6754,-109.07176 0,0 308.7266,40.66329 363.6049,129.17516 54.8782,88.51189 59.2864,159.57625 59.2864,159.57625 l -233.0655,79.4693 c 0,0 -116.0422,-12.54156 -225.9216,36.25394 z"
             id="path1637-0"
             sodipodi:nodetypes="zcccsccsccz"
             inkscape:label="top hair" />
          <path
             id="path9"
             style="display:inline;opacity:1;fill:#5fd3bc;fill-opacity:1;stroke:#5fd3bc;stroke-width:64;stroke-linecap:round;stroke-linejoin:round;stroke-miterlimit:4;stroke-dasharray:6.4, 6.4;stroke-dashoffset:0;stroke-opacity:1;paint-order:fill markers stroke;stop-color:#000000"
             inkscape:label="right ear"
             d="m 2302.385,529.05316 c -45.1145,-65.43821 -370.6399,-35.72656 -457.0146,-9.41037 -76.9031,23.4303 -278.0236,71.51735 -335.0504,85.09915 0,0 3.2091,10.25987 7.2864,26.98598 2.0387,8.36304 4.2943,18.34277 6.4741,29.46541 2.1799,11.12264 4.2841,23.38712 6.0197,36.32146 1.7356,12.93436 3.1025,26.53863 3.8084,40.33676 0.3529,6.899 0.5409,13.84654 0.5266,20.78363 -0.014,6.9373 -0.23,13.86277 -0.6846,20.71971 -0.4547,6.85684 -1.1478,13.64398 -2.116,20.30204 -0.9682,6.65817 -2.2121,13.18729 -3.7669,19.52815 -1.555,6.34077 -3.4215,12.49448 -5.6363,18.39951 -2.2149,5.90503 -4.7784,11.56227 -7.7263,16.91305 -2.9479,5.35076 -6.2643,10.75751 -9.8921,16.19044 -3.6279,5.43293 -7.5673,10.89175 -11.7599,16.35124 -4.1925,5.4595 -8.638,10.9178 -13.28,16.34847 -4.642,5.43048 -9.4805,10.83361 -14.4568,16.17968 -9.9525,10.69215 -20.4588,21.15967 -31.0569,31.18066 -10.5983,10.02092 -21.2871,19.59561 -31.6094,28.50095 -10.3221,8.90535 -20.2768,17.14236 -29.4012,24.48782 -9.1243,7.3455 -17.4199,13.7987 -24.4245,19.1399 -14.0094,10.6827 -22.8568,16.9132 -22.8568,16.9132 151.7444,13.0351 457.9109,21.133 646.8263,-98.33632 258.6477,-163.568 359.047,-369.96527 329.7912,-412.40052 z"
             inkscape:transform-center-x="-246.03258"
             inkscape:transform-center-y="36.507242" />
          <g
             id="g14"
             inkscape:label="face"
             transform="translate(509.33754,-143.43787)">
            <path
               style="opacity:1;fill:#5fd3bc;fill-opacity:1;stroke:none;stroke-width:64;stroke-linecap:round;stroke-linejoin:round;stroke-miterlimit:4;stroke-dasharray:none;stroke-dashoffset:0;stroke-opacity:1;paint-order:fill markers stroke;stop-color:#000000"
               d="m 132.4709,1346.7875 90.52178,-72.859 c 0,0 146.93476,106.6315 222.99268,101.561 66.23545,-4.4157 119.2238,-37.5334 119.2238,-37.5334 l -32.92171,-235.8975 -431.65198,43.5528 -7.569527,162.8166 z"
               id="path10"
               sodipodi:nodetypes="ccsc"
               inkscape:label="mouf" />
            <path
               style="opacity:1;fill:none;fill-opacity:1;stroke:#165044;stroke-width:64;stroke-linecap:round;stroke-linejoin:round;stroke-miterlimit:4;stroke-dasharray:none;stroke-dashoffset:0;stroke-opacity:1;paint-order:fill markers stroke;stop-color:#000000"
               d="m 83.898236,1201.0695 68.443294,6.6235 -37.53342,39.7413"
               id="path11"
               inkscape:label="left nostril" />
            <path
               style="opacity:1;fill:none;fill-opacity:1;stroke:#165044;stroke-width:64;stroke-linecap:round;stroke-linejoin:round;stroke-miterlimit:4;stroke-dasharray:none;stroke-dashoffset:0;stroke-opacity:1;paint-order:fill markers stroke;stop-color:#000000"
               d="m 401.82839,1251.85 -59.6119,-44.157 121.43166,-17.6628"
               id="path12"
               inkscape:label="right nostril" />
            <path
               style="opacity:1;fill:#5fd3bc;fill-opacity:1;stroke:#165044;stroke-width:64;stroke-linecap:round;stroke-linejoin:round;stroke-miterlimit:4;stroke-dasharray:none;stroke-dashoffset:0;stroke-opacity:1;paint-order:fill markers stroke;stop-color:#000000"
               d="m 132.4709,1346.7875 90.52178,-72.859 c 0,0 148.05048,87.626 222.99268,101.561 153.85857,28.6089 158.96443,-59.828 158.96443,-59.828"
               id="path13"
               sodipodi:nodetypes="ccsc"
               inkscape:label="mouf" />
            <path
               style="opacity:1;fill:#ffffff;fill-opacity:1;stroke:#165044;stroke-width:64;stroke-linecap:round;stroke-linejoin:round;stroke-miterlimit:4;stroke-dasharray:none;stroke-dashoffset:0;stroke-opacity:1;paint-order:fill markers stroke;stop-color:#000000"
               d="m 222.99268,1530.0389 -90.52178,-183.2514 90.52178,-72.859 103.76887,66.2354 z"
               id="path14"
               sodipodi:nodetypes="ccccc"
               inkscape:label="toof" />
          </g>
          <g
             id="g17"
             inkscape:label="right eye"
             transform="translate(509.33754,-143.43787)"
             style="fill:#2ca089;fill-opacity:1;stroke:#165044;stroke-opacity:1">
            <path
               style="opacity:1;fill:#2ca089;fill-opacity:1;stroke:#165044;stroke-width:64;stroke-linecap:round;stroke-linejoin:round;stroke-miterlimit:4;stroke-dasharray:none;stroke-dashoffset:0;stroke-opacity:1;paint-order:fill markers stroke;stop-color:#000000"
               d="m 661.97569,1226.0485 53.36716,-115.5008 86.53085,168.711 z"
               id="path15"
               inkscape:label="eyenub"
               sodipodi:nodetypes="cccc" />
            <path
               id="path16"
               style="opacity:1;fill:#ccfefe;fill-opacity:1;stroke:#165044;stroke-width:64;stroke-linecap:round;stroke-linejoin:round;stroke-opacity:1;paint-order:fill markers stroke;stop-color:#000000"
               inkscape:label="righteye"
               d="m 1150.289,1075.2222 c 0,120.7167 -151.8603,218.5769 -272.57702,218.5769 -120.71671,0 -164.57695,-71.8602 -164.57699,-192.5769 -2e-5,-120.71675 97.86024,-244.57702 218.57699,-244.57701 120.71672,-2e-5 218.57702,97.86025 218.57702,218.57701 z"
               sodipodi:nodetypes="sssss" />
          </g>
          <path
             style="opacity:1;fill:none;fill-opacity:1;stroke:#5fd3bc;stroke-width:32;stroke-linecap:round;stroke-linejoin:round;stroke-miterlimit:4;stroke-dasharray:none;stroke-dashoffset:0;stroke-opacity:1;paint-order:fill markers stroke;stop-color:#000000"
             d="M 734.03263,77.095268 C 972.80752,232.59282 1164.4273,421.77513 1264.6004,676.28167"
             id="path18"
             sodipodi:nodetypes="cc"
             inkscape:label="eyelash right big" />
          <path
             style="display:inline;fill:none;fill-opacity:1;stroke:#5fd3bc;stroke-width:32;stroke-linecap:round;stroke-linejoin:round;stroke-miterlimit:4;stroke-dasharray:none;stroke-dashoffset:0;stroke-opacity:1;paint-order:fill markers stroke;stop-color:#000000"
             d="m 1060.8983,199.45731 c 110.8653,132.04302 214.5646,299.02219 273.7931,448.47356"
             id="path19"
             sodipodi:nodetypes="cc"
             inkscape:label="eyelash right small" />
        </g>
      </g>
      <g
         id="g13003"
         inkscape:label="face">
        <path
           style="opacity:1;fill:#ffcb4c;fill-opacity:1;stroke:#ffcb4c;stroke-width:64;stroke-linecap:round;stroke-linejoin:round;stroke-miterlimit:4;stroke-dasharray:none;stroke-dashoffset:0;stroke-opacity:1;paint-order:fill markers stroke;stop-color:#000000"
           d="m 132.4709,1346.7875 90.52178,-72.859 c 0,0 146.93476,106.6315 222.99268,101.561 66.23545,-4.4157 119.2238,-37.5334 119.2238,-37.5334 l -32.92171,-235.8975 -376.69301,41.6087 -51.42621,138.3912 z"
           id="path3264"
           sodipodi:nodetypes="ccsccccc"
           inkscape:label="mouf" />
        <path
           style="opacity:1;fill:none;fill-opacity:1;stroke:#65471b;stroke-width:64;stroke-linecap:round;stroke-linejoin:round;stroke-miterlimit:4;stroke-dasharray:none;stroke-dashoffset:0;stroke-opacity:1;paint-order:fill markers stroke;stop-color:#000000"
           d="m 83.898236,1201.0695 68.443294,6.6235 -37.53342,39.7413"
           id="path2163"
           inkscape:label="left nostril" />
        <path
           style="opacity:1;fill:none;fill-opacity:1;stroke:#65471b;stroke-width:64;stroke-linecap:round;stroke-linejoin:round;stroke-miterlimit:4;stroke-dasharray:none;stroke-dashoffset:0;stroke-opacity:1;paint-order:fill markers stroke;stop-color:#000000"
           d="m 401.82839,1251.85 -59.6119,-44.157 121.43166,-17.6628"
           id="path2198"
           inkscape:label="right nostril" />
        <path
           style="opacity:1;fill:#ffcb4c;fill-opacity:1;stroke:#65471b;stroke-width:64;stroke-linecap:round;stroke-linejoin:round;stroke-miterlimit:4;stroke-dasharray:none;stroke-dashoffset:0;stroke-opacity:1;paint-order:fill markers stroke;stop-color:#000000"
           d="m 132.4709,1346.7875 90.52178,-72.859 c 0,0 146.93476,106.6315 222.99268,101.561 28.81892,-1.9213 55.13003,-9.2761 75.6599,-16.9725 13.91355,-5.2161 25.17173,-10.589 32.75557,-14.5338 6.94474,-3.6124 10.80833,-6.0271 10.80833,-6.0271"
           id="path2200"
           sodipodi:nodetypes="ccsssc"
           inkscape:label="mouf" />
        <path
           style="opacity:1;fill:#ffffff;fill-opacity:1;stroke:#65471b;stroke-width:64;stroke-linecap:round;stroke-linejoin:round;stroke-miterlimit:4;stroke-dasharray:none;stroke-dashoffset:0;stroke-opacity:1;paint-order:fill markers stroke;stop-color:#000000"
           d="m 222.99268,1530.0389 -90.52178,-183.2514 90.52178,-72.859 103.76887,66.2354 z"
           id="path2202"
           sodipodi:nodetypes="ccccc"
           inkscape:label="toof" />
      </g>
      <g
         id="g12993"
         inkscape:label="right eye">
        <path
           style="opacity:1;fill:#65471b;fill-opacity:1;stroke:#65471b;stroke-width:64;stroke-linecap:round;stroke-linejoin:round;stroke-miterlimit:4;stroke-dasharray:none;stroke-dashoffset:0;stroke-opacity:1;paint-order:fill markers stroke;stop-color:#000000"
           d="m 661.97569,1226.0485 53.36716,-115.5008 86.53085,168.711 z"
           id="path7852"
           inkscape:label="eyenub"
           sodipodi:nodetypes="cccc" />
        <path
           id="path1915"
           style="opacity:1;fill:#fefefe;stroke:#65471b;stroke-width:64;stroke-linecap:round;stroke-linejoin:round;paint-order:fill markers stroke;stop-color:#000000"
           inkscape:label="righteye"
           d="m 1150.289,1075.2222 c 0,120.7167 -151.8603,218.5769 -272.57702,218.5769 -120.71671,0 -164.57695,-71.8602 -164.57699,-192.5769 -2e-5,-120.71675 97.86024,-244.57702 218.57699,-244.57701 120.71672,-2e-5 218.57702,97.86025 218.57702,218.57701 z"
           sodipodi:nodetypes="sssss" />
        <path
           style="opacity:1;fill:#ffffff;fill-opacity:1;stroke:#65471b;stroke-width:48;stroke-linecap:round;stroke-linejoin:round;stroke-miterlimit:4;stroke-dasharray:none;stroke-dashoffset:0;stroke-opacity:1;paint-order:fill markers stroke;stop-color:#000000"
           d="m 820.6822,1025.9311 44.89818,184.4903"
           id="path2350"
           inkscape:label="right pupil" />
      </g>
      <path
         style="opacity:1;fill:none;fill-opacity:1;stroke:#ffcb4c;stroke-width:32;stroke-linecap:round;stroke-linejoin:round;stroke-miterlimit:4;stroke-dasharray:none;stroke-dashoffset:0;stroke-opacity:1;paint-order:fill markers stroke;stop-color:#000000"
         d="M 422.09799,125.10137 C 599.10012,348.40199 720.6887,588.66091 734.81454,861.80682"
         id="path6280"
         sodipodi:nodetypes="cc"
         inkscape:label="eyelash right big" />
      <path
         style="display:inline;fill:none;fill-opacity:1;stroke:#ffcb4c;stroke-width:32;stroke-linecap:round;stroke-linejoin:round;stroke-miterlimit:4;stroke-dasharray:none;stroke-dashoffset:0;stroke-opacity:1;paint-order:fill markers stroke;stop-color:#000000"
         d="m 711.56797,296.29281 c 57.33566,162.60107 95.67474,355.38513 98.55015,516.11928"
         id="path6280-0"
         sodipodi:nodetypes="cc"
         inkscape:label="eyelash right small" />
      <path
         id="path13483"
         style="display:inline;fill:#ffcb4c;stroke:#ffcb4c;stroke-width:64;stroke-linecap:round;stroke-linejoin:round;stroke-miterlimit:4;stroke-dasharray:6.4, 6.4;stroke-dashoffset:0;stroke-opacity:1;paint-order:fill markers stroke;stop-color:#000000"
         inkscape:label="right ear"
         d="m 1357.1032,57.480319 c -79.2901,5.529141 -219.3923,300.860961 -240.7004,388.605451 -18.9716,78.1226 -79.94,275.71986 -97.2729,331.7207 0,0 10.4648,2.4594 26.9378,7.46252 8.2363,2.50157 17.9749,5.63919 28.6585,9.42375 10.6838,3.78456 22.3119,8.21528 34.3291,13.30432 12.0171,5.08904 24.4234,10.83635 36.6599,17.25133 6.1182,3.20749 12.1942,6.58163 18.1585,10.12464 5.9643,3.543 11.8158,7.25352 17.4869,11.13472 5.6709,3.88121 11.1604,7.93222 16.3988,12.15431 5.2385,4.2221 10.2258,8.61583 14.8925,13.18148 4.6668,4.56567 9.0138,9.30429 12.9697,14.21622 3.9556,4.91191 7.5206,9.99784 10.6263,15.25869 3.1054,5.26085 6.0717,10.86739 8.9018,16.75532 2.8303,5.88793 5.5241,12.05726 8.0899,18.4448 2.5657,6.38758 5.0016,12.99225 7.3136,19.75199 2.312,6.75972 4.5004,13.67456 6.5696,20.67902 4.1383,14.0089 7.8015,28.38022 11.0334,42.60312 3.2319,14.2231 6.0337,28.297 8.4457,41.7147 2.4122,13.4177 4.436,26.1789 6.1151,37.7716 1.6792,11.5927 3.0117,22.0178 4.0445,30.7658 2.0655,17.4962 2.9257,28.283 2.9257,28.283 88.4516,-123.9861 251.2474,-383.4105 244.5584,-606.83206 C 1535.088,245.36478 1408.5211,53.894794 1357.1032,57.480319 Z"
         inkscape:transform-center-x="-213.93167"
         inkscape:transform-center-y="-286.82817" />
      <path
         style="opacity:1;fill:#165044;fill-opacity:1;stroke:#165044;stroke-width:48;stroke-linecap:round;stroke-linejoin:round;stroke-dasharray:none;stroke-dashoffset:0;stroke-opacity:1;paint-order:fill markers stroke"
         d="m -79.021944,1616.516 1.436568,84.8519"
         id="path1"
         sodipodi:nodetypes="cc" />
    </g>
  </g>
</svg>
