<?xml version="1.0" encoding="UTF-8" standalone="no"?>
<!-- Created with Inkscape (http://www.inkscape.org/) -->

<svg
   version="1.1"
   id="svg824"
   width="1706.6667"
   height="1706.6667"
   viewBox="0 0 1706.6667 1706.6667"
   sodipodi:docname="ying_hug_dragn_sad.svg"
   inkscape:version="1.1 (c68e22c387, 2021-05-23)"
   inkscape:export-filename="D:\Pictures\yingmotes\ying_smol.png"
   inkscape:export-xdpi="72"
   inkscape:export-ydpi="72"
   xmlns:inkscape="http://www.inkscape.org/namespaces/inkscape"
   xmlns:sodipodi="http://sodipodi.sourceforge.net/DTD/sodipodi-0.dtd"
   xmlns="http://www.w3.org/2000/svg"
   xmlns:svg="http://www.w3.org/2000/svg">
  <defs
     id="defs828" />
  <sodipodi:namedview
     id="namedview826"
     pagecolor="#ffffff"
     bordercolor="#666666"
     borderopacity="1.0"
     inkscape:pageshadow="2"
     inkscape:pageopacity="0.0"
     inkscape:pagecheckerboard="0"
     showgrid="false"
     inkscape:zoom="0.23545481"
     inkscape:cx="925.86769"
     inkscape:cy="957.72093"
     inkscape:window-width="1920"
     inkscape:window-height="1001"
     inkscape:window-x="-9"
     inkscape:window-y="-9"
     inkscape:window-maximized="1"
     inkscape:current-layer="layer1"
     showguides="false" />
  <g
     id="layer1"
     inkscape:label="Ying"
     style="display:inline"
     inkscape:groupmode="layer">
    <path
       style="display:inline;fill:none;fill-opacity:1;stroke:#f19020;stroke-width:64;stroke-linecap:round;stroke-linejoin:round;stroke-opacity:1;paint-order:fill markers stroke;stop-color:#000000"
       d="m 445.0356,1139.368 67.45045,-43.662 298.86815,-89.1877 119.98644,0.6151"
       id="path14378-2"
       sodipodi:nodetypes="cccc"
       inkscape:transform-center-x="235.9187"
       inkscape:transform-center-y="53.29505" />
    <path
       style="display:inline;fill:none;fill-opacity:1;stroke:#f19020;stroke-width:64;stroke-linecap:round;stroke-linejoin:round;stroke-opacity:1;paint-order:fill markers stroke;stop-color:#000000"
       d="m 1159.1921,1632.261 90.69,-0.3769 -97.4696,-228.9908 -75.4396,-148.7408 158.4657,1.1562 -83.0261,147.5846"
       id="path10187-8"
       sodipodi:nodetypes="cccccc" />
    <path
       style="fill:none;fill-opacity:1;stroke:#ffcb4c;stroke-width:64;stroke-linecap:round;stroke-linejoin:round;stroke-opacity:1;paint-order:fill markers stroke;stop-color:#000000"
       d="m 1227.8821,1643.8841 119.8249,-2.6077 -119.1254,-257.8315 -123.6929,-111.8705 148.3747,-55.6566 -24.6818,167.5271"
       id="path10187"
       sodipodi:nodetypes="cccccc" />
    <g
       id="g917"
       inkscape:label="body"
       transform="rotate(-19.688676,1444.7034,1222.5434)">
      <path
         style="fill:#ffcb4c;fill-opacity:1;stroke:#ffcb4c;stroke-width:64;stroke-linecap:round;stroke-linejoin:round;stroke-opacity:1;paint-order:fill markers stroke;stop-color:#000000"
         d="m 1012.0887,783.16769 c 0,0 -60.40681,94.90558 -52.94293,170.16477 8.54319,149.05824 104.68283,319.71474 253.59363,304.32174 148.911,-15.3929 169.2085,-58.7996 248.0789,-122.1449 78.8703,-63.3452 190.4577,-91.7962 190.4577,-91.7962 0,0 -122.7302,-12.161 -210.3271,22.4404 -97.2606,38.4187 -121.4277,42.7782 -226.4179,40.5277 -96.1994,-2.062 -156.4649,-57.6828 -163.0288,-176.13512 -6.0449,-109.08758 10.485,-171.33667 10.485,-171.33667"
         id="path2053"
         sodipodi:nodetypes="cczzcsssc" />
      <path
         style="fill:#ffcb4c;fill-opacity:1;stroke:#ffcb4c;stroke-width:64;stroke-linecap:round;stroke-linejoin:round;stroke-opacity:1;paint-order:fill markers stroke;stop-color:#000000"
         d="m 971.08091,865.57618 -24.20203,157.24192 19.59211,-28.90473"
         id="path964"
         sodipodi:nodetypes="ccc"
         inkscape:label="path964" />
      <path
         style="fill:#ffcb4c;fill-opacity:1;stroke:#ffcb4c;stroke-width:64;stroke-linecap:round;stroke-linejoin:round;stroke-opacity:1;paint-order:fill markers stroke;stop-color:#000000"
         d="m 966.47099,1042.4734 26.50699,146.8363 25.35452,-19.6553"
         id="path5564"
         sodipodi:nodetypes="ccc" />
    </g>
    <path
       style="display:none;fill:#234567;fill-opacity:1;stroke:#234567;stroke-width:64;stroke-linecap:round;stroke-linejoin:round;stroke-opacity:1;paint-order:fill markers stroke;stop-color:#000000"
       d="m 1417.4248,1006.2692 c 5.1141,28.8359 18.4502,55.813 69.086,74.3597 55.3385,-36.1387 116.729,-45.8362 178.9706,-51.8154 -42.5893,-39.88095 -91.9344,-69.96089 -158.1523,-75.56248 -34.2732,-0.0166 -65.9821,10.50408 -89.9043,53.01818 z"
       id="path31499"
       sodipodi:nodetypes="ccccc"
       inkscape:label="tail tuft" />
    <path
       style="opacity:1;fill:none;fill-opacity:1;stroke:#65471b;stroke-width:64;stroke-linecap:round;stroke-linejoin:round;stroke-miterlimit:4;stroke-dasharray:none;stroke-dashoffset:172.8;stroke-opacity:1;paint-order:stroke fill markers;stop-color:#000000"
       d="m 860.57997,974.14607 c 21.27212,141.88863 100.36415,264.58833 188.45473,380.11143"
       id="path12613"
       sodipodi:nodetypes="cc" />
    <g
       id="g47627"
       inkscape:label="dragn"
       style="display:inline;opacity:1"
       transform="translate(-8.4941989,8.4941989)">
      <path
         style="fill:#ffba00;fill-opacity:1;stroke:#ffba00;stroke-width:64;stroke-linecap:round;stroke-linejoin:round;stroke-dashoffset:172.8;stroke-opacity:1;paint-order:fill markers stroke;stop-color:#000000"
         d="M 383.79593,1595.9893 C 215.60856,1213.4013 185.62305,1032.7035 373.46876,660.28896 195.22819,548.47503 67.918864,561.42682 55.392022,358.71666 L 468.28662,404.89361 C 350.34037,297.95271 222.70094,199.69101 228.13011,57.884858 385.79581,107.56812 632.97376,169.66246 763.83565,226.52058 c 244.02095,94.274 552.61635,107.11999 510.19415,322.54383 0,0 126.2973,113.64137 243.689,189.71596 54.5205,-45.23523 83.2657,-47.23995 154.9076,-47.50796 18.5052,87.90552 -123.8148,377.82429 -233.3941,419.30949 -122.9551,46.5493 -624.26967,-299.00056 -620.38515,-310.65485 -0.0135,308.86585 124.26597,441.23455 294.04675,674.19405 -238.55708,175.1442 -444.60872,144.8048 -729.09797,121.8682 z"
         id="path42076"
         sodipodi:nodetypes="cccccccccsccc" />
      <ellipse
         style="fill:#2f2f2f;fill-opacity:1;stroke:none;stroke-width:32;stroke-linecap:round;stroke-linejoin:round;stroke-miterlimit:4;stroke-dasharray:none;stroke-dashoffset:172.8;stroke-opacity:1;paint-order:fill markers stroke;stop-color:#000000"
         id="path48003"
         cx="1592.152"
         cy="732.1626"
         rx="25.565329"
         ry="26.275478" />
      <path
         style="fill:none;fill-opacity:1;stroke:#2f2f2f;stroke-width:72;stroke-linecap:round;stroke-linejoin:round;stroke-miterlimit:4;stroke-dasharray:none;stroke-dashoffset:172.8;stroke-opacity:1;paint-order:fill markers stroke;stop-color:#000000"
         d="m 1572.053,1054.838 -27.1946,-132.90788 -156.2214,55.91676 -28.6983,-126.6428 -91.0164,88.83055"
         id="path53871" />
      <path
         id="path1200"
         style="fill:#2f2f2f;fill-opacity:1;stroke:#2f2f2f;stroke-width:64;stroke-linecap:round;stroke-linejoin:round;stroke-dashoffset:172.8;stroke-opacity:1;paint-order:fill markers stroke;stop-color:#000000"
         d="m 1124.8162,506.0688 a 118.84387,115.63699 25.47318 0 1 -150.06984,10.94606 118.84387,115.63699 25.47318 0 1 -17.2398,-14.80849 103.43164,104.49895 64.470928 0 0 -3.75533,4.60653 103.43164,104.49895 64.470928 0 0 25.34542,144.16969 103.43164,104.49895 64.470928 0 0 145.31115,-26.33433 103.43164,104.49895 64.470928 0 0 0.4084,-118.57946 z" />
    </g>
    <g
       id="g4083"
       inkscape:label="outlines"
       style="opacity:1;fill:none;fill-opacity:1;stroke:#65471b;stroke-width:64;stroke-miterlimit:4;stroke-dasharray:none;stroke-opacity:1"
       transform="translate(-8.4941989,8.4941989)">
      <g
         id="g1282"
         inkscape:label="hairoutline"
         style="display:none;fill:none;fill-opacity:1;stroke:#65471b;stroke-width:64;stroke-miterlimit:4;stroke-dasharray:none;stroke-opacity:1">
        <path
           id="path967"
           style="color:#000000;display:inline;fill:none;fill-opacity:1;stroke:#65471b;stroke-width:64;stroke-linecap:round;stroke-linejoin:round;stroke-miterlimit:4;stroke-dasharray:none;stroke-opacity:1;paint-order:fill markers stroke"
           d="m 1146.6493,1041.5788 c 0.4,-4.1931 -0.021,-8.5105 -1.3466,-12.7136 L 1039.584,694.10739 c -4.3212,-13.67711 -17.1723,-22.81966 -31.4649,-22.38476 -3.4547,0.10536 -6.8688,0.77223 -10.10933,1.97461 -4.05533,1.50451 -7.76303,3.81949 -10.89844,6.80468 l -86.19141,82.08399 c -7.88577,7.51118 -11.41471,18.53516 -9.36523,29.25586"
           sodipodi:nodetypes="ccccsccc" />
        <path
           id="path983"
           style="color:#000000;display:inline;fill:none;fill-opacity:1;stroke:#65471b;stroke-width:64;stroke-linecap:round;stroke-linejoin:round;stroke-miterlimit:4;stroke-dasharray:none;stroke-opacity:1;paint-order:fill markers stroke"
           d="m 879.35156,571.582 c -22.04047,-0.33193 -44.0145,1.05519 -65.53125,4.91992 -34.4268,6.18358 -67.68542,18.70903 -98.17969,40.6836 a 32.054728,31.951778 80.019073 0 0 -6.44531,44.90039 c -35.16116,23.1938 -63.79139,51.89945 -86.23633,84.6914 a 32.054728,31.951778 80.019073 0 0 37.83204,48.07813 c 49.20462,-18.9551 85.44273,-20.49091 108.6914,-9.17578 a 32.054728,31.951778 80.019073 0 0 40.83008,-11.51953 c 25.4575,-39.84973 54.61491,-46.35901 97.13477,-51.35938 a 32.054728,31.951778 80.019073 0 0 15.06054,-5.9082 c 14.7864,-10.7901 25.9463,-21.73963 33.61328,-34.66797 7.66699,-12.92834 10.83486,-28.31003 9.44922,-41.41406 -2.77127,-26.20807 -16.37573,-40.99233 -21.625,-50.51758 a 32.054728,31.951778 80.019073 0 0 -24.93359,-16.42188 c -13.18817,-1.27314 -26.43587,-2.0899 -39.66016,-2.28906 z" />
      </g>
      <g
         id="g1325"
         transform="rotate(4.7266561,71.674279,938.88758)"
         inkscape:label="armoutline"
         style="fill:none;fill-opacity:1;stroke:#65471b;stroke-width:64;stroke-miterlimit:4;stroke-dasharray:none;stroke-opacity:1">
        <path
           id="path1321"
           style="color:#000000;fill:none;fill-opacity:1;stroke:#65471b;stroke-width:64;stroke-linecap:round;stroke-linejoin:round;stroke-miterlimit:4;stroke-dasharray:none;stroke-opacity:1;paint-order:fill markers stroke"
           d="M 887.406,1045.2486 850.01367,1110 h -0.002 l -281.27149,57.7598 -76.42773,-22 c -16.98387,-4.8889 -34.71518,4.9164 -39.60352,21.9004 -4.88888,16.9839 4.91638,34.7152 21.9004,39.6035 l 84,24.1777 c 4.97338,1.4312 10.21966,1.635 15.28906,0.5938 l 303.07226,-62.2364 c 0.74107,-0.2349 1.47333,-0.4968 2.19532,-0.7851 1.66522,-0.4469 3.29161,-1.0275 4.86328,-1.7364 1.03306,-0.5009 2.03842,-1.057 3.01172,-1.666 0.7908,-0.3948 1.5649,-0.8223 2.32031,-1.2812 l 35.20704,-25.6168"
           transform="rotate(-4.7266561,71.674279,938.88758)"
           sodipodi:nodetypes="ccccscccccccccc" />
      </g>
      <g
         id="g11461"
         inkscape:label="headoutlin"
         transform="matrix(0.79915435,-0.14063691,0.14109006,0.80172928,470.81265,528.04354)"
         style="display:inline;stroke-width:78.7459;stroke-miterlimit:4;stroke-dasharray:none">
        <path
           id="path11445"
           style="color:#000000;fill:none;fill-opacity:1;stroke:#65471b;stroke-width:64;stroke-linecap:round;stroke-linejoin:round;stroke-miterlimit:4;stroke-dasharray:none;stroke-opacity:1;paint-order:fill markers stroke"
           d="m 971.03899,932.83354 c 1.51431,-0.35432 3.00069,-0.8191 4.44727,-1.39063 0.59221,-0.002 1.18423,-0.02 1.77539,-0.0547 l 4.89062,-1.13476 c 3.74017,-0.91402 7.28411,-2.49874 10.46094,-4.67774 2.49412,-0.0386 5.00508,-0.12342 7.53509,-0.26953 1.2995,-0.25319 2.5819,-0.58716 3.8399,-1 1.3126,0.20755 2.6368,0.33279 3.9648,0.375 2.7022,-0.27918 5.3173,-0.6258 7.8457,-1.00976 1.1187,-0.33707 2.218,-0.73546 3.293,-1.19336 1.1776,0.10081 2.3597,0.13602 3.541,0.10547 2.3123,-0.39064 4.623,-0.8053 6.9317,-1.24414 1.6498,-0.32438 3.2714,-0.77892 4.8496,-1.35938 0.6804,0.0146 1.3611,0.007 2.041,-0.0215 2.2982,-0.48478 4.5942,-0.99166 6.8867,-1.52539 1.6418,-0.39383 3.2497,-0.91761 4.8086,-1.56641 0.6846,-0.0137 1.3685,-0.0496 2.0508,-0.10742 2.2816,-0.5821 4.5634,-1.18932 6.8437,-1.82422 1.6279,-0.46459 3.2162,-1.05826 4.75,-1.77539 0.6843,-0.0437 1.3669,-0.1095 2.0469,-0.19727 2.279,-0.68788 4.5432,-1.40089 6.793,-2.13672 1.6153,-0.54071 3.1847,-1.21016 4.6933,-2.00195 0.6886,-0.0759 1.3745,-0.17427 2.0567,-0.29492 2.2488,-0.7938 4.4928,-1.61491 6.7304,-2.4668 1.5959,-0.62078 3.1393,-1.36928 4.6153,-2.23828 0.6937,-0.11062 1.3835,-0.24415 2.0683,-0.40039 2.2151,-0.90713 4.434,-1.84782 6.6543,-2.82617 1.5739,-0.70733 3.088,-1.54144 4.5274,-2.49414 0.6943,-0.14879 1.3835,-0.32076 2.0664,-0.51563 2.1985,-1.04036 4.3911,-2.11752 6.5781,-3.23242 1.5531,-0.80744 3.0372,-1.74157 4.4375,-2.79297 0.7019,-0.19485 1.397,-0.41372 2.084,-0.65625 2.1678,-1.19086 4.3334,-2.42751 6.4922,-3.71093 1.5318,-0.92885 2.9829,-1.9853 4.3379,-3.15821 0.7121,-0.2529 1.415,-0.53107 2.1074,-0.83398 2.1424,-1.38434 4.2847,-2.82992 6.4238,-4.3457 1.5153,-1.09726 2.9316,-2.32594 4.2324,-3.67188 0.7363,-0.33881 1.4595,-0.70561 2.168,-1.09961 2.1352,-1.6787 4.2852,-3.46508 6.4297,-5.37891 1.5408,-1.40943 2.94,-2.967 4.1777,-4.65039 0.807,-0.51776 1.5904,-1.0717 2.3477,-1.66015 2.1614,-2.28251 4.4708,-4.92978 6.7539,-8.06836 1.8971,-2.62797 3.3847,-5.53023 4.4121,-8.60742 1.0716,-1.44522 2.0196,-2.97865 2.834,-4.58399 1.3247,-3.54624 2.9769,-8.84935 2.7207,-16.10156 0,-0.0319 0,-0.0638 0,-0.0957 -0.011,-0.28209 -0.082,-0.61748 -0.1,-0.90625 -0.065,-1.19784 -0.1978,-2.39112 -0.3965,-3.57422 -0.054,-0.34658 -0.046,-0.64388 -0.1113,-0.99805 l -0.01,-0.0117 v -0.041 c -1.4757,-7.88228 -4.6679,-13.35717 -7.252,-17.13282 l -0.033,-0.0469 c -0.4711,-0.68577 -0.9713,-1.38179 -1.5058,-2.08399 -0.9779,-0.98465 -2.0185,-1.90456 -3.1153,-2.7539 -1.543,-2.38196 -3.3944,-4.54806 -5.5058,-6.44141 -2.6497,-2.35292 -5.2251,-4.33088 -7.6211,-6.04883 -0.793,-0.40081 -1.6023,-0.76831 -2.4258,-1.10156 -1.4438,-1.35043 -3.0091,-2.56394 -4.6758,-3.625 -2.2904,-1.42129 -4.5715,-2.75103 -6.8301,-4.00781 -0.6996,-0.25255 -1.4076,-0.48055 -2.123,-0.68359 -1.4156,-1.07177 -2.9175,-2.02363 -4.4902,-2.84571 -0.9252,-0.47392 -1.8418,-0.90615 -2.7637,-1.36328 1.9354,-6.12718 2.739,-13.24563 1.1621,-21.9043 -3.8343,-21.05415 -17.8064,-29.41408 -28.9004,-35.38867 -11.0939,-5.9746 -23.1122,-9.80892 -36.4844,-12.89258 -20.0582,-4.62547 -43.0062,-7.20873 -66.53314,-7.11328 l -0.003,0.002 c -7.84231,0.0318 -15.7497,0.36072 -23.63476,1.01172 -7.10524,0.58661 -14.08748,1.41805 -20.86524,2.42188 -39.85602,5.90295 -71.20787,17.27848 -80.68359,20.93554 -1.47415,-0.10403 -2.95362,-0.10536 -4.42773,-0.004 -2.64923,0.26168 -5.27909,0.58841 -7.89063,0.97656 -1.27952,0.37082 -2.53457,0.82157 -3.75781,1.34961 -1.32794,-0.0879 -2.65996,-0.0924 -3.98828,-0.0137 -2.57128,0.5044 -5.12739,1.0667 -7.66797,1.6875 -1.22806,0.48313 -2.42502,1.04214 -3.58399,1.67382 -1.31836,0.0323 -2.63338,0.14646 -3.9375,0.3418 -2.50951,0.73137 -5.00094,1.51726 -7.46875,2.35938 -1.18676,0.59306 -2.33547,1.25972 -3.43945,1.99609 -1.31803,0.15196 -2.62524,0.38614 -3.91406,0.70117 -2.44147,0.95867 -4.86895,1.97733 -7.27735,3.05664 -1.1452,0.71018 -2.24439,1.49234 -3.29101,2.3418 -1.32136,0.28216 -2.62346,0.64812 -3.89844,1.0957 -2.37521,1.20913 -4.75012,2.49309 -7.11328,3.85938 -1.09787,0.84461 -2.13978,1.75994 -3.11914,2.74023 -1.32104,0.43584 -2.6122,0.95779 -3.86523,1.5625 -2.32294,1.52549 -4.63058,3.14455 -6.91211,4.86328 -1.04455,1.01983 -2.01819,2.11027 -2.91407,3.26368 -1.31931,0.6386 -2.59315,1.36753 -3.8125,2.18164 -2.26474,1.97223 -4.42981,4.02123 -6.5,6.13671 -0.88321,1.16924 -1.68522,2.39805 -2.40039,3.67774 -1.20907,0.83105 -2.35958,1.74467 -3.44336,2.73437 -1.85713,2.19058 -3.62687,4.43027 -5.30859,6.70899 -0.6773,1.22566 -1.27363,2.49466 -1.78516,3.79883 -1.03641,0.9293 -2.01113,1.92556 -2.91796,2.98242 -1.49094,2.28655 -2.88718,4.56984 -4.20508,6.83398 -0.49764,1.20335 -0.92161,2.43611 -1.26953,3.69141 -0.87471,0.94889 -1.69131,1.95007 -2.44532,2.99805 -1.16918,2.20196 -2.2757,4.3727 -3.33203,6.50586 -0.36335,1.10367 -0.66653,2.22643 -0.9082,3.36328 -0.73684,0.87883 -1.42598,1.79683 -2.06445,2.75 -0.005,0.0103 -0.009,0.019 -0.0137,0.0293 -1.1718,-0.13358 -2.36205,-0.22994 -3.57812,-0.26367 -2.85462,-0.0792 -5.69501,0.1667 -8.46875,0.67774 -8.32123,1.53307 -16.04119,5.45161 -21.74219,10.12304 -10.63135,8.71139 -17.23749,19.06177 -22.86328,32.24805 -0.62706,0.39836 -1.24007,0.81854 -1.83789,1.25977 -0.96946,0.1372 -1.93206,0.31903 -2.88477,0.54492 -1.75057,0.70744 -3.42078,1.3599 -5.01757,1.94726 -0.65834,0.3721 -1.30328,0.76753 -1.9336,1.18555 -0.70896,0.0395 -1.41638,0.10267 -2.12109,0.18945 -1.56764,0.46143 -3.52273,0.98893 -5.84766,1.64844 -1.14438,0.50303 -2.25828,1.07302 -3.33594,1.70703 -1.2877,0.0686 -2.56999,0.21537 -3.83984,0.43946 -2.5552,0.82116 -5.24276,1.75859 -8.03711,2.86914 -1.41159,0.77035 -2.76309,1.64654 -4.04297,2.62109 -1.61892,0.33931 -3.20899,0.80425 -4.75586,1.39062 -3.06558,1.60115 -6.31877,3.53627 -9.62304,5.97852 -1.63692,1.46553 -3.1187,3.09655 -4.42188,4.86719 -2.00599,1.24351 -3.86826,2.70621 -5.55273,4.36133 -3.31284,3.86843 -6.25854,8.37743 -8.50196,13.61132 -0.93648,2.64757 -1.52157,5.40757 -1.74023,8.20899 -1.0701,2.43613 -1.83315,4.99688 -2.27149,7.62304 -0.49252,5.24273 -0.18891,10.0674 0.5,14.41993 0.52499,2.00481 1.24254,3.95404 2.14258,5.82031 0.0945,2.01429 0.37832,4.01535 0.84766,5.97656 1.05283,3.0089 2.14876,5.67833 3.16992,8.05078 0.73293,1.2364 1.54792,2.42202 2.43945,3.54883 0.29397,1.39394 0.68024,2.76678 1.15625,4.10938 0.98033,1.92821 2.06524,3.83662 3.15625,5.74218 0.34039,1.3987 0.77432,2.7729 1.29883,4.11329 l 30.72071,71.89847 c 6.95426,16.2747 25.73887,23.8281 41.95703,16.8711 14.10307,-6.0655 21.90144,-21.3383 18.57226,-36.373 1.35883,0.3743 2.74075,0.6582 4.13672,0.8496 2.85537,0.017 5.67727,-0.062 8.45899,-0.2266 1.37537,-0.2645 2.73181,-0.6194 4.06054,-1.0625 1.38269,0.2014 2.77696,0.3117 4.17383,0.3301 2.69833,-0.3199 5.37453,-0.712 8.0293,-1.1738 1.28329,-0.4051 2.5397,-0.8911 3.76172,-1.4551 1.34062,0.053 2.68312,0.021 4.01953,-0.096 2.5624,-0.575 5.09093,-1.203 7.58398,-1.8809 1.74737,-0.4931 3.4495,-1.1348 5.08789,-1.918 0.76055,-0.055 1.51885,-0.1381 2.27344,-0.248 l 0.35742,-0.1133 c 0.0286,-0.01 0.0573,-0.019 0.0859,-0.029 l 5.73242,-1.8262 c 1.48682,-0.4768 2.93666,-1.0624 4.33789,-1.7519 0.59159,-0.05 1.18166,-0.1163 1.76953,-0.1992 l 0.67578,-0.2168 0.0254,-0.01 5.41015,-1.7325 c 1.49334,-0.4824 2.94911,-1.0744 4.35547,-1.77149 0.60015,-0.052 1.1987,-0.12106 1.79492,-0.20703 l 5.05469,-1.63281 0.043,-0.0137 1.02344,-0.33203 c 1.48613,-0.48462 2.93468,-1.07801 4.33398,-1.7754 0.5976,-0.0541 1.19354,-0.12511 1.78711,-0.21289 2.043,-0.66615 4.09604,-1.33766 6.15625,-2.01562 1.49104,-0.49483 2.94355,-1.09934 4.3457,-1.80859 0.60094,-0.0565 1.20014,-0.13013 1.79688,-0.22071 2.05696,-0.68253 4.1146,-1.36976 6.17578,-2.0625 1.49685,-0.50749 2.95398,-1.12572 4.35937,-1.84961 0.60764,-0.062 1.21335,-0.14145 1.81641,-0.23828 2.05695,-0.70055 4.12512,-1.41088 6.20312,-2.13086 1.49407,-0.52194 2.94729,-1.15454 4.34766,-1.89258 0.6085,-0.0691 1.21487,-0.15571 1.81836,-0.25976 2.08248,-0.73189 4.14865,-1.46688 6.19922,-2.20117 1.49496,-0.53972 2.94755,-1.19062 4.3457,-1.94727 0.61067,-0.0761 1.21899,-0.16989 1.82422,-0.28125 2.06033,-0.75019 4.11556,-1.50598 6.16602,-2.26562 1.48062,-0.55315 2.91816,-1.21578 4.30078,-1.98243 0.60622,-0.0809 1.20998,-0.17925 1.81054,-0.29492 2.0386,-0.76478 4.07018,-1.53081 6.09376,-2.29883 1.47273,-0.56314 2.90177,-1.2349 4.27539,-2.00976 0.60441,-0.0862 1.20622,-0.18976 1.80468,-0.31055 l 3.9961,-1.5332 0.0449,-0.0176 1.96875,-0.75781 c 1.45799,-0.56445 2.8726,-1.23553 4.23242,-2.00781 0.58934,-0.0857 1.17616,-0.18799 1.75977,-0.30664"
           transform="matrix(1.2137337,0.21290948,-0.2135955,1.2098356,-448.79757,-752.34081)"
           sodipodi:nodetypes="cccccccccccccccccccccccccccccccccccccccccccccccccccccccccccccccsssccsscccccccccccccccccccccccccccccccccsssccccccccccccccccccccccccccccccccccccccccccccccccccccccccccccccccccccccccccccc" />
      </g>
    </g>
    <g
       id="g18131"
       transform="rotate(4.7266561,-35.479758,840.22774)"
       style="display:inline">
      <path
         style="fill:none;fill-opacity:1;stroke:#ffcb4c;stroke-width:64;stroke-linecap:round;stroke-linejoin:round;stroke-opacity:1;paint-order:fill markers stroke;stop-color:#000000"
         d="m 501.64051,1141.7712 85.70741,17.1741 296.91459,-86.9979 68.9433,-145.98697"
         id="path14378"
         sodipodi:nodetypes="cccc"
         inkscape:transform-center-x="194.57836"
         inkscape:transform-center-y="113.44343" />
      <path
         style="fill:#ffcb4c;fill-opacity:1;stroke:#ffcb4c;stroke-width:64;stroke-linecap:round;stroke-linejoin:round;stroke-dashoffset:172.8;stroke-opacity:1;paint-order:fill markers stroke;stop-color:#000000"
         d="m 884.26251,1071.9474 95.93524,-82.71094 -26.99194,-63.27603 z"
         id="path2099" />
    </g>
    <g
       id="g31027"
       inkscape:label="head"
       transform="matrix(0.79915435,-0.14063691,0.14109006,0.80172928,464.80634,540.05615)"
       style="display:inline;stroke-width:1.2304">
      <path
         style="display:inline;fill:none;stroke:#65471b;stroke-width:78.7459;stroke-linecap:round;stroke-linejoin:round;stroke-opacity:1;paint-order:fill markers stroke;stop-color:#000000"
         d="m 219.85067,460.50396 c 49.76762,-91.0151 69.32981,-12.06063 65.92681,18.39941"
         id="path1517-8"
         sodipodi:nodetypes="cc" />
      <path
         style="fill:none;stroke:#65471b;stroke-width:78.7459;stroke-linecap:round;stroke-linejoin:round;stroke-opacity:1;paint-order:fill markers stroke;stop-color:#000000"
         d="m 137.99052,534.29931 21.93043,93.52394"
         id="path1858"
         sodipodi:nodetypes="cc" />
      <path
         style="fill:#f19020;fill-opacity:1;stroke:#f19020;stroke-width:78.7461;stroke-linecap:round;stroke-miterlimit:4;stroke-dasharray:none;stroke-dashoffset:0;stroke-opacity:1;paint-order:fill markers stroke;stop-color:#000000"
         d="m 453.68023,341.04121 c 0,0 59.41732,-12.72563 121.86483,-6.99369 68.69845,6.30567 141.27279,36.7592 141.41105,59.93851 0.13828,23.17933 -69.39739,56.43929 -117.62635,63.3036 -48.22898,6.86431 -152.70208,-10.52681 -152.70208,-10.52681 z"
         id="path1640"
         inkscape:label="left ear"
         sodipodi:nodetypes="cssscc"
         inkscape:transform-center-x="-51.49229"
         inkscape:transform-center-y="2.5412523" />
      <path
         style="display:none;fill:#123456;fill-opacity:1;stroke:#123456;stroke-width:78.7459;stroke-linecap:round;stroke-linejoin:round;stroke-opacity:1;paint-order:fill markers stroke;stop-color:#000000"
         d="m 613.5679,322.40721 56.81184,427.50911 -58.23213,-69.5945 -34.08711,61.07273 -48.29007,-96.58014 -34.0871,46.86978 -4.26089,-288.32011 z"
         id="path30938"
         inkscape:label="mane" />
      <path
         id="path1148"
         style="display:inline;fill:#ffcb4c;stroke:#ffcb4c;stroke-width:78.7461;stroke-linecap:round;stroke-linejoin:round;stroke-miterlimit:4;stroke-dasharray:7.8746, 7.8746;stroke-dashoffset:0;stroke-opacity:1;paint-order:fill markers stroke;stop-color:#000000"
         inkscape:label="head"
         d="m 539.60091,477.49373 c 0,0 -0.0366,-3.70164 -0.3225,-9.72156 -0.14297,-3.00997 -0.34782,-6.59936 -0.64231,-10.59548 -0.29449,-3.99611 -0.67797,-8.3992 -1.17738,-13.03557 -0.49937,-4.63637 -1.11503,-9.50595 -1.87265,-14.43669 -0.75765,-4.93072 -1.65763,-9.92227 -2.7269,-14.80147 -0.53463,-2.4396 -1.11171,-4.85146 -1.73425,-7.21333 -0.62254,-2.36186 -1.29066,-4.67376 -2.00776,-6.91466 -0.7171,-2.24089 -1.48272,-4.41036 -2.30109,-6.48705 -0.81838,-2.07668 -1.68937,-4.06057 -2.61562,-5.92981 -0.92629,-1.86924 -2.01207,-3.68971 -3.23414,-5.46011 -1.22206,-1.77039 -2.58056,-3.49095 -4.05125,-5.1601 -1.47072,-1.66915 -3.05386,-3.28725 -4.72604,-4.85276 -1.67217,-1.56551 -3.43325,-3.07859 -5.25972,-4.53806 -1.82651,-1.45947 -3.71811,-2.86498 -5.65179,-4.21602 -1.93364,-1.35103 -3.90906,-2.64708 -5.90271,-3.88728 -3.98734,-2.4804 -8.04781,-4.73698 -11.9922,-6.75965 -3.94438,-2.02268 -7.77272,-3.81144 -11.2969,-5.35722 -3.52418,-1.54577 -6.7439,-2.84827 -9.47059,-3.89797 -5.45345,-2.09939 -8.93488,-3.18773 -8.93488,-3.18773 -36.22004,-5.46941 -78.71636,2.38418 -105.99223,20.53018 -34.33362,22.84136 -46.41019,60.42348 -67.36953,72.50809 -20.95933,12.08456 -76.35178,26.43446 -95.06548,28.7003 -18.71369,2.26585 -62.1291,2.26622 -54.64363,42.29643 7.48548,40.03021 38.17558,96.67678 128.00132,84.59222 89.82572,-12.0846 106.29402,-15.10592 181.89733,-30.21167 7.76309,-1.55108 18.25663,-6.26695 29.43815,-12.63933 l 72.51075,-3.90936 -31.50552,-25.74439 c 1.81651,-1.65589 3.59379,-3.32458 5.30014,-5.00709 l 48.16944,-0.81247 -28.77794,-23.83285 c 1.18006,-2.24196 2.19714,-4.45427 2.92486,-6.60463 0.35677,-1.05422 0.6892,-2.26697 1.03302,-3.41291 z" />
      <path
         style="display:none;fill:#123456;fill-opacity:1;stroke:#123456;stroke-width:78.7459;stroke-linecap:round;stroke-linejoin:round;stroke-opacity:1;paint-order:fill markers stroke;stop-color:#000000"
         d="m 328.26316,338.58459 c -38.92591,-28.12127 -95.27498,-32.28568 -164.4847,-18.76671 53.19265,-54.19875 122.01662,-91.20303 213.05736,-103.76887 -8.50024,-22.36759 -50.66592,-20.68843 -83.89823,-25.39026 71.84967,-34.61604 131.7244,-31.61394 211.11469,-9.67538 42.39375,24.63311 136.14935,97.76576 67.69294,131.25146 -17.94672,-40.00308 -160.62978,-59.39455 -243.48206,26.34976 z"
         id="path30246"
         sodipodi:nodetypes="ccccccc"
         inkscape:label="top hair" />
      <path
         id="path13483"
         style="display:inline;fill:#ffcb4c;stroke:#ffcb4c;stroke-width:78.7461;stroke-linecap:round;stroke-linejoin:round;stroke-miterlimit:4;stroke-dasharray:7.8746, 7.8746;stroke-dashoffset:0;stroke-opacity:1;paint-order:fill markers stroke;stop-color:#000000"
         inkscape:label="right ear"
         d="m 759.25995,488.96057 c -0.2461,-26.86006 -98.50415,-80.14381 -128.11935,-89.12106 -26.36766,-7.99283 -92.79013,-32.58898 -111.61375,-39.57795 0,0 -1.06,3.48004 -3.11626,8.93493 -1.02814,2.7274 -2.30538,5.94854 -3.82388,9.47537 -1.51851,3.52683 -3.278,7.35904 -5.27109,11.30907 -1.99307,3.95003 -4.21976,8.01791 -6.67164,12.01492 -1.22593,1.9985 -2.50806,3.97932 -3.84573,5.919 -1.33767,1.93974 -2.73038,3.83802 -4.17781,5.6719 -1.4478,1.83359 -2.94922,3.60305 -4.50447,5.28406 -1.55521,1.68105 -3.16399,3.2738 -4.82503,4.75498 -1.66099,1.4812 -3.37465,2.85095 -5.1395,4.0852 -1.76488,1.23427 -3.58121,2.33313 -5.44794,3.27348 -1.86673,0.94031 -3.84898,1.82658 -5.92479,2.66128 -2.07581,0.83467 -4.24518,1.61761 -6.48666,2.35285 -2.24148,0.73522 -4.55463,1.42228 -6.91832,2.06436 -2.3637,0.64209 -4.77795,1.23932 -7.22043,1.79449 -4.88495,1.11035 -9.88416,2.05298 -14.82363,2.85319 -4.93951,0.8002 -9.81895,1.45831 -14.46551,1.99841 -4.64655,0.5401 -9.06014,0.96252 -13.06627,1.29256 -4.00614,0.33005 -7.60508,0.56699 -10.62331,0.73698 -6.03647,0.34 -9.74953,0.41023 -9.74953,0.41023 40.63474,32.36613 126.12058,92.57296 202.79572,94.87248 104.97749,3.14833 173.19875,-35.6426 173.03918,-53.06076 z"
         inkscape:transform-center-x="-72.351736"
         inkscape:transform-center-y="24.986312" />
      <path
         style="fill:none;stroke:#65471b;stroke-width:78.7459;stroke-linecap:round;stroke-linejoin:round;stroke-opacity:1;paint-order:fill markers stroke;stop-color:#000000"
         d="m 353.66745,414.61557 c -9.73391,24.20925 76.17379,100.93363 121.11818,60.02542"
         id="path1517"
         sodipodi:nodetypes="cc" />
    </g>
  </g>
</svg>
