<?xml version="1.0" encoding="UTF-8" standalone="no"?>
<!-- Created with Inkscape (http://www.inkscape.org/) -->

<svg
   version="1.1"
   id="svg824"
   width="1706.6667"
   height="1706.6667"
   viewBox="0 0 1706.6667 1706.6667"
   sodipodi:docname="ying_coat.svg"
   inkscape:version="1.3.2 (091e20e, 2023-11-25, custom)"
   inkscape:export-filename="D:\Pictures\yingmotes\ying.png"
   inkscape:export-xdpi="72"
   inkscape:export-ydpi="72"
   xmlns:inkscape="http://www.inkscape.org/namespaces/inkscape"
   xmlns:sodipodi="http://sodipodi.sourceforge.net/DTD/sodipodi-0.dtd"
   xmlns="http://www.w3.org/2000/svg"
   xmlns:svg="http://www.w3.org/2000/svg">
  <defs
     id="defs828" />
  <sodipodi:namedview
     id="namedview826"
     pagecolor="#ffffff"
     bordercolor="#666666"
     borderopacity="1.0"
     inkscape:pageshadow="2"
     inkscape:pageopacity="0.0"
     inkscape:pagecheckerboard="0"
     showgrid="false"
     inkscape:zoom="0.26277661"
     inkscape:cx="-194.0812"
     inkscape:cy="825.79648"
     inkscape:window-width="2560"
     inkscape:window-height="1017"
     inkscape:window-x="-8"
     inkscape:window-y="-8"
     inkscape:window-maximized="1"
     inkscape:current-layer="layer1"
     inkscape:showpageshadow="2"
     inkscape:deskcolor="#d1d1d1" />
  <g
     id="layer1"
     inkscape:label="Ying"
     style="display:inline"
     inkscape:groupmode="layer">
    <path
       style="font-variation-settings:normal;display:inline;opacity:1;vector-effect:none;fill:#283c57;fill-opacity:1;stroke:#6f7c91;stroke-width:64;stroke-linecap:round;stroke-linejoin:round;stroke-miterlimit:4;stroke-dasharray:none;stroke-dashoffset:0;stroke-opacity:1;-inkscape-stroke:none;paint-order:fill markers stroke;stop-color:#000000;stop-opacity:1"
       d="m 657.93882,696.71062 c 0,0 130.26305,-133.2666 408.45198,-130.9836 278.1889,2.28298 231.8241,67.27095 238.4476,612.90638 3.1898,262.7715 125.8473,600.4272 125.8473,600.4272 l -648.71823,12.6933 c 0,0 17.72164,-110.0894 1.34093,-213.358 C 766.41917,1471.9214 665.75797,1373.1553 646.89675,1234.859 622.86505,1058.6511 573.92602,771.06825 657.93882,696.71062 Z"
       id="path1005"
       sodipodi:nodetypes="cssccssc" />
    <path
       style="opacity:1;fill:#ffcb4c;fill-opacity:1;stroke:#ffcb4c;stroke-width:64;stroke-linecap:round;stroke-linejoin:round;stroke-miterlimit:4;stroke-dasharray:none;stroke-dashoffset:0;stroke-opacity:1;paint-order:fill markers stroke;stop-color:#000000"
       d="m 848.0933,1338.888 -33.37403,226.7472 v 0 l 31.41086,-12.7607 25.27004,153.7922 383.07113,30.7467 c 0,0 -127.6066,-94.2326 -149.2016,-184.5389 -21.5949,-90.3062 51.0427,-253.25 51.0427,-253.25 z"
       id="path3340"
       inkscape:label="neck"
       sodipodi:nodetypes="ccccccscc" />
    <g
       id="g12988"
       inkscape:label="head">
      <path
         style="display:inline;fill:none;fill-opacity:1;stroke:#f19020;stroke-width:32;stroke-linecap:round;stroke-linejoin:round;stroke-miterlimit:4;stroke-dasharray:none;stroke-dashoffset:0;stroke-opacity:1;paint-order:fill markers stroke;stop-color:#000000"
         d="M 278.68078,985.91438 C 426.81177,897.68912 608.27495,822.14649 765.29729,787.6832"
         id="path6280-0-6"
         sodipodi:nodetypes="cc"
         inkscape:label="eyelash left small"
         inkscape:transform-center-x="198.15761"
         inkscape:transform-center-y="83.012624" />
      <g
         id="g12997"
         inkscape:label="left eye">
        <path
           id="path1915-9"
           style="display:inline;fill:#fefefe;stroke:#65471b;stroke-width:64;stroke-linecap:round;stroke-linejoin:round;paint-order:fill markers stroke;stop-color:#000000"
           inkscape:label="lefteye"
           d="m 792.61751,1048.7279 c 10e-6,120.7167 -155.86024,218.577 -276.57698,218.577 -120.71674,0 -160.57699,-55.8603 -160.57698,-176.577 0,-120.71673 97.86025,-260.57698 218.57698,-260.57698 120.71673,0 218.57698,97.86025 218.57698,218.57698 z"
           sodipodi:nodetypes="sssss" />
        <path
           style="opacity:1;fill:#ffffff;fill-opacity:1;stroke:#65471b;stroke-width:48;stroke-linecap:round;stroke-linejoin:round;stroke-miterlimit:4;stroke-dasharray:none;stroke-dashoffset:0;stroke-opacity:1;paint-order:fill markers stroke;stop-color:#000000"
           d="m 497.52349,946.4743 v 170.0043"
           id="path2372"
           inkscape:label="left pupil" />
      </g>
      <path
         style="opacity:1;fill:#f19020;fill-opacity:1;stroke:#f19020;stroke-width:64;stroke-linecap:round;stroke-miterlimit:4;stroke-dasharray:none;stroke-dashoffset:0;stroke-opacity:1;paint-order:fill markers stroke;stop-color:#000000"
         d="m 838.98236,834.56666 c 0,0 -47.96997,-170.62298 -41.94911,-353.25573 6.62354,-200.91419 83.89823,-417.283329 152.34153,-421.699025 68.44332,-4.415697 178.83572,192.082805 207.53772,331.177245 28.702,139.09445 -4.4157,445.98536 -4.4157,445.98536 z"
         id="path1640"
         inkscape:label="left ear"
         sodipodi:nodetypes="cssscc" />
      <path
         style="display:inline;opacity:0.8;fill:#b7bec8;fill-opacity:1;stroke:#b7bec8;stroke-width:60.244;stroke-linecap:round;stroke-linejoin:round;stroke-dashoffset:96;stroke-opacity:1"
         d="m 753.87969,680.36724 c 0,0 -9.92527,-104.10199 -2.81155,-239.91283 4.82537,-92.12303 76.83322,-373.491436 183.12799,-395.317202 106.29477,-21.825765 243.71457,194.562522 281.55277,393.785132 51.4752,271.02318 -49.422,208.62778 -49.422,208.62778 0,0 -127.8286,43.31993 -236.84966,-4.70027 -109.0208,-48.02026 -125.61065,-0.74412 -125.61065,-0.74412"
         id="path2-3"
         sodipodi:nodetypes="cssscsc" />
      <path
         id="path1148"
         style="display:inline;opacity:1;fill:#ffcb4c;stroke:#ffcb4c;stroke-width:64;stroke-linecap:round;stroke-linejoin:round;stroke-miterlimit:4;stroke-dasharray:none;stroke-dashoffset:0;stroke-opacity:1;paint-order:fill markers stroke;stop-color:#000000"
         inkscape:label="head"
         d="m 1299.0547,1153.5586 c 0,0 -0.1078,-10.8206 -0.9512,-28.418 -0.4217,-8.7987 -1.0259,-19.2912 -1.8945,-30.9726 -0.8686,-11.6814 -1.9997,-24.5525 -3.4727,-38.1055 -1.4729,-13.553 -3.2888,-27.7877 -5.5234,-42.2012 -2.2347,-14.41345 -4.8892,-29.0047 -8.043,-43.26755 -1.5769,-7.13143 -3.279,-14.18175 -5.1152,-21.08594 -1.8362,-6.90419 -3.8068,-13.66232 -5.9219,-20.21289 -2.1151,-6.55056 -4.3733,-12.89234 -6.7871,-18.96289 -2.4138,-6.07055 -4.9828,-11.86984 -7.7148,-17.33398 -2.7321,-5.46415 -5.9346,-10.78574 -9.5391,-15.96094 -3.6045,-5.1752 -7.6114,-10.20474 -11.9492,-15.08399 -4.3379,-4.87924 -9.0074,-9.60926 -13.9395,-14.18554 -4.9321,-4.57628 -10.1264,-8.99932 -15.5136,-13.26563 -5.3873,-4.2663 -10.9666,-8.37489 -16.67,-12.32422 -5.7033,-3.94932 -11.5298,-7.73794 -17.4101,-11.36328 -11.7607,-7.25067 -23.7371,-13.84709 -35.3711,-19.75976 -11.634,-5.91267 -22.9257,-11.14156 -33.3203,-15.66016 -10.3946,-4.5186 -19.8912,-8.32606 -27.9336,-11.39453 -16.085,-6.13693 -26.3535,-9.31836 -26.3535,-9.31836 -106.83135,-15.98813 -232.17461,6.96944 -312.62504,60.01367 -101.26734,66.76968 -136.88727,176.62945 -198.70703,211.95509 -61.81975,35.3255 -225.20029,77.273 -280.39649,83.8965 -55.19621,6.6235 -183.250354,6.6246 -161.171871,123.6406 22.078481,117.016 112.599221,282.6049 377.541011,247.2793 174.50921,-23.2679 255.14782,-35.0416 353.58787,-52.9866 51.01271,-9.2993 106.80587,-20.2558 182.91995,-35.3279 22.8973,-4.5341 53.8481,-18.3195 86.8281,-36.9472 l 213.8711,-11.4278 -92.9258,-75.2558 c 5.3578,-4.8405 10.5999,-9.7184 15.6328,-14.6367 l 142.0762,-2.375 -84.8808,-69.668 c 3.4806,-6.5537 6.4805,-13.0207 8.6269,-19.3066 1.0523,-3.0817 2.0328,-6.6268 3.0469,-9.9766 z"
         sodipodi:nodetypes="csssssssssssssssssscsssssssccccccsc" />
      <g
         id="g13003"
         inkscape:label="face">
        <path
           style="opacity:1;fill:none;fill-opacity:1;stroke:#65471b;stroke-width:64;stroke-linecap:round;stroke-linejoin:round;stroke-miterlimit:4;stroke-dasharray:none;stroke-dashoffset:0;stroke-opacity:1;paint-order:fill markers stroke;stop-color:#000000"
           d="m 83.898236,1201.0695 68.443294,6.6235 -37.53342,39.7413"
           id="path2163"
           inkscape:label="left nostril" />
        <path
           style="opacity:1;fill:none;fill-opacity:1;stroke:#65471b;stroke-width:64;stroke-linecap:round;stroke-linejoin:round;stroke-miterlimit:4;stroke-dasharray:none;stroke-dashoffset:0;stroke-opacity:1;paint-order:fill markers stroke;stop-color:#000000"
           d="m 401.82839,1251.85 -59.6119,-44.157 121.43166,-17.6628"
           id="path2198"
           inkscape:label="right nostril" />
        <path
           style="opacity:1;fill:none;fill-opacity:1;stroke:#65471b;stroke-width:64;stroke-linecap:round;stroke-linejoin:round;stroke-miterlimit:4;stroke-dasharray:none;stroke-dashoffset:0;stroke-opacity:1;paint-order:fill markers stroke;stop-color:#000000"
           d="m 132.4709,1346.7875 90.52178,-72.859 c 0,0 175.63679,119.8786 251.69471,114.8081 66.23545,-4.4157 90.52177,-72.859 90.52177,-72.859"
           id="path2200"
           sodipodi:nodetypes="ccsc"
           inkscape:label="mouf" />
        <path
           style="opacity:1;fill:#ffffff;fill-opacity:1;stroke:#65471b;stroke-width:64;stroke-linecap:round;stroke-linejoin:round;stroke-miterlimit:4;stroke-dasharray:none;stroke-dashoffset:0;stroke-opacity:1;paint-order:fill markers stroke;stop-color:#000000"
           d="m 222.99268,1530.0389 -90.52178,-183.2514 90.52178,-72.859 103.76887,66.2354 z"
           id="path2202"
           sodipodi:nodetypes="ccccc"
           inkscape:label="toof" />
      </g>
      <g
         id="g12993"
         inkscape:label="right eye">
        <path
           style="opacity:1;fill:#65471b;fill-opacity:1;stroke:#65471b;stroke-width:64;stroke-linecap:round;stroke-linejoin:round;stroke-miterlimit:4;stroke-dasharray:none;stroke-dashoffset:0;stroke-opacity:1;paint-order:fill markers stroke;stop-color:#000000"
           d="m 661.97569,1226.0485 53.36716,-115.5008 86.53085,168.711 z"
           id="path7852"
           inkscape:label="eyenub"
           sodipodi:nodetypes="cccc" />
        <path
           id="path1915"
           style="opacity:1;fill:#fefefe;stroke:#65471b;stroke-width:64;stroke-linecap:round;stroke-linejoin:round;paint-order:fill markers stroke;stop-color:#000000"
           inkscape:label="righteye"
           d="m 1150.289,1075.2222 c 0,120.7167 -151.8603,218.5769 -272.57702,218.5769 -120.71671,0 -164.57695,-71.8602 -164.57699,-192.5769 -2e-5,-120.71675 97.86024,-244.57702 218.57699,-244.57701 120.71672,-2e-5 218.57702,97.86025 218.57702,218.57701 z"
           sodipodi:nodetypes="sssss" />
        <path
           style="opacity:1;fill:#ffffff;fill-opacity:1;stroke:#65471b;stroke-width:48;stroke-linecap:round;stroke-linejoin:round;stroke-miterlimit:4;stroke-dasharray:none;stroke-dashoffset:0;stroke-opacity:1;paint-order:fill markers stroke;stop-color:#000000"
           d="m 841.19021,982.4925 v 189.8749"
           id="path2350"
           inkscape:label="right pupil" />
      </g>
      <path
         style="display:none;fill:#123456;stroke:#123456;stroke-width:64;stroke-linecap:round;stroke-linejoin:round;-inkscape-stroke:none;paint-order:fill markers stroke;stop-color:#000000"
         d="M 940.93148,784.0449 C 823.91552,811.643 704.69171,951.84136 704.69171,951.84136 703.03105,868.79572 671.27974,789.4374 795.2135,717.80944 670.51871,710.35266 660.73402,874.90411 501.56968,936.38643 c 0,0 210.49677,-332.06554 397.41269,-348.84005 z"
         id="path1637"
         sodipodi:nodetypes="cccccc"
         inkscape:label="top hair" />
      <path
         style="opacity:1;fill:none;fill-opacity:1;stroke:#ffcb4c;stroke-width:32;stroke-linecap:round;stroke-linejoin:round;stroke-miterlimit:4;stroke-dasharray:none;stroke-dashoffset:0;stroke-opacity:1;paint-order:fill markers stroke;stop-color:#000000"
         d="M 106.31185,945.26863 C 353.1692,802.95079 608.66964,717.93515 880.93148,744.0449"
         id="path6280"
         sodipodi:nodetypes="cc"
         inkscape:label="eyelash right big" />
      <path
         style="display:inline;fill:none;fill-opacity:1;stroke:#ffcb4c;stroke-width:32;stroke-linecap:round;stroke-linejoin:round;stroke-miterlimit:4;stroke-dasharray:none;stroke-dashoffset:0;stroke-opacity:1;paint-order:fill markers stroke;stop-color:#000000"
         d="M 625.63137,845.34308 C 790.30948,794.27835 984.42072,763.35249 1145.1471,766.63651"
         id="path6280-0"
         sodipodi:nodetypes="cc"
         inkscape:label="eyelash right small" />
    </g>
    <path
       style="display:inline;opacity:0.8;fill:#b7bec8;fill-opacity:1;stroke:#b7bec8;stroke-width:64;stroke-linecap:round;stroke-linejoin:round;stroke-dashoffset:96;stroke-opacity:1"
       d="m 1028.4675,941.72399 c 0,0 -500.29558,107.84241 -862.48651,53.76943 -362.19093,-54.07299 491.95783,-298.7828 491.95783,-298.7828 0,0 99.6609,-5.18714 155.33535,14.82273 112.93739,40.59065 215.19333,230.19064 215.19333,230.19064 z"
       id="path1"
       sodipodi:nodetypes="cscsc" />
    <path
       style="display:inline;opacity:0.472169;fill:#000000;stroke:#000000;stroke-width:32;stroke-linecap:round;stroke-linejoin:round;stroke-dashoffset:172.8;paint-order:fill markers stroke;stop-color:#000000"
       d="m 679.63291,667.08621 c 0,0 192.29026,-115.05873 470.47919,-112.77573 278.1889,2.28298 161.6026,167.32049 179.7092,663.36532 9.586,262.6159 100.8644,561.3848 100.8644,561.3848 l -612.71823,12.6933 c 0,0 63.30983,-80.3443 100.91467,-196.4113 62.69075,-193.4945 90.03896,-382.4574 64.94867,-494.3594 C 930.9947,865.33529 762.48368,739.55233 679.63291,667.08621 Z"
       id="path4413"
       sodipodi:nodetypes="cssccssc" />
    <path
       style="font-variation-settings:normal;display:inline;opacity:1;vector-effect:none;fill:#283c57;fill-opacity:1;stroke:#6f7c91;stroke-width:64;stroke-linecap:round;stroke-linejoin:round;stroke-miterlimit:4;stroke-dasharray:none;stroke-dashoffset:0;stroke-opacity:1;-inkscape-stroke:none;paint-order:fill markers stroke;stop-color:#000000;stop-opacity:1"
       d="m 657.93882,696.71062 c 0,0 130.26305,-133.2666 408.45198,-130.9836 278.1889,2.28298 640.2759,291.81305 494.8727,822.20968 -78.1533,285.0845 -30.4974,372.0072 -31.6344,459.6232 l -711.66163,-55.806 c 0,0 60.01394,48.6348 53.4327,-85.0872 -6.31296,-128.2708 215.53863,-175.3834 215.53863,-566.4328 0,-177.83917 -162.022,-476.84143 -428.99998,-443.52328 z"
       id="path877"
       sodipodi:nodetypes="cssccssc" />
    <path
       style="display:inline;fill:none;fill-opacity:1;stroke:#6f7c91;stroke-width:64;stroke-linecap:round;stroke-linejoin:round;stroke-miterlimit:4;stroke-dasharray:none;stroke-dashoffset:172.8;stroke-opacity:1;paint-order:fill markers stroke;stop-color:#000000"
       d="m 1005.7075,684.03122 c 357.0278,-132.3419 432.8608,119.88135 477.3659,300.80309"
       id="path3449"
       sodipodi:nodetypes="cc" />
    <path
       id="path13483"
       style="display:inline;fill:#ffcb4c;stroke:#ffcb4c;stroke-width:64;stroke-linecap:round;stroke-linejoin:round;stroke-miterlimit:4;stroke-dasharray:none;stroke-dashoffset:0;stroke-opacity:1;paint-order:fill markers stroke;stop-color:#000000"
       inkscape:label="right ear"
       d="m 1432.8945,59.611328 c -79.4826,-10e-7 -239.79,284.870282 -267.1504,370.919922 -24.3601,76.61362 -74.6403,209.87905 -95.8269,264.53848 -14.9109,222.33465 241.5865,429.31397 395.3224,221.42736 C 1528.032,807.79472 1580.5512,683.13874 1585.2344,565.20898 1597.3777,259.42199 1484.4372,59.611328 1432.8945,59.611328 Z"
       sodipodi:nodetypes="ssccss" />
    <path
       style="display:inline;opacity:0.8;fill:#b7bec8;fill-opacity:1;stroke:#b7bec8;stroke-width:64;stroke-linecap:round;stroke-linejoin:round;stroke-dashoffset:96;stroke-opacity:1"
       d="m 1005.7075,684.03122 c 0,0 74.1631,-308.90025 122.6194,-388.28116 48.4563,-79.38092 183.1368,-261.178553 304.5676,-250.138732 121.4308,11.039821 213.0251,261.014002 200.9133,464.401652 -16.4769,276.68933 -150.7344,474.82133 -150.7344,474.82133 0,0 -189.4572,49.69439 -295.1798,-29.47167 C 1082.1711,876.1966 1005.7075,684.03122 1005.7075,684.03122"
       id="path2"
       sodipodi:nodetypes="cssscsc" />
    <path
       style="display:inline;fill:none;stroke:#6f7c91;stroke-width:64;stroke-linecap:round;stroke-linejoin:round;stroke-miterlimit:4;stroke-dasharray:none;stroke-dashoffset:172.8;stroke-opacity:1;paint-order:fill markers stroke;stop-color:#000000"
       d="m 1005.7075,684.03122 c 51.4291,219.91997 165.8623,427.64908 477.3659,300.80309"
       id="path3784"
       sodipodi:nodetypes="cc" />
    <path
       style="opacity:1;fill:#283c57;fill-opacity:1;stroke:#6f7c91;stroke-width:64;stroke-linecap:round;stroke-linejoin:round;stroke-dashoffset:96;stroke-opacity:1"
       d="m 783.3084,1578.3959 321.9613,-25.5214 7.1922,325.0783 -330.49443,-86.1989 z"
       id="path3"
       sodipodi:nodetypes="ccccc" />
    <ellipse
       style="opacity:1;fill:#b3b3b3;fill-opacity:1;stroke:#999999;stroke-width:38.3241;stroke-linecap:round;stroke-linejoin:round;stroke-dashoffset:96;stroke-opacity:1"
       id="path4"
       cx="995.9259"
       cy="1672.8745"
       rx="49.343822"
       ry="47.937927" />
  </g>
</svg>
