<?xml version="1.0" encoding="UTF-8" standalone="no"?>
<!-- Created with Inkscape (http://www.inkscape.org/) -->

<svg
   version="1.1"
   id="svg824"
   width="1706.6667"
   height="1706.6667"
   viewBox="0 0 1706.6667 1706.6667"
   sodipodi:docname="ying_hold.svg"
   inkscape:version="1.3.2 (091e20e, 2023-11-25, custom)"
   inkscape:export-filename="D:\Pictures\yingmotes\ying_smol.png"
   inkscape:export-xdpi="72"
   inkscape:export-ydpi="72"
   xmlns:inkscape="http://www.inkscape.org/namespaces/inkscape"
   xmlns:sodipodi="http://sodipodi.sourceforge.net/DTD/sodipodi-0.dtd"
   xmlns="http://www.w3.org/2000/svg"
   xmlns:svg="http://www.w3.org/2000/svg">
  <defs
     id="defs828" />
  <sodipodi:namedview
     id="namedview826"
     pagecolor="#ffffff"
     bordercolor="#666666"
     borderopacity="1.0"
     inkscape:pageshadow="2"
     inkscape:pageopacity="0.0"
     inkscape:pagecheckerboard="0"
     showgrid="false"
     inkscape:zoom="0.3138615"
     inkscape:cx="455.61497"
     inkscape:cy="906.45077"
     inkscape:window-width="1920"
     inkscape:window-height="1001"
     inkscape:window-x="-9"
     inkscape:window-y="-9"
     inkscape:window-maximized="1"
     inkscape:current-layer="layer1"
     inkscape:showpageshadow="2"
     inkscape:deskcolor="#d1d1d1" />
  <g
     id="layer1"
     inkscape:label="Ying"
     style="display:inline"
     transform="translate(-40.172039,241.03223)">
    <path
       id="path1"
       style="color:#000000;display:inline;fill:#007c8d;fill-opacity:1;stroke:#ffffff;stroke-width:128;stroke-linecap:round;stroke-linejoin:round;stroke-miterlimit:4;stroke-dasharray:none;paint-order:stroke fill markers"
       d="m 1006.0693,548.72625 c -4.4505,-2.01397 -9.34842,-3.82774 -14.67191,-5.39825 -42.58816,-12.56529 -96.25066,-4.83387 -119.86006,17.26622 L 622.64828,793.58268 850.38642,525.66948 c 19.67343,-23.14395 -0.4921,-50.43629 -45.03835,-60.95663 -28.81516,-6.80579 -62.23143,-5.10738 -87.65962,4.45528 -12.49464,4.69849 -22.36417,11.04494 -28.61694,18.4012 L 441.8567,778.4027 c 1.40916,-10.56471 3.07164,-20.60308 5.11226,-29.16008 2.75593,-30.88578 43.71621,-46.78056 5.37613,-79.76809 -30.29447,-20.07371 -85.75825,-23.69888 -123.88213,-8.09793 -15.98652,6.54248 -25.36883,12.14421 -31.14863,17.17996 -9.63263,8.39326 -9.2583,15.21226 -12.80163,22.17699 -5.66915,11.14375 -9.38198,22.95561 -12.53238,36.16627 -6.30122,26.42095 -9.66659,57.976 -10.3635,89.5798 -0.69703,31.60388 1.23056,62.83401 6.85735,88.99198 0.85005,3.95221 1.80242,7.74299 2.82974,11.47039 l -499.49938,81.91071 c -53.63715,10.5042 -80.34365,41.8118 -59.6531,69.9316 l 55.83537,75.8593 c 20.94751,28.4539 82.31237,42.6749 136.233496,31.5717 L 552.85791,1071.8758 c 2.00118,-0.2909 4.09939,-0.7 6.12509,-1.0031 L 189.84322,1500.239 c -26.68324,32.406 -16.41555,74.2085 22.79492,92.8043 l 104.53959,49.5713 c 38.75226,18.3703 91.01462,7.0522 116.73987,-25.2823 l 295.42297,-343.3545 c 5.45112,1.3395 11.01198,2.6432 16.83579,3.9106 38.54527,8.389 85.44178,15.3446 133.38572,20.6927 47.94393,5.348 96.30377,8.985 137.43332,9.8035 20.5651,0.4092 39.1147,0.2015 57.0142,-1.3769 11.1871,-0.9865 21.4355,0.5016 35.9001,-4.1125 8.6785,-2.7686 18.8754,-7.7331 31.7045,-16.7448 30.5925,-21.4914 35.2754,-57.5838 10.4575,-80.6137 -42.8815,-30.5362 -74.4398,-7.2866 -121.6747,-11.1879 -13.3206,-0.2652 -28.8123,-1.0447 -45.05488,-2.0812 L 1470.685,1087.6759 c 12.2761,-2.6454 23.6865,-7.7859 33.0856,-14.9053 19.1294,-14.489 27.8261,-35.5223 22.8111,-55.1752 -7.7513,-30.38174 -45.3472,-48.26355 -83.97,-39.93997 L 995.51529,1074.0076 1393.6478,957.74397 c 37.765,-11.02898 59.2951,-43.88913 48.0909,-73.39506 -11.2024,-29.50554 -50.894,-44.48577 -88.6588,-33.45931 l -319.4854,93.29854 211.7603,-86.80393 c 35.9953,-14.75665 52.2061,-49.27973 36.2075,-77.10888 -15.999,-27.82848 -58.1497,-38.42677 -94.1456,-23.67227 L 974.60237,843.83972 1138.055,729.19073 c 28.9218,-20.28718 20.6122,-49.15156 -18.559,-64.47197 -39.1724,-15.32031 -94.3757,-11.29406 -123.30065,8.99238 L 826.04456,793.05545 1025.7696,606.0943 c 20.6549,-19.33788 11.4528,-43.27034 -19.7003,-57.36805 z"
       sodipodi:nodetypes="sccccccccccccccsscccccccccccccssssccccccccccccccccccccccs" />
    <path
       style="display:inline;fill:none;fill-opacity:1;stroke:#f19020;stroke-width:64;stroke-linecap:round;stroke-linejoin:round;stroke-opacity:1;paint-order:fill markers stroke;stop-color:#000000"
       d="m 182.6112,959.53427 73.71108,68.05463 401.27479,-80.79153 172.92742,-110.1147 c 45.48353,45.4604 134.15436,86.8906 11.57809,148.0332 l -184.50551,-37.9185"
       id="path10187-1"
       sodipodi:nodetypes="cccccc" />
    <path
       style="display:inline;fill:none;fill-opacity:1;stroke:#f19020;stroke-width:64;stroke-linecap:round;stroke-linejoin:round;stroke-opacity:1;paint-order:fill markers stroke;stop-color:#000000"
       d="M 441.8567,778.4027 507.62478,824.76957 662.92099,622.0517 618.0232,475.50915"
       id="path14378-2"
       sodipodi:nodetypes="cccc"
       inkscape:transform-center-x="126.16903"
       inkscape:transform-center-y="219.29747" />
    <path
       style="display:inline;fill:#ffcb4c;fill-opacity:1;stroke:#ffcb4c;stroke-width:64;stroke-linecap:round;stroke-linejoin:round;stroke-opacity:1;paint-order:fill markers stroke;stop-color:#000000"
       d="m 598.77162,401.01189 c 0,0 -74.4444,116.58457 -65.24603,209.03497 10.52851,183.10719 125.06145,393.57814 308.57699,374.66901 183.51552,-18.9091 192.09852,-41.0455 351.66932,-95.8063 159.5707,-54.7608 344.9924,-40.36728 344.9924,-40.36728 1.6318,6.52704 -137.5473,-66.91952 -269.8198,-49.25699 -176.4923,23.56727 -348.00715,49.62502 -434.88897,7.66109 C 727.27662,755.37217 655.43347,727.56551 647.34428,582.05547 639.89462,448.04935 660.26583,371.5809 660.26583,371.5809"
       id="path2053"
       sodipodi:nodetypes="cczzcsssc" />
    <path
       style="display:inline;fill:none;fill-opacity:1;stroke:#ffcb4c;stroke-width:64;stroke-linecap:round;stroke-linejoin:round;stroke-opacity:1;paint-order:fill markers stroke;stop-color:#000000"
       d="m 385.81308,1169.6238 96.4145,91.5652 228.40948,-238.2313 130.56663,-158.05533 c 57.28138,29.2273 154.40505,41.309 56.64318,137.25673 l -187.20981,20.7986"
       id="path10187"
       sodipodi:nodetypes="cccccc" />
    <path
       style="display:inline;fill:none;fill-opacity:1;stroke:#ffcb4c;stroke-width:64;stroke-linecap:round;stroke-linejoin:round;stroke-opacity:1;paint-order:fill markers stroke;stop-color:#000000"
       d="M 906.41028,1153.5282 839.86319,1100.5627 705.52986,641.93585 618.0232,475.50915"
       id="path14378"
       sodipodi:nodetypes="cccc"
       inkscape:transform-center-x="148.28432"
       inkscape:transform-center-y="204.22593" />
    <g
       id="g31027"
       inkscape:label="head"
       transform="rotate(11.146873,1346.3287,1370.295)"
       style="display:inline">
      <path
         style="display:inline;fill:none;stroke:#65471b;stroke-width:64;stroke-linecap:round;stroke-linejoin:round;stroke-opacity:1;paint-order:fill markers stroke;stop-color:#000000"
         d="m 282.68851,375.07131 3.08897,103.83206"
         id="path1517-8"
         sodipodi:nodetypes="cc" />
      <path
         style="fill:none;stroke:#65471b;stroke-width:64;stroke-linecap:round;stroke-linejoin:round;stroke-opacity:1;paint-order:fill markers stroke;stop-color:#000000"
         d="m 137.99052,534.29931 21.93043,93.52394"
         id="path1858"
         sodipodi:nodetypes="cc" />
      <path
         style="fill:#f19020;fill-opacity:1;stroke:#f19020;stroke-width:64.0002;stroke-linecap:round;stroke-miterlimit:4;stroke-dasharray:none;stroke-dashoffset:0;stroke-opacity:1;paint-order:fill markers stroke;stop-color:#000000"
         d="m 372.38879,370.87806 c 0,0 -24.31783,-55.49827 -31.09119,-117.64073 -7.45138,-68.36288 8.06808,-145.33185 30.82939,-150.09373 22.76132,-4.761905 69.27809,56.52104 85.61016,102.26058 16.33206,45.73956 19.99342,151.25963 19.99342,151.25963 z"
         id="path1640"
         inkscape:label="left ear"
         sodipodi:nodetypes="cssscc" />
      <path
         style="display:none;fill:#123456;fill-opacity:1;stroke:#123456;stroke-width:64;stroke-linecap:round;stroke-linejoin:round;stroke-opacity:1;paint-order:fill markers stroke;stop-color:#000000"
         d="m 598.12651,319.56637 85.27302,422.75304 -62.7557,-65.54462 -29.92676,63.21549 -54.64047,-93.1347 -30.87653,49.04433 -23.53187,-287.38979 z"
         id="path30938"
         inkscape:label="mane" />
      <path
         id="path1148"
         style="display:inline;fill:#ffcb4c;stroke:#ffcb4c;stroke-width:64.0002;stroke-linecap:round;stroke-linejoin:round;stroke-miterlimit:4;stroke-dasharray:6.40001, 6.40001;stroke-dashoffset:0;stroke-opacity:1;paint-order:fill markers stroke;stop-color:#000000"
         inkscape:label="head"
         d="m 539.60091,477.49373 c 0,0 -0.0366,-3.70164 -0.3225,-9.72156 -0.14297,-3.00997 -0.34782,-6.59936 -0.64231,-10.59548 -0.29449,-3.99611 -0.67797,-8.3992 -1.17738,-13.03557 -0.49937,-4.63637 -1.11503,-9.50595 -1.87265,-14.43669 -0.75765,-4.93072 -1.65763,-9.92227 -2.7269,-14.80147 -0.53463,-2.4396 -1.11171,-4.85146 -1.73425,-7.21333 -0.62254,-2.36186 -1.29066,-4.67376 -2.00776,-6.91466 -0.7171,-2.24089 -1.48272,-4.41036 -2.30109,-6.48705 -0.81838,-2.07668 -1.68937,-4.06057 -2.61562,-5.92981 -0.92629,-1.86924 -2.01207,-3.68971 -3.23414,-5.46011 -1.22206,-1.77039 -2.58056,-3.49095 -4.05125,-5.1601 -1.47072,-1.66915 -3.05386,-3.28725 -4.72604,-4.85276 -1.67217,-1.56551 -3.43325,-3.07859 -5.25972,-4.53806 -1.82651,-1.45947 -3.71811,-2.86498 -5.65179,-4.21602 -1.93364,-1.35103 -3.90906,-2.64708 -5.90271,-3.88728 -3.98734,-2.4804 -8.04781,-4.73698 -11.9922,-6.75965 -3.94438,-2.02268 -7.77272,-3.81144 -11.2969,-5.35722 -3.52418,-1.54577 -6.7439,-2.84827 -9.47059,-3.89797 -5.45345,-2.09939 -8.93488,-3.18773 -8.93488,-3.18773 -36.22004,-5.46941 -78.71636,2.38418 -105.99223,20.53018 -34.33362,22.84136 -46.41019,60.42348 -67.36953,72.50809 -20.95933,12.08456 -76.35178,26.43446 -95.06548,28.7003 -18.71369,2.26585 -62.1291,2.26622 -54.64363,42.29643 7.48548,40.03021 38.17558,96.67678 128.00132,84.59222 89.82572,-12.0846 106.29402,-15.10592 181.89733,-30.21167 7.76309,-1.55108 18.25663,-6.26695 29.43815,-12.63933 l 72.51075,-3.90936 -31.50552,-25.74439 c 1.81651,-1.65589 3.59379,-3.32458 5.30014,-5.00709 l 48.16944,-0.81247 -28.77794,-23.83285 c 1.18006,-2.24196 2.19714,-4.45427 2.92486,-6.60463 0.35677,-1.05422 0.6892,-2.26697 1.03302,-3.41291 z" />
      <path
         style="display:none;fill:#123456;fill-opacity:1;stroke:#123456;stroke-width:64;stroke-linecap:round;stroke-linejoin:round;stroke-opacity:1;paint-order:fill markers stroke;stop-color:#000000"
         d="M 320.87858,338.01294 C 281.95267,309.89167 225.6036,305.72726 156.39388,319.24623 209.58653,265.04748 278.4105,228.0432 369.45124,215.47736 360.951,193.10977 318.78532,194.78893 285.55301,190.0871 c 71.84967,-34.61604 149.12201,-28.5621 228.5123,-6.62354 11.48715,33.4857 35.33869,66.9714 -33.11772,100.4571 -56.18757,-3.20348 -111.36025,1.20466 -160.06901,54.09228 z"
         id="path30246"
         sodipodi:nodetypes="ccccccc"
         inkscape:label="top hair" />
      <path
         id="path13483"
         style="display:inline;fill:#ffcb4c;stroke:#ffcb4c;stroke-width:64.0002;stroke-linecap:round;stroke-linejoin:round;stroke-miterlimit:4;stroke-dasharray:6.40001, 6.40001;stroke-dashoffset:0;stroke-opacity:1;paint-order:fill markers stroke;stop-color:#000000"
         inkscape:label="right ear"
         d="m 634.24383,124.07068 c -26.09194,-6.73733 -103.08077,74.03116 -119.42208,100.21398 -14.54936,23.31167 -73.39572,96.70351 -85.02561,113.01236 0,0 20.97063,-13.90197 25.72601,-10.50581 2.37765,1.69808 5.16948,3.76419 8.19527,6.14197 3.0258,2.37778 6.28534,5.06687 9.59875,8.01147 3.31343,2.94459 6.68077,6.14468 9.92135,9.5432 1.62026,1.69926 3.20892,3.44803 4.74337,5.23959 1.53449,1.79159 3.01462,3.62539 4.41824,5.49516 1.40357,1.86977 2.73043,3.77509 3.9581,5.70895 1.22767,1.93386 2.35599,3.89638 3.36269,5.88022 1.00667,1.98384 1.89186,3.9894 2.63249,6.0091 0.74063,2.01971 1.33679,4.05383 1.76632,6.09529 0.4295,2.04145 0.77683,4.1801 1.05002,6.39544 0.27318,2.21534 0.47208,4.50733 0.60615,6.85634 0.13407,2.34902 0.20297,4.75453 0.21524,7.19703 0.0123,2.44251 -0.032,4.92205 -0.12427,7.41784 -0.18456,4.99158 -0.56112,10.04961 -1.06028,15.01317 -0.4992,4.96356 -1.12056,9.83242 -1.7962,14.4464 -0.67561,4.61399 -1.40515,8.97312 -2.1191,12.91595 -0.71395,3.94284 -1.413,7.46945 -2.02711,10.41957 -1.2282,5.90024 -2.11827,9.49346 -2.11827,9.49346 41.84953,-30.71957 122.25131,-97.39326 144.26517,-170.6197 30.13961,-100.25579 10.15379,-176.01198 -6.76625,-180.38098 z"
         sodipodi:nodetypes="sscsssssssssssssssssscss" />
      <path
         style="fill:none;stroke:#65471b;stroke-width:64;stroke-linecap:round;stroke-linejoin:round;stroke-opacity:1;paint-order:fill markers stroke;stop-color:#000000"
         d="m 413.42417,389.34377 3.08897,103.83206"
         id="path1517" />
    </g>
    <path
       style="display:none;fill:#234567;fill-opacity:1;stroke:#234567;stroke-width:64;stroke-linecap:round;stroke-linejoin:round;stroke-opacity:1;paint-order:fill markers stroke;stop-color:#000000"
       d="m 1400.4213,797.48404 c -6.7808,35.42585 -3.2998,72.29477 46.734,115.71107 79.4381,-17.49118 154.2241,-1.90474 228.356,18.33311 -31.4256,-64.47126 -74.9144,-120.60291 -148.5316,-155.90599 -39.3683,-14.95355 -80.4151,-16.65855 -126.5584,21.86181 z"
       id="path31499"
       sodipodi:nodetypes="ccccc"
       inkscape:label="tail tuft" />
    <path
       style="fill:#ffcb4c;fill-opacity:1;stroke:#ffcb4c;stroke-width:64;stroke-linecap:round;stroke-linejoin:round;stroke-opacity:1;paint-order:fill markers stroke;stop-color:#000000"
       d="m 548.23428,502.24469 -29.82622,193.16026 24.14503,-35.5074"
       id="path964"
       sodipodi:nodetypes="ccc"
       inkscape:label="path964" />
    <path
       style="fill:#ffcb4c;fill-opacity:1;stroke:#ffcb4c;stroke-width:64;stroke-linecap:round;stroke-linejoin:round;stroke-opacity:1;paint-order:fill markers stroke;stop-color:#000000"
       d="m 542.55309,719.54998 32.66681,180.37759 31.24652,-24.145"
       id="path5564"
       sodipodi:nodetypes="ccc" />
    <path
       style="display:inline;fill:#ffcb4c;fill-opacity:1;stroke:#ffcb4c;stroke-width:64;stroke-linecap:round;stroke-linejoin:round;stroke-opacity:1;paint-order:fill markers stroke;stop-color:#000000"
       d="m 657.59707,946.79737 66.75392,66.04373"
       id="path6398" />
  </g>
</svg>
