<?xml version="1.0" encoding="UTF-8" standalone="no"?>
<!-- Created with Inkscape (http://www.inkscape.org/) -->

<svg
   version="1.1"
   id="svg824"
   width="1706.6667"
   height="1706.6667"
   viewBox="0 0 1706.6667 1706.6667"
   sodipodi:docname="ying_pooltoy.svg"
   inkscape:version="1.3.2 (091e20e, 2023-11-25, custom)"
   inkscape:export-filename="D:\Pictures\yingmotes\ying_nom_pizza.png"
   inkscape:export-xdpi="72"
   inkscape:export-ydpi="72"
   xmlns:inkscape="http://www.inkscape.org/namespaces/inkscape"
   xmlns:sodipodi="http://sodipodi.sourceforge.net/DTD/sodipodi-0.dtd"
   xmlns="http://www.w3.org/2000/svg"
   xmlns:svg="http://www.w3.org/2000/svg">
  <defs
     id="defs828" />
  <sodipodi:namedview
     id="namedview826"
     pagecolor="#ffffff"
     bordercolor="#666666"
     borderopacity="1.0"
     inkscape:pageshadow="2"
     inkscape:pageopacity="0.0"
     inkscape:pagecheckerboard="0"
     showgrid="false"
     inkscape:zoom="0.38866815"
     inkscape:cx="833.61604"
     inkscape:cy="834.90248"
     inkscape:window-width="1920"
     inkscape:window-height="1001"
     inkscape:window-x="-9"
     inkscape:window-y="-9"
     inkscape:window-maximized="1"
     inkscape:current-layer="layer1"
     inkscape:showpageshadow="2"
     inkscape:deskcolor="#d1d1d1" />
  <g
     id="layer1"
     inkscape:label="Ying"
     style="display:inline"
     inkscape:groupmode="layer">
    <path
       style="display:none;opacity:0.85;fill:#123456;stroke:#123456;stroke-width:64;stroke-linecap:round;stroke-linejoin:round;-inkscape-stroke:none;paint-order:fill markers stroke;stop-color:#000000"
       d="m 1428.5414,862.9998 c 70.7982,131.45402 54.872,241.1227 68.196,403.9263 -29.438,-19.1346 -55.9321,-14.719 -79.4825,13.2471 91.0222,54.7003 58.5139,175.917 81.6903,267.1496 l -99.3531,6.6236 c 66.7588,58.9185 81.773,128.1858 90.5218,198.7063 l -494.50725,2.2079 c -24.3802,-41.4813 23.11455,-208.5632 66.23555,-227.0436 0,0 3.3791,-20.0154 -75.35325,-9.4549 23.62005,-203.2145 70.22355,-481.2383 178.60105,-658.05194 58.4256,-0.32774 187.2046,2.3747 263.4514,2.68964 z"
       id="path3091"
       sodipodi:nodetypes="ccccccccccc"
       inkscape:label="mane" />
    <g
       id="g12988"
       inkscape:label="head"
       transform="rotate(9.7469609,884.27543,1159.3808)">
      <g
         id="g12997"
         inkscape:label="left eye">
        <path
           id="path1915-9"
           style="display:inline;fill:#fefefe;stroke:#65471b;stroke-width:64;stroke-linecap:round;stroke-linejoin:round;paint-order:fill markers stroke;stop-color:#000000"
           inkscape:label="lefteye"
           d="m 792.61751,1048.7279 c 10e-6,120.7167 -155.86024,218.577 -276.57698,218.577 -120.71674,0 -160.57699,-55.8603 -160.57698,-176.577 0,-120.71673 97.86025,-260.57698 218.57698,-260.57698 120.71673,0 218.57698,97.86025 218.57698,218.57698 z"
           sodipodi:nodetypes="sssss" />
        <path
           style="opacity:1;fill:#ffffff;fill-opacity:1;stroke:#65471b;stroke-width:48;stroke-linecap:round;stroke-linejoin:round;stroke-miterlimit:4;stroke-dasharray:none;stroke-dashoffset:0;stroke-opacity:1;paint-order:fill markers stroke;stop-color:#000000"
           d="M 495.18725,960.35009 516.39114,1125.053"
           id="path2372"
           inkscape:label="left pupil"
           sodipodi:nodetypes="cc" />
        <path
           id="path1280-3"
           style="display:inline;fill:#d19020;stroke:#65471b;stroke-width:64;stroke-linecap:round;stroke-linejoin:round;paint-order:fill markers stroke;stop-color:#000000"
           inkscape:label="right lid 2"
           d="m 568.67455,1149.2882 c -114.25194,8.785 -134.38397,38.9128 -169.96677,67.1394 22.44032,18.9354 49.0555,52.5004 173.34374,44.5334 124.28827,-7.967 132.28449,-39.4117 167.5761,-63.6585 -37.12667,-24.067 -56.70113,-56.7993 -170.95307,-48.0143 z"
           sodipodi:nodetypes="zczcz" />
      </g>
      <path
         style="opacity:0.85;fill:#f19020;fill-opacity:1;stroke:#f19020;stroke-width:64;stroke-linecap:round;stroke-miterlimit:4;stroke-dasharray:none;stroke-dashoffset:0;stroke-opacity:1;paint-order:fill markers stroke;stop-color:#000000"
         d="m 834.17099,894.54897 c 0,0 -75.39274,-160.40341 -99.5069,-341.53728 -26.52799,-199.26527 14.08889,-425.40074 80.87256,-441.01886 66.78368,-15.618127 208.00585,160.03621 259.20505,292.5115 51.1993,132.47529 69.0332,440.63234 69.0332,440.63234 z"
         id="path1640"
         inkscape:label="left ear"
         sodipodi:nodetypes="cssscc" />
      <path
         id="path3340"
         style="display:inline;opacity:0.85;fill:#ffcb4c;fill-opacity:1;stroke:#ffcb4c;stroke-width:64;stroke-linecap:round;stroke-linejoin:round;stroke-miterlimit:4;stroke-dasharray:none;stroke-dashoffset:0;stroke-opacity:1;paint-order:fill markers stroke;stop-color:#000000"
         inkscape:label="neck"
         d="m 947.3125,763.76172 c -55.71158,0.95334 -109.63489,10.96959 -153.76953,30.29883 -111.10936,48.66153 -164.81284,150.90608 -231.7207,175.25586 -66.90783,24.34964 -235.03201,38.03149 -290.55274,35.21479 -55.52074,-2.8166 -181.726637,-24.49422 -179.777342,94.5704 1.949292,119.0645 63.128942,297.5886 330.226562,307.6269 202.98319,7.6287 281.03181,9.1374 406.15625,6.9121 -49.05282,115.1613 -40.93664,218.5964 -32.78711,339.4785 l 459.38281,-15.705 c 0,0 -127.6062,-94.2329 -149.2012,-184.5391 -10.5299,-44.0342 1.3746,-105.2663 16.3086,-156.5293 81.0741,13.0465 106.8812,-9.4357 69.5606,-72.5 6.0999,-3.8636 12.0918,-7.7821 17.8847,-11.7773 109.4795,16.6844 106.0882,-15.0043 68.5664,-61.3204 4.5399,-5.8698 8.5919,-11.7365 11.7715,-17.5683 1.5589,-2.8591 3.1249,-6.1867 4.6914,-9.3164 0,0 1.7251,-10.6818 3.8731,-28.168 1.074,-8.7431 2.2554,-19.1878 3.3769,-30.8476 1.1216,-11.6599 2.1866,-24.5359 3.0293,-38.1426 0.8429,-13.6067 1.4634,-27.9436 1.7012,-42.5274 0.2377,-14.5837 0.092,-29.413 -0.6016,-44.0039 -0.3468,-7.2954 -0.8318,-14.533 -1.4726,-21.6484 -0.6408,-7.1154 -1.4385,-14.1098 -2.4141,-20.92384 -0.9756,-6.81407 -2.1273,-13.44632 -3.4785,-19.83789 -1.3512,-6.39156 -2.9024,-12.54089 -4.6699,-18.38867 -1.7676,-5.84781 -4.0229,-11.63498 -6.6992,-17.3457 -2.6764,-5.71073 -5.7736,-11.34744 -9.2227,-16.89063 -3.4492,-5.5432 -7.2498,-10.99463 -11.3359,-16.33984 -4.0862,-5.34521 -8.4578,-10.58441 -13.0449,-15.70117 -4.5873,-5.11677 -9.3894,-10.11087 -14.3418,-14.96875 -4.9524,-4.85786 -10.0547,-9.57797 -15.2364,-14.14649 -10.3634,-9.13705 -21.0486,-17.66597 -31.5136,-25.46289 -10.4651,-7.79692 -20.7099,-14.86107 -30.1895,-21.07422 -9.4796,-6.21314 -18.1947,-11.57325 -25.6016,-15.95898 -14.8138,-8.77148 -24.3945,-13.64649 -24.3945,-13.64649 -51.2912,-16.92178 -108.7923,-25.03146 -164.5039,-24.07812 z"
         transform="rotate(-9.7469609,884.27543,1159.3808)"
         sodipodi:nodetypes="sssssscccsccccscsssssssssssssssssscs" />
      <path
         style="display:inline;opacity:1;fill:none;fill-opacity:1;stroke:#ffcb4c;stroke-width:32;stroke-linecap:round;stroke-linejoin:round;stroke-dasharray:none;stroke-dashoffset:0;stroke-opacity:1;paint-order:stroke fill markers"
         d="m 250.57999,1144.5587 c 0,0 220.57753,-53.1919 283.71884,-117.9083 63.14131,-64.71643 123.31333,-175.57127 232.75107,-231.36009 153.6717,-78.33826 327.4506,-51.43385 327.4506,-51.43385"
         id="path1"
         sodipodi:nodetypes="cssc" />
      <path
         style="display:none;opacity:0.85;fill:#123456;stroke:#123456;stroke-width:64;stroke-linecap:round;stroke-linejoin:round;-inkscape-stroke:none;paint-order:fill markers stroke;stop-color:#000000"
         d="M 880.93148,744.0449 C 763.91552,771.643 622.61323,916.25706 622.61323,916.25706 620.95257,833.21142 611.27974,749.4374 735.2135,677.80944 c -124.69479,-7.45678 -249.2876,-15.1175 -408.45194,46.36482 0,0 303.22641,-263.62224 490.14233,-280.39675 172.2122,-15.45493 264.94181,37.53343 264.94181,37.53343 -0.1923,-45.68323 -31.4577,-88.25915 -90.52179,-128.0552 0,0 295.85169,97.14532 333.38509,194.29065 37.5334,97.14533 28.702,167.79647 28.702,167.79647 l -243.7525,34.92308 c 0,0 -111.71105,-33.81914 -228.72702,-6.22104 z"
         id="path1637"
         sodipodi:nodetypes="zcccsccsccz"
         inkscape:label="top hair" />
      <g
         id="g13003"
         inkscape:label="face">
        <path
           style="opacity:1;fill:none;fill-opacity:1;stroke:#65471b;stroke-width:64;stroke-linecap:round;stroke-linejoin:round;stroke-miterlimit:4;stroke-dasharray:none;stroke-dashoffset:0;stroke-opacity:1;paint-order:fill markers stroke;stop-color:#000000"
           d="m 83.898236,1201.0695 68.443294,6.6235 -37.53342,39.7413"
           id="path2163"
           inkscape:label="left nostril" />
        <path
           style="opacity:1;fill:none;fill-opacity:1;stroke:#65471b;stroke-width:64;stroke-linecap:round;stroke-linejoin:round;stroke-miterlimit:4;stroke-dasharray:none;stroke-dashoffset:0;stroke-opacity:1;paint-order:fill markers stroke;stop-color:#000000"
           d="m 401.82839,1251.85 -59.6119,-44.157 121.43166,-17.6628"
           id="path2198"
           inkscape:label="right nostril" />
        <path
           style="opacity:1;fill:none;fill-opacity:1;stroke:#65471b;stroke-width:64;stroke-linecap:round;stroke-linejoin:round;stroke-miterlimit:4;stroke-dasharray:none;stroke-dashoffset:0;stroke-opacity:1;paint-order:fill markers stroke;stop-color:#000000"
           d="m 132.4709,1346.7875 90.52178,-72.859 c 0,0 146.77847,102.9437 222.99268,101.561 126.88742,-2.302 123.7667,-77.291 123.7667,-77.291"
           id="path2200"
           sodipodi:nodetypes="ccsc"
           inkscape:label="mouf" />
        <path
           style="opacity:1;fill:#ffffff;fill-opacity:1;stroke:#65471b;stroke-width:64;stroke-linecap:round;stroke-linejoin:round;stroke-miterlimit:4;stroke-dasharray:none;stroke-dashoffset:0;stroke-opacity:1;paint-order:fill markers stroke;stop-color:#000000"
           d="M 285.93741,1469.2038 C 215.82398,1467.7542 132.4709,1346.7875 132.4709,1346.7875 l 90.52178,-72.859 103.76887,66.2354 c 0,0 29.28928,130.4895 -40.82414,129.0399 z"
           id="path2202"
           sodipodi:nodetypes="zcccz"
           inkscape:label="toof" />
      </g>
      <g
         id="g12993"
         inkscape:label="right eye">
        <path
           style="opacity:1;fill:#65471b;fill-opacity:1;stroke:#65471b;stroke-width:64;stroke-linecap:round;stroke-linejoin:round;stroke-miterlimit:4;stroke-dasharray:none;stroke-dashoffset:0;stroke-opacity:1;paint-order:fill markers stroke;stop-color:#000000"
           d="m 661.97569,1226.0485 53.36716,-115.5008 86.53085,168.711 z"
           id="path7852"
           inkscape:label="eyenub"
           sodipodi:nodetypes="cccc" />
        <path
           id="path1915"
           style="opacity:1;fill:#fefefe;stroke:#65471b;stroke-width:64;stroke-linecap:round;stroke-linejoin:round;paint-order:fill markers stroke;stop-color:#000000"
           inkscape:label="righteye"
           d="m 1150.289,1075.2222 c 0,120.7167 -151.8603,218.5769 -272.57702,218.5769 -120.71671,0 -164.57695,-71.8602 -164.57699,-192.5769 -2e-5,-120.71675 97.86024,-244.57702 218.57699,-244.57701 120.71672,-2e-5 218.57702,97.86025 218.57702,218.57701 z"
           sodipodi:nodetypes="sssss" />
        <path
           style="opacity:1;fill:#ffffff;fill-opacity:1;stroke:#65471b;stroke-width:48;stroke-linecap:round;stroke-linejoin:round;stroke-miterlimit:4;stroke-dasharray:none;stroke-dashoffset:0;stroke-opacity:1;paint-order:fill markers stroke;stop-color:#000000"
           d="m 823.85243,984.08906 34.67556,186.68174"
           id="path2350"
           inkscape:label="right pupil" />
        <g
           id="g1475"
           inkscape:label="right lid"
           style="display:inline"
           transform="rotate(-2.5111826,988.08089,1107.8063)">
          <path
             id="path1280"
             style="opacity:1;fill:#d19020;stroke:#65471b;stroke-width:64;stroke-linecap:round;stroke-linejoin:round;paint-order:fill markers stroke;stop-color:#000000"
             inkscape:label="right lid 2"
             d="m 928.29023,1162.8151 c -112.23557,23.1054 -128.4126,55.5289 -160.15681,88.0125 24.64657,15.9581 55.2774,45.9036 177.57238,22.3456 122.295,-23.558 126.267,-55.7594 158.2236,-84.2582 -39.8623,-19.1991 -63.4036,-49.2053 -175.63917,-26.0999 z"
             sodipodi:nodetypes="zczcz" />
        </g>
      </g>
      <path
         id="path13483"
         style="display:inline;opacity:0.85;fill:#ffcb4c;stroke:#ffcb4c;stroke-width:64;stroke-linecap:round;stroke-linejoin:round;stroke-miterlimit:4;stroke-dasharray:6.4, 6.4;stroke-dashoffset:0;stroke-opacity:1;paint-order:fill markers stroke;stop-color:#000000"
         inkscape:label="right ear"
         d="m 1258.9562,38.183268 c -78.3991,13.079178 -189.6446,320.445282 -202.4722,409.824162 -11.421,79.57778 -53.2322,282.09605 -65.13573,339.4967 0,0 10.65213,1.44834 27.52773,4.85476 8.4377,1.70323 18.4314,3.89609 29.4278,6.64262 10.9965,2.74653 22.9947,6.04604 35.4431,9.96369 12.4483,3.91765 25.3469,8.45338 38.1404,13.66994 6.3967,2.60829 12.7673,5.38649 19.0427,8.34348 6.2755,2.95697 12.4548,6.09146 18.4707,9.4131 6.0158,3.32166 11.8672,6.82967 17.4851,10.53197 5.6179,3.7023 11.0021,7.59945 16.0837,11.69836 5.0816,4.09893 9.8615,8.40056 14.2685,12.91208 4.4069,4.51151 8.4415,9.23358 12.0355,14.17366 3.5939,4.94009 7.0822,10.23759 10.462,15.82819 3.3798,5.59059 6.6508,11.47433 9.815,17.58754 3.1642,6.11323 6.22,12.45496 9.1673,18.96288 2.9472,6.50792 5.7863,13.18204 8.5152,19.95677 5.4578,13.54945 10.4772,27.50498 15.0532,41.35433 4.576,13.8494 8.7095,27.5912 12.3925,40.7171 3.6831,13.1258 6.9168,25.6354 9.6958,37.0146 2.779,11.3792 5.1015,21.6293 6.9653,30.2386 3.7276,17.2188 5.6145,27.8741 5.6145,27.8741 76.2014,-131.8696 213.4672,-405.66096 185.4633,-627.42146 C 1454.0768,208.2037 1309.7963,29.70171 1258.9562,38.183268 Z" />
      <path
         style="opacity:1;fill:none;fill-opacity:1;stroke:#ffcb4c;stroke-width:32;stroke-linecap:round;stroke-linejoin:round;stroke-dasharray:none;stroke-dashoffset:0;stroke-opacity:1;paint-order:stroke fill markers"
         d="m 1258.9562,38.183269 c 0,0 179.6405,375.313291 142.9484,530.154551 -36.6921,154.84128 -162.3541,354.7857 -162.3541,354.7857"
         id="path2" />
      <g
         id="g6"
         transform="rotate(3.7210761,1102.5414,1765.644)">
        <path
           style="display:inline;opacity:1;fill:none;fill-opacity:1;stroke:#999999;stroke-width:32;stroke-linecap:round;stroke-linejoin:round;stroke-opacity:1"
           d="m 1071.3464,1438.9609 c -26.9789,15.7671 15.8302,57.8373 15.8302,57.8373"
           id="path5"
           sodipodi:nodetypes="cc" />
        <ellipse
           style="display:inline;opacity:1;fill:#cccccc;fill-opacity:1;stroke:#cccccc;stroke-width:32.0028;stroke-linecap:round;stroke-linejoin:round"
           id="ellipse3"
           cx="-138.09152"
           cy="1920.9828"
           transform="matrix(0.76886378,-0.63941261,0.65383947,0.75663329,0,0)"
           rx="41.675362"
           ry="82.792542" />
        <ellipse
           style="opacity:1;fill:#b3b3b3;fill-opacity:1;stroke:#999999;stroke-width:32;stroke-linecap:round;stroke-linejoin:round"
           id="path3"
           cx="-118.80801"
           cy="1917.8744"
           transform="rotate(-40.287042)"
           rx="29.91242"
           ry="60.04837" />
        <path
           style="opacity:1;fill:#cccccc;fill-opacity:1;stroke:#999999;stroke-width:32;stroke-linecap:round;stroke-linejoin:round;stroke-opacity:1"
           d="m 1188.3305,1585.6116 28.9666,33.3064"
           id="path4" />
        <path
           style="opacity:1;fill:none;fill-opacity:1;stroke:#999999;stroke-width:32;stroke-linecap:round;stroke-linejoin:round;stroke-opacity:1"
           d="m 1110.674,1494.0001 c 0,0 -12.3487,-70.8062 -39.3276,-55.0392"
           id="path6"
           sodipodi:nodetypes="cc" />
      </g>
    </g>
  </g>
</svg>
