<?xml version="1.0" encoding="UTF-8" standalone="no"?>
<!-- Created with Inkscape (http://www.inkscape.org/) -->

<svg
   version="1.1"
   id="svg824"
   width="1706.6667"
   height="1706.6667"
   viewBox="0 0 1706.6667 1706.6667"
   sodipodi:docname="ying_embarrassed.svg"
   inkscape:version="1.1 (c68e22c387, 2021-05-23)"
   inkscape:export-filename="D:\Pictures\yingmotes\ying_blush.png"
   inkscape:export-xdpi="72"
   inkscape:export-ydpi="72"
   xmlns:inkscape="http://www.inkscape.org/namespaces/inkscape"
   xmlns:sodipodi="http://sodipodi.sourceforge.net/DTD/sodipodi-0.dtd"
   xmlns:xlink="http://www.w3.org/1999/xlink"
   xmlns="http://www.w3.org/2000/svg"
   xmlns:svg="http://www.w3.org/2000/svg">
  <defs
     id="defs828">
    <linearGradient
       inkscape:collect="always"
       id="linearGradient1104">
      <stop
         style="stop-color:#ff0101;stop-opacity:1"
         offset="0"
         id="stop1100" />
      <stop
         style="stop-color:#ff0101;stop-opacity:0"
         offset="1"
         id="stop1102" />
    </linearGradient>
    <radialGradient
       inkscape:collect="always"
       xlink:href="#linearGradient1104"
       id="radialGradient1098"
       cx="688.30719"
       cy="1416.8561"
       fx="688.30719"
       fy="1416.8561"
       r="710.71331"
       gradientTransform="matrix(0.85019624,-0.25665553,0.16907817,0.5601182,-87.876532,663.22233)"
       gradientUnits="userSpaceOnUse" />
  </defs>
  <sodipodi:namedview
     id="namedview826"
     pagecolor="#ffffff"
     bordercolor="#666666"
     borderopacity="1.0"
     inkscape:pageshadow="2"
     inkscape:pageopacity="0.0"
     inkscape:pagecheckerboard="0"
     showgrid="false"
     inkscape:zoom="0.32026963"
     inkscape:cx="588.56658"
     inkscape:cy="1209.918"
     inkscape:window-width="1920"
     inkscape:window-height="1001"
     inkscape:window-x="-9"
     inkscape:window-y="-9"
     inkscape:window-maximized="1"
     inkscape:current-layer="g12988" />
  <g
     id="layer1"
     inkscape:label="Ying"
     style="display:inline"
     inkscape:groupmode="layer">
    <g
       id="g13569"
       inkscape:label="hand"
       transform="matrix(-0.29397344,-1.1165766,-1.488995,0.24180302,2794.5907,1094.3384)"
       style="display:inline;fill:none;fill-opacity:1;stroke:#888800;stroke-width:0.759483;stroke-opacity:1">
      <path
         style="fill:none;fill-opacity:1;stroke:#a18020;stroke-width:72.9103;stroke-linecap:round;stroke-linejoin:round;stroke-miterlimit:4;stroke-dasharray:none;stroke-opacity:1;paint-order:fill markers stroke;stop-color:#000000"
         d="m 399.13305,1425.5989 c -41.29453,46.9444 -195.31402,157.4434 -242.74508,184.3434"
         id="path13557"
         sodipodi:nodetypes="cc" />
      <path
         style="display:inline;fill:none;fill-opacity:1;stroke:#a18020;stroke-width:72.9103;stroke-linecap:round;stroke-linejoin:round;stroke-miterlimit:4;stroke-dasharray:none;stroke-opacity:1;paint-order:fill markers stroke;stop-color:#000000"
         d="m 316.47089,1603.7529 c -48.16603,12.2023 -163.92729,1.9281 -198.90238,16.7774"
         id="path13559"
         sodipodi:nodetypes="cc" />
      <path
         style="fill:none;fill-opacity:1;stroke:#a18020;stroke-width:72.9103;stroke-linecap:round;stroke-linejoin:round;stroke-miterlimit:4;stroke-dasharray:none;stroke-opacity:1;paint-order:fill markers stroke;stop-color:#000000"
         d="M 90.686214,1573.9824 C 136.14088,1544.0757 305.89844,1447.4745 338.5447,1388.9395"
         id="path13561"
         sodipodi:nodetypes="cc" />
      <path
         style="fill:none;fill-opacity:1;stroke:#a18020;stroke-width:72.9103;stroke-linecap:round;stroke-linejoin:round;stroke-miterlimit:4;stroke-dasharray:none;stroke-opacity:1;paint-order:fill markers stroke;stop-color:#000000"
         d="M 26.123943,1545.4268 C 66.802254,1514.1918 215.03988,1429.8046 250.82182,1373.6429"
         id="path13563"
         sodipodi:nodetypes="cc" />
      <path
         style="fill:#a18020;fill-opacity:1;stroke:#a18020;stroke-width:72.9103;stroke-linecap:round;stroke-linejoin:round;stroke-miterlimit:4;stroke-dasharray:none;stroke-opacity:1;paint-order:fill markers stroke;stop-color:#000000"
         d="m 156.38797,1609.9423 c 0,0 -45.23606,34.0165 -101.467325,-6.4192 -56.2312586,-40.4358 -28.796702,-58.0963 -28.796702,-58.0963 l 130.264027,64.5155"
         id="path13565"
         sodipodi:nodetypes="cscc" />
      <path
         style="display:inline;fill:#a18020;fill-opacity:1;stroke:#a18020;stroke-width:64;stroke-linecap:round;stroke-linejoin:round;stroke-miterlimit:4;stroke-dasharray:none;stroke-opacity:1;paint-order:stroke fill markers;stop-color:#000000"
         d="m 90.686214,1573.9824 -447.035054,8.796 2.12764,48.502 493.87501,-8.9902 -48.967596,-48.3078"
         id="path13567"
         inkscape:transform-center-x="-114.62141"
         inkscape:transform-center-y="206.13122"
         sodipodi:nodetypes="ccccc" />
    </g>
    <path
       style="display:none;fill:#123456;stroke:#123456;stroke-width:64;stroke-linecap:round;stroke-linejoin:round;-inkscape-stroke:none;paint-order:fill markers stroke;stop-color:#000000"
       d="m 1298.031,865.09775 c 70.7982,131.45402 185.3824,239.02475 198.7064,401.82835 -29.438,-19.1346 -55.9321,-14.719 -79.4825,13.2471 91.0222,54.7003 58.5139,175.917 81.6903,267.1496 l -99.3531,6.6236 c 66.7588,58.9185 81.773,128.1858 90.5218,198.7063 l -494.50725,2.2079 c -24.3802,-41.4813 23.11455,-208.5632 66.23555,-227.0436 0,0 3.3791,-20.0154 -75.35325,-9.4549 C 1015.23,1271.0896 1172.1837,1096.1858 1298.031,865.09775 Z"
       id="path3091"
       sodipodi:nodetypes="cccccccccc"
       inkscape:label="mane" />
    <path
       style="opacity:1;fill:#ffcb4c;fill-opacity:1;stroke:#ffcb4c;stroke-width:64;stroke-linecap:round;stroke-linejoin:round;stroke-miterlimit:4;stroke-dasharray:none;stroke-dashoffset:0;stroke-opacity:1;paint-order:fill markers stroke;stop-color:#000000"
       d="m 848.0933,1338.888 -105.3757,267.6092 103.41253,-53.6227 -94.75583,206.489 503.097,-21.9501 c 0,0 -127.6066,-94.2326 -149.2016,-184.5389 -21.5949,-90.3062 51.0427,-253.25 51.0427,-253.25 z"
       id="path3340"
       inkscape:label="neck"
       sodipodi:nodetypes="cccccscc" />
    <g
       id="g12988"
       inkscape:label="head"
       inkscape:groupmode="layer"
       style="display:inline">
      <path
         style="display:inline;fill:none;fill-opacity:1;stroke:#f19020;stroke-width:32;stroke-linecap:round;stroke-linejoin:round;stroke-miterlimit:4;stroke-dasharray:none;stroke-dashoffset:0;stroke-opacity:1;paint-order:fill markers stroke;stop-color:#000000"
         d="m 255.05932,466.90088 c 134.67334,107.6549 269.1929,250.97295 356.66275,385.85349"
         id="path6280-0-6"
         sodipodi:nodetypes="cc"
         inkscape:label="eyelash left small"
         inkscape:transform-center-x="153.41509"
         inkscape:transform-center-y="-157.5739" />
      <path
         style="display:inline;fill:none;fill-opacity:1;stroke:#f19020;stroke-width:32;stroke-linecap:round;stroke-linejoin:round;stroke-miterlimit:4;stroke-dasharray:none;stroke-dashoffset:0;stroke-opacity:1;paint-order:fill markers stroke;stop-color:#000000"
         d="M 280.98441,193.95321 C 488.46046,389.26478 643.56322,609.38126 697.09917,877.60156"
         id="path6280-3"
         sodipodi:nodetypes="cc"
         inkscape:label="eyelash left big"
         inkscape:transform-center-x="194.02173"
         inkscape:transform-center-y="-282.94438" />
      <g
         id="g12997"
         inkscape:label="left eye">
        <path
           id="path1915-9"
           style="display:inline;fill:#d19020;fill-opacity:1;stroke:#65471b;stroke-width:64;stroke-linecap:round;stroke-linejoin:round;paint-order:fill markers stroke;stop-color:#000000"
           inkscape:label="lefteye"
           d="m 792.61751,1048.7279 c 10e-6,120.7167 -155.86024,218.577 -276.57698,218.577 -120.71674,0 -160.57699,-55.8603 -160.57698,-176.577 0,-120.71673 97.86025,-260.57698 218.57698,-260.57698 120.71673,0 218.57698,97.86025 218.57698,218.57698 z"
           sodipodi:nodetypes="sssss" />
      </g>
      <path
         style="opacity:1;fill:#f19020;fill-opacity:1;stroke:#f19020;stroke-width:64;stroke-linecap:round;stroke-miterlimit:4;stroke-dasharray:none;stroke-dashoffset:0;stroke-opacity:1;paint-order:fill markers stroke;stop-color:#000000"
         d="m 847.42392,733.65235 c 0,0 58.37822,-167.34787 167.89588,-313.62447 120.4804,-160.91881 307.7314,-294.05052 366.3705,-258.4776 58.6391,35.57291 36.6184,259.87906 -19.5016,390.34597 -56.12,130.46691 -259.0064,363.09519 -259.0064,363.09519 z"
         id="path1640"
         inkscape:label="left ear"
         sodipodi:nodetypes="cssscc"
         inkscape:transform-center-x="-81.592221"
         inkscape:transform-center-y="-169.6379" />
      <path
         id="path1148"
         style="display:inline;opacity:1;fill:#ffcb4c;stroke:#ffcb4c;stroke-width:64;stroke-linecap:round;stroke-linejoin:round;stroke-miterlimit:4;stroke-dasharray:6.4, 6.4;stroke-dashoffset:0;stroke-opacity:1;paint-order:fill markers stroke;stop-color:#000000"
         inkscape:label="head"
         d="m 1299.0547,1153.5586 c 0,0 -0.1078,-10.8206 -0.9512,-28.418 -0.4217,-8.7987 -1.0259,-19.2912 -1.8945,-30.9726 -0.8686,-11.6814 -1.9997,-24.5525 -3.4727,-38.1055 -1.4729,-13.553 -3.2888,-27.7877 -5.5234,-42.2012 -2.2347,-14.41345 -4.8892,-29.0047 -8.043,-43.26755 -1.5769,-7.13143 -3.279,-14.18175 -5.1152,-21.08594 -1.8362,-6.90419 -3.8068,-13.66232 -5.9219,-20.21289 -2.1151,-6.55056 -4.3733,-12.89234 -6.7871,-18.96289 -2.4138,-6.07055 -4.9828,-11.86984 -7.7148,-17.33398 -2.7321,-5.46415 -5.9346,-10.78574 -9.5391,-15.96094 -3.6045,-5.1752 -7.6114,-10.20474 -11.9492,-15.08399 -4.3379,-4.87924 -9.0074,-9.60926 -13.9395,-14.18554 -4.9321,-4.57628 -10.1264,-8.99932 -15.5136,-13.26563 -5.3873,-4.2663 -10.9666,-8.37489 -16.67,-12.32422 -5.7033,-3.94932 -11.5298,-7.73794 -17.4101,-11.36328 -11.7607,-7.25067 -23.7371,-13.84709 -35.3711,-19.75976 -11.634,-5.91267 -22.9257,-11.14156 -33.3203,-15.66016 -10.3946,-4.5186 -19.8912,-8.32606 -27.9336,-11.39453 -16.085,-6.13693 -26.3535,-9.31836 -26.3535,-9.31836 -106.83135,-15.98813 -232.17461,6.96944 -312.62504,60.01367 -101.26734,66.76968 -136.88727,176.62945 -198.70703,211.95509 -61.81975,35.3255 -225.20029,77.273 -280.39649,83.8965 -55.19621,6.6235 -183.250354,6.6246 -161.171871,123.6406 22.078481,117.016 112.599211,282.6048 377.541011,247.2793 264.94179,-35.3256 313.51517,-44.1575 536.50782,-88.3145 22.8973,-4.5341 53.8481,-18.3195 86.8281,-36.9472 l 291.9303,26.0406 -170.985,-112.7242 c 5.3578,-4.8405 10.5999,-9.7184 15.6328,-14.6367 l 220.1354,-11.7421 -162.94,-60.3009 c 3.4806,-6.5537 6.4805,-13.0207 8.6269,-19.3066 1.0523,-3.0817 2.0328,-6.6268 3.0469,-9.9766 z"
         sodipodi:nodetypes="csssssssssssssssssscssssssccccccsc" />
      <path
         style="display:none;fill:#123456;stroke:#123456;stroke-width:64;stroke-linecap:round;stroke-linejoin:round;-inkscape-stroke:none;paint-order:fill markers stroke;stop-color:#000000"
         d="M 880.93148,744.0449 C 763.91552,771.643 622.61323,916.25706 622.61323,916.25706 620.95257,833.21142 611.27974,749.4374 735.2135,677.80944 c -124.69479,-7.45678 -249.2876,-15.1175 -408.45194,46.36482 0,0 303.22641,-263.62224 490.14233,-280.39675 172.2122,-15.45493 264.94181,37.53343 264.94181,37.53343 -0.1923,-45.68323 -31.4577,-88.25915 -90.52179,-128.0552 0,0 295.85169,97.14532 333.38509,194.29065 37.5334,97.14533 28.702,167.79647 28.702,167.79647 l -243.7525,34.92308 c 0,0 -111.71105,-33.81914 -228.72702,-6.22104 z"
         id="path1637"
         sodipodi:nodetypes="zcccsccsccz"
         inkscape:label="top hair" />
      <path
         id="path13483"
         style="display:inline;opacity:1;fill:#ffcb4c;stroke:#ffcb4c;stroke-width:64;stroke-linecap:round;stroke-linejoin:round;stroke-miterlimit:4;stroke-dasharray:6.4, 6.4;stroke-dashoffset:0;stroke-opacity:1;paint-order:fill markers stroke;stop-color:#000000"
         inkscape:label="right ear"
         d="m 1540.9079,102.32872 c -78.876,-9.800343 -273.0853,253.12987 -310.847,335.1493 -33.6208,73.02533 -131.4005,255.23665 -159.1652,306.86661 -110.96333,354.45317 95.5163,367.80107 202.3077,427.08087 110.6152,-104.6925 320.2,-328.0257 356.5407,-548.57341 49.7547,-301.95631 -37.6868,-514.16803 -88.8362,-520.52337 z"
         sodipodi:nodetypes="ssccss"
         inkscape:transform-center-x="-135.3971"
         inkscape:transform-center-y="-320.89021" />
      <path
         id="path1053"
         style="color:#000000;opacity:0.838641;fill:url(#radialGradient1098);fill-opacity:1;stroke-width:64;stroke-linecap:round;stroke-linejoin:round;stroke-dasharray:6.4, 6.4;-inkscape-stroke:none;paint-order:fill markers stroke"
         inkscape:label="blush"
         d="m 978.59375,717.68164 0.004,0.002 c -2.2769,-0.01 -4.54909,-0.004 -6.81641,0.0156 a 32,32 0 0 0 -3.38672,0.70312 32,32 0 0 0 -3.41015,-0.60351 c -2.26145,0.0476 -4.52914,0.10911 -6.80079,0.18555 a 32,32 0 0 0 -3.36328,0.7871 32,32 0 0 0 -3.41211,-0.51757 c -2.26619,0.10325 -4.53242,0.22093 -6.80078,0.35351 a 32,32 0 0 0 -3.33398,0.86914 32,32 0 0 0 -3.42188,-0.43554 c -2.26607,0.15871 -4.52917,0.3322 -6.78906,0.51953 a 32,32 0 0 0 -3.31641,0.95117 32,32 0 0 0 -3.42968,-0.35156 c -2.26104,0.21402 -4.51612,0.44112 -6.76172,0.68164 a 32,32 0 0 0 -3.29883,1.03125 32,32 0 0 0 -3.44336,-0.26758 c -2.24671,0.26813 -4.49757,0.55011 -6.75,0.84765 a 32,32 0 0 0 -3.26562,1.10938 32,32 0 0 0 -3.44141,-0.18359 c -2.24699,0.32339 -4.49227,0.66306 -6.73633,1.01562 a 32,32 0 0 0 -3.23633,1.18945 32,32 0 0 0 -3.44922,-0.0996 c -2.24094,0.37891 -4.47794,0.77232 -6.71093,1.17968 a 32,32 0 0 0 -3.21094,1.27149 32,32 0 0 0 -3.45703,-0.0137 c -2.23123,0.43493 -4.45634,0.88344 -6.67578,1.3457 a 32,32 0 0 0 -3.18946,1.35351 32,32 0 0 0 -3.46484,0.0762 c -2.21454,0.49064 -4.42936,0.99651 -6.64453,1.51757 a 32,32 0 0 0 -3.15625,1.4375 32,32 0 0 0 -3.46289,0.16407 c -2.20882,0.54945 -4.41484,1.11323 -6.61914,1.69336 a 32,32 0 0 0 -3.12305,1.52343 32,32 0 0 0 -3.45898,0.25586 c -2.19989,0.60978 -4.39502,1.23453 -6.58594,1.875 a 32,32 0 0 0 -3.08399,1.60742 32,32 0 0 0 -3.46289,0.35352 c -2.18772,0.67189 -4.3686,1.36033 -6.54297,2.0625 a 32,32 0 0 0 -3.04882,1.69922 32,32 0 0 0 -3.4668,0.45508 c -2.16404,0.73351 -4.33006,1.48463 -6.49805,2.25586 a 32,32 0 0 0 -3.0039,1.79296 32,32 0 0 0 -3.45118,0.5586 c -2.15397,0.80204 -4.30878,1.62288 -6.46289,2.46484 a 32,32 0 0 0 -2.94922,1.88672 32,32 0 0 0 -3.4414,0.66602 c -2.14854,0.87726 -4.28268,1.77024 -6.40234,2.67773 a 32,32 0 0 0 -2.91016,1.99414 32,32 0 0 0 -3.43945,0.78711 c -2.1086,0.94469 -4.22337,1.91408 -6.33985,2.9082 a 32,32 0 0 0 -2.8418,2.09571 32,32 0 0 0 -3.42187,0.91015 c -2.09466,1.02805 -4.18228,2.07642 -6.26172,3.14649 a 32,32 0 0 0 -2.78515,2.21484 32,32 0 0 0 -3.39844,1.04102 c -2.07765,1.11794 -4.13643,2.25473 -6.17578,3.40625 a 32,32 0 0 0 -2.72071,2.33984 32,32 0 0 0 -3.375,1.18555 c -2.0404,1.20681 -4.06593,2.43392 -6.07617,3.68359 a 32,32 0 0 0 -2.63476,2.4668 32,32 0 0 0 -3.35938,1.34961 c -1.97632,1.28982 -3.94484,2.60434 -5.9043,3.94531 a 32,32 0 0 0 -2.5,2.55664 32,32 0 0 0 -3.26367,1.4707 c -1.9142,1.36615 -3.81926,2.75578 -5.71484,4.16993 a 32,32 0 0 0 -2.38672,2.64843 32,32 0 0 0 -3.18359,1.58985 c -1.87532,1.45452 -3.71533,2.915 -5.52344,4.37695 a 32,32 0 0 0 -2.28711,2.74414 32,32 0 0 0 -3.11914,1.71484 c -1.79265,1.50662 -3.57226,3.03185 -5.33789,4.57618 a 32,32 0 0 0 -2.15821,2.80468 32,32 0 0 0 -3.03515,1.81836 c -1.73623,1.5723 -3.44563,3.14964 -5.13086,4.73243 a 32,32 0 0 0 -2.05664,2.8789 32,32 0 0 0 -2.96485,1.91992 c -1.65887,1.61217 -3.30529,3.24148 -4.93945,4.88477 a 32,32 0 0 0 -1.93945,2.91992 32,32 0 0 0 -2.87695,1.99805 c -1.60268,1.66129 -3.18991,3.33342 -4.75977,5.01367 a 32,32 0 0 0 -1.83594,2.96094 32,32 0 0 0 -2.79883,2.07031 c -1.54255,1.69738 -3.06967,3.40206 -4.58007,5.11328 a 32,32 0 0 0 -1.74024,2.99219 32,32 0 0 0 -2.72461,2.13086 c -1.48574,1.72591 -2.95601,3.45776 -4.41015,5.1914 a 32,32 0 0 0 -1.65235,3.01563 32,32 0 0 0 -2.66211,2.18555 c -1.41647,1.72779 -2.83978,3.48046 -4.26562,5.26172 a 32,32 0 0 0 -1.56055,3.00781 32,32 0 0 0 -2.59375,2.2207 c -1.36946,1.74144 -2.74421,3.50336 -4.12109,5.28906 a 32,32 0 0 0 -1.4961,3.01367 32,32 0 0 0 -2.51758,2.22657 c -1.35293,1.77758 -2.68408,3.54371 -3.99804,5.29687 a 32,32 0 0 0 -1.44922,3.02344 32,32 0 0 0 -2.47461,2.24414 c -1.31232,1.77023 -2.61056,3.53396 -3.89844,5.29102 a 32,32 0 0 0 -1.40234,3.00781 32,32 0 0 0 -2.45117,2.26562 l -2.66407,3.66602 a 32.0032,32.0032 0 0 0 -0.0254,0.0371 l -1.09765,1.51367 a 32,32 0 0 0 -1.36719,2.97656 32,32 0 0 0 -2.39844,2.22657 l -3.1875,4.40429 -0.55078,0.76172 a 32,32 0 0 0 -1.35547,2.94922 32,32 0 0 0 -2.38672,2.20898 c -1.21956,1.6803 -2.44862,3.36291 -3.68554,5.05079 a 32,32 0 0 0 -1.34375,2.88476 32,32 0 0 0 -2.35352,2.13477 c -1.22987,1.65994 -2.45552,3.30203 -3.67969,4.92773 a 32,32 0 0 0 -1.35351,2.81055 32,32 0 0 0 -2.33985,2.05078 c -1.23828,1.61317 -2.46058,3.19112 -3.67382,4.73047 a 32,32 0 0 0 -1.38672,2.72265 32,32 0 0 0 -2.33789,1.94336 c -1.22913,1.51721 -2.46658,3.01864 -3.71094,4.5 a 32,32 0 0 0 -1.41406,2.57422 32,32 0 0 0 -2.32422,1.78711 c -1.24047,1.41683 -2.48799,2.80608 -3.74024,4.16602 a 32,32 0 0 0 -1.46679,2.40234 32,32 0 0 0 -2.30469,1.58399 c -1.26211,1.29461 -2.52148,2.54719 -3.78125,3.75585 a 32,32 0 0 0 -1.51953,2.17579 32,32 0 0 0 -2.27735,1.33398 c -1.27694,1.1342 -2.53962,2.2106 -3.78906,3.22461 a 32,32 0 0 0 -1.58398,1.91016 32,32 0 0 0 -2.24219,1.04492 c -1.24254,0.91138 -2.49302,1.77711 -3.75195,2.59375 a 32,32 0 0 0 -1.64258,1.59765 32,32 0 0 0 -2.20117,0.72852 c -1.50856,0.85544 -3.07684,1.7072 -4.70313,2.5605 a 32,32 0 0 0 -2.21484,1.7911 32,32 0 0 0 -2.75781,0.7363 c -1.70412,0.8391 -3.42514,1.6617 -5.16016,2.4707 a 32,32 0 0 0 -2.41211,1.7676 32,32 0 0 0 -2.91602,0.6621 c -1.78663,0.7964 -3.59289,1.584 -5.41601,2.3633 a 32,32 0 0 0 -2.52149,1.7265 32,32 0 0 0 -3.01562,0.5957 c -1.83836,0.7591 -3.68767,1.5084 -5.54688,2.2481 a 32,32 0 0 0 -2.61914,1.6972 32,32 0 0 0 -3.08398,0.5411 c -1.85713,0.7205 -3.74772,1.4401 -5.67188,2.164 a 32,32 0 0 0 -2.66015,1.6524 32,32 0 0 0 -3.10547,0.4882 c -1.90481,0.6997 -3.82128,1.3928 -5.74609,2.0801 a 32,32 0 0 0 -2.71485,1.625 32,32 0 0 0 -3.1289,0.4414 c -1.94431,0.6806 -3.88183,1.352 -5.81446,2.0117 a 32,32 0 0 0 -2.75586,1.5977 32,32 0 0 0 -3.15234,0.4043 c -1.9549,0.6563 -3.91196,1.305 -5.86914,1.9473 a 32,32 0 0 0 -2.7832,1.5683 32,32 0 0 0 -3.17579,0.3731 c -1.93769,0.6271 -3.91114,1.2549 -5.91601,1.8906 a 32,32 0 0 0 -2.78516,1.5332 32,32 0 0 0 -3.18164,0.3398 c -1.96171,0.6123 -3.94484,1.2239 -5.94531,1.836 a 32,32 0 0 0 -2.81055,1.5117 32,32 0 0 0 -3.17969,0.3066 c -1.99729,0.6017 -3.98749,1.1953 -5.9707,1.7813 a 32,32 0 0 0 -2.8418,1.4922 32,32 0 0 0 -3.17578,0.2773 c -2.0271,0.5901 -4.02711,1.1697 -6.00195,1.7344 a 32,32 0 0 0 -2.86328,1.4727 32,32 0 0 0 -3.21094,0.2558 c -1.97765,0.5599 -3.98543,1.1192 -6.02148,1.6856 a 32,32 0 0 0 -2.85352,1.4414 32,32 0 0 0 -3.20117,0.2285 c -1.99776,0.5476 -4.00791,1.0922 -6.03125,1.6367 a 32,32 0 0 0 -2.87109,1.4199 32,32 0 0 0 -3.19922,0.2012 c -2.01774,0.5351 -4.03266,1.0643 -6.04492,1.5879 a 32,32 0 0 0 -2.89063,1.4004 32,32 0 0 0 -3.19531,0.1738 c -2.03017,0.5204 -4.04807,1.0342 -6.05664,1.5391 a 32,32 0 0 0 -2.89844,1.373 32,32 0 0 0 -3.19922,0.1484 c -2.03071,0.5028 -4.05131,1.0004 -6.06445,1.4883 a 32,32 0 0 0 -2.90625,1.3477 32,32 0 0 0 -3.20313,0.1211 c -2.01591,0.4808 -4.0397,0.9563 -6.07031,1.4297 a 32,32 0 0 0 -2.9043,1.3164 32,32 0 0 0 -3.19336,0.09 c -2.01832,0.4611 -4.03628,0.9156 -6.05273,1.3633 a 32,32 0 0 0 -2.91406,1.2832 32,32 0 0 0 -3.17969,0.055 c -2.02105,0.4381 -4.03651,0.8695 -6.04688,1.291 a 32,32 0 0 0 -2.9082,1.2402 32,32 0 0 0 -3.1582,0.012 c -2.01956,0.4099 -4.02178,0.8104 -6.00586,1.1953 a 32,32 0 0 0 -2.9043,1.1875 32,32 0 0 0 -3.12695,-0.041 c -1.99038,0.3692 -3.96615,0.7249 -5.92578,1.0644 a 32,32 0 0 0 -2.85352,1.0996 32,32 0 0 0 -3.04101,-0.1152 c -1.95613,0.3123 -3.86046,0.6015 -5.7168,0.8613 a 32,32 0 0 0 -2.73047,0.9512 32,32 0 0 0 -2.86133,-0.2324 c -1.93949,0.2244 -3.92002,0.4376 -5.9414,0.6445 a 32,32 0 0 0 -3.04102,0.9355 32,32 0 0 0 -3.19336,-0.3164 c -2.0515,0.2012 -4.17385,0.4026 -6.36523,0.6172 a 32,32 0 0 0 -3.15821,0.9571 32,32 0 0 0 -3.30078,-0.3184 c -2.17841,0.2196 -4.37925,0.4473 -6.59961,0.6875 a 32,32 0 0 0 -3.23828,1.0156 32,32 0 0 0 -3.39258,-0.2715 c -2.24464,0.2623 -4.49453,0.5398 -6.75,0.8321 a 32,32 0 0 0 -3.28906,1.1093 32,32 0 0 0 -3.46484,-0.1894 c -2.29539,0.3278 -4.59169,0.6757 -6.88672,1.0449 a 32,32 0 0 0 -3.32422,1.2344 32,32 0 0 0 -3.55078,-0.062 c -2.31582,0.4152 -4.6384,0.8545 -6.9668,1.3242 a 32,32 0 0 0 -3.35351,1.4004 32,32 0 0 0 -3.64649,0.096 c -2.3332,0.5285 -4.68752,1.0921 -7.06054,1.6973 a 32,32 0 0 0 -3.35547,1.6054 32,32 0 0 0 -3.71875,0.3067 c -2.38288,0.6818 -4.7739,1.4083 -7.16993,2.1836 a 32,32 0 0 0 -3.35156,1.8711 32,32 0 0 0 -3.80664,0.5878 c -2.40999,0.8784 -4.81954,1.8114 -7.22461,2.8047 a 32,32 0 0 0 -3.32226,2.2149 32,32 0 0 0 -3.89649,0.9609 c -2.40678,1.1277 -4.81775,2.3288 -7.22265,3.6133 a 32,32 0 0 0 -3.22657,2.6465 32,32 0 0 0 -3.92968,1.4414 c -2.37477,1.4498 -4.7464,2.9979 -7.10352,4.6582 a 32,32 0 0 0 -2.99805,3.1504 32,32 0 0 0 -3.863278,2.041 c -2.295956,1.8663 -4.527674,3.8278 -6.6875,5.8848 a 32,32 0 0 0 -2.625,3.7285 32,32 0 0 0 -3.652343,2.7578 c -2.017892,2.2657 -3.968524,4.65 -5.832031,7.1582 a 32,32 0 0 0 -1.986329,4.1934 32,32 0 0 0 -3.167968,3.4121 c -1.637998,2.6607 -3.147133,5.389 -4.527344,8.1777 a 32,32 0 0 0 -1.205078,4.4746 32,32 0 0 0 -2.492188,3.8867 c -1.132607,2.8878 -2.117236,5.7842 -2.970703,8.6739 a 32,32 0 0 0 -0.410156,4.4921 32,32 0 0 0 -1.767578,4.1133 c -0.622972,2.9273 -1.115935,5.8255 -1.501953,8.6817 a 32,32 0 0 0 0.267578,4.3125 32,32 0 0 0 -1.125,4.1464 c -0.194001,2.8243 -0.293122,5.6296 -0.308594,8.4102 a 32,32 0 0 0 0.779297,4.0332 32,32 0 0 0 -0.609375,4.0488 c 0.128571,2.7265 0.331806,5.3942 0.587891,8.002 a 32,32 0 0 0 1.152343,3.8047 32,32 0 0 0 -0.214843,3.9511 c 0.36513,2.5534 0.78487,5.1023 1.257812,7.6426 a 32,32 0 0 0 1.318359,3.2989 32,32 0 0 0 0.02148,3.5507 c 0.463699,2.2619 0.948619,4.5367 1.460937,6.8243 a 32,32 0 0 0 1.425781,3.2207 32,32 0 0 0 0.144532,3.539 c 0.54006,2.2342 1.104108,4.4892 1.697265,6.7637 a 32,32 0 0 0 1.535157,3.166 32,32 0 0 0 0.261718,3.5039 c 0.627996,2.2605 1.273694,4.5003 1.933594,6.7168 a 32,32 0 0 0 1.652344,3.1289 32,32 0 0 0 0.390625,3.5254 c 0.698204,2.203 1.420452,4.4159 2.169922,6.6387 a 32,32 0 0 0 1.759765,3.0625 32,32 0 0 0 0.513672,3.4961 c 0.781637,2.1948 1.586929,4.3919 2.417969,6.5898 a 32,32 0 0 0 1.869141,2.9961 32,32 0 0 0 0.640625,3.4785 c 0.864878,2.1752 1.753245,4.3475 2.666015,6.5157 a 32,32 0 0 0 1.982422,2.9296 32,32 0 0 0 0.771484,3.459 c 0.948511,2.1479 1.920651,4.2893 2.916016,6.4239 a 32,32 0 0 0 2.097656,2.8613 32,32 0 0 0 0.908204,3.4375 c 1.035635,2.1199 2.089072,4.2211 3.160156,6.3047 a 32,32 0 0 0 2.226562,2.8027 32,32 0 0 0 1.050779,3.4199 c 1.11039,2.0589 2.25,4.1239 3.42187,6.1914 a 32,32 0 0 0 2.33008,2.6993 32,32 0 0 0 1.18164,3.3613 c 1.20923,2.0422 2.44379,4.0722 3.70117,6.0898 a 32,32 0 0 0 2.44336,2.6035 32,32 0 0 0 1.33203,3.3301 c 1.29573,1.9904 2.61349,3.963 3.94922,5.918 a 32,32 0 0 0 2.57031,2.5176 32,32 0 0 0 1.47266,3.2656 c 1.38805,1.9446 2.79966,3.8739 4.23438,5.7851 a 32,32 0 0 0 2.67773,2.3985 32,32 0 0 0 1.63867,3.2324 c 1.44916,1.8454 2.9402,3.707 4.48242,5.5781 a 32,32 0 0 0 2.7793,2.2696 32,32 0 0 0 1.76172,3.1269 c 1.58105,1.8404 3.16742,3.6349 4.74805,5.3867 a 32,32 0 0 0 2.91015,2.168 32,32 0 0 0 1.91016,3.0488 c 1.6725,1.7737 3.34593,3.4984 5.01367,5.1797 a 32,32 0 0 0 3.01172,2.0293 32,32 0 0 0 2.05859,2.9629 c 1.74377,1.6809 3.50214,3.3296 5.26954,4.9473 a 32,32 0 0 0 3.09765,1.8769 32,32 0 0 0 2.20117,2.8633 c 1.82276,1.5955 3.65798,3.1586 5.50391,4.6914 a 32,32 0 0 0 3.18164,1.7246 32,32 0 0 0 2.33008,2.7481 c 1.92417,1.5281 3.83444,2.9978 5.7207,4.4179 a 32,32 0 0 0 3.28125,1.5801 32,32 0 0 0 2.45899,2.6309 c 1.99574,1.4332 3.97687,2.8102 5.93554,4.1406 a 32,32 0 0 0 3.35157,1.418 32,32 0 0 0 2.61132,2.5293 c 2.00131,1.2917 4.04503,2.5774 6.13477,3.8496 a 32,32 0 0 0 3.37109,1.2324 32,32 0 0 0 2.70117,2.3809 c 2.10996,1.2251 4.20274,2.4 6.27149,3.5332 a 32,32 0 0 0 3.47266,1.0918 32,32 0 0 0 2.82226,2.2578 c 2.11626,1.097 4.26739,2.1812 6.45898,3.2461 a 32,32 0 0 0 3.45508,0.9043 32,32 0 0 0 2.89063,2.1035 c 2.21278,1.0226 4.40814,1.9981 6.58398,2.9375 a 32,32 0 0 0 3.51367,0.7539 32,32 0 0 0 2.99219,1.9746 c 2.23866,0.9126 4.46141,1.7842 6.66211,2.6211 a 32,32 0 0 0 3.55078,0.5996 32,32 0 0 0 3.07813,1.8398 c 2.24851,0.802 4.49598,1.5749 6.74023,2.3184 a 32,32 0 0 0 3.55469,0.4414 32,32 0 0 0 3.13086,1.6973 c 2.28038,0.7066 4.56061,1.3842 6.83789,2.0332 a 32,32 0 0 0 3.53516,0.2871 32,32 0 0 0 3.17773,1.5605 c 2.30161,0.6123 4.60906,1.196 6.91992,1.7539 a 32,32 0 0 0 3.51953,0.1426 32,32 0 0 0 3.22852,1.4297 c 2.32872,0.5216 4.6272,1.0074 6.89062,1.4668 a 32,32 0 0 0 3.56055,0.014 32,32 0 0 0 3.27344,1.3047 c 2.31552,0.4279 4.63913,0.8326 6.97265,1.2128 a 32,32 0 0 0 3.50196,-0.123 32,32 0 0 0 3.33203,1.1855 c 2.27393,0.3331 4.58818,0.6558 6.94336,0.9551 a 32,32 0 0 0 3.47851,-0.2441 32,32 0 0 0 3.31641,1.0586 c 2.33961,0.2644 4.65919,0.5021 6.95703,0.7187 a 32,32 0 0 0 3.47656,-0.3574 32,32 0 0 0 3.33789,0.9473 c 2.35527,0.1893 4.67389,0.3517 6.95508,0.4941 a 32,32 0 0 0 3.46094,-0.4668 32,32 0 0 0 3.36133,0.8418 c 2.32734,0.1136 4.64552,0.2051 6.95312,0.2774 a 32,32 0 0 0 3.41992,-0.5704 32,32 0 0 0 3.40821,0.7422 c 2.25143,0.04 4.56079,0.069 6.92773,0.072 a 32,32 0 0 0 3.35352,-0.6621 32,32 0 0 0 3.37695,0.6406 c 2.31998,-0.021 4.61424,-0.06 6.88477,-0.1152 a 32,32 0 0 0 4.90039,-0.5059 32,32 0 0 0 1.84765,0.3008 c 2.31243,-0.081 4.61222,-0.1824 6.89844,-0.2988 a 32,32 0 0 0 4.82617,-0.6289 32,32 0 0 0 1.86328,0.2558 c 2.35056,-0.1418 4.62014,-0.3037 6.8086,-0.4648 a 32,32 0 0 0 4.91015,-0.752 32,32 0 0 0 1.86133,0.2071 c 2.21636,-0.1907 4.49221,-0.3947 6.82617,-0.629 a 32,32 0 0 0 4.71485,-0.8515 32,32 0 0 0 1.8789,0.168 c 2.27867,-0.2453 4.54896,-0.5072 6.81055,-0.7832 a 32,32 0 0 0 4.73047,-0.959 32,32 0 0 0 1.89063,0.125 l 1.18554,-0.1543 a 32.0032,32.0032 0 0 0 0.0859,-0.012 l 5.1582,-0.6895 a 32,32 0 0 0 4.49414,-0.9629 32,32 0 0 0 1.84961,0.1172 l 0.75977,-0.1016 a 32.0032,32.0032 0 0 0 0.01,0 l 5.58399,-0.7461 a 32,32 0 0 0 4.5,-0.9668 32,32 0 0 0 1.84375,0.1172 h 0.0254 a 32.0032,32.0032 0 0 0 0.0117,0 l 6.3164,-0.8476 a 32,32 0 0 0 4.50586,-0.9688 32,32 0 0 0 1.84961,0.1153 l 6.3418,-0.8536 a 32,32 0 0 0 4.50976,-0.9707 32,32 0 0 0 1.84766,0.1153 l 6.3418,-0.8555 a 32,32 0 0 0 4.50781,-0.9746 32,32 0 0 0 1.84961,0.1152 l 6.3418,-0.8593 a 32,32 0 0 0 4.50976,-0.9766 32,32 0 0 0 1.84766,0.1133 l 4.75,-0.6465 a 32.0032,32.0032 0 0 0 0.0156,0 l 1.59375,-0.2168 a 32,32 0 0 0 4.4961,-0.9766 32,32 0 0 0 1.84375,0.1114 l 2.36133,-0.3223 a 32.0032,32.0032 0 0 0 0.0176,0 l 3.98047,-0.5469 a 32,32 0 0 0 4.50781,-0.9824 32,32 0 0 0 1.85352,0.1113 l 6.33984,-0.873 a 32,32 0 0 0 4.51758,-0.9864 32,32 0 0 0 1.84375,0.1075 l 6.33985,-0.877 a 32,32 0 0 0 4.51953,-0.9922 32,32 0 0 0 1.84375,0.1075 l 3.13086,-0.4356 a 32.0032,32.0032 0 0 0 0.0254,0 l 3.20703,-0.4492 a 32,32 0 0 0 4.5039,-0.9961 32,32 0 0 0 1.85938,0.1055 l 6.33789,-0.8926 a 32,32 0 0 0 4.51367,-1.002 32,32 0 0 0 1.85156,0.1035 l 4.65821,-0.6601 a 32.0032,32.0032 0 0 0 0.0293,-0.012 l 1.67969,-0.2403 a 32,32 0 0 0 4.48828,-1.0039 32,32 0 0 0 1.84766,0.1 l 0.56641,-0.078 a 32.0032,32.0032 0 0 0 0.0312,-0.012 l 5.76953,-0.8281 a 32,32 0 0 0 4.52344,-1.0176 32,32 0 0 0 1.84374,0.1016 L 655.75,1488.25 a 32.0032,32.0032 0 0 0 0.0352,-0.012 l 1.78711,-0.2598 a 32,32 0 0 0 4.50195,-1.0234 32,32 0 0 0 1.86914,0.096 l 6.33203,-0.9317 a 32,32 0 0 0 4.52149,-1.0332 32,32 0 0 0 1.84765,0.09 l 3.04492,-0.4512 a 32.0032,32.0032 0 0 0 0.0312,-0.012 l 3.28516,-0.4902 a 32,32 0 0 0 4.51562,-1.0411 32,32 0 0 0 1.84961,0.088 c 2.12049,-0.3192 4.24756,-0.642 6.38086,-0.9668 a 32,32 0 0 0 4.49024,-1.0488 32,32 0 0 0 1.85156,0.082 c 2.13726,-0.3264 4.26336,-0.6536 6.37891,-0.9804 a 32,32 0 0 0 4.50586,-1.0645 32,32 0 0 0 1.85546,0.076 c 2.11384,-0.329 4.24008,-0.6613 6.37891,-0.9981 a 32,32 0 0 0 4.48828,-1.0722 32,32 0 0 0 1.85156,0.072 c 2.13962,-0.3383 4.2661,-0.6776 6.37891,-1.0156 a 32,32 0 0 0 4.50586,-1.0898 32,32 0 0 0 1.85156,0.068 c 2.12253,-0.3422 4.24843,-0.6868 6.38086,-1.0351 a 32,32 0 0 0 4.49805,-1.1016 32,32 0 0 0 1.86328,0.061 l 2.99609,-0.4942 a 32.0032,32.0032 0 0 0 0.0254,0 l 3.32032,-0.5508 a 32,32 0 0 0 2.02734,-0.5019 l -48.45898,123.0644 a 32.0032,32.0032 0 0 0 44.50586,40.1328 l 20.77539,-10.7734 -55.93164,121.8848 a 32.0032,32.0032 0 0 0 30.47851,45.3144 l 503.09567,-21.9492 a 32.0032,32.0032 0 0 0 17.6153,-57.7109 c 0,0 -30.0521,-22.224 -62.8047,-55.209 -32.7526,-32.9851 -66.216,-77.2937 -74.2832,-111.0293 -7.8975,-33.0259 2.1643,-94.096 16.9746,-143.9336 0.7789,-2.6212 1.5809,-5.0698 2.3711,-7.627 l 5.3691,0.4786 a 32,32 0 0 0 3.2442,-0.3496 32,32 0 0 0 3.1308,0.9179 l 6.375,0.5684 a 32,32 0 0 0 3.2442,-0.3496 32,32 0 0 0 3.1308,0.9179 l 6.375,0.5684 a 32,32 0 0 0 3.2403,-0.3496 32,32 0 0 0 3.1328,0.9199 l 6.375,0.5684 a 32,32 0 0 0 3.2441,-0.3496 32,32 0 0 0 3.1309,0.9179 l 6.375,0.5684 a 32,32 0 0 0 3.2441,-0.3496 32,32 0 0 0 3.1309,0.918 l 6.375,0.5683 a 32,32 0 0 0 3.2441,-0.3496 32,32 0 0 0 3.1289,0.918 l 6.375,0.5703 a 32,32 0 0 0 3.2442,-0.3496 32,32 0 0 0 3.1308,0.9179 l 6.375,0.5684 a 32,32 0 0 0 3.2442,-0.3496 32,32 0 0 0 3.1308,0.918 l 6.375,0.5683 a 32,32 0 0 0 3.2442,-0.3496 32,32 0 0 0 3.1289,0.918 l 6.375,0.5683 a 32,32 0 0 0 3.2402,-0.3496 32,32 0 0 0 3.1348,0.9199 l 6.375,0.5684 a 32,32 0 0 0 3.2441,-0.3496 32,32 0 0 0 3.1309,0.918 l 6.375,0.5683 a 32,32 0 0 0 3.2441,-0.3496 32,32 0 0 0 3.1309,0.918 l 6.373,0.5683 a 32,32 0 0 0 3.2442,-0.3496 32,32 0 0 0 3.1308,0.918 l 6.375,0.5703 a 32,32 0 0 0 3.2442,-0.3496 32,32 0 0 0 3.1308,0.918 l 6.375,0.5683 a 32,32 0 0 0 3.2442,-0.3496 32,32 0 0 0 3.1308,0.918 l 6.3731,0.5684 a 32,32 0 0 0 3.2441,-0.3497 32,32 0 0 0 3.1309,0.918 l 6.375,0.5684 a 32,32 0 0 0 3.2441,-0.3496 32,32 0 0 0 3.1309,0.9179 l 6.375,0.5703 a 32,32 0 0 0 8.457,-0.9121 32,32 0 0 0 24.6699,-13.7597 32,32 0 0 0 -9.1035,-44.3301 l -5.3438,-3.5234 a 32,32 0 0 0 -1.7168,-0.6993 32,32 0 0 0 -3.6269,-2.8222 l -5.3438,-3.5235 a 32,32 0 0 0 -1.7109,-0.6972 32,32 0 0 0 -3.6309,-2.8262 l -5.3437,-3.5215 a 32,32 0 0 0 -1.7109,-0.6973 32,32 0 0 0 -3.6329,-2.8261 l -5.3437,-3.5215 a 32,32 0 0 0 -1.7109,-0.6973 32,32 0 0 0 -3.6309,-2.8261 l -5.3438,-3.5235 a 32,32 0 0 0 -1.7148,-0.6973 32,32 0 0 0 -3.6289,-2.8242 l -5.3437,-3.5234 a 32,32 0 0 0 -1.7168,-0.6992 32,32 0 0 0 -3.625,-2.8223 l -5.3438,-3.5234 a 32,32 0 0 0 -1.7168,-0.6992 32,32 0 0 0 -3.6269,-2.8243 l -5.3438,-3.5214 a 32,32 0 0 0 -1.7109,-0.6973 32,32 0 0 0 -3.6328,-2.8262 l -5.3418,-3.5215 a 32,32 0 0 0 -1.711,-0.6972 32,32 0 0 0 -3.6328,-2.8262 l -5.3437,-3.5234 a 32,32 0 0 0 -1.7149,-0.6973 32,32 0 0 0 -3.6289,-2.8242 l -1.0644,-0.7032 1.1777,-0.062 a 32,32 0 0 0 4.5625,-0.6054 32,32 0 0 0 1.8281,0.2636 l 6.3926,-0.3398 a 32,32 0 0 0 4.5625,-0.6055 32,32 0 0 0 1.8281,0.2637 l 6.3906,-0.3398 a 32,32 0 0 0 4.5625,-0.6055 32,32 0 0 0 1.8282,0.2637 l 6.3906,-0.3399 a 32,32 0 0 0 4.5625,-0.6054 32,32 0 0 0 1.8281,0.2636 l 6.3926,-0.3398 a 32,32 0 0 0 4.5625,-0.6055 32,32 0 0 0 1.8281,0.2637 l 6.3906,-0.3399 a 32,32 0 0 0 4.5625,-0.6054 32,32 0 0 0 1.8282,0.2636 l 6.3906,-0.3398 a 32,32 0 0 0 4.5625,-0.6055 32,32 0 0 0 1.8281,0.2637 l 6.3906,-0.3418 a 32,32 0 0 0 4.5625,-0.6035 32,32 0 0 0 1.8301,0.2637 l 6.3906,-0.3418 a 32,32 0 0 0 4.5547,-0.6036 32,32 0 0 0 1.836,0.2637 l 6.3906,-0.3418 a 32,32 0 0 0 4.5566,-0.6035 32,32 0 0 0 1.834,0.2637 l 6.3906,-0.3418 a 32,32 0 0 0 4.5567,-0.6035 32,32 0 0 0 1.834,0.2636 l 6.3926,-0.3418 a 32,32 0 0 0 4.5546,-0.6035 32,32 0 0 0 1.836,0.2637 l 6.3906,-0.3418 a 32,32 0 0 0 27.9238,-20.0508 32,32 0 0 0 1.2168,-1.9804 32,32 0 0 0 -18.9043,-41.1172 l -6.0019,-2.2227 a 32,32 0 0 0 -1.8321,-0.291 32,32 0 0 0 -4.1699,-1.9297 l -6.0019,-2.2207 a 32,32 0 0 0 -1.8262,-0.291 32,32 0 0 0 -4.1758,-1.9317 l -6.0039,-2.2207 a 32,32 0 0 0 -1.8281,-0.291 32,32 0 0 0 -4.1738,-1.9297 l -6.002,-2.2207 a 32,32 0 0 0 -1.8223,-0.291 32,32 0 0 0 -4.1796,-1.9316 l -6.002,-2.2207 a 32,32 0 0 0 -1.8242,-0.291 32,32 0 0 0 -4.1778,-1.9297 l -6.0019,-2.2227 a 32,32 0 0 0 -1.832,-0.291 32,32 0 0 0 -4.17,-1.9297 l -6.0019,-2.2207 a 32,32 0 0 0 -1.8262,-0.291 32,32 0 0 0 -4.1777,-1.9316 l -6.002,-2.2207 a 32,32 0 0 0 -1.8281,-0.2911 32,32 0 0 0 -4.1738,-1.9296 l -6.002,-2.2208 a 32,32 0 0 0 -1.8222,-0.291 32,32 0 0 0 -4.1797,-1.9316 l -6.002,-2.2207 a 32,32 0 0 0 -1.8223,-0.291 32,32 0 0 0 -4.1796,-1.9297 l -6.002,-2.2227 a 32,32 0 0 0 -1.832,-0.291 32,32 0 0 0 -1.7715,-0.8203 32,32 0 0 0 1.9648,-11.2207 c -0.029,-2.3332 -0.08,-4.6044 -0.1367,-6.8125 a 32,32 0 0 0 -0.416,-1.8438 32,32 0 0 0 0.2227,-4.7636 c -0.072,-2.2424 -0.1551,-4.4509 -0.2403,-6.6231 a 32,32 0 0 0 -0.4394,-1.8261 32,32 0 0 0 0.1601,-4.7579 c -0.099,-2.1974 -0.2062,-4.3919 -0.3183,-6.5839 a 32,32 0 0 0 -0.459,-1.8145 32,32 0 0 0 0.1074,-4.7324 c -0.1236,-2.2054 -0.2543,-4.3954 -0.3887,-6.5703 a 32,32 0 0 0 -0.4765,-1.8086 32,32 0 0 0 0.053,-4.752 c -0.1468,-2.1843 -0.3006,-4.3733 -0.4609,-6.5683 a 32,32 0 0 0 -0.4961,-1.7969 32,32 0 0 0 0,-4.75 c -0.1706,-2.1813 -0.3489,-4.3684 -0.5332,-6.5625 a 32,32 0 0 0 -0.5176,-1.7969 32,32 0 0 0 -0.047,-4.7305 c -0.1953,-2.2002 -0.3987,-4.3942 -0.6074,-6.582 a 32,32 0 0 0 -0.5371,-1.791 32,32 0 0 0 -0.1035,-4.7441 c -0.2201,-2.1863 -0.4462,-4.3829 -0.6836,-6.5879 a 32,32 0 0 0 -0.5586,-1.7793 32,32 0 0 0 -0.1602,-4.7481 c -0.2467,-2.1837 -0.5033,-4.3798 -0.7695,-6.5898 a 32,32 0 0 0 -0.582,-1.7774 32,32 0 0 0 -0.2168,-4.7285 c -0.2793,-2.2285 -0.5671,-4.426 -0.8555,-6.5918 a 32,32 0 0 0 -0.6094,-1.7871 32,32 0 0 0 -0.2851,-4.7441 c -0.3103,-2.2269 -0.629,-4.4288 -0.9512,-6.6055 a 32,32 0 0 0 -0.6309,-1.7676 32,32 0 0 0 -0.3632,-4.791 c -0.3385,-2.1772 -0.6896,-4.3826 -1.0586,-6.6172 a 32,32 0 0 0 -0.6543,-1.7383 32,32 0 0 0 -0.4434,-4.79097 c -0.3783,-2.19607 -0.7662,-4.39443 -1.166,-6.59375 a 32,32 0 0 0 -0.6895,-1.7461 32,32 0 0 0 -0.5351,-4.83007 c -0.418,-2.18648 -0.8492,-4.38684 -1.2949,-6.59766 a 32,32 0 0 0 -0.7247,-1.73633 32,32 0 0 0 -0.6308,-4.83398 c -0.4676,-2.2089 -0.9488,-4.4102 -1.4395,-6.60547 a 32,32 0 0 0 -0.7636,-1.72656 32,32 0 0 0 -0.7481,-4.86524 c -0.5198,-2.20792 -1.0564,-4.41678 -1.6074,-6.62695 a 32,32 0 0 0 -0.8027,-1.70313 32,32 0 0 0 -0.8848,-4.89648 c -0.5805,-2.20718 -1.1786,-4.41531 -1.7949,-6.62695 a 32,32 0 0 0 -0.8594,-1.69922 32,32 0 0 0 -1.0371,-4.91406 c -0.6532,-2.21515 -1.3274,-4.43518 -2.0254,-6.65821 a 32,32 0 0 0 -0.9277,-1.69726 32,32 0 0 0 -1.211,-4.91602 c -0.7409,-2.22529 -1.5075,-4.45247 -2.3008,-6.67969 a 32,32 0 0 0 -1.0156,-1.69922 32,32 0 0 0 -1.4238,-4.93164 c -0.8521,-2.2433 -1.73,-4.47174 -2.6348,-6.6875 a 32,32 0 0 0 -1.1367,-1.71875 32,32 0 0 0 -1.6894,-4.94921 c -0.9821,-2.23501 -2.0059,-4.47562 -3.0743,-6.7168 a 32,32 0 0 0 -1.3203,-1.76953 32,32 0 0 0 -2.1172,-5.12305 c -1.2665,-2.40017 -2.5891,-4.74617 -3.957,-7.03906 a 32,32 0 0 0 -1.5742,-1.74414 32,32 0 0 0 -2.6367,-4.94336 c -1.4585,-2.20245 -2.9576,-4.35525 -4.4942,-6.45899 a 32,32 0 0 0 -1.6523,-1.51953 32,32 0 0 0 -3.0059,-4.59765 c -1.5735,-1.98166 -3.1922,-3.94565 -4.8594,-5.88672 a 32,32 0 0 0 -1.6933,-1.32813 32,32 0 0 0 -3.2559,-4.24219 c -1.7011,-1.85362 -3.4171,-3.65798 -5.1445,-5.41796 a 32,32 0 0 0 -1.7324,-1.18165 32,32 0 0 0 -3.4746,-3.9707 c -1.7696,-1.70159 -3.55,-3.36335 -5.336,-4.98633 a 32,32 0 0 0 -1.7578,-1.05664 32,32 0 0 0 -3.6465,-3.72851 c -1.8166,-1.56801 -3.6451,-3.10542 -5.4843,-4.61719 a 32,32 0 0 0 -1.7676,-0.94727 32,32 0 0 0 -3.7774,-3.50781 c -1.8595,-1.46029 -3.7319,-2.89725 -5.6152,-4.3125 a 32,32 0 0 0 -1.7695,-0.85156 32,32 0 0 0 -3.8789,-3.30859 c -1.8981,-1.37013 -3.8054,-2.71969 -5.7227,-4.04883 a 32,32 0 0 0 -1.7715,-0.76953 32,32 0 0 0 -3.9609,-3.13282 c -1.9309,-1.29136 -3.8684,-2.56238 -5.8125,-3.81445 a 32,32 0 0 0 -1.7735,-0.69922 32,32 0 0 0 -4.0332,-2.97851 c -1.9559,-1.21911 -3.9186,-2.42023 -5.8847,-3.60352 a 32,32 0 0 0 -1.7871,-0.64258 32,32 0 0 0 -4.086,-2.83984 c -1.9758,-1.15339 -3.9578,-2.29042 -5.9433,-3.41211 a 32,32 0 0 0 -1.8008,-0.5918 32,32 0 0 0 -4.1328,-2.71093 c -1.9947,-1.09493 -3.9925,-2.17501 -5.9942,-3.24024 a 32,32 0 0 0 -1.8125,-0.54687 32,32 0 0 0 -4.1738,-2.59571 c -2.0149,-1.04327 -4.0272,-2.06812 -6.0351,-3.07812 a 32,32 0 0 0 -1.8301,-0.50586 32,32 0 0 0 -4.1934,-2.48047 c -2.041,-1.00098 -4.0815,-1.98727 -6.123,-2.95703 a 32,32 0 0 0 -1.8184,-0.45899 32,32 0 0 0 -4.2461,-2.38867 c -2.041,-0.94627 -4.0827,-1.87911 -6.1269,-2.80078 a 32,32 0 0 0 -1.836,-0.42383 32,32 0 0 0 -4.2812,-2.29883 c -2.0651,-0.90818 -4.1254,-1.80043 -6.1778,-2.67773 a 32,32 0 0 0 -1.8398,-0.38672 32,32 0 0 0 -4.3438,-2.22265 c -2.0461,-0.85118 -4.1192,-1.70336 -6.2207,-2.55274 a 32,32 0 0 0 -1.8398,-0.34961 32,32 0 0 0 -4.3613,-2.12695 c -2.081,-0.8201 -4.1723,-1.63381 -6.2754,-2.4375 a 32,32 0 0 0 -1.8574,-0.31641 32,32 0 0 0 -4.4121,-2.04687 c -2.1069,-0.78251 -4.2224,-1.5559 -6.3477,-2.31836 a 32,32 0 0 0 -1.8613,-0.27735 32,32 0 0 0 -4.5254,-1.97461 c -2.14,-0.73971 -4.3164,-1.47596 -6.5293,-2.20312 a 32,32 0 0 0 -4.0176,-0.49024 32,32 0 0 0 -7.6992,-2.19921 c -2.2786,-0.32319 -4.5554,-0.62699 -6.8301,-0.91407 a 32,32 0 0 0 -1.8965,0.13477 32,32 0 0 0 -4.9004,-0.94336 c -2.2788,-0.25548 -4.5571,-0.49346 -6.834,-0.71484 a 32,32 0 0 0 -1.8867,0.1875 32,32 0 0 0 -4.9121,-0.80274 c -2.2791,-0.19091 -4.5572,-0.36528 -6.8359,-0.52344 a 32,32 0 0 0 -1.8809,0.24024 32,32 0 0 0 -4.916,-0.66797 c -2.2793,-0.12887 -4.559,-0.24282 -6.83789,-0.33984 a 32,32 0 0 0 -1.875,0.29101 32,32 0 0 0 -4.91601,-0.53711 c -2.27857,-0.0687 -4.55604,-0.12237 -6.83203,-0.16015 a 32,32 0 0 0 -1.86524,0.33984 32,32 0 0 0 -4.92578,-0.41211 z" />
      <g
         id="g13003"
         inkscape:label="face">
        <path
           style="opacity:1;fill:none;fill-opacity:1;stroke:#65471b;stroke-width:64;stroke-linecap:round;stroke-linejoin:round;stroke-miterlimit:4;stroke-dasharray:none;stroke-opacity:1;paint-order:stroke fill markers;stop-color:#000000"
           d="m 222.99268,1273.9285 c 0,0 183.64546,118.8445 243.06035,119.5861"
           id="path10022" />
        <path
           style="opacity:1;fill:none;fill-opacity:1;stroke:#65471b;stroke-width:64;stroke-linecap:round;stroke-linejoin:round;stroke-miterlimit:4;stroke-dasharray:none;stroke-dashoffset:0;stroke-opacity:1;paint-order:fill markers stroke;stop-color:#000000"
           d="m 83.898236,1201.0695 68.443294,6.6235 -37.53342,39.7413"
           id="path2163"
           inkscape:label="left nostril" />
        <path
           style="opacity:1;fill:none;fill-opacity:1;stroke:#65471b;stroke-width:64;stroke-linecap:round;stroke-linejoin:round;stroke-miterlimit:4;stroke-dasharray:none;stroke-dashoffset:0;stroke-opacity:1;paint-order:fill markers stroke;stop-color:#000000"
           d="m 401.82839,1251.85 -59.6119,-44.157 121.43166,-17.6628"
           id="path2198"
           inkscape:label="right nostril" />
        <path
           style="opacity:1;fill:#ffffff;fill-opacity:1;stroke:#65471b;stroke-width:64;stroke-linecap:round;stroke-linejoin:round;stroke-miterlimit:4;stroke-dasharray:none;stroke-dashoffset:0;stroke-opacity:1;paint-order:fill markers stroke;stop-color:#000000"
           d="m 222.99268,1530.0389 -90.52178,-183.2514 90.52178,-72.859 103.76887,66.2354 z"
           id="path2202"
           sodipodi:nodetypes="ccccc"
           inkscape:label="toof" />
      </g>
      <g
         id="g12993"
         inkscape:label="right eye">
        <path
           style="opacity:1;fill:#65471b;fill-opacity:1;stroke:#65471b;stroke-width:64;stroke-linecap:round;stroke-linejoin:round;stroke-miterlimit:4;stroke-dasharray:none;stroke-dashoffset:0;stroke-opacity:1;paint-order:fill markers stroke;stop-color:#000000"
           d="m 661.97569,1226.0485 53.36716,-115.5008 86.53085,168.711 z"
           id="path7852"
           inkscape:label="eyenub"
           sodipodi:nodetypes="cccc" />
        <path
           id="path1915"
           style="opacity:1;fill:#d19020;fill-opacity:1;stroke:#65471b;stroke-width:64;stroke-linecap:round;stroke-linejoin:round;paint-order:fill markers stroke;stop-color:#000000"
           inkscape:label="righteye"
           d="m 1150.289,1075.2222 c 0,120.7167 -151.8603,218.5769 -272.57702,218.5769 -120.71671,0 -164.57695,-71.8602 -164.57699,-192.5769 -2e-5,-120.71675 97.86024,-244.57702 218.57699,-244.57701 120.71672,-2e-5 218.57702,97.86025 218.57702,218.57701 z"
           sodipodi:nodetypes="sssss" />
        <path
           style="opacity:1;fill:none;fill-opacity:1;stroke:#65471b;stroke-width:64;stroke-linecap:round;stroke-linejoin:round;stroke-miterlimit:4;stroke-dasharray:none;stroke-opacity:1;paint-order:stroke fill markers;stop-color:#000000"
           d="m 739.6292,1218.7323 c 97.10077,-164.4538 289.8592,-328.23982 392.997,-194.2907"
           id="path1276"
           sodipodi:nodetypes="cc" />
      </g>
      <path
         style="opacity:1;fill:none;fill-opacity:1;stroke:#ffcb4c;stroke-width:32;stroke-linecap:round;stroke-linejoin:round;stroke-miterlimit:4;stroke-dasharray:none;stroke-dashoffset:0;stroke-opacity:1;paint-order:fill markers stroke;stop-color:#000000"
         d="M 589.06526,72.036885 C 708.6632,330.66645 770.41461,592.76356 719.98502,861.58522"
         id="path6280"
         sodipodi:nodetypes="cc"
         inkscape:label="eyelash right big"
         inkscape:transform-center-x="64.966751"
         inkscape:transform-center-y="-332.6352" />
      <path
         style="display:inline;fill:none;fill-opacity:1;stroke:#ffcb4c;stroke-width:32;stroke-linecap:round;stroke-linejoin:round;stroke-miterlimit:4;stroke-dasharray:none;stroke-dashoffset:0;stroke-opacity:1;paint-order:fill markers stroke;stop-color:#000000"
         d="m 863.55826,301.93376 c 2.88779,172.38951 -21.80221,367.39203 -69.98003,520.76293"
         id="path6280-0"
         sodipodi:nodetypes="cc"
         inkscape:label="eyelash right small"
         inkscape:transform-center-x="-58.471784"
         inkscape:transform-center-y="-204.35832" />
    </g>
    <g
       id="layer2-8"
       inkscape:label="hand"
       transform="matrix(-0.55862539,-1.0104957,-1.3843435,0.59930599,2925.2743,529.96135)"
       style="display:inline;fill:none;fill-opacity:1;stroke:#888800;stroke-width:0.759483;stroke-opacity:1">
      <path
         style="fill:none;fill-opacity:1;stroke:#a18020;stroke-width:72.9103;stroke-linecap:round;stroke-linejoin:round;stroke-miterlimit:4;stroke-dasharray:none;stroke-opacity:1;paint-order:fill markers stroke;stop-color:#000000"
         d="m 438.10596,1449.6317 c -77.70255,-24.8634 -293.75321,33.1439 -348.611489,47.5208"
         id="path20257"
         sodipodi:nodetypes="cc" />
      <path
         style="display:inline;fill:none;fill-opacity:1;stroke:#a18020;stroke-width:72.9103;stroke-linecap:round;stroke-linejoin:round;stroke-miterlimit:4;stroke-dasharray:none;stroke-opacity:1;paint-order:fill markers stroke;stop-color:#000000"
         d="M 207.68334,1378.6454 C 166.44121,1402.5221 86.515777,1496.1928 50.836437,1509.8547"
         id="path20257-3"
         sodipodi:nodetypes="cc" />
      <path
         style="fill:none;fill-opacity:1;stroke:#a18020;stroke-width:72.9103;stroke-linecap:round;stroke-linejoin:round;stroke-miterlimit:4;stroke-dasharray:none;stroke-opacity:1;paint-order:fill markers stroke;stop-color:#000000"
         d="m 83.585394,1562.0096 c 56.522926,-11.2444 265.651396,-60.8592 341.712956,-46.1912"
         id="path20259"
         sodipodi:nodetypes="cc" />
      <path
         style="fill:none;fill-opacity:1;stroke:#a18020;stroke-width:72.9103;stroke-linecap:round;stroke-linejoin:round;stroke-miterlimit:4;stroke-dasharray:none;stroke-opacity:1;paint-order:fill markers stroke;stop-color:#000000"
         d="m 71.288958,1621.58 c 54.862632,-7.3187 268.284862,-67.3424 339.628712,-37.493"
         id="path20261"
         sodipodi:nodetypes="cc" />
      <path
         style="fill:#a18020;fill-opacity:1;stroke:#a18020;stroke-width:72.9103;stroke-linecap:round;stroke-linejoin:round;stroke-miterlimit:4;stroke-dasharray:none;stroke-opacity:1;paint-order:fill markers stroke;stop-color:#000000"
         d="m 89.494471,1497.1525 c 0,0 -38.994158,8.3198 -56.134751,70.0165 -5.555987,19.9985 6.402211,52.7901 37.929238,54.411 l 18.205513,-124.4275"
         id="path20376"
         sodipodi:nodetypes="cscc" />
      <path
         style="display:inline;fill:#a18020;fill-opacity:1;stroke:#a18020;stroke-width:64;stroke-linecap:round;stroke-linejoin:round;stroke-miterlimit:4;stroke-dasharray:none;stroke-opacity:1;paint-order:stroke fill markers;stop-color:#000000"
         d="m 71.184619,1527.8639 -447.035059,8.796 2.12764,48.502 493.87501,-8.9902 -48.967591,-48.3078"
         id="path7062"
         inkscape:transform-center-x="-114.62141"
         inkscape:transform-center-y="206.13122"
         sodipodi:nodetypes="ccccc" />
    </g>
  </g>
</svg>
