<?xml version="1.0" encoding="UTF-8" standalone="no"?>
<!-- Created with Inkscape (http://www.inkscape.org/) -->

<svg
   version="1.1"
   id="svg824"
   width="1706.6667"
   height="1706.6667"
   viewBox="0 0 1706.6667 1706.6667"
   sodipodi:docname="ying_floof.svg"
   inkscape:version="1.1 (c68e22c387, 2021-05-23)"
   inkscape:export-filename="D:\Pictures\yingmotes\ying.png"
   inkscape:export-xdpi="72"
   inkscape:export-ydpi="72"
   xmlns:inkscape="http://www.inkscape.org/namespaces/inkscape"
   xmlns:sodipodi="http://sodipodi.sourceforge.net/DTD/sodipodi-0.dtd"
   xmlns="http://www.w3.org/2000/svg"
   xmlns:svg="http://www.w3.org/2000/svg">
  <defs
     id="defs828" />
  <sodipodi:namedview
     id="namedview826"
     pagecolor="#ffffff"
     bordercolor="#666666"
     borderopacity="1.0"
     inkscape:pageshadow="2"
     inkscape:pageopacity="0.0"
     inkscape:pagecheckerboard="0"
     showgrid="false"
     inkscape:zoom="0.32026963"
     inkscape:cx="811.81597"
     inkscape:cy="763.41925"
     inkscape:window-width="1920"
     inkscape:window-height="1001"
     inkscape:window-x="-9"
     inkscape:window-y="-9"
     inkscape:window-maximized="1"
     inkscape:current-layer="layer1" />
  <g
     id="layer1"
     inkscape:label="Ying"
     style="display:inline"
     inkscape:groupmode="layer">
    <path
       style="display:none;fill:#123456;stroke:#123456;stroke-width:64;stroke-linecap:round;stroke-linejoin:round;-inkscape-stroke:none;paint-order:fill markers stroke;stop-color:#000000"
       d="m 1298.031,865.09775 c 49.4635,91.84093 208.6136,160.98475 251.3581,256.49065 4.0968,9.1538 -80.3783,29.4876 -76.8411,38.9467 12.3808,33.1086 122.6275,48.362 119.1269,161.5872 -29.438,-19.1346 -100.0891,-39.0053 -123.6395,-11.0392 50.5425,30.3738 122.6085,149.7 127.6575,204.5702 2.0011,21.7465 -89.4833,-91.0548 -107.5622,-71.8152 -18.4554,19.6401 40.9334,162.4716 46.1401,182.9672 l -110.3924,-57.404 c 66.7588,58.9185 112.6829,117.1466 121.4317,187.6671 l -549.70345,-2.2078 c -24.3802,-41.4813 23.11455,-208.5632 66.23555,-227.0436 0,0 3.3791,-20.0154 -75.35325,-9.4549 C 1015.23,1271.0896 1172.1837,1096.1858 1298.031,865.09775 Z"
       id="path3091"
       sodipodi:nodetypes="cssccssccccccc"
       inkscape:label="mane" />
    <path
       style="opacity:1;fill:#ffcb4c;fill-opacity:1;stroke:#ffcb4c;stroke-width:64;stroke-linecap:round;stroke-linejoin:round;stroke-miterlimit:4;stroke-dasharray:none;stroke-dashoffset:0;stroke-opacity:1;paint-order:fill markers stroke;stop-color:#000000"
       d="m 859.59576,1338.888 -117.78983,148.5393 65.76449,23.96 c -63.89983,24.6243 -69.77534,50.9051 -113.00071,90.9161 156.52166,-52.2802 7.77463,65.8159 106.162,97.4511 l -45.57848,59.9878 541.26757,-22.3289 c 0,0 -127.6743,-100.8561 -150.8871,-191.1624 -6.4442,-25.0699 116.1872,52.6172 87.9551,24.514 -88.0053,-47.9549 -45.6783,-270.1282 -42.5812,-271.1405 z"
       id="path3340"
       inkscape:label="neck"
       sodipodi:nodetypes="ccccccccccc" />
    <g
       id="g12988"
       inkscape:label="head">
      <path
         style="display:inline;fill:none;fill-opacity:1;stroke:#f19020;stroke-width:32;stroke-linecap:round;stroke-linejoin:round;stroke-miterlimit:4;stroke-dasharray:none;stroke-dashoffset:0;stroke-opacity:1;paint-order:fill markers stroke;stop-color:#000000"
         d="m 214.24675,510.63421 c 146.95696,90.16728 298.17327,215.74277 401.65747,338.76616"
         id="path6280-0-6"
         sodipodi:nodetypes="cc"
         inkscape:label="eyelash left small" />
      <path
         style="display:inline;fill:none;fill-opacity:1;stroke:#f19020;stroke-width:32;stroke-linecap:round;stroke-linejoin:round;stroke-miterlimit:4;stroke-dasharray:none;stroke-dashoffset:0;stroke-opacity:1;paint-order:fill markers stroke;stop-color:#000000"
         d="M 136.3074,315.66998 C 386.36359,452.28922 592.00322,626.1296 711.50637,872.15241"
         id="path6280-3"
         sodipodi:nodetypes="cc"
         inkscape:label="eyelash left big" />
      <g
         id="g12997"
         inkscape:label="left eye">
        <path
           id="path1915-9"
           style="display:inline;fill:#fefefe;stroke:#65471b;stroke-width:64;stroke-linecap:round;stroke-linejoin:round;paint-order:fill markers stroke;stop-color:#000000"
           inkscape:label="lefteye"
           d="m 792.61751,1048.7279 c 10e-6,120.7167 -155.86024,218.577 -276.57698,218.577 -120.71674,0 -160.57699,-55.8603 -160.57698,-176.577 0,-120.71673 97.86025,-260.57698 218.57698,-260.57698 120.71673,0 218.57698,97.86025 218.57698,218.57698 z"
           sodipodi:nodetypes="sssss" />
        <path
           style="opacity:1;fill:#ffffff;fill-opacity:1;stroke:#65471b;stroke-width:48;stroke-linecap:round;stroke-linejoin:round;stroke-miterlimit:4;stroke-dasharray:none;stroke-dashoffset:0;stroke-opacity:1;paint-order:fill markers stroke;stop-color:#000000"
           d="M 498.97372,962.62186 V 1132.6262"
           id="path2372"
           inkscape:label="left pupil" />
      </g>
      <path
         style="opacity:1;fill:#f19020;fill-opacity:1;stroke:#f19020;stroke-width:64;stroke-linecap:round;stroke-miterlimit:4;stroke-dasharray:none;stroke-dashoffset:0;stroke-opacity:1;paint-order:fill markers stroke;stop-color:#000000"
         d="m 838.98236,834.56666 c 0,0 -47.96997,-170.62298 -41.94911,-353.25573 2.95729,-89.70444 19.99857,-182.48976 44.04958,-258.11567 4.27839,-13.45297 8.7786,-26.36294 13.46081,-38.61598 27.94892,-73.14055 62.38253,-122.873916 94.83114,-124.967375 32.7633,-2.113761 103.84112,49.538715 142.26722,111.167395 4.1876,6.7161 -20.3738,5.91498 -16.2976,13.0149 10.7561,18.73495 21.0634,38.67848 30.5993,59.15682 8.6931,18.66844 37.7198,52.13237 44.8867,71.17927 2.219,5.89736 -16.6214,-2.56262 -14.5794,3.30693 8.7845,25.25021 15.8641,50.10293 20.6615,73.35193 28.702,139.09445 -4.4157,445.98536 -4.4157,445.98536 z"
         id="path1640"
         inkscape:label="left ear"
         sodipodi:nodetypes="csssssssssscc" />
      <path
         id="path1148"
         style="display:inline;opacity:1;fill:#ffcb4c;stroke:#ffcb4c;stroke-width:64;stroke-linecap:round;stroke-linejoin:round;stroke-miterlimit:4;stroke-dasharray:6.4, 6.4;stroke-dashoffset:0;stroke-opacity:1;paint-order:fill markers stroke;stop-color:#000000"
         inkscape:label="head"
         d="m 1299.0547,1153.5586 c 0,0 -0.1078,-10.8206 -0.9512,-28.418 -0.4217,-8.7987 -1.0259,-19.2912 -1.8945,-30.9726 -0.8686,-11.6814 -1.9997,-24.5525 -3.4727,-38.1055 -1.4729,-13.553 -3.2888,-27.7877 -5.5234,-42.2012 -2.2347,-14.41345 -4.8892,-29.0047 -8.043,-43.26755 -1.5769,-7.13143 -3.279,-14.18175 -5.1152,-21.08594 -1.8362,-6.90419 -3.8068,-13.66232 -5.9219,-20.21289 -2.1151,-6.55056 -4.3733,-12.89234 -6.7871,-18.96289 -2.4138,-6.07055 -4.9828,-11.86984 -7.7148,-17.33398 -2.7321,-5.46415 -5.9346,-10.78574 -9.5391,-15.96094 -3.6045,-5.1752 -7.6114,-10.20474 -11.9492,-15.08399 -4.3379,-4.87924 -9.0074,-9.60926 -13.9395,-14.18554 -4.9321,-4.57628 -10.1264,-8.99932 -15.5136,-13.26563 -5.3873,-4.2663 -10.9666,-8.37489 -16.67,-12.32422 -5.7033,-3.94932 -11.5298,-7.73794 -17.4101,-11.36328 -11.7607,-7.25067 -23.7371,-13.84709 -35.3711,-19.75976 -11.634,-5.91267 -22.9257,-11.14156 -33.3203,-15.66016 -10.3946,-4.5186 -19.8912,-8.32606 -27.9336,-11.39453 -16.085,-6.13693 -26.3535,-9.31836 -26.3535,-9.31836 -16.8705,-17.67292 -113.87486,-181.02501 -304.96291,-135.35684 -9.2754,2.21673 171.4763,137.6299 150.43811,132.4477 -63.88558,-15.73652 -365.05475,33.99184 -358.68324,54.69924 0,0 233.13691,-13.24054 200.583,8.22357 -69.25813,45.66469 -179.16667,200.78919 -198.70703,211.95509 -52.12644,29.7866 -271.7418,82.8579 -280.39649,83.8965 -55.19621,6.6235 -183.250352,6.6246 -161.171871,123.6406 71.260421,156.9349 210.661741,266.6379 377.541011,247.2793 264.9418,-35.3255 313.51517,-44.1575 536.50782,-88.3145 22.8973,-4.5341 53.8481,-18.3195 86.8281,-36.9472 21.3182,89.3642 78.0905,93.6382 127.2071,116.2862 l -23.8927,-110.8556 c 58.5504,54.2244 110.6542,37.5371 163.5451,29.5064 -0.4777,-51.6541 -70.1923,-87.3305 -145.9142,-121.6206 5.3578,-4.8405 10.5999,-9.7184 15.6328,-14.6367 98.0525,57.0232 175.4127,36.4499 250.2608,6.4564 -50.3023,-47.2457 -86.9332,-114.9986 -193.0654,-78.4994 3.4806,-6.5537 6.4805,-13.0207 8.6269,-19.3066 1.0523,-3.0817 2.0328,-6.6268 3.0469,-9.9766 z"
         sodipodi:nodetypes="csssssssssssssssssscsscsssccsccccccccsc" />
      <path
         style="display:none;fill:#123456;stroke:#123456;stroke-width:64;stroke-linecap:round;stroke-linejoin:round;-inkscape-stroke:none;paint-order:fill markers stroke;stop-color:#000000"
         d="m 880.93148,744.0449 c -117.01596,27.5981 -303.57914,307.9948 -303.57914,307.9948 -1.02683,-51.3492 21.73362,-119.43323 56.75806,-224.67714 1.85334,-5.56903 -185.18316,94.97328 -185.18316,94.97328 C 489.29652,815.98248 540.24906,726.06013 735.2135,677.80944 674.3101,660.08515 389.67465,782.41576 317.93016,898.59428 287.27994,866.46347 352.03624,617.95014 548.46292,497.5406 c 9.73876,-5.96986 -299.19872,-13.47139 -293.13634,-22.92892 26.58005,-41.46584 195.37499,-111.471 298.5536,-116.66162 10.538,-0.53014 -5.81703,-52.27339 11.85562,-49.61414 93.0227,13.99738 294.95677,117.70895 320.71531,125.50627 11.55438,3.49761 -162.84895,-164.93267 -152.58048,-161.93023 136.8024,40.00016 347.97507,209.39898 347.97507,209.39898 -0.1923,-45.68323 -37.7024,-163.19601 -96.76653,-202.99206 0,0 302.09643,172.08218 339.62983,269.22751 37.5334,97.14533 28.702,167.79647 28.702,167.79647 l -243.7525,34.92308 c 0,0 -111.71105,-33.81914 -228.72702,-6.22104 z"
         id="path1637"
         sodipodi:nodetypes="zcscccssssssccsccz"
         inkscape:label="top hair" />
      <path
         id="path13483"
         style="display:inline;opacity:1;fill:#ffcb4c;stroke:#ffcb4c;stroke-width:64;stroke-linecap:round;stroke-linejoin:round;stroke-miterlimit:4;stroke-dasharray:6.4, 6.4;stroke-dashoffset:0;stroke-opacity:1;paint-order:fill markers stroke;stop-color:#000000"
         inkscape:label="right ear"
         d="m 1432.8945,59.611328 c -116.6037,50.879342 -268.7318,256.969552 -314.5249,373.390652 -7.0421,17.90327 52.4496,-18.139 47.3745,-2.47073 -47.805,117.33716 -87.7163,235.07161 -133.3603,352.85242 0,0 23.5156,-25.5206 39.6006,-19.38367 8.0424,3.06847 17.539,6.87593 27.9336,11.39453 10.3946,4.5186 21.6863,9.74749 33.3203,15.66016 11.634,5.91267 23.6104,12.50909 35.3711,19.75976 5.8803,3.62534 11.7068,7.41396 17.4101,11.36328 5.7034,3.94933 11.2827,8.05792 16.67,12.32422 5.3872,4.26631 10.5815,8.68935 15.5136,13.26563 4.9321,4.57628 9.6016,9.3063 13.9395,14.18554 4.3378,4.87925 8.3447,9.90879 11.9492,15.08399 3.6045,5.1752 6.807,10.49679 9.5391,15.96094 2.732,5.46414 5.301,11.26343 7.7148,17.33398 2.4138,6.07055 4.672,12.41233 6.7871,18.96289 2.1151,6.55057 4.0857,13.3087 5.9219,20.21289 1.8362,6.90419 3.5383,13.95451 5.1152,21.08594 3.1538,14.26285 5.8083,28.8541 8.043,43.26755 2.2346,14.4135 4.0505,28.6482 5.5234,42.2012 1.473,13.553 2.6041,26.4241 3.4727,38.1055 0.8686,11.6814 1.4728,22.1739 1.8945,30.9726 0.8434,17.5974 0.9512,28.418 0.9512,28.418 15.8767,-19.2648 64.9089,-26.5656 84.1532,-52.1339 15.5375,-20.6433 0.8964,-58.5749 17.3053,-82.5279 17.2675,-25.20638 76.5282,68.6723 93.4166,40.6123 20.944,-34.7984 -0.7717,-192.19117 17.215,-229.94476 18.0495,-37.88548 96.5065,89.62482 108.9261,50.36465 5.4186,-17.12896 2.6817,-54.25389 -3.1343,-97.505 -1.3065,-9.71607 15.9658,-13.49656 14.406,-23.6737 -11.5587,-75.41955 -47.2247,-165.42703 -46.1082,-193.54131 1.245,-31.35146 66.9668,25.63455 65.7831,-3.38777 -0.6351,-15.57148 -12.6781,-45.49201 -26.995,-77.67789 -3.3981,-7.63945 8.6874,-18.52888 5.1552,-26.26199 -17.8378,-39.05204 -51.4397,-74.11569 -53.8527,-90.62634 -8.0192,-54.87121 78.179,-8.06877 64.3454,-49.64358 -16.9038,-50.80179 -60.4222,-114.05262 -103.6207,-165.21249 -4.6741,-5.53551 14.0733,-15.61303 9.4408,-20.83435 -39.5907,-44.623107 -99.8338,-71.953242 -112.596,-71.953242 z"
         sodipodi:nodetypes="csccsssssssssssssssssscsssssssssssssssc" />
      <g
         id="g13003"
         inkscape:label="face">
        <path
           style="opacity:1;fill:none;fill-opacity:1;stroke:#65471b;stroke-width:64;stroke-linecap:round;stroke-linejoin:round;stroke-miterlimit:4;stroke-dasharray:none;stroke-dashoffset:0;stroke-opacity:1;paint-order:fill markers stroke;stop-color:#000000"
           d="m 83.898236,1201.0695 68.443294,6.6235 -37.53342,39.7413"
           id="path2163"
           inkscape:label="left nostril" />
        <path
           style="opacity:1;fill:none;fill-opacity:1;stroke:#65471b;stroke-width:64;stroke-linecap:round;stroke-linejoin:round;stroke-miterlimit:4;stroke-dasharray:none;stroke-dashoffset:0;stroke-opacity:1;paint-order:fill markers stroke;stop-color:#000000"
           d="m 401.82839,1251.85 -59.6119,-44.157 121.43166,-17.6628"
           id="path2198"
           inkscape:label="right nostril" />
        <path
           style="opacity:1;fill:none;fill-opacity:1;stroke:#65471b;stroke-width:64;stroke-linecap:round;stroke-linejoin:round;stroke-miterlimit:4;stroke-dasharray:none;stroke-dashoffset:0;stroke-opacity:1;paint-order:fill markers stroke;stop-color:#000000"
           d="m 132.4709,1346.7875 90.52178,-72.859 c 0,0 146.93476,106.6315 222.99268,101.561 66.23545,-4.4157 119.2238,-37.5334 119.2238,-37.5334"
           id="path2200"
           sodipodi:nodetypes="ccsc"
           inkscape:label="mouf" />
        <path
           style="opacity:1;fill:#ffffff;fill-opacity:1;stroke:#65471b;stroke-width:64;stroke-linecap:round;stroke-linejoin:round;stroke-miterlimit:4;stroke-dasharray:none;stroke-dashoffset:0;stroke-opacity:1;paint-order:fill markers stroke;stop-color:#000000"
           d="m 222.99268,1530.0389 -90.52178,-183.2514 90.52178,-72.859 103.76887,66.2354 z"
           id="path2202"
           sodipodi:nodetypes="ccccc"
           inkscape:label="toof" />
      </g>
      <g
         id="g12993"
         inkscape:label="right eye">
        <path
           style="opacity:1;fill:#65471b;fill-opacity:1;stroke:#65471b;stroke-width:64;stroke-linecap:round;stroke-linejoin:round;stroke-miterlimit:4;stroke-dasharray:none;stroke-dashoffset:0;stroke-opacity:1;paint-order:fill markers stroke;stop-color:#000000"
           d="m 661.97569,1226.0485 53.36716,-115.5008 86.53085,168.711 z"
           id="path7852"
           inkscape:label="eyenub"
           sodipodi:nodetypes="cccc" />
        <path
           id="path1915"
           style="opacity:1;fill:#fefefe;stroke:#65471b;stroke-width:64;stroke-linecap:round;stroke-linejoin:round;paint-order:fill markers stroke;stop-color:#000000"
           inkscape:label="righteye"
           d="m 1150.289,1075.2222 c 0,120.7167 -151.8603,218.5769 -272.57702,218.5769 -120.71671,0 -164.57695,-71.8602 -164.57699,-192.5769 -2e-5,-120.71675 97.86024,-244.57702 218.57699,-244.57701 120.71672,-2e-5 218.57702,97.86025 218.57702,218.57701 z"
           sodipodi:nodetypes="sssss" />
        <path
           style="opacity:1;fill:#ffffff;fill-opacity:1;stroke:#65471b;stroke-width:48;stroke-linecap:round;stroke-linejoin:round;stroke-miterlimit:4;stroke-dasharray:none;stroke-dashoffset:0;stroke-opacity:1;paint-order:fill markers stroke;stop-color:#000000"
           d="m 841.19021,982.4925 v 189.8749"
           id="path2350"
           inkscape:label="right pupil" />
      </g>
      <path
         style="opacity:1;fill:none;fill-opacity:1;stroke:#ffcb4c;stroke-width:32;stroke-linecap:round;stroke-linejoin:round;stroke-miterlimit:4;stroke-dasharray:none;stroke-dashoffset:0;stroke-opacity:1;paint-order:fill markers stroke;stop-color:#000000"
         d="M 490.79011,111.05071 C 667.79224,334.35133 789.38082,574.61025 803.50666,847.75616"
         id="path6280"
         sodipodi:nodetypes="cc"
         inkscape:label="eyelash right big" />
      <path
         style="display:inline;fill:none;fill-opacity:1;stroke:#ffcb4c;stroke-width:32;stroke-linecap:round;stroke-linejoin:round;stroke-miterlimit:4;stroke-dasharray:none;stroke-dashoffset:0;stroke-opacity:1;paint-order:fill markers stroke;stop-color:#000000"
         d="m 761.52588,280.68096 c 57.33566,162.60107 95.67474,355.38513 98.55015,516.11928"
         id="path6280-0"
         sodipodi:nodetypes="cc"
         inkscape:label="eyelash right small" />
    </g>
  </g>
</svg>
