<?xml version="1.0" encoding="UTF-8" standalone="no"?>
<!-- Created with Inkscape (http://www.inkscape.org/) -->

<svg
   version="1.1"
   id="svg824"
   width="1706.6667"
   height="1706.6667"
   viewBox="0 0 1706.6667 1706.6667"
   sodipodi:docname="ying_look_back_happy.svg"
   inkscape:version="1.3.2 (091e20e, 2023-11-25, custom)"
   inkscape:export-filename="D:\Pictures\yingmotes\ying.png"
   inkscape:export-xdpi="72"
   inkscape:export-ydpi="72"
   xmlns:inkscape="http://www.inkscape.org/namespaces/inkscape"
   xmlns:sodipodi="http://sodipodi.sourceforge.net/DTD/sodipodi-0.dtd"
   xmlns="http://www.w3.org/2000/svg"
   xmlns:svg="http://www.w3.org/2000/svg">
  <defs
     id="defs828" />
  <sodipodi:namedview
     id="namedview826"
     pagecolor="#ffffff"
     bordercolor="#666666"
     borderopacity="1.0"
     inkscape:pageshadow="2"
     inkscape:pageopacity="0.0"
     inkscape:pagecheckerboard="0"
     showgrid="false"
     inkscape:zoom="0.16013482"
     inkscape:cx="1248.9476"
     inkscape:cy="352.82771"
     inkscape:window-width="1920"
     inkscape:window-height="1001"
     inkscape:window-x="-9"
     inkscape:window-y="-9"
     inkscape:window-maximized="1"
     inkscape:current-layer="g12988"
     inkscape:showpageshadow="2"
     inkscape:deskcolor="#d1d1d1" />
  <g
     id="layer1"
     inkscape:label="Ying"
     style="display:inline"
     inkscape:groupmode="layer">
    <path
       style="display:none;opacity:1;fill:#123456;fill-opacity:1;stroke:#123456;stroke-width:43.8994;stroke-linecap:round;stroke-linejoin:round;stroke-opacity:1;paint-order:stroke fill markers;stop-color:#000000"
       d="m 516.15899,410.37496 c -122.49378,71.88366 -273.86434,101.05096 -319.26059,286.982 82.48658,77.75121 49.22107,154.5947 55.29692,231.74674 -136.08133,198.131 -86.50493,435.2747 -119.26002,641.601 66.89955,-76.5444 128.32471,1.9929 239.14336,-4.3121 54.00003,-3.072 127.05146,-53.9025 167.9738,-49.1499 96.96603,11.2607 92.78167,56.8225 109.60139,74.6484 C 813.09825,1206.7734 523.52035,805.82626 516.15899,410.37496 Z"
       id="path4238"
       inkscape:label="mane"
       sodipodi:nodetypes="ccccsscc"
       inkscape:transform-center-x="45.661346"
       inkscape:transform-center-y="436.5143" />
    <path
       style="display:inline;opacity:1;fill:#ffcb4c;fill-opacity:1;stroke:#ffcb4c;stroke-width:58.5326;stroke-linecap:round;stroke-linejoin:round;stroke-miterlimit:4;stroke-dasharray:none;stroke-dashoffset:0;stroke-opacity:1;paint-order:fill markers stroke;stop-color:#000000"
       d="M 612.56355,345.07464 C 575.68406,320.66331 503.5184,221.61377 445.05074,190.83538 429.91793,182.8692 433.31576,234.46518 417.68368,228.18369 336.37127,195.50964 231.38745,210.8049 184.01741,207.8583 c -39.69273,-2.46905 66.30654,34.51798 28.54034,42.40458 -60.14907,12.56075 -239.205962,22.45195 -292.284424,60.28649 -18.398044,13.1142 85.4816429,43.32181 68.150135,59.37371 -120.567101,111.66548 -213.975851,293.798 -261.419231,537.83425 L -67.238326,1175.3829 C -63.55994,715.51425 223.07102,455.42094 516.00133,612.33146 Z"
       id="path3340"
       inkscape:label="neck"
       sodipodi:nodetypes="csssssscccc" />
    <g
       id="g12988"
       inkscape:label="head"
       transform="matrix(-0.88691748,-0.22319919,-0.22319919,0.88691748,1810.3756,375.0245)"
       style="display:inline">
      <path
         style="display:inline;fill:none;fill-opacity:1;stroke:#f19020;stroke-width:32;stroke-linecap:round;stroke-linejoin:round;stroke-miterlimit:4;stroke-dasharray:none;stroke-dashoffset:0;stroke-opacity:1;paint-order:fill markers stroke;stop-color:#000000"
         d="M 360.1487,1228.3124 C 462.80565,1089.7915 556.19188,916.83313 606.25175,764.06619"
         id="path6280-0-6"
         sodipodi:nodetypes="cc"
         inkscape:label="eyelash left small"
         inkscape:transform-center-x="100.48319"
         inkscape:transform-center-y="185.17877" />
      <path
         style="display:inline;fill:none;fill-opacity:1;stroke:#f19020;stroke-width:32;stroke-linecap:round;stroke-linejoin:round;stroke-miterlimit:4;stroke-dasharray:none;stroke-dashoffset:0;stroke-opacity:1;paint-order:fill markers stroke;stop-color:#000000"
         d="M 375.93389,1481.3565 C 556.75268,1261.1351 682.45795,1023.0042 701.28237,750.14182"
         id="path6280-3"
         sodipodi:nodetypes="cc"
         inkscape:label="eyelash left big"
         inkscape:transform-center-x="163.18961"
         inkscape:transform-center-y="321.67074" />
      <g
         id="g12997"
         inkscape:label="left eye"
         transform="matrix(1,0,0,-1,6.2447382,1625.2897)"
         style="fill:#d19020;fill-opacity:1">
        <path
           id="path1915-9"
           style="display:inline;fill:#d19020;stroke:#65471b;stroke-width:64;stroke-linecap:round;stroke-linejoin:round;paint-order:fill markers stroke;stop-color:#000000;fill-opacity:1"
           inkscape:label="lefteye"
           d="m 792.61751,1048.7279 c 10e-6,120.7167 -155.86024,218.577 -276.57698,218.577 -120.71674,0 -160.57699,-55.8603 -160.57698,-176.577 0,-120.71673 97.86025,-260.57698 218.57698,-260.57698 120.71673,0 218.57698,97.86025 218.57698,218.57698 z"
           sodipodi:nodetypes="sssss" />
      </g>
      <path
         style="display:inline;fill:none;fill-opacity:1;stroke:#65471b;stroke-width:58.6067;stroke-linecap:round;stroke-linejoin:round;stroke-dashoffset:192;stroke-opacity:1;paint-order:fill markers stroke"
         d="m 827.04917,591.03862 c 0,0 -116.8443,81.62864 -237.25785,54.06147 C 469.37772,617.53292 365.41951,497.96274 365.41951,497.96274"
         id="path1-6" />
      <path
         style="opacity:1;fill:#f19020;fill-opacity:1;stroke:#f19020;stroke-width:64;stroke-linecap:round;stroke-miterlimit:4;stroke-dasharray:none;stroke-dashoffset:0;stroke-opacity:1;paint-order:fill markers stroke;stop-color:#000000"
         d="m 845.2271,790.72299 c 0,0 -47.96997,170.62296 -41.94911,353.25581 6.62354,200.9142 83.89823,417.2833 152.34153,421.699 68.44328,4.4157 178.83568,-192.0828 207.53768,-331.1772 28.702,-139.0945 -4.4157,-445.98546 -4.4157,-445.98546 z"
         id="path1640"
         inkscape:label="left ear"
         sodipodi:nodetypes="cssscc" />
      <path
         id="path1148"
         style="display:inline;opacity:1;fill:#ffcb4c;stroke:#ffcb4c;stroke-width:64;stroke-linecap:round;stroke-linejoin:round;stroke-miterlimit:4;stroke-dasharray:6.4, 6.4;stroke-dashoffset:0;stroke-opacity:1;paint-order:fill markers stroke;stop-color:#000000"
         inkscape:label="head"
         d="m 1305.2994,471.73105 c 0,0 -0.1078,10.8206 -0.9512,28.418 -0.4217,8.7987 -1.0259,19.2912 -1.8945,30.9726 -0.8686,11.6814 -1.9997,24.5525 -3.4727,38.1055 -1.4729,13.553 -3.2888,27.7877 -5.5234,42.2012 -2.2347,14.41345 -4.8892,29.0047 -8.043,43.26755 -1.5769,7.13143 -3.279,14.18175 -5.1152,21.08594 -1.8362,6.90419 -3.8068,13.66232 -5.9219,20.21289 -2.1151,6.55056 -4.3733,12.89234 -6.7871,18.96289 -2.4138,6.07055 -4.9828,11.86984 -7.7148,17.33398 -2.7321,5.46415 -5.9346,10.78574 -9.5391,15.96094 -3.6045,5.1752 -7.6114,10.20474 -11.9492,15.08399 -4.3379,4.87924 -9.0074,9.60926 -13.9395,14.18554 -4.9321,4.57628 -10.1264,8.99932 -15.5136,13.26563 -5.3873,4.2663 -10.9666,8.37489 -16.67,12.32422 -5.7033,3.94932 -11.5298,7.73794 -17.4101,11.36333 -11.7607,7.2506 -23.7371,13.847 -35.3711,19.7597 -11.634,5.9127 -22.9257,11.1416 -33.3203,15.6602 -10.3946,4.5186 -19.8912,8.326 -27.9336,11.3945 -16.085,6.1369 -26.3535,9.3184 -26.3535,9.3184 -106.83131,15.9881 -232.17457,-6.9695 -312.625,-60.01371 C 637.98326,743.82466 602.36333,633.96489 540.54357,598.63925 c -61.81975,-35.3255 -225.20029,-77.273 -280.39649,-83.8965 -55.19621,-6.6235 -183.250356,-6.6246 -161.171873,-123.6406 22.078483,-117.016 112.599213,-282.6048 377.541013,-247.2793 264.94179,35.3256 313.51517,44.1575 536.50778,88.3145 22.8973,4.5341 53.8481,18.3195 86.8281,36.9472 l 213.8711,11.4278 -92.9258,75.2558 c 5.3578,4.8405 10.5999,9.7184 15.6328,14.6367 l 142.0762,2.375 -84.8808,69.668 c 3.4806,6.5537 6.4805,13.0207 8.6269,19.3066 1.0523,3.0817 2.0328,6.6268 3.0469,9.9766 z" />
      <path
         style="display:none;fill:#123456;stroke:#123456;stroke-width:64;stroke-linecap:round;stroke-linejoin:round;-inkscape-stroke:none;paint-order:fill markers stroke;stop-color:#000000"
         d="M 798.22246,841.12833 C 500.18721,736.17151 341.69143,1175.8774 332.853,1217.7467 c 123.70166,-51.777 194.61257,-199.4689 319.24302,-311.28897 -47.49524,138.30387 -195.60723,379.74167 -72.55938,621.13267 0,0 36.69494,-226.1153 223.96839,-283.116 165.41212,-50.3467 102.82908,-40.0181 102.82908,-40.0181 -0.47598,45.6812 107.05439,245.4142 209.65869,357.6639 0,0 86.6432,-424.8314 124.779,-521.7418 38.1359,-96.91044 29.7433,-167.6151 29.7433,-167.6151 l -135.1118,114.30895 c 0.07,0.1882 -39.1452,-40.98729 -337.18084,-145.94392 z"
         id="path1637"
         sodipodi:nodetypes="zcccsccsccz"
         inkscape:label="top hair"
         inkscape:transform-center-x="-207.19152"
         inkscape:transform-center-y="206.95576" />
      <path
         id="path13483"
         style="display:inline;opacity:1;fill:#ffcb4c;stroke:#ffcb4c;stroke-width:64;stroke-linecap:round;stroke-linejoin:round;stroke-miterlimit:4;stroke-dasharray:6.4, 6.4;stroke-dashoffset:0;stroke-opacity:1;paint-order:fill markers stroke;stop-color:#000000"
         inkscape:label="right ear"
         d="m 1289.2637,1585.4774 c -78.5123,-12.3811 -192.4882,-318.7454 -206.1105,-408.0066 -12.1285,-79.4731 -55.74,-281.61133 -68.1536,-338.90377 0,0 10.6387,-1.54313 27.4834,-5.09953 8.4222,-1.77827 18.3959,-4.05989 29.3675,-6.90415 10.9716,-2.84426 22.94,-6.2504 35.353,-10.27868 12.413,-4.02828 25.2707,-8.67857 38.0173,-14.00868 6.3733,-2.66516 12.7188,-5.49993 18.9677,-8.51263 6.2489,-3.01269 12.4001,-6.20203 18.3863,-9.57706 5.986,-3.37506 11.8058,-6.93499 17.3906,-10.68712 5.5847,-3.75214 10.934,-7.69705 15.979,-11.841 5.0449,-4.14399 9.7864,-8.48797 14.153,-13.03852 4.3667,-4.55055 8.359,-9.30832 11.9089,-14.28019 3.5499,-4.97187 6.9909,-10.30019 10.3208,-15.92064 3.33,-5.62044 6.5485,-11.53305 9.6581,-17.67417 3.1097,-6.14114 6.109,-12.50981 8.9982,-19.04369 2.8893,-6.53388 5.6689,-13.233 8.3374,-20.03174 5.337,-13.59748 10.232,-27.59712 14.6847,-41.48652 4.4525,-13.88947 8.4636,-27.66754 12.0297,-40.82567 3.5662,-13.15811 6.6884,-25.6959 9.3661,-37.0994 2.6776,-11.4035 4.9088,-21.67381 6.696,-30.29941 3.5743,-17.25121 5.3663,-27.92294 5.3663,-27.92294 77.3716,131.18639 217.0679,403.7455 191.0382,625.74641 -35.638,303.9458 -178.3245,483.7246 -229.2381,475.6957 z"
         inkscape:transform-center-x="109.14096"
         inkscape:transform-center-y="352.80529" />
      <g
         id="g13003"
         inkscape:label="face"
         transform="matrix(1,0,0,-1,6.2447382,1625.2897)">
        <path
           style="opacity:1;fill:none;fill-opacity:1;stroke:#65471b;stroke-width:64;stroke-linecap:round;stroke-linejoin:round;stroke-miterlimit:4;stroke-dasharray:none;stroke-dashoffset:0;stroke-opacity:1;paint-order:fill markers stroke;stop-color:#000000"
           d="m 83.898236,1201.0695 68.443294,6.6235 -37.53342,39.7413"
           id="path2163"
           inkscape:label="left nostril" />
        <path
           style="opacity:1;fill:none;fill-opacity:1;stroke:#65471b;stroke-width:64;stroke-linecap:round;stroke-linejoin:round;stroke-miterlimit:4;stroke-dasharray:none;stroke-dashoffset:0;stroke-opacity:1;paint-order:fill markers stroke;stop-color:#000000"
           d="m 401.82839,1251.85 -59.6119,-44.157 121.43166,-17.6628"
           id="path2198"
           inkscape:label="right nostril" />
        <path
           style="opacity:1;fill:none;fill-opacity:1;stroke:#65471b;stroke-width:64;stroke-linecap:round;stroke-linejoin:round;stroke-miterlimit:4;stroke-dasharray:none;stroke-dashoffset:0;stroke-opacity:1;paint-order:fill markers stroke;stop-color:#000000"
           d="m 132.4709,1346.7875 90.52178,-72.859 c 0,0 165.99559,116.9166 242.05351,111.8461 66.23545,-4.4157 137.23998,-79.6992 137.23998,-79.6992"
           id="path2200"
           sodipodi:nodetypes="ccsc"
           inkscape:label="mouf" />
        <path
           style="opacity:1;fill:#ffffff;fill-opacity:1;stroke:#65471b;stroke-width:64;stroke-linecap:round;stroke-linejoin:round;stroke-miterlimit:4;stroke-dasharray:none;stroke-dashoffset:0;stroke-opacity:1;paint-order:fill markers stroke;stop-color:#000000"
           d="m 222.99268,1530.0389 -90.52178,-183.2514 90.52178,-72.859 103.76887,66.2354 z"
           id="path2202"
           sodipodi:nodetypes="ccccc"
           inkscape:label="toof" />
      </g>
      <g
         id="g12993"
         inkscape:label="right eye"
         transform="matrix(1,0,0,-1,6.2447382,1625.2897)"
         style="fill:#d19020;fill-opacity:1">
        <path
           style="opacity:1;fill:#d19020;fill-opacity:1;stroke:#65471b;stroke-width:64;stroke-linecap:round;stroke-linejoin:round;stroke-miterlimit:4;stroke-dasharray:none;stroke-dashoffset:0;stroke-opacity:1;paint-order:fill markers stroke;stop-color:#000000"
           d="m 661.97569,1226.0485 53.36716,-115.5008 86.53085,168.711 z"
           id="path7852"
           inkscape:label="eyenub"
           sodipodi:nodetypes="cccc" />
        <path
           id="path1915"
           style="opacity:1;fill:#d19020;stroke:#65471b;stroke-width:64;stroke-linecap:round;stroke-linejoin:round;paint-order:fill markers stroke;stop-color:#000000;fill-opacity:1"
           inkscape:label="righteye"
           d="m 1150.289,1075.2222 c 0,120.7167 -151.8603,218.5769 -272.57702,218.5769 -120.71671,0 -164.57695,-71.8602 -164.57699,-192.5769 -2e-5,-120.71675 97.86024,-244.57702 218.57699,-244.57701 120.71672,-2e-5 218.57702,97.86025 218.57702,218.57701 z"
           sodipodi:nodetypes="sssss" />
      </g>
      <path
         style="opacity:1;fill:none;fill-opacity:1;stroke:#ffcb4c;stroke-width:32;stroke-linecap:round;stroke-linejoin:round;stroke-miterlimit:4;stroke-dasharray:none;stroke-dashoffset:0;stroke-opacity:1;paint-order:fill markers stroke;stop-color:#000000"
         d="M 583.8119,1550.5605 C 709.41352,1294.7928 777.2653,1034.2083 733.12357,764.28281"
         id="path6280"
         sodipodi:nodetypes="cc"
         inkscape:label="eyelash right big"
         inkscape:transform-center-x="75.603329"
         inkscape:transform-center-y="356.55721" />
      <path
         style="display:inline;fill:none;fill-opacity:1;stroke:#ffcb4c;stroke-width:32;stroke-linecap:round;stroke-linejoin:round;stroke-miterlimit:4;stroke-dasharray:none;stroke-dashoffset:0;stroke-opacity:1;paint-order:fill markers stroke;stop-color:#000000"
         d="M 829.31361,1336.8614 C 848.15343,1165.4801 841.62809,969.02908 807.86049,811.85561"
         id="path6280-0"
         sodipodi:nodetypes="cc"
         inkscape:label="eyelash right small"
         inkscape:transform-center-x="-16.108796"
         inkscape:transform-center-y="225.10948" />
      <path
         style="fill:none;fill-opacity:1;stroke:#65471b;stroke-width:58.6067;stroke-linecap:round;stroke-linejoin:round;stroke-dashoffset:192;paint-order:fill markers stroke;stroke-opacity:1"
         d="m 1156.5337,550.06752 c 0,0 -116.8443,81.62864 -237.25785,54.06147 C 798.86225,576.56182 694.90404,456.99164 694.90404,456.99164"
         id="path1" />
    </g>
  </g>
</svg>
