<?xml version="1.0" encoding="UTF-8" standalone="no"?>
<!-- Created with Inkscape (http://www.inkscape.org/) -->

<svg
   version="1.1"
   id="svg824"
   width="1706.6667"
   height="1706.6667"
   viewBox="0 0 1706.6667 1706.6667"
   sodipodi:docname="ying_head_empty_blush.svg"
   inkscape:version="1.1 (c68e22c387, 2021-05-23)"
   inkscape:export-filename="D:\Pictures\yingmotes\ying.png"
   inkscape:export-xdpi="72"
   inkscape:export-ydpi="72"
   xmlns:inkscape="http://www.inkscape.org/namespaces/inkscape"
   xmlns:sodipodi="http://sodipodi.sourceforge.net/DTD/sodipodi-0.dtd"
   xmlns:xlink="http://www.w3.org/1999/xlink"
   xmlns="http://www.w3.org/2000/svg"
   xmlns:svg="http://www.w3.org/2000/svg">
  <defs
     id="defs828">
    <linearGradient
       inkscape:collect="always"
       id="linearGradient1433">
      <stop
         style="stop-color:#ff0000;stop-opacity:1"
         offset="0"
         id="stop1429" />
      <stop
         style="stop-color:#ffcb4c;stop-opacity:0;"
         offset="1"
         id="stop1431" />
    </linearGradient>
    <radialGradient
       inkscape:collect="always"
       xlink:href="#linearGradient1433"
       id="radialGradient1435"
       cx="871.45715"
       cy="1399.3763"
       fx="871.45715"
       fy="1399.3763"
       r="672.19686"
       gradientTransform="matrix(1.46267,-0.13822249,0.07210835,0.76304725,-508.11748,434.96159)"
       gradientUnits="userSpaceOnUse" />
  </defs>
  <sodipodi:namedview
     id="namedview826"
     pagecolor="#ffffff"
     bordercolor="#666666"
     borderopacity="1.0"
     inkscape:pageshadow="2"
     inkscape:pageopacity="0.0"
     inkscape:pagecheckerboard="0"
     showgrid="false"
     inkscape:zoom="0.39118132"
     inkscape:cx="695.32973"
     inkscape:cy="919.01116"
     inkscape:window-width="1920"
     inkscape:window-height="1001"
     inkscape:window-x="-9"
     inkscape:window-y="-9"
     inkscape:window-maximized="1"
     inkscape:current-layer="g12997">
    <inkscape:grid
       type="xygrid"
       id="grid2997" />
  </sodipodi:namedview>
  <g
     id="layer1"
     inkscape:label="Ying"
     style="display:inline"
     inkscape:groupmode="layer">
    <path
       style="display:none;fill:#123456;stroke:#123456;stroke-width:64;stroke-linecap:round;stroke-linejoin:round;-inkscape-stroke:none;paint-order:fill markers stroke;stop-color:#000000"
       d="m 1298.031,865.09775 c 70.7982,131.45402 185.3824,239.02475 198.7064,401.82835 -29.438,-19.1346 -55.9321,-14.719 -79.4825,13.2471 91.0222,54.7003 58.5139,175.917 81.6903,267.1496 l -99.3531,6.6236 c 66.7588,58.9185 81.773,128.1858 90.5218,198.7063 l -494.50725,2.2079 c -24.3802,-41.4813 23.11455,-208.5632 66.23555,-227.0436 0,0 3.3791,-20.0154 -75.35325,-9.4549 C 1015.23,1271.0896 1172.1837,1096.1858 1298.031,865.09775 Z"
       id="path3091"
       sodipodi:nodetypes="cccccccccc"
       inkscape:label="mane" />
    <path
       style="opacity:1;fill:#ffcb4c;fill-opacity:1;stroke:#ffcb4c;stroke-width:64;stroke-linecap:round;stroke-linejoin:round;stroke-miterlimit:4;stroke-dasharray:none;stroke-dashoffset:0;stroke-opacity:1;paint-order:fill markers stroke;stop-color:#000000"
       d="m 926.15253,1395.0907 -64.7849,239.5079 62.82173,-25.5214 -51.04266,200.2443 459.3839,-15.7054 c 0,0 -127.6066,-94.2326 -149.2016,-184.5389 -21.5949,-90.3062 51.0427,-253.25 51.0427,-253.25 z"
       id="path3340"
       inkscape:label="neck" />
    <g
       id="g12988"
       inkscape:label="head">
      <path
         style="display:inline;fill:none;fill-opacity:1;stroke:#f19020;stroke-width:32;stroke-linecap:round;stroke-linejoin:round;stroke-miterlimit:4;stroke-dasharray:none;stroke-dashoffset:0;stroke-opacity:1;paint-order:fill markers stroke;stop-color:#000000"
         d="m 279.8165,613.67239 c 146.95696,90.16728 298.17327,215.74277 401.65747,338.76616"
         id="path6280-0-6"
         sodipodi:nodetypes="cc"
         inkscape:label="eyelash left small" />
      <path
         style="display:inline;fill:none;fill-opacity:1;stroke:#f19020;stroke-width:32;stroke-linecap:round;stroke-linejoin:round;stroke-miterlimit:4;stroke-dasharray:none;stroke-dashoffset:0;stroke-opacity:1;paint-order:fill markers stroke;stop-color:#000000"
         d="M 201.87715,418.70816 C 451.93334,555.3274 657.57297,729.16778 777.07612,975.19059"
         id="path6280-3"
         sodipodi:nodetypes="cc"
         inkscape:label="eyelash left big" />
      <g
         id="g12997"
         inkscape:label="left eye"
         transform="translate(65.569751,103.03818)">
        <path
           id="path1915-9"
           style="display:inline;fill:#fefefe;stroke:#65471b;stroke-width:64;stroke-linecap:round;stroke-linejoin:round;paint-order:fill markers stroke;stop-color:#000000"
           inkscape:label="lefteye"
           d="m 792.61751,1048.7279 c 10e-6,120.7167 -155.86024,218.577 -276.57698,218.577 -120.71674,0 -160.57699,-55.8603 -160.57698,-176.577 0,-120.71673 97.86025,-260.57698 218.57698,-260.57698 120.71673,0 218.57698,97.86025 218.57698,218.57698 z"
           sodipodi:nodetypes="sssss" />
        <path
           style="opacity:1;fill:#ffffff;fill-opacity:1;stroke:#65471b;stroke-width:48;stroke-linecap:round;stroke-linejoin:round;stroke-miterlimit:4;stroke-dasharray:none;stroke-dashoffset:0;stroke-opacity:1;paint-order:fill markers stroke;stop-color:#000000"
           d="M 498.97372,977.92103 V 1117.327"
           id="path2372"
           inkscape:label="left pupil" />
      </g>
      <path
         style="opacity:1;fill:#f19020;fill-opacity:1;stroke:#f19020;stroke-width:64;stroke-linecap:round;stroke-miterlimit:4;stroke-dasharray:none;stroke-dashoffset:0;stroke-opacity:1;paint-order:fill markers stroke;stop-color:#000000"
         d="m 904.55211,937.60484 c 0,0 -47.96997,-170.62298 -41.94911,-353.25573 6.62354,-200.91419 83.89823,-417.28333 152.3415,-421.69902 68.4434,-4.4157 178.8358,192.0828 207.5378,331.17724 28.702,139.09445 -4.4157,445.98536 -4.4157,445.98536 z"
         id="path1640"
         inkscape:label="left ear"
         sodipodi:nodetypes="cssscc" />
      <path
         id="path1148"
         style="display:inline;opacity:1;fill:#ffcb4c;stroke:#ffcb4c;stroke-width:64;stroke-linecap:round;stroke-linejoin:round;stroke-miterlimit:4;stroke-dasharray:6.4, 6.4;stroke-dashoffset:0;stroke-opacity:1;paint-order:fill markers stroke;stop-color:#000000"
         inkscape:label="head"
         d="m 1364.6245,1256.5968 c 0,0 -0.1078,-10.8206 -0.9512,-28.418 -0.4217,-8.7987 -1.0259,-19.2912 -1.8945,-30.9726 -0.8686,-11.6814 -1.9997,-24.5525 -3.4727,-38.1055 -1.4729,-13.553 -3.2888,-27.7877 -5.5234,-42.2012 -2.2347,-14.4135 -4.8892,-29.0047 -8.043,-43.2676 -1.5769,-7.1314 -3.279,-14.1817 -5.1152,-21.0859 -1.8362,-6.9042 -3.8068,-13.6623 -5.9219,-20.2129 -2.1151,-6.5506 -4.3733,-12.8923 -6.7871,-18.9629 -2.4138,-6.0705 -4.9828,-11.8698 -7.7148,-17.33397 -2.7321,-5.46415 -5.9346,-10.78574 -9.5391,-15.96094 -3.6045,-5.1752 -7.6114,-10.20474 -11.9492,-15.08399 -4.3379,-4.87924 -9.0074,-9.60926 -13.9395,-14.18554 -4.9321,-4.57628 -10.1264,-8.99932 -15.5136,-13.26563 -5.3873,-4.2663 -10.9666,-8.37489 -16.67,-12.32422 -5.7033,-3.94932 -11.5298,-7.73794 -17.4101,-11.36328 -11.7607,-7.25067 -23.7371,-13.84709 -35.3711,-19.75976 -11.634,-5.91267 -22.9257,-11.14156 -33.3203,-15.66016 -10.3946,-4.5186 -19.8912,-8.32606 -27.9336,-11.39453 -16.085,-6.13693 -26.3535,-9.31836 -26.3535,-9.31836 -106.8314,-15.98813 -232.17466,6.96944 -312.62509,60.01367 -101.26734,66.76968 -136.88727,176.62941 -198.70703,211.95511 -61.81975,35.3255 -225.20029,77.273 -280.39649,83.8965 -55.19621,6.6235 -183.25035,6.6246 -161.17187,123.6406 22.07848,117.016 112.59921,282.6048 377.54101,247.2793 264.94179,-35.3256 313.51517,-44.1575 536.50787,-88.3145 22.8973,-4.5341 53.8481,-18.3195 86.8281,-36.9472 l 213.8711,-11.4278 -92.9258,-75.2558 c 5.3578,-4.8405 10.5999,-9.7184 15.6328,-14.6367 l 142.0762,-2.375 -84.8808,-69.668 c 3.4806,-6.5537 6.4805,-13.0207 8.6269,-19.3066 1.0523,-3.0817 2.0328,-6.6268 3.0469,-9.9766 z" />
      <path
         style="display:none;fill:#123456;stroke:#123456;stroke-width:64;stroke-linecap:round;stroke-linejoin:round;-inkscape-stroke:none;paint-order:fill markers stroke;stop-color:#000000"
         d="M 890.5988,828.98039 C 775.34837,863.2109 642.52856,1015.6526 642.52856,1015.6526 636.1317,932.83701 621.69417,849.75146 741.33862,771.16809 616.4215,770.83902 491.59456,770.30052 336.19799,840.76518 c 0,0 287.68903,-280.49593 473.34316,-307.90924 171.04966,-25.25683 266.65185,22.35368 266.65185,22.35368 -2.7988,-45.59782 -36.4428,-86.32024 -97.68156,-122.68102 0,0 300.91306,80.1046 343.92876,174.94984 43.0157,94.84524 38.2303,165.88521 38.2303,165.88521 l -241.3624,48.77561 c 0,0 -113.4588,-27.38937 -228.7093,6.84113 z"
         id="path1637"
         sodipodi:nodetypes="zcccsccsccz"
         inkscape:label="top hair" />
      <path
         id="path13483"
         style="display:inline;opacity:1;fill:#ffcb4c;stroke:#ffcb4c;stroke-width:64;stroke-linecap:round;stroke-linejoin:round;stroke-miterlimit:4;stroke-dasharray:6.4, 6.4;stroke-dashoffset:0;stroke-opacity:1;paint-order:fill markers stroke;stop-color:#000000"
         inkscape:label="right ear"
         d="m 1498.4643,162.64951 c -79.4826,0 -239.79,284.87028 -267.1504,370.91992 -24.3601,76.61362 -98.9266,269.49096 -120.1132,324.15039 0,0 10.2685,3.18143 26.3535,9.31836 8.0424,3.06847 17.539,6.87593 27.9336,11.39453 10.3946,4.5186 21.6863,9.74749 33.3203,15.66016 11.634,5.91267 23.6104,12.50909 35.3711,19.75976 5.8803,3.62534 11.7068,7.41396 17.4101,11.36328 5.7034,3.94933 11.2827,8.05792 16.67,12.32422 5.3872,4.26631 10.5815,8.68935 15.5136,13.26563 4.9321,4.57628 9.6016,9.3063 13.9395,14.18554 4.3378,4.87925 8.3447,9.90879 11.9492,15.08399 3.6045,5.1752 6.807,10.49679 9.5391,15.96094 2.732,5.46417 5.301,11.26347 7.7148,17.33397 2.4138,6.0706 4.672,12.4123 6.7871,18.9629 2.1151,6.5506 4.0857,13.3087 5.9219,20.2129 1.8362,6.9042 3.5383,13.9545 5.1152,21.0859 3.1538,14.2629 5.8083,28.8541 8.043,43.2676 2.2346,14.4135 4.0505,28.6482 5.5234,42.2012 1.473,13.553 2.6041,26.4241 3.4727,38.1055 0.8686,11.6814 1.4728,22.1739 1.8945,30.9726 0.8434,17.5974 0.9512,28.418 0.9512,28.418 96.8623,-117.5327 277.3103,-365.004 286.1797,-588.34964 12.1432,-305.78699 -100.7972,-505.59765 -152.3399,-505.59765 z" />
      <path
         id="path875"
         style="color:#000000;fill:url(#radialGradient1435);fill-opacity:1;stroke-width:64;stroke-linecap:round;stroke-linejoin:round;stroke-dasharray:6.4, 6.4;-inkscape-stroke:none;paint-order:fill markers stroke"
         inkscape:label="blush"
         d="m 1498.4434,130.64844 -0.01,0.002 c -4.1217,0.003 -8.0983,0.38817 -11.9063,1.06055 a 32,32 0 0 0 -4.9921,1.94336 32,32 0 0 0 -5.252,0.57031 c -3.2049,1.0077 -6.2476,2.16546 -9.1367,3.41992 a 32,32 0 0 0 -3.707,2.56836 32,32 0 0 0 -4.3047,1.29102 c -2.5441,1.34926 -4.9831,2.75565 -7.3262,4.19726 a 32,32 0 0 0 -2.998,2.78125 32,32 0 0 0 -3.7188,1.59766 c -2.1684,1.49036 -4.2842,3.01841 -6.3496,4.57812 a 32,32 0 0 0 -2.5293,2.83985 32,32 0 0 0 -3.3516,1.76172 c -1.9678,1.59168 -3.866,3.18806 -5.705,4.77734 a 32,32 0 0 0 -2.2598,2.90234 32,32 0 0 0 -3.1387,1.88867 c -1.7837,1.62297 -3.5374,3.2624 -5.2637,4.91407 a 32,32 0 0 0 -2.0449,2.91992 32,32 0 0 0 -2.9648,1.96484 c -1.6938,1.68223 -3.3341,3.35077 -4.9297,4.99805 a 32,32 0 0 0 -1.916,2.96875 32,32 0 0 0 -2.8438,2.0332 c -1.6099,1.71542 -3.1699,3.41199 -4.6875,5.08203 a 32,32 0 0 0 -1.7988,2.99219 32,32 0 0 0 -2.7578,2.09766 c -1.518,1.71633 -3.0172,3.43744 -4.5,5.16211 a 32,32 0 0 0 -1.6875,2.99023 32,32 0 0 0 -2.6875,2.15235 c -1.4502,1.72479 -2.8906,3.45863 -4.3223,5.20117 a 32,32 0 0 0 -1.6133,3.01367 32,32 0 0 0 -2.6171,2.1875 c -1.4036,1.7417 -2.8047,3.49681 -4.2012,5.26758 a 32,32 0 0 0 -1.5371,3.01562 32,32 0 0 0 -2.5567,2.2168 c -1.3709,1.76587 -2.7342,3.53783 -4.0879,5.31641 a 32,32 0 0 0 -1.4804,3.03125 32,32 0 0 0 -2.5078,2.24804 c -1.3356,1.77975 -2.664,3.56417 -3.9844,5.35547 a 32,32 0 0 0 -1.4277,3.04102 32,32 0 0 0 -2.4708,2.28125 c -1.3025,1.79009 -2.6002,3.58614 -3.8906,5.38867 a 32,32 0 0 0 -1.3828,3.05664 32,32 0 0 0 -2.4336,2.30859 c -1.2767,1.80526 -2.5417,3.60875 -3.7969,5.40821 a 32,32 0 0 0 -1.3457,3.07421 32,32 0 0 0 -2.4062,2.3379 c -1.2477,1.81117 -2.4902,3.6291 -3.7285,5.45117 a 32,32 0 0 0 -1.3028,3.07422 32,32 0 0 0 -2.3671,2.35351 c -1.2285,1.82642 -2.4504,3.65624 -3.6661,5.48828 a 32,32 0 0 0 -1.2656,3.08203 32,32 0 0 0 -2.3437,2.38086 c -1.2044,1.83333 -2.4027,3.66751 -3.5938,5.50196 a 32,32 0 0 0 -1.2383,3.10351 32,32 0 0 0 -2.3105,2.39453 c -1.1862,1.84491 -2.3677,3.69247 -3.543,5.54297 a 32,32 0 0 0 -1.2012,3.10156 32,32 0 0 0 -2.2871,2.41407 c -1.1698,1.85796 -2.3298,3.71083 -3.4804,5.55859 a 32,32 0 0 0 -1.1758,3.11914 32,32 0 0 0 -2.2676,2.43946 c -1.1467,1.85935 -2.2899,3.72268 -3.4297,5.59179 a 32,32 0 0 0 -1.1426,3.1211 32,32 0 0 0 -2.2402,2.45117 c -1.1325,1.87264 -2.2588,3.74444 -3.3789,5.61718 a 32,32 0 0 0 -1.1172,3.13477 32,32 0 0 0 -2.2246,2.47852 c -1.1085,1.8706 -2.2171,3.7491 -3.3242,5.63671 a 32,32 0 0 0 -1.0899,3.13868 32,32 0 0 0 -2.1953,2.48828 c -1.099,1.88948 -2.1938,3.7796 -3.2832,5.67383 a 32,32 0 0 0 -1.0625,3.14648 32,32 0 0 0 -2.1758,2.50781 c -1.0819,1.89712 -2.1585,3.79552 -3.2304,5.69532 a 32,32 0 0 0 -1.0391,3.16015 32,32 0 0 0 -2.1582,2.53321 c -1.0625,1.90111 -2.1216,3.80748 -3.1777,5.71679 a 32,32 0 0 0 -1.0117,3.16992 32,32 0 0 0 -2.1368,2.54883 c -1.05,1.91647 -2.0954,3.83372 -3.1347,5.75196 a 32,32 0 0 0 -0.9844,3.17968 32,32 0 0 0 -2.1133,2.56641 c -1.0359,1.93033 -2.0642,3.86058 -3.0859,5.78711 a 32,32 0 0 0 -0.9571,3.19336 32,32 0 0 0 -2.0937,2.58984 c -1.0184,1.94069 -2.0297,3.87923 -3.0332,5.81445 a 32,32 0 0 0 -0.9297,3.21094 32,32 0 0 0 -2.0742,2.61914 c -0.9938,1.94032 -1.9881,3.89328 -2.9824,5.86133 a 32,32 0 0 0 -0.8946,3.21484 32,32 0 0 0 -2.0429,2.63282 c -0.9874,1.97624 -1.9643,3.94458 -2.9297,5.90625 a 32,32 0 0 0 -0.8653,3.24414 32,32 0 0 0 -2.0214,2.66992 c -0.9626,1.98438 -1.9197,3.97287 -2.8692,5.96484 a 32,32 0 0 0 -0.8262,3.25977 32,32 0 0 0 -1.9941,2.70508 c -0.9446,2.01344 -1.8771,4.02273 -2.7988,6.02734 a 32,32 0 0 0 -0.7891,3.30078 32,32 0 0 0 -1.9648,2.75586 c -0.915,2.03225 -1.8238,4.07426 -2.7246,6.12695 a 32,32 0 0 0 -0.7344,3.33008 32,32 0 0 0 -1.9297,2.81836 c -0.8905,2.08226 -1.7662,4.16637 -2.6289,6.25195 a 32,32 0 0 0 -0.6777,3.41211 32,32 0 0 0 -1.8887,2.91407 c -0.8513,2.13864 -1.6915,4.29892 -2.5176,6.48437 a 32,32 0 0 0 -0.5879,3.52539 32,32 0 0 0 -1.8379,3.08203 c -0.8057,2.26668 -1.5931,4.57395 -2.3535,6.92383 a 32,32 0 0 0 -0.3828,3.26367 32,32 0 0 0 -1.5684,2.80469 c -0.6319,1.94759 -1.2778,3.91006 -1.9336,5.88867 a 32,32 0 0 0 -0.3925,3.16602 32,32 0 0 0 -1.5899,2.76953 c -0.6639,1.9737 -1.333,3.94892 -2.0078,5.92578 a 32,32 0 0 0 -0.4258,3.18945 32,32 0 0 0 -1.6211,2.77735 c -0.6834,1.98351 -1.3699,3.96755 -2.0605,5.95117 a 32,32 0 0 0 -0.4453,3.19336 32,32 0 0 0 -1.6387,2.77148 l -0.6719,1.91211 -1.4394,4.08399 a 32,32 0 0 0 -0.4571,3.1914 32,32 0 0 0 -1.6621,2.78907 c -0.698,1.96918 -1.4025,3.94722 -2.1132,5.93164 a 32,32 0 0 0 -0.4786,3.21484 32,32 0 0 0 -1.666,2.77148 l -1.4687,4.08399 -0.6856,1.89844 a 32,32 0 0 0 -0.4843,3.20507 32,32 0 0 0 -1.6797,2.7754 l -1.1543,3.1875 -1.0157,2.79492 a 32,32 0 0 0 -0.4921,3.20508 32,32 0 0 0 -1.6875,2.77539 l -0.9434,2.58398 -1.2422,3.39649 a 32,32 0 0 0 -0.5,3.20703 32,32 0 0 0 -1.6934,2.77148 l -0.8183,2.22852 -1.3809,3.75195 a 32,32 0 0 0 -0.5058,3.20508 32,32 0 0 0 -1.7012,2.77344 l -0.7656,2.07226 -1.4453,3.9043 a 32,32 0 0 0 -0.5118,3.21094 32,32 0 0 0 -1.7031,2.76757 l -0.7695,2.07227 -1.4512,3.9043 a 32,32 0 0 0 -0.5176,3.20703 32,32 0 0 0 -1.709,2.76953 l -0.8105,2.17578 -1.4199,3.79883 a 32,32 0 0 0 -0.5215,3.21093 32,32 0 0 0 -1.7129,2.76563 l -0.873,2.33594 -1.3653,3.63867 a 32,32 0 0 0 -0.5254,3.20898 32,32 0 0 0 -1.7168,2.76563 l -0.9414,2.50976 -1.3047,3.46289 a 32,32 0 0 0 -0.5293,3.2129 32,32 0 0 0 -1.7187,2.76171 l -0.998,2.64454 -1.2559,3.32812 a 32,32 0 0 0 -0.5332,3.20899 32,32 0 0 0 -1.7227,2.76171 l -1.0195,2.70118 -1.2383,3.27148 a 32,32 0 0 0 -0.5371,3.20703 32,32 0 0 0 -1.7266,2.76367 l -0.9941,2.62305 -1.2695,3.34766 a 32,32 0 0 0 -0.5391,3.21093 32,32 0 0 0 -1.7285,2.75977 l -0.9023,2.37109 -1.3692,3.59961 a 32,32 0 0 0 -0.541,3.20703 32,32 0 0 0 -1.7305,2.75586 l -2.2793,5.98047 a 32,32 0 0 0 -0.5429,3.20117 32,32 0 0 0 -1.7325,2.75586 l -2.2832,5.97852 a 32,32 0 0 0 -0.5449,3.20117 32,32 0 0 0 -1.7344,2.75586 l -2.0625,5.38867 -0.2187,0.57031 a 32,32 0 0 0 -0.5508,3.2129 32,32 0 0 0 -1.7422,2.76171 l -1.4414,3.75977 -0.8437,2.19922 a 32,32 0 0 0 -0.5528,3.21289 32,32 0 0 0 -1.7422,2.75976 l -0.6523,1.69727 -1.6387,4.26172 a 32,32 0 0 0 -0.5547,3.20898 32,32 0 0 0 -1.7382,2.74805 l -2.3028,5.97266 a 32,32 0 0 0 -0.5547,3.20703 32,32 0 0 0 -1.7422,2.75 l -1.6894,4.3789 -0.6113,1.58008 a 32,32 0 0 0 -0.3399,1.95313 32,32 0 0 0 -0.6758,0.0664 32,32 0 0 0 -4.9121,-0.80273 c -2.2791,-0.19091 -4.5592,-0.36529 -6.8379,-0.52344 a 32,32 0 0 0 -1.8789,0.24024 32,32 0 0 0 -4.916,-0.66797 c -2.2793,-0.12887 -4.559,-0.24087 -6.8379,-0.33789 a 32,32 0 0 0 -1.8691,0.28906 32,32 0 0 0 -4.9238,-0.53711 c -2.2786,-0.0687 -4.5561,-0.12042 -6.8321,-0.1582 a 32,32 0 0 0 -1.8574,0.33789 32,32 0 0 0 -4.9316,-0.41016 v -0.0215 c -2.2769,-0.01 -4.5491,-0.004 -6.8164,0.0156 a 32,32 0 0 0 -3.3868,0.70313 32,32 0 0 0 -3.4121,-0.60352 c -2.2614,0.0476 -4.5271,0.10911 -6.7988,0.18555 a 32,32 0 0 0 -3.3613,0.78711 32,32 0 0 0 -3.4141,-0.51953 c -2.2662,0.10325 -4.5344,0.22093 -6.8027,0.35351 a 32,32 0 0 0 -3.3399,0.86914 32,32 0 0 0 -3.414,-0.43359 c -2.2661,0.15871 -4.5292,0.3322 -6.78909,0.51953 a 32,32 0 0 0 -3.31445,0.94922 32,32 0 0 0 -3.43359,-0.35156 c -2.26104,0.21402 -4.51417,0.44307 -6.75977,0.68359 a 32,32 0 0 0 -3.29883,1.03125 32,32 0 0 0 -3.44336,-0.26758 c -2.24671,0.26813 -4.49757,0.5501 -6.75,0.84766 a 32,32 0 0 0 -3.26562,1.10937 32,32 0 0 0 -3.44141,-0.18359 c -2.24699,0.32339 -4.49226,0.6611 -6.73633,1.01367 a 32,32 0 0 0 -3.23828,1.18945 32,32 0 0 0 -3.44726,-0.0996 c -2.24094,0.37893 -4.47794,0.77233 -6.71094,1.17969 a 32,32 0 0 0 -3.21289,1.27149 32,32 0 0 0 -3.45508,-0.0137 c -2.23122,0.43493 -4.45829,0.88345 -6.67773,1.34571 a 32,32 0 0 0 -3.19141,1.35547 32,32 0 0 0 -3.46289,0.0762 c -2.21454,0.49064 -4.42936,0.99456 -6.64453,1.51562 a 32,32 0 0 0 -3.1543,1.4375 32,32 0 0 0 -3.46289,0.16407 c -2.20882,0.54945 -4.41483,1.11518 -6.61914,1.69531 a 32,32 0 0 0 -3.11719,1.51953 32,32 0 0 0 -3.46484,0.25781 c -2.19989,0.60978 -4.39501,1.23453 -6.58594,1.875 a 32,32 0 0 0 -3.08594,1.60938 32,32 0 0 0 -3.46093,0.35351 c -2.18773,0.67189 -4.3686,1.35838 -6.54297,2.06055 a 32,32 0 0 0 -3.05078,1.70117 32,32 0 0 0 -3.46485,0.45508 c -2.16404,0.73351 -4.33003,1.48463 -6.49805,2.25586 a 32,32 0 0 0 -3.00195,1.79297 32,32 0 0 0 -3.45312,0.55664 c -2.15397,0.80204 -4.30878,1.62288 -6.46289,2.46484 a 32,32 0 0 0 -2.95118,1.88672 32,32 0 0 0 -3.43945,0.66602 c -2.14853,0.87726 -4.28267,1.77219 -6.40234,2.67968 a 32,32 0 0 0 -2.91016,1.99414 32,32 0 0 0 -3.44141,0.78711 c -2.10859,0.94469 -4.22141,1.91213 -6.33789,2.90625 a 32,32 0 0 0 -2.8457,2.09961 32,32 0 0 0 -3.41797,0.90821 c -2.09466,1.02804 -4.18228,2.07642 -6.26172,3.14648 a 32,32 0 0 0 -2.78515,2.21484 32,32 0 0 0 -3.39844,1.04102 c -2.07765,1.11794 -4.13643,2.25278 -6.17578,3.4043 a 32,32 0 0 0 -2.71875,2.33984 32,32 0 0 0 -3.37891,1.18555 c -2.04041,1.20681 -4.06593,2.43588 -6.07617,3.68554 a 32,32 0 0 0 -2.63672,2.46875 32,32 0 0 0 -3.35547,1.34766 c -1.97633,1.28982 -3.94484,2.60435 -5.90429,3.94531 a 32,32 0 0 0 -2.49805,2.55274 32,32 0 0 0 -3.26563,1.47265 c -1.91419,1.36615 -3.81925,2.75578 -5.71484,4.16993 A 32,32 0 0 0 762.42188,905 a 32,32 0 0 0 -3.18555,1.5918 c -1.87532,1.45451 -3.71533,2.91696 -5.52344,4.3789 a 32,32 0 0 0 -2.28516,2.74219 32,32 0 0 0 -3.12109,1.7168 c -1.79265,1.50661 -3.57226,3.03184 -5.33789,4.57617 a 32,32 0 0 0 -2.15625,2.80273 32,32 0 0 0 -3.03711,1.81836 c -1.73623,1.5723 -3.44563,3.15159 -5.13086,4.73438 a 32,32 0 0 0 -2.05664,2.8789 32,32 0 0 0 -2.96484,1.91993 c -1.65888,1.61217 -3.3053,3.23952 -4.93946,4.88281 a 32,32 0 0 0 -1.93945,2.91992 32,32 0 0 0 -2.87891,2 c -1.60268,1.6613 -3.18794,3.33147 -4.75781,5.01172 a 32,32 0 0 0 -1.83594,2.95898 32,32 0 0 0 -2.80078,2.07227 c -1.54255,1.69738 -3.06772,3.40401 -4.57812,5.11523 a 32,32 0 0 0 -1.74024,2.99219 32,32 0 0 0 -2.72461,2.13086 c -1.48574,1.72591 -2.95601,3.45581 -4.41015,5.18945 a 32,32 0 0 0 -1.65625,3.01758 32,32 0 0 0 -2.65821,2.18555 c -1.41647,1.7278 -2.83978,3.48046 -4.26562,5.26172 a 32,32 0 0 0 -1.56055,3.00586 32,32 0 0 0 -2.59375,2.2207 c -1.36945,1.74144 -2.74421,3.50531 -4.12109,5.29102 a 32,32 0 0 0 -1.49414,3.01171 32,32 0 0 0 -2.51953,2.22657 c -1.35296,1.77758 -2.68409,3.54362 -3.99805,5.2969 a 32,32 0 0 0 -1.44922,3.0234 32,32 0 0 0 -2.47461,2.2442 c -1.31232,1.7703 -2.61054,3.5359 -3.89844,5.2929 a 32,32 0 0 0 -1.40234,3.0078 32,32 0 0 0 -2.45117,2.2657 l -2.66406,3.664 a 32.0032,32.0032 0 0 0 -0.0274,0.037 L 654.6875,1022 a 32,32 0 0 0 -1.36719,2.9766 32,32 0 0 0 -2.39843,2.2265 l -3.1875,4.4063 -0.55274,0.7597 a 32,32 0 0 0 -1.35547,2.9493 32,32 0 0 0 -2.38672,2.2089 c -1.21956,1.6803 -2.44862,3.3649 -3.68554,5.0528 a 32,32 0 0 0 -1.34375,2.8847 32,32 0 0 0 -2.35157,2.1329 c -1.22986,1.6599 -2.45551,3.3039 -3.67968,4.9296 a 32,32 0 0 0 -1.35352,2.8067 32,32 0 0 0 -2.33984,2.0527 c -1.23829,1.6132 -2.46254,3.1911 -3.67578,4.7305 a 32,32 0 0 0 -1.38868,2.7266 32,32 0 0 0 -2.33398,1.9414 c -1.22913,1.5172 -2.46657,3.0166 -3.71094,4.498 a 32,32 0 0 0 -1.41406,2.5723 32,32 0 0 0 -2.32617,1.789 c -1.24047,1.4169 -2.48603,2.8061 -3.73828,4.166 a 32,32 0 0 0 -1.4668,2.4024 32,32 0 0 0 -2.30469,1.584 c -1.2621,1.2946 -2.52343,2.5472 -3.7832,3.7558 a 32,32 0 0 0 -1.52149,2.1778 32,32 0 0 0 -2.27343,1.332 c -1.27696,1.1342 -2.53963,2.2106 -3.78907,3.2246 a 32,32 0 0 0 -1.58789,1.9121 32,32 0 0 0 -2.23828,1.0449 c -1.24253,0.9114 -2.49496,1.7752 -3.7539,2.5918 a 32,32 0 0 0 -1.64453,1.6016 32,32 0 0 0 -2.19727,0.7266 c -1.50855,0.8554 -3.07878,1.7072 -4.70508,2.5605 a 32,32 0 0 0 -2.21094,1.7871 32,32 0 0 0 -2.76171,0.7383 c -1.70412,0.8391 -3.4232,1.6636 -5.15821,2.4727 a 32,32 0 0 0 -2.4082,1.7656 32,32 0 0 0 -2.91992,0.6621 c -1.78664,0.7964 -3.59289,1.584 -5.41602,2.3633 a 32,32 0 0 0 -2.52344,1.7285 32,32 0 0 0 -3.01367,0.5957 c -1.83835,0.7591 -3.68766,1.5065 -5.54687,2.2461 a 32,32 0 0 0 -2.62305,1.6992 32,32 0 0 0 -3.08008,0.541 c -1.85713,0.7205 -3.74771,1.4402 -5.67187,2.1641 a 32,32 0 0 0 -2.65821,1.6523 32,32 0 0 0 -3.10937,0.4883 c -1.90481,0.6997 -3.81932,1.3928 -5.74414,2.0801 a 32,32 0 0 0 -2.71485,1.625 32,32 0 0 0 -3.1289,0.4414 c -1.9443,0.6805 -3.88377,1.3519 -5.81641,2.0117 a 32,32 0 0 0 -2.75195,1.5957 32,32 0 0 0 -3.1543,0.4043 c -1.95489,0.6563 -3.91196,1.305 -5.86914,1.9473 a 32,32 0 0 0 -2.78125,1.5683 32,32 0 0 0 -3.17969,0.3731 c -1.93769,0.6271 -3.90918,1.2568 -5.91406,1.8926 a 32,32 0 0 0 -2.78516,1.5332 32,32 0 0 0 -3.18359,0.3398 c -1.96171,0.6123 -3.94289,1.2219 -5.94336,1.834 a 32,32 0 0 0 -2.81055,1.5117 32,32 0 0 0 -3.17968,0.3067 c -1.99731,0.6014 -3.98751,1.1972 -5.97071,1.7832 a 32,32 0 0 0 -2.83789,1.4902 32,32 0 0 0 -3.17968,0.2773 c -2.0271,0.5901 -4.02711,1.1697 -6.00196,1.7344 a 32,32 0 0 0 -2.86328,1.4727 32,32 0 0 0 -3.21094,0.2558 c -1.97764,0.5599 -3.98542,1.1212 -6.02148,1.6875 a 32,32 0 0 0 -2.85156,1.4395 32,32 0 0 0 -3.20313,0.2285 c -1.99776,0.5476 -4.00791,1.0942 -6.03125,1.6387 a 32,32 0 0 0 -2.87109,1.4199 32,32 0 0 0 -3.20117,0.2012 c -2.01774,0.5351 -4.03268,1.0643 -6.04492,1.5878 a 32,32 0 0 0 -2.88477,1.3965 32,32 0 0 0 -3.19922,0.1758 c -2.03017,0.5205 -4.05002,1.0342 -6.05859,1.5391 a 32,32 0 0 0 -2.90235,1.375 32,32 0 0 0 -3.19336,0.1484 c -2.03071,0.5027 -4.05326,0.9984 -6.0664,1.4863 a 32,32 0 0 0 -2.90625,1.3477 32,32 0 0 0 -3.20117,0.1211 c -2.01592,0.4808 -4.03971,0.9583 -6.07032,1.4316 a 32,32 0 0 0 -2.90429,1.3164 32,32 0 0 0 -3.19336,0.09 c -2.01832,0.461 -4.03628,0.9156 -6.05274,1.3633 a 32,32 0 0 0 -2.91601,1.2832 32,32 0 0 0 -3.17774,0.055 c -2.02105,0.438 -4.03846,0.8675 -6.04883,1.289 a 32,32 0 0 0 -2.91015,1.2422 32,32 0 0 0 -3.15625,0.012 c -2.01956,0.41 -4.01983,0.8085 -6.00391,1.1934 a 32,32 0 0 0 -2.90625,1.1875 32,32 0 0 0 -3.125,-0.041 c -1.99037,0.3692 -3.96614,0.7249 -5.92578,1.0644 a 32,32 0 0 0 -2.85937,1.1016 32,32 0 0 0 -3.03516,-0.1153 c -1.95613,0.3124 -3.86241,0.6016 -5.71875,0.8614 a 32,32 0 0 0 -2.72852,0.9511 32,32 0 0 0 -2.86132,-0.2324 c -1.9395,0.2245 -3.92199,0.4357 -5.94336,0.6426 a 32,32 0 0 0 -3.04493,0.9355 32,32 0 0 0 -3.1875,-0.3144 c -2.0515,0.2012 -4.17385,0.4026 -6.36523,0.6172 a 32,32 0 0 0 -3.1543,0.9551 32,32 0 0 0 -3.30664,-0.3184 c -2.17841,0.2196 -4.3773,0.4473 -6.59765,0.6875 a 32,32 0 0 0 -3.24219,1.0176 32,32 0 0 0 -3.38867,-0.2715 c -2.24464,0.2622 -4.49648,0.5378 -6.75196,0.8301 a 32,32 0 0 0 -3.29297,1.1113 32,32 0 0 0 -3.45898,-0.1895 c -2.29538,0.3279 -4.59168,0.6758 -6.88672,1.045 a 32,32 0 0 0 -3.31836,1.2324 32,32 0 0 0 -3.55664,-0.065 c -2.31582,0.4152 -4.63837,0.8565 -6.9668,1.3262 a 32,32 0 0 0 -3.35351,1.4004 32,32 0 0 0 -3.64649,0.096 c -2.3332,0.5284 -4.68752,1.0922 -7.06054,1.6973 a 32,32 0 0 0 -3.35742,1.6054 32,32 0 0 0 -3.7168,0.3067 c -2.38288,0.6819 -4.77392,1.4063 -7.16992,2.1816 a 32,32 0 0 0 -3.35156,1.8711 32,32 0 0 0 -3.80665,0.5879 c -2.40999,0.8782 -4.81954,1.8114 -7.22461,2.8047 a 32,32 0 0 0 -3.32421,2.2168 32,32 0 0 0 -3.89649,0.9609 c -2.40678,1.1277 -4.8158,2.3288 -7.2207,3.6133 a 32,32 0 0 0 -3.22461,2.6445 32,32 0 0 0 -3.93164,1.4434 c -2.37477,1.4499 -4.74835,2.9978 -7.10547,4.6582 a 32,32 0 0 0 -2.99609,3.1484 32,32 0 0 0 -3.86329,2.0411 c -2.29595,1.8663 -4.52766,3.8298 -6.6875,5.8867 a 32,32 0 0 0 -2.62304,3.7265 32,32 0 0 0 -3.6543,2.7598 c -2.01788,2.2656 -3.97047,4.65 -5.83398,7.1582 a 32,32 0 0 0 -1.98828,4.1953 32,32 0 0 0 -3.16407,3.4082 c -1.638,2.6607 -3.14712,5.3909 -4.52734,8.1797 a 32,32 0 0 0 -1.20508,4.4727 32,32 0 0 0 -2.49414,3.8886 c -1.13261,2.8878 -2.11724,5.7822 -2.9707,8.6719 a 32,32 0 0 0 -0.40821,4.4981 32,32 0 0 0 -1.76757,4.1093 c -0.62298,2.9272 -1.11789,5.8235 -1.50391,8.6797 a 32,32 0 0 0 0.26953,4.3164 32,32 0 0 0 -1.125,4.1426 c -0.194,2.8242 -0.29312,5.6296 -0.30859,8.4102 a 32,32 0 0 0 0.77929,4.0332 32,32 0 0 0 -0.60937,4.0507 c 0.12857,2.7265 0.32985,5.3943 0.58594,8.002 a 32,32 0 0 0 1.15429,3.8086 32,32 0 0 0 -0.21484,3.9473 c 0.36513,2.5533 0.78292,5.1003 1.25586,7.6406 a 32,32 0 0 0 1.32031,3.3027 32,32 0 0 0 0.0215,3.5488 c 0.46369,2.2618 0.94861,4.5367 1.46093,6.8243 a 32,32 0 0 0 1.42578,3.2226 32,32 0 0 0 0.14454,3.5371 c 0.54006,2.2341 1.10411,4.4892 1.69726,6.7637 a 32,32 0 0 0 1.5332,3.1621 32,32 0 0 0 0.26172,3.5078 c 0.628,2.2605 1.2737,4.4984 1.9336,6.7149 a 32,32 0 0 0 1.65429,3.1328 32,32 0 0 0 0.39063,3.5234 c 0.6982,2.2029 1.42045,4.416 2.16992,6.6387 a 32,32 0 0 0 1.75977,3.0625 32,32 0 0 0 0.51367,3.4961 c 0.78163,2.1949 1.58693,4.3918 2.41797,6.5898 a 32,32 0 0 0 1.86914,2.9961 32,32 0 0 0 0.64062,3.4766 c 0.86488,2.1752 1.75325,4.3473 2.66602,6.5156 a 32,32 0 0 0 1.98242,2.9297 32,32 0 0 0 0.77149,3.459 c 0.94848,2.1479 1.92065,4.2891 2.91601,6.4238 a 32,32 0 0 0 2.09766,2.8633 32,32 0 0 0 0.9082,3.4355 c 1.03564,2.1199 2.08908,4.2211 3.16016,6.3047 a 32,32 0 0 0 2.22461,2.8028 32,32 0 0 0 1.05273,3.4199 c 1.1104,2.0589 2.24805,4.1239 3.41992,6.1914 a 32,32 0 0 0 2.33203,2.7012 32,32 0 0 0 1.18164,3.3613 c 1.20923,2.0422 2.44184,4.0721 3.69922,6.0898 a 32,32 0 0 0 2.44532,2.6055 32,32 0 0 0 1.33203,3.3281 c 1.29572,1.9903 2.61152,3.9631 3.94726,5.918 a 32,32 0 0 0 2.57227,2.5176 32,32 0 0 0 1.4707,3.2656 c 1.38806,1.9446 2.79966,3.8721 4.23438,5.7832 a 32,32 0 0 0 2.67968,2.4004 32,32 0 0 0 1.63868,3.2305 c 1.44916,1.8455 2.94019,3.7088 4.48242,5.58 a 32,32 0 0 0 2.77929,2.2696 32,32 0 0 0 1.76172,3.1269 c 1.58105,1.8404 3.16546,3.633 4.7461,5.3848 a 32,32 0 0 0 2.91015,2.1699 32,32 0 0 0 1.91016,3.0469 c 1.6725,1.7737 3.34789,3.4984 5.01562,5.1797 a 32,32 0 0 0 3.00782,2.0273 32,32 0 0 0 2.0625,2.9668 c 1.74377,1.6809 3.5002,3.3296 5.26757,4.9473 a 32,32 0 0 0 3.09766,1.8769 32,32 0 0 0 2.20117,2.8633 c 1.82277,1.5954 3.65995,3.1586 5.50586,4.6914 a 32,32 0 0 0 3.1836,1.7246 32,32 0 0 0 2.32812,2.7461 c 1.92418,1.5281 3.8325,2.998 5.71875,4.418 a 32,32 0 0 0 3.28125,1.582 32,32 0 0 0 2.46094,2.6309 c 1.99573,1.4333 3.97686,2.8102 5.93554,4.1406 a 32,32 0 0 0 3.35352,1.418 32,32 0 0 0 2.60742,2.5273 c 2.0013,1.2917 4.04503,2.5794 6.13477,3.8516 a 32,32 0 0 0 3.37305,1.2324 32,32 0 0 0 2.70117,2.3809 c 2.10997,1.225 4.2008,2.3981 6.26953,3.5312 a 32,32 0 0 0 3.4707,1.0918 32,32 0 0 0 2.82422,2.2578 c 2.11625,1.097 4.26931,2.1832 6.46094,3.2481 a 32,32 0 0 0 3.45703,0.9043 32,32 0 0 0 2.88672,2.1015 c 2.21278,1.0226 4.41009,2.0002 6.58593,2.9395 a 32,32 0 0 0 3.51368,0.7539 32,32 0 0 0 2.99218,1.9746 c 2.23867,0.9126 4.45946,1.7822 6.66016,2.6191 a 32,32 0 0 0 3.54883,0.5977 32,32 0 0 0 3.08203,1.8437 c 2.24852,0.802 4.49403,1.573 6.73828,2.3165 a 32,32 0 0 0 3.55274,0.4414 32,32 0 0 0 3.13476,1.6992 c 2.28039,0.7067 4.55866,1.3843 6.83594,2.0332 a 32,32 0 0 0 3.54101,0.2871 32,32 0 0 0 3.17383,1.5586 c 2.30162,0.6123 4.60906,1.1979 6.91992,1.7558 a 32,32 0 0 0 3.51954,0.1426 32,32 0 0 0 3.22851,1.4297 c 2.32871,0.5216 4.62524,1.0074 6.88867,1.4668 a 32,32 0 0 0 3.5625,0.014 32,32 0 0 0 3.27149,1.3027 c 2.31552,0.4279 4.64109,0.8327 6.97461,1.2129 a 32,32 0 0 0 3.5,-0.1211 32,32 0 0 0 3.33398,1.1856 c 2.27392,0.333 4.58622,0.6538 6.94141,0.9531 a 32,32 0 0 0 3.47461,-0.2442 32,32 0 0 0 3.32226,1.0606 c 2.3396,0.2644 4.65722,0.5021 6.95508,0.7187 a 32,32 0 0 0 3.47852,-0.3574 32,32 0 0 0 3.33593,0.9473 c 2.35526,0.1894 4.67388,0.3498 6.95508,0.4922 a 32,32 0 0 0 3.45899,-0.4668 32,32 0 0 0 3.36523,0.8418 c 2.32733,0.1136 4.64551,0.207 6.95313,0.2793 a 32,32 0 0 0 3.41992,-0.5704 32,32 0 0 0 3.40625,0.7422 c 2.25142,0.04 4.56078,0.069 6.92773,0.072 a 32,32 0 0 0 3.35156,-0.6621 32,32 0 0 0 3.37891,0.6406 c 2.32002,-0.021 4.61623,-0.062 6.88672,-0.1172 a 32,32 0 0 0 4.90625,-0.5039 32,32 0 0 0 1.8418,0.2989 c 2.31241,-0.081 4.61221,-0.1804 6.89843,-0.2969 a 32,32 0 0 0 4.83008,-0.6289 32,32 0 0 0 1.85742,0.2539 c 2.35061,-0.1418 4.62019,-0.3017 6.8086,-0.4629 a 32,32 0 0 0 4.91015,-0.752 32,32 0 0 0 1.86133,0.2071 c 2.21635,-0.1906 4.4922,-0.3967 6.82617,-0.6309 a 32,32 0 0 0 4.72071,-0.8516 32,32 0 0 0 1.87304,0.168 c 2.27866,-0.2452 4.54895,-0.5052 6.81055,-0.7812 a 32,32 0 0 0 4.73242,-0.959 32,32 0 0 0 1.89063,0.125 l 1.18359,-0.1563 a 32.0032,32.0032 0 0 0 0.0859,-0.01 l 5.16016,-0.6895 a 32,32 0 0 0 4.5,-0.9648 32,32 0 0 0 1.84374,0.1172 l 0.75977,-0.1016 a 32.0032,32.0032 0 0 0 0.01,0 l 5.58398,-0.7481 a 32,32 0 0 0 4.49805,-0.9648 32,32 0 0 0 1.8457,0.1172 h 0.0254 a 32.0032,32.0032 0 0 0 0.0117,0 l 6.31641,-0.8477 a 32,32 0 0 0 4.5039,-0.9668 32,32 0 0 0 1.85157,0.1153 l 6.34179,-0.8535 a 32,32 0 0 0 4.50195,-0.9707 32,32 0 0 0 1.85352,0.1152 l 6.34375,-0.8555 a 32,32 0 0 0 4.51367,-0.9746 32,32 0 0 0 1.8418,0.1133 l 6.34375,-0.8574 a 32,32 0 0 0 4.50977,-0.9766 32,32 0 0 0 1.84765,0.1133 l 4.74805,-0.6465 a 32.0032,32.0032 0 0 0 0.0176,0 l 1.59179,-0.2168 a 32,32 0 0 0 4.49024,-0.9785 32,32 0 0 0 1.85156,0.1133 l 2.36133,-0.3223 a 32.0032,32.0032 0 0 0 0.0176,0 l 3.98046,-0.5449 a 32,32 0 0 0 4.50196,-0.9824 32,32 0 0 0 1.85937,0.1113 l 6.33985,-0.8731 a 32,32 0 0 0 4.50976,-0.9882 32,32 0 0 0 1.85156,0.1093 l 6.33985,-0.8769 a 32,32 0 0 0 4.52148,-0.9922 32,32 0 0 0 1.83985,0.1074 l 3.13281,-0.4375 a 32.0032,32.0032 0 0 0 0.0254,0 l 3.20508,-0.4492 a 32,32 0 0 0 4.50586,-0.9961 32,32 0 0 0 1.85937,0.1055 l 6.33789,-0.8926 a 32,32 0 0 0 4.51953,-1.0039 32,32 0 0 0 1.84571,0.1035 l 4.65625,-0.6602 a 32.0032,32.0032 0 0 0 0.0312,0 l 1.67968,-0.2402 a 32,32 0 0 0 4.49219,-1.0058 32,32 0 0 0 1.84375,0.1015 l 0.56641,-0.08 a 32.0032,32.0032 0 0 0 0.0312,0 l 5.76758,-0.83 a 32,32 0 0 0 4.51758,-1.0157 32,32 0 0 0 1.85156,0.1 l 4.54687,-0.6582 a 32.0032,32.0032 0 0 0 0.0352,-0.01 l 1.78711,-0.2598 a 32,32 0 0 0 4.5039,-1.0234 32,32 0 0 0 1.86524,0.094 l 6.33203,-0.9316 a 32,32 0 0 0 4.52539,-1.0332 32,32 0 0 0 1.8457,0.09 l 3.04493,-0.4531 a 32.0032,32.0032 0 0 0 0.0293,0 l 3.28516,-0.4902 a 32,32 0 0 0 4.52344,-1.043 32,32 0 0 0 1.84179,0.086 c 2.12049,-0.3192 4.24756,-0.6381 6.38086,-0.9629 a 32,32 0 0 0 4.49219,-1.0468 32,32 0 0 0 1.85156,0.08 c 2.13726,-0.3265 4.26336,-0.6536 6.37891,-0.9804 a 32,32 0 0 0 4.51172,-1.0645 32,32 0 0 0 1.84961,0.074 c 2.11383,-0.3291 4.24007,-0.6593 6.3789,-0.9961 a 32,32 0 0 0 4.49414,-1.0742 32,32 0 0 0 1.84571,0.072 c 2.13961,-0.3383 4.26609,-0.6776 6.3789,-1.0156 a 32,32 0 0 0 4.50586,-1.0899 32,32 0 0 0 1.84961,0.066 c 2.12253,-0.3422 4.25038,-0.6868 6.38281,-1.0351 a 32,32 0 0 0 4.49805,-1.1016 32,32 0 0 0 1.86328,0.062 l 2.99414,-0.4922 a 32.0032,32.0032 0 0 0 0.0274,0 l 3.31836,-0.5508 a 32,32 0 0 0 4.51367,-1.1171 32,32 0 0 0 1.8457,0.057 c 2.13676,-0.3572 4.262,-0.7167 6.375,-1.0742 a 32,32 0 0 0 4.49805,-1.1289 32,32 0 0 0 1.84961,0.051 c 0.38768,-0.066 0.77629,-0.1331 1.16406,-0.1993 l -14.70898,54.377 a 32.0032,32.0032 0 0 0 42.93359,38.0039 l 4.11914,-1.6738 -35.39258,138.8457 a 32.0032,32.0032 0 0 0 32.10156,39.8847 l 459.38273,-15.705 a 32.0032,32.0032 0 0 0 17.9161,-57.7227 c 0,0 -30.052,-22.2259 -62.8047,-55.2109 -32.7527,-32.985 -66.216,-77.2938 -74.2832,-111.0293 -6.3729,-26.6501 -0.9669,-71.5166 9.1074,-114.0508 a 32,32 0 0 0 1.457,0.209 l 6.3926,-0.3418 a 32,32 0 0 0 4.5625,-0.6055 32,32 0 0 0 1.8281,0.2637 l 6.3926,-0.3418 a 32,32 0 0 0 4.5606,-0.6055 32,32 0 0 0 1.83,0.2637 l 6.3907,-0.3399 a 32,32 0 0 0 4.5546,-0.6054 32,32 0 0 0 1.834,0.2636 l 6.3926,-0.3418 a 32,32 0 0 0 4.5625,-0.6054 32,32 0 0 0 1.8281,0.2636 l 6.3907,-0.3417 a 32,32 0 0 0 4.5625,-0.6055 32,32 0 0 0 1.8261,0.2637 l 6.3946,-0.3399 a 32,32 0 0 0 4.5546,-0.6055 32,32 0 0 0 1.834,0.2637 l 6.3926,-0.3418 a 32,32 0 0 0 4.5625,-0.6055 32,32 0 0 0 1.8281,0.2637 l 6.3907,-0.3418 a 32,32 0 0 0 4.5625,-0.6054 32,32 0 0 0 1.8261,0.2636 l 6.3926,-0.3418 a 32,32 0 0 0 4.5567,-0.6035 32,32 0 0 0 1.8339,0.2637 l 6.3926,-0.3418 a 32,32 0 0 0 4.5625,-0.6055 32,32 0 0 0 1.8281,0.2637 l 6.3907,-0.3418 a 32,32 0 0 0 4.5625,-0.6055 32,32 0 0 0 1.8261,0.2637 l 6.3926,-0.3418 a 32,32 0 0 0 30.2481,-33.6602 32,32 0 0 0 -0.1211,-0.4746 32,32 0 0 0 -11.7793,-25.1289 l -4.9727,-4.0273 a 32,32 0 0 0 -1.6387,-0.8613 32,32 0 0 0 -3.3359,-3.1661 l -4.9727,-4.0293 a 32,32 0 0 0 -1.6406,-0.8632 32,32 0 0 0 -3.334,-3.1641 l -4.9746,-4.0273 a 32,32 0 0 0 -1.6347,-0.8614 32,32 0 0 0 -3.3379,-3.166 l -4.9727,-4.0293 a 32,32 0 0 0 -1.6426,-0.8633 32,32 0 0 0 -2.7285,-2.5918 l 6.166,-0.1035 a 32,32 0 0 0 4.5782,-0.4375 32,32 0 0 0 1.8222,0.3301 l 6.3985,-0.1074 a 32,32 0 0 0 4.5761,-0.4356 32,32 0 0 0 1.8223,0.3301 l 6.3984,-0.1074 a 32,32 0 0 0 4.5782,-0.4375 32,32 0 0 0 1.8222,0.3301 l 6.3985,-0.1075 a 32,32 0 0 0 4.5859,-0.4375 32,32 0 0 0 1.8145,0.3301 l 6.3964,-0.1054 a 32,32 0 0 0 4.5782,-0.4375 32,32 0 0 0 1.8222,0.33 l 6.4004,-0.1074 a 32,32 0 0 0 4.584,-0.4375 32,32 0 0 0 1.8145,0.3301 l 6.3964,-0.1055 a 32,32 0 0 0 16.504,-5.0234 32,32 0 0 0 1.75,-1.1133 32,32 0 0 0 1.7851,-1.4668 32,32 0 0 0 6.7402,-5.5293 32,32 0 0 0 -4.4335,-45.0371 l -4.9493,-4.0606 a 32,32 0 0 0 -1.6308,-0.873 32,32 0 0 0 -3.3145,-3.1875 l -4.9472,-4.0605 a 32,32 0 0 0 -1.6329,-0.8731 32,32 0 0 0 -3.3164,-3.1875 l -4.9453,-4.0605 a 32,32 0 0 0 -1.6289,-0.8711 32,32 0 0 0 -3.3183,-3.1895 l -4.9454,-4.0605 a 32,32 0 0 0 -1.6328,-0.8731 32,32 0 0 0 -3.3164,-3.1875 l -4.9453,-4.0605 a 32,32 0 0 0 -1.6348,-0.8731 32,32 0 0 0 -3.3125,-3.1875 l -4.9492,-4.0605 a 32,32 0 0 0 -1.6289,-0.8711 32,32 0 0 0 -3.3164,-3.1895 l -3.6758,-3.0136 -0.5625,1.0683 a 32,32 0 0 0 -1.1425,-1.5137 c 0.091,-0.2652 0.1394,-0.452 0.2265,-0.7109 a 32,32 0 0 0 -1.0703,-0.5723 32,32 0 0 0 0,-0.3632 l 1.082,0.8886 c 0.6581,-1.9603 1.2319,-3.7788 1.7207,-5.3906 a 32,32 0 0 0 1.2598,-1.039 c 1.3612,-1.6665 2.7415,-3.3555 4.1328,-5.0743 a 32,32 0 0 0 2.625,-3.8242 32,32 0 0 0 1.4238,-1.1875 c 1.3794,-1.7089 2.7475,-3.4139 4.1055,-5.1133 a 32,32 0 0 0 2.625,-3.8711 32,32 0 0 0 1.4375,-1.2207 l 2.5156,-3.1718 a 32.0032,32.0032 0 0 0 0.041,-0.051 l 1.4589,-1.8457 a 32,32 0 0 0 2.6172,-3.9102 32,32 0 0 0 1.4258,-1.2265 l 2.3047,-2.9434 a 32.0032,32.0032 0 0 0 0.041,-0.053 l 1.6367,-2.0996 a 32,32 0 0 0 2.5977,-3.9336 32,32 0 0 0 1.4141,-1.2325 l 2.3496,-3.041 a 32.0032,32.0032 0 0 0 0.043,-0.057 l 1.5606,-2.0274 a 32,32 0 0 0 2.5566,-3.9316 32,32 0 0 0 1.4024,-1.2344 c 1.3163,-1.7239 2.6301,-3.452 3.9414,-5.1816 a 32,32 0 0 0 2.5293,-3.9453 32,32 0 0 0 1.3867,-1.2364 c 1.3077,-1.7356 2.6118,-3.4746 3.914,-5.2168 a 32,32 0 0 0 2.4961,-3.9531 32,32 0 0 0 1.3828,-1.25 c 1.2999,-1.7491 2.5907,-3.4951 3.875,-5.2363 a 32,32 0 0 0 2.4805,-3.9844 32,32 0 0 0 1.3692,-1.2539 c 1.2854,-1.7542 2.5681,-3.5126 3.8476,-5.2734 a 32,32 0 0 0 2.4492,-3.9922 32,32 0 0 0 1.3672,-1.2735 c 1.2641,-1.7514 2.5336,-3.5149 3.8067,-5.2929 a 32,32 0 0 0 2.416,-4.0039 32,32 0 0 0 1.3574,-1.2793 c 1.2604,-1.7709 2.5182,-3.546 3.7734,-5.3242 a 32,32 0 0 0 2.3907,-4.0254 32,32 0 0 0 1.3457,-1.2852 c 1.2531,-1.7865 2.4973,-3.57 3.7363,-5.3516 a 32,32 0 0 0 2.3672,-4.0488 32,32 0 0 0 1.334,-1.2929 c 1.2425,-1.7983 2.4757,-3.5937 3.7011,-5.3829 a 32,32 0 0 0 2.3399,-4.0664 32,32 0 0 0 1.3262,-1.3047 c 1.2286,-1.8062 2.4478,-3.6104 3.6621,-5.4121 a 32,32 0 0 0 2.3125,-4.0879 32,32 0 0 0 1.3144,-1.3125 c 1.2114,-1.8101 2.4214,-3.6247 3.627,-5.4433 a 32,32 0 0 0 2.2773,-4.1035 32,32 0 0 0 1.3106,-1.3282 c 1.1903,-1.8091 2.3873,-3.633 3.5859,-5.4726 a 32,32 0 0 0 2.2441,-4.1192 32,32 0 0 0 1.3028,-1.3417 c 1.1702,-1.8099 2.3532,-3.6423 3.5429,-5.5 a 32,32 0 0 0 2.2032,-4.1211 32,32 0 0 0 1.2851,-1.3438 c 1.1855,-1.862 2.3503,-3.7053 3.5,-5.5293 a 32,32 0 0 0 2.1953,-4.1758 32,32 0 0 0 1.2696,-1.3476 c 1.1633,-1.861 2.3161,-3.717 3.4609,-5.5684 a 32,32 0 0 0 2.1543,-4.1855 32,32 0 0 0 1.2695,-1.375 c 1.1304,-1.8448 2.2697,-3.7091 3.4141,-5.5977 a 32,32 0 0 0 2.1035,-4.1777 32,32 0 0 0 1.2539,-1.3789 c 1.1396,-1.8928 2.2592,-3.7695 3.3653,-5.627 a 32,32 0 0 0 2.0898,-4.2324 32,32 0 0 0 1.2363,-1.3848 c 1.116,-1.8914 2.2236,-3.7813 3.3242,-5.6699 a 32,32 0 0 0 2.0469,-4.248 32,32 0 0 0 1.2402,-1.4161 c 1.0728,-1.8606 2.1646,-3.7575 3.2676,-5.6933 a 32,32 0 0 0 1.9922,-4.2363 32,32 0 0 0 1.2129,-1.4063 c 1.0928,-1.9307 2.1659,-3.8429 3.2227,-5.7344 a 32,32 0 0 0 1.9804,-4.3047 32,32 0 0 0 1.2032,-1.4277 c 1.0491,-1.8993 2.1076,-3.8217 3.1699,-5.7715 a 32,32 0 0 0 1.914,-4.2832 32,32 0 0 0 1.1836,-1.4277 c 1.0635,-1.96616 2.0984,-3.9005 3.1114,-5.79884 a 32,32 0 0 0 1.9043,-4.35742 32,32 0 0 0 1.1718,-1.44727 c 1.0178,-1.93204 2.0374,-3.88124 3.0586,-5.84961 a 32,32 0 0 0 1.8321,-4.32812 32,32 0 0 0 1.1543,-1.45313 c 1.0274,-1.99667 2.0228,-3.95548 2.9941,-5.87109 a 32,32 0 0 0 1.8184,-4.41406 32,32 0 0 0 1.1367,-1.46485 c 0.981,-1.96184 1.9629,-3.93699 2.9414,-5.92773 a 32,32 0 0 0 1.7402,-4.375 32,32 0 0 0 1.125,-1.48242 c 0.9835,-2.01989 1.9356,-4.00474 2.8672,-5.94922 a 32,32 0 0 0 1.7207,-4.45703 32,32 0 0 0 1.1055,-1.49219 c 0.9395,-1.99088 1.8754,-3.99413 2.8086,-6.00977 a 32,32 0 0 0 1.6406,-4.42187 32,32 0 0 0 1.0937,-1.51367 c 0.9341,-2.0402 1.843,-4.05268 2.7325,-6.03125 a 32,32 0 0 0 1.6132,-4.50196 32,32 0 0 0 1.0684,-1.51953 c 0.8942,-2.02144 1.7822,-4.05072 2.666,-6.09179 a 32,32 0 0 0 1.5352,-4.48047 32,32 0 0 0 1.0586,-1.54688 c 0.8752,-2.04934 1.7342,-4.08854 2.582,-6.11523 a 32,32 0 0 0 1.4902,-4.53321 32,32 0 0 0 1.0332,-1.55468 c 0.8458,-2.05623 1.6831,-4.11547 2.5118,-6.17969 a 32,32 0 0 0 1.4257,-4.55274 32,32 0 0 0 1.0176,-1.58398 c 0.8014,-2.03389 1.6111,-4.1011 2.4199,-6.20312 a 32,32 0 0 0 1.3536,-4.55665 32,32 0 0 0 0.9882,-1.58203 c 0.7945,-2.09825 1.5736,-4.18858 2.3399,-6.26953 a 32,32 0 0 0 1.3027,-4.62109 32,32 0 0 0 0.9785,-1.62891 c 0.7281,-2.02646 1.4782,-4.12203 2.2364,-6.29101 a 32,32 0 0 0 1.205,-4.57618 32,32 0 0 0 0.9434,-1.61718 c 0.7401,-2.15073 1.4534,-4.26908 2.1484,-6.35352 a 32,32 0 0 0 1.1661,-4.69531 32,32 0 0 0 0.916,-1.63867 c 0.6771,-2.08879 1.3623,-4.22244 2.0449,-6.40235 a 32,32 0 0 0 1.0605,-4.63281 32,32 0 0 0 0.8868,-1.64453 c 0.6776,-2.20577 1.3168,-4.35289 1.9335,-6.43359 a 32,32 0 0 0 1.0137,-4.75977 32,32 0 0 0 0.8516,-1.6543 c 0.6217,-2.16707 1.2298,-4.33556 1.8262,-6.50586 a 32,32 0 0 0 0.9121,-4.75195 32,32 0 0 0 0.8418,-1.71875 c 0.5544,-2.09483 1.1256,-4.26957 1.6972,-6.52734 a 32,32 0 0 0 0.8028,-4.69922 32,32 0 0 0 0.7949,-1.69531 c 0.5583,-2.26207 1.0784,-4.45524 1.5762,-6.57422 a 32,32 0 0 0 0.746,-4.85547 32,32 0 0 0 0.752,-1.69922 c 0.4967,-2.215 0.9774,-4.43244 1.4453,-6.65039 a 32,32 0 0 0 0.6289,-4.82813 32,32 0 0 0 0.7344,-1.76757 c 0.4307,-2.15238 0.8686,-4.37607 1.2988,-6.67579 a 32,32 0 0 0 0.5117,-4.78906 32,32 0 0 0 0.6895,-1.76172 c 0.4038,-2.25989 0.7853,-4.50192 1.1523,-6.72656 a 32,32 0 0 0 0.4161,-4.87109 32,32 0 0 0 0.6386,-1.7461 c 0.3596,-2.3155 0.688,-4.57472 0.9981,-6.77148 a 32,32 0 0 0 0.3047,-4.93945 32,32 0 0 0 0.5957,-1.76954 c 0.295,-2.27929 0.5724,-4.55537 0.832,-6.82812 a 32,32 0 0 0 0.1719,-4.91797 32,32 0 0 0 0.5605,-1.82226 c 0.2287,-2.23831 0.4499,-4.52533 0.6524,-6.86133 a 32,32 0 0 0 0.041,-4.91797 32,32 0 0 0 0.5156,-1.86328 c 0.1628,-2.20064 0.3236,-4.49396 0.4629,-6.88086 a 32,32 0 0 0 -0.1,-4.84766 32,32 0 0 0 0.457,-1.82226 c 0.1234,-2.48518 0.1968,-4.72485 0.2754,-6.71875 a 32,32 0 0 0 -0.1894,-4.83399 32,32 0 0 0 0.414,-1.77734 c 0.073,-2.24003 0.1348,-4.45627 0.1895,-6.64649 a 32,32 0 0 0 -0.2539,-4.70898 32,32 0 0 0 0.4043,-1.83203 c 0.044,-2.16844 0.086,-4.38212 0.1152,-6.63867 a 32,32 0 0 0 -0.3106,-4.70704 32,32 0 0 0 0.3868,-1.87109 l 0.027,-3.45898 a 32.0032,32.0032 0 0 0 0,-0.0977 l 0.012,-2.94141 a 32,32 0 0 0 -0.248,-3.33593 32,32 0 0 0 0.2519,-3.23438 c 0,-2.24009 -0.014,-4.45679 -0.033,-6.65039 a 32,32 0 0 0 -0.3808,-1.82812 32,32 0 0 0 0.3086,-4.70899 c -0.029,-2.19425 -0.064,-4.41099 -0.1114,-6.65039 a 32,32 0 0 0 -0.3984,-1.80273 32,32 0 0 0 0.252,-4.7461 c -0.055,-2.14411 -0.1131,-4.352 -0.1876,-6.62304 a 32,32 0 0 0 -0.416,-1.78711 32,32 0 0 0 0.1914,-4.79297 l -0.125,-3.23633 a 32.0032,32.0032 0 0 0 0,-0.0996 l -0.1328,-3.1582 a 32,32 0 0 0 -0.4472,-1.85547 32,32 0 0 0 0.1464,-4.72071 c -0.1075,-2.27314 -0.2258,-4.47827 -0.3418,-6.61523 a 32,32 0 0 0 -0.4707,-1.83789 32,32 0 0 0 0.092,-4.70898 c -0.134,-2.26063 -0.2779,-4.46884 -0.4218,-6.625 a 32,32 0 0 0 -0.4922,-1.82618 32,32 0 0 0 0.035,-4.70507 c -0.161,-2.25488 -0.333,-4.4634 -0.5039,-6.625 a 32,32 0 0 0 -0.5117,-1.81836 32,32 0 0 0 -0.025,-4.70703 c -0.1888,-2.25627 -0.3873,-4.46247 -0.584,-6.61719 a 32,32 0 0 0 -0.5351,-1.8086 32,32 0 0 0 -0.08,-4.71093 c -0.2176,-2.26494 -0.4435,-4.46547 -0.6641,-6.59961 a 32,32 0 0 0 -0.5566,-1.80469 32,32 0 0 0 -0.1465,-4.75586 c -0.2438,-2.22461 -0.4936,-4.41366 -0.7441,-6.56836 a 32,32 0 0 0 -0.5781,-1.79297 32,32 0 0 0 -0.2129,-4.78906 c -0.2645,-2.14104 -0.5368,-4.33674 -0.8321,-6.58789 a 32,32 0 0 0 -0.5957,-1.75781 32,32 0 0 0 -0.2656,-4.72266 c -0.2969,-2.19021 -0.6037,-4.39146 -0.9219,-6.60156 a 32,32 0 0 0 -0.623,-1.76367 32,32 0 0 0 -0.3223,-4.69922 c -0.3314,-2.23675 -0.6699,-4.42736 -1.0058,-6.57618 a 32,32 0 0 0 -0.6446,-1.75585 32,32 0 0 0 -0.4023,-4.80079 c -0.3478,-2.1208 -0.7081,-4.30326 -1.0938,-6.54882 a 32,32 0 0 0 -0.6679,-1.74219 32,32 0 0 0 -0.4512,-4.70117 c -0.3883,-2.20455 -0.7843,-4.39135 -1.1856,-6.5625 a 32,32 0 0 0 -0.6894,-1.72852 32,32 0 0 0 -0.5352,-4.78711 c -0.4065,-2.11424 -0.8256,-4.2903 -1.2734,-6.52539 a 32,32 0 0 0 -0.7168,-1.72266 32,32 0 0 0 -0.582,-4.68554 c -0.454,-2.21604 -0.9136,-4.38988 -1.3692,-6.52344 a 32,32 0 0 0 -0.7441,-1.73047 32,32 0 0 0 -0.6641,-4.74219 c -0.4778,-2.1636 -0.9655,-4.3357 -1.4668,-6.51562 a 32,32 0 0 0 -0.7597,-1.68945 32,32 0 0 0 -0.7422,-4.76172 c -0.5028,-2.11813 -1.0217,-4.27874 -1.5645,-6.48242 a 32,32 0 0 0 -0.7851,-1.67969 32,32 0 0 0 -0.8086,-4.73242 c -0.5388,-2.12854 -1.0919,-4.28635 -1.666,-6.47266 a 32,32 0 0 0 -0.8165,-1.67773 32,32 0 0 0 -0.8808,-4.71289 c -0.5748,-2.13163 -1.1641,-4.28466 -1.7715,-6.45704 a 32,32 0 0 0 -0.8418,-1.66015 32,32 0 0 0 -0.9629,-4.72266 c -0.6075,-2.11346 -1.2309,-4.25639 -1.8769,-6.42773 a 32,32 0 0 0 -0.8692,-1.64844 32,32 0 0 0 -1.039,-4.69727 c -0.6502,-2.12974 -1.3116,-4.26456 -1.9864,-6.40234 a 32,32 0 0 0 -0.9062,-1.65039 32,32 0 0 0 -1.1172,-4.67188 c -0.6935,-2.14166 -1.3951,-4.27148 -2.1055,-6.39062 a 32,32 0 0 0 -0.9336,-1.63086 32,32 0 0 0 -1.2168,-4.69336 c -0.7255,-2.10281 -1.4645,-4.21844 -2.2226,-6.3457 a 32,32 0 0 0 -0.9649,-1.61328 32,32 0 0 0 -1.2988,-4.6543 c -0.7747,-2.11849 -1.5619,-4.23345 -2.3613,-6.34375 a 32,32 0 0 0 -0.9961,-1.5957 32,32 0 0 0 -1.3985,-4.64453 c -0.8166,-2.09954 -1.6474,-4.20244 -2.496,-6.3086 a 32,32 0 0 0 -1.0293,-1.57226 32,32 0 0 0 -1.504,-4.63086 c -0.8652,-2.09089 -1.7451,-4.18292 -2.6425,-6.27539 a 32,32 0 0 0 -1.0703,-1.5586 32,32 0 0 0 -1.6094,-4.60156 c -0.9265,-2.10237 -1.8593,-4.1775 -2.7949,-6.22656 a 32,32 0 0 0 -1.1075,-1.53516 32,32 0 0 0 -1.7558,-4.63477 c -0.9626,-2.03955 -1.9515,-4.10189 -2.9707,-6.18359 a 32,32 0 0 0 -1.1367,-1.49023 32,32 0 0 0 -1.8946,-4.61133 c -1.0245,-2.02571 -2.0767,-4.07201 -3.1621,-6.13672 a 32,32 0 0 0 -1.1855,-1.46484 32,32 0 0 0 -2.0528,-4.59961 c -1.0923,-2.00532 -2.2134,-4.03186 -3.373,-6.07618 a 32,32 0 0 0 -1.2539,-1.44921 32,32 0 0 0 -2.2051,-4.53711 c -1.1895,-2.02062 -2.4042,-4.03807 -3.6445,-6.04883 a 32,32 0 0 0 -1.3321,-1.43164 32,32 0 0 0 -2.4023,-4.4961 c -1.2922,-2.00843 -2.6108,-4.0044 -3.9531,-5.98437 a 32,32 0 0 0 -1.4375,-1.41797 32,32 0 0 0 -2.6602,-4.47656 c -1.3941,-1.95224 -2.8371,-3.92208 -4.3379,-5.90039 a 32,32 0 0 0 -1.5683,-1.38867 32,32 0 0 0 -2.9571,-4.40039 c -1.5735,-1.95109 -3.2021,-3.89976 -4.8906,-5.8379 a 32,32 0 0 0 -1.7754,-1.37304 32,32 0 0 0 -3.4082,-4.34766 c -1.7972,-1.8988 -3.6918,-3.81294 -5.6992,-5.72266 a 32,32 0 0 0 -2.1133,-1.33593 32,32 0 0 0 -4.1074,-4.24414 c -2.2098,-1.85857 -4.5844,-3.72243 -7.1543,-5.54297 a 32,32 0 0 0 -2.7832,-1.24414 32,32 0 0 0 -5.5273,-4.01953 c -3.0363,-1.69341 -6.4573,-3.35979 -10.3301,-4.78516 a 32,32 0 0 0 -4.0684,-0.64063 32,32 0 0 0 -9.0508,-2.61914 c -2.3106,-0.3005 -4.5527,-0.43189 -6.7187,-0.43554 a 32,32 0 0 0 -0.039,0.01 32,32 0 0 0 -0.035,-0.01 v 0 z" />
      <g
         id="g13003"
         inkscape:label="face">
        <path
           style="opacity:1;fill:none;fill-opacity:1;stroke:#65471b;stroke-width:64;stroke-linecap:round;stroke-linejoin:round;stroke-miterlimit:4;stroke-dasharray:none;stroke-dashoffset:0;stroke-opacity:1;paint-order:fill markers stroke;stop-color:#000000"
           d="m 149.46799,1304.1077 68.44329,6.6235 -37.53342,39.7413"
           id="path2163"
           inkscape:label="left nostril" />
        <path
           style="opacity:1;fill:none;fill-opacity:1;stroke:#65471b;stroke-width:64;stroke-linecap:round;stroke-linejoin:round;stroke-miterlimit:4;stroke-dasharray:none;stroke-dashoffset:0;stroke-opacity:1;paint-order:fill markers stroke;stop-color:#000000"
           d="m 467.39814,1354.8882 -59.6119,-44.157 121.43166,-17.6628"
           id="path2198"
           inkscape:label="right nostril" />
        <path
           style="opacity:1;fill:#ffffff;fill-opacity:1;stroke:#65471b;stroke-width:64;stroke-linecap:round;stroke-linejoin:round;stroke-miterlimit:4;stroke-dasharray:none;stroke-dashoffset:0;stroke-opacity:1;paint-order:fill markers stroke;stop-color:#000000"
           d="m 288.56243,1633.0771 -90.52178,-183.2514 90.52178,-72.859 103.76887,66.2354 z"
           id="path2202"
           sodipodi:nodetypes="ccccc"
           inkscape:label="toof" />
      </g>
      <g
         id="g12993"
         inkscape:label="right eye"
         transform="translate(65.569751,103.03818)">
        <path
           style="opacity:1;fill:#65471b;fill-opacity:1;stroke:#65471b;stroke-width:64;stroke-linecap:round;stroke-linejoin:round;stroke-miterlimit:4;stroke-dasharray:none;stroke-dashoffset:0;stroke-opacity:1;paint-order:fill markers stroke;stop-color:#000000"
           d="m 661.97569,1226.0485 53.36716,-115.5008 86.53085,168.711 z"
           id="path7852"
           inkscape:label="eyenub"
           sodipodi:nodetypes="cccc" />
        <path
           id="path1915"
           style="opacity:1;fill:#fefefe;stroke:#65471b;stroke-width:64;stroke-linecap:round;stroke-linejoin:round;paint-order:fill markers stroke;stop-color:#000000"
           inkscape:label="righteye"
           d="m 1150.289,1075.2222 c 0,120.7167 -151.8603,218.5769 -272.57702,218.5769 -120.71671,0 -164.57695,-71.8602 -164.57699,-192.5769 -2e-5,-120.71675 97.86024,-244.57702 218.57699,-244.57701 120.71672,-2e-5 218.57702,97.86025 218.57702,218.57701 z"
           sodipodi:nodetypes="sssss" />
        <path
           style="opacity:1;fill:#ffffff;fill-opacity:1;stroke:#65471b;stroke-width:48;stroke-linecap:round;stroke-linejoin:round;stroke-miterlimit:4;stroke-dasharray:none;stroke-dashoffset:0;stroke-opacity:1;paint-order:fill markers stroke;stop-color:#000000"
           d="m 841.19021,1004.7993 v 135.2613"
           id="path2350"
           inkscape:label="right pupil"
           sodipodi:nodetypes="cc" />
      </g>
      <path
         style="opacity:1;fill:none;fill-opacity:1;stroke:#ffcb4c;stroke-width:32;stroke-linecap:round;stroke-linejoin:round;stroke-miterlimit:4;stroke-dasharray:none;stroke-dashoffset:0;stroke-opacity:1;paint-order:fill markers stroke;stop-color:#000000"
         d="M 487.66774,228.13955 C 664.66987,451.44017 786.25845,691.69909 800.38429,964.845"
         id="path6280"
         sodipodi:nodetypes="cc"
         inkscape:label="eyelash right big" />
      <path
         style="display:inline;fill:none;fill-opacity:1;stroke:#ffcb4c;stroke-width:32;stroke-linecap:round;stroke-linejoin:round;stroke-miterlimit:4;stroke-dasharray:none;stroke-dashoffset:0;stroke-opacity:1;paint-order:fill markers stroke;stop-color:#000000"
         d="m 777.13772,399.33099 c 57.33566,162.60107 95.67474,355.38513 98.55015,516.11928"
         id="path6280-0"
         sodipodi:nodetypes="cc"
         inkscape:label="eyelash right small" />
    </g>
    <g
       id="g2960"
       transform="matrix(-0.96657504,0,0,0.96657504,957.35538,24.678781)"
       style="stroke:#ffffff;stroke-width:1.03458">
      <path
         id="path2005"
         style="color:#000000;fill:#000000;stroke:#ffffff;stroke-width:66.2132;stroke-linecap:round;stroke-linejoin:round;stroke-miterlimit:4;stroke-dasharray:none;paint-order:stroke fill markers"
         inkscape:transform-center-x="-1.8345618"
         inkscape:transform-center-y="-303.52524"
         d="m 458.52148,32.140625 c -18.1431,0.117927 -36.03147,8.950948 -47.06479,23.370745 -8.35258,10.747277 -12.92799,24.372624 -12.67994,37.988228 -0.0324,16.011232 -0.0119,32.022662 -0.0176,48.033992 0.007,47.35548 -0.01,94.71149 0.052,142.06662 0.54024,17.59619 9.24739,34.7728 23.20347,45.52388 12.25158,9.58214 28.29818,14.21003 43.76707,12.41659 14.73123,-1.60627 28.79928,-8.81928 38.57963,-19.97232 9.43104,-10.62519 14.98679,-24.65202 15.16919,-38.8759 0.11184,-5.32183 -0.0199,-10.64529 0.0363,-15.96785 0.0104,-58.70175 0.018,-117.40411 -0.0199,-176.105469 -0.45854,-16.480176 -8.06957,-32.602328 -20.4765,-43.454736 -11.06865,-9.738495 -25.79309,-15.260444 -40.5489,-15.02378 z" />
      <path
         id="path2740"
         style="color:#000000;fill:#1a1a1a;stroke:#ffffff;stroke-width:66.2132;stroke-linecap:round;stroke-linejoin:round;stroke-miterlimit:4;stroke-dasharray:none;paint-order:stroke fill markers"
         inkscape:transform-center-x="-215.92199"
         inkscape:transform-center-y="-213.32752"
         d="m 738.72266,156.23242 c -13.47807,0.29905 -26.70732,5.91295 -36.39725,15.26519 -13.45063,13.50084 -26.95856,26.94732 -40.42894,40.42958 -31.81192,31.80836 -63.62465,63.61682 -95.38239,95.47878 -11.51072,12.45063 -16.66312,30.53142 -13.21268,47.15937 2.61705,13.26181 10.34374,25.4784 21.36212,33.34478 10.88932,7.9032 24.78642,11.59603 38.1564,9.92943 9.28918,-1.10599 18.26808,-4.66763 25.80508,-10.20674 0.25867,-0.19532 0.85493,-0.63216 1.24083,-0.94238 3.79946,-2.93417 6.98618,-6.54778 10.42725,-9.8738 31.3331,-31.29291 62.63749,-62.61576 93.94281,-93.93523 12.04425,-12.06531 24.09969,-24.1201 36.11255,-36.21633 10.95817,-12.06341 15.95048,-29.25751 13.1747,-45.31561 -0.25079,-1.50082 -0.59533,-3.03291 -0.95335,-4.41173 -3.72211,-14.52333 -13.69483,-27.38855 -27.0178,-34.33497 -8.20515,-4.36327 -17.53559,-6.59954 -26.82933,-6.37034 z" />
      <path
         id="path2742"
         style="color:#000000;fill:#333333;stroke:#ffffff;stroke-width:66.2132;stroke-linecap:round;stroke-linejoin:round;stroke-miterlimit:4;stroke-dasharray:none;paint-order:stroke fill markers"
         inkscape:transform-center-x="-303.52524"
         inkscape:transform-center-y="1.8345614"
         d="m 853.75,436.10156 c -63.22212,0.0128 -126.44485,-0.0215 -189.66658,0.0738 -17.36057,0.63276 -34.2044,9.84912 -43.98871,24.22288 -3.8572,5.56725 -6.656,11.85096 -8.30565,18.41616 -0.0649,0.30641 -0.28345,1.17472 -0.34804,1.48083 -2.31329,10.26344 -1.58856,21.16415 1.98284,31.05423 3.76502,10.54348 10.72247,19.93833 19.81512,26.48931 9.60881,7.00693 21.47047,10.88292 33.37102,10.79747 6.64306,0.0592 13.28656,-0.0331 19.92984,0.0106 56.93031,-0.005 113.86129,0.0431 170.79117,-0.0593 16.72908,-0.50087 33.02789,-8.97686 42.9998,-22.42731 6.69135,-8.92613 10.68113,-19.86619 11.21021,-31.01573 0.01,-0.44553 0.0603,-1.26569 0.0598,-1.85542 0.20907,-10.86031 -2.87492,-21.73877 -8.64965,-30.92973 -0.20585,-0.30443 -0.61007,-0.96175 -0.91115,-1.39413 -7.47257,-11.15216 -19.06899,-19.4534 -32.04301,-22.90896 -2.70267,-0.73058 -5.46029,-1.2549 -8.24115,-1.57777 -0.69845,-0.0785 -1.69579,-0.16701 -2.51023,-0.23253 -1.82814,-0.13929 -3.66274,-0.16965 -5.49563,-0.14443 z" />
      <path
         id="path2744"
         style="color:#000000;fill:#4d4d4d;stroke:#ffffff;stroke-width:66.2132;stroke-linecap:round;stroke-linejoin:round;stroke-miterlimit:4;stroke-dasharray:none;paint-order:stroke fill markers"
         inkscape:transform-center-x="-213.32752"
         inkscape:transform-center-y="215.92199"
         d="m 603.37109,587.54883 c -17.06411,0.0575 -33.82803,9.16071 -43.08704,23.50784 -8.26379,12.54442 -10.79461,28.76069 -6.46284,43.17499 2.70752,9.33032 8.11395,17.81252 15.26627,24.36764 41.63069,41.65655 83.27441,83.30006 124.94511,124.91659 2.9327,2.87752 5.75988,5.86562 8.76629,8.66596 8.97638,8.02755 20.80031,12.79225 32.84123,13.17668 1.50891,0.0583 3.01973,0.0345 4.52786,-0.0363 0.39101,-0.0193 1.1744,-0.0704 1.71346,-0.11855 2.27796,-0.18417 4.73334,-0.57385 6.84123,-1.03575 1.53134,-0.33971 3.1,-0.76087 4.50077,-1.20264 15.68984,-4.89133 28.72696,-17.65662 33.74141,-33.33252 2.85877,-8.63121 3.38379,-18.01008 1.56836,-26.91601 -0.0777,-0.319 -0.21298,-1.02675 -0.33453,-1.50245 -2.26652,-9.74793 -7.57095,-18.65752 -14.65779,-25.67558 -6.44153,-6.31105 -12.76891,-12.73919 -19.16365,-19.09823 -38.43669,-38.41172 -76.84864,-76.84799 -115.32439,-115.21923 -9.61662,-8.80714 -22.63207,-13.84226 -35.68175,-13.67248 z" />
      <path
         id="path2746"
         style="color:#000000;fill:#666666;stroke:#ffffff;stroke-width:66.2132;stroke-linecap:round;stroke-linejoin:round;stroke-miterlimit:4;stroke-dasharray:none;paint-order:stroke fill markers"
         inkscape:transform-center-x="1.8345581"
         inkscape:transform-center-y="303.52524"
         d="m 453.8457,649.55078 c -9.68078,0.32943 -19.22106,3.57686 -27.15234,9.125 -0.54696,0.39102 -1.34847,0.96576 -1.97313,1.45826 -5.93152,4.56194 -10.742,10.52962 -14.0425,17.23901 -0.21919,0.4608 -0.58915,1.22254 -0.84643,1.8099 -0.6141,1.37332 -1.14905,2.74645 -1.6173,4.0934 -0.86693,2.48954 -1.56719,5.22011 -2.00502,7.70412 -0.79378,4.14585 -0.81551,8.37771 -0.77133,12.58242 4.4e-4,61.8319 -0.001,123.66384 0.0513,185.49569 0.0248,13.70497 6.14324,27.23289 16.25712,36.45314 0.29375,0.25654 0.86594,0.78075 1.27863,1.12457 2.11368,1.80665 4.38128,3.43137 6.76434,4.86371 0.40333,0.23148 1.12101,0.65458 1.65229,0.94393 11.80759,6.4694 26.28138,8.0078 39.11273,3.82628 6.90617,-2.14681 13.4784,-5.97967 18.7135,-10.76435 10.05597,-9.15676 16.12871,-22.55996 16.24619,-36.17336 0.0686,-5.22277 0.003,-10.44667 0.032,-15.67 0.004,-58.59403 0.0383,-117.18851 -0.0323,-175.78226 -0.44051,-16.68315 -9.94158,-32.82327 -24.34311,-41.26813 -3.64372,-2.16628 -7.55866,-3.87604 -11.62734,-5.06719 -0.50881,-0.14857 -1.35453,-0.38209 -1.99957,-0.54096 -1.20341,-0.30521 -2.64584,-0.59501 -3.72113,-0.7813 -3.29276,-0.56068 -6.63889,-0.76773 -9.97657,-0.67188 z" />
      <path
         id="path2748"
         style="color:#000000;fill:#808080;stroke:#ffffff;stroke-width:66.2132;stroke-linecap:round;stroke-linejoin:round;stroke-miterlimit:4;stroke-dasharray:none;paint-order:stroke fill markers"
         inkscape:transform-center-x="215.92199"
         inkscape:transform-center-y="213.32752"
         d="m 307.1582,591.16016 c -12.68011,0.25402 -25.02678,6.14632 -33.49454,15.53554 -44.39885,44.40697 -88.84251,88.76994 -133.15367,133.26403 -10.4122,11.43567 -14.43968,28.36723 -10.07429,43.2314 3.57335,12.62486 12.74808,23.62829 24.73255,29.06749 8.89432,4.17855 19.14715,5.43363 28.76534,3.35961 8.89119,-1.84744 17.22175,-6.36229 23.53986,-12.898 43.46974,-43.43009 87.02776,-86.95888 130.45381,-130.50319 2.72643,-2.78239 5.62151,-5.44266 7.81077,-8.69196 8.34646,-11.80852 10.75922,-27.68683 5.91801,-41.35819 -3.94339,-11.45563 -12.54591,-21.30438 -23.54276,-26.46181 -0.46188,-0.22059 -1.24682,-0.57957 -1.84205,-0.82709 -6.01125,-2.57547 -12.57501,-3.84935 -19.11303,-3.71783 z" />
      <path
         id="path2750"
         style="color:#000000;fill:#b3b3b3;stroke:#ffffff;stroke-width:66.2132;stroke-linecap:round;stroke-linejoin:round;stroke-miterlimit:4;stroke-dasharray:none;paint-order:stroke fill markers"
         inkscape:transform-center-x="303.52524"
         inkscape:transform-center-y="-1.8345585"
         d="m 246.72852,442.77148 c -63.20126,0.0193 -126.4033,-0.0241 -189.604024,0.11014 -15.79404,0.6288 -30.921672,10.13913 -38.257231,24.15452 -5.692055,10.57981 -7.058141,23.44239 -3.48199,34.93466 3.254328,10.86725 10.665857,20.45837 20.482013,26.17994 6.886184,4.09701 14.853094,6.39237 22.875268,6.43732 8.808808,0.12203 17.6194,9.2e-4 26.428928,0.0318 54.945616,-10e-4 109.891646,0.0587 164.836976,-0.0646 15.88918,-0.43634 31.19402,-9.89813 38.62981,-23.95597 2.57073,-4.7492 4.29235,-9.95371 5.08634,-15.29458 0.094,-0.63151 0.21699,-1.58086 0.28696,-2.3411 1.42204,-14.14906 -4.27314,-28.80078 -14.88048,-38.27194 -7.25928,-6.56372 -16.63471,-10.76582 -26.39087,-11.67149 -1.99661,-0.20259 -4.00518,-0.28157 -6.0117,-0.24868 z" />
      <path
         id="path2752"
         style="color:#000000;fill:#cccccc;stroke:#ffffff;stroke-width:66.2132;stroke-linecap:round;stroke-linejoin:round;stroke-miterlimit:4;stroke-dasharray:none;paint-order:stroke fill markers"
         inkscape:transform-center-x="213.32752"
         inkscape:transform-center-y="-215.92199"
         d="m 176.30469,168.12109 c -14.1854,0.28281 -27.97775,8.75328 -34.3642,21.47103 -3.75606,7.26312 -5.18513,15.70756 -4.05377,23.80436 0.0859,0.56378 0.22194,1.45131 0.3676,2.13758 1.49833,7.73394 5.47875,14.87685 10.95673,20.50112 3.0774,3.09702 6.20111,6.14955 9.27562,9.25063 41.60717,41.53907 83.11458,83.18117 124.79838,124.64085 5.70666,5.74425 13.36531,9.38611 21.3248,10.67361 7.36699,1.21502 15.07703,0.29499 21.91311,-2.72684 9.95515,-4.27231 18.09084,-12.74177 21.65226,-23.00755 3.17425,-8.7745 3.16894,-18.68139 -0.20411,-27.39844 -2.26716,-6.03592 -6.02608,-11.47311 -10.76276,-15.83682 C 292.73571,267.23377 248.35999,222.7398 203.8125,178.41797 196.42128,171.6198 186.32543,167.92448 176.30469,168.12109 Z" />
    </g>
  </g>
</svg>
