<?xml version="1.0" encoding="UTF-8" standalone="no"?>
<!-- Created with Inkscape (http://www.inkscape.org/) -->

<svg
   version="1.1"
   id="svg824"
   width="1706.6667"
   height="1706.6667"
   viewBox="0 0 1706.6667 1706.6667"
   sodipodi:docname="ying_spray_bottle.svg"
   inkscape:version="1.3.2 (091e20e, 2023-11-25, custom)"
   inkscape:export-filename="D:\Pictures\yingmotes\ying_blush.png"
   inkscape:export-xdpi="72"
   inkscape:export-ydpi="72"
   xmlns:inkscape="http://www.inkscape.org/namespaces/inkscape"
   xmlns:sodipodi="http://sodipodi.sourceforge.net/DTD/sodipodi-0.dtd"
   xmlns="http://www.w3.org/2000/svg"
   xmlns:svg="http://www.w3.org/2000/svg">
  <defs
     id="defs828" />
  <sodipodi:namedview
     id="namedview826"
     pagecolor="#ffffff"
     bordercolor="#666666"
     borderopacity="1.0"
     inkscape:pageshadow="2"
     inkscape:pageopacity="0.0"
     inkscape:pagecheckerboard="0"
     showgrid="false"
     inkscape:zoom="0.64053927"
     inkscape:cx="1135.7618"
     inkscape:cy="1117.0275"
     inkscape:window-width="1920"
     inkscape:window-height="1001"
     inkscape:window-x="-9"
     inkscape:window-y="-9"
     inkscape:window-maximized="1"
     inkscape:current-layer="g12988"
     inkscape:showpageshadow="2"
     inkscape:deskcolor="#d1d1d1" />
  <g
     id="layer1"
     inkscape:label="Ying"
     style="display:inline"
     inkscape:groupmode="layer">
    <path
       style="display:none;fill:#123456;stroke:#123456;stroke-width:52.261;stroke-linecap:round;stroke-linejoin:round;-inkscape-stroke:none;paint-order:fill markers stroke;stop-color:#000000"
       d="m 1515.3771,1101.7892 c 57.8122,107.3424 151.3791,195.1822 162.2592,328.1239 -24.0384,-15.6248 -45.6729,-12.0192 -64.9036,10.8173 74.3266,44.6671 47.7811,143.6499 66.7064,218.1483 l -81.1295,5.4087 c 54.5138,48.1115 66.774,104.6737 73.9181,162.2591 l -403.8034,1.8029 c -19.9083,-33.8727 18.8748,-170.308 54.0864,-185.3986 0,0 2.7593,-16.3442 -61.5317,-7.7207 23.4692,-201.9171 151.6341,-344.7396 254.3981,-533.4409 z"
       id="path3091"
       sodipodi:nodetypes="cccccccccc"
       inkscape:label="mane" />
    <path
       style="opacity:1;fill:#ffcb4c;fill-opacity:1;stroke:#ffcb4c;stroke-width:52.261;stroke-linecap:round;stroke-linejoin:round;stroke-miterlimit:4;stroke-dasharray:none;stroke-dashoffset:0;stroke-opacity:1;paint-order:fill markers stroke;stop-color:#000000"
       d="m 1147.9682,1488.6756 -86.0474,218.5236 84.4443,-43.7871 -77.3754,168.6143 410.8176,-17.924 c 0,0 -104.2007,-76.9482 -121.8347,-150.6903 -17.6339,-73.742 41.6803,-206.7982 41.6803,-206.7982 z"
       id="path3340"
       inkscape:label="neck"
       sodipodi:nodetypes="cccccscc" />
    <g
       id="g12988"
       inkscape:label="head"
       inkscape:groupmode="layer"
       style="display:inline"
       transform="matrix(0.81657736,0,0,0.81657736,333.05093,316.33068)">
      <path
         style="display:inline;fill:#f19020;fill-opacity:1;stroke:#f19020;stroke-width:64;stroke-linecap:round;stroke-miterlimit:4;stroke-dasharray:none;stroke-dashoffset:0;stroke-opacity:1;paint-order:fill markers stroke;stop-color:#000000"
         d="m 1002.857,1155.6424 c 0,0 154.0835,87.5877 332.806,125.6562 196.6127,41.879 425.2143,18.8956 445.9571,-46.4781 20.7429,-65.3737 -143.448,-219.774 -271.5607,-281.07823 C 1381.9466,892.43817 1076.096,879.4967 1076.096,879.4967 Z"
         id="path1640-1"
         inkscape:label="left ear"
         sodipodi:nodetypes="cssscc" />
      <path
         style="display:inline;fill:none;fill-opacity:1;stroke:#f19020;stroke-width:32;stroke-linecap:round;stroke-linejoin:round;stroke-miterlimit:4;stroke-dasharray:none;stroke-dashoffset:0;stroke-opacity:1;paint-order:fill markers stroke;stop-color:#000000"
         d="m 258.66317,847.81112 c 172.41369,-0.0909 366.99003,27.75912 519.55922,78.41856"
         id="path6280-0-6"
         sodipodi:nodetypes="cc"
         inkscape:label="eyelash left small"
         inkscape:transform-center-x="218.23672"
         inkscape:transform-center-y="-27.174683" />
      <path
         style="display:inline;fill:none;fill-opacity:1;stroke:#f19020;stroke-width:32;stroke-linecap:round;stroke-linejoin:round;stroke-miterlimit:4;stroke-dasharray:none;stroke-dashoffset:0;stroke-opacity:1;paint-order:fill markers stroke;stop-color:#000000"
         d="M 68.615875,724.70748 C 352.57471,701.03684 619.95681,732.89508 855.19184,872.43972"
         id="path6280-3"
         sodipodi:nodetypes="cc"
         inkscape:label="eyelash left big"
         inkscape:transform-center-x="340.12226"
         inkscape:transform-center-y="-48.494165" />
      <g
         id="g12997"
         inkscape:label="left eye"
         transform="translate(149.87372,96.793441)">
        <path
           id="path1915-9"
           style="display:inline;fill:#d19020;fill-opacity:1;stroke:#65471b;stroke-width:64;stroke-linecap:round;stroke-linejoin:round;paint-order:fill markers stroke;stop-color:#000000"
           inkscape:label="lefteye"
           d="m 792.61751,1048.7279 c 10e-6,120.7167 -155.86024,218.577 -276.57698,218.577 -120.71674,0 -160.57699,-55.8603 -160.57698,-176.577 0,-120.71673 97.86025,-260.57698 218.57698,-260.57698 120.71673,0 218.57698,97.86025 218.57698,218.57698 z"
           sodipodi:nodetypes="sssss" />
      </g>
      <path
         id="path1148"
         style="display:inline;opacity:1;fill:#ffcb4c;stroke:#ffcb4c;stroke-width:64;stroke-linecap:round;stroke-linejoin:round;stroke-miterlimit:4;stroke-dasharray:6.4, 6.4;stroke-dashoffset:0;stroke-opacity:1;paint-order:fill markers stroke;stop-color:#000000"
         inkscape:label="head"
         d="m 1448.9284,1250.352 c 0,0 -0.1078,-10.8206 -0.9512,-28.418 -0.4217,-8.7987 -1.0259,-19.2912 -1.8945,-30.9726 -0.8686,-11.6814 -1.9997,-24.5525 -3.4727,-38.1055 -1.4729,-13.553 -3.2888,-27.7877 -5.5234,-42.2012 -2.2347,-14.4134 -4.8892,-29.0047 -8.043,-43.2675 -1.5769,-7.1314 -3.279,-14.1818 -5.1152,-21.0859 -1.8362,-6.9042 -3.8068,-13.6624 -5.9219,-20.2129 -2.1151,-6.5506 -4.3733,-12.8924 -6.7871,-18.9629 -2.4138,-6.0706 -4.9828,-11.86987 -7.7148,-17.33401 -2.7321,-5.46415 -5.9346,-10.78574 -9.5391,-15.96094 -3.6045,-5.1752 -7.6114,-10.20474 -11.9492,-15.08399 -4.3379,-4.87924 -9.0074,-9.60926 -13.9395,-14.18554 -4.9321,-4.57628 -10.1264,-8.99932 -15.5136,-13.26563 -5.3873,-4.2663 -10.9666,-8.37489 -16.67,-12.32422 -5.7033,-3.94932 -11.5298,-7.73794 -17.4101,-11.36328 -11.7607,-7.25067 -23.7371,-13.84709 -35.3711,-19.75976 -11.634,-5.91267 -22.9257,-11.14156 -33.3203,-15.66016 -10.3946,-4.5186 -19.8912,-8.32606 -27.9336,-11.39453 -16.085,-6.13693 -26.3535,-9.31836 -26.3535,-9.31836 -106.8313,-15.98813 -232.17459,6.96944 -312.62502,60.01367 -101.26734,66.76968 -136.88727,176.62945 -198.70703,211.95505 -61.81975,35.3255 -225.20029,77.273 -280.39649,83.8965 -55.19621,6.6235 -183.25036,6.6246 -161.17188,123.6406 22.07849,117.016 112.59922,282.6048 377.54102,247.2793 264.94179,-35.3256 313.51517,-44.1575 536.5078,-88.3145 22.8973,-4.5341 53.8481,-18.3195 86.8281,-36.9472 l 291.9303,26.0406 -170.985,-112.7242 c 5.3578,-4.8405 10.5999,-9.7184 15.6328,-14.6367 l 220.1354,-11.7421 -162.94,-60.3009 c 3.4806,-6.5537 6.4805,-13.0207 8.6269,-19.3066 1.0523,-3.0817 2.0328,-6.6268 3.0469,-9.9766 z"
         sodipodi:nodetypes="csssssssssssssssssscssssssccccccsc" />
      <g
         id="g13003"
         inkscape:label="face"
         transform="translate(149.87372,96.793441)">
        <path
           style="opacity:1;fill:none;fill-opacity:1;stroke:#65471b;stroke-width:64;stroke-linecap:round;stroke-linejoin:round;stroke-miterlimit:4;stroke-dasharray:none;stroke-opacity:1;paint-order:stroke fill markers;stop-color:#000000"
           d="m 222.99268,1273.9285 c 0,0 201.28676,99.7455 262.7855,164.9294"
           id="path10022"
           sodipodi:nodetypes="cc" />
        <path
           style="opacity:1;fill:none;fill-opacity:1;stroke:#65471b;stroke-width:64;stroke-linecap:round;stroke-linejoin:round;stroke-miterlimit:4;stroke-dasharray:none;stroke-dashoffset:0;stroke-opacity:1;paint-order:fill markers stroke;stop-color:#000000"
           d="m 83.898236,1201.0695 68.443294,6.6235 -37.53342,39.7413"
           id="path2163"
           inkscape:label="left nostril" />
        <path
           style="opacity:1;fill:none;fill-opacity:1;stroke:#65471b;stroke-width:64;stroke-linecap:round;stroke-linejoin:round;stroke-miterlimit:4;stroke-dasharray:none;stroke-dashoffset:0;stroke-opacity:1;paint-order:fill markers stroke;stop-color:#000000"
           d="m 401.82839,1251.85 -59.6119,-44.157 121.43166,-17.6628"
           id="path2198"
           inkscape:label="right nostril" />
        <path
           style="opacity:1;fill:#ffffff;fill-opacity:1;stroke:#65471b;stroke-width:64;stroke-linecap:round;stroke-linejoin:round;stroke-miterlimit:4;stroke-dasharray:none;stroke-dashoffset:0;stroke-opacity:1;paint-order:fill markers stroke;stop-color:#000000"
           d="m 222.99268,1530.0389 -90.52178,-183.2514 90.52178,-72.859 103.76887,66.2354 z"
           id="path2202"
           sodipodi:nodetypes="ccccc"
           inkscape:label="toof" />
      </g>
      <path
         style="display:none;fill:#123456;stroke:#123456;stroke-width:64;stroke-linecap:round;stroke-linejoin:round;-inkscape-stroke:none;paint-order:fill markers stroke;stop-color:#000000"
         d="M 1051.8395,850.87718 C 934.06179,870.66994 788.56382,985.7718 788.56382,985.7718 c 0.78462,-68.09643 -6.41802,-136.98313 119.5705,-192.69164 -124.42125,-9.12022 -248.73457,-18.40511 -409.63975,28.13875 0,0 310.85509,-208.72184 498.18386,-217.95767 172.59247,-8.50928 263.72217,37.15288 263.72217,37.15288 1.1525,-37.4423 -28.846,-73.08804 -86.7131,-107.12654 0,0 296.8286,116.08655 331.4861,196.60348 34.6575,80.51694 38.067,244.13636 38.067,244.13636 L 1280.2843,861.49539 c 0,0 -110.6671,-30.41096 -228.4448,-10.61821 z"
         id="path1637"
         sodipodi:nodetypes="zcccsccsccz"
         inkscape:label="top hair" />
      <path
         id="path13483-6"
         style="display:inline;fill:#ffcb4c;stroke:#ffcb4c;stroke-width:63.9997;stroke-linecap:round;stroke-linejoin:round;stroke-miterlimit:4;stroke-dasharray:6.39997, 6.39997;stroke-dashoffset:0;stroke-opacity:1;paint-order:fill markers stroke;stop-color:#000000"
         inkscape:label="right ear"
         d="m 1683.5546,1662.9394 c -77.7646,16.4364 -276.1393,-146.9138 -315.4538,-200.6119 -35.0033,-47.8097 -203.2093,-162.3122 -231.907,-195.6344 -83.6264,-194.6987 20.9364,-376.92193 132.7834,-340.8108 147.096,8.25455 457.0076,196.966 489.9115,361.6975 42.2949,211.7472 -24.9055,364.701 -75.3341,375.3596 z"
         sodipodi:nodetypes="ssccss"
         inkscape:transform-center-x="-139.0813"
         inkscape:transform-center-y="171.80015" />
      <g
         id="g12993"
         inkscape:label="right eye"
         transform="translate(149.87372,96.793441)">
        <path
           style="opacity:1;fill:#65471b;fill-opacity:1;stroke:#65471b;stroke-width:64;stroke-linecap:round;stroke-linejoin:round;stroke-miterlimit:4;stroke-dasharray:none;stroke-dashoffset:0;stroke-opacity:1;paint-order:fill markers stroke;stop-color:#000000"
           d="m 661.97569,1226.0485 53.36716,-115.5008 86.53085,168.711 z"
           id="path7852"
           inkscape:label="eyenub"
           sodipodi:nodetypes="cccc" />
        <path
           id="path1915"
           style="opacity:1;fill:#d19020;fill-opacity:1;stroke:#65471b;stroke-width:64;stroke-linecap:round;stroke-linejoin:round;paint-order:fill markers stroke;stop-color:#000000"
           inkscape:label="righteye"
           d="m 1150.289,1075.2222 c 0,120.7167 -151.8603,218.5769 -272.57702,218.5769 -120.71671,0 -164.57695,-71.8602 -164.57699,-192.5769 -2e-5,-120.71675 97.86024,-244.57702 218.57699,-244.57701 120.71672,-2e-5 218.57702,97.86025 218.57702,218.57701 z"
           sodipodi:nodetypes="sssss" />
        <path
           style="opacity:1;fill:none;fill-opacity:1;stroke:#65471b;stroke-width:64;stroke-linecap:round;stroke-linejoin:round;stroke-miterlimit:4;stroke-dasharray:none;stroke-opacity:1;paint-order:stroke fill markers;stop-color:#000000"
           d="m 739.6292,1218.7323 c 126.15135,-156.1536 329.2404,-322.22916 403.1447,-196.6325"
           id="path1276"
           sodipodi:nodetypes="cc" />
      </g>
      <path
         style="opacity:1;fill:none;fill-opacity:1;stroke:#ffcb4c;stroke-width:32;stroke-linecap:round;stroke-linejoin:round;stroke-miterlimit:4;stroke-dasharray:none;stroke-dashoffset:0;stroke-opacity:1;paint-order:fill markers stroke;stop-color:#000000"
         d="m 224.07087,623.79444 c 282.37608,38.16635 536.5827,126.97583 736.16067,313.99686"
         id="path6280"
         sodipodi:nodetypes="cc"
         inkscape:label="eyelash right big"
         inkscape:transform-center-x="320.167"
         inkscape:transform-center-y="-116.56079" />
      <path
         style="display:inline;fill:none;fill-opacity:1;stroke:#ffcb4c;stroke-width:32;stroke-linecap:round;stroke-linejoin:round;stroke-miterlimit:4;stroke-dasharray:none;stroke-dashoffset:0;stroke-opacity:1;paint-order:fill markers stroke;stop-color:#000000"
         d="m 552.9586,603.49827 c 156.95109,71.36412 322.49386,177.34133 440.35395,286.6699"
         id="path6280-0"
         sodipodi:nodetypes="cc"
         inkscape:label="eyelash right small"
         inkscape:transform-center-x="159.54644"
         inkscape:transform-center-y="-140.40271" />
    </g>
    <g
       id="g4"
       transform="rotate(0.84640683,4692.7739,-1690.0134)">
      <path
         style="display:inline;fill:#e6e6e6;stroke:#e6e6e6;stroke-width:64;stroke-linecap:round;stroke-linejoin:round;stroke-dasharray:none;stroke-dashoffset:192;paint-order:stroke fill markers"
         d="M 137.46966,407.50662 C 51.555381,399.7562 -37.930139,428.47569 -136.20524,546.9551 l -511.28782,616.5498 319.81201,265.9431 488.00897,-658.98685 C 207.90655,685.76223 284.51523,609.8848 234.60097,495.5603 Z"
         id="path2"
         sodipodi:nodetypes="ccccccc" />
      <path
         style="fill:#666666;stroke:#666666;stroke-width:64;stroke-linecap:round;stroke-linejoin:round;stroke-dasharray:none;stroke-dashoffset:192;paint-order:stroke fill markers"
         d="m 136.35181,191.56045 c 50.66887,-59.226 110.33578,-76.32699 176.74719,-61.85311 l 299.66632,236.52273 67.0077,106.37519 -46.095,57.02615 -107.55764,-36.4468 C 446.26664,577.7807 439.38197,644.38998 412.78592,715.8581 404.24779,623.49242 411.88246,532.71042 445.5448,444.47714 386.57362,413.13502 328.49424,408.6323 271.60054,439.81286 l -41.64375,51.94855 c -70.25978,-24.00824 -73.75946,-50.7076 -97.13131,-88.05369 l 52.88812,-34.1495 z"
         id="path1"
         sodipodi:nodetypes="ccccccccccccc" />
    </g>
    <g
       id="g3"
       transform="rotate(-11.190347,275.917,972.61401)"
       style="fill:#00ffff;stroke:#ffffff;stroke-width:64;stroke-dasharray:none">
      <path
         style="color:#000000;fill:#00ffff;stroke:#ffffff;stroke-width:64;stroke-linecap:round;stroke-linejoin:round;stroke-dasharray:none;stroke-dashoffset:192;paint-order:stroke fill markers"
         d="m 700.83594,658.7207 a 32,32 0 0 0 -12.45703,0.84766 32,32 0 0 0 -22.53516,39.24414 l 117.36719,433.9102 a 32,32 0 0 0 39.24609,22.5351 32,32 0 0 0 22.5332,-39.2441 L 727.625,682.10156 A 32,32 0 0 0 700.83594,658.7207 Z"
         id="path5" />
      <path
         style="color:#000000;fill:#00ffff;stroke:#ffffff;stroke-width:64;stroke-linecap:round;stroke-linejoin:round;stroke-dasharray:none;stroke-dashoffset:192;paint-order:stroke fill markers"
         d="m 795.39062,613.95508 a 32,32 0 0 0 -11.59179,4.63867 32,32 0 0 0 -9.35938,44.27539 l 245.23045,376.71676 a 32,32 0 0 0 44.2774,9.3594 32,32 0 0 0 9.3593,-44.2754 L 828.07617,627.95312 a 32,32 0 0 0 -32.68555,-13.99804 z"
         id="path7" />
      <path
         style="color:#000000;fill:#00ffff;stroke:#ffffff;stroke-width:64;stroke-linecap:round;stroke-linejoin:round;stroke-dasharray:none;stroke-dashoffset:192;paint-order:stroke fill markers"
         d="m 895.64453,544.42773 a 32,32 0 0 0 -22.11328,10.5293 32,32 0 0 0 2.33984,45.19336 l 333.85351,300.99023 a 32,32 0 0 0 45.1953,-2.33984 32,32 0 0 0 -2.3398,-45.19336 L 918.72656,552.61719 a 32,32 0 0 0 -23.08203,-8.18946 z"
         id="path9" />
    </g>
  </g>
</svg>
