<?xml version="1.0" encoding="UTF-8" standalone="no"?>
<!-- Created with Inkscape (http://www.inkscape.org/) -->

<svg
   version="1.1"
   id="svg824"
   width="1706.6667"
   height="1706.6667"
   viewBox="0 0 1706.6667 1706.6667"
   sodipodi:docname="ying_pet.svg"
   inkscape:version="1.1 (c68e22c387, 2021-05-23)"
   inkscape:export-filename="D:\Pictures\yingmotes\ying_pet.png"
   inkscape:export-xdpi="72"
   inkscape:export-ydpi="72"
   xmlns:inkscape="http://www.inkscape.org/namespaces/inkscape"
   xmlns:sodipodi="http://sodipodi.sourceforge.net/DTD/sodipodi-0.dtd"
   xmlns="http://www.w3.org/2000/svg"
   xmlns:svg="http://www.w3.org/2000/svg">
  <defs
     id="defs828" />
  <sodipodi:namedview
     id="namedview826"
     pagecolor="#ffffff"
     bordercolor="#666666"
     borderopacity="1.0"
     inkscape:pageshadow="2"
     inkscape:pageopacity="0.0"
     inkscape:pagecheckerboard="0"
     showgrid="false"
     inkscape:zoom="0.35053262"
     inkscape:cx="934.29251"
     inkscape:cy="751.71321"
     inkscape:window-width="1920"
     inkscape:window-height="1001"
     inkscape:window-x="-9"
     inkscape:window-y="-9"
     inkscape:window-maximized="1"
     inkscape:current-layer="g12988"
     showguides="false">
    <inkscape:grid
       type="xygrid"
       id="grid1300" />
  </sodipodi:namedview>
  <g
     id="layer1"
     inkscape:label="Ying"
     style="display:inline"
     inkscape:groupmode="layer">
    <path
       style="display:none;fill:#123456;stroke:#123456;stroke-width:64;stroke-linecap:round;stroke-linejoin:round;-inkscape-stroke:none;paint-order:fill markers stroke;stop-color:#000000"
       d="m 1298.031,865.09775 c 70.7982,131.45402 185.3824,239.02475 198.7064,401.82835 -29.438,-19.1346 -55.9321,-14.719 -79.4825,13.2471 91.0222,54.7003 58.5139,175.917 81.6903,267.1496 l -99.3531,6.6236 c 66.7588,58.9185 81.773,128.1858 90.5218,198.7063 l -494.50725,2.2079 c -24.3802,-41.4813 23.11455,-208.5632 66.23555,-227.0436 0,0 3.3791,-20.0154 -75.35325,-9.4549 C 1015.23,1271.0896 1172.1837,1096.1858 1298.031,865.09775 Z"
       id="path3091"
       sodipodi:nodetypes="cccccccccc"
       inkscape:label="mane" />
    <path
       style="opacity:1;fill:#ffcb4c;fill-opacity:1;stroke:#ffcb4c;stroke-width:64;stroke-linecap:round;stroke-linejoin:round;stroke-miterlimit:4;stroke-dasharray:none;stroke-dashoffset:0;stroke-opacity:1;paint-order:fill markers stroke;stop-color:#000000"
       d="m 885.0458,1465.0695 -64.7849,239.5079 62.82173,-25.5214 -51.04266,200.2443 459.38383,-15.7054 c 0,0 -127.6066,-94.2326 -149.2016,-184.5389 -21.5949,-90.3062 51.0427,-253.25 51.0427,-253.25 z"
       id="path3340"
       inkscape:label="neck" />
    <g
       id="g12988"
       inkscape:label="head"
       transform="rotate(-4.9650404,1815.8621,1040.9021)">
      <path
         style="display:inline;fill:none;fill-opacity:1;stroke:#f19020;stroke-width:32;stroke-linecap:round;stroke-linejoin:round;stroke-miterlimit:4;stroke-dasharray:none;stroke-dashoffset:0;stroke-opacity:1;paint-order:fill markers stroke;stop-color:#000000"
         d="M 206.04942,553.69361 C 359.57534,632.15556 520.10219,745.58707 632.84304,860.1874"
         id="path6280-0-6"
         sodipodi:nodetypes="cc"
         inkscape:label="eyelash left small"
         inkscape:transform-center-x="176.9307"
         inkscape:transform-center-y="-180.36966" />
      <path
         style="display:inline;fill:none;fill-opacity:1;stroke:#f19020;stroke-width:32;stroke-linecap:round;stroke-linejoin:round;stroke-miterlimit:4;stroke-dasharray:none;stroke-dashoffset:0;stroke-opacity:1;paint-order:fill markers stroke;stop-color:#000000"
         d="M 214.16336,309.7307 C 453.69957,464.0528 646.24703,652.29099 747.66977,906.30212"
         id="path6280-3"
         sodipodi:nodetypes="cc"
         inkscape:label="eyelash left big"
         inkscape:transform-center-x="186.77844"
         inkscape:transform-center-y="-317.18768" />
      <g
         id="g12997"
         inkscape:label="left eye"
         style="fill:#d19020;fill-opacity:1"
         transform="translate(-45.473551,-3.9504629)">
        <path
           id="path1915-9"
           style="display:inline;fill:#d19020;fill-opacity:1;stroke:#65471b;stroke-width:64;stroke-linecap:round;stroke-linejoin:round;paint-order:fill markers stroke;stop-color:#000000"
           inkscape:label="lefteye"
           d="m 869.11322,1070.7592 c 1e-5,120.7167 -155.86024,218.577 -276.57698,218.577 -120.71674,0 -160.57699,-55.8603 -160.57698,-176.577 0,-120.71672 97.86025,-260.57697 218.57698,-260.57697 120.71673,0 218.57698,97.86025 218.57698,218.57697 z"
           sodipodi:nodetypes="sssss" />
      </g>
      <path
         style="opacity:1;fill:#f19020;fill-opacity:1;stroke:#f19020;stroke-width:64;stroke-linecap:round;stroke-miterlimit:4;stroke-dasharray:none;stroke-dashoffset:0;stroke-opacity:1;paint-order:fill markers stroke;stop-color:#000000"
         d="m 823.58111,785.50448 c 0,0 43.38764,-171.84538 139.57423,-327.21305 105.81486,-170.91988 280.59126,-320.05131 342.13996,-289.79006 61.5486,30.26125 59.4014,255.63548 15.0096,390.54447 -44.3918,134.90901 -225.9653,384.52843 -225.9653,384.52843 z"
         id="path1640"
         inkscape:label="left ear"
         sodipodi:nodetypes="cssscc"
         inkscape:transform-center-x="-75.882027"
         inkscape:transform-center-y="-248.48464" />
      <path
         id="path1148"
         style="display:inline;opacity:1;fill:#ffcb4c;stroke:#ffcb4c;stroke-width:64;stroke-linecap:round;stroke-linejoin:round;stroke-miterlimit:4;stroke-dasharray:6.4, 6.4;stroke-dashoffset:0;stroke-opacity:1;paint-order:fill markers stroke;stop-color:#000000"
         inkscape:label="head"
         d="m 1299.0547,1153.5586 c 0,0 -0.1078,-10.8206 -0.9512,-28.418 -0.4217,-8.7987 -1.0259,-19.2912 -1.8945,-30.9726 -0.8686,-11.6814 -1.9997,-24.5525 -3.4727,-38.1055 -1.4729,-13.553 -3.2888,-27.7877 -5.5234,-42.2012 -2.2347,-14.41345 -4.8892,-29.0047 -8.043,-43.26755 -1.5769,-7.13143 -3.279,-14.18175 -5.1152,-21.08594 -1.8362,-6.90419 -3.8068,-13.66232 -5.9219,-20.21289 -2.1151,-6.55056 -4.3733,-12.89234 -6.7871,-18.96289 -2.4138,-6.07055 -4.9828,-11.86984 -7.7148,-17.33398 -2.7321,-5.46415 -5.9346,-10.78574 -9.5391,-15.96094 -3.6045,-5.1752 -7.6114,-10.20474 -11.9492,-15.08399 -4.3379,-4.87924 -9.0074,-9.60926 -13.9395,-14.18554 -4.9321,-4.57628 -10.1264,-8.99932 -15.5136,-13.26563 -5.3873,-4.2663 -10.9666,-8.37489 -16.67,-12.32422 -5.7033,-3.94932 -11.5298,-7.73794 -17.4101,-11.36328 -11.7607,-7.25067 -23.7371,-13.84709 -35.3711,-19.75976 -11.634,-5.91267 -22.9257,-11.14156 -33.3203,-15.66016 -10.3946,-4.5186 -19.8912,-8.32606 -27.9336,-11.39453 -16.085,-6.13693 -26.3535,-9.31836 -26.3535,-9.31836 -106.83135,-15.98813 -232.17461,6.96944 -312.62504,60.01367 -101.26734,66.76968 -136.88727,176.62945 -198.70703,211.95509 -61.81975,35.3255 -225.20029,77.273 -280.39649,83.8965 -55.19621,6.6235 -183.250354,6.6246 -161.171871,123.6406 22.078481,117.016 112.599211,282.6048 377.541011,247.2793 264.94179,-35.3256 313.51517,-44.1575 536.50782,-88.3145 22.8973,-4.5341 53.8481,-18.3195 86.8281,-36.9472 l 213.8711,-11.4278 -92.9258,-75.2558 c 5.3578,-4.8405 10.5999,-9.7184 15.6328,-14.6367 l 142.0762,-2.375 -84.8808,-69.668 c 3.4806,-6.5537 6.4805,-13.0207 8.6269,-19.3066 1.0523,-3.0817 2.0328,-6.6268 3.0469,-9.9766 z" />
      <path
         style="display:none;fill:#123456;stroke:#123456;stroke-width:64;stroke-linecap:round;stroke-linejoin:round;-inkscape-stroke:none;paint-order:fill markers stroke;stop-color:#000000"
         d="M 880.93148,744.0449 C 763.91552,771.643 622.61323,916.25706 622.61323,916.25706 620.95257,833.21142 611.27974,749.4374 735.2135,677.80944 c -124.69479,-7.45678 -249.2876,-15.1175 -408.45194,46.36482 0,0 303.22641,-263.62224 490.14233,-280.39675 172.2122,-15.45493 264.94181,37.53343 264.94181,37.53343 -0.1923,-45.68323 -31.4577,-88.25915 -90.52179,-128.0552 0,0 295.85169,97.14532 333.38509,194.29065 37.5334,97.14533 28.702,167.79647 28.702,167.79647 l -243.7525,34.92308 c 0,0 -111.71105,-33.81914 -228.72702,-6.22104 z"
         id="path1637"
         sodipodi:nodetypes="zcccsccsccz"
         inkscape:label="top hair" />
      <path
         id="path13483"
         style="display:inline;opacity:1;fill:#ffcb4c;stroke:#ffcb4c;stroke-width:64;stroke-linecap:round;stroke-linejoin:round;stroke-miterlimit:4;stroke-dasharray:6.4, 6.4;stroke-dashoffset:0;stroke-opacity:1;paint-order:fill markers stroke;stop-color:#000000"
         inkscape:label="right ear"
         d="m 1522.4709,142.84309 c -79.1173,-7.61183 -265.9691,260.59695 -301.4444,343.63086 -31.5853,73.92859 -124.2804,258.77839 -150.6042,311.15761 -101.1027,357.39074 105.6674,365.01414 214.0598,421.31334 107.6728,-107.7163 310.9911,-336.76918 341.2088,-558.23889 41.3718,-303.21857 -51.9143,-512.92686 -103.22,-517.86292 z"
         sodipodi:nodetypes="ssccss"
         inkscape:transform-center-x="-124.55412"
         inkscape:transform-center-y="-351.15445" />
      <g
         id="g13003"
         inkscape:label="face">
        <path
           style="opacity:1;fill:none;fill-opacity:1;stroke:#65471b;stroke-width:64;stroke-linecap:round;stroke-linejoin:round;stroke-miterlimit:4;stroke-dasharray:none;stroke-dashoffset:0;stroke-opacity:1;paint-order:fill markers stroke;stop-color:#000000"
           d="m 83.898236,1201.0695 68.443294,6.6235 -37.53342,39.7413"
           id="path2163"
           inkscape:label="left nostril" />
        <path
           style="opacity:1;fill:none;fill-opacity:1;stroke:#65471b;stroke-width:64;stroke-linecap:round;stroke-linejoin:round;stroke-miterlimit:4;stroke-dasharray:none;stroke-dashoffset:0;stroke-opacity:1;paint-order:fill markers stroke;stop-color:#000000"
           d="m 401.82839,1251.85 -59.6119,-44.157 121.43166,-17.6628"
           id="path2198"
           inkscape:label="right nostril" />
        <path
           style="opacity:1;fill:none;fill-opacity:1;stroke:#65471b;stroke-width:64;stroke-linecap:round;stroke-linejoin:round;stroke-miterlimit:4;stroke-dasharray:none;stroke-dashoffset:0;stroke-opacity:1;paint-order:fill markers stroke;stop-color:#000000"
           d="m 132.4709,1346.7875 90.52178,-72.859 c 0,0 227.99027,157.1936 304.17428,154.6413 131.8052,-4.4157 125.46854,-93.7361 125.46854,-93.7361"
           id="path2200"
           sodipodi:nodetypes="ccsc"
           inkscape:label="mouf" />
        <path
           style="opacity:1;fill:#ffffff;fill-opacity:1;stroke:#65471b;stroke-width:64;stroke-linecap:round;stroke-linejoin:round;stroke-miterlimit:4;stroke-dasharray:none;stroke-dashoffset:0;stroke-opacity:1;paint-order:fill markers stroke;stop-color:#000000"
           d="m 222.99268,1530.0389 -90.52178,-183.2514 90.52178,-72.859 103.76887,66.2354 z"
           id="path2202"
           sodipodi:nodetypes="ccccc"
           inkscape:label="toof" />
      </g>
      <path
         style="opacity:1;fill:none;fill-opacity:1;stroke:#ffcb4c;stroke-width:32;stroke-linecap:round;stroke-linejoin:round;stroke-miterlimit:4;stroke-dasharray:none;stroke-dashoffset:0;stroke-opacity:1;paint-order:fill markers stroke;stop-color:#000000"
         d="M 348.06639,170.59586 C 555.16776,366.30467 709.84839,586.718 762.87021,855.0404"
         id="path6280"
         sodipodi:nodetypes="cc"
         inkscape:label="eyelash right big"
         inkscape:transform-center-x="128.00583"
         inkscape:transform-center-y="-353.79851" />
      <path
         style="display:inline;fill:none;fill-opacity:1;stroke:#ffcb4c;stroke-width:32;stroke-linecap:round;stroke-linejoin:round;stroke-miterlimit:4;stroke-dasharray:none;stroke-dashoffset:0;stroke-opacity:1;paint-order:fill markers stroke;stop-color:#000000"
         d="M 653.82603,321.64676 C 742.29711,469.63107 818.14094,650.96857 852.8649,807.93348"
         id="path6280-0"
         sodipodi:nodetypes="cc"
         inkscape:label="eyelash right small"
         inkscape:transform-center-x="51.895383"
         inkscape:transform-center-y="-238.23839" />
      <g
         id="g12993"
         inkscape:label="right eye"
         transform="rotate(-0.1862072,-8325.2285,1916.0926)"
         style="display:inline;fill:#d19020;fill-opacity:1">
        <path
           style="opacity:1;fill:#d19020;fill-opacity:1;stroke:#65471b;stroke-width:64;stroke-linecap:round;stroke-linejoin:round;stroke-miterlimit:4;stroke-dasharray:none;stroke-dashoffset:0;stroke-opacity:1;paint-order:fill markers stroke;stop-color:#000000"
           d="m 661.97569,1226.0485 53.36716,-115.5008 86.53085,168.711 z"
           id="path7852"
           inkscape:label="eyenub"
           sodipodi:nodetypes="cccc" />
        <path
           id="path1915"
           style="opacity:1;fill:#d19020;fill-opacity:1;stroke:#65471b;stroke-width:64;stroke-linecap:round;stroke-linejoin:round;paint-order:fill markers stroke;stop-color:#000000"
           inkscape:label="righteye"
           d="m 1150.289,1075.2222 c 0,120.7167 -151.8603,218.5769 -272.57702,218.5769 -120.71671,0 -164.57695,-71.8602 -164.57699,-192.5769 -2e-5,-120.71675 97.86024,-244.57702 218.57699,-244.57701 120.71672,-2e-5 218.57702,97.86025 218.57702,218.57701 z"
           sodipodi:nodetypes="sssss" />
        <path
           id="path1749"
           style="display:inline;fill:#d19020;fill-opacity:1;stroke:#65471b;stroke-width:64;stroke-linecap:round;stroke-linejoin:round;-inkscape-stroke:none;paint-order:fill markers stroke;stop-color:#000000"
           d="m 925.78349,1058.1404 c -111.90142,23.5165 -174.60086,104.1948 -204.10291,151.6744 39.96804,93.9647 177.10005,86.8811 225.00615,74.9035 60.34347,-15.0872 171.34587,-89.0116 196.72947,-172.4815 -38.4856,-7.457 -105.7313,-77.6129 -217.63271,-54.0964 z"
           inkscape:label="right lid"
           sodipodi:nodetypes="zcscz" />
      </g>
    </g>
  </g>
  <g
     id="layer2"
     inkscape:label="hand"
     transform="translate(-22.822412,-39.939221)"
     inkscape:groupmode="layer"
     style="display:inline">
    <g
       id="g7371"
       transform="rotate(6.2065609,620.7497,1402.8964)"
       style="fill:#007c8d;fill-opacity:1">
      <g
         id="path6775"
         style="fill:#007c8d;fill-opacity:1;stroke:#ffffff;stroke-width:64;stroke-miterlimit:4;stroke-dasharray:none"
         transform="rotate(-34.98313,657.3167,407.20181)">
        <path
           style="color:#000000;fill:#007c8d;fill-opacity:1;stroke:#ffffff;stroke-width:64;stroke-linecap:round;stroke-linejoin:round;stroke-miterlimit:4;stroke-dasharray:none;paint-order:fill markers stroke"
           d="M 613.76868,534.57272 687.30779,183.84776"
           id="path6845" />
        <path
           style="color:#000000;fill:#007c8d;fill-opacity:1;stroke:#ffffff;stroke-width:64;stroke-linecap:round;stroke-linejoin:round;stroke-miterlimit:4;stroke-dasharray:none;paint-order:fill markers stroke"
           d="m 677.82617,132.69727 a 64,64 0 0 0 -55.77344,50.49804 l -2.62695,12.52735 a 64,64 0 0 0 -0.32031,6.4707 64,64 0 0 0 -2.30664,6.05664 l -2.62696,12.52734 a 64,64 0 0 0 -0.32031,6.47461 64,64 0 0 0 -2.30469,6.05274 l -2.62695,12.52734 a 64,64 0 0 0 -0.32226,6.4707 64,64 0 0 0 -2.30469,6.05664 l -2.62695,12.52735 a 64,64 0 0 0 -0.32032,6.4707 64,64 0 0 0 -2.30664,6.05664 l -2.62695,12.5293 a 64,64 0 0 0 -0.32031,6.4707 64,64 0 0 0 -2.30664,6.05664 l -2.62696,12.52735 a 64,64 0 0 0 -0.32031,6.4707 64,64 0 0 0 -2.30664,6.05664 l -2.625,12.52734 a 64,64 0 0 0 -0.32227,6.47071 64,64 0 0 0 -2.30468,6.05664 l -2.62696,12.52734 a 64,64 0 0 0 -0.32226,6.4707 64,64 0 0 0 -2.30469,6.05665 l -2.62695,12.52929 a 64,64 0 0 0 -0.32032,6.47071 64,64 0 0 0 -2.30664,6.05664 l -2.62695,12.52734 a 64,64 0 0 0 -0.32031,6.4707 64,64 0 0 0 -2.30664,6.05664 l -2.62696,12.52735 a 64,64 0 0 0 -0.32031,6.4707 64,64 0 0 0 -2.30664,6.05664 l -2.625,12.52734 a 64,64 0 0 0 -0.32226,6.47071 64,64 0 0 0 -2.30469,6.05664 l -2.62695,12.5293 a 64,64 0 0 0 -0.32227,6.4707 64,64 0 0 0 -2.30469,6.05664 l -2.62695,12.52734 a 64,64 0 0 0 49.50391,75.77149 64,64 0 0 0 75.77148,-49.50391 l 2.62695,-12.52734 a 64,64 0 0 0 1.13477,-8.60938 64,64 0 0 0 1.49219,-3.91992 l 2.62695,-12.52734 a 64,64 0 0 0 1.13476,-8.60743 64,64 0 0 0 1.49219,-3.91992 l 2.62696,-12.52734 a 64,64 0 0 0 1.13476,-8.60742 64,64 0 0 0 1.49219,-3.91992 l 2.625,-12.52735 a 64,64 0 0 0 1.13672,-8.61133 64,64 0 0 0 1.49023,-3.91601 l 2.62695,-12.52735 a 64,64 0 0 0 1.13477,-8.60742 64,64 0 0 0 1.49219,-3.91992 l 2.62695,-12.5293 a 64,64 0 0 0 1.13477,-8.60547 64,64 0 0 0 1.49218,-3.92187 l 2.62696,-12.52734 a 64,64 0 0 0 1.13476,-8.60743 64,64 0 0 0 1.49219,-3.91992 l 2.62695,-12.52734 a 64,64 0 0 0 1.13477,-8.61133 64,64 0 0 0 1.49023,-3.91602 l 2.62696,-12.52734 a 64,64 0 0 0 1.13672,-8.61133 64,64 0 0 0 1.49023,-3.91601 l 2.62695,-12.5293 a 64,64 0 0 0 1.13477,-8.60547 64,64 0 0 0 1.49219,-3.92187 l 2.62695,-12.52735 a 64,64 0 0 0 1.13476,-8.60742 64,64 0 0 0 1.49219,-3.91992 l 2.62696,-12.52734 a 64,64 0 0 0 1.13476,-8.60743 64,64 0 0 0 1.49219,-3.91992 l 2.62695,-12.52734 a 64,64 0 0 0 1.13477,-8.61133 64,64 0 0 0 1.49023,-3.91602 l 2.62695,-12.52929 a 64,64 0 0 0 -49.5039,-75.77149 64,64 0 0 0 -19.99805,-0.99218 z"
           id="path6847" />
      </g>
      <g
         id="path6775-0"
         style="fill:#007c8d;fill-opacity:1;stroke:#ffffff;stroke-width:64;stroke-miterlimit:4;stroke-dasharray:none"
         transform="rotate(-4.8964747,-91.742207,-2882.3714)">
        <path
           style="color:#000000;fill:#007c8d;fill-opacity:1;stroke:#ffffff;stroke-width:64;stroke-linecap:round;stroke-linejoin:round;stroke-miterlimit:4;stroke-dasharray:none;paint-order:fill markers stroke"
           d="M 613.76868,534.57272 687.30779,183.84776"
           id="path6845-3" />
        <path
           style="color:#000000;fill:#007c8d;fill-opacity:1;stroke:#ffffff;stroke-width:64;stroke-linecap:round;stroke-linejoin:round;stroke-miterlimit:4;stroke-dasharray:none;paint-order:fill markers stroke"
           d="m 677.82617,132.69727 a 64,64 0 0 0 -55.77344,50.49804 l -2.62695,12.52735 a 64,64 0 0 0 -0.32031,6.4707 64,64 0 0 0 -2.30664,6.05664 l -2.62696,12.52734 a 64,64 0 0 0 -0.32031,6.47461 64,64 0 0 0 -2.30469,6.05274 l -2.62695,12.52734 a 64,64 0 0 0 -0.32226,6.4707 64,64 0 0 0 -2.30469,6.05664 l -2.62695,12.52735 a 64,64 0 0 0 -0.32032,6.4707 64,64 0 0 0 -2.30664,6.05664 l -2.62695,12.5293 a 64,64 0 0 0 -0.32031,6.4707 64,64 0 0 0 -2.30664,6.05664 l -2.62696,12.52735 a 64,64 0 0 0 -0.32031,6.4707 64,64 0 0 0 -2.30664,6.05664 l -2.625,12.52734 a 64,64 0 0 0 -0.32227,6.47071 64,64 0 0 0 -2.30468,6.05664 l -2.62696,12.52734 a 64,64 0 0 0 -0.32226,6.4707 64,64 0 0 0 -2.30469,6.05665 l -2.62695,12.52929 a 64,64 0 0 0 -0.32032,6.47071 64,64 0 0 0 -2.30664,6.05664 l -2.62695,12.52734 a 64,64 0 0 0 -0.32031,6.4707 64,64 0 0 0 -2.30664,6.05664 l -2.62696,12.52735 a 64,64 0 0 0 -0.32031,6.4707 64,64 0 0 0 -2.30664,6.05664 l -2.625,12.52734 a 64,64 0 0 0 -0.32226,6.47071 64,64 0 0 0 -2.30469,6.05664 l -2.62695,12.5293 a 64,64 0 0 0 -0.32227,6.4707 64,64 0 0 0 -2.30469,6.05664 l -2.62695,12.52734 a 64,64 0 0 0 49.50391,75.77149 64,64 0 0 0 75.77148,-49.50391 l 2.62695,-12.52734 a 64,64 0 0 0 1.13477,-8.60938 64,64 0 0 0 1.49219,-3.91992 l 2.62695,-12.52734 a 64,64 0 0 0 1.13476,-8.60743 64,64 0 0 0 1.49219,-3.91992 l 2.62696,-12.52734 a 64,64 0 0 0 1.13476,-8.60742 64,64 0 0 0 1.49219,-3.91992 l 2.625,-12.52735 a 64,64 0 0 0 1.13672,-8.61133 64,64 0 0 0 1.49023,-3.91601 l 2.62695,-12.52735 a 64,64 0 0 0 1.13477,-8.60742 64,64 0 0 0 1.49219,-3.91992 l 2.62695,-12.5293 a 64,64 0 0 0 1.13477,-8.60547 64,64 0 0 0 1.49218,-3.92187 l 2.62696,-12.52734 a 64,64 0 0 0 1.13476,-8.60743 64,64 0 0 0 1.49219,-3.91992 l 2.62695,-12.52734 a 64,64 0 0 0 1.13477,-8.61133 64,64 0 0 0 1.49023,-3.91602 l 2.62696,-12.52734 a 64,64 0 0 0 1.13672,-8.61133 64,64 0 0 0 1.49023,-3.91601 l 2.62695,-12.5293 a 64,64 0 0 0 1.13477,-8.60547 64,64 0 0 0 1.49219,-3.92187 l 2.62695,-12.52735 a 64,64 0 0 0 1.13476,-8.60742 64,64 0 0 0 1.49219,-3.91992 l 2.62696,-12.52734 a 64,64 0 0 0 1.13476,-8.60743 64,64 0 0 0 1.49219,-3.91992 l 2.62695,-12.52734 a 64,64 0 0 0 1.13477,-8.61133 64,64 0 0 0 1.49023,-3.91602 l 2.62695,-12.52929 a 64,64 0 0 0 -49.5039,-75.77149 64,64 0 0 0 -19.99805,-0.99218 z"
           id="path6847-3" />
      </g>
      <g
         id="path6775-0-3"
         style="fill:#007c8d;fill-opacity:1;stroke:#ffffff;stroke-width:64;stroke-miterlimit:4;stroke-dasharray:none"
         transform="rotate(34.70685,785.48837,1347.2991)">
        <path
           style="color:#000000;fill:#007c8d;fill-opacity:1;stroke:#ffffff;stroke-width:64;stroke-linecap:round;stroke-linejoin:round;stroke-miterlimit:4;stroke-dasharray:none;paint-order:fill markers stroke"
           d="M 613.76868,534.57272 687.30779,183.84776"
           id="path6845-3-8" />
        <path
           style="color:#000000;fill:#007c8d;fill-opacity:1;stroke:#ffffff;stroke-width:64;stroke-linecap:round;stroke-linejoin:round;stroke-miterlimit:4;stroke-dasharray:none;paint-order:fill markers stroke"
           d="m 677.82617,132.69727 a 64,64 0 0 0 -55.77344,50.49804 l -2.62695,12.52735 a 64,64 0 0 0 -0.32031,6.4707 64,64 0 0 0 -2.30664,6.05664 l -2.62696,12.52734 a 64,64 0 0 0 -0.32031,6.47461 64,64 0 0 0 -2.30469,6.05274 l -2.62695,12.52734 a 64,64 0 0 0 -0.32226,6.4707 64,64 0 0 0 -2.30469,6.05664 l -2.62695,12.52735 a 64,64 0 0 0 -0.32032,6.4707 64,64 0 0 0 -2.30664,6.05664 l -2.62695,12.5293 a 64,64 0 0 0 -0.32031,6.4707 64,64 0 0 0 -2.30664,6.05664 l -2.62696,12.52735 a 64,64 0 0 0 -0.32031,6.4707 64,64 0 0 0 -2.30664,6.05664 l -2.625,12.52734 a 64,64 0 0 0 -0.32227,6.47071 64,64 0 0 0 -2.30468,6.05664 l -2.62696,12.52734 a 64,64 0 0 0 -0.32226,6.4707 64,64 0 0 0 -2.30469,6.05665 l -2.62695,12.52929 a 64,64 0 0 0 -0.32032,6.47071 64,64 0 0 0 -2.30664,6.05664 l -2.62695,12.52734 a 64,64 0 0 0 -0.32031,6.4707 64,64 0 0 0 -2.30664,6.05664 l -2.62696,12.52735 a 64,64 0 0 0 -0.32031,6.4707 64,64 0 0 0 -2.30664,6.05664 l -2.625,12.52734 a 64,64 0 0 0 -0.32226,6.47071 64,64 0 0 0 -2.30469,6.05664 l -2.62695,12.5293 a 64,64 0 0 0 -0.32227,6.4707 64,64 0 0 0 -2.30469,6.05664 l -2.62695,12.52734 a 64,64 0 0 0 49.50391,75.77149 64,64 0 0 0 75.77148,-49.50391 l 2.62695,-12.52734 a 64,64 0 0 0 1.13477,-8.60938 64,64 0 0 0 1.49219,-3.91992 l 2.62695,-12.52734 a 64,64 0 0 0 1.13476,-8.60743 64,64 0 0 0 1.49219,-3.91992 l 2.62696,-12.52734 a 64,64 0 0 0 1.13476,-8.60742 64,64 0 0 0 1.49219,-3.91992 l 2.625,-12.52735 a 64,64 0 0 0 1.13672,-8.61133 64,64 0 0 0 1.49023,-3.91601 l 2.62695,-12.52735 a 64,64 0 0 0 1.13477,-8.60742 64,64 0 0 0 1.49219,-3.91992 l 2.62695,-12.5293 a 64,64 0 0 0 1.13477,-8.60547 64,64 0 0 0 1.49218,-3.92187 l 2.62696,-12.52734 a 64,64 0 0 0 1.13476,-8.60743 64,64 0 0 0 1.49219,-3.91992 l 2.62695,-12.52734 a 64,64 0 0 0 1.13477,-8.61133 64,64 0 0 0 1.49023,-3.91602 l 2.62696,-12.52734 a 64,64 0 0 0 1.13672,-8.61133 64,64 0 0 0 1.49023,-3.91601 l 2.62695,-12.5293 a 64,64 0 0 0 1.13477,-8.60547 64,64 0 0 0 1.49219,-3.92187 l 2.62695,-12.52735 a 64,64 0 0 0 1.13476,-8.60742 64,64 0 0 0 1.49219,-3.91992 l 2.62696,-12.52734 a 64,64 0 0 0 1.13476,-8.60743 64,64 0 0 0 1.49219,-3.91992 l 2.62695,-12.52734 a 64,64 0 0 0 1.13477,-8.61133 64,64 0 0 0 1.49023,-3.91602 l 2.62695,-12.52929 a 64,64 0 0 0 -49.5039,-75.77149 64,64 0 0 0 -19.99805,-0.99218 z"
           id="path6847-3-7" />
      </g>
    </g>
    <path
       id="rect21082"
       style="color:#000000;fill:#007c8d;fill-opacity:1;stroke:#ffffff;stroke-width:128;stroke-linecap:round;stroke-linejoin:round;stroke-miterlimit:4;stroke-dasharray:none;paint-order:stroke fill markers"
       d="m 944.9136,705.7052 a 47.999973,36.582758 0 0 0 -23.75,5.5672 L 638.94485,846.18033 c 6.81288,-6.63254 13.43284,-12.86159 19.35937,-18.02792 6.85763,-5.97789 12.79364,-10.56158 16.5957,-13.18117 -2.54376,0.42607 -6.22801,0.85537 -11.72265,1.17745 a 47.999973,36.582758 0 0 0 44.17578,-39.27856 47.999973,36.582758 0 0 0 -51.53906,-33.67116 c -11.08417,0.64986 -18.61987,2.19276 -24.1875,4.18583 -9.27945,3.32183 -13.09265,7.89578 -18.77149,11.67028 -9.08611,6.0393 -17.6745,12.96496 -26.82422,20.94102 -18.29937,15.95201 -38.26484,35.95642 -57.04687,56.60239 -18.78209,20.64588 -36.1531,41.64517 -48.88086,60.15259 -1.92304,2.79628 -3.70484,5.51017 -5.41602,8.19897 l -191.6289,-33.65776 a 56.680341,43.198424 0 0 0 -67.95508,32.391 l -18.96094,62.7129 a 56.680341,43.198424 0 0 0 43.4336,51.94911 l 262.86914,42.6145 a 56.680341,43.198424 0 0 0 13.99804,0.7546 c 16.9012,6.8686 34.3809,10.526 49.21485,11.6525 33.98019,2.5804 61.58984,-4.0906 61.58984,-4.0906 a 48.004773,36.586416 0 0 0 8.43555,-2.6496 47.999973,36.582758 0 0 0 3.49609,-0.6178 l 344.74805,-92.96334 a 47.999973,36.582758 0 0 0 29.24023,-46.68857 47.999973,36.582758 0 0 0 -61.25976,-22.28668 l -147.01758,39.64325 199.95704,-77.39157 a 47.999973,36.582758 0 0 0 21.0605,-49.18192 47.999973,36.582758 0 0 0 -64.53121,-16.05409 l -249.18164,96.4451 259.98047,-124.27516 a 47.999973,36.582758 0 0 0 15.1582,-50.43083 47.999973,36.582758 0 0 0 -42.41992,-17.11989 z" />
  </g>
</svg>
