<?xml version="1.0" encoding="UTF-8" standalone="no"?>
<!-- Created with Inkscape (http://www.inkscape.org/) -->

<svg
   version="1.1"
   id="svg824"
   width="1706.6667"
   height="1706.6667"
   viewBox="0 0 1706.6667 1706.6667"
   sodipodi:docname="ying_flop_sleep.svg"
   inkscape:version="1.3.2 (091e20e, 2023-11-25, custom)"
   inkscape:export-filename="D:\Pictures\yingmotes\ying_lurk.png"
   inkscape:export-xdpi="72"
   inkscape:export-ydpi="72"
   xmlns:inkscape="http://www.inkscape.org/namespaces/inkscape"
   xmlns:sodipodi="http://sodipodi.sourceforge.net/DTD/sodipodi-0.dtd"
   xmlns="http://www.w3.org/2000/svg"
   xmlns:svg="http://www.w3.org/2000/svg">
  <defs
     id="defs828" />
  <sodipodi:namedview
     id="namedview826"
     pagecolor="#ffffff"
     bordercolor="#666666"
     borderopacity="1.0"
     inkscape:pageshadow="2"
     inkscape:pageopacity="0.0"
     inkscape:pagecheckerboard="0"
     showgrid="false"
     inkscape:zoom="0.45292965"
     inkscape:cx="838.98239"
     inkscape:cy="767.22732"
     inkscape:window-width="1920"
     inkscape:window-height="1001"
     inkscape:window-x="-9"
     inkscape:window-y="-9"
     inkscape:window-maximized="1"
     inkscape:current-layer="g1"
     inkscape:showpageshadow="2"
     inkscape:deskcolor="#d1d1d1" />
  <g
     id="layer1"
     inkscape:label="Ying"
     style="display:inline"
     inkscape:groupmode="layer">
    <g
       id="g12988"
       inkscape:label="head"
       transform="rotate(5.8092557,-745.83591,2202.8207)">
      <path
         style="fill:#ffcb4c;stroke:#ffcb4c;stroke-width:64.0001;stroke-linecap:round;stroke-linejoin:round;stroke-dashoffset:172.8;paint-order:fill markers stroke;stop-color:#000000"
         d="m 944.93455,1347.7403 730.56905,-74.3277 -28.0221,-275.42983 c 0,0 -166.5692,34.72343 -239.9429,52.72623 4.2376,-18.6805 21.5214,-38.4874 47.0715,-59.00793 -98.174,4.1957 -188.1226,51.04623 -281.3142,81.07993"
         id="path957"
         sodipodi:nodetypes="cccccc"
         inkscape:transform-center-x="-291.63356"
         inkscape:transform-center-y="18.685126" />
      <g
         id="g1"
         transform="matrix(0.1787252,0.98389903,0.98389903,-0.1787252,-390.90861,383.7513)"
         inkscape:transform-center-x="322.10447"
         inkscape:transform-center-y="-339.17416">
        <path
           style="display:none;fill:#123456;fill-opacity:1;stroke:#123456;stroke-width:64;stroke-linecap:round;stroke-linejoin:round;stroke-opacity:1;paint-order:fill markers stroke"
           d="m 1191.7262,500.20322 c 1.2151,15.48691 5.4541,702.43768 5.4541,702.43768 -11.0452,289.434 61.9654,413.0524 103.1577,569.714 l -72.9648,-851.36262 z"
           id="path1"
           sodipodi:nodetypes="ccccc"
           inkscape:label="mane" />
        <path
           style="display:inline;fill:none;fill-opacity:1;stroke:#f19020;stroke-width:32;stroke-linecap:round;stroke-linejoin:round;stroke-miterlimit:4;stroke-dasharray:none;stroke-dashoffset:0;stroke-opacity:1;paint-order:fill markers stroke;stop-color:#000000"
           d="M 161.52515,636.02161 C 329.33826,675.58476 512.2941,747.43694 649.12309,831.8263"
           id="path6280-0-6"
           sodipodi:nodetypes="cc"
           inkscape:label="eyelash left small"
           inkscape:transform-center-x="253.52441"
           inkscape:transform-center-y="21.387011" />
        <path
           style="display:inline;fill:none;fill-opacity:1;stroke:#f19020;stroke-width:32;stroke-linecap:round;stroke-linejoin:round;stroke-miterlimit:4;stroke-dasharray:none;stroke-dashoffset:0;stroke-opacity:1;paint-order:fill markers stroke;stop-color:#000000"
           d="m 134.2334,480.18361 c 267.67612,97.68523 497.00189,238.81575 651.95529,464.19915"
           id="path6280-3"
           sodipodi:nodetypes="cc"
           inkscape:label="eyelash left big"
           inkscape:transform-center-x="368.33541"
           inkscape:transform-center-y="-68.966134" />
        <path
           style="opacity:1;fill:#f19020;fill-opacity:1;stroke:#f19020;stroke-width:64;stroke-linecap:round;stroke-miterlimit:4;stroke-dasharray:none;stroke-dashoffset:0;stroke-opacity:1;paint-order:fill markers stroke;stop-color:#000000"
           d="m 799.01743,1006.2703 c 0,0 -38.16571,-173.08002 -21.74378,-355.07259 18.06575,-200.2099 107.54876,-411.82223 176.13255,-412.32919 68.5837,-0.50695 167.5953,201.96488 188.3216,342.46929 20.7264,140.50442 -29.8315,445.00849 -29.8315,445.00849 z"
           id="path1640"
           inkscape:label="left ear"
           sodipodi:nodetypes="cssscc"
           inkscape:transform-center-x="313.20021"
           inkscape:transform-center-y="28.46594" />
        <g
           id="g12997"
           inkscape:label="left eye"
           transform="rotate(23.609482,683.0309,890.46749)">
          <path
             id="path1915-9"
             style="display:inline;fill:#d19020;stroke:#65471b;stroke-width:64;stroke-linecap:round;stroke-linejoin:round;paint-order:fill markers stroke;stop-color:#000000;fill-opacity:1"
             inkscape:label="lefteye"
             d="m 792.61751,1048.7279 c 10e-6,120.7167 -155.86024,218.577 -276.57698,218.577 -120.71674,0 -160.57699,-55.8603 -160.57698,-176.577 0,-120.71673 97.86025,-260.57698 218.57698,-260.57698 120.71673,0 218.57698,97.86025 218.57698,218.57698 z"
             sodipodi:nodetypes="sssss" />
        </g>
        <path
           id="path1148"
           style="display:inline;opacity:1;fill:#ffcb4c;stroke:#ffcb4c;stroke-width:64;stroke-linecap:round;stroke-linejoin:round;stroke-miterlimit:4;stroke-dasharray:6.4, 6.4;stroke-dashoffset:0;stroke-opacity:1;paint-order:fill markers stroke;stop-color:#000000"
           inkscape:label="head"
           d="m 1142.1231,1378.2549 c 0,0 4.2349,-9.9581 10.5099,-26.4203 3.1375,-8.2311 6.7861,-18.0873 10.6686,-29.1388 3.8825,-11.0515 8.001,-23.2983 12.0793,-36.3068 4.0783,-13.0085 8.1154,-26.7789 11.8405,-40.8809 3.7249,-14.1021 7.1364,-28.5351 9.9589,-42.8672 1.4112,-7.166 2.6752,-14.3079 3.7579,-21.3696 1.0826,-7.0617 1.9836,-14.0434 2.669,-20.8927 0.6855,-6.8494 1.1562,-13.5647 1.3757,-20.0939 0.2195,-6.5291 0.1881,-12.8719 -0.1268,-18.9728 -0.315,-6.101 -1.1181,-12.2598 -2.3483,-18.4454 -1.2301,-6.1856 -2.8873,-12.3989 -4.9078,-18.6071 -2.0207,-6.2081 -4.405,-12.4124 -7.0914,-18.5809 -2.6865,-6.1685 -5.6746,-12.3016 -8.9021,-18.3684 -3.2278,-6.0668 -6.6946,-12.066 -10.3389,-17.969 -3.6442,-5.9029 -7.4656,-11.7079 -11.4018,-17.3849 -7.8724,-11.3539 -16.2044,-22.19475 -24.4966,-32.27194 -8.2921,-10.07718 -16.5445,-19.39072 -24.2593,-27.69413 -7.7148,-8.30343 -14.8917,-15.59558 -21.032,-21.6282 -12.2808,-12.06531 -20.4156,-19.09298 -20.4156,-19.09298 C 978.17639,853.83305 854.13029,824.66893 759.16959,841.05272 639.63738,861.6759 563.00003,948.07426 492.20688,955.68413 421.41378,963.29391 254.90876,936.29624 201.67996,920.25921 148.45116,904.22218 31.115155,852.93742 4.480605,969.00121 -22.153945,1085.065 -6.416835,1229.9417 248.23136,1311.1596 c 257.49979,82.1274 316.68281,109.3534 531.4269,170.6248 22.44613,6.4044 55.37434,3.7329 93.05422,-0.127 l 200.54612,75.1842 -55.0076,-106.1735 c 6.848,-2.2895 13.6049,-4.6596 20.1863,-7.1506 l 131.1351,54.7254 -49.8739,-97.8313 c 5.8141,-4.6112 11.1529,-9.3354 15.6371,-14.2355 2.1985,-2.4023 4.5167,-5.258 6.7875,-7.9212 z"
           sodipodi:nodetypes="csssssssssssssssssscssssssccccccsc" />
        <path
           style="display:none;fill:#123456;stroke:#123456;stroke-width:64;stroke-linecap:round;stroke-linejoin:round;-inkscape-stroke:none;paint-order:fill markers stroke;stop-color:#000000"
           d="M 746.82474,852.99748 C 632.9222,814.51888 397.82292,828.63479 397.82292,828.63479 440.34321,757.28103 515.13673,714.93298 658.20092,719.70575 588.36035,593.12322 500.04507,499.37321 456.41827,290.24329 c 0,0 227.40987,189.42821 394.90632,274.06783 154.32051,77.98148 204.98391,172.00137 204.98391,172.00137 24.0024,-38.87003 19.9914,-91.54018 -9.0809,-156.55622 0,0 199.6815,238.94076 180.1456,341.236 -19.5361,102.29523 -115.4769,105.35403 -115.4769,105.35403 L 937.63928,979.2692 c 0,0 -76.91198,-87.79313 -190.81454,-126.27172 z"
           id="path1637"
           sodipodi:nodetypes="zcccsccsccz"
           inkscape:label="top hair"
           inkscape:transform-center-x="102.9068"
           inkscape:transform-center-y="-316.71599" />
        <path
           id="path13483"
           style="display:inline;opacity:1;fill:#ffcb4c;stroke:#ffcb4c;stroke-width:64;stroke-linecap:round;stroke-linejoin:round;stroke-miterlimit:4;stroke-dasharray:6.4, 6.4;stroke-dashoffset:0;stroke-opacity:1;paint-order:fill markers stroke;stop-color:#000000"
           inkscape:label="right ear"
           d="m 1055.7478,191.82766 c -78.56677,12.03055 -193.90891,317.88296 -207.9295,407.08247 -12.48315,79.41808 -56.99655,281.35969 -69.66576,338.59618 0,0 10.63176,1.59054 27.46036,5.22212 8.41415,1.81581 18.37766,4.142 29.33647,7.03518 10.95869,2.89322 22.91176,6.35274 35.30675,10.43637 12.39488,4.08361 25.23175,8.79126 37.95438,14.17831 6.36125,2.69351 12.69414,5.55656 18.92945,8.59713 6.23551,3.04056 12.37244,6.2573 18.34334,9.65905 5.97092,3.40172 11.77485,6.98763 17.34284,10.76463 5.56788,3.777 10.89945,7.7458 15.92596,11.9122 5.0263,4.1665 9.74837,8.5316 14.09462,13.1016 4.34638,4.57 8.31739,9.3456 11.84519,14.3332 3.5276,4.9877 6.9447,10.3313 10.2495,15.9666 3.3048,5.6353 6.497,11.5621 9.5791,17.7171 3.0826,6.1548 6.053,12.5369 8.9132,19.0837 2.86,6.5467 5.6096,13.258 8.2478,20.0687 5.2764,13.6212 10.1087,27.6426 14.4993,41.5517 4.3905,13.9092 8.3401,27.705 11.8475,40.8789 3.5073,13.1739 6.5736,25.7257 9.2004,37.1409 2.6265,11.4154 4.812,21.6956 6.5606,30.329 3.4973,17.2671 5.2417,27.9465 5.2417,27.9465 77.9564,-130.8396 132.2061,-378.25589 107.1675,-600.37083 -34.2808,-304.10188 -89.5017,-509.03227 -140.4507,-501.23071 z"
           inkscape:transform-center-x="317.08119"
           inkscape:transform-center-y="17.430294"
           sodipodi:nodetypes="sscssssssssssscsssssscss" />
        <g
           id="g13003"
           inkscape:label="face"
           transform="rotate(23.609482,683.0309,890.46749)">
          <path
             style="opacity:1;fill:none;fill-opacity:1;stroke:#65471b;stroke-width:64;stroke-linecap:round;stroke-linejoin:round;stroke-miterlimit:4;stroke-dasharray:none;stroke-dashoffset:0;stroke-opacity:1;paint-order:fill markers stroke;stop-color:#000000"
             d="m 83.898236,1201.0695 68.443294,6.6235 -37.53342,39.7413"
             id="path2163"
             inkscape:label="left nostril" />
          <path
             style="opacity:1;fill:none;fill-opacity:1;stroke:#65471b;stroke-width:64;stroke-linecap:round;stroke-linejoin:round;stroke-miterlimit:4;stroke-dasharray:none;stroke-dashoffset:0;stroke-opacity:1;paint-order:fill markers stroke;stop-color:#000000"
             d="m 401.82839,1251.85 -59.6119,-44.157 121.43166,-17.6628"
             id="path2198"
             inkscape:label="right nostril" />
          <path
             style="opacity:1;fill:none;fill-opacity:1;stroke:#65471b;stroke-width:64;stroke-linecap:round;stroke-linejoin:round;stroke-miterlimit:4;stroke-dasharray:none;stroke-dashoffset:0;stroke-opacity:1;paint-order:fill markers stroke;stop-color:#000000"
             d="m 132.4709,1346.7875 90.52178,-72.859 c 0,0 146.93476,106.6315 222.99268,101.561"
             id="path2200"
             sodipodi:nodetypes="ccc"
             inkscape:label="mouf" />
          <path
             style="opacity:1;fill:#ffffff;fill-opacity:1;stroke:#65471b;stroke-width:64;stroke-linecap:round;stroke-linejoin:round;stroke-miterlimit:4;stroke-dasharray:none;stroke-dashoffset:0;stroke-opacity:1;paint-order:fill markers stroke;stop-color:#000000"
             d="m 186.9059,1491.4935 -54.435,-144.706 90.52178,-72.859 103.76887,66.2354 z"
             id="path2202"
             sodipodi:nodetypes="ccccc"
             inkscape:label="toof" />
        </g>
        <g
           id="g12993"
           inkscape:label="right eye"
           transform="rotate(23.609482,683.0309,890.46749)">
          <path
             style="opacity:1;fill:#65471b;fill-opacity:1;stroke:#65471b;stroke-width:64;stroke-linecap:round;stroke-linejoin:round;stroke-miterlimit:4;stroke-dasharray:none;stroke-dashoffset:0;stroke-opacity:1;paint-order:fill markers stroke;stop-color:#000000"
             d="m 661.97569,1226.0485 53.36716,-115.5008 86.53085,168.711 z"
             id="path7852"
             inkscape:label="eyenub"
             sodipodi:nodetypes="cccc" />
          <path
             id="path1915"
             style="opacity:1;fill:#d19020;stroke:#65471b;stroke-width:64;stroke-linecap:round;stroke-linejoin:round;paint-order:fill markers stroke;stop-color:#000000;fill-opacity:1"
             inkscape:label="righteye"
             d="m 1150.289,1075.2222 c 0,120.7167 -151.8603,218.5769 -272.57702,218.5769 -120.71671,0 -164.57695,-71.8602 -164.57699,-192.5769 -2e-5,-120.71675 97.86024,-244.57702 218.57699,-244.57701 120.71672,-2e-5 218.57702,97.86025 218.57702,218.57701 z"
             sodipodi:nodetypes="sssss" />
        </g>
        <path
           style="opacity:1;fill:none;fill-opacity:1;stroke:#ffcb4c;stroke-width:32;stroke-linecap:round;stroke-linejoin:round;stroke-miterlimit:4;stroke-dasharray:none;stroke-dashoffset:0;stroke-opacity:1;paint-order:fill markers stroke;stop-color:#000000"
           d="M 238.60754,295.10088 C 477.68096,450.139 669.66432,638.95245 770.32658,893.26591"
           id="path6280"
           sodipodi:nodetypes="cc"
           inkscape:label="eyelash right big"
           inkscape:transform-center-x="337.0703"
           inkscape:transform-center-y="-102.98479" />
        <path
           style="display:inline;fill:none;fill-opacity:1;stroke:#ffcb4c;stroke-width:32;stroke-linecap:round;stroke-linejoin:round;stroke-miterlimit:4;stroke-dasharray:none;stroke-dashoffset:0;stroke-opacity:1;paint-order:fill markers stroke;stop-color:#000000"
           d="m 637.91629,395.75995 c 93.43173,144.9034 175.37297,323.56849 215.39253,479.26747"
           id="path6280-0"
           sodipodi:nodetypes="cc"
           inkscape:label="eyelash right small"
           inkscape:transform-center-x="175.95451"
           inkscape:transform-center-y="-145.6963" />
        <path
           style="fill:none;fill-opacity:1;stroke:#65471b;stroke-width:64;stroke-linecap:round;stroke-linejoin:round;stroke-opacity:1;paint-order:fill markers stroke"
           d="m 1056.1808,1157.1339 c 0,0 -66.08469,54.9958 -235.02783,77.0745 -127.87067,16.711 -244.23616,-86.9115 -244.23616,-86.9115"
           id="path2"
           sodipodi:nodetypes="csc" />
        <path
           style="display:inline;fill:#ffffff;stroke:#000000;stroke-width:128;stroke-linecap:round;stroke-linejoin:round;stroke-miterlimit:4;stroke-dasharray:none;paint-order:stroke fill markers;stop-color:#000000"
           d="m 508.77719,384.03895 56.27404,8.24259 -12.29536,81.1915 87.3275,-70.2014 56.27395,8.2427 -27.04973,178.62111 -56.2741,-8.2426 12.2954,-81.19141 -87.32746,70.20131 -56.27405,-8.2426 z"
           id="path17036"
           sodipodi:nodetypes="ccccccccccc" />
        <path
           style="display:inline;fill:#ffffff;stroke:#000000;stroke-width:128;stroke-linecap:round;stroke-linejoin:round;stroke-miterlimit:4;stroke-dasharray:none;paint-order:stroke fill markers;stop-color:#000000"
           d="m -34.014892,1518.3198 73.099244,7.0594 -9.986238,105.7369 107.451896,-96.3245 73.09929,7.0594 -21.96977,232.6213 -73.09927,-7.0594 9.98626,-105.7369 -107.451906,96.3245 -73.099267,-7.0594 z"
           id="path17036-0"
           sodipodi:nodetypes="ccccccccccc" />
        <path
           style="display:inline;fill:#ffffff;stroke:#000000;stroke-width:128;stroke-linecap:round;stroke-linejoin:round;stroke-miterlimit:4;stroke-dasharray:none;paint-order:stroke fill markers;stop-color:#000000"
           d="m -301.43798,427.9011 75.70675,-31.5719 46.23887,109.399 54.70345,-151.4949 75.706765,-31.572 101.7255,240.6778 -75.70676,31.572 -46.23886,-109.399 -54.703455,151.4949 -75.70675,31.572 z"
           id="path17036-3"
           sodipodi:nodetypes="ccccccccccc" />
      </g>
    </g>
  </g>
</svg>
