<?xml version="1.0" encoding="UTF-8" standalone="no"?>
<!-- Created with Inkscape (http://www.inkscape.org/) -->

<svg
   version="1.1"
   id="svg824"
   width="1706.6667"
   height="1706.6667"
   viewBox="0 0 1706.6667 1706.6667"
   sodipodi:docname="ying_tail_heart.svg"
   inkscape:version="1.3.2 (091e20e, 2023-11-25, custom)"
   inkscape:export-filename="..\..\..\Downloads\ying_tail_hug.png"
   inkscape:export-xdpi="72"
   inkscape:export-ydpi="72"
   xmlns:inkscape="http://www.inkscape.org/namespaces/inkscape"
   xmlns:sodipodi="http://sodipodi.sourceforge.net/DTD/sodipodi-0.dtd"
   xmlns="http://www.w3.org/2000/svg"
   xmlns:svg="http://www.w3.org/2000/svg">
  <defs
     id="defs828" />
  <sodipodi:namedview
     id="namedview826"
     pagecolor="#ffffff"
     bordercolor="#666666"
     borderopacity="1.0"
     inkscape:pageshadow="2"
     inkscape:pageopacity="0.0"
     inkscape:pagecheckerboard="0"
     showgrid="false"
     inkscape:zoom="0.2620361"
     inkscape:cx="812.86511"
     inkscape:cy="921.62875"
     inkscape:window-width="1920"
     inkscape:window-height="1001"
     inkscape:window-x="-9"
     inkscape:window-y="-9"
     inkscape:window-maximized="1"
     inkscape:current-layer="svg824"
     inkscape:showpageshadow="2"
     inkscape:deskcolor="#d1d1d1" />
  <g
     id="g5"
     style="display:inline;opacity:0.451943"
     transform="matrix(1.0544665,0,0,1.0544665,-53.8825,-24.50975)">
    <path
       id="path4"
       style="opacity:1;fill:none;fill-opacity:1;stroke:#b10020;stroke-width:120.91422535;stroke-linecap:round;stroke-linejoin:round;stroke-dasharray:120.91422535,362.74358465;stroke-dashoffset:241.82845069;stroke-opacity:1;paint-order:fill markers stroke"
       d="m 497.88232,249.68854 c -56.22958,-0.56442 -115.51236,15.8462 -175.1503,58.78076 -272.630446,196.27225 -178.93139,706.6717 -46.37887,890.003 117.4564,162.4521 477.26758,644.6771 583.9985,644.6771 106.73092,0 466.54215,-482.225 583.99855,-644.6771 132.5525,-183.3312 226.2515,-693.73075 -46.3789,-890.003 -271.989,-195.81039 -536.37678,72.55693 -537.62058,74.23292 -0.97355,-1.31182 -162.25487,-131.00398 -362.4684,-133.01368 z"
       sodipodi:nodetypes="scscsscs" />
    <path
       id="path5"
       style="opacity:1;fill:none;fill-opacity:1;stroke:#0080a2;stroke-width:120.91422535;stroke-linecap:round;stroke-linejoin:round;stroke-dasharray:120.91422535,362.74358465;stroke-dashoffset:0;stroke-opacity:1;paint-order:fill markers stroke"
       d="m 497.88232,249.68854 c -56.22958,-0.56442 -115.51236,15.8462 -175.1503,58.78076 -272.630446,196.27225 -178.93139,706.6717 -46.37887,890.003 117.4564,162.4521 477.26758,644.6771 583.9985,644.6771 106.73092,0 466.54215,-482.225 583.99855,-644.6771 132.5525,-183.3312 226.2515,-693.73075 -46.3789,-890.003 -271.989,-195.81039 -536.37678,72.55693 -537.62058,74.23292 -0.97355,-1.31182 -162.25487,-131.00398 -362.4684,-133.01368 z"
       sodipodi:nodetypes="scscsscs" />
  </g>
  <path
     style="fill:#5fd3bc;fill-opacity:1;stroke:#5fd3bc;stroke-width:64;stroke-linecap:round;stroke-linejoin:round;stroke-miterlimit:4;stroke-dasharray:6.4, 6.4;stroke-dashoffset:0;stroke-opacity:1;paint-order:markers stroke fill;stop-color:#000000"
     d="m 1305.9051,1734.4938 c -145.433,-80.8657 -622.53258,-465.7553 -728.90468,-627.4354 -176.715,-268.59761 -177.8502,-480.77707 -89.4417,-556.37126 79.4707,-67.95191 224.3269,8.1858 366.90061,144.02566 C 766.5309,536.35097 629.78892,407.60108 448.82012,456.79106 c -155.7552,42.33656 -214.2116,363.2741 -67.8793,679.20204 146.3323,315.9279 472.41467,617.8224 518.7442,595.0519 z"
     id="path1"
     sodipodi:nodetypes="csscszcc"
     inkscape:label="tail"
     inkscape:export-filename="D:\Pictures\yingmotes\path980.png"
     inkscape:export-xdpi="72"
     inkscape:export-ydpi="72" />
  <path
     style="display:inline;fill:#ffcb4c;fill-opacity:1;stroke:#ffcb4c;stroke-width:64;stroke-linecap:round;stroke-linejoin:round;stroke-miterlimit:4;stroke-dasharray:6.4, 6.4;stroke-dashoffset:0;stroke-opacity:1;paint-order:markers stroke fill;stop-color:#000000"
     d="m 400.6729,1734.4938 c 145.433,-80.8657 622.5326,-465.7553 728.9047,-627.4354 176.715,-268.59761 177.8502,-480.77707 89.4417,-556.37126 -79.4707,-67.95191 -224.32692,8.1858 -366.90063,144.02566 87.92843,-158.36183 224.67043,-287.11172 405.63923,-237.92174 155.7552,42.33656 214.2116,363.2741 67.8793,679.20204 -146.3323,315.9279 -472.41469,617.8224 -518.74422,595.0519 z"
     id="path2"
     sodipodi:nodetypes="csscszcc"
     inkscape:label="tail"
     inkscape:export-filename="D:\Pictures\yingmotes\path980.png"
     inkscape:export-xdpi="72"
     inkscape:export-ydpi="72" />
  <path
     style="display:none;fill:#456723;fill-opacity:1;stroke:#456723;stroke-width:64;stroke-linecap:round;stroke-linejoin:round;stroke-miterlimit:4;stroke-dasharray:6.4, 6.4;stroke-dashoffset:0;stroke-opacity:1;paint-order:markers stroke fill;stop-color:#000000"
     d="M 1035.0906,1037.4083 C 1073.1464,851.6371 938.32049,705.37221 840.14818,577.6148 L 950.6491,639.88737 C 779.93005,493.24089 686.14293,427.88418 617.20713,489.99195 c -26.0572,96.4225 88.9361,323.09346 88.9361,323.09346 56.17112,-28.98433 138.06514,158.42282 91.15672,263.00779 42.82663,-3.4455 30.11068,-128.26622 28.37026,-186.48409 26.67933,107.8785 33.20729,89.60297 53.94063,257.25719 49.9259,-85.0602 111.40956,-60.1249 63.79071,-241.08438 45.33865,118.55098 53.63385,68.10034 91.68905,131.62638 z"
     id="path6"
     sodipodi:nodetypes="cccccccccc"
     inkscape:label="tail tuft" />
  <path
     style="display:none;fill:#234567;fill-opacity:1;stroke:#234567;stroke-width:64;stroke-linecap:round;stroke-linejoin:round;stroke-miterlimit:4;stroke-dasharray:6.4, 6.4;stroke-dashoffset:0;stroke-opacity:1;paint-order:markers stroke fill;stop-color:#000000"
     d="M 669.98194,1037.4083 C 631.92617,851.6371 766.75204,705.37221 864.92435,577.6148 L 754.42341,639.88737 C 925.14248,493.24089 1018.9296,427.88418 1087.8654,489.99195 c 26.0572,96.4225 -88.9361,323.09346 -88.9361,323.09346 -56.17112,-28.98433 -138.06514,158.42282 -91.15672,263.00779 -42.82663,-3.4455 -30.11068,-128.26622 -28.37026,-186.48409 -26.67933,107.8785 -33.20729,89.60297 -53.94063,257.25719 -49.9259,-85.0602 -111.40953,-60.1249 -63.79071,-241.08438 -45.33864,118.55098 -53.63382,68.10034 -91.68904,131.62638 z"
     id="path3"
     sodipodi:nodetypes="cccccccccc"
     inkscape:label="tail tuft" />
</svg>
