<?xml version="1.0" encoding="UTF-8" standalone="no"?>
<!-- Created with Inkscape (http://www.inkscape.org/) -->

<svg
   version="1.1"
   id="svg824"
   width="1706.6667"
   height="1706.6667"
   viewBox="0 0 1706.6667 1706.6667"
   sodipodi:docname="ying_hug_small_dragn_sad.svg"
   inkscape:version="1.1 (c68e22c387, 2021-05-23)"
   inkscape:export-filename="D:\Pictures\yingmotes\ying_smol.png"
   inkscape:export-xdpi="72"
   inkscape:export-ydpi="72"
   xmlns:inkscape="http://www.inkscape.org/namespaces/inkscape"
   xmlns:sodipodi="http://sodipodi.sourceforge.net/DTD/sodipodi-0.dtd"
   xmlns="http://www.w3.org/2000/svg"
   xmlns:svg="http://www.w3.org/2000/svg">
  <defs
     id="defs828" />
  <sodipodi:namedview
     id="namedview826"
     pagecolor="#ffffff"
     bordercolor="#666666"
     borderopacity="1.0"
     inkscape:pageshadow="2"
     inkscape:pageopacity="0.0"
     inkscape:pagecheckerboard="0"
     showgrid="false"
     inkscape:zoom="0.35203928"
     inkscape:cx="458.75563"
     inkscape:cy="1106.4106"
     inkscape:window-width="1920"
     inkscape:window-height="1001"
     inkscape:window-x="-9"
     inkscape:window-y="-9"
     inkscape:window-maximized="1"
     inkscape:current-layer="layer1"
     showguides="false" />
  <g
     id="layer1"
     inkscape:label="Ying"
     style="display:inline"
     inkscape:groupmode="layer">
    <g
       id="g11558"
       inkscape:label="ying_main"
       transform="matrix(0.89489513,0,0,0.89544516,242.37559,-159.34259)"
       style="display:inline;stroke-width:1.11711">
      <path
         style="display:none;fill:#123456;stroke:#123456;stroke-width:71.4948;stroke-linecap:round;stroke-linejoin:round;-inkscape-stroke:none;paint-order:fill markers stroke;stop-color:#000000"
         d="m 1298.031,865.09779 c 70.7982,131.45402 185.3824,239.02471 198.7064,401.82831 -29.438,-19.1346 -55.9321,-14.719 -79.4825,13.2471 91.0222,54.7003 58.5139,175.917 81.6903,267.1496 l -99.3531,6.6236 c 66.7588,58.9185 81.773,128.1858 90.5218,198.7063 l -122.7406,-10.808 c 22.6092,48.2977 32.2281,107.1063 11.7838,124.1537 -11.0659,9.2274 -98.8184,-27.5849 -118.0451,-30.859 -139.3785,-23.735 -182.053,-27.4291 -265.50535,-80.2788 -24.3802,-41.4813 23.11455,-208.5632 66.23555,-227.0436 0,0 3.3791,-20.0154 -75.35325,-9.4549 C 1015.23,1271.0896 1172.1837,1096.1858 1298.031,865.09779 Z"
         id="path3091"
         sodipodi:nodetypes="cccccccsscccc"
         inkscape:label="mane" />
      <path
         style="display:inline;fill:#ffcb4c;fill-opacity:1;stroke:#ffcb4c;stroke-width:71.4948;stroke-linecap:round;stroke-linejoin:round;stroke-miterlimit:4;stroke-dasharray:none;stroke-dashoffset:0;stroke-opacity:1;paint-order:fill markers stroke;stop-color:#000000"
         d="m 885.0458,1465.0696 -64.78491,239.5079 62.82173,-25.5215 -92.42028,443.1677 566.33076,2.8968 c -111.9599,38.5274 -354.9671,-650.0634 -163.7282,-699.3144 z"
         id="path3340"
         inkscape:label="neck"
         sodipodi:nodetypes="ccccccc" />
    </g>
    <g
       id="g12988"
       inkscape:label="head"
       transform="matrix(0.82879814,0.33754751,-0.33783973,0.82926412,678.23214,-347.65604)"
       style="display:inline;stroke-width:1.11711">
      <path
         style="display:inline;fill:none;fill-opacity:1;stroke:#f19020;stroke-width:35.7474;stroke-linecap:round;stroke-linejoin:round;stroke-miterlimit:4;stroke-dasharray:none;stroke-dashoffset:0;stroke-opacity:1;paint-order:fill markers stroke;stop-color:#000000"
         d="m 143.12906,845.33167 c 172.33341,-5.68683 367.74229,15.83058 521.91614,61.50653"
         id="path6280-0-6"
         sodipodi:nodetypes="cc"
         inkscape:label="eyelash left small"
         inkscape:transform-center-x="242.16252"
         inkscape:transform-center-y="-72.076389" />
      <path
         style="display:inline;fill:none;fill-opacity:1;stroke:#f19020;stroke-width:35.7474;stroke-linecap:round;stroke-linejoin:round;stroke-miterlimit:4;stroke-dasharray:none;stroke-dashoffset:0;stroke-opacity:1;paint-order:fill markers stroke;stop-color:#000000"
         d="M 12.726368,773.2844 C 295.81585,740.55827 564.14672,763.85162 803.85635,895.78279"
         id="path6280-3"
         sodipodi:nodetypes="cc"
         inkscape:label="eyelash left big"
         inkscape:transform-center-x="345.95582"
         inkscape:transform-center-y="-126.27147" />
      <g
         id="g12997"
         inkscape:label="left eye"
         style="fill:#d19020;fill-opacity:1;stroke-width:1.11711"
         transform="translate(-47.533635,-12.228763)">
        <path
           id="path1915-9"
           style="display:inline;fill:#d19020;fill-opacity:1;stroke:#65471b;stroke-width:71.4948;stroke-linecap:round;stroke-linejoin:round;paint-order:fill markers stroke;stop-color:#000000"
           inkscape:label="lefteye"
           d="m 869.11322,1070.7592 c 1e-5,120.7167 -155.86024,218.577 -276.57698,218.577 -120.71674,0 -160.57699,-55.8603 -160.57698,-176.577 0,-120.71672 97.86025,-260.57697 218.57698,-260.57697 120.71673,0 218.57698,97.86025 218.57698,218.57697 z"
           sodipodi:nodetypes="sssss" />
      </g>
      <path
         id="path1148"
         style="display:inline;opacity:1;fill:#ffcb4c;stroke:#ffcb4c;stroke-width:71.4948;stroke-linecap:round;stroke-linejoin:round;stroke-miterlimit:4;stroke-dasharray:7.14948, 7.14948;stroke-dashoffset:0;stroke-opacity:1;paint-order:fill markers stroke;stop-color:#000000"
         inkscape:label="head"
         d="m 1299.0547,1153.5586 c 0,0 -0.1078,-10.8206 -0.9512,-28.418 -0.4217,-8.7987 -1.0259,-19.2912 -1.8945,-30.9726 -0.8686,-11.6814 -1.9997,-24.5525 -3.4727,-38.1055 -1.4729,-13.553 -3.2888,-27.7877 -5.5234,-42.2012 -2.2347,-14.41345 -4.8892,-29.0047 -8.043,-43.26755 -1.5769,-7.13143 -3.279,-14.18175 -5.1152,-21.08594 -1.8362,-6.90419 -3.8068,-13.66232 -5.9219,-20.21289 -2.1151,-6.55056 -4.3733,-12.89234 -6.7871,-18.96289 -2.4138,-6.07055 -4.9828,-11.86984 -7.7148,-17.33398 -2.7321,-5.46415 -5.9346,-10.78574 -9.5391,-15.96094 -3.6045,-5.1752 -7.6114,-10.20474 -11.9492,-15.08399 -4.3379,-4.87924 -9.0074,-9.60926 -13.9395,-14.18554 -4.9321,-4.57628 -10.1264,-8.99932 -15.5136,-13.26563 -5.3873,-4.2663 -10.9666,-8.37489 -16.67,-12.32422 -5.7033,-3.94932 -11.5298,-7.73794 -17.4101,-11.36328 -11.7607,-7.25067 -23.7371,-13.84709 -35.3711,-19.75976 -11.634,-5.91267 -22.9257,-11.14156 -33.3203,-15.66016 -10.3946,-4.5186 -19.8912,-8.32606 -27.9336,-11.39453 -16.085,-6.13693 -26.3535,-9.31836 -26.3535,-9.31836 -106.83135,-15.98813 -232.17461,6.96944 -312.62504,60.01367 -101.26734,66.76968 -136.88727,176.62945 -198.70703,211.95509 -61.81975,35.3255 -225.20029,77.273 -280.39649,83.8965 -55.19621,6.6235 -183.250354,6.6246 -161.171871,123.6406 22.078481,117.016 112.599211,282.6048 377.541011,247.2793 264.94179,-35.3256 313.51517,-44.1575 536.50782,-88.3145 22.8973,-4.5341 53.8481,-18.3195 86.8281,-36.9472 l 213.8711,-11.4278 -92.9258,-75.2558 c 5.3578,-4.8405 10.5999,-9.7184 15.6328,-14.6367 l 142.0762,-2.375 -84.8808,-69.668 c 3.4806,-6.5537 6.4805,-13.0207 8.6269,-19.3066 1.0523,-3.0817 2.0328,-6.6268 3.0469,-9.9766 z" />
      <path
         style="display:none;fill:#123456;stroke:#123456;stroke-width:71.4948;stroke-linecap:round;stroke-linejoin:round;-inkscape-stroke:none;paint-order:fill markers stroke;stop-color:#000000"
         d="m 876.15863,714.49972 c -117.01596,27.5981 -258.31825,172.21216 -258.31825,172.21216 -1.66066,-83.04564 -11.33349,-166.81966 112.60027,-238.44762 -124.69479,-7.45678 -249.2876,-15.1175 -408.45194,46.36482 0,0 303.22641,-263.62224 490.14233,-280.39675 172.2122,-15.45493 264.94176,37.53343 264.94176,37.53343 -0.1923,-45.68323 -31.4577,-88.25915 -90.52174,-128.0552 0,0 253.53104,112.38592 301.35884,204.90458 116.2887,224.95031 179.5137,549.66276 179.5137,549.66276 l -362.538,-357.55714 c 0,0 -111.711,-33.81914 -228.72697,-6.22104 z"
         id="path1637"
         sodipodi:nodetypes="zcccsccsccz"
         inkscape:label="top hair" />
      <path
         id="path13483"
         style="display:inline;opacity:1;fill:#ffcb4c;stroke:#ffcb4c;stroke-width:71.4948;stroke-linecap:round;stroke-linejoin:round;stroke-miterlimit:4;stroke-dasharray:7.14948, 7.14948;stroke-dashoffset:0;stroke-opacity:1;paint-order:fill markers stroke;stop-color:#000000"
         inkscape:label="right ear"
         d="m 1761.8028,1522.5046 c 36.2037,-70.7116 -144.5366,-343.1099 -208.7261,-406.6534 -57.1507,-56.5756 -194.999,-210.78447 -234.0386,-254.53486 -295.2709,-225.56578 -378.47283,-36.24485 -470.74693,43.73789 60.5769,139.71887 198.82853,412.99707 393.74213,522.63927 266.86,150.1136 496.2923,140.6659 519.7695,94.8111 z"
         sodipodi:nodetypes="ssccss"
         inkscape:transform-center-x="-264.63965"
         inkscape:transform-center-y="278.59401" />
      <g
         id="g13003"
         inkscape:label="face"
         style="display:inline;stroke-width:1.11711">
        <path
           style="opacity:1;fill:none;fill-opacity:1;stroke:#65471b;stroke-width:71.4948;stroke-linecap:round;stroke-linejoin:round;stroke-miterlimit:4;stroke-dasharray:none;stroke-dashoffset:0;stroke-opacity:1;paint-order:fill markers stroke;stop-color:#000000"
           d="m 83.898236,1201.0695 68.443294,6.6235 -37.53342,39.7413"
           id="path2163"
           inkscape:label="left nostril" />
        <path
           style="opacity:1;fill:none;fill-opacity:1;stroke:#65471b;stroke-width:71.4948;stroke-linecap:round;stroke-linejoin:round;stroke-miterlimit:4;stroke-dasharray:none;stroke-dashoffset:0;stroke-opacity:1;paint-order:fill markers stroke;stop-color:#000000"
           d="m 401.82839,1251.85 -59.6119,-44.157 121.43166,-17.6628"
           id="path2198"
           inkscape:label="right nostril" />
        <path
           style="opacity:1;fill:none;fill-opacity:1;stroke:#65471b;stroke-width:71.4948;stroke-linecap:round;stroke-linejoin:round;stroke-miterlimit:4;stroke-dasharray:none;stroke-dashoffset:0;stroke-opacity:1;paint-order:fill markers stroke;stop-color:#000000"
           d="m 132.4709,1346.7875 90.52178,-72.859 c 0,0 193.97604,102.631 256.22385,133.1548"
           id="path2200"
           sodipodi:nodetypes="ccc"
           inkscape:label="mouf" />
        <path
           style="opacity:1;fill:#ffffff;fill-opacity:1;stroke:#65471b;stroke-width:71.4948;stroke-linecap:round;stroke-linejoin:round;stroke-miterlimit:4;stroke-dasharray:none;stroke-dashoffset:0;stroke-opacity:1;paint-order:fill markers stroke;stop-color:#000000"
           d="m 222.99268,1530.0389 -90.52178,-183.2514 90.52178,-72.859 103.76887,66.2354 z"
           id="path2202"
           sodipodi:nodetypes="ccccc"
           inkscape:label="toof" />
      </g>
      <path
         style="opacity:1;fill:none;fill-opacity:1;stroke:#ffcb4c;stroke-width:35.7474;stroke-linecap:round;stroke-linejoin:round;stroke-miterlimit:4;stroke-dasharray:none;stroke-dashoffset:0;stroke-opacity:1;paint-order:fill markers stroke;stop-color:#000000"
         d="M 24.774925,663.0176 C 309.66639,654.83298 575.01852,701.17953 802.47822,853.27754"
         id="path6280"
         sodipodi:nodetypes="cc"
         inkscape:label="eyelash right big"
         inkscape:transform-center-x="349.02489"
         inkscape:transform-center-y="-151.16063" />
      <path
         style="display:inline;fill:none;fill-opacity:1;stroke:#ffcb4c;stroke-width:35.7474;stroke-linecap:round;stroke-linejoin:round;stroke-miterlimit:4;stroke-dasharray:none;stroke-dashoffset:0;stroke-opacity:1;paint-order:fill markers stroke;stop-color:#000000"
         d="M 366.68412,554.26692 C 533.28686,598.90913 714.06903,676.27846 848.36079,764.7724"
         id="path6280-0"
         sodipodi:nodetypes="cc"
         inkscape:label="eyelash right small"
         inkscape:transform-center-x="207.12794"
         inkscape:transform-center-y="-130.97651" />
      <g
         id="g12993"
         inkscape:label="right eye"
         transform="rotate(-0.1862072,-3778.7096,-7002.4745)"
         style="display:inline;fill:#d19020;fill-opacity:1;stroke-width:1.11711">
        <path
           style="opacity:1;fill:#d19020;fill-opacity:1;stroke:#65471b;stroke-width:71.4948;stroke-linecap:round;stroke-linejoin:round;stroke-miterlimit:4;stroke-dasharray:none;stroke-dashoffset:0;stroke-opacity:1;paint-order:fill markers stroke;stop-color:#000000"
           d="m 661.97569,1226.0485 53.36716,-115.5008 86.53085,168.711 z"
           id="path7852"
           inkscape:label="eyenub"
           sodipodi:nodetypes="cccc" />
        <path
           id="path1915"
           style="opacity:1;fill:#d19020;fill-opacity:1;stroke:#65471b;stroke-width:71.4948;stroke-linecap:round;stroke-linejoin:round;paint-order:fill markers stroke;stop-color:#000000"
           inkscape:label="righteye"
           d="m 1150.289,1075.2222 c 0,120.7167 -151.8603,218.5769 -272.57702,218.5769 -120.71671,0 -164.57695,-71.8602 -164.57699,-192.5769 -2e-5,-120.71675 97.86024,-244.57702 218.57699,-244.57701 120.71672,-2e-5 218.57702,97.86025 218.57702,218.57701 z"
           sodipodi:nodetypes="sssss" />
        <path
           id="path1749"
           style="display:inline;fill:#d19020;fill-opacity:1;stroke:#65471b;stroke-width:71.4948;stroke-linecap:round;stroke-linejoin:round;-inkscape-stroke:none;paint-order:fill markers stroke;stop-color:#000000"
           d="m 1150.289,1075.2222 c -34.993,14.7998 -86.3516,96.5942 -195.83899,95.3702 -109.48742,-1.2238 -182.39566,-68.0034 -218.33143,-108.7448"
           inkscape:label="right lid"
           sodipodi:nodetypes="czc" />
      </g>
    </g>
    <g
       id="g47627"
       inkscape:label="dragn"
       style="display:inline;stroke-width:1.08564"
       transform="matrix(0.8673791,-0.31056136,0.31063625,0.86695328,-103.32388,1154.6534)">
      <path
         style="fill:#ffba00;fill-opacity:1;stroke:#ffba00;stroke-width:69.4812;stroke-linecap:round;stroke-linejoin:round;stroke-dashoffset:172.8;stroke-opacity:1;paint-order:fill markers stroke;stop-color:#000000"
         d="M 383.79593,1595.9893 C 215.60856,1213.4013 185.62305,1032.7035 373.46876,660.28896 195.22819,548.47503 67.918864,561.42682 55.392022,358.71666 L 468.28662,404.89361 C 350.34037,297.95271 222.70094,199.69101 228.13011,57.884858 385.79581,107.56812 632.97376,169.66246 763.83565,226.52058 c 244.02095,94.274 552.61635,107.11999 510.19415,322.54383 0,0 126.2973,113.64137 243.689,189.71596 54.5205,-45.23523 83.2657,-47.23995 154.9076,-47.50796 18.5052,87.90552 -123.8148,377.82429 -233.3941,419.30949 -122.9551,46.5493 -703.94874,-184.39976 -700.06422,-196.05405 -0.0135,308.86585 203.94504,326.63375 373.72582,559.59325 -238.55708,175.1442 -444.60872,144.8048 -729.09797,121.8682 z"
         id="path42076"
         sodipodi:nodetypes="cccccccccsccc" />
      <ellipse
         style="fill:#2f2f2f;fill-opacity:1;stroke:none;stroke-width:34.7406;stroke-linecap:round;stroke-linejoin:round;stroke-miterlimit:4;stroke-dasharray:none;stroke-dashoffset:172.8;stroke-opacity:1;paint-order:fill markers stroke;stop-color:#000000"
         id="path48003"
         cx="1592.152"
         cy="732.1626"
         rx="25.565329"
         ry="26.275478" />
      <path
         style="display:inline;fill:none;fill-opacity:1;stroke:#2f2f2f;stroke-width:78.1663;stroke-linecap:round;stroke-linejoin:round;stroke-miterlimit:4;stroke-dasharray:none;stroke-dashoffset:172.8;stroke-opacity:1;paint-order:fill markers stroke;stop-color:#000000"
         d="m 1535.3142,1070.8353 -27.029,-144.80086 -170.5861,57.82749 -28.7781,-138.02648 -100.4369,94.76507"
         id="path53871" />
      <path
         id="path1200"
         style="display:inline;fill:#2f2f2f;fill-opacity:1;stroke:#2f2f2f;stroke-width:69.4812;stroke-linecap:round;stroke-linejoin:round;stroke-dashoffset:172.8;stroke-opacity:1;paint-order:fill markers stroke;stop-color:#000000"
         d="m 1060.2029,466.78195 a 128.99428,125.56757 26.650259 0 1 -163.0696,9.11591 128.99428,125.56757 26.650259 0 1 -18.4328,-16.39574 112.29442,113.444 64.155464 0 0 -4.1616,4.93207 112.29442,113.444 64.155464 0 0 24.8116,156.99375 112.29442,113.444 64.155464 0 0 158.1928,-25.91086 112.29442,113.444 64.155464 0 0 2.6596,-128.73513 z" />
    </g>
    <g
       id="g26585"
       style="display:inline"
       inkscape:label="g26585">
      <g
         id="layer2"
         inkscape:label="hand"
         transform="matrix(0.87349407,-0.79442464,0.79442464,0.87349407,-1078.5582,329.80801)"
         style="display:inline;fill:none;fill-opacity:1;stroke:#888800;stroke-width:0.84694;stroke-opacity:1">
        <path
           style="fill:none;fill-opacity:1;stroke:#a18020;stroke-width:81.3062;stroke-linecap:round;stroke-linejoin:round;stroke-miterlimit:4;stroke-dasharray:none;stroke-opacity:1;paint-order:fill markers stroke;stop-color:#000000"
           d="m 83.265067,1455.261 c 0,0 -46.374345,55.1899 -58.970242,72.2879"
           id="path15392"
           sodipodi:nodetypes="cc" />
        <path
           style="fill:none;fill-opacity:1;stroke:#a18020;stroke-width:81.3062;stroke-linecap:round;stroke-linejoin:round;stroke-miterlimit:4;stroke-dasharray:none;stroke-opacity:1;paint-order:fill markers stroke;stop-color:#000000"
           d="m 277.63359,1471.865 c -59.8589,30.7091 -127.24835,42.2017 -188.139119,25.2875"
           id="path20257"
           sodipodi:nodetypes="cc" />
        <path
           style="fill:none;fill-opacity:1;stroke:#a18020;stroke-width:81.3062;stroke-linecap:round;stroke-linejoin:round;stroke-miterlimit:4;stroke-dasharray:none;stroke-opacity:1;paint-order:fill markers stroke;stop-color:#000000"
           d="m 83.585394,1562.0096 c 61.353666,-0.072 121.637446,-17.8548 182.068076,-33.2069"
           id="path20259"
           sodipodi:nodetypes="cc" />
        <path
           style="fill:none;fill-opacity:1;stroke:#a18020;stroke-width:81.3062;stroke-linecap:round;stroke-linejoin:round;stroke-miterlimit:4;stroke-dasharray:none;stroke-opacity:1;paint-order:fill markers stroke;stop-color:#000000"
           d="m 71.288958,1621.58 c 57.429262,0.9097 115.240372,-0.2554 179.011012,-33.8028"
           id="path20261"
           sodipodi:nodetypes="cc" />
        <path
           style="fill:none;fill-opacity:1;stroke:#a18020;stroke-width:81.3062;stroke-linecap:round;stroke-linejoin:round;stroke-miterlimit:4;stroke-dasharray:none;stroke-opacity:1;paint-order:fill markers stroke;stop-color:#000000"
           d="m 89.494447,1497.1525 c 0,0 -88.0865714,16.5046 -83.8990211,77.9416 4.1875585,61.437 65.6935321,46.4859 65.6935321,46.4859 l 18.205513,-124.4275"
           id="path20376"
           sodipodi:nodetypes="cscc" />
      </g>
      <g
         id="layer2-2"
         inkscape:label="hand"
         transform="matrix(-1.0619766,-0.51605045,-0.51605045,1.0619766,1716.7421,102.26591)"
         style="display:inline;fill:none;fill-opacity:1;stroke:#888800;stroke-width:0.84694;stroke-opacity:1">
        <path
           style="fill:none;fill-opacity:1;stroke:#a18020;stroke-width:81.3062;stroke-linecap:round;stroke-linejoin:round;stroke-miterlimit:4;stroke-dasharray:none;stroke-opacity:1;paint-order:fill markers stroke;stop-color:#000000"
           d="m 83.265067,1455.261 c 0,0 -46.374345,55.1899 -58.970242,72.2879"
           id="path15392-2"
           sodipodi:nodetypes="cc" />
        <path
           style="fill:none;fill-opacity:1;stroke:#a18020;stroke-width:81.3062;stroke-linecap:round;stroke-linejoin:round;stroke-miterlimit:4;stroke-dasharray:none;stroke-opacity:1;paint-order:fill markers stroke;stop-color:#000000"
           d="m 277.63359,1471.865 c -59.8589,30.7091 -127.24835,42.2017 -188.139119,25.2875"
           id="path20257-8"
           sodipodi:nodetypes="cc" />
        <path
           style="fill:none;fill-opacity:1;stroke:#a18020;stroke-width:81.3062;stroke-linecap:round;stroke-linejoin:round;stroke-miterlimit:4;stroke-dasharray:none;stroke-opacity:1;paint-order:fill markers stroke;stop-color:#000000"
           d="m 83.585394,1562.0096 c 61.353666,-0.072 121.637446,-17.8548 182.068076,-33.2069"
           id="path20259-9"
           sodipodi:nodetypes="cc" />
        <path
           style="fill:none;fill-opacity:1;stroke:#a18020;stroke-width:81.3062;stroke-linecap:round;stroke-linejoin:round;stroke-miterlimit:4;stroke-dasharray:none;stroke-opacity:1;paint-order:fill markers stroke;stop-color:#000000"
           d="m 71.288958,1621.58 c 57.429262,0.9097 115.240372,-0.2554 179.011012,-33.8028"
           id="path20261-6"
           sodipodi:nodetypes="cc" />
        <path
           style="fill:none;fill-opacity:1;stroke:#a18020;stroke-width:81.3062;stroke-linecap:round;stroke-linejoin:round;stroke-miterlimit:4;stroke-dasharray:none;stroke-opacity:1;paint-order:fill markers stroke;stop-color:#000000"
           d="m 89.494447,1497.1525 c 0,0 -88.0865714,16.5046 -83.8990211,77.9416 4.1875585,61.437 65.6935321,46.4859 65.6935321,46.4859 l 18.205513,-124.4275"
           id="path20376-0"
           sodipodi:nodetypes="cscc" />
      </g>
    </g>
  </g>
</svg>
