<?xml version="1.0" encoding="UTF-8" standalone="no"?>
<!-- Created with Inkscape (http://www.inkscape.org/) -->

<svg
   version="1.1"
   id="svg824"
   width="1706.6667"
   height="1706.6667"
   viewBox="0 0 1706.6667 1706.6667"
   sodipodi:docname="ying_kiss.svg"
   inkscape:version="1.3.2 (091e20e, 2023-11-25, custom)"
   inkscape:export-filename="D:\Pictures\yingmotes\ying_mug.png"
   inkscape:export-xdpi="72"
   inkscape:export-ydpi="72"
   xmlns:inkscape="http://www.inkscape.org/namespaces/inkscape"
   xmlns:sodipodi="http://sodipodi.sourceforge.net/DTD/sodipodi-0.dtd"
   xmlns="http://www.w3.org/2000/svg"
   xmlns:svg="http://www.w3.org/2000/svg">
  <defs
     id="defs828" />
  <sodipodi:namedview
     id="namedview826"
     pagecolor="#ffffff"
     bordercolor="#666666"
     borderopacity="1.0"
     inkscape:pageshadow="2"
     inkscape:pageopacity="0.0"
     inkscape:pagecheckerboard="0"
     showgrid="false"
     inkscape:zoom="0.25021864"
     inkscape:cx="871.23804"
     inkscape:cy="373.67319"
     inkscape:window-width="1920"
     inkscape:window-height="1001"
     inkscape:window-x="-9"
     inkscape:window-y="-9"
     inkscape:window-maximized="1"
     inkscape:current-layer="layer1"
     inkscape:showpageshadow="2"
     inkscape:deskcolor="#d1d1d1" />
  <g
     id="g22"
     transform="matrix(0.8601542,0,0,0.8601542,278.5982,280.52493)">
    <g
       id="layer1"
       inkscape:label="Ying"
       style="display:inline"
       inkscape:groupmode="layer">
      <path
         style="display:none;fill:#123456;stroke:#123456;stroke-width:64;stroke-linecap:round;stroke-linejoin:round;-inkscape-stroke:none;paint-order:fill markers stroke;stop-color:#000000"
         d="m 1461.4118,865.09775 c 70.7982,131.45405 185.3824,239.02475 198.7064,401.82835 -29.438,-19.1346 -55.9321,-14.719 -79.4825,13.2471 91.0222,54.7003 58.5139,175.917 81.6903,267.1496 l -99.3531,6.6236 c 66.7588,58.9185 81.773,128.1858 90.5218,198.7063 l -494.5073,2.2079 c -24.3802,-41.4813 23.1146,-208.5632 66.2356,-227.0436 0,0 3.3791,-20.0154 -75.3533,-9.4549 28.7411,-247.2725 185.6948,-422.1763 311.5421,-653.26435 z"
         id="path3091"
         sodipodi:nodetypes="cccccccccc"
         inkscape:label="mane" />
      <path
         style="opacity:1;fill:#ffcb4c;fill-opacity:1;stroke:#ffcb4c;stroke-width:64;stroke-linecap:round;stroke-linejoin:round;stroke-miterlimit:4;stroke-dasharray:none;stroke-dashoffset:0;stroke-opacity:1;paint-order:fill markers stroke;stop-color:#000000"
         d="m 1377.0124,1323.2762 -64.7849,239.5079 62.8218,-25.5214 -51.0427,200.2443 459.3838,-15.7054 c 0,0 -127.6066,-94.2326 -149.2016,-184.5389 -21.5949,-90.3062 51.0427,-253.25 51.0427,-253.25 z"
         id="path3340"
         inkscape:label="neck" />
      <g
         id="g12988"
         inkscape:label="head"
         transform="rotate(14.037417,864.68,1035.7055)">
        <path
           style="display:inline;fill:none;fill-opacity:1;stroke:#f19020;stroke-width:32;stroke-linecap:round;stroke-linejoin:round;stroke-miterlimit:4;stroke-dasharray:none;stroke-dashoffset:0;stroke-opacity:1;paint-order:fill markers stroke;stop-color:#000000"
           d="M 723.58429,367.19633 C 870.54125,457.36361 1021.7576,582.9391 1125.2418,705.96249"
           id="path6280-0-6"
           sodipodi:nodetypes="cc"
           inkscape:label="eyelash left small" />
        <path
           style="display:inline;fill:none;fill-opacity:1;stroke:#f19020;stroke-width:32;stroke-linecap:round;stroke-linejoin:round;stroke-miterlimit:4;stroke-dasharray:none;stroke-dashoffset:0;stroke-opacity:1;paint-order:fill markers stroke;stop-color:#000000"
           d="M 645.64494,172.2321 C 895.70113,308.85134 1101.3408,482.69172 1220.8439,728.71453"
           id="path6280-3"
           sodipodi:nodetypes="cc"
           inkscape:label="eyelash left big" />
        <g
           id="g12997"
           inkscape:label="left eye"
           transform="translate(509.33754,-143.43787)">
          <path
             id="path1915-9"
             style="display:inline;fill:#d19020;fill-opacity:1;stroke:#65471b;stroke-width:64;stroke-linecap:round;stroke-linejoin:round;paint-order:fill markers stroke;stop-color:#000000"
             inkscape:label="lefteye"
             d="m 792.61751,1048.7279 c 10e-6,120.7167 -155.86024,218.577 -276.57698,218.577 -120.71674,0 -160.57699,-55.8603 -160.57698,-176.577 0,-120.71673 97.86025,-260.57698 218.57698,-260.57698 120.71673,0 218.57698,97.86025 218.57698,218.57698 z"
             sodipodi:nodetypes="sssss" />
        </g>
        <path
           style="opacity:1;fill:#f19020;fill-opacity:1;stroke:#f19020;stroke-width:64;stroke-linecap:round;stroke-miterlimit:4;stroke-dasharray:none;stroke-dashoffset:0;stroke-opacity:1;paint-order:fill markers stroke;stop-color:#000000"
           d="m 1249.4102,782.79467 c 0,0 -83.1808,-156.50647 -116.1632,-336.2372 -36.284,-197.72166 -6.824,-425.579264 59.1119,-444.4589642 65.9359,-18.8797098 215.6158,149.6257042 273.2604,279.4261642 57.6447,129.80044 90.5939,436.7095 90.5939,436.7095 z"
           id="path1640"
           inkscape:label="left ear"
           sodipodi:nodetypes="cssscc"
           inkscape:transform-center-x="4.5182473"
           inkscape:transform-center-y="-229.54228" />
        <path
           id="path1148"
           style="display:inline;opacity:1;fill:#ffcb4c;stroke:#ffcb4c;stroke-width:64;stroke-linecap:round;stroke-linejoin:round;stroke-miterlimit:4;stroke-dasharray:6.4, 6.4;stroke-dashoffset:0;stroke-opacity:1;paint-order:fill markers stroke;stop-color:#000000"
           inkscape:label="head"
           d="m 1808.3922,1010.1208 c 0,0 -0.1078,-10.82064 -0.9512,-28.41804 -0.4217,-8.7987 -1.0259,-19.2912 -1.8945,-30.9726 -0.8686,-11.6814 -1.9997,-24.5525 -3.4727,-38.10554 -1.4729,-13.553 -3.2888,-27.7877 -5.5234,-42.2012 -2.2347,-14.41345 -4.8892,-29.0047 -8.043,-43.26755 -1.5769,-7.13143 -3.279,-14.18175 -5.1152,-21.08594 -1.8362,-6.90419 -3.8068,-13.66232 -5.9219,-20.21289 -2.1151,-6.55056 -4.3733,-12.89234 -6.7871,-18.96289 -2.4138,-6.07055 -4.9828,-11.86984 -7.7148,-17.33398 -2.7321,-5.46415 -5.9346,-10.78574 -9.5391,-15.96094 -3.6045,-5.1752 -7.6114,-10.20474 -11.9492,-15.08399 -4.3379,-4.87924 -9.0074,-9.60926 -13.9395,-14.18554 -4.9321,-4.57628 -10.1264,-8.99932 -15.5136,-13.26563 -5.3873,-4.2663 -10.9666,-8.37489 -16.67,-12.32422 -5.7033,-3.94932 -11.5298,-7.73794 -17.4101,-11.36328 -11.7607,-7.25067 -23.7371,-13.84709 -35.3711,-19.75976 -11.634,-5.91267 -22.9257,-11.14156 -33.3203,-15.66016 -10.3946,-4.5186 -19.8912,-8.32606 -27.9336,-11.39453 -16.085,-6.13693 -26.3535,-9.31836 -26.3535,-9.31836 -106.8313,-15.98813 -232.1746,6.96944 -312.625,60.01367 -101.2673,66.76968 -136.8873,176.62945 -198.707,211.95509 -61.81978,35.3255 -225.20032,77.27304 -280.39652,83.89654 -55.19621,6.6235 -183.25035,6.6246 -161.17187,123.64064 22.07848,117.016 112.59921,282.6048 377.54101,247.2793 264.94178,-35.3256 313.51518,-44.1575 536.50778,-88.3145 22.8973,-4.5341 53.8481,-18.3195 86.8281,-36.9472 l 213.8711,-11.4278 -92.9258,-75.2558 c 5.3578,-4.8405 10.5999,-9.7184 15.6328,-14.6367 l 142.0762,-2.375 -84.8808,-69.668 c 3.4806,-6.5537 6.4805,-13.0207 8.6269,-19.3066 1.0523,-3.0817 2.0328,-6.6268 3.0469,-9.9766 z" />
        <path
           style="display:none;fill:#123456;stroke:#123456;stroke-width:64;stroke-linecap:round;stroke-linejoin:round;-inkscape-stroke:none;paint-order:fill markers stroke;stop-color:#000000"
           d="m 1022.0915,653.63588 c -109.87896,48.79551 -221.94899,217.08061 -221.94899,217.08061 -17.01456,-81.30093 -42.03756,-161.83353 66.4838,-255.17836 -123.91817,15.76962 -247.7739,31.31993 -392.79546,121.22049 0,0 249.14803,-315.22722 429.7222,-366.33409 166.36935,-47.08654 267.30975,-12.19156 267.30975,-12.19156 -8.6509,-44.85706 -47.2616,-80.90488 -112.6755,-109.07175 0,0 308.7267,40.66328 363.6049,129.17516 54.8783,88.51187 59.2865,159.57624 59.2865,159.57624 l -233.0655,79.46929 c 0,0 -116.0423,-12.54154 -225.9217,36.25397 z"
           id="path1637"
           sodipodi:nodetypes="zcccsccsccz"
           inkscape:label="top hair" />
        <path
           id="path13483"
           style="display:inline;opacity:1;fill:#ffcb4c;stroke:#ffcb4c;stroke-width:64;stroke-linecap:round;stroke-linejoin:round;stroke-miterlimit:4;stroke-dasharray:6.4, 6.4;stroke-dashoffset:0;stroke-opacity:1;paint-order:fill markers stroke;stop-color:#000000"
           inkscape:label="right ear"
           d="m 1501.7658,-48.469888 c -73.0939,31.221194 -108.6175,356.163648 -99.9779,446.044068 7.6921,80.02433 14.8825,286.68861 16.8693,345.27682 0,0 10.6928,-1.1078 27.8955,-1.78242 8.6013,-0.33727 18.8302,-0.56616 30.1642,-0.4938 11.334,0.0723 23.7721,0.44549 36.7935,1.31301 13.0214,0.86753 26.6262,2.22935 40.2897,4.27756 6.8317,1.02412 13.6782,2.21952 20.4743,3.61113 6.7963,1.39156 13.541,2.97834 20.1711,4.78556 6.63,1.80726 13.1443,3.83443 19.4775,6.10552 6.3333,2.27109 12.4854,4.78671 18.3912,7.56983 5.9057,2.78314 11.5662,5.83449 16.9138,9.17784 5.3476,3.34337 10.3831,6.97925 15.0419,10.93102 4.6588,3.95179 9.2993,8.27583 13.9036,12.91029 4.6043,4.63446 9.1721,9.57947 13.6903,14.77267 4.5182,5.19323 8.985,10.63409 13.3857,16.26206 4.4005,5.62799 8.7352,11.44301 12.9866,17.38182 8.5028,11.87763 16.6755,24.25333 24.3923,36.63043 7.7167,12.3772 14.9781,24.7545 21.6563,36.63954 6.6782,11.885 12.7743,23.2773 18.1616,33.6786 5.3873,10.4012 10.0645,19.8131 13.9084,27.7389 7.688,15.85174 12.0375,25.76024 12.0375,25.76024 42.9092,-146.13378 111.645,-444.59467 32.0702,-653.4721 C 1731.5148,70.670455 1549.1656,-68.716143 1501.7658,-48.469888 Z" />
        <g
           id="g13003"
           inkscape:label="face"
           transform="translate(509.33754,-143.43787)">
          <path
             style="opacity:1;fill:#ffcb4c;fill-opacity:1;stroke:none;stroke-width:64;stroke-linecap:round;stroke-linejoin:round;stroke-miterlimit:4;stroke-dasharray:none;stroke-dashoffset:0;stroke-opacity:1;paint-order:fill markers stroke;stop-color:#000000"
             d="m 132.4709,1346.7875 90.52178,-72.859 c 0,0 146.93476,106.6315 222.99268,101.561 66.23545,-4.4157 119.2238,-37.5334 119.2238,-37.5334 l -32.92171,-235.8975 -431.65198,43.5528 -7.569527,162.8166 z"
             id="path3264"
             sodipodi:nodetypes="ccsc"
             inkscape:label="mouf" />
          <path
             style="opacity:1;fill:none;fill-opacity:1;stroke:#65471b;stroke-width:64;stroke-linecap:round;stroke-linejoin:round;stroke-miterlimit:4;stroke-dasharray:none;stroke-dashoffset:0;stroke-opacity:1;paint-order:fill markers stroke;stop-color:#000000"
             d="m 83.898236,1201.0695 68.443294,6.6235 -37.53342,39.7413"
             id="path2163"
             inkscape:label="left nostril" />
          <path
             style="opacity:1;fill:none;fill-opacity:1;stroke:#65471b;stroke-width:64;stroke-linecap:round;stroke-linejoin:round;stroke-miterlimit:4;stroke-dasharray:none;stroke-dashoffset:0;stroke-opacity:1;paint-order:fill markers stroke;stop-color:#000000"
             d="m 401.82839,1251.85 -59.6119,-44.157 121.43166,-17.6628"
             id="path2198"
             inkscape:label="right nostril" />
          <path
             style="opacity:1;fill:#ffcb4c;fill-opacity:1;stroke:#65471b;stroke-width:64;stroke-linecap:round;stroke-linejoin:round;stroke-miterlimit:4;stroke-dasharray:none;stroke-dashoffset:0;stroke-opacity:1;paint-order:fill markers stroke;stop-color:#000000"
             d="m 132.4709,1346.7875 90.52178,-72.859 c 0,0 148.05048,87.626 222.99268,101.561 153.85857,28.6089 158.96443,-59.828 158.96443,-59.828"
             id="path2200"
             sodipodi:nodetypes="ccsc"
             inkscape:label="mouf" />
          <path
             style="opacity:1;fill:#ffffff;fill-opacity:1;stroke:#65471b;stroke-width:64;stroke-linecap:round;stroke-linejoin:round;stroke-miterlimit:4;stroke-dasharray:none;stroke-dashoffset:0;stroke-opacity:1;paint-order:fill markers stroke;stop-color:#000000"
             d="m 222.99268,1530.0389 -90.52178,-183.2514 90.52178,-72.859 103.76887,66.2354 z"
             id="path2202"
             sodipodi:nodetypes="ccccc"
             inkscape:label="toof" />
        </g>
        <g
           id="g12993"
           inkscape:label="right eye"
           transform="translate(509.33754,-143.43787)"
           style="fill:#d19020;fill-opacity:1">
          <path
             style="opacity:1;fill:#d19020;fill-opacity:1;stroke:#65471b;stroke-width:64;stroke-linecap:round;stroke-linejoin:round;stroke-miterlimit:4;stroke-dasharray:none;stroke-dashoffset:0;stroke-opacity:1;paint-order:fill markers stroke;stop-color:#000000"
             d="m 661.97569,1226.0485 53.36716,-115.5008 86.53085,168.711 z"
             id="path7852"
             inkscape:label="eyenub"
             sodipodi:nodetypes="cccc" />
          <path
             id="path1915"
             style="opacity:1;fill:#d19020;fill-opacity:1;stroke:#65471b;stroke-width:64;stroke-linecap:round;stroke-linejoin:round;paint-order:fill markers stroke;stop-color:#000000"
             inkscape:label="righteye"
             d="m 1150.289,1075.2222 c 0,120.7167 -151.8603,218.5769 -272.57702,218.5769 -120.71671,0 -164.57695,-71.8602 -164.57699,-192.5769 -2e-5,-120.71675 97.86024,-244.57702 218.57699,-244.57701 120.71672,-2e-5 218.57702,97.86025 218.57702,218.57701 z"
             sodipodi:nodetypes="sssss" />
          <path
             id="path1749"
             style="display:inline;fill:#d19020;fill-opacity:1;stroke:#65471b;stroke-width:64;stroke-linecap:round;stroke-linejoin:round;-inkscape-stroke:none;paint-order:fill markers stroke;stop-color:#000000"
             d="m 925.78349,1058.1404 c -111.90142,23.5165 -174.60086,104.1948 -204.10291,151.6744 39.96804,93.9647 177.10005,86.8811 225.00615,74.9035 60.34347,-15.0872 171.34587,-89.0116 196.72947,-172.4815 -38.4856,-7.457 -105.7313,-77.6129 -217.63271,-54.0964 z"
             inkscape:label="right lid"
             sodipodi:nodetypes="zcscz" />
        </g>
        <path
           style="opacity:1;fill:none;fill-opacity:1;stroke:#ffcb4c;stroke-width:32;stroke-linecap:round;stroke-linejoin:round;stroke-miterlimit:4;stroke-dasharray:none;stroke-dashoffset:0;stroke-opacity:1;paint-order:fill markers stroke;stop-color:#000000"
           d="M 931.43553,-18.336504 C 1108.4377,204.96411 1230.0262,445.22303 1244.1521,718.36894"
           id="path6280"
           sodipodi:nodetypes="cc"
           inkscape:label="eyelash right big" />
        <path
           style="display:inline;fill:none;fill-opacity:1;stroke:#ffcb4c;stroke-width:32;stroke-linecap:round;stroke-linejoin:round;stroke-miterlimit:4;stroke-dasharray:none;stroke-dashoffset:0;stroke-opacity:1;paint-order:fill markers stroke;stop-color:#000000"
           d="m 1220.9055,152.85493 c 57.3357,162.60107 95.6747,355.38513 98.5501,516.11928"
           id="path6280-0"
           sodipodi:nodetypes="cc"
           inkscape:label="eyelash right small" />
      </g>
    </g>
    <g
       id="g21"
       inkscape:label="player 2"
       style="display:inline"
       inkscape:groupmode="layer"
       transform="matrix(-1,0,0,1,1336.3538,0)">
      <path
         style="opacity:1;fill:#5fd3bc;fill-opacity:1;stroke:#5fd3bc;stroke-width:64;stroke-linecap:round;stroke-linejoin:round;stroke-miterlimit:4;stroke-dasharray:none;stroke-dashoffset:0;stroke-opacity:1;paint-order:fill markers stroke;stop-color:#000000"
         d="m 1377.0124,1323.2762 -64.7849,239.5079 62.8218,-25.5214 -51.0427,200.2443 459.3838,-15.7054 c 0,0 -127.6066,-94.2326 -149.2016,-184.5389 -21.5949,-90.3062 51.0427,-253.25 51.0427,-253.25 z"
         id="path2"
         inkscape:label="neck" />
      <g
         id="g20"
         inkscape:label="head"
         transform="rotate(14.037417,864.68,1035.7055)">
        <path
           style="display:inline;fill:none;fill-opacity:1;stroke:#2ca089;stroke-width:32;stroke-linecap:round;stroke-linejoin:round;stroke-miterlimit:4;stroke-dasharray:none;stroke-dashoffset:0;stroke-opacity:1;paint-order:fill markers stroke;stop-color:#000000"
           d="M 723.58429,367.19633 C 870.54125,457.36361 1021.7576,582.9391 1125.2418,705.96249"
           id="path3"
           sodipodi:nodetypes="cc"
           inkscape:label="eyelash left small" />
        <path
           style="display:inline;fill:none;fill-opacity:1;stroke:#2ca089;stroke-width:32;stroke-linecap:round;stroke-linejoin:round;stroke-miterlimit:4;stroke-dasharray:none;stroke-dashoffset:0;stroke-opacity:1;paint-order:fill markers stroke;stop-color:#000000"
           d="M 645.64494,172.2321 C 895.70113,308.85134 1101.3408,482.69172 1220.8439,728.71453"
           id="path4"
           sodipodi:nodetypes="cc"
           inkscape:label="eyelash left big" />
        <g
           id="g5"
           inkscape:label="left eye"
           transform="translate(509.33754,-143.43787)"
           style="fill:#2ca089;fill-opacity:1;stroke:#165044;stroke-opacity:1">
          <path
             id="path5"
             style="display:inline;fill:#2ca089;fill-opacity:1;stroke:#165044;stroke-width:64;stroke-linecap:round;stroke-linejoin:round;stroke-opacity:1;paint-order:fill markers stroke;stop-color:#000000"
             inkscape:label="lefteye"
             d="m 792.61751,1048.7279 c 10e-6,120.7167 -155.86024,218.577 -276.57698,218.577 -120.71674,0 -160.57699,-55.8603 -160.57698,-176.577 0,-120.71673 97.86025,-260.57698 218.57698,-260.57698 120.71673,0 218.57698,97.86025 218.57698,218.57698 z"
             sodipodi:nodetypes="sssss" />
        </g>
        <path
           style="opacity:1;fill:#2ca089;fill-opacity:1;stroke:#2ca089;stroke-width:64;stroke-linecap:round;stroke-miterlimit:4;stroke-dasharray:none;stroke-dashoffset:0;stroke-opacity:1;paint-order:fill markers stroke;stop-color:#000000"
           d="m 1249.4102,782.79467 c 0,0 -83.1808,-156.50647 -116.1632,-336.2372 -36.284,-197.72166 -6.824,-425.579264 59.1119,-444.4589642 65.9359,-18.8797098 215.6158,149.6257042 273.2604,279.4261642 57.6447,129.80044 90.5939,436.7095 90.5939,436.7095 z"
           id="path6"
           inkscape:label="left ear"
           sodipodi:nodetypes="cssscc"
           inkscape:transform-center-x="4.5182473"
           inkscape:transform-center-y="-229.54228" />
        <path
           id="path7"
           style="display:inline;opacity:1;fill:#5fd3bc;fill-opacity:1;stroke:#5fd3bc;stroke-width:64;stroke-linecap:round;stroke-linejoin:round;stroke-miterlimit:4;stroke-dasharray:6.4, 6.4;stroke-dashoffset:0;stroke-opacity:1;paint-order:fill markers stroke;stop-color:#000000"
           inkscape:label="head"
           d="m 1808.3922,1010.1208 c 0,0 -0.1078,-10.82064 -0.9512,-28.41804 -0.4217,-8.7987 -1.0259,-19.2912 -1.8945,-30.9726 -0.8686,-11.6814 -1.9997,-24.5525 -3.4727,-38.10554 -1.4729,-13.553 -3.2888,-27.7877 -5.5234,-42.2012 -2.2347,-14.41345 -4.8892,-29.0047 -8.043,-43.26755 -1.5769,-7.13143 -3.279,-14.18175 -5.1152,-21.08594 -1.8362,-6.90419 -3.8068,-13.66232 -5.9219,-20.21289 -2.1151,-6.55056 -4.3733,-12.89234 -6.7871,-18.96289 -2.4138,-6.07055 -4.9828,-11.86984 -7.7148,-17.33398 -2.7321,-5.46415 -5.9346,-10.78574 -9.5391,-15.96094 -3.6045,-5.1752 -7.6114,-10.20474 -11.9492,-15.08399 -4.3379,-4.87924 -9.0074,-9.60926 -13.9395,-14.18554 -4.9321,-4.57628 -10.1264,-8.99932 -15.5136,-13.26563 -5.3873,-4.2663 -10.9666,-8.37489 -16.67,-12.32422 -5.7033,-3.94932 -11.5298,-7.73794 -17.4101,-11.36328 -11.7607,-7.25067 -23.7371,-13.84709 -35.3711,-19.75976 -11.634,-5.91267 -22.9257,-11.14156 -33.3203,-15.66016 -10.3946,-4.5186 -19.8912,-8.32606 -27.9336,-11.39453 -16.085,-6.13693 -26.3535,-9.31836 -26.3535,-9.31836 -106.8313,-15.98813 -232.1746,6.96944 -312.625,60.01367 -101.2673,66.76968 -136.8873,176.62945 -198.707,211.95509 -61.81978,35.3255 -225.20032,77.27304 -280.39652,83.89654 -55.19621,6.6235 -183.25035,6.6246 -161.17187,123.64064 22.07848,117.016 112.59921,282.6048 377.54101,247.2793 264.94178,-35.3256 313.51518,-44.1575 536.50778,-88.3145 22.8973,-4.5341 53.8481,-18.3195 86.8281,-36.9472 l 213.8711,-11.4278 -92.9258,-75.2558 c 5.3578,-4.8405 10.5999,-9.7184 15.6328,-14.6367 l 142.0762,-2.375 -84.8808,-69.668 c 3.4806,-6.5537 6.4805,-13.0207 8.6269,-19.3066 1.0523,-3.0817 2.0328,-6.6268 3.0469,-9.9766 z" />
        <path
           id="path9"
           style="display:inline;opacity:1;fill:#5fd3bc;fill-opacity:1;stroke:#5fd3bc;stroke-width:64;stroke-linecap:round;stroke-linejoin:round;stroke-miterlimit:4;stroke-dasharray:6.4, 6.4;stroke-dashoffset:0;stroke-opacity:1;paint-order:fill markers stroke;stop-color:#000000"
           inkscape:label="right ear"
           d="m 1501.7658,-48.469888 c -73.0939,31.221194 -108.6175,356.163648 -99.9779,446.044068 7.6921,80.02433 14.8825,286.68861 16.8693,345.27682 0,0 10.6928,-1.1078 27.8955,-1.78242 8.6013,-0.33727 18.8302,-0.56616 30.1642,-0.4938 11.334,0.0723 23.7721,0.44549 36.7935,1.31301 13.0214,0.86753 26.6262,2.22935 40.2897,4.27756 6.8317,1.02412 13.6782,2.21952 20.4743,3.61113 6.7963,1.39156 13.541,2.97834 20.1711,4.78556 6.63,1.80726 13.1443,3.83443 19.4775,6.10552 6.3333,2.27109 12.4854,4.78671 18.3912,7.56983 5.9057,2.78314 11.5662,5.83449 16.9138,9.17784 5.3476,3.34337 10.3831,6.97925 15.0419,10.93102 4.6588,3.95179 9.2993,8.27583 13.9036,12.91029 4.6043,4.63446 9.1721,9.57947 13.6903,14.77267 4.5182,5.19323 8.985,10.63409 13.3857,16.26206 4.4005,5.62799 8.7352,11.44301 12.9866,17.38182 8.5028,11.87763 16.6755,24.25333 24.3923,36.63043 7.7167,12.3772 14.9781,24.7545 21.6563,36.63954 6.6782,11.885 12.7743,23.2773 18.1616,33.6786 5.3873,10.4012 10.0645,19.8131 13.9084,27.7389 7.688,15.85174 12.0375,25.76024 12.0375,25.76024 42.9092,-146.13378 111.645,-444.59467 32.0702,-653.4721 C 1731.5148,70.670455 1549.1656,-68.716143 1501.7658,-48.469888 Z" />
        <g
           id="g14"
           inkscape:label="face"
           transform="translate(509.33754,-143.43787)">
          <path
             style="opacity:1;fill:#5fd3bc;fill-opacity:1;stroke:none;stroke-width:64;stroke-linecap:round;stroke-linejoin:round;stroke-miterlimit:4;stroke-dasharray:none;stroke-dashoffset:0;stroke-opacity:1;paint-order:fill markers stroke;stop-color:#000000"
             d="m 132.4709,1346.7875 90.52178,-72.859 c 0,0 146.93476,106.6315 222.99268,101.561 66.23545,-4.4157 119.2238,-37.5334 119.2238,-37.5334 l -32.92171,-235.8975 -431.65198,43.5528 -7.569527,162.8166 z"
             id="path10"
             sodipodi:nodetypes="ccsc"
             inkscape:label="mouf" />
          <path
             style="opacity:1;fill:none;fill-opacity:1;stroke:#165044;stroke-width:64;stroke-linecap:round;stroke-linejoin:round;stroke-miterlimit:4;stroke-dasharray:none;stroke-dashoffset:0;stroke-opacity:1;paint-order:fill markers stroke;stop-color:#000000"
             d="m 83.898236,1201.0695 68.443294,6.6235 -37.53342,39.7413"
             id="path11"
             inkscape:label="left nostril" />
          <path
             style="opacity:1;fill:none;fill-opacity:1;stroke:#165044;stroke-width:64;stroke-linecap:round;stroke-linejoin:round;stroke-miterlimit:4;stroke-dasharray:none;stroke-dashoffset:0;stroke-opacity:1;paint-order:fill markers stroke;stop-color:#000000"
             d="m 401.82839,1251.85 -59.6119,-44.157 121.43166,-17.6628"
             id="path12"
             inkscape:label="right nostril" />
          <path
             style="opacity:1;fill:#5fd3bc;fill-opacity:1;stroke:#165044;stroke-width:64;stroke-linecap:round;stroke-linejoin:round;stroke-miterlimit:4;stroke-dasharray:none;stroke-dashoffset:0;stroke-opacity:1;paint-order:fill markers stroke;stop-color:#000000"
             d="m 132.4709,1346.7875 90.52178,-72.859 c 0,0 148.05048,87.626 222.99268,101.561 153.85857,28.6089 158.96443,-59.828 158.96443,-59.828"
             id="path13"
             sodipodi:nodetypes="ccsc"
             inkscape:label="mouf" />
          <path
             style="opacity:1;fill:#ffffff;fill-opacity:1;stroke:#165044;stroke-width:64;stroke-linecap:round;stroke-linejoin:round;stroke-miterlimit:4;stroke-dasharray:none;stroke-dashoffset:0;stroke-opacity:1;paint-order:fill markers stroke;stop-color:#000000"
             d="m 222.99268,1530.0389 -90.52178,-183.2514 90.52178,-72.859 103.76887,66.2354 z"
             id="path14"
             sodipodi:nodetypes="ccccc"
             inkscape:label="toof" />
        </g>
        <g
           id="g17"
           inkscape:label="right eye"
           transform="translate(509.33754,-143.43787)"
           style="fill:#2ca089;fill-opacity:1;stroke:#165044;stroke-opacity:1">
          <path
             style="opacity:1;fill:#2ca089;fill-opacity:1;stroke:#165044;stroke-width:64;stroke-linecap:round;stroke-linejoin:round;stroke-miterlimit:4;stroke-dasharray:none;stroke-dashoffset:0;stroke-opacity:1;paint-order:fill markers stroke;stop-color:#000000"
             d="m 661.97569,1226.0485 53.36716,-115.5008 86.53085,168.711 z"
             id="path15"
             inkscape:label="eyenub"
             sodipodi:nodetypes="cccc" />
          <path
             id="path16"
             style="opacity:1;fill:#2ca089;fill-opacity:1;stroke:#165044;stroke-width:64;stroke-linecap:round;stroke-linejoin:round;stroke-opacity:1;paint-order:fill markers stroke;stop-color:#000000"
             inkscape:label="righteye"
             d="m 1150.289,1075.2222 c 0,120.7167 -151.8603,218.5769 -272.57702,218.5769 -120.71671,0 -164.57695,-71.8602 -164.57699,-192.5769 -2e-5,-120.71675 97.86024,-244.57702 218.57699,-244.57701 120.71672,-2e-5 218.57702,97.86025 218.57702,218.57701 z"
             sodipodi:nodetypes="sssss" />
          <path
             id="path17"
             style="display:inline;fill:#2ca089;fill-opacity:1;stroke:#165044;stroke-width:64;stroke-linecap:round;stroke-linejoin:round;stroke-opacity:1;-inkscape-stroke:none;paint-order:fill markers stroke;stop-color:#000000"
             d="m 925.78349,1058.1404 c -111.90142,23.5165 -174.60086,104.1948 -204.10291,151.6744 39.96804,93.9647 177.10005,86.8811 225.00615,74.9035 60.34347,-15.0872 171.34587,-89.0116 196.72947,-172.4815 -38.4856,-7.457 -105.7313,-77.6129 -217.63271,-54.0964 z"
             inkscape:label="right lid"
             sodipodi:nodetypes="zcscz" />
        </g>
        <path
           style="opacity:1;fill:none;fill-opacity:1;stroke:#5fd3bc;stroke-width:32;stroke-linecap:round;stroke-linejoin:round;stroke-miterlimit:4;stroke-dasharray:none;stroke-dashoffset:0;stroke-opacity:1;paint-order:fill markers stroke;stop-color:#000000"
           d="M 931.43553,-18.336504 C 1108.4377,204.96411 1230.0262,445.22303 1244.1521,718.36894"
           id="path18"
           sodipodi:nodetypes="cc"
           inkscape:label="eyelash right big" />
        <path
           style="display:inline;fill:none;fill-opacity:1;stroke:#5fd3bc;stroke-width:32;stroke-linecap:round;stroke-linejoin:round;stroke-miterlimit:4;stroke-dasharray:none;stroke-dashoffset:0;stroke-opacity:1;paint-order:fill markers stroke;stop-color:#000000"
           d="m 1220.9055,152.85493 c 57.3357,162.60107 95.6747,355.38513 98.5501,516.11928"
           id="path19"
           sodipodi:nodetypes="cc"
           inkscape:label="eyelash right small" />
      </g>
    </g>
  </g>
  <g
     id="g23"
     transform="matrix(1.1212298,0,0,1.1212298,-144.23209,-151.52788)">
    <path
       id="rect22"
       style="fill:#00ffcc;fill-opacity:1;stroke:#005544;stroke-width:111.838;stroke-linecap:round;stroke-linejoin:round;stroke-dashoffset:192;stroke-opacity:1;paint-order:fill markers stroke"
       d="M 1075.3537,297.11445 C 990.81764,338.99788 944.21007,446.22228 971.25453,536.6073 l 1.73023,5.78258 97.93604,327.31301 306.1354,-151.67858 5.4085,-2.67968 c 84.5356,-41.88548 131.1411,-149.11071 104.0985,-239.49315 -27.0431,-90.38435 -117.4962,-129.70222 -202.0326,-87.81846 l -5.4084,2.6797 -1.7302,-5.78261 C 1250.3467,294.5466 1159.8926,255.2311 1075.3571,297.11592 Z" />
    <path
       id="rect22-8"
       style="fill:#ff5555;fill-opacity:1;stroke:#b10020;stroke-width:111.838;stroke-linecap:round;stroke-linejoin:round;stroke-dashoffset:192;stroke-opacity:1;paint-order:fill markers stroke"
       d="m 704.05936,297.11446 c 84.53618,41.88343 131.14367,149.10782 104.09919,239.49284 l -1.7302,5.78258 -97.93603,327.31302 -306.13541,-151.67858 -5.40853,-2.67968 C 312.41275,673.45917 265.80732,566.23392 292.84987,475.85148 319.89295,385.46714 410.34608,346.14927 494.88248,388.03304 l 5.40843,2.67969 1.7302,-5.78261 c 27.04532,-90.38351 117.49937,-129.69901 202.03486,-87.81419 z" />
  </g>
</svg>
