<?xml version="1.0" encoding="UTF-8" standalone="no"?>
<!-- Created with Inkscape (http://www.inkscape.org/) -->

<svg
   version="1.1"
   id="svg824"
   width="1706.6667"
   height="1706.6667"
   viewBox="0 0 1706.6667 1706.6667"
   sodipodi:docname="ying_on_ice.svg"
   inkscape:version="1.1 (c68e22c387, 2021-05-23)"
   inkscape:export-filename="D:\Pictures\yingmotes\ying_smol.png"
   inkscape:export-xdpi="72"
   inkscape:export-ydpi="72"
   xmlns:inkscape="http://www.inkscape.org/namespaces/inkscape"
   xmlns:sodipodi="http://sodipodi.sourceforge.net/DTD/sodipodi-0.dtd"
   xmlns="http://www.w3.org/2000/svg"
   xmlns:svg="http://www.w3.org/2000/svg">
  <defs
     id="defs828" />
  <sodipodi:namedview
     id="namedview826"
     pagecolor="#ffffff"
     bordercolor="#666666"
     borderopacity="1.0"
     inkscape:pageshadow="2"
     inkscape:pageopacity="0.0"
     inkscape:pagecheckerboard="0"
     showgrid="false"
     inkscape:zoom="0.35203928"
     inkscape:cx="701.62625"
     inkscape:cy="995.62753"
     inkscape:window-width="1920"
     inkscape:window-height="1001"
     inkscape:window-x="-9"
     inkscape:window-y="-9"
     inkscape:window-maximized="1"
     inkscape:current-layer="layer1" />
  <g
     id="layer1"
     inkscape:label="Ying"
     style="display:inline"
     inkscape:groupmode="layer">
    <g
       id="g2700"
       style="display:inline;fill:#55ddff;stroke:#80e5ff"
       transform="matrix(1,0,0,-1,0,1724.9934)">
      <path
         id="path2692"
         style="fill:#55ddff;fill-opacity:1;stroke:#80e5ff;stroke-width:167.86;stroke-linecap:round;stroke-linejoin:round;paint-order:fill markers stroke;stop-color:#000000"
         d="M 122.14544,369.73573 860.69941,653.70064 V 1600.2504 L 122.14544,1316.2855 Z"
         sodipodi:nodetypes="ccccc" />
      <path
         id="path2694"
         style="fill:#55ddff;fill-opacity:1;stroke:#80e5ff;stroke-width:167.86;stroke-linecap:round;stroke-linejoin:round;paint-order:fill markers stroke;stop-color:#000000"
         d="M 122.14544,369.73573 860.69941,653.70064 V 1600.2504 L 122.14544,1316.2855 Z"
         sodipodi:nodetypes="ccccc"
         inkscape:transform-center-x="374.95815"
         inkscape:transform-center-y="-94.654978" />
      <path
         id="path2696"
         style="fill:#55ddff;fill-opacity:1;stroke:#80e5ff;stroke-width:167.86;stroke-linecap:round;stroke-linejoin:round;paint-order:fill markers stroke;stop-color:#000000"
         d="M 1598.6157,369.73573 860.06177,653.70064 v 946.54976 l 738.55393,-283.9649 z"
         sodipodi:nodetypes="ccccc"
         inkscape:transform-center-x="-374.95815"
         inkscape:transform-center-y="-94.654978" />
      <path
         style="fill:#55ddff;fill-opacity:1;stroke:#80e5ff;stroke-width:167.86;stroke-linecap:round;stroke-linejoin:round;paint-order:fill markers stroke;stop-color:#000000"
         d="M 122.14544,369.73573 860.69941,124.74641 1598.6157,369.73573 860.69941,653.70064 122.14544,369.73573"
         id="path2698" />
    </g>
    <ellipse
       style="opacity:0.210111;fill:#000000;fill-opacity:1;stroke:none;stroke-width:160.434;stroke-linecap:round;stroke-linejoin:round;paint-order:fill markers stroke;stop-color:#000000"
       id="path4664"
       cx="1610.0525"
       cy="-590.61206"
       rx="89.851311"
       ry="297.31567"
       transform="matrix(0.24629119,0.96919588,-0.93840799,0.34552924,0,0)" />
    <g
       id="g2632"
       transform="translate(22.335845,-63.188152)"
       style="display:inline">
      <path
         style="fill:none;fill-opacity:1;stroke:#f19020;stroke-width:64;stroke-linecap:round;stroke-linejoin:round;stroke-opacity:1;paint-order:fill markers stroke;stop-color:#000000"
         d="m 763.60812,1470.3887 83.675,-24.4106 -20.23159,-296.73 -103.06678,-139.5273 149.12866,1.0846 -46.06188,138.4427"
         id="path1090"
         sodipodi:nodetypes="cccccc" />
      <path
         style="display:inline;fill:none;fill-opacity:1;stroke:#f19020;stroke-width:64;stroke-linecap:round;stroke-linejoin:round;stroke-opacity:1;paint-order:fill markers stroke;stop-color:#000000"
         d="M 636.70366,1172.1822 620.56105,1098.548 756.6472,832.94284 681.14844,701.51716"
         id="path14378-2"
         sodipodi:nodetypes="cccc"
         inkscape:transform-center-x="96.345714"
         inkscape:transform-center-y="167.46078" />
      <path
         style="fill:#ffcb4c;fill-opacity:1;stroke:#ffcb4c;stroke-width:64;stroke-linecap:round;stroke-linejoin:round;stroke-opacity:1;paint-order:fill markers stroke;stop-color:#000000"
         d="m 666.44748,644.62927 c 0,0 -56.84753,89.02676 -49.82343,159.6241 8.03982,139.82503 98.51475,299.91033 238.6516,285.47093 140.13687,-14.4395 156.69105,-48.0612 263.35915,-141.93732 106.668,-93.87608 148.4798,-319.2105 148.4798,-319.2105 0,0 -78.2096,141.97491 -142.8647,208.79133 -68.3208,70.60453 -168.48426,112.84636 -267.28828,110.73532 -90.53122,-1.9343 -147.2458,-54.10972 -153.42289,-165.22466 -5.68874,-102.33028 9.86719,-160.72342 9.86719,-160.72342"
         id="path2053"
         sodipodi:nodetypes="cczzcsssc" />
      <path
         style="fill:none;fill-opacity:1;stroke:#ffcb4c;stroke-width:64;stroke-linecap:round;stroke-linejoin:round;stroke-opacity:1;paint-order:fill markers stroke;stop-color:#000000"
         d="m 821.00182,1507.3164 75.15323,-61.3383 -20.2316,-296.73 -103.06677,-139.5273 149.12865,1.0846 -46.06188,138.4427"
         id="path10187"
         sodipodi:nodetypes="cccccc" />
      <path
         style="fill:none;fill-opacity:1;stroke:#ffcb4c;stroke-width:64;stroke-linecap:round;stroke-linejoin:round;stroke-opacity:1;paint-order:fill markers stroke;stop-color:#000000"
         d="M 685.23688,1184.2307 663.8069,1108.026 756.6472,832.94284 681.14844,701.51716"
         id="path14378"
         sodipodi:nodetypes="cccc"
         inkscape:transform-center-x="113.23348"
         inkscape:transform-center-y="155.95177" />
      <g
         id="g31027"
         inkscape:label="head"
         transform="matrix(0.76362393,0,0,0.76362393,354.54382,204.5922)"
         style="display:inline;stroke-width:1.30955">
        <path
           style="display:inline;fill:none;stroke:#65471b;stroke-width:83.8109;stroke-linecap:round;stroke-linejoin:round;stroke-opacity:1;paint-order:fill markers stroke;stop-color:#000000"
           d="m 334.21594,389.29587 -99.96589,28.23932"
           id="path1517-8"
           sodipodi:nodetypes="cc" />
        <path
           style="fill:none;stroke:#65471b;stroke-width:83.8109;stroke-linecap:round;stroke-linejoin:round;stroke-opacity:1;paint-order:fill markers stroke;stop-color:#000000"
           d="m 137.99052,534.29931 21.93043,93.52394"
           id="path1858"
           sodipodi:nodetypes="cc" />
        <path
           style="fill:#f19020;fill-opacity:1;stroke:#f19020;stroke-width:83.8112;stroke-linecap:round;stroke-miterlimit:4;stroke-dasharray:none;stroke-dashoffset:0;stroke-opacity:1;paint-order:fill markers stroke;stop-color:#000000"
           d="m 383.61822,368.36921 c 0,0 -16.26371,-58.36871 -14.2224,-120.84588 2.24564,-68.73109 28.44481,-142.74919 51.64979,-144.25976 23.20499,-1.51058 60.63237,65.70995 70.36348,113.29301 9.73111,47.58307 -1.4971,152.56792 -1.4971,152.56792 z"
           id="path1640"
           inkscape:label="left ear"
           sodipodi:nodetypes="cssscc" />
        <path
           style="display:none;fill:#123456;fill-opacity:1;stroke:#123456;stroke-width:83.8109;stroke-linecap:round;stroke-linejoin:round;stroke-opacity:1;paint-order:fill markers stroke;stop-color:#000000"
           d="m 613.5679,322.40721 56.81184,427.50911 -58.23213,-69.5945 -34.08711,61.07273 -48.29007,-96.58014 -34.0871,46.86978 -4.26089,-288.32011 z"
           id="path30938"
           inkscape:label="mane" />
        <path
           id="path1148"
           style="display:inline;fill:#ffcb4c;stroke:#ffcb4c;stroke-width:83.8112;stroke-linecap:round;stroke-linejoin:round;stroke-miterlimit:4;stroke-dasharray:8.3811, 8.3811;stroke-dashoffset:0;stroke-opacity:1;paint-order:fill markers stroke;stop-color:#000000"
           inkscape:label="head"
           d="m 539.60091,477.49373 c 0,0 -0.0366,-3.70164 -0.3225,-9.72156 -0.14297,-3.00997 -0.34782,-6.59936 -0.64231,-10.59548 -0.29449,-3.99611 -0.67797,-8.3992 -1.17738,-13.03557 -0.49937,-4.63637 -1.11503,-9.50595 -1.87265,-14.43669 -0.75765,-4.93072 -1.65763,-9.92227 -2.7269,-14.80147 -0.53463,-2.4396 -1.11171,-4.85146 -1.73425,-7.21333 -0.62254,-2.36186 -1.29066,-4.67376 -2.00776,-6.91466 -0.7171,-2.24089 -1.48272,-4.41036 -2.30109,-6.48705 -0.81838,-2.07668 -1.68937,-4.06057 -2.61562,-5.92981 -0.92629,-1.86924 -2.01207,-3.68971 -3.23414,-5.46011 -1.22206,-1.77039 -2.58056,-3.49095 -4.05125,-5.1601 -1.47072,-1.66915 -3.05386,-3.28725 -4.72604,-4.85276 -1.67217,-1.56551 -3.43325,-3.07859 -5.25972,-4.53806 -1.82651,-1.45947 -3.71811,-2.86498 -5.65179,-4.21602 -1.93364,-1.35103 -3.90906,-2.64708 -5.90271,-3.88728 -3.98734,-2.4804 -8.04781,-4.73698 -11.9922,-6.75965 -3.94438,-2.02268 -7.77272,-3.81144 -11.2969,-5.35722 -3.52418,-1.54577 -6.7439,-2.84827 -9.47059,-3.89797 -5.45345,-2.09939 -8.93488,-3.18773 -8.93488,-3.18773 -36.22004,-5.46941 -78.71636,2.38418 -105.99223,20.53018 -34.33362,22.84136 -46.41019,60.42348 -67.36953,72.50809 -20.95933,12.08456 -76.35178,26.43446 -95.06548,28.7003 -18.71369,2.26585 -62.1291,2.26622 -54.64363,42.29643 7.48548,40.03021 38.17558,96.67678 128.00132,84.59222 89.82572,-12.0846 106.29402,-15.10592 181.89733,-30.21167 7.76309,-1.55108 18.25663,-6.26695 29.43815,-12.63933 l 72.51075,-3.90936 -31.50552,-25.74439 c 1.81651,-1.65589 3.59379,-3.32458 5.30014,-5.00709 l 48.16944,-0.81247 -28.77794,-23.83285 c 1.18006,-2.24196 2.19714,-4.45427 2.92486,-6.60463 0.35677,-1.05422 0.6892,-2.26697 1.03302,-3.41291 z" />
        <path
           style="display:none;fill:#123456;fill-opacity:1;stroke:#123456;stroke-width:83.8109;stroke-linecap:round;stroke-linejoin:round;stroke-opacity:1;paint-order:fill markers stroke;stop-color:#000000"
           d="m 326.76156,347.08986 c -38.92591,-28.12127 -95.27498,-32.28568 -164.4847,-18.76671 53.19265,-54.19875 122.01662,-91.20303 213.05736,-103.76887 -8.50024,-22.36759 -50.66592,-20.68843 -83.89823,-25.39026 71.84967,-34.61604 149.12201,-28.5621 228.5123,-6.62354 11.48715,33.4857 35.33869,66.9714 -33.11772,100.4571 -56.18757,-3.20348 -111.36025,1.20466 -160.06901,54.09228 z"
           id="path30246"
           sodipodi:nodetypes="ccccccc"
           inkscape:label="top hair" />
        <path
           id="path13483"
           style="display:inline;fill:#ffcb4c;stroke:#ffcb4c;stroke-width:83.8112;stroke-linecap:round;stroke-linejoin:round;stroke-miterlimit:4;stroke-dasharray:8.3811, 8.3811;stroke-dashoffset:0;stroke-opacity:1;paint-order:fill markers stroke;stop-color:#000000"
           inkscape:label="right ear"
           d="m 584.97788,103.26337 c -26.94774,0 -81.29827,97.45178 -90.57453,126.88865 -8.25904,26.20889 -33.54002,92.19064 -40.72312,110.88919 0,0 3.48143,1.08834 8.93488,3.18773 2.72669,1.0497 5.94641,2.3522 9.47059,3.89797 3.52418,1.54578 7.35252,3.33454 11.2969,5.35722 3.94439,2.02267 8.00486,4.27925 11.9922,6.75965 1.99365,1.2402 3.96907,2.53625 5.90271,3.88728 1.93368,1.35104 3.82528,2.75655 5.65179,4.21602 1.82647,1.45947 3.58755,2.97255 5.25972,4.53806 1.67218,1.56551 3.25532,3.18361 4.72604,4.85276 1.47069,1.66915 2.82919,3.38971 4.05125,5.1601 1.22207,1.7704 2.30785,3.59087 3.23414,5.46011 0.92625,1.86924 1.79724,3.85313 2.61562,5.92981 0.81837,2.07669 1.58399,4.24616 2.30109,6.48705 0.7171,2.2409 1.38522,4.5528 2.00776,6.91466 0.62254,2.36187 1.19962,4.77373 1.73425,7.21333 1.06927,4.8792 1.96925,9.87075 2.7269,14.80147 0.75762,4.93074 1.37328,9.80032 1.87265,14.43669 0.49941,4.63637 0.88289,9.03946 1.17738,13.03557 0.29449,3.99612 0.49934,7.58551 0.64231,10.59548 0.28595,6.01992 0.3225,9.72156 0.3225,9.72156 32.84014,-40.20697 94.01914,-124.86486 97.02621,-201.26956 4.11703,-104.60722 -34.17423,-172.9608 -51.64924,-172.9608 z" />
        <path
           style="fill:none;stroke:#65471b;stroke-width:83.8109;stroke-linecap:round;stroke-linejoin:round;stroke-opacity:1;paint-order:fill markers stroke;stop-color:#000000"
           d="M 462.28625,462.6772 367.65106,419.8424"
           id="path1517" />
      </g>
      <path
         style="display:none;fill:#234567;fill-opacity:1;stroke:#234567;stroke-width:64;stroke-linecap:round;stroke-linejoin:round;stroke-opacity:1;paint-order:fill markers stroke;stop-color:#000000"
         d="m 1240.7056,716.73351 c -24.7446,-12.09657 -45.6669,-31.1221 -49.2499,-81.58105 47.0945,-40.49992 71.8544,-93.32018 93.4734,-147.87299 24.9719,48.74475 39.3208,101.0346 27.1388,162.17842 -8.9122,30.89862 -26.6852,56.74972 -71.3623,67.27562 z"
         id="path31499"
         sodipodi:nodetypes="ccccc"
         inkscape:label="tail tuft" />
      <path
         style="fill:#ffcb4c;fill-opacity:1;stroke:#ffcb4c;stroke-width:64;stroke-linecap:round;stroke-linejoin:round;stroke-opacity:1;paint-order:fill markers stroke;stop-color:#000000"
         d="m 627.85596,721.93305 -22.77601,147.50179 18.43771,-27.1143"
         id="path964"
         sodipodi:nodetypes="ccc"
         inkscape:label="path964" />
      <path
         style="fill:#ffcb4c;fill-opacity:1;stroke:#ffcb4c;stroke-width:64;stroke-linecap:round;stroke-linejoin:round;stroke-opacity:1;paint-order:fill markers stroke;stop-color:#000000"
         d="m 623.51766,887.87256 24.94517,137.74064 23.86058,-18.4377"
         id="path5564"
         sodipodi:nodetypes="ccc" />
      <path
         style="fill:#ffcb4c;fill-opacity:1;stroke:#ffcb4c;stroke-width:64;stroke-linecap:round;stroke-linejoin:round;stroke-opacity:1;paint-order:fill markers stroke;stop-color:#000000"
         d="m 711.368,1061.4041 50.97489,50.4325"
         id="path6398" />
    </g>
    <g
       id="g2143"
       style="display:inline;opacity:0.338073;fill:#55ddff;fill-opacity:0.674336;stroke:#aaeeff;stroke-opacity:1">
      <path
         id="path2137"
         style="fill:#55ddff;fill-opacity:0.674336;stroke:#aaeeff;stroke-width:167.86;stroke-linecap:round;stroke-linejoin:round;stroke-opacity:1;paint-order:fill markers stroke;stop-color:#000000"
         d="M 122.14544,408.7079 860.69941,653.70064 V 1600.2504 L 340.44629,1427.6723 122.14544,1355.2577 Z"
         sodipodi:nodetypes="cccccc"
         inkscape:transform-center-x="374.95815"
         inkscape:transform-center-y="-94.654978" />
      <path
         id="path2139"
         style="fill:#55ddff;fill-opacity:0.674336;stroke:#aaeeff;stroke-width:167.86;stroke-linecap:round;stroke-linejoin:round;stroke-opacity:1;paint-order:fill markers stroke;stop-color:#000000"
         d="M 1598.6157,408.7079 860.06177,653.70064 v 946.54976 l 738.55393,-244.9927 z"
         sodipodi:nodetypes="ccccc"
         inkscape:transform-center-x="-374.95815"
         inkscape:transform-center-y="-94.654978" />
      <path
         style="fill:#55ddff;fill-opacity:0.674336;stroke:#aaeeff;stroke-width:167.86;stroke-linecap:round;stroke-linejoin:round;stroke-opacity:1;paint-order:fill markers stroke;stop-color:#000000"
         d="M 122.14544,408.7079 860.69941,124.74641 1598.6157,408.7079 860.69941,653.70064 122.14544,408.7079"
         id="path2141"
         sodipodi:nodetypes="ccccc" />
    </g>
    <path
       sodipodi:type="star"
       style="fill:#d5f6ff;fill-opacity:1;stroke:#d5f6ff;stroke-width:154.849;stroke-linecap:round;stroke-linejoin:round;stroke-miterlimit:4;stroke-dasharray:none;stroke-opacity:1;paint-order:fill markers stroke;stop-color:#000000"
       id="path9316"
       inkscape:flatsided="false"
       sodipodi:sides="6"
       sodipodi:cx="1343.6001"
       sodipodi:cy="355.07401"
       sodipodi:r1="2.5478384"
       sodipodi:r2="254.78384"
       sodipodi:arg1="0.53850746"
       sodipodi:arg2="1.0621062"
       inkscape:rounded="0"
       inkscape:randomized="0"
       d="m 1345.7874,356.38068 121.901,221.21726 -124.1263,-219.97638 -130.6292,216.17803 128.442,-217.4847 -252.5303,-5.03923 252.5682,2.49167 -121.901,-221.21726 124.1263,219.97638 130.6292,-216.17803 -128.442,217.4847 252.5303,5.03923 z"
       transform="matrix(0.54410477,0.31034989,-0.30400795,0.53298608,531.58683,-372.5203)" />
    <path
       sodipodi:type="star"
       style="display:inline;fill:#d5f6ff;fill-opacity:1;stroke:#d5f6ff;stroke-width:119.657;stroke-linecap:round;stroke-linejoin:round;stroke-miterlimit:4;stroke-dasharray:none;stroke-opacity:1;paint-order:fill markers stroke;stop-color:#000000"
       id="path9316-3"
       inkscape:flatsided="false"
       sodipodi:sides="6"
       sodipodi:cx="1343.6001"
       sodipodi:cy="355.07401"
       sodipodi:r1="2.5478384"
       sodipodi:r2="254.78384"
       sodipodi:arg1="0.53850746"
       sodipodi:arg2="1.0621062"
       inkscape:rounded="0"
       inkscape:randomized="0"
       transform="matrix(0.70665146,0.40018968,-0.39482775,0.68727439,-569.23388,564.66258)"
       d="m 1345.7874,356.38068 121.901,221.21726 -124.1263,-219.97638 -130.6292,216.17803 128.442,-217.4847 -252.5303,-5.03923 252.5682,2.49167 -121.901,-221.21726 124.1263,219.97638 130.6292,-216.17803 -128.442,217.4847 252.5303,5.03923 z" />
    <path
       sodipodi:type="star"
       style="display:inline;fill:#d5f6ff;fill-opacity:1;stroke:#d5f6ff;stroke-width:154.849;stroke-linecap:round;stroke-linejoin:round;stroke-miterlimit:4;stroke-dasharray:none;stroke-opacity:1;paint-order:fill markers stroke;stop-color:#000000"
       id="path9316-4"
       inkscape:flatsided="false"
       sodipodi:sides="6"
       sodipodi:cx="1343.6001"
       sodipodi:cy="355.07401"
       sodipodi:r1="2.5478384"
       sodipodi:r2="254.78384"
       sodipodi:arg1="0.53850746"
       sodipodi:arg2="1.0621062"
       inkscape:rounded="0"
       inkscape:randomized="0"
       transform="matrix(0.54410477,0.31034989,-0.30400795,0.53298608,845.47222,530.0012)"
       d="m 1345.7874,356.38068 121.901,221.21726 -124.1263,-219.97638 -130.6292,216.17803 128.442,-217.4847 -252.5303,-5.03923 252.5682,2.49167 -121.901,-221.21726 124.1263,219.97638 130.6292,-216.17803 -128.442,217.4847 252.5303,5.03923 z" />
  </g>
</svg>
