<?xml version="1.0" encoding="UTF-8" standalone="no"?>
<!-- Created with Inkscape (http://www.inkscape.org/) -->

<svg
   version="1.1"
   id="svg824"
   width="1706.6667"
   height="1706.6667"
   viewBox="0 0 1706.6667 1706.6667"
   sodipodi:docname="ying_science_think.svg"
   inkscape:version="1.1 (c68e22c387, 2021-05-23)"
   inkscape:export-filename="D:\Pictures\yingmotes\ying.png"
   inkscape:export-xdpi="72"
   inkscape:export-ydpi="72"
   xmlns:inkscape="http://www.inkscape.org/namespaces/inkscape"
   xmlns:sodipodi="http://sodipodi.sourceforge.net/DTD/sodipodi-0.dtd"
   xmlns="http://www.w3.org/2000/svg"
   xmlns:svg="http://www.w3.org/2000/svg">
  <defs
     id="defs828" />
  <sodipodi:namedview
     id="namedview826"
     pagecolor="#ffffff"
     bordercolor="#666666"
     borderopacity="1.0"
     inkscape:pageshadow="2"
     inkscape:pageopacity="0.0"
     inkscape:pagecheckerboard="0"
     showgrid="false"
     inkscape:zoom="0.19064278"
     inkscape:cx="642.56303"
     inkscape:cy="936.30614"
     inkscape:window-width="1920"
     inkscape:window-height="1001"
     inkscape:window-x="-9"
     inkscape:window-y="-9"
     inkscape:window-maximized="1"
     inkscape:current-layer="layer1" />
  <g
     id="layer1"
     inkscape:label="Ying"
     style="display:inline"
     inkscape:groupmode="layer">
    <path
       style="fill:#f2f2f2;stroke:#808080;stroke-width:64;stroke-linecap:round;stroke-linejoin:round;paint-order:fill markers stroke;stop-color:#000000"
       d="m 807.26898,1595.6545 -65.56766,113.8254 155.78875,-46.6842 58.74862,-79.7302 z"
       id="path1634"
       sodipodi:nodetypes="ccccc" />
    <path
       style="fill:#b3b3b3;stroke:#808080;stroke-width:64;stroke-linecap:round;stroke-linejoin:round;paint-order:fill markers stroke;stop-color:#000000"
       d="m 807.26898,1595.6545 10.49082,327.3137 230.7982,44.0615 -92.31931,-383.9642 z"
       id="path1161"
       sodipodi:nodetypes="ccccc" />
    <path
       style="display:none;fill:#123456;stroke:#123456;stroke-width:64;stroke-linecap:round;stroke-linejoin:round;-inkscape-stroke:none;paint-order:fill markers stroke;stop-color:#000000"
       d="m 1379.3349,870.34316 c 70.7982,131.45404 185.3824,239.02474 198.7064,401.82834 -29.438,-19.1346 -55.9321,-14.719 -79.4825,13.2471 91.0222,54.7003 58.5139,175.917 81.6903,267.1496 l -99.3531,6.6236 c 66.7588,58.9185 81.773,128.1858 90.5218,198.7063 l -494.5073,2.2079 c -24.3802,-41.4813 23.1146,-208.5632 66.2356,-227.0436 0,0 3.3791,-20.0154 -75.3533,-9.4549 28.7411,-247.2725 185.6948,-422.1763 311.5421,-653.26434 z"
       id="path3091"
       sodipodi:nodetypes="cccccccccc"
       inkscape:label="mane" />
    <path
       style="opacity:1;fill:#ffcb4c;fill-opacity:1;stroke:#ffcb4c;stroke-width:64;stroke-linecap:round;stroke-linejoin:round;stroke-miterlimit:4;stroke-dasharray:none;stroke-dashoffset:0;stroke-opacity:1;paint-order:fill markers stroke;stop-color:#000000"
       d="m 929.39719,1344.1334 -64.7849,239.5079 62.82173,-25.5214 -51.04266,200.2443 459.38384,-15.7054 c 0,0 -127.6066,-94.2326 -149.2016,-184.5389 -21.5949,-90.3062 51.0427,-253.25 51.0427,-253.25 z"
       id="path3340"
       inkscape:label="neck" />
    <g
       id="g12988"
       inkscape:label="head"
       transform="rotate(6.7972948,928.54839,1847.0745)">
      <path
         style="display:inline;fill:none;fill-opacity:1;stroke:#f19020;stroke-width:32;stroke-linecap:round;stroke-linejoin:round;stroke-miterlimit:4;stroke-dasharray:none;stroke-dashoffset:0;stroke-opacity:1;paint-order:fill markers stroke;stop-color:#000000"
         d="m 214.24675,510.63421 c 146.95696,90.16728 298.17327,215.74277 401.65747,338.76616"
         id="path6280-0-6"
         sodipodi:nodetypes="cc"
         inkscape:label="eyelash left small" />
      <path
         style="display:inline;fill:none;fill-opacity:1;stroke:#f19020;stroke-width:32;stroke-linecap:round;stroke-linejoin:round;stroke-miterlimit:4;stroke-dasharray:none;stroke-dashoffset:0;stroke-opacity:1;paint-order:fill markers stroke;stop-color:#000000"
         d="M 136.3074,315.66998 C 386.36359,452.28922 592.00322,626.1296 711.50637,872.15241"
         id="path6280-3"
         sodipodi:nodetypes="cc"
         inkscape:label="eyelash left big" />
      <g
         id="g12997"
         inkscape:label="left eye">
        <path
           id="path1915-9"
           style="display:inline;fill:#fefefe;stroke:#65471b;stroke-width:64;stroke-linecap:round;stroke-linejoin:round;paint-order:fill markers stroke;stop-color:#000000"
           inkscape:label="lefteye"
           d="m 792.61751,1048.7279 c 10e-6,120.7167 -155.86024,218.577 -276.57698,218.577 -120.71674,0 -160.57699,-55.8603 -160.57698,-176.577 0,-120.71673 97.86025,-260.57698 218.57698,-260.57698 120.71673,0 218.57698,97.86025 218.57698,218.57698 z"
           sodipodi:nodetypes="sssss" />
        <path
           style="opacity:1;fill:#ffffff;fill-opacity:1;stroke:#65471b;stroke-width:48;stroke-linecap:round;stroke-linejoin:round;stroke-miterlimit:4;stroke-dasharray:none;stroke-dashoffset:0;stroke-opacity:1;paint-order:fill markers stroke;stop-color:#000000"
           d="M 498.97372,962.62186 V 1132.6262"
           id="path2372"
           inkscape:label="left pupil" />
      </g>
      <path
         style="opacity:1;fill:#f19020;fill-opacity:1;stroke:#f19020;stroke-width:64;stroke-linecap:round;stroke-miterlimit:4;stroke-dasharray:none;stroke-dashoffset:0;stroke-opacity:1;paint-order:fill markers stroke;stop-color:#000000"
         d="m 838.98236,834.56666 c 0,0 -47.96997,-170.62298 -41.94911,-353.25573 6.62354,-200.91419 83.89823,-417.283329 152.34153,-421.699025 68.44332,-4.415697 178.83572,192.082805 207.53772,331.177245 28.702,139.09445 -4.4157,445.98536 -4.4157,445.98536 z"
         id="path1640"
         inkscape:label="left ear"
         sodipodi:nodetypes="cssscc" />
      <path
         style="display:inline;opacity:0.293666;fill:none;fill-opacity:1;stroke:#ffffff;stroke-width:88.8718;stroke-linecap:round;stroke-linejoin:round;paint-order:fill markers stroke;stop-color:#000000"
         id="path3405-0"
         sodipodi:type="arc"
         sodipodi:cx="-189.98595"
         sodipodi:cy="-1180.5543"
         sodipodi:rx="204.88176"
         sodipodi:ry="175.41107"
         sodipodi:start="0"
         sodipodi:end="1.8072524"
         sodipodi:open="true"
         sodipodi:arc-type="arc"
         transform="matrix(-0.96350683,0.26768376,-0.38277068,-0.92384339,0,0)"
         inkscape:transform-center-x="109.6421"
         inkscape:transform-center-y="-62.634976"
         d="m 14.895813,-1180.5543 a 204.88176,175.41107 0 0 1 -78.108018,137.7987 204.88176,175.41107 0 0 1 -174.769095,32.7314" />
      <circle
         style="display:inline;fill:#ffffff;fill-opacity:0.251656;stroke:#000000;stroke-width:64;stroke-linecap:round;stroke-linejoin:round;paint-order:fill markers stroke;stop-color:#000000"
         id="path2117-5"
         cx="604.6651"
         cy="1077.9017"
         r="297.56189" />
      <path
         id="path1148"
         style="display:inline;opacity:1;fill:#ffcb4c;stroke:#ffcb4c;stroke-width:64;stroke-linecap:round;stroke-linejoin:round;stroke-miterlimit:4;stroke-dasharray:6.4, 6.4;stroke-dashoffset:0;stroke-opacity:1;paint-order:fill markers stroke;stop-color:#000000"
         inkscape:label="head"
         d="m 1299.0547,1153.5586 c 0,0 -0.1078,-10.8206 -0.9512,-28.418 -0.4217,-8.7987 -1.0259,-19.2912 -1.8945,-30.9726 -0.8686,-11.6814 -1.9997,-24.5525 -3.4727,-38.1055 -1.4729,-13.553 -3.2888,-27.7877 -5.5234,-42.2012 -2.2347,-14.41345 -4.8892,-29.0047 -8.043,-43.26755 -1.5769,-7.13143 -3.279,-14.18175 -5.1152,-21.08594 -1.8362,-6.90419 -3.8068,-13.66232 -5.9219,-20.21289 -2.1151,-6.55056 -4.3733,-12.89234 -6.7871,-18.96289 -2.4138,-6.07055 -4.9828,-11.86984 -7.7148,-17.33398 -2.7321,-5.46415 -5.9346,-10.78574 -9.5391,-15.96094 -3.6045,-5.1752 -7.6114,-10.20474 -11.9492,-15.08399 -4.3379,-4.87924 -9.0074,-9.60926 -13.9395,-14.18554 -4.9321,-4.57628 -10.1264,-8.99932 -15.5136,-13.26563 -5.3873,-4.2663 -10.9666,-8.37489 -16.67,-12.32422 -5.7033,-3.94932 -11.5298,-7.73794 -17.4101,-11.36328 -11.7607,-7.25067 -23.7371,-13.84709 -35.3711,-19.75976 -11.634,-5.91267 -22.9257,-11.14156 -33.3203,-15.66016 -10.3946,-4.5186 -19.8912,-8.32606 -27.9336,-11.39453 -16.085,-6.13693 -26.3535,-9.31836 -26.3535,-9.31836 -106.83135,-15.98813 -232.17461,6.96944 -312.62504,60.01367 -101.26734,66.76968 -136.88727,176.62945 -198.70703,211.95509 -61.81975,35.3255 -225.20029,77.273 -280.39649,83.8965 -55.19621,6.6235 -183.250354,6.6246 -161.171871,123.6406 22.078481,117.016 112.599211,282.6048 377.541011,247.2793 264.94179,-35.3256 313.51517,-44.1575 536.50782,-88.3145 22.8973,-4.5341 53.8481,-18.3195 86.8281,-36.9472 l 213.8711,-11.4278 -92.9258,-75.2558 c 5.3578,-4.8405 10.5999,-9.7184 15.6328,-14.6367 l 40.7348,-36.612 16.4606,-35.431 c 3.4806,-6.5537 6.4805,-13.0207 8.6269,-19.3066 1.0523,-3.0817 2.0328,-6.6268 3.0469,-9.9766 z"
         sodipodi:nodetypes="csssssssssssssssssscssssssccccccsc" />
      <path
         style="display:none;fill:#123456;stroke:#123456;stroke-width:64;stroke-linecap:round;stroke-linejoin:round;-inkscape-stroke:none;paint-order:fill markers stroke;stop-color:#000000"
         d="M 880.93148,744.0449 C 763.91552,771.643 622.61323,916.25706 622.61323,916.25706 620.95257,833.21142 611.27974,749.4374 735.2135,677.80944 c -124.69479,-7.45678 -249.2876,-15.1175 -408.45194,46.36482 0,0 303.22641,-263.62224 490.14233,-280.39675 172.2122,-15.45493 264.94181,37.53343 264.94181,37.53343 -0.1923,-45.68323 -31.4577,-88.25915 -90.52179,-128.0552 0,0 295.85169,97.14532 333.38509,194.29065 37.5334,97.14533 28.702,167.79647 28.702,167.79647 l -243.7525,34.92308 c 0,0 -111.71105,-33.81914 -228.72702,-6.22104 z"
         id="path1637"
         sodipodi:nodetypes="zcccsccsccz"
         inkscape:label="top hair" />
      <path
         id="path13483"
         style="display:inline;opacity:1;fill:#ffcb4c;stroke:#ffcb4c;stroke-width:64;stroke-linecap:round;stroke-linejoin:round;stroke-miterlimit:4;stroke-dasharray:6.4, 6.4;stroke-dashoffset:0;stroke-opacity:1;paint-order:fill markers stroke;stop-color:#000000"
         inkscape:label="right ear"
         d="m 1257.0798,52.536109 c -77.8449,16.051799 -177.3185,327.427011 -186.7371,417.229141 -8.3858,79.95461 -42.4636,283.91671 -52.175,341.7286 0,0 10.6994,1.04211 27.6924,3.80417 8.4964,1.38105 18.5662,3.19218 29.6592,5.51845 11.093,2.32627 23.208,5.16702 35.7964,8.60833 12.5883,3.44131 25.6501,7.48313 38.6328,12.20929 6.4913,2.36309 12.9629,4.89696 19.3462,7.6131 6.3835,2.71614 12.6776,5.61331 18.8155,8.70372 6.1377,3.09044 12.1183,6.37333 17.8729,9.85926 5.7547,3.48593 11.2832,7.17547 16.5171,11.07812 5.2338,3.90268 10.1739,8.01938 14.7493,12.36 4.5754,4.34062 8.7866,8.90581 12.5659,13.70561 3.7792,4.79981 7.4665,9.96079 11.0565,15.41878 3.59,5.45799 7.0825,11.21305 10.4769,17.20148 3.3944,5.98845 6.6892,12.20936 9.8819,18.60046 3.1927,6.3911 6.2836,12.95241 9.2682,19.61843 5.9693,13.33205 11.5158,27.08655 16.6153,40.75175 5.0994,13.6652 9.7527,27.2398 13.9323,40.2161 4.1797,12.9763 7.8869,25.3538 11.0967,36.619 3.2098,11.2653 5.9205,21.4196 8.1105,29.9519 4.3799,17.0644 6.6707,27.6403 6.6707,27.6403 71.1303,-134.6726 197.8825,-413.48691 161.4637,-634.02174 C 1458.5262,215.01173 1307.5605,42.126873 1257.0798,52.536109 Z" />
      <g
         id="g13003"
         inkscape:label="face">
        <path
           style="opacity:1;fill:none;fill-opacity:1;stroke:#65471b;stroke-width:64;stroke-linecap:round;stroke-linejoin:round;stroke-miterlimit:4;stroke-dasharray:none;stroke-dashoffset:0;stroke-opacity:1;paint-order:fill markers stroke;stop-color:#000000"
           d="m 83.898236,1201.0695 68.443294,6.6235 -37.53342,39.7413"
           id="path2163"
           inkscape:label="left nostril" />
        <path
           style="opacity:1;fill:none;fill-opacity:1;stroke:#65471b;stroke-width:64;stroke-linecap:round;stroke-linejoin:round;stroke-miterlimit:4;stroke-dasharray:none;stroke-dashoffset:0;stroke-opacity:1;paint-order:fill markers stroke;stop-color:#000000"
           d="m 401.82839,1251.85 -59.6119,-44.157 121.43166,-17.6628"
           id="path2198"
           inkscape:label="right nostril" />
        <path
           style="opacity:1;fill:#ffffff;fill-opacity:1;stroke:#65471b;stroke-width:64;stroke-linecap:round;stroke-linejoin:round;stroke-miterlimit:4;stroke-dasharray:none;stroke-dashoffset:0;stroke-opacity:1;paint-order:fill markers stroke;stop-color:#000000"
           d="m 222.99268,1530.0389 -90.52178,-183.2514 90.52178,-72.859 103.76887,66.2354 z"
           id="path2202"
           sodipodi:nodetypes="ccccc"
           inkscape:label="toof" />
      </g>
      <g
         id="g12993"
         inkscape:label="right eye">
        <path
           style="opacity:1;fill:#65471b;fill-opacity:1;stroke:#65471b;stroke-width:64;stroke-linecap:round;stroke-linejoin:round;stroke-miterlimit:4;stroke-dasharray:none;stroke-dashoffset:0;stroke-opacity:1;paint-order:fill markers stroke;stop-color:#000000"
           d="m 661.97569,1226.0485 53.36716,-115.5008 86.53085,168.711 z"
           id="path7852"
           inkscape:label="eyenub"
           sodipodi:nodetypes="cccc" />
        <path
           id="path1915"
           style="opacity:1;fill:#fefefe;stroke:#65471b;stroke-width:64;stroke-linecap:round;stroke-linejoin:round;paint-order:fill markers stroke;stop-color:#000000"
           inkscape:label="righteye"
           d="m 1150.289,1075.2222 c 0,120.7167 -151.8603,218.5769 -272.57702,218.5769 -120.71671,0 -164.57695,-71.8602 -164.57699,-192.5769 -2e-5,-120.71675 97.86024,-244.57702 218.57699,-244.57701 120.71672,-2e-5 218.57702,97.86025 218.57702,218.57701 z"
           sodipodi:nodetypes="sssss" />
        <path
           style="opacity:1;fill:#ffffff;fill-opacity:1;stroke:#65471b;stroke-width:48;stroke-linecap:round;stroke-linejoin:round;stroke-miterlimit:4;stroke-dasharray:none;stroke-dashoffset:0;stroke-opacity:1;paint-order:fill markers stroke;stop-color:#000000"
           d="m 841.19021,982.4925 v 189.8749"
           id="path2350"
           inkscape:label="right pupil" />
      </g>
      <path
         style="opacity:1;fill:none;fill-opacity:1;stroke:#ffcb4c;stroke-width:32;stroke-linecap:round;stroke-linejoin:round;stroke-miterlimit:4;stroke-dasharray:none;stroke-dashoffset:0;stroke-opacity:1;paint-order:fill markers stroke;stop-color:#000000"
         d="M 422.09799,125.10137 C 599.10012,348.40199 720.6887,588.66091 734.81454,861.80682"
         id="path6280"
         sodipodi:nodetypes="cc"
         inkscape:label="eyelash right big" />
      <path
         style="display:inline;fill:none;fill-opacity:1;stroke:#ffcb4c;stroke-width:32;stroke-linecap:round;stroke-linejoin:round;stroke-miterlimit:4;stroke-dasharray:none;stroke-dashoffset:0;stroke-opacity:1;paint-order:fill markers stroke;stop-color:#000000"
         d="m 711.56797,296.29281 c 57.33566,162.60107 95.67474,355.38513 98.55015,516.11928"
         id="path6280-0"
         sodipodi:nodetypes="cc"
         inkscape:label="eyelash right small" />
      <circle
         style="fill:#ffffff;fill-opacity:0.251656;stroke:#000000;stroke-width:64;stroke-linecap:round;stroke-linejoin:round;paint-order:fill markers stroke;stop-color:#000000"
         id="path2117"
         cx="923.27612"
         cy="1067.8856"
         r="297.56189" />
      <path
         style="fill:#ffffff;fill-opacity:0.251656;stroke:#000000;stroke-width:64;stroke-linecap:round;stroke-linejoin:round;paint-order:fill markers stroke;stop-color:#000000"
         d="m 634.05713,995.58093 -71.95714,-42.0619 30.93809,-41.01905 52.49048,33.71905 z"
         id="path2614" />
      <path
         style="fill:#000000;fill-opacity:1;stroke:#000000;stroke-width:64;stroke-linecap:round;stroke-linejoin:round;paint-order:fill markers stroke;stop-color:#000000"
         d="m 1216.2694,1120.7238 118.0589,52.4625 -42.4539,116.4057 -122.6533,-47.5535 c 42.1764,-40.0079 47.6842,-81.3069 47.0483,-121.3147 z"
         id="path2729"
         sodipodi:nodetypes="ccccc" />
      <path
         style="opacity:0.293666;fill:none;fill-opacity:1;stroke:#ffffff;stroke-width:80.043;stroke-linecap:round;stroke-linejoin:round;paint-order:fill markers stroke;stop-color:#000000"
         id="path3405"
         sodipodi:type="arc"
         sodipodi:cx="-542.32513"
         sodipodi:cy="-1301.9989"
         sodipodi:rx="208.66182"
         sodipodi:ry="210.7543"
         sodipodi:start="0"
         sodipodi:end="1.8072524"
         sodipodi:open="true"
         sodipodi:arc-type="arc"
         d="m -333.66331,-1301.9989 a 208.66182,210.7543 0 0 1 -79.54911,165.5635 208.66182,210.7543 0 0 1 -177.99358,39.3264"
         transform="matrix(-0.94605222,0.32401418,-0.31858053,-0.9478958,0,0)"
         inkscape:transform-center-x="109.64211"
         inkscape:transform-center-y="-77.214484" />
    </g>
    <g
       id="layer2"
       inkscape:label="hand"
       transform="matrix(1.1589013,-0.2259428,0.2259428,1.1589013,-209.67852,-177.50424)"
       style="display:inline;fill:none;fill-opacity:1;stroke:#888800;stroke-width:0.84694;stroke-opacity:1">
      <rect
         style="fill:none;fill-opacity:1;stroke:#a18020;stroke-width:96.0001;stroke-linecap:round;stroke-linejoin:round;stroke-miterlimit:4;stroke-dasharray:none;stroke-opacity:1;paint-order:fill markers stroke;stop-color:#000000"
         id="rect21082"
         width="71.515228"
         height="184.21979"
         x="-791.12622"
         y="1425.8555"
         transform="rotate(-30.045577)"
         inkscape:transform-center-x="-90.714962"
         inkscape:transform-center-y="85.04706" />
      <path
         style="fill:none;fill-opacity:1;stroke:#a18020;stroke-width:81.3062;stroke-linecap:round;stroke-linejoin:round;stroke-miterlimit:4;stroke-dasharray:none;stroke-opacity:1;paint-order:fill markers stroke;stop-color:#000000"
         d="m 102.80466,1313.581 c 0,0 -65.913938,196.8699 -78.509835,213.9679"
         id="path15392"
         sodipodi:nodetypes="cc" />
      <path
         style="fill:none;fill-opacity:1;stroke:#a18020;stroke-width:81.3062;stroke-linecap:round;stroke-linejoin:round;stroke-miterlimit:4;stroke-dasharray:none;stroke-opacity:1;paint-order:fill markers stroke;stop-color:#000000"
         d="M 465.3647,1469.3989 89.494471,1497.1525"
         id="path20257"
         sodipodi:nodetypes="cc" />
      <path
         style="fill:none;fill-opacity:1;stroke:#a18020;stroke-width:81.3062;stroke-linecap:round;stroke-linejoin:round;stroke-miterlimit:4;stroke-dasharray:none;stroke-opacity:1;paint-order:fill markers stroke;stop-color:#000000"
         d="m 83.585394,1562.0096 235.596056,-10.6468 -227.01296,41.957"
         id="path20259"
         sodipodi:nodetypes="ccc" />
      <path
         style="fill:none;fill-opacity:1;stroke:#a18020;stroke-width:81.3062;stroke-linecap:round;stroke-linejoin:round;stroke-miterlimit:4;stroke-dasharray:none;stroke-opacity:1;paint-order:fill markers stroke;stop-color:#000000"
         d="M 71.288958,1621.58 258.1848,1609.5213 75.211429,1653.3286"
         id="path20261"
         sodipodi:nodetypes="ccc" />
      <path
         style="fill:none;fill-opacity:1;stroke:#a18020;stroke-width:81.3062;stroke-linecap:round;stroke-linejoin:round;stroke-miterlimit:4;stroke-dasharray:none;stroke-opacity:1;paint-order:fill markers stroke;stop-color:#000000"
         d="m 89.494447,1497.1525 c 0,0 -91.661563,27.9317 -87.4740127,89.3687 4.1875585,61.437 73.1909947,66.8074 73.1909947,66.8074 l 14.283018,-156.1761"
         id="path20376" />
    </g>
    <path
       style="display:inline;fill:#ffffff;fill-opacity:1;stroke:#65471b;stroke-width:64;stroke-linecap:round;stroke-linejoin:round;stroke-miterlimit:4;stroke-dasharray:none;stroke-dashoffset:0;stroke-opacity:1;paint-order:fill markers stroke;stop-color:#000000"
       d="m 265.47537,1448.7598 -68.19641,-192.6773 98.50889,-61.633 95.20006,78.0517 z"
       id="path2202-8"
       sodipodi:nodetypes="ccccc"
       inkscape:label="toof" />
    <g
       id="g908"
       transform="translate(83.048294,5.0737438)">
      <path
         style="fill:#f2f2f2;stroke:#808080;stroke-width:64;stroke-linecap:round;stroke-linejoin:round;paint-order:fill markers stroke;stop-color:#000000"
         d="m 792.07496,1903.818 82.85984,-325.9979 c 0,0 153.166,14.6871 209.8165,-2.0982 56.6504,-16.7853 56.6504,-29.3743 56.6504,-29.3743 l 186.7367,272.7614 z"
         id="path877"
         sodipodi:nodetypes="ccsccc" />
      <path
         style="fill:#f2f2f2;stroke:#808080;stroke-width:64;stroke-linecap:round;stroke-linejoin:round;paint-order:fill markers stroke;stop-color:#000000"
         d="m 874.9348,1577.8201 -65.84733,151.2987 432.77723,-105.7721 -100.463,-76.9991 -266.4669,31.4725"
         id="path1046"
         sodipodi:nodetypes="ccccc" />
    </g>
    <g
       id="g23418"
       inkscape:label="thinkcloud"
       transform="matrix(1.2200152,-0.2489983,0.24924311,1.2188169,-173.69358,-260.09224)"
       style="display:inline;stroke-width:0.803469">
      <circle
         style="fill:#ffffff;fill-opacity:1;stroke:#000000;stroke-width:43.5514;stroke-linecap:round;stroke-linejoin:round;stroke-miterlimit:4;stroke-dasharray:none;stroke-opacity:1;paint-order:fill markers stroke;stop-color:#000000"
         id="path23111"
         cx="603.16193"
         cy="866.9021"
         transform="rotate(11.032163)"
         r="44.294693" />
      <ellipse
         style="fill:#ffffff;fill-opacity:1;stroke:#000000;stroke-width:43.5514;stroke-linecap:round;stroke-linejoin:round;stroke-miterlimit:4;stroke-dasharray:none;stroke-opacity:1;paint-order:fill markers stroke;stop-color:#000000"
         id="path23113"
         cx="453.01172"
         cy="754.35474"
         transform="rotate(11.032173)"
         rx="65.063431"
         ry="65.062202" />
      <path
         id="path23217"
         style="fill:#ffffff;fill-opacity:1;stroke:#000000;stroke-width:51.422;stroke-linecap:round;stroke-linejoin:round;stroke-miterlimit:4;stroke-dasharray:none;stroke-opacity:1;paint-order:fill markers stroke;stop-color:#000000"
         d="M 520.6543,60.886719 A 216.22406,216.22406 0 0 0 404.05859,95.525391 186.56156,186.56156 0 0 0 305.21094,67.130859 186.56156,186.56156 0 0 0 123.7832,211.5625 a 85.865151,85.865151 0 0 0 -51.968747,78.81836 85.865151,85.865151 0 0 0 85.865237,85.86523 85.865151,85.865151 0 0 0 6.99804,-0.45898 186.56156,186.56156 0 0 0 140.53321,64.4668 186.56156,186.56156 0 0 0 33.35742,-3.38672 96.793442,96.793442 0 0 0 79.83008,42.41601 96.793442,96.793442 0 0 0 19.90625,-2.27343 216.22406,216.22406 0 0 0 82.34961,16.32421 216.22406,216.22406 0 0 0 101.5664,-25.74023 113.96647,113.96647 0 0 0 11.6211,0.76172 113.96647,113.96647 0 0 0 113.96484,-113.9668 113.96647,113.96647 0 0 0 -12.58398,-51.99805 216.22406,216.22406 0 0 0 1.65625,-25.28124 216.22406,216.22406 0 0 0 -13.08594,-73.97071 81.181596,81.181596 0 0 0 13.08594,-43.89844 A 81.181596,81.181596 0 0 0 655.69727,78.058594 81.181596,81.181596 0 0 0 621.40234,85.830078 216.22406,216.22406 0 0 0 520.6543,60.886719 Z"
         transform="matrix(0.83128851,0.16207044,-0.16207044,0.83128851,77.146385,233.83643)" />
    </g>
  </g>
</svg>
