<?xml version="1.0" encoding="UTF-8" standalone="no"?>
<!-- Created with Inkscape (http://www.inkscape.org/) -->

<svg
   version="1.1"
   id="svg824"
   width="1706.6667"
   height="1706.6667"
   viewBox="0 0 1706.6667 1706.6667"
   sodipodi:docname="ying_weh_sad.svg"
   inkscape:version="1.1 (c68e22c387, 2021-05-23)"
   inkscape:export-filename="D:\Pictures\yingmotes\ying.png"
   inkscape:export-xdpi="72"
   inkscape:export-ydpi="72"
   xmlns:inkscape="http://www.inkscape.org/namespaces/inkscape"
   xmlns:sodipodi="http://sodipodi.sourceforge.net/DTD/sodipodi-0.dtd"
   xmlns="http://www.w3.org/2000/svg"
   xmlns:svg="http://www.w3.org/2000/svg">
  <defs
     id="defs828">
    <rect
       x="44.156967"
       y="1227.5637"
       width="1655.8863"
       height="481.31095"
       id="rect41021" />
    <rect
       x="44.156967"
       y="1227.5637"
       width="1655.8864"
       height="481.31094"
       id="rect41021-6" />
  </defs>
  <sodipodi:namedview
     id="namedview826"
     pagecolor="#ffffff"
     bordercolor="#666666"
     borderopacity="1.0"
     inkscape:pageshadow="2"
     inkscape:pageopacity="0.0"
     inkscape:pagecheckerboard="0"
     showgrid="false"
     inkscape:zoom="0.22646483"
     inkscape:cx="569.62487"
     inkscape:cy="889.76288"
     inkscape:window-width="1920"
     inkscape:window-height="1001"
     inkscape:window-x="-9"
     inkscape:window-y="-9"
     inkscape:window-maximized="1"
     inkscape:current-layer="g12988" />
  <g
     id="layer1"
     inkscape:label="Ying"
     style="display:inline"
     inkscape:groupmode="layer">
    <rect
       style="display:inline;fill:#ffffff;fill-opacity:1;stroke:#b3b3b3;stroke-width:64;stroke-linecap:round;stroke-linejoin:round;stroke-miterlimit:4;stroke-dasharray:none;stroke-opacity:1;paint-order:fill markers stroke;stop-color:#000000"
       id="rect50850"
       width="1633.8079"
       height="1629.3921"
       x="36.429443"
       y="38.637329"
       ry="247.27902"
       rx="247.27902" />
    <path
       d="M 197.26064,1589.1726 95.716508,1229.3761 h 70.097072 l 64.82662,264.4013 h 3.33796 l 69.21866,-264.4013 h 63.77253 l 69.39435,264.5769 h 3.16228 l 64.82661,-264.5769 h 70.09708 l -101.54414,359.7965 h -64.29956 l -72.02959,-252.4549 h -2.81091 l -72.20525,252.4549 z"
       style="font-weight:600;font-size:373.333px;line-height:1.25;font-family:Inter;-inkscape-font-specification:'Inter Semi-Bold';text-align:center;text-anchor:middle;white-space:pre;fill:#1a1a1a;stroke-width:1.51651"
       id="path851" />
    <path
       d="m 708.42351,1594.4431 q -40.58251,0 -70.09707,-16.8655 -29.33888,-17.0411 -45.15025,-48.1369 -15.81138,-31.2712 -15.81138,-73.6107 0,-41.6366 15.81138,-73.0836 15.98705,-31.6228 44.6232,-49.1909 28.63615,-17.744 67.28616,-17.744 24.94683,0 47.08275,8.0814 22.3116,7.9057 39.35275,24.5955 17.21682,16.6898 27.05501,42.515 9.83818,25.6497 9.83818,61.1373 v 19.5007 h -221.1835 v -42.8663 h 160.22189 q -0.17568,-18.271 -7.90569,-32.5012 -7.73001,-14.4059 -21.60887,-22.663 -13.70319,-8.257 -31.97411,-8.257 -19.50069,0 -34.25797,9.4869 -14.75727,9.3111 -23.01433,24.5953 -8.08136,15.1086 -8.25704,33.2039 v 37.4202 q 0,23.5415 8.60841,40.4069 8.60841,16.6898 24.06842,25.6496 15.46,8.7841 36.19047,8.7841 13.87886,0 25.1225,-3.865 11.24366,-4.0407 19.5007,-11.7708 8.25706,-7.7299 12.47341,-19.1492 l 59.38049,6.6759 q -5.62182,23.5413 -21.43319,41.1096 -15.63569,17.3925 -40.05548,27.0549 -24.41978,9.4869 -55.86684,9.4869 z"
       style="font-weight:600;font-size:373.333px;line-height:1.25;font-family:Inter;-inkscape-font-specification:'Inter Semi-Bold';text-align:center;text-anchor:middle;white-space:pre;fill:#1a1a1a;stroke-width:1.51651"
       id="path853" />
    <path
       d="m 945.76934,1431.059 v 158.1136 H 882.1725 v -359.7965 h 62.19138 v 135.8021 h 3.16227 q 9.48683,-22.8386 29.33889,-36.0148 20.02773,-13.3519 50.94776,-13.3519 28.1091,0 49.0152,11.7708 20.9061,11.7707 32.3254,34.4336 11.5951,22.663 11.5951,55.3399 v 171.8168 h -63.5968 v -161.9787 q 0,-27.2306 -14.0546,-42.3393 -13.8789,-15.2843 -39.0014,-15.2843 -16.86544,0 -30.21726,7.3786 -13.17614,7.203 -20.73047,20.9062 -7.37863,13.7032 -7.37863,33.2039 z"
       style="font-weight:600;font-size:373.333px;line-height:1.25;font-family:Inter;-inkscape-font-specification:'Inter Semi-Bold';text-align:center;text-anchor:middle;white-space:pre;fill:#1a1a1a;stroke-width:1.51651"
       id="path855" />
    <path
       d="m 1224.5757,1593.0376 q -15.987,0 -27.4064,-11.2436 -11.4193,-11.2437 -11.2436,-27.4063 -0.1757,-15.8115 11.2436,-27.0551 11.4194,-11.2436 27.4064,-11.2436 15.46,0 26.8793,11.2436 11.595,11.2436 11.7707,27.0551 -0.1757,10.7165 -5.6217,19.5006 -5.2705,8.784 -14.0547,14.0545 -8.6084,5.0948 -18.9736,5.0948 z"
       style="font-weight:600;font-size:373.333px;line-height:1.25;font-family:Inter;-inkscape-font-specification:'Inter Semi-Bold';text-align:center;text-anchor:middle;white-space:pre;fill:#1a1a1a;stroke-width:1.51651"
       id="path857" />
    <path
       d="m 1368.2828,1593.0376 q -15.9871,0 -27.4064,-11.2436 -11.4193,-11.2437 -11.2437,-27.4063 -0.1756,-15.8115 11.2437,-27.0551 11.4193,-11.2436 27.4064,-11.2436 15.4599,0 26.8794,11.2436 11.595,11.2436 11.7706,27.0551 -0.1756,10.7165 -5.6218,19.5006 -5.2705,8.784 -14.0545,14.0545 -8.6085,5.0948 -18.9737,5.0948 z"
       style="font-weight:600;font-size:373.333px;line-height:1.25;font-family:Inter;-inkscape-font-specification:'Inter Semi-Bold';text-align:center;text-anchor:middle;white-space:pre;fill:#1a1a1a;stroke-width:1.51651"
       id="path859" />
    <path
       d="m 1511.9898,1593.0376 q -15.9869,0 -27.4063,-11.2436 -11.4193,-11.2437 -11.2436,-27.4063 -0.1757,-15.8115 11.2436,-27.0551 11.4194,-11.2436 27.4063,-11.2436 15.4601,0 26.8794,11.2436 11.595,11.2436 11.7707,27.0551 -0.1757,10.7165 -5.6218,19.5006 -5.2705,8.784 -14.0546,14.0545 -8.6084,5.0948 -18.9737,5.0948 z"
       style="font-weight:600;font-size:373.333px;line-height:1.25;font-family:Inter;-inkscape-font-specification:'Inter Semi-Bold';text-align:center;text-anchor:middle;white-space:pre;fill:#1a1a1a;stroke-width:1.51651"
       id="path861" />
    <path
       style="display:none;fill:#5ac800;fill-opacity:1;stroke:#5ac800;stroke-width:63.9999;stroke-linecap:round;stroke-linejoin:round;stroke-opacity:1;-inkscape-stroke:none;paint-order:fill markers stroke;stop-color:#000000"
       d="m 1106.2441,619.55612 c 44.1732,82.01825 115.6658,149.13498 123.979,250.71321 -18.3672,-11.93867 -34.8977,-9.18365 -49.5915,8.26528 56.7916,34.12921 36.5086,109.76012 50.9691,166.68299 l -61.9895,4.1326 c 41.6529,36.7611 51.0208,79.9792 56.4793,123.9791 l -308.53838,1.3776 c -15.21157,-25.8816 14.42188,-130.1291 41.32642,-141.6596 0,0 2.10832,-12.4883 -47.01524,-5.8992 17.93243,-154.28103 115.8607,-263.40896 194.3808,-407.59198 z"
       id="path3091"
       sodipodi:nodetypes="cccccccccc"
       inkscape:label="mane" />
    <path
       style="display:inline;opacity:1;fill:#5ac800;fill-opacity:1;stroke:#5ac800;stroke-width:63.9999;stroke-linecap:round;stroke-linejoin:round;stroke-miterlimit:4;stroke-dasharray:none;stroke-dashoffset:0;stroke-opacity:1;paint-order:fill markers stroke;stop-color:#000000"
       d="m 825.51395,915.16859 -40.42131,149.43641 39.19643,-15.9235 -31.84711,124.9386 286.62374,-1.5338 c 0,0 -79.61769,-67.0599 -93.09139,-123.4048 -13.47373,-56.3449 31.84719,-158.01063 31.84719,-158.01063 z"
       id="path3340"
       inkscape:label="neck"
       sodipodi:nodetypes="cccccscc" />
    <g
       id="g12988"
       inkscape:label="head"
       transform="matrix(0.62393108,0,0,0.62393108,296.36216,79.794739)"
       style="stroke-width:1.60274">
      <path
         style="display:inline;fill:none;fill-opacity:1;stroke:#5ac800;stroke-width:51.2877;stroke-linecap:round;stroke-linejoin:round;stroke-miterlimit:4;stroke-dasharray:none;stroke-dashoffset:0;stroke-opacity:1;paint-order:fill markers stroke;stop-color:#000000"
         d="m 214.24675,510.63421 c 146.95696,90.16728 298.17327,215.74277 401.65747,338.76616"
         id="path6280-0-6"
         sodipodi:nodetypes="cc"
         inkscape:label="eyelash left small" />
      <path
         style="display:inline;fill:none;fill-opacity:1;stroke:#5ac800;stroke-width:51.2877;stroke-linecap:round;stroke-linejoin:round;stroke-miterlimit:4;stroke-dasharray:none;stroke-dashoffset:0;stroke-opacity:1;paint-order:fill markers stroke;stop-color:#000000"
         d="M 136.3074,315.66998 C 386.36359,452.28922 592.00322,626.1296 711.50637,872.15241"
         id="path6280-3"
         sodipodi:nodetypes="cc"
         inkscape:label="eyelash left big" />
      <g
         id="g12997"
         inkscape:label="left eye"
         style="fill:#ffffff;stroke:#5ac800;stroke-width:1.60274;stroke-opacity:1">
        <path
           id="path1915-9"
           style="display:inline;fill:#ffffff;stroke:#5ac800;stroke-width:102.575;stroke-linecap:round;stroke-linejoin:round;stroke-opacity:1;paint-order:markers stroke fill;stop-color:#000000"
           inkscape:label="lefteye"
           d="m 792.61751,1048.7279 c 10e-6,120.7167 -155.86024,218.577 -276.57698,218.577 -120.71674,0 -160.57699,-55.8603 -160.57698,-176.577 0,-120.71673 97.86025,-260.57698 218.57698,-260.57698 120.71673,0 218.57698,97.86025 218.57698,218.57698 z"
           sodipodi:nodetypes="sssss" />
        <path
           style="opacity:1;fill:#ffffff;fill-opacity:1;stroke:#5ac800;stroke-width:76.9316;stroke-linecap:round;stroke-linejoin:round;stroke-miterlimit:4;stroke-dasharray:none;stroke-dashoffset:0;stroke-opacity:1;paint-order:fill markers stroke;stop-color:#000000"
           d="M 498.97372,962.62186 V 1132.6262"
           id="path2372"
           inkscape:label="left pupil" />
      </g>
      <path
         style="opacity:1;fill:#5ac800;fill-opacity:1;stroke:#5ac800;stroke-width:102.575;stroke-linecap:round;stroke-miterlimit:4;stroke-dasharray:none;stroke-dashoffset:0;stroke-opacity:1;paint-order:fill markers stroke;stop-color:#000000"
         d="m 838.98236,834.56666 c 0,0 -47.96997,-170.62298 -41.94911,-353.25573 6.62354,-200.91419 83.89823,-417.283329 152.34153,-421.699025 68.44332,-4.415697 178.83572,192.082805 207.53772,331.177245 28.702,139.09445 -4.4157,445.98536 -4.4157,445.98536 z"
         id="path1640"
         inkscape:label="left ear"
         sodipodi:nodetypes="cssscc" />
      <path
         id="path1148"
         style="display:inline;opacity:1;fill:#5ac800;fill-opacity:1;stroke:#5ac800;stroke-width:102.575;stroke-linecap:round;stroke-linejoin:round;stroke-miterlimit:4;stroke-dasharray:10.2575, 10.2575;stroke-dashoffset:0;stroke-opacity:1;paint-order:fill markers stroke;stop-color:#000000"
         inkscape:label="head"
         d="m 1299.0547,1153.5586 c 0,0 -0.1078,-10.8206 -0.9512,-28.418 -0.4217,-8.7987 -1.0259,-19.2912 -1.8945,-30.9726 -0.8686,-11.6814 -1.9997,-24.5525 -3.4727,-38.1055 -1.4729,-13.553 -3.2888,-27.7877 -5.5234,-42.2012 -2.2347,-14.41345 -4.8892,-29.0047 -8.043,-43.26755 -1.5769,-7.13143 -3.279,-14.18175 -5.1152,-21.08594 -1.8362,-6.90419 -3.8068,-13.66232 -5.9219,-20.21289 -2.1151,-6.55056 -4.3733,-12.89234 -6.7871,-18.96289 -2.4138,-6.07055 -4.9828,-11.86984 -7.7148,-17.33398 -2.7321,-5.46415 -5.9346,-10.78574 -9.5391,-15.96094 -3.6045,-5.1752 -7.6114,-10.20474 -11.9492,-15.08399 -4.3379,-4.87924 -9.0074,-9.60926 -13.9395,-14.18554 -4.9321,-4.57628 -10.1264,-8.99932 -15.5136,-13.26563 -5.3873,-4.2663 -10.9666,-8.37489 -16.67,-12.32422 -5.7033,-3.94932 -11.5298,-7.73794 -17.4101,-11.36328 -11.7607,-7.25067 -23.7371,-13.84709 -35.3711,-19.75976 -11.634,-5.91267 -22.9257,-11.14156 -33.3203,-15.66016 -10.3946,-4.5186 -19.8912,-8.32606 -27.9336,-11.39453 -16.085,-6.13693 -26.3535,-9.31836 -26.3535,-9.31836 -106.83135,-15.98813 -232.17461,6.96944 -312.62504,60.01367 -101.26734,66.76968 -136.88727,176.62945 -198.70703,211.95509 -61.81975,35.3255 -225.20029,77.273 -280.39649,83.8965 -55.19621,6.6235 -183.250354,6.6246 -161.171871,123.6406 22.078481,117.016 112.599211,282.6048 377.541011,247.2793 264.94179,-35.3256 313.51517,-44.1575 536.50782,-88.3145 22.8973,-4.5341 53.8481,-18.3195 86.8281,-36.9472 l 213.8711,-11.4278 -92.9258,-75.2558 c 5.3578,-4.8405 10.5999,-9.7184 15.6328,-14.6367 l 142.0762,-2.375 -84.8808,-69.668 c 3.4806,-6.5537 6.4805,-13.0207 8.6269,-19.3066 1.0523,-3.0817 2.0328,-6.6268 3.0469,-9.9766 z" />
      <path
         style="display:none;fill:#5ac800;fill-opacity:1;stroke:#5ac800;stroke-width:102.575;stroke-linecap:round;stroke-linejoin:round;stroke-opacity:1;-inkscape-stroke:none;paint-order:fill markers stroke;stop-color:#000000"
         d="M 880.93148,744.0449 C 763.91552,771.643 622.61323,916.25706 622.61323,916.25706 620.95257,833.21142 611.27974,749.4374 735.2135,677.80944 c -124.69479,-7.45678 -249.2876,-15.1175 -408.45194,46.36482 0,0 303.22641,-263.62224 490.14233,-280.39675 172.2122,-15.45493 264.94181,37.53343 264.94181,37.53343 -0.1923,-45.68323 -31.4577,-88.25915 -90.52179,-128.0552 0,0 295.85169,97.14532 333.38509,194.29065 37.5334,97.14533 28.702,167.79647 28.702,167.79647 l -243.7525,34.92308 c 0,0 -111.71105,-33.81914 -228.72702,-6.22104 z"
         id="path1637"
         sodipodi:nodetypes="zcccsccsccz"
         inkscape:label="top hair" />
      <path
         id="path13483"
         style="display:inline;opacity:1;fill:#5ac800;fill-opacity:1;stroke:#5ac800;stroke-width:102.575;stroke-linecap:round;stroke-linejoin:round;stroke-miterlimit:4;stroke-dasharray:10.2575, 10.2575;stroke-dashoffset:0;stroke-opacity:1;paint-order:fill markers stroke;stop-color:#000000"
         inkscape:label="right ear"
         d="m 1432.8945,59.611328 c -79.4826,-10e-7 -239.79,284.870282 -267.1504,370.919922 -24.3601,76.61362 -98.9266,269.49096 -120.1132,324.15039 0,0 -71.23826,145.71856 41.8085,310.68966 59.2785,86.5062 211.6153,88.1873 211.6153,88.1873 C 1395.917,1036.0259 1576.365,788.55462 1585.2344,565.20898 1597.3776,259.42199 1484.4372,59.611328 1432.8945,59.611328 Z"
         sodipodi:nodetypes="sscscss" />
      <g
         id="g13003"
         inkscape:label="face"
         style="stroke-width:1.60274">
        <path
           style="opacity:1;fill:none;fill-opacity:1;stroke:#ffffff;stroke-width:51.2877;stroke-linecap:round;stroke-linejoin:round;stroke-miterlimit:4;stroke-dasharray:none;stroke-dashoffset:0;stroke-opacity:1;paint-order:fill markers stroke;stop-color:#000000"
           d="m 83.898236,1201.0695 68.443294,6.6235 -37.53342,39.7413"
           id="path2163"
           inkscape:label="left nostril" />
        <path
           style="opacity:1;fill:none;fill-opacity:1;stroke:#ffffff;stroke-width:51.2877;stroke-linecap:round;stroke-linejoin:round;stroke-miterlimit:4;stroke-dasharray:none;stroke-dashoffset:0;stroke-opacity:1;paint-order:fill markers stroke;stop-color:#000000"
           d="m 401.82839,1251.85 -59.6119,-44.157 121.43166,-17.6628"
           id="path2198"
           inkscape:label="right nostril" />
        <path
           style="opacity:1;fill:none;fill-opacity:1;stroke:#ffffff;stroke-width:102.575;stroke-linecap:round;stroke-linejoin:round;stroke-miterlimit:4;stroke-dasharray:none;stroke-dashoffset:0;stroke-opacity:1;paint-order:fill markers stroke;stop-color:#000000"
           d="m 132.4709,1346.7875 90.52178,-72.859 c 0,0 146.93476,106.6315 222.99268,101.561 66.23545,-4.4157 119.2238,-37.5334 119.2238,-37.5334"
           id="path2200"
           sodipodi:nodetypes="ccsc"
           inkscape:label="mouf" />
        <path
           style="opacity:1;fill:#5ac800;fill-opacity:1;stroke:#ffffff;stroke-width:102.575;stroke-linecap:round;stroke-linejoin:round;stroke-miterlimit:4;stroke-dasharray:none;stroke-dashoffset:0;stroke-opacity:1;paint-order:markers stroke fill;stop-color:#000000"
           d="m 222.99268,1530.0389 -90.52178,-183.2514 90.52178,-72.859 103.76887,66.2354 z"
           id="path2202"
           sodipodi:nodetypes="ccccc"
           inkscape:label="toof" />
      </g>
      <g
         id="g12993"
         inkscape:label="right eye"
         style="fill:#ffffff;stroke:#5ac800;stroke-width:1.60274;stroke-opacity:1">
        <path
           style="opacity:1;fill:#ffffff;fill-opacity:1;stroke:#5ac800;stroke-width:102.575;stroke-linecap:round;stroke-linejoin:round;stroke-miterlimit:4;stroke-dasharray:none;stroke-dashoffset:0;stroke-opacity:1;paint-order:fill markers stroke;stop-color:#000000"
           d="m 661.97569,1226.0485 53.36716,-115.5008 86.53085,168.711 z"
           id="path7852"
           inkscape:label="eyenub"
           sodipodi:nodetypes="cccc" />
        <path
           id="path1915"
           style="opacity:1;fill:#ffffff;stroke:#000000;stroke-width:102.575;stroke-linecap:round;stroke-linejoin:round;stroke-opacity:0;paint-order:fill markers stroke;stop-color:#000000"
           inkscape:label="righteye"
           d="m 1150.289,1075.2222 c 0,120.7167 -151.8603,218.5769 -272.57702,218.5769 -120.71671,0 -164.57695,-71.8602 -164.57699,-192.5769 -2e-5,-120.71675 97.86024,-244.57702 218.57699,-244.57701 120.71672,-2e-5 218.57702,97.86025 218.57702,218.57701 z"
           sodipodi:nodetypes="sssss" />
        <path
           style="opacity:1;fill:#ffffff;fill-opacity:1;stroke:#5ac800;stroke-width:76.9316;stroke-linecap:round;stroke-linejoin:round;stroke-miterlimit:4;stroke-dasharray:none;stroke-dashoffset:0;stroke-opacity:1;paint-order:fill markers stroke;stop-color:#000000"
           d="m 841.19021,982.4925 v 189.8749"
           id="path2350"
           inkscape:label="right pupil" />
      </g>
      <path
         style="opacity:1;fill:none;fill-opacity:1;stroke:#5ac800;stroke-width:51.2877;stroke-linecap:round;stroke-linejoin:round;stroke-miterlimit:4;stroke-dasharray:none;stroke-dashoffset:0;stroke-opacity:1;paint-order:fill markers stroke;stop-color:#000000"
         d="M 422.09799,125.10137 C 599.10012,348.40199 720.6887,588.66091 734.81454,861.80682"
         id="path6280"
         sodipodi:nodetypes="cc"
         inkscape:label="eyelash right big" />
      <path
         style="display:inline;fill:none;fill-opacity:1;stroke:#5ac800;stroke-width:51.2877;stroke-linecap:round;stroke-linejoin:round;stroke-miterlimit:4;stroke-dasharray:none;stroke-dashoffset:0;stroke-opacity:1;paint-order:fill markers stroke;stop-color:#000000"
         d="m 711.56797,296.29281 c 57.33566,162.60107 95.67474,355.38513 98.55015,516.11928"
         id="path6280-0"
         sodipodi:nodetypes="cc"
         inkscape:label="eyelash right small" />
    </g>
    <path
       id="rect4693"
       style="fill:#5ac800;fill-opacity:1;stroke:#ffffff;stroke-width:64;stroke-linecap:round;stroke-linejoin:round;stroke-miterlimit:4;stroke-dasharray:none;stroke-opacity:1;paint-order:fill markers stroke;stop-color:#000000"
       d="m 1107.5601,803.93095 v 108.344 H 999.2162 v 173.82675 h 108.3439 v 108.3439 h 173.8267 v -108.3439 h 108.3441 V 912.27495 h -108.3441 v -108.344 z" />
  </g>
</svg>
