<?xml version="1.0" encoding="UTF-8" standalone="no"?>
<!-- Created with Inkscape (http://www.inkscape.org/) -->

<svg
   version="1.1"
   id="svg824"
   width="1706.6667"
   height="1706.6667"
   viewBox="0 0 1706.6667 1706.6667"
   sodipodi:docname="ying_brush.svg"
   inkscape:version="1.3.2 (091e20e, 2023-11-25, custom)"
   inkscape:export-filename="D:\Pictures\yingmotes\ying_scritch.png"
   inkscape:export-xdpi="72"
   inkscape:export-ydpi="72"
   xmlns:inkscape="http://www.inkscape.org/namespaces/inkscape"
   xmlns:sodipodi="http://sodipodi.sourceforge.net/DTD/sodipodi-0.dtd"
   xmlns="http://www.w3.org/2000/svg"
   xmlns:svg="http://www.w3.org/2000/svg">
  <defs
     id="defs828" />
  <sodipodi:namedview
     id="namedview826"
     pagecolor="#ffffff"
     bordercolor="#666666"
     borderopacity="1.0"
     inkscape:pageshadow="2"
     inkscape:pageopacity="0.0"
     inkscape:pagecheckerboard="0"
     showgrid="false"
     inkscape:zoom="0.36945475"
     inkscape:cx="753.81355"
     inkscape:cy="964.93548"
     inkscape:window-width="1920"
     inkscape:window-height="1001"
     inkscape:window-x="-9"
     inkscape:window-y="-9"
     inkscape:window-maximized="1"
     inkscape:current-layer="g12988"
     showguides="false"
     inkscape:showpageshadow="2"
     inkscape:deskcolor="#d1d1d1">
    <inkscape:grid
       type="xygrid"
       id="grid1300"
       originx="0"
       originy="0"
       spacingy="1"
       spacingx="1"
       units="px"
       visible="false" />
  </sodipodi:namedview>
  <g
     id="layer1"
     inkscape:label="Ying"
     style="display:inline"
     inkscape:groupmode="layer">
    <path
       style="display:none;fill:#123456;stroke:#123456;stroke-width:64;stroke-linecap:round;stroke-linejoin:round;-inkscape-stroke:none;paint-order:fill markers stroke;stop-color:#000000"
       d="m 1298.031,865.09775 c 70.7982,131.45402 185.3824,239.02475 198.7064,401.82835 -29.438,-19.1346 -55.9321,-14.719 -79.4825,13.2471 91.0222,54.7003 58.5139,175.917 81.6903,267.1496 l -99.3531,6.6236 c 66.7588,58.9185 81.773,128.1858 90.5218,198.7063 l -494.50725,2.2079 c -24.3802,-41.4813 23.11455,-208.5632 66.23555,-227.0436 0,0 3.3791,-20.0154 -75.35325,-9.4549 C 1015.23,1271.0896 1172.1837,1096.1858 1298.031,865.09775 Z"
       id="path3091"
       sodipodi:nodetypes="cccccccccc"
       inkscape:label="mane" />
    <path
       style="opacity:1;fill:#ffcb4c;fill-opacity:1;stroke:#ffcb4c;stroke-width:64;stroke-linecap:round;stroke-linejoin:round;stroke-miterlimit:4;stroke-dasharray:none;stroke-dashoffset:0;stroke-opacity:1;paint-order:fill markers stroke;stop-color:#000000"
       d="m 885.0458,1465.0695 -64.7849,239.5079 62.82173,-25.5214 -51.04266,200.2443 459.38383,-15.7054 c 0,0 -127.6066,-94.2326 -149.2016,-184.5389 -21.5949,-90.3062 51.0427,-253.25 51.0427,-253.25 z"
       id="path3340"
       inkscape:label="neck" />
    <g
       id="g12988"
       inkscape:label="head"
       transform="rotate(-4.9650404,1815.8621,1040.9021)">
      <path
         style="display:inline;fill:none;fill-opacity:1;stroke:#f19020;stroke-width:32;stroke-linecap:round;stroke-linejoin:round;stroke-miterlimit:4;stroke-dasharray:none;stroke-dashoffset:0;stroke-opacity:1;paint-order:fill markers stroke;stop-color:#000000"
         d="M 206.04942,553.69361 C 359.57534,632.15556 520.10219,745.58707 632.84304,860.1874"
         id="path6280-0-6"
         sodipodi:nodetypes="cc"
         inkscape:label="eyelash left small"
         inkscape:transform-center-x="176.9307"
         inkscape:transform-center-y="-180.36966" />
      <path
         style="display:inline;fill:none;fill-opacity:1;stroke:#f19020;stroke-width:32;stroke-linecap:round;stroke-linejoin:round;stroke-miterlimit:4;stroke-dasharray:none;stroke-dashoffset:0;stroke-opacity:1;paint-order:fill markers stroke;stop-color:#000000"
         d="M 214.16336,309.7307 C 453.69957,464.0528 646.24703,652.29099 747.66977,906.30212"
         id="path6280-3"
         sodipodi:nodetypes="cc"
         inkscape:label="eyelash left big"
         inkscape:transform-center-x="186.77844"
         inkscape:transform-center-y="-317.18768" />
      <g
         id="g12997"
         inkscape:label="left eye"
         style="fill:#d19020;fill-opacity:1"
         transform="translate(-47.533635,-12.228763)">
        <path
           id="path1915-9"
           style="display:inline;fill:#d19020;fill-opacity:1;stroke:#65471b;stroke-width:64;stroke-linecap:round;stroke-linejoin:round;paint-order:fill markers stroke;stop-color:#000000"
           inkscape:label="lefteye"
           d="m 869.11322,1070.7592 c 1e-5,120.7167 -155.86024,218.577 -276.57698,218.577 -120.71674,0 -160.57699,-55.8603 -160.57698,-176.577 0,-120.71672 97.86025,-260.57697 218.57698,-260.57697 120.71673,0 218.57698,97.86025 218.57698,218.57697 z"
           sodipodi:nodetypes="sssss" />
      </g>
      <path
         style="opacity:1;fill:#f19020;fill-opacity:1;stroke:#f19020;stroke-width:64;stroke-linecap:round;stroke-miterlimit:4;stroke-dasharray:none;stroke-dashoffset:0;stroke-opacity:1;paint-order:fill markers stroke;stop-color:#000000"
         d="m 823.58111,785.50448 c 0,0 43.38764,-171.84538 139.57423,-327.21305 105.81486,-170.91988 280.59126,-320.05131 342.13996,-289.79006 61.5486,30.26125 59.4014,255.63548 15.0096,390.54447 -44.3918,134.90901 -225.9653,384.52843 -225.9653,384.52843 z"
         id="path1640"
         inkscape:label="left ear"
         sodipodi:nodetypes="cssscc"
         inkscape:transform-center-x="-75.882027"
         inkscape:transform-center-y="-248.48464" />
      <path
         id="path1148"
         style="display:inline;opacity:1;fill:#ffcb4c;stroke:#ffcb4c;stroke-width:64;stroke-linecap:round;stroke-linejoin:round;stroke-miterlimit:4;stroke-dasharray:6.4, 6.4;stroke-dashoffset:0;stroke-opacity:1;paint-order:fill markers stroke;stop-color:#000000"
         inkscape:label="head"
         d="m 1299.0547,1153.5586 c 0,0 -0.1078,-10.8206 -0.9512,-28.418 -0.4217,-8.7987 -1.0259,-19.2912 -1.8945,-30.9726 -0.8686,-11.6814 -1.9997,-24.5525 -3.4727,-38.1055 -1.4729,-13.553 -3.2888,-27.7877 -5.5234,-42.2012 -2.2347,-14.41345 -4.8892,-29.0047 -8.043,-43.26755 -1.5769,-7.13143 -3.279,-14.18175 -5.1152,-21.08594 -1.8362,-6.90419 -3.8068,-13.66232 -5.9219,-20.21289 -2.1151,-6.55056 -4.3733,-12.89234 -6.7871,-18.96289 -2.4138,-6.07055 -4.9828,-11.86984 -7.7148,-17.33398 -2.7321,-5.46415 -5.9346,-10.78574 -9.5391,-15.96094 -3.6045,-5.1752 -7.6114,-10.20474 -11.9492,-15.08399 -4.3379,-4.87924 -9.0074,-9.60926 -13.9395,-14.18554 -4.9321,-4.57628 -10.1264,-8.99932 -15.5136,-13.26563 -5.3873,-4.2663 -10.9666,-8.37489 -16.67,-12.32422 -5.7033,-3.94932 -11.5298,-7.73794 -17.4101,-11.36328 -11.7607,-7.25067 -23.7371,-13.84709 -35.3711,-19.75976 -11.634,-5.91267 -22.9257,-11.14156 -33.3203,-15.66016 -10.3946,-4.5186 -19.8912,-8.32606 -27.9336,-11.39453 -16.085,-6.13693 -26.3535,-9.31836 -26.3535,-9.31836 -106.83135,-15.98813 -232.17461,6.96944 -312.62504,60.01367 -101.26734,66.76968 -136.88727,176.62945 -198.70703,211.95509 -61.81975,35.3255 -225.20029,77.273 -280.39649,83.8965 -55.19621,6.6235 -183.250354,6.6246 -161.171871,123.6406 22.078481,117.016 112.599211,282.6048 377.541011,247.2793 264.94179,-35.3256 313.51517,-44.1575 536.50782,-88.3145 22.8973,-4.5341 53.8481,-18.3195 86.8281,-36.9472 l 213.8711,-11.4278 -92.9258,-75.2558 c 5.3578,-4.8405 10.5999,-9.7184 15.6328,-14.6367 l 142.0762,-2.375 -84.8808,-69.668 c 3.4806,-6.5537 6.4805,-13.0207 8.6269,-19.3066 1.0523,-3.0817 2.0328,-6.6268 3.0469,-9.9766 z" />
      <path
         style="display:none;fill:#123456;stroke:#123456;stroke-width:64;stroke-linecap:round;stroke-linejoin:round;-inkscape-stroke:none;paint-order:fill markers stroke;stop-color:#000000"
         d="M 880.93148,744.0449 C 763.91552,771.643 622.61323,916.25706 622.61323,916.25706 620.95257,833.21142 611.27974,749.4374 735.2135,677.80944 c -124.69479,-7.45678 -249.2876,-15.1175 -408.45194,46.36482 0,0 303.22641,-263.62224 490.14233,-280.39675 172.2122,-15.45493 264.94181,37.53343 264.94181,37.53343 -0.1923,-45.68323 -31.4577,-88.25915 -90.52179,-128.0552 0,0 295.85169,97.14532 333.38509,194.29065 37.5334,97.14533 28.702,167.79647 28.702,167.79647 l -243.7525,34.92308 c 0,0 -111.71105,-33.81914 -228.72702,-6.22104 z"
         id="path1637"
         sodipodi:nodetypes="zcccsccsccz"
         inkscape:label="top hair" />
      <g
         id="g3"
         transform="rotate(88.87827,1231.9055,442.00864)"
         style="display:inline">
        <path
           id="path2"
           style="display:inline;opacity:1;fill:#ffffff;fill-opacity:1;stroke:#ffffff;stroke-width:128;stroke-linecap:round;stroke-linejoin:round;stroke-dasharray:none;stroke-dashoffset:1571.16;stroke-opacity:1;paint-order:stroke fill markers"
           d="m 1209.5539,498.71889 c 5.0871,-4.38955 10.7077,-7.6969 16.8589,-9.82103 13.0114,-4.49318 27.4338,-3.27724 42.6336,2.76427 3.502,-1.01471 10.7002,-3.08592 12.1007,-3.56961 65.6139,-22.65841 164.2322,90.52312 220.2697,252.79502 52.1217,150.93336 49.0164,291.11226 -4.466,328.20706 l 121.769,352.6149 c -41.5512,37.7659 -83.5289,35.8891 -125.4066,43.3072 l -131.6243,-381.1553 c -54.4096,-44.5141 -109.9993,-136.74039 -147.014,-243.89842 -53.5874,-155.17687 -54.2958,-298.81227 -5.121,-341.24409 z" />
        <g
           id="layer2"
           inkscape:label="hand"
           transform="rotate(-46.021319,2542.3772,412.13887)"
           style="display:inline">
          <path
             id="rect21082"
             style="color:#000000;fill:#007c8d;fill-opacity:1;stroke:#ffffff;stroke-width:128;stroke-linecap:round;stroke-linejoin:round;stroke-miterlimit:4;stroke-dasharray:none;paint-order:stroke fill markers"
             d="m 1284.1833,206.25962 c -26.236,-7.71826 -19.3062,-13.35914 -48.7483,-15.41297 9.4788,0.7476 37.9883,-8.14724 45.7803,-7.09908 l -32.7854,-53.31782 c -24.0595,-3.23655 -55.9256,-27.27839 -83.832,-27.78228 -27.9063,-0.504 -49.6228,-0.49557 -71.929,2.14146 -3.3703,0.39843 -6.5854,0.84869 -9.7352,1.3355 L 857.01659,25.157473 C 830.80882,8.6612022 797.16144,10.574588 781.85808,29.43142 l -41.27777,50.877996 c -15.4814,19.085278 -6.22437,48.147374 20.55129,64.520004 l 222.82905,85.04425 c 2.51757,3.91991 5.42787,7.62176 8.66397,11.02047 5.9823,17.23485 5.8031,53.48538 14.73868,65.37949 20.4689,27.24585 43.6913,43.60173 43.6913,43.60173 2.4319,1.74546 4.9616,3.28375 7.5548,4.59404 0.9047,0.76949 -0.9414,-0.71049 0,0 56.4794,28.05008 87.7198,40.22463 142.2771,70.94825 54.5167,28.66255 70.6871,-57.26913 24.6465,-67.33936 75.0025,22.42734 87.0344,-57.939 19.6054,-78.30298 95.0377,32.79293 93.3678,-61.56213 39.0449,-73.51569 z"
             sodipodi:nodetypes="ccccsscccccccsccccccc" />
        </g>
        <path
           id="ellipse1"
           style="display:inline;opacity:1;fill:#004049;stroke:none;stroke-width:164.475;stroke-linecap:round;stroke-linejoin:round;stroke-dashoffset:1571.16;paint-order:stroke fill markers"
           d="m 1484.077,1075.7328 c 65.6139,-22.6582 73.3771,-172.57406 17.3398,-334.84632 -56.0375,-162.27208 -154.6553,-275.45145 -220.2692,-252.79306 -8.9408,3.0876 -68.8401,18.58989 -75.6174,26.11237 -42.9603,47.6834 9.8761,168.57359 58.2776,308.73413 40.4073,117.01068 82.3636,230.95738 138.712,264.39338 21.7962,12.9334 63.2559,-5.2805 81.5572,-11.6005 z"
           sodipodi:nodetypes="sssssss" />
        <path
           id="path1"
           style="opacity:1;fill:#007c8d;fill-opacity:1;stroke:none;stroke-width:168.953;stroke-linecap:round;stroke-linejoin:round;stroke-dasharray:none;stroke-dashoffset:1571.16;stroke-opacity:1;paint-order:stroke fill markers"
           d="m 1214.6735,839.96286 c -59.1309,-171.22979 -53.8749,-328.40725 11.7397,-351.06493 65.6135,-22.65827 166.7385,97.78389 225.8685,269.01168 36.8624,107.00055 49.9526,213.63398 34.6325,282.11669 l 131.8064,381.6833 c -41.5512,37.7661 -83.529,35.8885 -125.4067,43.3067 L 1361.6896,1083.861 c -54.4097,-44.514 -110.0014,-136.74002 -147.0161,-243.89814 z"
           sodipodi:nodetypes="cccccccc" />
      </g>
      <path
         id="path13483"
         style="display:inline;opacity:1;fill:#ffcb4c;stroke:#ffcb4c;stroke-width:64;stroke-linecap:round;stroke-linejoin:round;stroke-miterlimit:4;stroke-dasharray:6.4, 6.4;stroke-dashoffset:0;stroke-opacity:1;paint-order:fill markers stroke;stop-color:#000000"
         inkscape:label="right ear"
         d="m 1522.4709,142.84309 c -79.1173,-7.61183 -265.9691,260.59695 -301.4444,343.63086 -31.5853,73.92859 -124.2804,258.77839 -150.6042,311.15761 -101.1027,357.39074 105.6674,365.01414 214.0598,421.31334 107.6728,-107.7163 310.9911,-336.76918 341.2088,-558.23889 41.3718,-303.21857 -51.9143,-512.92686 -103.22,-517.86292 z"
         sodipodi:nodetypes="ssccss"
         inkscape:transform-center-x="-124.55412"
         inkscape:transform-center-y="-351.15445" />
      <g
         id="g13003"
         inkscape:label="face">
        <path
           style="opacity:1;fill:none;fill-opacity:1;stroke:#65471b;stroke-width:64;stroke-linecap:round;stroke-linejoin:round;stroke-miterlimit:4;stroke-dasharray:none;stroke-dashoffset:0;stroke-opacity:1;paint-order:fill markers stroke;stop-color:#000000"
           d="m 83.898236,1201.0695 68.443294,6.6235 -37.53342,39.7413"
           id="path2163"
           inkscape:label="left nostril" />
        <path
           style="opacity:1;fill:none;fill-opacity:1;stroke:#65471b;stroke-width:64;stroke-linecap:round;stroke-linejoin:round;stroke-miterlimit:4;stroke-dasharray:none;stroke-dashoffset:0;stroke-opacity:1;paint-order:fill markers stroke;stop-color:#000000"
           d="m 401.82839,1251.85 -59.6119,-44.157 121.43166,-17.6628"
           id="path2198"
           inkscape:label="right nostril" />
        <path
           style="opacity:1;fill:none;fill-opacity:1;stroke:#65471b;stroke-width:64;stroke-linecap:round;stroke-linejoin:round;stroke-miterlimit:4;stroke-dasharray:none;stroke-dashoffset:0;stroke-opacity:1;paint-order:fill markers stroke;stop-color:#000000"
           d="m 132.4709,1346.7875 90.52178,-72.859 c 0,0 227.99027,157.1936 304.17428,154.6413 131.8052,-4.4157 125.46854,-93.7361 125.46854,-93.7361"
           id="path2200"
           sodipodi:nodetypes="ccsc"
           inkscape:label="mouf" />
        <path
           style="opacity:1;fill:#ffffff;fill-opacity:1;stroke:#65471b;stroke-width:64;stroke-linecap:round;stroke-linejoin:round;stroke-miterlimit:4;stroke-dasharray:none;stroke-dashoffset:0;stroke-opacity:1;paint-order:fill markers stroke;stop-color:#000000"
           d="m 222.99268,1530.0389 -90.52178,-183.2514 90.52178,-72.859 103.76887,66.2354 z"
           id="path2202"
           sodipodi:nodetypes="ccccc"
           inkscape:label="toof" />
      </g>
      <path
         style="opacity:1;fill:none;fill-opacity:1;stroke:#ffcb4c;stroke-width:32;stroke-linecap:round;stroke-linejoin:round;stroke-miterlimit:4;stroke-dasharray:none;stroke-dashoffset:0;stroke-opacity:1;paint-order:fill markers stroke;stop-color:#000000"
         d="M 348.06639,170.59586 C 555.16776,366.30467 709.84839,586.718 762.87021,855.0404"
         id="path6280"
         sodipodi:nodetypes="cc"
         inkscape:label="eyelash right big"
         inkscape:transform-center-x="128.00583"
         inkscape:transform-center-y="-353.79851" />
      <path
         style="display:inline;fill:none;fill-opacity:1;stroke:#ffcb4c;stroke-width:32;stroke-linecap:round;stroke-linejoin:round;stroke-miterlimit:4;stroke-dasharray:none;stroke-dashoffset:0;stroke-opacity:1;paint-order:fill markers stroke;stop-color:#000000"
         d="M 653.82603,321.64676 C 742.29711,469.63107 818.14094,650.96857 852.8649,807.93348"
         id="path6280-0"
         sodipodi:nodetypes="cc"
         inkscape:label="eyelash right small"
         inkscape:transform-center-x="51.895383"
         inkscape:transform-center-y="-238.23839" />
      <g
         id="g12993"
         inkscape:label="right eye"
         transform="rotate(-0.1862072,-3778.7265,-7002.4747)"
         style="display:inline;fill:#d19020;fill-opacity:1">
        <path
           style="opacity:1;fill:#d19020;fill-opacity:1;stroke:#65471b;stroke-width:64;stroke-linecap:round;stroke-linejoin:round;stroke-miterlimit:4;stroke-dasharray:none;stroke-dashoffset:0;stroke-opacity:1;paint-order:fill markers stroke;stop-color:#000000"
           d="m 661.97569,1226.0485 53.36716,-115.5008 86.53085,168.711 z"
           id="path7852"
           inkscape:label="eyenub"
           sodipodi:nodetypes="cccc" />
        <path
           id="path1915"
           style="opacity:1;fill:#d19020;fill-opacity:1;stroke:#65471b;stroke-width:64;stroke-linecap:round;stroke-linejoin:round;paint-order:fill markers stroke;stop-color:#000000"
           inkscape:label="righteye"
           d="m 1150.289,1075.2222 c 0,120.7167 -151.8603,218.5769 -272.57702,218.5769 -120.71671,0 -164.57695,-71.8602 -164.57699,-192.5769 -2e-5,-120.71675 97.86024,-244.57702 218.57699,-244.57701 120.71672,-2e-5 218.57702,97.86025 218.57702,218.57701 z"
           sodipodi:nodetypes="sssss" />
        <path
           id="path1749"
           style="display:inline;fill:#d19020;fill-opacity:1;stroke:#65471b;stroke-width:64;stroke-linecap:round;stroke-linejoin:round;-inkscape-stroke:none;paint-order:fill markers stroke;stop-color:#000000"
           d="m 925.78349,1058.1404 c -111.90142,23.5165 -174.60086,104.1948 -204.10291,151.6744 39.96804,93.9647 177.10005,86.8811 225.00615,74.9035 60.34347,-15.0872 171.34587,-89.0116 196.72947,-172.4815 -38.4856,-7.457 -105.7313,-77.6129 -217.63271,-54.0964 z"
           inkscape:label="right lid"
           sodipodi:nodetypes="zcscz" />
      </g>
    </g>
  </g>
</svg>
