<?xml version="1.0" encoding="UTF-8" standalone="no"?>
<!-- Created with Inkscape (http://www.inkscape.org/) -->

<svg
   version="1.1"
   id="svg824"
   width="1706.6667"
   height="1706.6667"
   viewBox="0 0 1706.6667 1706.6667"
   sodipodi:docname="ying_virtual_boy.svg"
   inkscape:version="1.1 (c68e22c387, 2021-05-23)"
   inkscape:export-filename="D:\Pictures\yingmotes\ying_nom_pizza.png"
   inkscape:export-xdpi="72"
   inkscape:export-ydpi="72"
   xmlns:inkscape="http://www.inkscape.org/namespaces/inkscape"
   xmlns:sodipodi="http://sodipodi.sourceforge.net/DTD/sodipodi-0.dtd"
   xmlns="http://www.w3.org/2000/svg"
   xmlns:svg="http://www.w3.org/2000/svg">
  <defs
     id="defs828">
    <filter
       inkscape:collect="always"
       style="color-interpolation-filters:sRGB"
       id="filter2722"
       x="-0.25943299"
       y="-0.26785685"
       width="1.5191683"
       height="1.5356781">
      <feGaussianBlur
         inkscape:collect="always"
         stdDeviation="65.55669"
         id="feGaussianBlur2724" />
    </filter>
    <filter
       inkscape:collect="always"
       style="color-interpolation-filters:sRGB"
       id="filter2861"
       x="-0.15916771"
       y="-0.23170217"
       width="1.3183552"
       height="1.463404">
      <feGaussianBlur
         inkscape:collect="always"
         stdDeviation="55.271986"
         id="feGaussianBlur2863" />
    </filter>
  </defs>
  <sodipodi:namedview
     id="namedview826"
     pagecolor="#ffffff"
     bordercolor="#666666"
     borderopacity="1.0"
     inkscape:pageshadow="2"
     inkscape:pageopacity="0.0"
     inkscape:pagecheckerboard="0"
     showgrid="false"
     inkscape:zoom="0.45292965"
     inkscape:cx="1039.8966"
     inkscape:cy="824.63137"
     inkscape:window-width="1920"
     inkscape:window-height="1001"
     inkscape:window-x="-9"
     inkscape:window-y="-9"
     inkscape:window-maximized="1"
     inkscape:current-layer="g12988" />
  <g
     id="layer1"
     inkscape:label="Ying"
     style="display:inline"
     inkscape:groupmode="layer">
    <path
       style="display:none;fill:#123456;stroke:#123456;stroke-width:64;stroke-linecap:round;stroke-linejoin:round;-inkscape-stroke:none;paint-order:fill markers stroke;stop-color:#000000"
       d="m 1298.031,865.09775 c 70.7982,131.45402 185.3824,239.02475 198.7064,401.82835 -29.438,-19.1346 -55.9321,-14.719 -79.4825,13.2471 91.0222,54.7003 58.5139,175.917 81.6903,267.1496 l -99.3531,6.6236 c 66.7588,58.9185 81.773,128.1858 90.5218,198.7063 l -494.50725,2.2079 c -24.3802,-41.4813 23.11455,-208.5632 66.23555,-227.0436 0,0 3.3791,-20.0154 -75.35325,-9.4549 C 1015.23,1271.0896 1172.1837,1096.1858 1298.031,865.09775 Z"
       id="path3091"
       sodipodi:nodetypes="cccccccccc"
       inkscape:label="mane" />
    <path
       style="opacity:1;fill:#ffcb4c;fill-opacity:1;stroke:#ffcb4c;stroke-width:64;stroke-linecap:round;stroke-linejoin:round;stroke-miterlimit:4;stroke-dasharray:none;stroke-dashoffset:0;stroke-opacity:1;paint-order:fill markers stroke;stop-color:#000000"
       d="m 848.0933,1338.888 -64.7849,239.5079 62.82173,-25.5214 -51.04266,200.2443 459.38383,-15.7054 c 0,0 -127.6066,-94.2326 -149.2016,-184.5389 -21.5949,-90.3062 51.0427,-253.25 51.0427,-253.25 z"
       id="path3340"
       inkscape:label="neck" />
    <g
       id="g12988"
       inkscape:label="head"
       transform="rotate(7.041012,920.6857,1275.9307)">
      <path
         style="opacity:1;fill:#1a1a1a;fill-opacity:1;stroke:#1a1a1a;stroke-width:64;stroke-linecap:round;stroke-linejoin:round;stroke-miterlimit:4;stroke-dasharray:none;stroke-opacity:1;paint-order:fill markers stroke;stop-color:#000000"
         d="m 280.21475,1321.5558 c 0,0 49.79781,110.255 59.36629,187.7255 10.33396,83.6682 -31.00244,55.5022 -9.3819,191.4975 10.01481,62.9941 59.42165,149.9655 59.42165,149.9655"
         id="path31143"
         sodipodi:nodetypes="cssc" />
      <g
         id="g30520"
         transform="translate(37.729791,-144.81143)">
        <g
           id="layer2-3"
           inkscape:label="hand"
           transform="matrix(-0.52552049,-0.90661598,-1.0571696,0.44022161,2109.1521,920.82694)"
           style="display:inline;fill:none;fill-opacity:1;stroke:#888800;stroke-width:0.916778;stroke-opacity:1">
          <path
             style="fill:none;fill-opacity:1;stroke:#a18020;stroke-width:88.0107;stroke-linecap:round;stroke-linejoin:round;stroke-miterlimit:4;stroke-dasharray:none;stroke-opacity:1;paint-order:fill markers stroke;stop-color:#000000"
             d="m 268.04516,1433.4324 c 0,0 -238.726995,27.9141 -243.750335,94.1165"
             id="path15392-6"
             sodipodi:nodetypes="cc" />
          <path
             style="fill:none;fill-opacity:1;stroke:#a18020;stroke-width:88.0107;stroke-linecap:round;stroke-linejoin:round;stroke-miterlimit:4;stroke-dasharray:none;stroke-opacity:1;paint-order:fill markers stroke;stop-color:#000000"
             d="M 465.3647,1469.3989 89.494471,1497.1525"
             id="path20257-5"
             sodipodi:nodetypes="cc" />
          <path
             style="fill:none;fill-opacity:1;stroke:#a18020;stroke-width:88.0107;stroke-linecap:round;stroke-linejoin:round;stroke-miterlimit:4;stroke-dasharray:none;stroke-opacity:1;paint-order:fill markers stroke;stop-color:#000000"
             d="M 83.585394,1562.0096 450.17823,1535.4753"
             id="path20259-3"
             sodipodi:nodetypes="cc" />
          <path
             style="fill:none;fill-opacity:1;stroke:#a18020;stroke-width:88.0107;stroke-linecap:round;stroke-linejoin:round;stroke-miterlimit:4;stroke-dasharray:none;stroke-opacity:1;paint-order:fill markers stroke;stop-color:#000000"
             d="M 71.288958,1621.58 402.78195,1595.2649"
             id="path20261-1"
             sodipodi:nodetypes="cc" />
          <path
             style="fill:none;fill-opacity:1;stroke:#a18020;stroke-width:88.0107;stroke-linecap:round;stroke-linejoin:round;stroke-miterlimit:4;stroke-dasharray:none;stroke-opacity:1;paint-order:fill markers stroke;stop-color:#000000"
             d="m 87.397854,1472.6573 c 0,0 -91.7196952,27.7007 -88.27995681,86.167 C 2.5576437,1617.2906 71.288951,1621.58 71.288951,1621.58 l 16.108903,-148.9227"
             id="path20376-4" />
        </g>
        <path
           style="display:inline;fill:#d40000;fill-opacity:1;stroke:#a18020;stroke-width:160;stroke-linecap:round;stroke-linejoin:round;stroke-miterlimit:4;stroke-dasharray:none;stroke-opacity:1;paint-order:fill markers stroke;stop-color:#000000"
           d="m 453.71668,1601.8812 153.24991,470.8711"
           id="path22999-9"
           sodipodi:nodetypes="cc" />
      </g>
      <path
         style="display:inline;fill:none;fill-opacity:1;stroke:#f19020;stroke-width:32;stroke-linecap:round;stroke-linejoin:round;stroke-miterlimit:4;stroke-dasharray:none;stroke-dashoffset:0;stroke-opacity:1;paint-order:fill markers stroke;stop-color:#000000"
         d="m 214.24675,510.63421 c 146.95696,90.16728 298.17327,215.74277 401.65747,338.76616"
         id="path6280-0-6"
         sodipodi:nodetypes="cc"
         inkscape:label="eyelash left small" />
      <path
         style="display:inline;fill:none;fill-opacity:1;stroke:#f19020;stroke-width:32;stroke-linecap:round;stroke-linejoin:round;stroke-miterlimit:4;stroke-dasharray:none;stroke-dashoffset:0;stroke-opacity:1;paint-order:fill markers stroke;stop-color:#000000"
         d="M 136.3074,315.66998 C 386.36359,452.28922 592.00322,626.1296 711.50637,872.15241"
         id="path6280-3"
         sodipodi:nodetypes="cc"
         inkscape:label="eyelash left big" />
      <g
         id="g12997"
         inkscape:label="left eye">
        <path
           id="path1915-9"
           style="display:inline;fill:#fefefe;stroke:#65471b;stroke-width:64;stroke-linecap:round;stroke-linejoin:round;paint-order:fill markers stroke;stop-color:#000000"
           inkscape:label="lefteye"
           d="m 792.61751,1048.7279 c 10e-6,120.7167 -155.86024,218.577 -276.57698,218.577 -120.71674,0 -160.57699,-55.8603 -160.57698,-176.577 0,-120.71673 97.86025,-260.57698 218.57698,-260.57698 120.71673,0 218.57698,97.86025 218.57698,218.57698 z"
           sodipodi:nodetypes="sssss" />
        <path
           style="opacity:1;fill:#ffffff;fill-opacity:1;stroke:#65471b;stroke-width:48;stroke-linecap:round;stroke-linejoin:round;stroke-miterlimit:4;stroke-dasharray:none;stroke-dashoffset:0;stroke-opacity:1;paint-order:fill markers stroke;stop-color:#000000"
           d="m 473.98335,965.65151 24.99037,166.97469"
           id="path2372"
           inkscape:label="left pupil"
           sodipodi:nodetypes="cc" />
      </g>
      <g
         id="g863"
         transform="rotate(-2.7359729,569.40337,1050.5679)"
         style="fill:#000000;stroke:#000000">
        <path
           id="path2821"
           style="opacity:1;fill:#000000;stroke:#ff0000;stroke-width:32;stroke-linecap:round;stroke-linejoin:round;paint-order:fill markers stroke;filter:url(#filter2861);stop-color:#000000"
           d="M 401.77344,631.89453 C 302.85954,630.70671 213.92923,698.824 192.15039,799.41602 l -36.73437,169.66992 c -24.8901,114.96226 47.62997,227.51616 162.60156,252.36326 l 240.60547,51.9981 c 3.08912,-9.7587 2.95651,-9.2793 6.52539,-20.5977 13.66036,-43.3229 29.6622,-94.4501 39.02929,-125.6738 1.17089,-3.903 1.97064,-8.1478 2.43946,-12.6758 0.46881,-4.528 0.60644,-9.3397 0.45703,-14.377 -0.14941,-5.0372 -0.58575,-10.2998 -1.26953,-15.7304 -0.68378,-5.4306 -1.61375,-11.0302 -2.74805,-16.7383 -1.1343,-5.7081 -2.47365,-11.5248 -3.97461,-17.3945 -1.50096,-5.8697 -3.16349,-11.7916 -4.94726,-17.7071 -3.56756,-11.8308 -7.61682,-23.6365 -11.8125,-34.95504 -4.19569,-11.31859 -8.53842,-22.14993 -12.69141,-32.0293 -4.153,-9.87937 -8.11716,-18.80711 -11.55664,-26.32031 -6.87897,-15.02641 -11.66016,-24.39453 -11.66016,-24.39453 L 1084.313,778.04664 444.60938,636.75391 c -14.37145,-3.1059 -28.70539,-4.68969 -42.83594,-4.85938 z"
           transform="rotate(-14.037417,864.68,1035.7055)"
           sodipodi:nodetypes="sccccssssssssssscccs" />
        <path
           id="path1591"
           style="opacity:1;fill:#000000;fill-opacity:1;stroke:#000000;stroke-width:32;stroke-linecap:round;stroke-linejoin:round;stroke-opacity:1;paint-order:fill markers stroke;stop-color:#000000"
           d="m 614.39648,673.44727 -169.7871,-36.69336 c -14.37145,-3.1059 -31.55397,-13.36927 -42.83594,-4.85938 -77.61455,58.54398 -186.39258,71.00041 -209.62305,167.52149 l -36.73437,169.66992 c -24.8901,114.96226 47.62997,227.51616 162.60156,252.36326 l 240.60547,51.9981 c 3.08912,-9.7587 2.95651,-9.2793 6.52539,-20.5977 13.66036,-43.3229 29.6622,-94.4501 39.02929,-125.6738 1.17089,-3.903 1.97064,-8.1478 2.43946,-12.6758 0.46881,-4.528 0.60644,-9.3397 0.45703,-14.377 -0.14941,-5.0372 -0.58575,-10.2998 -1.26953,-15.7304 -0.68378,-5.4306 -1.61375,-11.0302 -2.74805,-16.7383 -1.1343,-5.7081 -2.47365,-11.5248 -3.97461,-17.3945 -1.50096,-5.8697 -3.16349,-11.7916 -4.94726,-17.7071 -3.56756,-11.8308 -7.61682,-23.6365 -11.8125,-34.95504 -4.19569,-11.31859 -8.53842,-22.14993 -12.69141,-32.0293 -4.153,-9.87937 -8.11716,-18.80711 -11.55664,-26.32031 -6.87897,-15.02641 -11.66016,-24.39453 -11.66016,-24.39453"
           transform="rotate(-14.037417,864.68,1035.7055)"
           sodipodi:nodetypes="ccsccccsssssssssssc" />
        <path
           style="opacity:1;fill:#d40000;fill-opacity:1;stroke:#d40000;stroke-width:64;stroke-linecap:round;stroke-linejoin:round;stroke-opacity:1;paint-order:fill markers stroke;stop-color:#000000"
           d="M 317.6504,756.23386 170.26412,867.00875 159.93817,1104.192 413.19122,1099.2178 497.42114,992.71505"
           id="path1686" />
      </g>
      <path
         style="opacity:1;fill:#f19020;fill-opacity:1;stroke:#f19020;stroke-width:64;stroke-linecap:round;stroke-miterlimit:4;stroke-dasharray:none;stroke-dashoffset:0;stroke-opacity:1;paint-order:fill markers stroke;stop-color:#000000"
         d="m 834.17099,894.54897 c 0,0 -75.39274,-160.40341 -99.5069,-341.53728 -26.52799,-199.26527 14.08889,-425.40074 80.87256,-441.01886 66.78368,-15.618127 208.00585,160.03621 259.20505,292.5115 51.1993,132.47529 69.0332,440.63234 69.0332,440.63234 z"
         id="path1640"
         inkscape:label="left ear"
         sodipodi:nodetypes="cssscc" />
      <path
         id="path1148"
         style="display:inline;opacity:1;fill:#ffcb4c;stroke:#ffcb4c;stroke-width:64;stroke-linecap:round;stroke-linejoin:round;stroke-miterlimit:4;stroke-dasharray:6.4, 6.4;stroke-dashoffset:0;stroke-opacity:1;paint-order:fill markers stroke;stop-color:#000000"
         inkscape:label="head"
         d="m 1299.0547,1153.5586 c 0,0 -0.1078,-10.8206 -0.9512,-28.418 -0.4217,-8.7987 -1.0259,-19.2912 -1.8945,-30.9726 -0.8686,-11.6814 -1.9997,-24.5525 -3.4727,-38.1055 -1.4729,-13.553 -3.2888,-27.7877 -5.5234,-42.2012 -2.2347,-14.41345 -4.8892,-29.0047 -8.043,-43.26755 -1.5769,-7.13143 -3.279,-14.18175 -5.1152,-21.08594 -1.8362,-6.90419 -3.8068,-13.66232 -5.9219,-20.21289 -2.1151,-6.55056 -4.3733,-12.89234 -6.7871,-18.96289 -2.4138,-6.07055 -4.9828,-11.86984 -7.7148,-17.33398 -2.7321,-5.46415 -5.9346,-10.78574 -9.5391,-15.96094 -3.6045,-5.1752 -7.6114,-10.20474 -11.9492,-15.08399 -4.3379,-4.87924 -9.0074,-9.60926 -13.9395,-14.18554 -4.9321,-4.57628 -10.1264,-8.99932 -15.5136,-13.26563 -5.3873,-4.2663 -10.9666,-8.37489 -16.67,-12.32422 -5.7033,-3.94932 -11.5298,-7.73794 -17.4101,-11.36328 -11.7607,-7.25067 -23.7371,-13.84709 -35.3711,-19.75976 -11.634,-5.91267 -22.9257,-11.14156 -33.3203,-15.66016 -10.3946,-4.5186 -19.8912,-8.32606 -27.9336,-11.39453 -16.085,-6.13693 -26.3535,-9.31836 -26.3535,-9.31836 -106.83135,-15.98813 -232.17461,6.96944 -312.62504,60.01367 -101.26734,66.76968 -136.88727,176.62945 -198.70703,211.95509 -61.81975,35.3255 -225.20029,77.273 -280.39649,83.8965 -55.19621,6.6235 -183.250354,6.6246 -161.171871,123.6406 22.078481,117.016 112.599211,282.6048 377.541011,247.2793 264.94179,-35.3256 313.51517,-44.1575 536.50782,-88.3145 22.8973,-4.5341 53.8481,-18.3195 86.8281,-36.9472 l 213.8711,-11.4278 -92.9258,-75.2558 c 5.3578,-4.8405 10.5999,-9.7184 15.6328,-14.6367 l 142.0762,-2.375 -84.8808,-69.668 c 3.4806,-6.5537 6.4805,-13.0207 8.6269,-19.3066 1.0523,-3.0817 2.0328,-6.6268 3.0469,-9.9766 z" />
      <path
         style="display:none;fill:#123456;stroke:#123456;stroke-width:64;stroke-linecap:round;stroke-linejoin:round;-inkscape-stroke:none;paint-order:fill markers stroke;stop-color:#000000"
         d="M 880.93148,744.0449 C 763.91552,771.643 622.61323,916.25706 622.61323,916.25706 620.95257,833.21142 611.27974,749.4374 735.2135,677.80944 621.79753,635.59022 513.38112,614.80841 349.61594,639.04036 c 0,0 280.37203,-178.48834 467.28795,-195.26285 172.2122,-15.45493 264.94181,37.53343 264.94181,37.53343 -0.1923,-45.68323 -31.4577,-88.25915 -90.52179,-128.0552 0,0 295.85169,97.14532 333.38509,194.29065 37.5334,97.14533 28.702,167.79647 28.702,167.79647 l -243.7525,34.92308 c 0,0 -111.71105,-33.81914 -228.72702,-6.22104 z"
         id="path1637"
         sodipodi:nodetypes="zcccsccsccz"
         inkscape:label="top hair" />
      <path
         id="path13483"
         style="display:inline;opacity:1;fill:#ffcb4c;stroke:#ffcb4c;stroke-width:64;stroke-linecap:round;stroke-linejoin:round;stroke-miterlimit:4;stroke-dasharray:6.4, 6.4;stroke-dashoffset:0;stroke-opacity:1;paint-order:fill markers stroke;stop-color:#000000"
         inkscape:label="right ear"
         d="M 1253.5646,41.681027 C 1175.1655,54.760205 1063.92,362.12638 1051.0924,451.50526 c -11.421,79.57778 -53.23219,282.09605 -65.13559,339.4967 0,0 10.652,1.44834 27.52759,4.85476 8.4377,1.70323 18.4314,3.89609 29.4278,6.64262 10.9965,2.74653 22.9947,6.04604 35.4431,9.96369 12.4483,3.91765 25.3469,8.45338 38.1404,13.66994 6.3967,2.60829 12.7673,5.38649 19.0427,8.34348 6.2755,2.95697 12.4548,6.09146 18.4707,9.4131 6.0158,3.32166 11.8672,6.82967 17.4851,10.53197 5.6179,3.7023 11.0021,7.59945 16.0837,11.69836 5.0816,4.09893 9.8615,8.40056 14.2685,12.91208 4.4069,4.51151 8.4415,9.23358 12.0355,14.17366 3.5939,4.94009 7.0822,10.23759 10.462,15.82819 3.3798,5.59059 6.6508,11.47433 9.815,17.58754 3.1642,6.11323 6.22,12.45496 9.1673,18.96288 2.9472,6.50792 5.7863,13.18204 8.5152,19.95677 5.4578,13.54945 10.4772,27.50498 15.0532,41.3542 4.576,13.8494 8.7095,27.5912 12.3925,40.7171 3.6831,13.1258 6.9168,25.6354 9.6958,37.0146 2.779,11.3792 5.1015,21.6293 6.9653,30.2386 3.7276,17.2188 5.6145,27.8741 5.6145,27.8741 C 1377.7641,1010.87 1515.0299,737.07877 1487.026,515.31827 1448.6852,211.70153 1304.4047,33.199469 1253.5646,41.681027 Z" />
      <g
         id="g13003"
         inkscape:label="face">
        <path
           style="opacity:1;fill:#ffcb4c;fill-opacity:1;stroke:none;stroke-width:64;stroke-linecap:round;stroke-linejoin:round;stroke-miterlimit:4;stroke-dasharray:none;stroke-dashoffset:0;stroke-opacity:1;paint-order:fill markers stroke;stop-color:#000000"
           d="m 132.4709,1346.7875 90.52178,-72.859 c 0,0 146.93476,106.6315 222.99268,101.561 66.23545,-4.4157 119.2238,-37.5334 119.2238,-37.5334 l -32.92171,-235.8975 -431.65198,43.5528 -7.569527,162.8166 z"
           id="path3264"
           sodipodi:nodetypes="ccsc"
           inkscape:label="mouf" />
        <path
           style="opacity:1;fill:none;fill-opacity:1;stroke:#65471b;stroke-width:64;stroke-linecap:round;stroke-linejoin:round;stroke-miterlimit:4;stroke-dasharray:none;stroke-dashoffset:0;stroke-opacity:1;paint-order:fill markers stroke;stop-color:#000000"
           d="m 83.898236,1201.0695 68.443294,6.6235 -37.53342,39.7413"
           id="path2163"
           inkscape:label="left nostril" />
        <path
           style="opacity:1;fill:none;fill-opacity:1;stroke:#65471b;stroke-width:64;stroke-linecap:round;stroke-linejoin:round;stroke-miterlimit:4;stroke-dasharray:none;stroke-dashoffset:0;stroke-opacity:1;paint-order:fill markers stroke;stop-color:#000000"
           d="m 401.82839,1251.85 -59.6119,-44.157 121.43166,-17.6628"
           id="path2198"
           inkscape:label="right nostril" />
        <path
           style="opacity:1;fill:#ffcb4c;fill-opacity:1;stroke:#65471b;stroke-width:64;stroke-linecap:round;stroke-linejoin:round;stroke-miterlimit:4;stroke-dasharray:none;stroke-dashoffset:0;stroke-opacity:1;paint-order:fill markers stroke;stop-color:#000000"
           d="m 132.4709,1346.7875 90.52178,-72.859 c 0,0 146.93476,106.6315 222.99268,101.561 28.81892,-1.9213 55.13003,-9.2761 75.6599,-16.9725 13.91355,-5.2161 25.17173,-10.589 32.75557,-14.5338 6.94474,-3.6124 10.80833,-6.0271 10.80833,-6.0271"
           id="path2200"
           sodipodi:nodetypes="ccsssc"
           inkscape:label="mouf" />
        <path
           style="opacity:1;fill:#ffffff;fill-opacity:1;stroke:#65471b;stroke-width:64;stroke-linecap:round;stroke-linejoin:round;stroke-miterlimit:4;stroke-dasharray:none;stroke-dashoffset:0;stroke-opacity:1;paint-order:fill markers stroke;stop-color:#000000"
           d="m 222.99268,1530.0389 -90.52178,-183.2514 90.52178,-72.859 103.76887,66.2354 z"
           id="path2202"
           sodipodi:nodetypes="ccccc"
           inkscape:label="toof" />
      </g>
      <g
         id="g12993"
         inkscape:label="right eye">
        <path
           style="opacity:1;fill:#65471b;fill-opacity:1;stroke:#65471b;stroke-width:64;stroke-linecap:round;stroke-linejoin:round;stroke-miterlimit:4;stroke-dasharray:none;stroke-dashoffset:0;stroke-opacity:1;paint-order:fill markers stroke;stop-color:#000000"
           d="m 661.97569,1226.0485 53.36716,-115.5008 86.53085,168.711 z"
           id="path7852"
           inkscape:label="eyenub"
           sodipodi:nodetypes="cccc" />
        <path
           id="path1915"
           style="opacity:1;fill:#fefefe;stroke:#65471b;stroke-width:64;stroke-linecap:round;stroke-linejoin:round;paint-order:fill markers stroke;stop-color:#000000"
           inkscape:label="righteye"
           d="m 1150.289,1075.2222 c 0,120.7167 -151.8603,218.5769 -272.57702,218.5769 -120.71671,0 -164.57695,-71.8602 -164.57699,-192.5769 -2e-5,-120.71675 97.86024,-244.57702 218.57699,-244.57701 120.71672,-2e-5 218.57702,97.86025 218.57702,218.57701 z"
           sodipodi:nodetypes="sssss" />
        <path
           style="opacity:1;fill:#ffffff;fill-opacity:1;stroke:#65471b;stroke-width:48;stroke-linecap:round;stroke-linejoin:round;stroke-miterlimit:4;stroke-dasharray:none;stroke-dashoffset:0;stroke-opacity:1;paint-order:fill markers stroke;stop-color:#000000"
           d="M 818.74112,985.18485 863.6393,1169.675"
           id="path2350"
           inkscape:label="right pupil" />
      </g>
      <path
         style="opacity:1;fill:none;fill-opacity:1;stroke:#ffcb4c;stroke-width:32;stroke-linecap:round;stroke-linejoin:round;stroke-miterlimit:4;stroke-dasharray:none;stroke-dashoffset:0;stroke-opacity:1;paint-order:fill markers stroke;stop-color:#000000"
         d="M 422.09799,125.10137 C 599.10012,348.40199 720.6887,588.66091 734.81454,861.80682"
         id="path6280"
         sodipodi:nodetypes="cc"
         inkscape:label="eyelash right big" />
      <path
         style="display:inline;fill:none;fill-opacity:1;stroke:#ffcb4c;stroke-width:32;stroke-linecap:round;stroke-linejoin:round;stroke-miterlimit:4;stroke-dasharray:none;stroke-dashoffset:0;stroke-opacity:1;paint-order:fill markers stroke;stop-color:#000000"
         d="m 711.56797,296.29281 c 57.33566,162.60107 95.67474,355.38513 98.55015,516.11928"
         id="path6280-0"
         sodipodi:nodetypes="cc"
         inkscape:label="eyelash right small" />
      <g
         id="g859"
         transform="rotate(-2.7359729,569.40337,1050.5679)"
         style="fill:#000000;stroke:#000000">
        <path
           id="path2684"
           style="display:inline;opacity:1;fill:#ff0000;stroke:#ff0000;stroke-width:32;stroke-linecap:round;stroke-linejoin:round;paint-order:fill markers stroke;filter:url(#filter2722);stop-color:#000000"
           d="m 816.43626,728.37294 -74.08341,261.80633 c 99.42637,46.78523 54.62868,75.75663 30.45379,178.37043 -8.10198,34.3901 -196.0788,103.077 -119.38869,125.3844 76.69011,22.3075 354.83005,76.685 354.83005,76.685 114.9716,24.8472 227.5689,-47.7017 252.459,-162.664 l 36.7344,-169.668 c 24.8901,-114.9623 -47.63,-227.51614 -162.6016,-252.36327 z"
           transform="rotate(-14.037417,830.68748,1213.1639)"
           sodipodi:nodetypes="ccszcsscc" />
        <path
           id="path3910"
           style="opacity:1;fill:#1a1a1a;stroke:#1a1a1a;stroke-width:32;stroke-linecap:round;stroke-linejoin:round;paint-order:fill markers stroke;stop-color:#000000"
           d="m 518.81596,904.9182 c 99.42637,46.78518 65.34055,278.2952 65.34055,278.2952 l 69.26144,110.7207 236.18002,50.1449 c 34.80296,7.5215 109.47633,24.0462 109.47633,24.0462 l 123.6132,-92.1162 c 0,0 14.0057,-69.8199 19.3695,-94.594 l 36.7344,-169.668 c 24.8902,-114.96232 -47.63,-227.51618 -162.6016,-252.36331 L 614.39648,673.44727"
           transform="rotate(-14.037417,864.68,1035.7055)"
           sodipodi:nodetypes="ccccccsscc" />
        <path
           style="opacity:1;fill:#d40000;fill-opacity:1;stroke:#d40000;stroke-width:64;stroke-linecap:round;stroke-linejoin:round;stroke-opacity:1;paint-order:fill markers stroke;stop-color:#000000"
           d="m 497.42114,992.71505 110.1838,131.00755 481.12886,-14.3004 93.0045,-53.9693 -5.7439,-221.88309 -160.7367,-101.10203 -697.6073,23.76608 179.77074,236.48119"
           id="path1618" />
        <path
           style="opacity:1;fill:#d40000;fill-opacity:1;stroke:#000000;stroke-width:64;stroke-linecap:round;stroke-linejoin:round;stroke-opacity:1;paint-order:fill markers stroke;stop-color:#000000"
           d="M 238.72915,882.20761 457.0299,870.47099"
           id="path16784" />
      </g>
      <g
         id="layer2"
         inkscape:label="hand"
         transform="matrix(-0.52552049,-0.90661598,-1.0571696,0.44022161,2760.0897,643.54954)"
         style="display:inline;fill:none;fill-opacity:1;stroke:#888800;stroke-width:0.916778;stroke-opacity:1">
        <path
           style="fill:none;fill-opacity:1;stroke:#a18020;stroke-width:88.0107;stroke-linecap:round;stroke-linejoin:round;stroke-miterlimit:4;stroke-dasharray:none;stroke-opacity:1;paint-order:fill markers stroke;stop-color:#000000"
           d="m 268.04516,1433.4324 c 0,0 -238.726995,27.9141 -243.750335,94.1165"
           id="path15392"
           sodipodi:nodetypes="cc" />
        <path
           style="fill:none;fill-opacity:1;stroke:#a18020;stroke-width:88.0107;stroke-linecap:round;stroke-linejoin:round;stroke-miterlimit:4;stroke-dasharray:none;stroke-opacity:1;paint-order:fill markers stroke;stop-color:#000000"
           d="M 465.3647,1469.3989 89.494471,1497.1525"
           id="path20257"
           sodipodi:nodetypes="cc" />
        <path
           style="fill:none;fill-opacity:1;stroke:#a18020;stroke-width:88.0107;stroke-linecap:round;stroke-linejoin:round;stroke-miterlimit:4;stroke-dasharray:none;stroke-opacity:1;paint-order:fill markers stroke;stop-color:#000000"
           d="M 83.585394,1562.0096 450.17823,1535.4753"
           id="path20259"
           sodipodi:nodetypes="cc" />
        <path
           style="fill:none;fill-opacity:1;stroke:#a18020;stroke-width:88.0107;stroke-linecap:round;stroke-linejoin:round;stroke-miterlimit:4;stroke-dasharray:none;stroke-opacity:1;paint-order:fill markers stroke;stop-color:#000000"
           d="M 71.288958,1621.58 402.78195,1595.2649"
           id="path20261"
           sodipodi:nodetypes="cc" />
        <path
           style="fill:none;fill-opacity:1;stroke:#a18020;stroke-width:88.0107;stroke-linecap:round;stroke-linejoin:round;stroke-miterlimit:4;stroke-dasharray:none;stroke-opacity:1;paint-order:fill markers stroke;stop-color:#000000"
           d="m 87.397854,1472.6573 c 0,0 -91.7196952,27.7007 -88.27995681,86.167 C 2.5576437,1617.2906 71.288951,1621.58 71.288951,1621.58 l 16.108903,-148.9227"
           id="path20376" />
      </g>
      <path
         style="opacity:1;fill:#d40000;fill-opacity:1;stroke:#a18020;stroke-width:160;stroke-linecap:round;stroke-linejoin:round;stroke-miterlimit:4;stroke-dasharray:none;stroke-opacity:1;paint-order:fill markers stroke;stop-color:#000000"
         d="m 1093.6074,1356.2051 2.6525,529.2925"
         id="path22999" />
      <path
         style="opacity:1;fill:#999999;fill-opacity:1;stroke:#808080;stroke-width:64;stroke-linecap:round;stroke-linejoin:round;stroke-miterlimit:4;stroke-dasharray:none;stroke-opacity:1;paint-order:fill markers stroke;stop-color:#000000"
         d="m 606.40306,727.55516 -40.14868,44.28499 192.75645,-56.84157 z"
         id="path30611" />
    </g>
  </g>
</svg>
