<?xml version="1.0" encoding="UTF-8" standalone="no"?>
<!-- Created with Inkscape (http://www.inkscape.org/) -->

<svg
   version="1.1"
   id="svg824"
   width="1706.6667"
   height="1706.6667"
   viewBox="0 0 1706.6667 1706.6667"
   sodipodi:docname="ying_lurk_surprised.svg"
   inkscape:version="1.1 (c68e22c387, 2021-05-23)"
   inkscape:export-filename="D:\Pictures\yingmotes\ying_lurk.png"
   inkscape:export-xdpi="72"
   inkscape:export-ydpi="72"
   xmlns:inkscape="http://www.inkscape.org/namespaces/inkscape"
   xmlns:sodipodi="http://sodipodi.sourceforge.net/DTD/sodipodi-0.dtd"
   xmlns="http://www.w3.org/2000/svg"
   xmlns:svg="http://www.w3.org/2000/svg">
  <defs
     id="defs828" />
  <sodipodi:namedview
     id="namedview826"
     pagecolor="#ffffff"
     bordercolor="#666666"
     borderopacity="1.0"
     inkscape:pageshadow="2"
     inkscape:pageopacity="0.0"
     inkscape:pagecheckerboard="0"
     showgrid="false"
     inkscape:zoom="0.45292967"
     inkscape:cx="745.1488"
     inkscape:cy="1056.4554"
     inkscape:window-width="1920"
     inkscape:window-height="1001"
     inkscape:window-x="-9"
     inkscape:window-y="-9"
     inkscape:window-maximized="1"
     inkscape:current-layer="g12988"
     showguides="false">
    <sodipodi:guide
       position="705.6554,-226.07973"
       orientation="0,-1"
       id="guide844" />
  </sodipodi:namedview>
  <g
     id="layer1"
     inkscape:label="Ying"
     style="display:inline"
     inkscape:groupmode="layer">
    <g
       id="g12988"
       inkscape:label="head"
       transform="rotate(23.970572,348.84182,1442.8374)">
      <path
         style="display:inline;fill:none;fill-opacity:1;stroke:#f19020;stroke-width:32;stroke-linecap:round;stroke-linejoin:round;stroke-miterlimit:4;stroke-dasharray:none;stroke-dashoffset:0;stroke-opacity:1;paint-order:fill markers stroke;stop-color:#000000"
         d="M 103.27127,866.18303 C 272.8829,835.22534 469.30154,827.7893 628.47545,850.31487"
         id="path6280-0-6"
         sodipodi:nodetypes="cc"
         inkscape:label="eyelash left small"
         inkscape:transform-center-x="245.38549"
         inkscape:transform-center-y="-81.939857" />
      <path
         style="display:inline;fill:none;fill-opacity:1;stroke:#f19020;stroke-width:32;stroke-linecap:round;stroke-linejoin:round;stroke-miterlimit:4;stroke-dasharray:none;stroke-dashoffset:0;stroke-opacity:1;paint-order:fill markers stroke;stop-color:#000000"
         d="M -60.019482,698.09977 C 224.37421,680.40393 491.02747,717.8762 723.27692,862.33527"
         id="path6280-3"
         sodipodi:nodetypes="cc"
         inkscape:label="eyelash left big"
         inkscape:transform-center-x="309.88345"
         inkscape:transform-center-y="-210.71201" />
      <path
         style="opacity:1;fill:#f19020;fill-opacity:1;stroke:#f19020;stroke-width:64;stroke-linecap:round;stroke-miterlimit:4;stroke-dasharray:none;stroke-dashoffset:0;stroke-opacity:1;paint-order:fill markers stroke;stop-color:#000000"
         d="m 696.58344,957.60576 c 0,0 -90.69983,-152.27234 -132.39118,-330.18469 -45.86463,-195.72127 -27.53005,-424.74273 37.40875,-446.80935 64.93882,-22.06662 222.64296,138.95372 286.53711,265.79459 63.89416,126.84087 111.74243,431.78244 111.74243,431.78244 z"
         id="path1640"
         inkscape:label="left ear"
         sodipodi:nodetypes="cssscc"
         inkscape:transform-center-x="-29.852996"
         inkscape:transform-center-y="-324.23396" />
      <g
         id="g12997"
         inkscape:label="left eye">
        <path
           id="path1915-9"
           style="display:inline;fill:#fefefe;stroke:#65471b;stroke-width:64;stroke-linecap:round;stroke-linejoin:round;paint-order:fill markers stroke;stop-color:#000000"
           inkscape:label="lefteye"
           d="m 792.61751,1048.7279 c 10e-6,120.7167 -155.86024,218.577 -276.57698,218.577 -120.71674,0 -160.57699,-55.8603 -160.57698,-176.577 0,-120.71673 97.86025,-260.57698 218.57698,-260.57698 120.71673,0 218.57698,97.86025 218.57698,218.57698 z"
           sodipodi:nodetypes="sssss" />
        <path
           style="opacity:1;fill:#ffffff;fill-opacity:1;stroke:#65471b;stroke-width:48;stroke-linecap:round;stroke-linejoin:round;stroke-miterlimit:4;stroke-dasharray:none;stroke-dashoffset:0;stroke-opacity:1;paint-order:fill markers stroke;stop-color:#000000"
           d="m 485.95155,932.94698 0.47037,53.5287"
           id="path2372"
           inkscape:label="left pupil" />
      </g>
      <path
         id="path1148"
         style="display:inline;opacity:1;fill:#ffcb4c;stroke:#ffcb4c;stroke-width:64;stroke-linecap:round;stroke-linejoin:round;stroke-miterlimit:4;stroke-dasharray:6.4, 6.4;stroke-dashoffset:0;stroke-opacity:1;paint-order:fill markers stroke;stop-color:#000000"
         inkscape:label="head"
         d="m 1299.0547,1153.5586 c 0,0 -0.1078,-10.8206 -0.9512,-28.418 -0.4217,-8.7987 -1.0259,-19.2912 -1.8945,-30.9726 -0.8686,-11.6814 -1.9997,-24.5525 -3.4727,-38.1055 -1.4729,-13.553 -3.2888,-27.7877 -5.5234,-42.2012 -2.2347,-14.41345 -4.8892,-29.0047 -8.043,-43.26755 -1.5769,-7.13143 -3.279,-14.18175 -5.1152,-21.08594 -1.8362,-6.90419 -3.8068,-13.66232 -5.9219,-20.21289 -2.1151,-6.55056 -4.3733,-12.89234 -6.7871,-18.96289 -2.4138,-6.07055 -4.9828,-11.86984 -7.7148,-17.33398 -2.7321,-5.46415 -5.9346,-10.78574 -9.5391,-15.96094 -3.6045,-5.1752 -7.6114,-10.20474 -11.9492,-15.08399 -4.3379,-4.87924 -9.0074,-9.60926 -13.9395,-14.18554 -4.9321,-4.57628 -10.1264,-8.99932 -15.5136,-13.26563 -5.3873,-4.2663 -10.9666,-8.37489 -16.67,-12.32422 -5.7033,-3.94932 -11.5298,-7.73794 -17.4101,-11.36328 -11.7607,-7.25067 -23.7371,-13.84709 -35.3711,-19.75976 -11.634,-5.91267 -22.9257,-11.14156 -33.3203,-15.66016 -10.3946,-4.5186 -19.8912,-8.32606 -27.9336,-11.39453 -16.085,-6.13693 -26.3535,-9.31836 -26.3535,-9.31836 -106.83135,-15.98813 -232.17461,6.96944 -312.62504,60.01367 -101.26734,66.76968 -136.88727,176.62945 -198.70703,211.95509 -61.81975,35.3255 -225.20029,77.273 -280.39649,83.8965 -55.19621,6.6235 -183.250354,6.6246 -161.171871,123.6406 22.078481,117.016 112.599211,282.6048 377.541011,247.2793 264.94179,-35.3256 313.51517,-44.1575 536.50782,-88.3145 22.8973,-4.5341 53.8481,-18.3195 86.8281,-36.9472 l 213.8711,-11.4278 -92.9258,-75.2558 c 5.3578,-4.8405 10.5999,-9.7184 15.6328,-14.6367 l 142.0762,-2.375 -84.8808,-69.668 c 3.4806,-6.5537 6.4805,-13.0207 8.6269,-19.3066 1.0523,-3.0817 2.0328,-6.6268 3.0469,-9.9766 z" />
      <path
         style="display:none;fill:#123456;stroke:#123456;stroke-width:64;stroke-linecap:round;stroke-linejoin:round;-inkscape-stroke:none;paint-order:fill markers stroke;stop-color:#000000"
         d="M 880.93148,744.0449 C 763.91552,771.643 622.61323,916.25706 622.61323,916.25706 620.95257,833.21142 611.27974,749.4374 735.2135,677.80944 c -124.69479,-7.45678 -249.2876,-15.1175 -408.45194,46.36482 0,0 303.22641,-263.62224 490.14233,-280.39675 172.2122,-15.45493 264.94181,37.53343 264.94181,37.53343 -0.1923,-45.68323 -31.4577,-88.25915 -90.52179,-128.0552 0,0 269.62509,108.80602 307.15849,205.95135 37.5334,97.14533 -23.9747,196.0497 -23.9747,196.0497 l -164.8492,-4.99085 c 0,0 -111.71105,-33.81914 -228.72702,-6.22104 z"
         id="path1637"
         sodipodi:nodetypes="zcccsccsccz"
         inkscape:label="top hair" />
      <path
         id="path13483"
         style="display:inline;opacity:1;fill:#ffcb4c;stroke:#ffcb4c;stroke-width:64;stroke-linecap:round;stroke-linejoin:round;stroke-miterlimit:4;stroke-dasharray:6.4, 6.4;stroke-dashoffset:0;stroke-opacity:1;paint-order:fill markers stroke;stop-color:#000000"
         inkscape:label="right ear"
         d="m 858.72474,86.355124 c -66.52588,43.494716 -44.81342,369.651296 -20.62536,456.645956 21.53566,77.45498 64.67144,279.69528 76.84944,337.0383 0,0 10.33558,-2.95635 27.15681,-6.62191 8.41047,-1.83272 18.44257,-3.84268 29.61538,-5.74885 11.1728,-1.90616 23.4852,-3.70873 36.45829,-5.1263 12.973,-1.41756 26.6068,-2.4502 40.4181,-2.81722 6.9056,-0.18347 13.8555,-0.20085 20.7903,-0.0163 6.9348,0.18451 13.8529,0.57021 20.6966,1.193 6.8437,0.62285 13.6116,1.48243 20.244,2.61375 6.6323,1.13133 13.129,2.53504 19.4298,4.24511 6.3008,1.71011 12.4068,3.7271 18.2556,6.08621 5.849,2.3591 11.4415,5.06072 16.7183,8.13908 5.2769,3.07838 10.6005,6.5265 15.9428,10.28658 5.3423,3.76009 10.7027,7.83234 16.0576,12.15764 5.3549,4.32532 10.7025,8.90341 16.0175,13.67732 5.3151,4.77391 10.5977,9.74351 15.8201,14.8495 10.4448,10.21196 20.6511,20.97206 30.4089,31.81304 9.7577,10.84109 19.0672,21.76166 27.7166,32.29934 8.6493,10.53763 16.6395,20.69163 23.7588,29.99343 7.1193,9.3019 13.3667,17.7534 18.5345,24.8869 10.3357,14.2673 16.3472,23.265 16.3472,23.265 16.7558,-151.37861 32.3663,-457.25411 -82.43,-649.04497 C 1105.736,163.58502 901.86531,58.149759 858.72474,86.355124 Z"
         inkscape:transform-center-x="-73.713524"
         inkscape:transform-center-y="-307.13113" />
      <g
         id="g13003"
         inkscape:label="face">
        <path
           style="opacity:1;fill:none;fill-opacity:1;stroke:#65471b;stroke-width:64;stroke-linecap:round;stroke-linejoin:round;stroke-miterlimit:4;stroke-dasharray:none;stroke-dashoffset:0;stroke-opacity:1;paint-order:fill markers stroke;stop-color:#000000"
           d="m 83.898236,1201.0695 68.443294,6.6235 -37.53342,39.7413"
           id="path2163"
           inkscape:label="left nostril" />
        <path
           style="opacity:1;fill:none;fill-opacity:1;stroke:#65471b;stroke-width:64;stroke-linecap:round;stroke-linejoin:round;stroke-miterlimit:4;stroke-dasharray:none;stroke-dashoffset:0;stroke-opacity:1;paint-order:fill markers stroke;stop-color:#000000"
           d="m 401.82839,1251.85 -59.6119,-44.157 121.43166,-17.6628"
           id="path2198"
           inkscape:label="right nostril" />
        <path
           style="opacity:1;fill:#ffffff;fill-opacity:1;stroke:#65471b;stroke-width:64;stroke-linecap:round;stroke-linejoin:round;stroke-miterlimit:4;stroke-dasharray:none;stroke-dashoffset:0;stroke-opacity:1;paint-order:fill markers stroke;stop-color:#000000"
           d="m 222.99268,1530.0389 -90.52178,-183.2514 90.52178,-72.859 103.76887,66.2354 z"
           id="path2202"
           sodipodi:nodetypes="ccccc"
           inkscape:label="toof" />
      </g>
      <g
         id="g12993"
         inkscape:label="right eye">
        <path
           style="opacity:1;fill:#65471b;fill-opacity:1;stroke:#65471b;stroke-width:64;stroke-linecap:round;stroke-linejoin:round;stroke-miterlimit:4;stroke-dasharray:none;stroke-dashoffset:0;stroke-opacity:1;paint-order:fill markers stroke;stop-color:#000000"
           d="m 661.97569,1226.0485 53.36716,-115.5008 86.53085,168.711 z"
           id="path7852"
           inkscape:label="eyenub"
           sodipodi:nodetypes="cccc" />
        <path
           id="path1915"
           style="opacity:1;fill:#fefefe;stroke:#65471b;stroke-width:64;stroke-linecap:round;stroke-linejoin:round;paint-order:fill markers stroke;stop-color:#000000"
           inkscape:label="righteye"
           d="m 1150.289,1075.2222 c 0,120.7167 -151.8603,218.5769 -272.57702,218.5769 -120.71671,0 -164.57695,-71.8602 -164.57699,-192.5769 -2e-5,-120.71675 97.86024,-244.57702 218.57699,-244.57701 120.71672,-2e-5 218.57702,97.86025 218.57702,218.57701 z"
           sodipodi:nodetypes="sssss" />
        <path
           style="opacity:1;fill:#ffffff;fill-opacity:1;stroke:#65471b;stroke-width:48.0001;stroke-linecap:round;stroke-linejoin:round;stroke-miterlimit:4;stroke-dasharray:none;stroke-dashoffset:0;stroke-opacity:1;paint-order:fill markers stroke;stop-color:#000000"
           d="m 848.28107,966.46025 0.93512,76.69555"
           id="path2350"
           inkscape:label="right pupil" />
      </g>
      <path
         style="opacity:1;fill:none;fill-opacity:1;stroke:#ffcb4c;stroke-width:32;stroke-linecap:round;stroke-linejoin:round;stroke-miterlimit:4;stroke-dasharray:none;stroke-dashoffset:0;stroke-opacity:1;paint-order:fill markers stroke;stop-color:#000000"
         d="M 37.362611,522.92702 C 318.51761,569.23884 570.0512,665.35847 764.14039,858.06969"
         id="path6280"
         sodipodi:nodetypes="cc"
         inkscape:label="eyelash right big"
         inkscape:transform-center-x="267.61085"
         inkscape:transform-center-y="-229.36148" />
      <path
         style="display:inline;fill:none;fill-opacity:1;stroke:#ffcb4c;stroke-width:32;stroke-linecap:round;stroke-linejoin:round;stroke-miterlimit:4;stroke-dasharray:none;stroke-dashoffset:0;stroke-opacity:1;paint-order:fill markers stroke;stop-color:#000000"
         d="m 443.56183,455.23715 c 143.64508,95.355 290.28303,226.24767 389.31036,352.88623"
         id="path6280-0"
         sodipodi:nodetypes="cc"
         inkscape:label="eyelash right small"
         inkscape:transform-center-x="102.87503"
         inkscape:transform-center-y="-203.97091" />
      <rect
         style="fill:#ffffff;stroke:#000000;stroke-width:128;stroke-linecap:round;stroke-linejoin:round;stroke-miterlimit:4;stroke-dasharray:12.8, 12.8;stroke-dashoffset:0;paint-order:fill markers stroke;stop-color:#000000"
         id="rect1442"
         width="2035.7847"
         height="327.84875"
         x="-800.4837"
         y="1465.0426"
         transform="rotate(-23.970572)"
         inkscape:label="peek bar" />
      <path
         style="display:inline;fill:#ffffff;fill-opacity:1;stroke:#65471b;stroke-width:64;stroke-linecap:round;stroke-linejoin:round;stroke-miterlimit:4;stroke-dasharray:none;stroke-dashoffset:0;stroke-opacity:1;paint-order:fill markers stroke;stop-color:#000000"
         d="m 222.99268,1530.0389 -90.52178,-183.2514 90.52178,-72.859 103.76887,66.2354 z"
         id="path2202-8"
         sodipodi:nodetypes="ccccc"
         inkscape:label="toof" />
      <g
         id="path1043"
         transform="rotate(-23.970572,9.470081,1617.9342)"
         inkscape:label="exclamation"
         style="display:inline;stroke:#ffffff">
        <path
           id="path1481"
           style="color:#000000;fill:#ff0000;stroke:#ffffff;stroke-width:128;stroke-linecap:round;stroke-linejoin:round;stroke-miterlimit:4;stroke-dasharray:12.8, 12.8;stroke-dashoffset:0;paint-order:markers stroke fill"
           d="m 265.40468,258.57863 a 87.902327,97.620698 0 0 0 -87.90232,97.6207 v 19.52384 a 87.902327,97.620698 0 0 0 0.98986,9.76267 87.902327,97.620698 0 0 0 -0.98986,9.76266 v 19.52384 a 87.902327,97.620698 0 0 0 0.98986,9.76118 87.902327,97.620698 0 0 0 -0.98986,9.76267 v 19.52384 a 87.902327,97.620698 0 0 0 0.98986,9.76118 87.902327,97.620698 0 0 0 -0.98986,9.76266 v 19.52533 a 87.902327,97.620698 0 0 0 0.98986,9.76266 87.902327,97.620698 0 0 0 -0.98986,9.76118 v 19.52384 a 87.902327,97.620698 0 0 0 0.98986,9.76267 87.902327,97.620698 0 0 0 -0.98986,9.76118 v 19.52532 a 87.902327,97.620698 0 0 0 0.98986,9.76118 87.902327,97.620698 0 0 0 -0.98986,9.76267 v 19.52384 a 87.902327,97.620698 0 0 0 0.98986,9.76118 87.902327,97.620698 0 0 0 -0.98986,9.76266 v 19.52384 a 87.902327,97.620698 0 0 0 0.98986,9.76267 87.902327,97.620698 0 0 0 -0.98986,9.76266 v 19.52384 a 87.902327,97.620698 0 0 0 87.90232,97.6207 87.902327,97.620698 0 0 0 87.90233,-97.6207 v -19.52384 a 87.902327,97.620698 0 0 0 -0.7538,-12.09831 87.902327,97.620698 0 0 0 0.7538,-7.42702 v -19.52384 a 87.902327,97.620698 0 0 0 -0.7538,-12.09683 87.902327,97.620698 0 0 0 0.7538,-7.42701 V 590.4899 a 87.902327,97.620698 0 0 0 -0.7538,-12.09683 87.902327,97.620698 0 0 0 0.7538,-7.42702 v -19.52532 a 87.902327,97.620698 0 0 0 -0.7538,-12.09683 87.902327,97.620698 0 0 0 0.7538,-7.42702 v -19.52384 a 87.902327,97.620698 0 0 0 -0.7538,-12.09683 87.902327,97.620698 0 0 0 0.7538,-7.42701 v -19.52533 a 87.902327,97.620698 0 0 0 -0.7538,-12.09683 87.902327,97.620698 0 0 0 0.7538,-7.42701 v -19.52384 a 87.902327,97.620698 0 0 0 -0.7538,-12.09683 87.902327,97.620698 0 0 0 0.7538,-7.42702 V 395.2485 a 87.902327,97.620698 0 0 0 -0.7538,-12.09831 87.902327,97.620698 0 0 0 0.7538,-7.42702 v -19.52384 a 87.902327,97.620698 0 0 0 -87.90233,-97.6207 z m 88.98623,683.18258 a 88.986218,91.088371 0 0 1 -88.98622,91.08829 88.986218,91.088371 0 0 1 -88.98622,-91.08829 88.986218,91.088371 0 0 1 88.98622,-91.08834 88.986218,91.088371 0 0 1 88.98622,91.08834 z" />
      </g>
    </g>
  </g>
</svg>
