<?xml version="1.0" encoding="UTF-8" standalone="no"?>
<!-- Created with Inkscape (http://www.inkscape.org/) -->

<svg
   version="1.1"
   id="svg824"
   width="1706.6667"
   height="1706.6667"
   viewBox="0 0 1706.6667 1706.6667"
   sodipodi:docname="ying_flat_blush.svg"
   inkscape:version="1.3.2 (091e20e, 2023-11-25, custom)"
   inkscape:export-filename="D:\Pictures\yingmotes\ying_lurk.png"
   inkscape:export-xdpi="72"
   inkscape:export-ydpi="72"
   xmlns:inkscape="http://www.inkscape.org/namespaces/inkscape"
   xmlns:sodipodi="http://sodipodi.sourceforge.net/DTD/sodipodi-0.dtd"
   xmlns:xlink="http://www.w3.org/1999/xlink"
   xmlns="http://www.w3.org/2000/svg"
   xmlns:svg="http://www.w3.org/2000/svg">
  <defs
     id="defs828">
    <linearGradient
       id="linearGradient3"
       inkscape:collect="always">
      <stop
         style="stop-color:#ff0000;stop-opacity:1;"
         offset="0"
         id="stop3" />
      <stop
         style="stop-color:#ff0000;stop-opacity:0;"
         offset="1"
         id="stop4" />
    </linearGradient>
    <radialGradient
       inkscape:collect="always"
       xlink:href="#linearGradient3"
       id="radialGradient4"
       cx="570.94641"
       cy="1334.5107"
       fx="570.94641"
       fy="1334.5107"
       r="778.3939"
       gradientTransform="matrix(0.64043585,-0.22623901,0.19681463,0.55714216,46.970628,689.42524)"
       gradientUnits="userSpaceOnUse" />
  </defs>
  <sodipodi:namedview
     id="namedview826"
     pagecolor="#ffffff"
     bordercolor="#666666"
     borderopacity="1.0"
     inkscape:pageshadow="2"
     inkscape:pageopacity="0.0"
     inkscape:pagecheckerboard="0"
     showgrid="false"
     inkscape:zoom="0.080067407"
     inkscape:cx="911.73179"
     inkscape:cy="1030.3818"
     inkscape:window-width="1920"
     inkscape:window-height="1001"
     inkscape:window-x="-9"
     inkscape:window-y="-9"
     inkscape:window-maximized="1"
     inkscape:current-layer="g12988"
     inkscape:showpageshadow="2"
     inkscape:deskcolor="#d1d1d1" />
  <g
     id="layer1"
     inkscape:label="Ying"
     style="display:inline"
     inkscape:groupmode="layer">
    <g
       id="g12988"
       inkscape:label="head"
       transform="rotate(5.8092557,-745.83591,2202.8207)">
      <path
         style="fill:#ffcb4c;stroke:#ffcb4c;stroke-width:64.0001;stroke-linecap:round;stroke-linejoin:round;stroke-dashoffset:172.8;paint-order:fill markers stroke;stop-color:#000000"
         d="m 944.93455,1347.7403 730.56905,-74.3277 -28.0221,-275.42983 c 0,0 -166.5692,34.72343 -239.9429,52.72623 4.2376,-18.6805 21.5214,-38.4874 47.0715,-59.00793 -98.174,4.1957 -188.1226,51.04623 -281.3142,81.07993"
         id="path957"
         sodipodi:nodetypes="cccccc"
         inkscape:transform-center-x="-291.63356"
         inkscape:transform-center-y="18.685126" />
      <path
         style="display:none;fill:#123456;stroke:#123456;stroke-width:64;stroke-linecap:round;stroke-linejoin:round;-inkscape-stroke:none;paint-order:fill markers stroke;stop-color:#000000"
         d="m 788.00194,655.54198 c 139.29076,53.76347 296.29416,60.90169 412.33606,175.86603 -34.8046,4.62224 -52.0513,25.21307 -51.7401,61.773 104.7116,-17.68164 161.492,174.53049 238.4502,228.73379 l -73.7404,-9.3379 c 63.0766,113.1295 203.2393,242.3839 203.2393,242.3839 -200.4171,20.9023 -744.36244,135.7637 -757.91775,-1.4852 -139.05503,-206.4786 84.15528,-440.56597 29.37269,-697.93362 z"
         id="path3091"
         sodipodi:nodetypes="cccccccc"
         inkscape:label="mane" />
      <path
         style="display:inline;fill:none;fill-opacity:1;stroke:#f19020;stroke-width:32;stroke-linecap:round;stroke-linejoin:round;stroke-miterlimit:4;stroke-dasharray:none;stroke-dashoffset:0;stroke-opacity:1;paint-order:fill markers stroke;stop-color:#000000"
         d="M -23.326003,890.69142 C 146.28562,859.73373 342.70426,852.29769 501.87817,874.82326"
         id="path6280-0-6"
         sodipodi:nodetypes="cc"
         inkscape:label="eyelash left small"
         inkscape:transform-center-x="245.38549"
         inkscape:transform-center-y="-81.939857" />
      <path
         style="display:inline;fill:none;fill-opacity:1;stroke:#f19020;stroke-width:32;stroke-linecap:round;stroke-linejoin:round;stroke-miterlimit:4;stroke-dasharray:none;stroke-dashoffset:0;stroke-opacity:1;paint-order:fill markers stroke;stop-color:#000000"
         d="m -110.74656,758.82798 c 284.39368,-17.69584 551.04694,19.77643 783.29639,164.2355"
         id="path6280-3"
         sodipodi:nodetypes="cc"
         inkscape:label="eyelash left big"
         inkscape:transform-center-x="309.88345"
         inkscape:transform-center-y="-210.71201" />
      <path
         style="opacity:1;fill:#f19020;fill-opacity:1;stroke:#f19020;stroke-width:64;stroke-linecap:round;stroke-miterlimit:4;stroke-dasharray:none;stroke-dashoffset:0;stroke-opacity:1;paint-order:fill markers stroke;stop-color:#000000"
         d="m 568.0612,962.26427 c 0,0 31.04128,-174.4986 115.92077,-336.32087 93.37587,-178.02057 257.08976,-339.21843 320.63703,-313.41655 63.5472,25.80186 77.4531,250.75689 42.7802,388.48437 -34.6729,137.7275 -198.01145,399.64228 -198.01145,399.64228 z"
         id="path1640"
         inkscape:label="left ear"
         sodipodi:nodetypes="cssscc"
         inkscape:transform-center-x="-204.63971"
         inkscape:transform-center-y="-210.51653" />
      <g
         id="g12997"
         inkscape:label="left eye"
         transform="translate(-126.59728,24.50839)"
         style="fill:#d19020;fill-opacity:1">
        <path
           id="path1915-9"
           style="display:inline;fill:#d19020;fill-opacity:1;stroke:#65471b;stroke-width:64;stroke-linecap:round;stroke-linejoin:round;paint-order:fill markers stroke;stop-color:#000000"
           inkscape:label="lefteye"
           d="m 792.61751,1048.7279 c 10e-6,120.7167 -155.86024,218.577 -276.57698,218.577 -120.71674,0 -160.57699,-55.8603 -160.57698,-176.577 0,-120.71673 97.86025,-260.57698 218.57698,-260.57698 120.71673,0 218.57698,97.86025 218.57698,218.57698 z"
           sodipodi:nodetypes="sssss" />
      </g>
      <path
         style="display:inline;fill:none;fill-opacity:1;stroke:#65471b;stroke-width:64;stroke-linecap:round;stroke-linejoin:round;stroke-dashoffset:172.8;stroke-opacity:1;paint-order:fill markers stroke;stop-color:#000000"
         d="m 219.65893,1135.1889 c 0,0 108.01281,-114.5156 178.02605,-128.2964 70.01325,-13.78078 211.70942,64.6165 211.70942,64.6165"
         id="path1645-3"
         sodipodi:nodetypes="csc" />
      <path
         id="path1148"
         style="display:inline;opacity:1;fill:#ffcb4c;stroke:#ffcb4c;stroke-width:64;stroke-linecap:round;stroke-linejoin:round;stroke-miterlimit:4;stroke-dasharray:6.4, 6.4;stroke-dashoffset:0;stroke-opacity:1;paint-order:fill markers stroke;stop-color:#000000"
         inkscape:label="head"
         d="m 1172.4574,1178.067 c 0,0 -0.1078,-10.8206 -0.9512,-28.418 -0.4217,-8.7987 -1.0259,-19.2912 -1.8945,-30.9726 -0.8686,-11.6814 -1.9997,-24.5525 -3.4727,-38.1055 -1.4729,-13.553 -3.2888,-27.7877 -5.5234,-42.2012 -2.2347,-14.4135 -4.8892,-29.0047 -8.043,-43.26756 -1.5769,-7.13143 -3.279,-14.18175 -5.1152,-21.08594 -1.8362,-6.90419 -3.8068,-13.66232 -5.9219,-20.21289 -2.1151,-6.55056 -4.3733,-12.89234 -6.7871,-18.96289 -2.4138,-6.07055 -4.9828,-11.86984 -7.7148,-17.33398 -2.7321,-5.46415 -5.9346,-10.78574 -9.5391,-15.96094 -3.6045,-5.1752 -7.6114,-10.20474 -11.9492,-15.08399 -4.3379,-4.87924 -9.0074,-9.60926 -13.9395,-14.18554 -4.9321,-4.57628 -10.1264,-8.99932 -15.5136,-13.26563 -5.3873,-4.2663 -10.9666,-8.37489 -16.67,-12.32422 -5.7033,-3.94932 -11.5298,-7.73794 -17.4101,-11.36328 -11.7607,-7.25067 -23.7371,-13.84709 -35.3711,-19.75976 -11.63399,-5.91267 -22.92569,-11.14156 -33.32026,-15.66016 -10.3946,-4.5186 -19.8912,-8.32606 -27.9336,-11.39453 -16.08502,-6.13693 -26.35352,-9.31836 -26.35352,-9.31836 -106.83135,-15.98813 -232.17461,6.96944 -312.62504,60.01367 -101.26734,66.76968 -136.88727,176.6295 -198.70703,211.9551 -61.81975,35.3255 -225.20029,77.273 -280.39649,83.8965 -55.196203,6.6235 -183.250347,6.6246 -161.171864,123.6406 22.078481,117.016 94.521571,243.4633 360.382634,215.8962 268.83822,-27.8758 333.97146,-26.6315 555.27994,-56.4939 23.13226,-3.1214 52.23435,-18.757 85.21437,-37.3847 l 213.87106,-11.4278 -92.9258,-75.2558 c 5.3578,-4.8405 10.5999,-9.7184 15.6328,-14.6367 l 142.0762,-2.375 -84.8808,-69.668 c 3.4806,-6.5537 6.4805,-13.0207 8.6269,-19.3066 1.0523,-3.0817 2.0328,-6.6268 3.0469,-9.9766 z"
         sodipodi:nodetypes="csssssssssssssssssscssssssccccccsc" />
      <path
         style="display:none;fill:#123456;stroke:#123456;stroke-width:64;stroke-linecap:round;stroke-linejoin:round;-inkscape-stroke:none;paint-order:fill markers stroke;stop-color:#000000"
         d="M 783.76654,754.53905 C 666.75058,782.13715 525.44829,926.75121 525.44829,926.75121 523.78763,843.70557 514.1148,759.93155 638.04856,688.30359 c -124.69479,-7.45678 -249.2876,-15.1175 -408.45194,46.36482 0,0 303.22641,-263.62224 490.14233,-280.39675 172.2122,-15.45493 264.94176,37.53343 264.94176,37.53343 -0.1923,-45.68323 -31.45767,-88.25915 -90.52174,-128.0552 0,0 295.85163,97.14532 333.38503,194.29065 37.5334,97.14533 28.702,167.79647 28.702,167.79647 l -243.7525,34.92308 c 0,0 -111.71099,-33.81914 -228.72696,-6.22104 z"
         id="path1637"
         sodipodi:nodetypes="zcccsccsccz"
         inkscape:label="top hair" />
      <path
         id="path13483"
         style="display:inline;opacity:1;fill:#ffcb4c;stroke:#ffcb4c;stroke-width:64;stroke-linecap:round;stroke-linejoin:round;stroke-miterlimit:4;stroke-dasharray:6.4, 6.4;stroke-dashoffset:0;stroke-opacity:1;paint-order:fill markers stroke;stop-color:#000000"
         inkscape:label="right ear"
         d="m 1402.5184,296.4125 c -75.6818,-24.2846 -315.3609,197.98423 -367.704,271.55957 -46.60329,65.5072 -176.53475,226.3788 -213.40854,271.95125 0,0 8.80546,6.1667 22.24628,16.92469 6.72027,5.37894 14.59947,11.90589 23.11646,19.38431 8.51688,7.4784 17.67104,15.90725 26.94226,25.09181 9.27114,9.1845 18.65943,19.12468 27.64238,29.62193 4.49142,5.24858 8.88182,10.63625 13.1057,16.13925 4.22406,5.50308 8.28129,11.11986 12.10739,16.82814 3.82613,5.70827 7.42065,11.50685 10.71873,17.37125 3.298,5.86433 6.29895,11.79485 8.93871,17.76615 2.63956,5.97125 4.91821,11.98455 6.76911,18.01355 1.851,6.0291 3.2744,12.0747 4.2064,18.1123 0.9319,6.0376 1.6061,12.3445 2.0497,18.8622 0.4436,6.5178 0.6563,13.2463 0.6687,20.1298 0.013,6.8836 -0.1759,13.9206 -0.5369,21.0558 -0.3611,7.135 -0.8945,14.3681 -1.5719,21.6404 -1.3547,14.5445 -3.2854,29.249 -5.5613,43.656 -2.2761,14.407 -4.89619,28.5158 -7.63455,41.8708 -2.73842,13.3549 -5.59396,25.9563 -8.33588,37.3444 -2.74213,11.3882 -5.37261,21.5636 -7.65933,30.0703 -4.57354,17.0137 -7.77687,27.3497 -7.77687,27.3497 128.14065,-82.3177 375.57065,-262.8223 452.25555,-472.77802 104.9909,-287.4544 58.5,-512.21751 9.4219,-527.96558 z"
         inkscape:transform-center-x="-277.4872"
         inkscape:transform-center-y="-123.14667" />
      <path
         style="display:inline;opacity:1;fill:none;fill-opacity:1;stroke:#ffcb4c;stroke-width:32;stroke-linecap:round;stroke-linejoin:round;stroke-miterlimit:4;stroke-dasharray:none;stroke-dashoffset:0;stroke-opacity:1;paint-order:fill markers stroke;stop-color:#000000"
         d="M -89.234662,547.43541 C 191.92033,593.74723 443.45392,689.86686 637.54311,882.57808"
         id="path6280"
         sodipodi:nodetypes="cc"
         inkscape:label="eyelash right big"
         inkscape:transform-center-x="267.61085"
         inkscape:transform-center-y="-229.36148" />
      <path
         style="display:inline;fill:none;fill-opacity:1;stroke:#ffcb4c;stroke-width:32;stroke-linecap:round;stroke-linejoin:round;stroke-miterlimit:4;stroke-dasharray:none;stroke-dashoffset:0;stroke-opacity:1;paint-order:fill markers stroke;stop-color:#000000"
         d="m 316.96455,479.74554 c 143.64508,95.355 290.28303,226.24767 389.31036,352.88623"
         id="path6280-0"
         sodipodi:nodetypes="cc"
         inkscape:label="eyelash right small"
         inkscape:transform-center-x="102.87503"
         inkscape:transform-center-y="-203.97091" />
      <path
         id="path2"
         style="display:inline;color:#000000;fill:url(#radialGradient4);stroke-linecap:round;stroke-linejoin:round;stroke-dasharray:6.4, 6.4;-inkscape-stroke:none;paint-order:fill markers stroke;fill-opacity:1"
         d="M 1375.5747 263.61106 A 32 32 0 0 0 1371.4297 265.07131 A 32 32 0 0 0 1367.1213 265.13664 C 1364.3418 265.73256 1361.6585 266.40456 1359.0699 267.12193 A 32 32 0 0 0 1355.5105 268.91524 A 32 32 0 0 0 1351.5826 269.38357 C 1349.0958 270.19333 1346.6705 271.04326 1344.3042 271.92237 A 32 32 0 0 0 1341.0934 273.9001 A 32 32 0 0 0 1337.4024 274.61328 C 1335.1042 275.55052 1332.8529 276.51253 1330.6452 277.48974 A 32 32 0 0 0 1327.6554 279.59418 A 32 32 0 0 0 1324.1286 280.47325 C 1321.9662 281.49302 1319.8225 282.53416 1317.6988 283.59712 A 32 32 0 0 0 1314.8951 285.7749 A 32 32 0 0 0 1311.4925 286.77483 C 1309.4061 287.86642 1307.3536 288.96705 1305.3336 290.07139 A 32 32 0 0 0 1302.6381 292.32847 A 32 32 0 0 0 1299.3105 293.42875 C 1297.3141 294.56064 1295.322 295.71017 1293.3359 296.87736 A 32 32 0 0 0 1290.7564 299.17564 A 32 32 0 0 0 1287.4885 300.36015 C 1285.5682 301.5218 1283.6326 302.70395 1281.6839 303.91711 A 32 32 0 0 0 1279.1856 306.26014 A 32 32 0 0 0 1275.9828 307.50674 C 1274.1005 308.70617 1272.2066 309.92472 1270.3046 311.16667 A 32 32 0 0 0 1267.8782 313.54165 A 32 32 0 0 0 1264.7408 314.83263 C 1262.8541 316.08687 1260.9957 317.33675 1259.1674 318.57809 A 32 32 0 0 0 1256.7796 321.00412 A 32 32 0 0 0 1253.662 322.35395 C 1251.8391 323.61475 1250.0106 324.88956 1248.1793 326.18049 A 32 32 0 0 0 1245.8596 328.61922 A 32 32 0 0 0 1242.7925 330.00318 C 1240.9765 331.30095 1239.1762 332.60111 1237.3896 333.90013 A 32 32 0 0 0 1235.1047 336.37261 A 32 32 0 0 0 1232.0618 337.80123 C 1230.2737 339.11864 1228.5013 340.43575 1226.7428 341.7505 A 32 32 0 0 0 1224.4924 344.25286 A 32 32 0 0 0 1221.4672 345.72089 C 1219.7146 347.04875 1217.9653 348.38252 1216.2202 349.72174 A 32 32 0 0 0 1214.0089 352.24172 A 32 32 0 0 0 1211.0069 353.74469 C 1209.2739 355.09054 1207.5445 356.44242 1205.8166 357.80064 A 32 32 0 0 0 1203.6389 360.34271 A 32 32 0 0 0 1200.6632 361.87246 C 1198.9473 363.23586 1197.2361 364.60438 1195.5269 365.97787 A 32 32 0 0 0 1193.3805 368.53835 A 32 32 0 0 0 1190.4257 370.09935 C 1188.7259 371.47917 1187.0296 372.86208 1185.3391 374.24879 A 32 32 0 0 0 1183.2204 376.83002 A 32 32 0 0 0 1180.2821 378.41878 C 1178.6002 379.81203 1176.9211 381.21023 1175.2451 382.61225 A 32 32 0 0 0 1173.1517 385.21054 A 32 32 0 0 0 1170.2354 386.82259 C 1168.5661 388.23183 1166.9002 389.64451 1165.2384 391.06108 A 32 32 0 0 0 1163.1756 393.67194 A 32 32 0 0 0 1160.2755 395.30787 C 1158.6172 396.73348 1156.9636 398.16197 1155.3165 399.59157 A 32 32 0 0 0 1153.2775 402.22358 A 32 32 0 0 0 1150.3972 403.88104 C 1148.7504 405.32181 1147.1092 406.76538 1145.4759 408.20802 A 32 32 0 0 0 1143.4634 410.84912 A 32 32 0 0 0 1140.5976 412.5326 C 1138.9631 413.9875 1137.334 415.44524 1135.7139 416.90091 A 32 32 0 0 0 1133.7229 419.5614 A 32 32 0 0 0 1130.8731 421.26682 C 1129.2512 422.73532 1127.6375 424.20584 1126.0307 425.67412 A 32 32 0 0 0 1124.0613 428.35401 A 32 32 0 0 0 1121.222 430.08583 C 1119.6138 431.56693 1118.014 433.04755 1116.4205 434.52824 A 32 32 0 0 0 1114.4689 437.22793 A 32 32 0 0 0 1111.6403 438.98811 C 1110.0543 440.47461 1108.4651 441.96738 1106.8761 443.4699 A 32 32 0 0 0 1104.9517 446.18645 A 32 32 0 0 0 1102.1428 447.96622 C 1100.5655 449.46964 1098.9869 450.98187 1097.4077 452.502 A 32 32 0 0 0 1095.5117 455.22743 A 32 32 0 0 0 1092.719 457.03108 C 1091.1425 458.55996 1089.5784 460.08698 1088.0236 461.60993 A 32 32 0 0 0 1086.1405 464.36547 A 32 32 0 0 0 1083.3552 466.2037 C 1081.8046 467.73672 1080.25 469.27983 1078.6945 470.83399 A 32 32 0 0 0 1076.8425 473.60599 A 32 32 0 0 0 1074.0718 475.47219 C 1072.5348 477.02218 1070.9965 478.58384 1069.4539 480.15701 A 32 32 0 0 0 1067.6276 482.94996 A 32 32 0 0 0 1064.8685 484.85228 C 1063.3428 486.42415 1061.8152 488.00779 1060.2867 489.60215 A 32 32 0 0 0 1058.4851 492.42596 A 32 32 0 0 0 1055.7436 494.36575 C 1054.2306 495.96225 1052.7187 497.56768 1051.2079 499.18357 A 32 32 0 0 0 1049.4317 502.04406 A 32 32 0 0 0 1046.7083 504.02716 C 1045.2038 505.65786 1043.7029 507.29611 1042.2081 508.94345 A 32 32 0 0 0 1040.4641 511.84975 A 32 32 0 0 0 1037.758 513.88802 C 1036.264 515.56088 1034.7819 517.23868 1033.3108 518.91868 A 32 32 0 0 0 1031.5954 521.8947 A 32 32 0 0 0 1028.9014 524.01224 C 1027.4234 525.73649 1025.9526 527.47148 1024.4937 529.21949 A 32 32 0 0 0 1022.8175 532.29164 A 32 32 0 0 0 1020.1243 534.53278 C 1018.677 536.32081 1017.2205 538.1509 1015.7614 540.02603 A 32 32 0 0 0 1014.1438 543.24928 A 32 32 0 0 0 1011.4683 545.6653 C 1009.8903 547.78591 1008.5403 549.70306 1007.3524 551.36704 A 32 32 0 0 0 1006.0659 554.21697 A 32 32 0 0 0 1003.7637 556.3457 C 1002.5081 558.07413 1001.2898 559.75459 1000.0962 561.37948 A 32 32 0 0 0 998.73534 564.28998 A 32 32 0 0 0 996.3791 566.42813 L 994.43029 569.05881 L 992.60148 571.51827 A 32 32 0 0 0 991.2305 574.40624 A 32 32 0 0 0 988.82901 576.56273 C 987.58403 578.22536 986.32713 579.89408 985.05902 581.57357 A 32 32 0 0 0 983.6529 584.48278 A 32 32 0 0 0 981.24322 586.61655 L 979.42751 589.01185 L 977.39791 591.67824 A 32 32 0 0 0 975.98458 594.57445 A 32 32 0 0 0 973.55741 596.70999 C 972.27298 598.39023 970.99166 600.06132 969.71493 601.72231 A 32 32 0 0 0 968.27443 604.64092 A 32 32 0 0 0 965.82588 606.77864 C 964.54059 608.44845 963.25344 610.11712 961.96318 611.78516 A 32 32 0 0 0 960.51237 614.69893 A 32 32 0 0 0 958.05741 616.83141 C 956.76714 618.49756 955.47169 620.16619 954.17294 621.83623 A 32 32 0 0 0 952.71396 624.74689 A 32 32 0 0 0 950.25257 626.87414 C 948.95588 628.53982 947.65587 630.20815 946.35216 631.87665 A 32 32 0 0 0 944.88696 634.78403 A 32 32 0 0 0 942.4174 636.90818 C 941.11375 638.57514 939.81125 640.24087 938.50474 641.90605 A 32 32 0 0 0 937.03311 644.80818 A 32 32 0 0 0 934.55927 646.92884 C 933.2484 648.59822 931.93941 650.26685 930.63107 651.92829 A 32 32 0 0 0 929.1571 654.82674 A 32 32 0 0 0 926.67878 656.94197 L 925.35587 658.62357 L 922.73329 661.94514 A 32 32 0 0 0 921.2531 664.8403 A 32 32 0 0 0 918.78506 666.94074 L 914.8118 671.96048 A 32 32 0 0 0 913.33665 674.84727 A 32 32 0 0 0 910.8554 676.95298 L 908.60241 679.79719 L 906.89705 681.94567 A 32 32 0 0 0 905.4089 684.83968 A 32 32 0 0 0 902.93074 686.93722 L 898.94658 691.94629 A 32 32 0 0 0 897.45997 694.83621 A 32 32 0 0 0 894.97599 696.93434 L 891.77953 700.94449 L 890.99937 701.92105 A 32 32 0 0 0 889.50014 704.82207 A 32 32 0 0 0 887.00898 706.92682 L 886.20438 707.93335 L 883.02808 711.91004 A 32 32 0 0 0 881.53175 714.80095 A 32 32 0 0 0 879.04543 716.89539 L 875.16148 721.75095 L 875.05676 721.8794 A 32 32 0 0 0 873.55305 724.77498 A 32 32 0 0 0 871.05741 726.87431 L 869.71447 728.55205 L 867.06485 731.85871 A 32 32 0 0 0 865.5625 734.74827 A 32 32 0 0 0 863.07015 736.84136 L 859.06672 741.83472 A 32 32 0 0 0 858.80232 742.34261 C 856.53121 742.30351 854.26147 742.27725 851.99026 742.26805 A 32 32 0 0 0 848.59252 742.92981 A 32 32 0 0 0 845.18126 742.28152 C 842.95009 742.30102 840.67238 742.3321 838.34987 742.38366 A 32 32 0 0 0 835.00942 743.12597 A 32 32 0 0 0 831.62065 742.56374 C 829.33254 742.63824 827.06489 742.72985 824.81598 742.83199 A 32 32 0 0 0 821.45876 743.66043 A 32 32 0 0 0 818.04896 743.18083 C 815.77739 743.31083 813.50178 743.45833 811.22437 743.61994 A 32 32 0 0 0 807.91626 744.52584 A 32 32 0 0 0 804.51107 744.13019 C 802.23702 744.31526 799.96565 744.51665 797.69338 744.73351 A 32 32 0 0 0 794.40542 745.72177 A 32 32 0 0 0 790.97745 745.41089 C 788.71944 745.65131 786.46613 745.90486 784.21522 746.17348 A 32 32 0 0 0 780.93751 747.24316 A 32 32 0 0 0 777.51201 747.01448 C 775.24898 747.31002 772.98796 747.62097 770.72986 747.94793 A 32 32 0 0 0 767.49699 749.09158 A 32 32 0 0 0 764.07027 748.94744 C 761.81585 749.29798 759.56207 749.66508 757.31095 750.04741 A 32 32 0 0 0 754.10018 751.27322 A 32 32 0 0 0 750.65087 751.2158 C 748.41675 751.6214 746.18199 752.03959 743.95091 752.47464 A 32 32 0 0 0 740.7566 753.78515 A 32 32 0 0 0 737.3158 753.81129 C 735.07536 754.27503 732.83958 754.75418 730.60856 755.24951 A 32 32 0 0 0 727.45559 756.63828 A 32 32 0 0 0 723.99085 756.75716 C 721.78526 757.27496 719.57289 757.80751 717.35717 758.3587 A 32 32 0 0 0 714.22301 759.83586 A 32 32 0 0 0 710.76347 760.04452 C 708.55636 760.62348 706.35288 761.21857 704.1542 761.82812 A 32 32 0 0 0 701.05419 763.39015 A 32 32 0 0 0 697.59054 763.69346 C 695.39504 764.33363 693.20812 764.99002 691.0292 765.65869 A 32 32 0 0 0 687.95617 767.31221 A 32 32 0 0 0 684.49289 767.7156 C 682.31674 768.41721 680.14064 769.13509 677.96666 769.87161 A 32 32 0 0 0 674.94198 771.61445 A 32 32 0 0 0 671.48703 772.11908 C 669.32179 772.88751 667.16003 773.67331 665.00294 774.47695 A 32 32 0 0 0 662.01943 776.31571 A 32 32 0 0 0 658.57147 776.92761 C 656.4217 777.76553 654.27747 778.62036 652.14001 779.49411 A 32 32 0 0 0 649.20624 781.4358 A 32 32 0 0 0 645.76586 782.16079 C 643.63432 783.07204 641.51146 784.00061 639.39989 784.9464 A 32 32 0 0 0 636.5145 786.99702 A 32 32 0 0 0 633.08055 787.84308 C 630.9827 788.8267 628.8832 789.83357 626.78378 790.86509 A 32 32 0 0 0 623.96387 793.01899 A 32 32 0 0 0 620.55482 793.99405 C 618.46722 795.06639 616.39506 796.15828 614.3366 797.2672 A 32 32 0 0 0 611.58007 799.54227 A 32 32 0 0 0 608.18156 800.65957 C 606.13417 801.81492 604.09144 802.99586 602.05554 804.20212 A 32 32 0 0 0 599.37851 806.6026 A 32 32 0 0 0 596.00689 807.86833 C 593.99931 809.11558 591.99581 810.39358 589.99661 811.69948 A 32 32 0 0 0 587.43094 814.21034 A 32 32 0 0 0 584.13981 815.6112 C 582.1731 816.95302 580.23632 818.30805 578.32758 819.67152 A 32 32 0 0 0 575.87421 822.28287 A 32 32 0 0 0 572.64764 823.81654 C 570.75918 825.22273 568.88242 826.65027 567.01906 828.09966 A 32 32 0 0 0 564.68982 830.7926 A 32 32 0 0 0 561.52547 832.45541 C 559.7125 833.92197 557.90264 835.41256 556.10088 836.9298 A 32 32 0 0 0 553.88742 839.69931 A 32 32 0 0 0 550.8138 841.46283 C 549.0453 843.00626 547.29973 844.56008 545.57514 846.12443 A 32 32 0 0 0 543.47121 848.96722 A 32 32 0 0 0 540.46387 850.84179 C 538.77321 852.4297 537.09897 854.03385 535.43651 855.65073 A 32 32 0 0 0 533.44035 858.5493 A 32 32 0 0 0 530.51827 860.50943 C 528.88668 862.14808 527.26985 863.80078 525.6686 865.46324 A 32 32 0 0 0 523.78096 868.40574 A 32 32 0 0 0 520.94316 870.44171 C 519.37079 872.12224 517.81509 873.80996 516.27559 875.50657 A 32 32 0 0 0 514.4879 878.48601 A 32 32 0 0 0 511.72757 880.58871 C 510.21404 882.30126 508.71563 884.01835 507.2339 885.74188 A 32 32 0 0 0 505.5372 888.74741 A 32 32 0 0 0 502.84907 890.90362 C 501.39008 892.64126 499.94786 894.38156 498.52108 896.12239 A 32 32 0 0 0 496.91032 899.14273 A 32 32 0 0 0 494.3087 901.31959 C 492.87057 903.10715 491.47238 904.86931 490.11064 906.59974 A 32 32 0 0 0 488.56637 909.63688 A 32 32 0 0 0 486.01807 911.85542 C 484.64508 913.6299 483.28789 915.40176 481.94698 917.16782 A 32 32 0 0 0 480.47576 920.18967 A 32 32 0 0 0 477.97162 922.4371 C 476.6573 924.19096 475.34345 925.95481 474.03012 927.73042 A 32 32 0 0 0 472.61406 930.73488 A 32 32 0 0 0 470.16259 932.97891 C 468.86738 934.74371 467.58361 936.49937 466.31258 938.24525 A 32 32 0 0 0 464.92741 941.24461 A 32 32 0 0 0 462.50897 943.48528 L 460.91138 945.68955 A 32.0032 32.0032 0 0 0 460.89761 945.70862 L 458.74475 948.68792 A 32 32 0 0 0 457.38692 951.64719 A 32 32 0 0 0 455.00612 953.85262 L 452.94883 956.69066 L 451.27329 958.9971 A 32 32 0 0 0 449.93188 961.90563 A 32 32 0 0 0 447.57414 964.06748 C 446.3422 965.74932 445.1133 967.41917 443.8879 969.07176 A 32 32 0 0 0 442.54036 971.92005 A 32 32 0 0 0 440.19572 974.01775 C 438.9633 975.65546 437.73807 977.27092 436.51834 978.85818 A 32 32 0 0 0 435.1491 981.62818 A 32 32 0 0 0 432.80528 983.63745 C 431.58403 985.19147 430.35537 986.7304 429.11895 988.25499 A 32 32 0 0 0 427.72521 990.89988 A 32 32 0 0 0 425.39999 992.76394 C 424.15405 994.24694 422.91368 995.69513 421.67587 997.10655 A 32 32 0 0 0 420.23213 999.60732 A 32 32 0 0 0 417.90759 1001.3044 C 416.6636 1002.6567 415.41069 1003.9826 414.14612 1005.2798 A 32 32 0 0 0 412.65596 1007.5752 A 32 32 0 0 0 410.36076 1009.0397 C 409.09917 1010.2505 407.83608 1011.4197 406.56913 1012.545 A 32 32 0 0 0 405.02158 1014.5851 A 32 32 0 0 0 402.75819 1015.7833 C 401.49534 1016.8099 400.23939 1017.7821 398.9906 1018.6952 A 32 32 0 0 0 397.37863 1020.4494 A 32 32 0 0 0 395.18076 1021.3268 C 393.95397 1022.1236 392.70337 1022.8806 391.42859 1023.5991 A 32 32 0 0 0 389.3126 1025.4163 A 32 32 0 0 0 386.6462 1026.2039 C 385.03051 1027.052 383.37167 1027.8915 381.67302 1028.7281 A 32 32 0 0 0 379.35096 1030.5074 A 32 32 0 0 0 376.49727 1031.21 C 374.75873 1032.0221 372.9924 1032.8251 371.19876 1033.6239 A 32 32 0 0 0 368.73166 1035.367 A 32 32 0 0 0 365.76997 1035.9922 C 363.94333 1036.7734 362.11097 1037.5427 360.27402 1038.2986 A 32 32 0 0 0 357.69783 1040.0115 A 32 32 0 0 0 354.64004 1040.5798 C 352.78611 1041.3209 350.92119 1042.054 349.04285 1042.7787 A 32 32 0 0 0 346.39625 1044.4556 A 32 32 0 0 0 343.31464 1044.9635 C 341.3977 1045.6846 339.49231 1046.3945 337.59411 1047.0886 A 32 32 0 0 0 334.89304 1048.7317 A 32 32 0 0 0 331.76782 1049.1969 C 329.8517 1049.8836 327.92006 1050.566 325.97661 1051.2448 A 32 32 0 0 0 323.25021 1052.8513 A 32 32 0 0 0 320.10122 1053.2757 C 318.16624 1053.9392 316.21929 1054.5993 314.258 1055.2562 A 32 32 0 0 0 311.49909 1056.8326 A 32 32 0 0 0 308.34226 1057.2186 C 306.37892 1057.8648 304.41423 1058.5052 302.45151 1059.1372 A 32 32 0 0 0 299.66264 1060.6892 A 32 32 0 0 0 296.50419 1061.0399 C 294.50604 1061.6727 292.52898 1062.2946 290.57234 1062.9019 A 32 32 0 0 0 287.75369 1064.4313 A 32 32 0 0 0 284.57478 1064.7548 C 282.57987 1065.3657 280.59195 1065.968 278.61194 1066.5629 A 32 32 0 0 0 275.77692 1068.0666 A 32 32 0 0 0 272.57562 1068.3628 C 270.60821 1068.9471 268.61316 1069.5319 266.58821 1070.1224 A 32 32 0 0 0 263.75625 1071.5983 A 32 32 0 0 0 260.56384 1071.8661 C 258.56465 1072.4403 256.56442 1073.0076 254.56118 1073.5723 A 32 32 0 0 0 251.70353 1075.0272 A 32 32 0 0 0 248.51787 1075.2649 C 246.48728 1075.8288 244.47818 1076.3861 242.48929 1076.9286 A 32 32 0 0 0 239.60789 1078.3624 A 32 32 0 0 0 236.4082 1078.578 C 234.38836 1079.1222 232.37414 1079.661 230.36671 1080.1919 A 32 32 0 0 0 227.481 1081.6026 A 32 32 0 0 0 224.27096 1081.7937 C 222.26927 1082.3166 220.25139 1082.8368 218.2185 1083.3577 A 32 32 0 0 0 215.33022 1084.7431 A 32 32 0 0 0 212.12519 1084.9062 C 210.12032 1085.4124 208.10037 1085.9145 206.06544 1086.418 A 32 32 0 0 0 203.17265 1087.7783 A 32 32 0 0 0 199.97049 1087.9117 C 197.95271 1088.4026 195.93128 1088.8898 193.90929 1089.3706 A 32 32 0 0 0 191.00576 1090.7025 A 32 32 0 0 0 187.81638 1090.8071 C 185.78252 1091.2814 183.76138 1091.7483 181.75099 1092.2056 A 32 32 0 0 0 178.83458 1093.5075 A 32 32 0 0 0 175.64184 1093.579 C 173.62288 1094.0289 171.60731 1094.4718 169.59285 1094.9071 A 32 32 0 0 0 166.67677 1096.1736 A 32 32 0 0 0 163.51155 1096.2071 C 161.48735 1096.6325 159.47688 1097.0468 157.47953 1097.4509 A 32 32 0 0 0 154.57016 1098.6677 A 32 32 0 0 0 151.41594 1098.6548 C 149.42586 1099.0433 147.43578 1099.4242 145.44378 1099.7925 A 32 32 0 0 0 142.56267 1100.9396 A 32 32 0 0 0 139.4651 1100.8661 C 137.50532 1101.2078 135.55589 1101.5347 133.61413 1101.8442 A 32 32 0 0 0 130.81018 1102.8813 A 32 32 0 0 0 127.82672 1102.7137 C 126.00109 1102.9728 124.16469 1103.209 122.31733 1103.4215 A 32 32 0 0 0 119.39718 1104.3586 A 32 32 0 0 0 116.31906 1104.071 C 114.32571 1104.2771 112.26032 1104.4786 110.12698 1104.6872 A 32 32 0 0 0 107.02066 1105.6276 A 32 32 0 0 0 103.78758 1105.3028 L 103.78564 1105.3029 A 32.0032 32.0032 0 0 0 103.75416 1105.3022 L 100.50994 1105.6205 A 32.0032 32.0032 0 0 0 100.4501 1105.6305 L 97.325015 1105.9426 A 32 32 0 0 0 94.080406 1106.9323 A 32 32 0 0 0 90.716189 1106.6307 C 88.504529 1106.8684 86.277901 1107.1168 84.033231 1107.3813 A 32 32 0 0 0 80.766395 1108.442 A 32 32 0 0 0 77.322613 1108.2073 C 75.083627 1108.4967 72.807668 1108.805 70.499068 1109.1391 A 32 32 0 0 0 67.211224 1110.3021 A 32 32 0 0 0 63.707178 1110.1697 C 61.397231 1110.5387 59.089411 1110.9305 56.7828 1111.3454 A 32 32 0 0 0 53.441379 1112.6571 A 32 32 0 0 0 49.845848 1112.6676 C 47.50845 1113.138 45.172642 1113.6371 42.836516 1114.166 A 32 32 0 0 0 39.470929 1115.6647 A 32 32 0 0 0 35.786123 1115.859 C 33.42776 1116.4591 31.053139 1117.099 28.665196 1117.785 A 32 32 0 0 0 25.311476 1119.5161 A 32 32 0 0 0 21.551294 1119.9537 C 19.151089 1120.7282 16.74704 1121.5507 14.344829 1122.4282 A 32 32 0 0 0 11.004065 1124.4604 A 32 32 0 0 0 7.1513535 1125.2234 C 4.7389756 1126.2191 2.3269327 1127.2762 -0.081296075 1128.4054 A 32 32 0 0 0 -3.3685245 1130.8287 A 32 32 0 0 0 -7.2920257 1132.0151 C -9.6873939 1133.294 -12.086818 1134.659 -14.479548 1136.1231 A 32 32 0 0 0 -17.607586 1139.0112 A 32 32 0 0 0 -21.51733 1140.738 C -23.864716 1142.3864 -26.188192 1144.1373 -28.469652 1146 A 32 32 0 0 0 -31.300569 1149.435 A 32 32 0 0 0 -35.09294 1151.8332 C -37.260928 1153.8962 -39.369276 1156.0687 -41.402534 1158.3569 A 32 32 0 0 0 -43.735761 1162.342 A 32 32 0 0 0 -47.168956 1165.4339 C -49.025528 1167.9217 -50.771871 1170.4987 -52.401952 1173.1615 A 32 32 0 0 0 -54.014469 1177.5346 A 32 32 0 0 0 -56.861084 1181.2206 C -58.245274 1184.0046 -59.497445 1186.8423 -60.617485 1189.7226 A 32 32 0 0 0 -61.411587 1194.2285 A 32 32 0 0 0 -63.543948 1198.2776 C -64.402296 1201.1722 -65.135011 1204.0834 -65.748128 1207.0045 A 32 32 0 0 0 -65.794766 1211.4088 A 32 32 0 0 0 -67.226715 1215.5692 C -67.61665 1218.4343 -67.90113 1221.2862 -68.090031 1224.1224 A 32 32 0 0 0 -67.545679 1228.2958 A 32 32 0 0 0 -68.39335 1232.3909 C -68.4154 1235.1797 -68.350793 1237.9195 -68.218865 1240.6088 A 32 32 0 0 0 -67.239039 1244.5278 A 32 32 0 0 0 -67.634991 1248.5475 C -67.378121 1251.1677 -67.060491 1253.7653 -66.688718 1256.3433 A 32 32 0 0 0 -65.392342 1260.0161 A 32 32 0 0 0 -65.44628 1263.9048 C -65.013684 1266.2463 -64.567116 1268.5122 -64.12411 1270.7063 A 32 32 0 0 0 -62.769196 1273.9511 A 32 32 0 0 0 -62.705644 1277.4509 C -62.213104 1279.7105 -61.69945 1281.9663 -61.169174 1284.2168 A 32 32 0 0 0 -59.71075 1287.4177 A 32 32 0 0 0 -59.531928 1290.9313 C -58.96235 1293.1865 -58.370851 1295.4381 -57.75896 1297.6869 A 32 32 0 0 0 -56.181646 1300.86 A 32 32 0 0 0 -55.874744 1304.3783 C -55.219305 1306.6328 -54.544282 1308.8797 -53.846637 1311.1138 A 32 32 0 0 0 -52.138215 1314.2441 A 32 32 0 0 0 -51.697205 1317.7683 C -50.946029 1320.0256 -50.174571 1322.2574 -49.388734 1324.4616 A 32 32 0 0 0 -47.543572 1327.5466 A 32 32 0 0 0 -46.950967 1331.075 C -46.099588 1333.3181 -45.227909 1335.5298 -44.341943 1337.7122 A 32 32 0 0 0 -42.35385 1340.7355 A 32 32 0 0 0 -41.596247 1344.2648 C -40.646098 1346.4646 -39.667928 1348.6539 -38.662595 1350.8317 A 32 32 0 0 0 -36.524031 1353.7709 A 32 32 0 0 0 -35.588222 1357.2959 C -34.540322 1359.4319 -33.454205 1361.5843 -32.320494 1363.7502 A 32 32 0 0 0 -30.035378 1366.5863 A 32 32 0 0 0 -28.919884 1370.0635 C -27.747712 1372.1772 -26.54488 1374.2838 -25.307047 1376.3787 A 32 32 0 0 0 -22.857496 1379.1135 A 32 32 0 0 0 -21.561164 1382.535 C -20.254778 1384.6237 -18.925776 1386.675 -17.58168 1388.6912 A 32 32 0 0 0 -14.966938 1391.3131 A 32 32 0 0 0 -13.456108 1394.701 C -12.05967 1396.6746 -10.615202 1398.6581 -9.1172582 1400.6459 A 32 32 0 0 0 -6.3685152 1403.099 A 32 32 0 0 0 -4.6804396 1406.3766 C -3.1298927 1408.3247 -1.5627023 1410.2245 0.01306514 1412.0832 A 32 32 0 0 0 2.9327954 1414.4031 A 32 32 0 0 0 4.8462023 1417.6185 C 6.4725409 1419.4256 8.1436455 1421.2322 9.8672553 1423.0326 A 32 32 0 0 0 12.908899 1425.1615 A 32 32 0 0 0 14.990559 1428.2361 C 16.744081 1429.9673 18.535121 1431.68 20.362116 1433.3711 A 32 32 0 0 0 23.513618 1435.3062 A 32 32 0 0 0 25.774038 1438.2468 C 27.636726 1439.8778 29.526492 1441.4787 31.443731 1443.0511 A 32 32 0 0 0 34.705092 1444.7925 A 32 32 0 0 0 37.129089 1447.5849 C 39.082627 1449.0998 41.06094 1450.5846 43.061316 1452.0366 A 32 32 0 0 0 46.412512 1453.5803 A 32 32 0 0 0 48.989777 1456.2198 C 51.033919 1457.6213 53.07589 1458.9756 55.112378 1460.285 A 32 32 0 0 0 58.564311 1461.6418 A 32 32 0 0 0 61.295634 1464.1359 C 63.373372 1465.392 65.487938 1466.6298 67.639173 1467.845 A 32 32 0 0 0 71.104534 1468.9864 A 32 32 0 0 0 73.941864 1471.3068 C 76.09293 1472.4527 78.254494 1473.5642 80.426245 1474.6442 A 32 32 0 0 0 83.947256 1475.5994 A 32 32 0 0 0 86.869416 1477.7502 C 89.093953 1478.7919 91.299454 1479.7866 93.483212 1480.7387 A 32 32 0 0 0 97.042781 1481.5132 A 32 32 0 0 0 100.05913 1483.5092 C 102.29633 1484.424 104.53852 1485.3074 106.7837 1486.1586 A 32 32 0 0 0 110.33868 1486.753 A 32 32 0 0 0 113.46265 1488.6104 C 115.65946 1489.3874 117.9145 1490.1635 120.23542 1490.923 A 32 32 0 0 0 123.76329 1491.3474 A 32 32 0 0 0 126.88949 1493.0338 C 129.19565 1493.7426 131.47912 1494.4102 133.73987 1495.048 A 32 32 0 0 0 137.28848 1495.329 A 32 32 0 0 0 140.48772 1496.8842 C 142.79111 1497.4881 145.07365 1498.0579 147.33138 1498.6008 A 32 32 0 0 0 150.89335 1498.7429 A 32 32 0 0 0 154.14854 1500.1727 C 156.42936 1500.6763 158.71395 1501.1576 160.99989 1501.6175 A 32 32 0 0 0 164.5288 1501.6276 A 32 32 0 0 0 167.80222 1502.9279 C 170.09846 1503.3505 172.3975 1503.7517 174.69766 1504.1307 A 32 32 0 0 0 178.1902 1504.0149 A 32 32 0 0 0 181.46712 1505.1951 C 183.7748 1505.5419 186.08228 1505.8661 188.38839 1506.1695 A 32 32 0 0 0 191.85587 1505.9424 A 32 32 0 0 0 195.18313 1507.0193 C 197.44987 1507.2852 199.7394 1507.5374 202.05233 1507.7713 A 32 32 0 0 0 205.48776 1507.4414 A 32 32 0 0 0 208.78861 1508.4131 C 211.13055 1508.6228 213.41832 1508.8036 215.64969 1508.9695 A 32 32 0 0 0 219.10303 1508.5455 A 32 32 0 0 0 222.41965 1509.4214 C 224.75244 1509.5666 227.0406 1509.6867 229.28159 1509.7932 A 32 32 0 0 0 232.68871 1509.2816 A 32 32 0 0 0 236.00829 1510.0708 C 238.35262 1510.1578 240.63053 1510.219 242.84098 1510.2708 A 32 32 0 0 0 246.24175 1509.6775 A 32 32 0 0 0 249.57071 1510.3852 C 251.89281 1510.4152 254.1662 1510.4257 256.38912 1510.4257 A 32 32 0 0 0 259.75847 1509.7551 A 32 32 0 0 0 263.12112 1510.3887 C 265.36349 1510.3657 267.63246 1510.3297 269.92606 1510.2774 A 32 32 0 0 0 274.6983 1509.7919 A 32 32 0 0 0 276.55365 1510.1018 C 278.86109 1510.0318 281.11355 1509.9452 283.30549 1509.8546 A 32 32 0 0 0 288.15025 1509.2714 A 32 32 0 0 0 289.99367 1509.5413 C 292.22737 1509.4282 294.47985 1509.3034 296.75365 1509.1618 A 32 32 0 0 0 301.47019 1508.4954 A 32 32 0 0 0 303.32211 1508.733 C 305.62113 1508.5767 307.86166 1508.4076 310.04651 1508.2354 A 32 32 0 0 0 314.78952 1507.4819 A 32 32 0 0 0 316.63031 1507.6873 C 318.96146 1507.4886 321.17892 1507.2792 323.28475 1507.0809 A 32 32 0 0 0 328.0935 1506.2403 A 32 32 0 0 0 329.94686 1506.4149 L 336.06448 1505.7807 L 336.29785 1505.7589 A 32 32 0 0 0 340.81724 1504.9301 A 32 32 0 0 0 342.65098 1505.1047 L 348.34365 1504.5197 L 349.00256 1504.4546 A 32 32 0 0 0 353.5204 1503.6298 A 32 32 0 0 0 355.35434 1503.8064 L 360.33643 1503.2995 L 361.70651 1503.1621 A 32 32 0 0 0 366.22106 1502.3435 A 32 32 0 0 0 368.05869 1502.5178 L 372.05039 1502.1176 L 374.41165 1501.8813 A 32 32 0 0 0 378.9266 1501.0666 A 32 32 0 0 0 380.76461 1501.2447 L 383.49526 1500.9728 L 387.12011 1500.6138 A 32 32 0 0 0 391.63351 1499.8032 A 32 32 0 0 0 393.47387 1499.9851 L 394.67898 1499.8664 L 399.82977 1499.3581 A 32 32 0 0 0 404.33424 1498.5562 A 32 32 0 0 0 406.17868 1498.7396 L 410.98379 1498.2684 L 412.51962 1498.12 A 32 32 0 0 0 417.04975 1497.3195 A 32 32 0 0 0 418.89051 1497.5052 L 421.55179 1497.2462 L 425.23224 1496.8934 A 32 32 0 0 0 429.75888 1496.0971 A 32 32 0 0 0 431.60352 1496.2825 L 431.88935 1496.2554 L 437.94799 1495.6782 A 32 32 0 0 0 442.46161 1494.8892 A 32 32 0 0 0 444.29285 1495.0778 L 450.66337 1494.4788 A 32 32 0 0 0 455.16942 1493.6925 A 32 32 0 0 0 457.00883 1493.8843 L 461.58857 1493.4556 L 463.35662 1493.2934 A 32 32 0 0 0 467.89047 1492.5102 A 32 32 0 0 0 469.72988 1492.7019 L 471.07763 1492.5766 L 476.08041 1492.1186 A 32 32 0 0 0 480.5993 1491.3428 A 32 32 0 0 0 482.43113 1491.5373 L 488.80537 1490.9555 A 32 32 0 0 0 493.31495 1490.1846 A 32 32 0 0 0 495.15669 1490.38 L 498.44428 1490.0829 L 501.5123 1489.808 A 32 32 0 0 0 506.03587 1489.0396 A 32 32 0 0 0 507.8681 1489.238 L 514.24158 1488.6681 A 32 32 0 0 0 518.76361 1487.9037 A 32 32 0 0 0 520.59992 1488.1036 L 524.32589 1487.7736 L 526.96039 1487.5409 A 32 32 0 0 0 531.48845 1486.7779 A 32 32 0 0 0 533.32476 1486.9778 L 539.69923 1486.4176 A 32 32 0 0 0 544.22185 1485.6591 A 32 32 0 0 0 546.06419 1485.8604 L 548.94606 1485.6084 L 552.4272 1485.3033 A 32 32 0 0 0 556.96401 1484.5492 A 32 32 0 0 0 558.80421 1484.7488 L 564.77432 1484.2277 L 565.17325 1484.193 A 32 32 0 0 0 569.71161 1483.4349 A 32 32 0 0 0 571.54831 1483.6387 L 577.92532 1483.0841 A 32 32 0 0 0 582.46369 1482.3259 A 32 32 0 0 0 584.30428 1482.5294 L 590.68129 1481.9748 A 32 32 0 0 0 595.22334 1481.2143 A 32 32 0 0 0 597.06781 1481.4173 L 602.76161 1480.9205 A 32.0032 32.0032 0 0 0 602.77133 1480.9195 L 603.45414 1480.8579 A 32 32 0 0 0 607.98648 1480.0984 A 32 32 0 0 0 609.83076 1480.2994 L 610.15565 1480.2703 A 32.0032 32.0032 0 0 0 610.16945 1480.2709 L 616.21864 1479.7359 A 32 32 0 0 0 620.77389 1478.9701 A 32 32 0 0 0 622.61214 1479.1699 L 624.80867 1478.9739 A 32.0032 32.0032 0 0 0 624.82829 1478.9738 L 629.00526 1478.5999 A 32 32 0 0 0 633.55992 1477.8283 A 32 32 0 0 0 635.40186 1478.0257 L 639.33146 1477.6711 A 32.0032 32.0032 0 0 0 639.35692 1477.6704 L 641.80216 1477.4491 A 32 32 0 0 0 646.35623 1476.6717 A 32 32 0 0 0 648.2036 1476.8646 L 653.79553 1476.3507 A 32.0032 32.0032 0 0 0 653.82896 1476.3512 L 654.60893 1476.2797 A 32 32 0 0 0 659.14084 1475.4966 A 32 32 0 0 0 660.98005 1475.6865 L 661.02533 1475.6877 A 32.0032 32.0032 0 0 0 661.05856 1475.6863 L 667.38653 1475.0936 A 32 32 0 0 0 671.95845 1474.2986 A 32 32 0 0 0 673.79552 1474.4867 L 675.51809 1474.3212 A 32.0032 32.0032 0 0 0 675.55734 1474.3212 L 680.20585 1473.8737 A 32 32 0 0 0 684.77679 1473.0691 A 32 32 0 0 0 686.6152 1473.2511 L 690.11241 1472.911 A 32.0032 32.0032 0 0 0 690.14389 1472.9117 L 693.01872 1472.6291 A 32 32 0 0 0 697.58438 1471.8112 A 32 32 0 0 0 699.42454 1471.9911 C 701.56136 1471.7778 703.70225 1471.5636 705.8492 1471.3453 A 32 32 0 0 0 710.39639 1470.5195 A 32 32 0 0 0 712.23401 1470.6937 C 714.38925 1470.4733 716.53033 1470.2514 718.65495 1470.0307 A 32 32 0 0 0 723.21047 1469.1903 A 32 32 0 0 0 725.06344 1469.361 C 727.18863 1469.1374 729.32738 1468.9111 731.4826 1468.6804 A 32 32 0 0 0 736.0175 1467.8303 A 32 32 0 0 0 737.86599 1467.9957 C 740.00955 1467.765 742.14978 1467.5317 744.29115 1467.2968 A 32 32 0 0 0 748.82486 1466.4351 A 32 32 0 0 0 750.67276 1466.5945 C 752.82699 1466.3569 754.96704 1466.1188 757.09245 1465.8805 A 32 32 0 0 0 761.64615 1465.003 A 32 32 0 0 0 763.49948 1465.158 L 766.86466 1464.7744 A 32.0032 32.0032 0 0 0 766.89226 1464.7755 L 769.88475 1464.4338 A 32 32 0 0 0 774.44913 1463.5454 A 32 32 0 0 0 776.29778 1463.693 L 779.23139 1463.3513 A 32.0032 32.0032 0 0 0 779.25879 1463.3505 L 782.67933 1462.9515 A 32 32 0 0 0 787.24018 1462.0477 A 32 32 0 0 0 789.08864 1462.1934 L 791.8973 1461.8585 A 32.0032 32.0032 0 0 0 791.9249 1461.8596 L 795.47055 1461.4361 A 32 32 0 0 0 800.03021 1460.5207 A 32 32 0 0 0 801.87633 1460.6627 L 804.89191 1460.297 A 32.0032 32.0032 0 0 0 804.91737 1460.2963 L 808.25666 1459.8898 A 32 32 0 0 0 812.81359 1458.9668 A 32 32 0 0 0 814.66086 1459.1009 L 818.24379 1458.6578 A 32.0032 32.0032 0 0 0 818.26925 1458.6572 L 821.03766 1458.3127 A 32 32 0 0 0 825.57786 1457.3796 A 32 32 0 0 0 827.43679 1457.5124 L 831.978 1456.9366 A 32.0032 32.0032 0 0 0 832.00365 1456.9379 L 833.81182 1456.7068 A 32 32 0 0 0 838.33762 1455.7673 A 32 32 0 0 0 840.18022 1455.894 C 842.3113 1455.622 844.44739 1455.3484 846.58495 1455.0716 A 32 32 0 0 0 851.10394 1454.123 A 32 32 0 0 0 852.95391 1454.2449 L 855.79458 1453.8774 A 32.0032 32.0032 0 0 0 855.82003 1453.8768 L 859.32307 1453.4202 A 32 32 0 0 0 863.86225 1452.4578 A 32 32 0 0 0 865.71396 1452.5776 L 870.68861 1451.9204 A 32.0032 32.0032 0 0 0 870.71018 1451.9201 L 872.08134 1451.7355 A 32 32 0 0 0 876.6005 1450.7692 A 32 32 0 0 0 878.44793 1450.8855 L 880.88249 1450.5593 A 32.0032 32.0032 0 0 0 880.90426 1450.561 L 884.81238 1450.0338 A 32 32 0 0 0 890.53305 1448.6626 A 32 32 0 0 0 893.21963 1448.6523 C 896.09415 1448.0696 898.85211 1447.3994 901.50168 1446.677 A 32 32 0 0 0 906.85214 1444.6386 A 32 32 0 0 0 909.21777 1444.3489 C 911.72034 1443.525 914.14832 1442.6597 916.50996 1441.7714 A 32 32 0 0 0 921.34413 1439.4439 A 32 32 0 0 0 923.43028 1439.0314 C 925.71033 1438.0878 927.94502 1437.121 930.13696 1436.1405 A 32 32 0 0 0 934.63427 1433.6667 A 32 32 0 0 0 936.54716 1433.1914 C 938.69347 1432.178 940.79245 1431.1561 942.84854 1430.1375 A 32 32 0 0 0 947.14222 1427.5725 A 32 32 0 0 0 948.96796 1427.0511 C 950.99246 1426.0121 952.99859 1424.9656 954.98429 1423.9163 A 32 32 0 0 0 959.08416 1421.318 A 32 32 0 0 0 960.88302 1420.764 C 962.84061 1419.7069 964.78576 1418.6445 966.7197 1417.5807 A 32 32 0 0 0 970.67245 1414.9836 A 32 32 0 0 0 972.43106 1414.4199 C 973.70151 1413.7144 974.93737 1413.0182 976.18119 1412.3206 L 976.30769 1412.3097 A 32 32 0 0 0 980.86944 1411.7042 A 32 32 0 0 0 982.69848 1411.9677 L 989.08946 1411.6277 A 32 32 0 0 0 993.64733 1411.0226 A 32 32 0 0 0 995.48025 1411.2857 L 1001.871 1410.9437 A 32 32 0 0 0 1006.433 1410.3402 A 32 32 0 0 0 1008.264 1410.6035 L 1014.6547 1410.2615 A 32 32 0 0 0 1019.2165 1409.6561 A 32 32 0 0 0 1021.0455 1409.9196 L 1027.4363 1409.5776 A 32 32 0 0 0 1031.9905 1408.9749 A 32 32 0 0 0 1033.8254 1409.2378 L 1040.2161 1408.8958 A 32 32 0 0 0 1044.7798 1408.2901 A 32 32 0 0 0 1046.6069 1408.5538 L 1052.9977 1408.2119 A 32 32 0 0 0 1057.5614 1407.6062 A 32 32 0 0 0 1059.3904 1407.8697 L 1065.7814 1407.5297 A 32 32 0 0 0 1070.341 1406.9225 A 32 32 0 0 0 1072.1722 1407.1877 L 1078.5632 1406.8477 A 32 32 0 0 0 1083.1189 1406.2408 A 32 32 0 0 0 1084.954 1406.5057 L 1091.3448 1406.1637 A 32 32 0 0 0 1095.9065 1405.5583 A 32 32 0 0 0 1097.7336 1405.8219 L 1104.1244 1405.48 A 32 32 0 0 0 1108.6881 1404.8743 A 32 32 0 0 0 1110.5171 1405.1378 L 1116.9079 1404.7958 A 32 32 0 0 0 1121.4621 1404.1931 A 32 32 0 0 0 1123.2989 1404.4558 L 1129.6897 1404.1138 A 32 32 0 0 0 1134.2514 1403.5084 A 32 32 0 0 0 1136.0805 1403.7719 L 1142.4714 1403.4318 A 32 32 0 0 0 1147.0332 1402.8264 A 32 32 0 0 0 1148.8622 1403.0899 L 1155.255 1402.7477 A 32 32 0 0 0 1159.8089 1402.143 A 32 32 0 0 0 1161.644 1402.4079 L 1168.0348 1402.0659 A 32 32 0 0 0 1172.5907 1401.461 A 32 32 0 0 0 1174.4256 1401.7239 L 1180.8164 1401.3819 A 32 32 0 0 0 1211.0626 1367.7199 A 32 32 0 0 0 1206.6995 1353.9148 A 32 32 0 0 0 1197.4241 1341.5538 L 1192.4519 1337.5267 A 32 32 0 0 0 1190.8152 1336.6645 A 32 32 0 0 0 1187.4776 1333.4978 L 1182.5034 1329.4708 A 32 32 0 0 0 1180.8626 1328.607 A 32 32 0 0 0 1177.5291 1325.4419 L 1172.5568 1321.4147 A 32 32 0 0 0 1170.9203 1320.5544 A 32 32 0 0 0 1167.5844 1317.3856 L 1162.6103 1313.3586 A 32 32 0 0 0 1160.9695 1312.4948 A 32 32 0 0 0 1158.6682 1310.3103 A 32 32 0 0 0 1159.7503 1310.5065 L 1166.1492 1310.3992 A 32 32 0 0 0 1170.7243 1309.9632 A 32 32 0 0 0 1172.5462 1310.2922 L 1178.9471 1310.1848 A 32 32 0 0 0 1183.5319 1309.7478 A 32 32 0 0 0 1185.3461 1310.0776 L 1191.7433 1309.9725 A 32 32 0 0 0 1196.3221 1309.5342 A 32 32 0 0 0 1198.1442 1309.8651 L 1204.5432 1309.7579 A 32 32 0 0 0 1209.1278 1309.3189 A 32 32 0 0 0 1210.9422 1309.6507 L 1217.3411 1309.5434 A 32 32 0 0 0 1221.9181 1309.1072 A 32 32 0 0 0 1223.7401 1309.4362 L 1230.141 1309.3288 A 32 32 0 0 0 1234.7238 1308.892 A 32 32 0 0 0 1236.54 1309.2216 L 1242.937 1309.1146 A 32 32 0 0 0 1272.3095 1288.2453 A 32 32 0 0 0 1263.5409 1250.3386 L 1258.5949 1246.2793 A 32 32 0 0 0 1256.9652 1245.4085 A 32 32 0 0 0 1253.6467 1242.2182 L 1248.7007 1238.159 A 32 32 0 0 0 1247.0688 1237.2865 A 32 32 0 0 0 1243.7546 1234.0997 L 1238.8065 1230.0386 A 32 32 0 0 0 1237.1746 1229.1661 A 32 32 0 0 0 1233.8602 1225.9774 L 1228.9121 1221.9164 A 32 32 0 0 0 1227.2802 1221.0439 A 32 32 0 0 0 1223.9641 1217.8573 L 1219.0178 1213.7961 A 32 32 0 0 0 1217.3841 1212.9237 A 32 32 0 0 0 1214.0697 1209.735 L 1209.1236 1205.6757 A 32 32 0 0 0 1207.4856 1204.7999 A 32 32 0 0 0 1204.1757 1201.6167 L 1201.2603 1199.2237 L 1200.5809 1200.5159 A 32 32 0 0 0 1199.3655 1198.9119 A 32 32 0 0 0 1199.766 1198.2174 C 1199.789 1198.1494 1199.7979 1198.1104 1199.8209 1198.043 C 1200.7435 1195.3062 1201.4537 1192.8941 1202.0429 1190.9005 A 32 32 0 0 0 1203.1737 1184.2618 A 32 32 0 0 0 1204.4104 1174.9795 C 1204.3674 1172.7221 1204.3121 1170.4863 1204.2479 1168.2682 A 32 32 0 0 0 1203.827 1166.4283 A 32 32 0 0 0 1204.0358 1161.6875 C 1203.9578 1159.4498 1203.8692 1157.2414 1203.7779 1155.0624 A 32 32 0 0 0 1203.3373 1153.2402 A 32 32 0 0 0 1203.4856 1148.5036 C 1203.3795 1146.2513 1203.2612 1144.0232 1203.1377 1141.8228 A 32 32 0 0 0 1202.6734 1140.0188 A 32 32 0 0 0 1202.7215 1136.9218 L 1202.0348 1137.5434 A 32 32 0 0 0 1202.0162 1137.4765 C 1202.2502 1137.2608 1202.4877 1137.041 1202.7233 1136.8235 A 32 32 0 0 0 1202.7489 1135.2228 L 1202.7117 1134.6259 A 32 32 0 0 0 1202.7467 1134.6027 L 1202.8884 1136.6712 C 1203.6359 1135.981 1204.3654 1135.3112 1205.128 1134.6019 A 32 32 0 0 0 1208.2972 1131.154 A 32 32 0 0 0 1209.8851 1130.166 C 1211.4764 1128.6762 1213.0767 1127.171 1214.6848 1125.6472 A 32 32 0 0 0 1217.8215 1122.1693 A 32 32 0 0 0 1219.3945 1121.1709 C 1221 1119.6402 1222.5846 1118.116 1224.1537 1116.6013 A 32 32 0 0 0 1227.2741 1113.0779 A 32 32 0 0 0 1228.8321 1112.0674 C 1230.4471 1110.4974 1232.0102 1108.9616 1233.5312 1107.4665 A 32 32 0 0 0 1236.6681 1103.8551 A 32 32 0 0 0 1238.2218 1102.8214 C 1239.7479 1101.3021 1241.3065 1099.7478 1242.8885 1098.1532 A 32 32 0 0 0 1245.9227 1094.5738 A 32 32 0 0 0 1247.4688 1093.5233 C 1249.0118 1091.9567 1250.5563 1090.3783 1252.1012 1088.7879 A 32 32 0 0 0 1255.102 1085.1707 A 32 32 0 0 0 1256.6313 1084.1081 C 1258.1842 1082.498 1259.709 1080.9008 1261.2113 1079.3211 A 32 32 0 0 0 1264.1906 1075.6471 A 32 32 0 0 0 1265.701 1074.5727 C 1267.26 1072.9195 1268.7606 1071.3112 1270.211 1069.7536 A 32 32 0 0 0 1273.2077 1065.9797 A 32 32 0 0 0 1274.7115 1064.8805 C 1276.1707 1063.2905 1277.6641 1061.659 1279.1819 1059.9809 A 32 32 0 0 0 1282.052 1056.2553 A 32 32 0 0 0 1283.5553 1055.1306 C 1285.0306 1053.486 1286.5049 1051.8271 1287.9806 1050.1551 A 32 32 0 0 0 1290.8149 1046.386 A 32 32 0 0 0 1292.2917 1045.2522 C 1293.7762 1043.5563 1295.2292 1041.8752 1296.6561 1040.2182 A 32 32 0 0 0 1299.4623 1036.3852 A 32 32 0 0 0 1300.9215 1035.2335 C 1302.4039 1033.4941 1303.8273 1031.7996 1305.2018 1030.1629 A 32 32 0 0 0 1308.0095 1026.2296 A 32 32 0 0 0 1309.4509 1025.0562 C 1310.8605 1023.3512 1312.2674 1021.6378 1313.669 1019.9154 A 32 32 0 0 0 1316.3914 1015.9731 A 32 32 0 0 0 1317.8274 1014.7669 C 1319.2127 1013.0406 1320.5949 1011.3086 1321.9691 1009.569 A 32 32 0 0 0 1324.6377 1005.5811 A 32 32 0 0 0 1326.0578 1004.353 C 1327.4234 1002.5986 1328.7806 1000.8396 1330.1288 999.07789 A 32 32 0 0 0 1332.7414 995.04077 A 32 32 0 0 0 1334.1505 993.7823 C 1335.4798 992.01691 1336.8087 990.23765 1338.1382 988.44109 A 32 32 0 0 0 1340.6893 984.35918 A 32 32 0 0 0 1342.0677 983.08813 C 1343.3851 981.2796 1344.6888 979.47371 1345.9772 977.67243 A 32 32 0 0 0 1348.4765 973.52511 A 32 32 0 0 0 1349.8348 972.23058 C 1351.1171 970.40535 1352.3917 968.57158 1353.6592 966.73127 A 32 32 0 0 0 1356.0851 962.53841 A 32 32 0 0 0 1357.4266 961.21223 C 1358.6689 959.37378 1359.9133 957.51825 1361.1554 955.64214 A 32 32 0 0 0 1363.5043 951.40607 A 32 32 0 0 0 1364.8159 950.0574 C 1366.0392 948.17445 1367.2496 946.29024 1368.448 944.40489 A 32 32 0 0 0 1370.7278 940.10714 A 32 32 0 0 0 1372.0136 938.73558 C 1373.2056 936.82099 1374.3816 934.90878 1375.5429 932.99928 A 32 32 0 0 0 1377.7456 928.6387 A 32 32 0 0 0 1379.0031 927.24056 C 1380.1537 925.30534 1381.2944 923.36271 1382.4233 921.41525 A 32 32 0 0 0 1384.54 917.00059 A 32 32 0 0 0 1385.7691 915.57394 C 1386.8761 913.61786 1387.9781 911.64833 1389.0708 909.66449 A 32 32 0 0 0 1391.0903 905.20083 A 32 32 0 0 0 1392.2941 903.73748 C 1393.3564 901.75835 1394.4167 899.75886 1395.469 897.7408 A 32 32 0 0 0 1397.3907 893.2223 A 32 32 0 0 0 1398.5639 891.7287 C 1399.5805 889.72348 1400.5949 887.69611 1401.6025 885.64576 A 32 32 0 0 0 1403.4214 881.06312 A 32 32 0 0 0 1404.5584 879.54178 C 1405.5285 877.50684 1406.4938 875.44998 1407.4524 873.3695 A 32 32 0 0 0 1409.1638 868.73302 A 32 32 0 0 0 1410.2625 867.18221 C 1411.1851 865.11308 1412.1007 863.02642 1413.0059 860.91924 A 32 32 0 0 0 1414.5977 856.22621 A 32 32 0 0 0 1415.6541 854.64632 C 1416.5281 852.53787 1417.3883 850.41825 1418.235 848.28996 A 32 32 0 0 0 1419.7048 843.5367 A 32 32 0 0 0 1420.7155 841.93201 C 1421.5388 839.77972 1422.3398 837.63105 1423.1226 835.48927 A 32 32 0 0 0 1424.3941 830.92895 A 32 32 0 0 0 1425.3484 829.34768 C 1426.1104 827.23547 1426.8499 825.14719 1427.5756 823.08618 A 32 32 0 0 0 1428.7918 818.52168 A 32 32 0 0 0 1429.737 816.90991 C 1430.4494 814.8573 1431.1704 812.76323 1431.8935 810.62813 A 32 32 0 0 0 1433.0484 806.06004 A 32 32 0 0 0 1433.996 804.39502 L 1435.0795 801.13188 A 32.0032 32.0032 0 0 0 1435.1114 801.04029 L 1436.0363 798.22518 A 32 32 0 0 0 1437.1713 793.57667 A 32 32 0 0 0 1438.0666 791.97587 C 1438.7552 789.84506 1439.4256 787.73298 1440.084 785.63952 A 32 32 0 0 0 1441.1417 781.04206 A 32 32 0 0 0 1442.0328 779.40046 C 1442.6812 777.30751 1443.3323 775.18701 1443.9791 773.03994 A 32 32 0 0 0 1444.979 768.43461 A 32 32 0 0 0 1445.8591 766.76077 C 1446.4655 764.71168 1447.0925 762.59364 1447.7235 760.40661 A 32 32 0 0 0 1448.6615 755.82918 A 32 32 0 0 0 1449.514 754.17384 C 1450.1422 751.97387 1450.7304 749.85373 1451.2978 747.81807 A 32 32 0 0 0 1452.2194 743.11862 A 32 32 0 0 0 1453.0362 741.4787 C 1453.6334 739.29056 1454.2039 737.15234 1454.7558 735.07057 A 32 32 0 0 0 1455.611 730.39358 A 32 32 0 0 0 1456.4139 728.73348 C 1456.9815 726.5511 1457.5261 724.40376 1458.0576 722.2938 A 32 32 0 0 0 1458.8493 717.62916 A 32 32 0 0 0 1459.6384 715.94887 C 1460.1781 713.76573 1460.6991 711.60909 1461.2069 709.48347 A 32 32 0 0 0 1461.9408 704.81097 A 32 32 0 0 0 1462.7095 703.12294 C 1463.223 700.93188 1463.716 698.77052 1464.1977 696.64018 A 32 32 0 0 0 1464.8772 691.95359 A 32 32 0 0 0 1465.6232 690.25607 C 1466.112 688.04971 1466.5784 685.88525 1467.0317 683.7618 A 32 32 0 0 0 1467.6558 679.05139 A 32 32 0 0 0 1468.378 677.35042 C 1468.8429 675.12143 1469.2812 672.95438 1469.7037 670.85279 A 32 32 0 0 0 1470.2789 666.06687 A 32 32 0 0 0 1470.9905 664.31985 C 1471.3918 662.23608 1471.8099 660.0698 1472.2275 657.81946 A 32 32 0 0 0 1472.7218 653.12618 A 32 32 0 0 0 1473.4113 651.37357 C 1473.7987 649.22843 1474.1891 647.04582 1474.5725 644.822 A 32 32 0 0 0 1475.0059 640.12903 A 32 32 0 0 0 1475.6705 638.38287 C 1476.0412 636.17901 1476.4003 633.98568 1476.7485 631.80443 A 32 32 0 0 0 1477.1226 627.08804 A 32 32 0 0 0 1477.7627 625.3326 C 1478.1103 623.08756 1478.4347 620.89995 1478.7482 618.77143 A 32 32 0 0 0 1479.0745 613.97155 A 32 32 0 0 0 1479.6868 612.21305 C 1479.9924 610.03199 1480.2926 607.8295 1480.5852 605.60577 A 32 32 0 0 0 1480.833 600.8826 A 32 32 0 0 0 1481.4233 599.12044 C 1481.7107 596.86102 1481.9749 594.6596 1482.2301 592.52051 A 32 32 0 0 0 1482.4257 587.70842 A 32 32 0 0 0 1482.9878 585.93932 C 1483.2354 583.73093 1483.4732 581.51799 1483.7024 579.30164 A 32 32 0 0 0 1483.8195 574.52895 A 32 32 0 0 0 1484.3668 572.71031 C 1484.5743 570.5563 1484.7839 568.34405 1484.9837 566.07669 A 32 32 0 0 0 1485.0284 561.34474 A 32 32 0 0 0 1485.5442 559.54501 C 1485.7308 557.30052 1485.9034 555.08113 1486.0666 552.8896 A 32 32 0 0 0 1486.0465 548.09945 A 32 32 0 0 0 1486.5335 546.30657 C 1486.688 544.04134 1486.8235 541.81912 1486.9531 539.64395 A 32 32 0 0 0 1486.8616 534.82769 A 32 32 0 0 0 1487.3186 533.02806 C 1487.4374 530.76334 1487.5395 528.53847 1487.6349 526.35434 A 32 32 0 0 0 1487.4661 521.53025 A 32 32 0 0 0 1487.8946 519.72173 C 1487.9766 517.46438 1488.0453 515.2323 1488.1046 513.02546 A 32 32 0 0 0 1487.854 508.20773 A 32 32 0 0 0 1488.2533 506.38254 C 1488.2963 504.14699 1488.33 501.90598 1488.351 499.66237 A 32 32 0 0 0 1488.016 494.86499 A 32 32 0 0 0 1488.3902 493.00506 C 1488.3902 490.79375 1488.3897 488.55798 1488.3657 486.29928 A 32 32 0 0 0 1487.9843 484.46125 A 32 32 0 0 0 1488.2849 479.65812 C 1488.2489 477.40908 1488.2007 475.16336 1488.1411 472.91931 A 32 32 0 0 0 1487.726 471.0965 A 32 32 0 0 0 1487.9364 466.23775 C 1487.8574 464.00315 1487.7674 461.76101 1487.6648 459.51587 A 32 32 0 0 0 1487.2114 457.68322 A 32 32 0 0 0 1487.3264 452.83221 C 1487.2023 450.57508 1487.0652 448.32371 1486.9162 446.07928 A 32 32 0 0 0 1486.4239 444.25058 A 32 32 0 0 0 1486.4379 439.39022 C 1486.2654 437.11981 1486.0805 434.86514 1485.8832 432.62647 A 32 32 0 0 0 1485.3532 430.81338 A 32 32 0 0 0 1485.2519 425.89997 C 1485.0286 423.65406 1484.7916 421.40227 1484.5388 419.14251 A 32 32 0 0 0 1483.9661 417.33377 A 32 32 0 0 0 1483.747 412.42056 C 1483.4673 410.15578 1483.1703 407.89097 1482.857 405.62221 A 32 32 0 0 0 1482.2424 403.84522 A 32 32 0 0 0 1481.8854 398.86947 C 1481.5476 396.64002 1481.1914 394.37165 1480.8067 392.06873 A 32 32 0 0 0 1480.141 390.31068 A 32 32 0 0 0 1479.635 385.31867 C 1479.2272 383.07291 1478.8 380.80135 1478.343 378.5043 A 32 32 0 0 0 1477.6119 376.74111 A 32 32 0 0 0 1476.9435 371.75385 C 1476.4517 369.46737 1475.9387 367.18085 1475.3995 364.89444 A 32 32 0 0 0 1474.5905 363.11759 A 32 32 0 0 0 1473.7305 358.09879 C 1473.1472 355.81649 1472.5345 353.52046 1471.8869 351.20899 A 32 32 0 0 0 1470.9854 349.42977 A 32 32 0 0 0 1469.8997 344.3927 C 1469.195 342.07357 1468.4593 339.7627 1467.6907 337.46155 A 32 32 0 0 0 1466.6542 335.64895 A 32 32 0 0 0 1465.274 330.5535 C 1464.4246 328.23393 1463.5267 325.89853 1462.5726 323.54876 A 32 32 0 0 0 1461.3602 321.70498 A 32 32 0 0 0 1459.5764 316.54065 C 1458.5239 314.2083 1457.3934 311.82613 1456.1609 309.40635 A 32 32 0 0 0 1454.6706 307.51232 A 32 32 0 0 0 1452.2874 302.26565 C 1450.8793 299.8345 1449.346 297.3669 1447.6616 294.88934 A 32 32 0 0 0 1445.6238 292.88217 A 32 32 0 0 0 1442.1008 287.43146 C 1440.0317 284.91403 1437.6721 282.30734 1434.9229 279.7278 A 32 32 0 0 0 1431.7097 277.72635 A 32 32 0 0 0 1425.3364 272.20048 C 1421.4529 269.69942 1416.915 267.39931 1411.5938 265.7733 A 32 32 0 0 0 1407.831 265.3944 A 32 32 0 0 0 1400.2029 263.30027 C 1396.5138 262.81099 1392.9725 262.61656 1389.6029 262.61772 L 1389.6018 262.56874 A 32 32 0 0 0 1387.2101 263.0457 A 32 32 0 0 0 1384.8031 262.6977 C 1381.6134 262.86625 1378.5357 263.18568 1375.5747 263.61106 z M 1198.9597 1197.3355 L 1199.2296 1197.5574 A 32 32 0 0 0 1198.9474 1197.4074 A 32 32 0 0 0 1198.9597 1197.3355 z "
         inkscape:label="blush" />
      <g
         id="g13003"
         inkscape:label="face"
         transform="translate(-126.59728,24.50839)">
        <path
           style="opacity:1;fill:none;fill-opacity:1;stroke:#65471b;stroke-width:64;stroke-linecap:round;stroke-linejoin:round;stroke-miterlimit:4;stroke-dasharray:none;stroke-dashoffset:0;stroke-opacity:1;paint-order:fill markers stroke;stop-color:#000000"
           d="m 83.898236,1201.0695 68.443294,6.6235 -37.53342,39.7413"
           id="path2163"
           inkscape:label="left nostril" />
        <path
           style="opacity:1;fill:none;fill-opacity:1;stroke:#65471b;stroke-width:64;stroke-linecap:round;stroke-linejoin:round;stroke-miterlimit:4;stroke-dasharray:none;stroke-dashoffset:0;stroke-opacity:1;paint-order:fill markers stroke;stop-color:#000000"
           d="m 401.82839,1251.85 -59.6119,-44.157 121.43166,-17.6628"
           id="path2198"
           inkscape:label="right nostril" />
        <path
           style="opacity:1;fill:none;fill-opacity:1;stroke:#65471b;stroke-width:64;stroke-linecap:round;stroke-linejoin:round;stroke-miterlimit:4;stroke-dasharray:none;stroke-dashoffset:0;stroke-opacity:1;paint-order:fill markers stroke;stop-color:#000000"
           d="m 132.4709,1346.7875 90.52178,-72.859 c 0,0 140.81385,108.9462 222.99268,101.561 82.17883,-7.3852 112.87383,-60.847 112.87383,-60.847"
           id="path2200"
           sodipodi:nodetypes="cczc"
           inkscape:label="mouf" />
        <path
           style="opacity:1;fill:#ffffff;fill-opacity:1;stroke:#65471b;stroke-width:64;stroke-linecap:round;stroke-linejoin:round;stroke-miterlimit:4;stroke-dasharray:none;stroke-dashoffset:0;stroke-opacity:1;paint-order:fill markers stroke;stop-color:#000000"
           d="m 186.9059,1491.4935 -54.435,-144.706 90.52178,-72.859 103.76887,66.2354 z"
           id="path2202"
           sodipodi:nodetypes="ccccc"
           inkscape:label="toof" />
      </g>
      <g
         id="g12993"
         inkscape:label="right eye"
         transform="translate(-126.59728,24.50839)"
         style="fill:#d19020;fill-opacity:1">
        <path
           style="opacity:1;fill:#d19020;fill-opacity:1;stroke:#65471b;stroke-width:64;stroke-linecap:round;stroke-linejoin:round;stroke-miterlimit:4;stroke-dasharray:none;stroke-dashoffset:0;stroke-opacity:1;paint-order:fill markers stroke;stop-color:#000000"
           d="m 661.97569,1226.0485 53.36716,-115.5008 86.53085,168.711 z"
           id="path7852"
           inkscape:label="eyenub"
           sodipodi:nodetypes="cccc" />
        <path
           id="path1915"
           style="opacity:1;fill:#d19020;fill-opacity:1;stroke:#65471b;stroke-width:64;stroke-linecap:round;stroke-linejoin:round;paint-order:fill markers stroke;stop-color:#000000"
           inkscape:label="righteye"
           d="m 1150.289,1075.2222 c 0,120.7167 -151.8603,218.5769 -272.57702,218.5769 -120.71671,0 -164.57695,-71.8602 -164.57699,-192.5769 -2e-5,-120.71675 97.86024,-244.57702 218.57699,-244.57701 120.71672,-2e-5 218.57702,97.86025 218.57702,218.57701 z"
           sodipodi:nodetypes="sssss" />
      </g>
      <path
         style="fill:none;fill-opacity:1;stroke:#65471b;stroke-width:64;stroke-linecap:round;stroke-linejoin:round;stroke-dashoffset:172.8;stroke-opacity:1;paint-order:fill markers stroke;stop-color:#000000"
         d="m 587.40446,1168.1467 c 0,0 122.07225,-115.9459 200.47618,-130.5804 78.40393,-14.6345 235.81106,62.1643 235.81106,62.1643"
         id="path1645"
         sodipodi:nodetypes="csc" />
    </g>
  </g>
</svg>
