<?xml version="1.0" encoding="UTF-8" standalone="no"?>
<!-- Created with Inkscape (http://www.inkscape.org/) -->

<svg
   version="1.1"
   id="svg824"
   width="1706.6667"
   height="1706.6667"
   viewBox="0 0 1706.6667 1706.6667"
   sodipodi:docname="ying_goop.svg"
   inkscape:version="1.3.2 (091e20e, 2023-11-25, custom)"
   inkscape:export-filename="D:\Pictures\yingmotes\ying_nom_pizza.png"
   inkscape:export-xdpi="72"
   inkscape:export-ydpi="72"
   xmlns:inkscape="http://www.inkscape.org/namespaces/inkscape"
   xmlns:sodipodi="http://sodipodi.sourceforge.net/DTD/sodipodi-0.dtd"
   xmlns="http://www.w3.org/2000/svg"
   xmlns:svg="http://www.w3.org/2000/svg">
  <defs
     id="defs828" />
  <sodipodi:namedview
     id="namedview826"
     pagecolor="#ffffff"
     bordercolor="#666666"
     borderopacity="1.0"
     inkscape:pageshadow="2"
     inkscape:pageopacity="0.0"
     inkscape:pagecheckerboard="0"
     showgrid="false"
     inkscape:zoom="0.30185106"
     inkscape:cx="523.43696"
     inkscape:cy="795.09411"
     inkscape:window-width="2560"
     inkscape:window-height="1017"
     inkscape:window-x="-8"
     inkscape:window-y="-8"
     inkscape:window-maximized="1"
     inkscape:current-layer="g12988"
     inkscape:showpageshadow="2"
     inkscape:deskcolor="#d1d1d1" />
  <g
     id="layer1"
     inkscape:label="Ying"
     style="display:inline"
     inkscape:groupmode="layer">
    <path
       style="display:none;opacity:0.85;fill:#123456;stroke:#123456;stroke-width:64;stroke-linecap:round;stroke-linejoin:round;-inkscape-stroke:none;paint-order:fill markers stroke;stop-color:#000000"
       d="m 1428.5414,862.9998 c 70.7982,131.45402 79.2562,305.3155 68.196,403.9263 -11.0602,98.6108 -55.9321,-14.719 -79.4825,13.2471 91.0222,54.7003 70.1021,221.5333 81.6903,267.1496 11.5882,45.6163 -99.3531,6.6236 -99.3531,6.6236 66.7588,58.9185 86.1474,163.4461 90.5218,198.7063 4.3744,35.2603 -482.3172,22.9486 -494.50725,2.2079 -12.1901,-20.7406 23.11455,-208.5632 66.23555,-227.0436 0,0 -36.2953,127.0783 -75.35325,-9.4549 -39.0579,-136.5332 70.22355,-481.2383 178.60105,-658.05194 58.4256,-0.32774 187.2046,2.3747 263.4514,2.68964 z"
       id="path3091"
       sodipodi:nodetypes="czczczzczcc"
       inkscape:label="mane" />
    <g
       id="g12988"
       inkscape:label="head"
       transform="rotate(9.7469609,884.27543,1159.3808)">
      <g
         id="g12997"
         inkscape:label="left eye">
        <path
           id="path1915-9"
           style="display:inline;fill:#fefefe;stroke:#65471b;stroke-width:64;stroke-linecap:round;stroke-linejoin:round;paint-order:fill markers stroke;stop-color:#000000;fill-opacity:0.79802954"
           inkscape:label="lefteye"
           d="m 792.61751,1048.7279 c 10e-6,120.7167 -155.86024,218.577 -276.57698,218.577 -120.71674,0 -160.57699,-55.8603 -160.57698,-176.577 0,-120.71673 97.86025,-260.57698 218.57698,-260.57698 120.71673,0 218.57698,97.86025 218.57698,218.57698 z"
           sodipodi:nodetypes="sssss" />
        <path
           style="opacity:1;fill:#ffffff;fill-opacity:1;stroke:#65471b;stroke-width:48;stroke-linecap:round;stroke-linejoin:round;stroke-miterlimit:4;stroke-dasharray:none;stroke-dashoffset:0;stroke-opacity:1;paint-order:fill markers stroke;stop-color:#000000"
           d="M 495.18725,960.35009 516.39114,1125.053"
           id="path2372"
           inkscape:label="left pupil"
           sodipodi:nodetypes="cc" />
        <path
           id="path1280-3"
           style="display:inline;fill:#d19020;stroke:#65471b;stroke-width:64;stroke-linecap:round;stroke-linejoin:round;paint-order:fill markers stroke;stop-color:#000000"
           inkscape:label="right lid 2"
           d="m 568.67455,1149.2882 c -114.25194,8.785 -134.38397,38.9128 -169.96677,67.1394 22.44032,18.9354 49.0555,52.5004 173.34374,44.5334 124.28827,-7.967 132.28449,-39.4117 167.5761,-63.6585 -37.12667,-24.067 -56.70113,-56.7993 -170.95307,-48.0143 z"
           sodipodi:nodetypes="zczcz" />
      </g>
      <path
         style="opacity:0.85;fill:#f19020;fill-opacity:1;stroke:#f19020;stroke-width:64;stroke-linecap:round;stroke-miterlimit:4;stroke-dasharray:none;stroke-dashoffset:0;stroke-opacity:1;paint-order:fill markers stroke;stop-color:#000000"
         d="m 834.17099,894.54897 c 0,0 -75.39274,-160.40341 -99.5069,-341.53728 -26.52799,-199.26527 -56.14078,-398.36205 10.64289,-413.98017 33.5106,-7.83684 103.44598,25.67735 171.28289,77.75438 67.35605,51.70788 132.64333,121.71638 158.15183,187.71843 51.1992,132.47532 69.0332,440.63234 69.0332,440.63234 z"
         id="path1640"
         inkscape:label="left ear"
         sodipodi:nodetypes="csssscc" />
      <path
         id="path3340"
         style="display:inline;opacity:0.85;fill:#ffcb4c;fill-opacity:1;stroke:#ffcb4c;stroke-width:64;stroke-linecap:round;stroke-linejoin:round;stroke-miterlimit:4;stroke-dasharray:none;stroke-dashoffset:0;stroke-opacity:1;paint-order:fill markers stroke;stop-color:#000000"
         inkscape:label="neck"
         d="m 947.3125,763.76172 c -55.71158,0.95334 -109.63489,10.96959 -153.76953,30.29883 -111.10936,48.66153 -164.81284,150.90608 -231.7207,175.25586 -66.90783,24.34964 -235.03201,38.03149 -290.55274,35.21479 -55.52074,-2.8166 -181.726636,-24.49422 -179.777342,94.5704 0.903436,55.1827 14.529742,123.1375 55.482352,181.1713 15.1174,21.4229 22.15152,138.9013 45.45086,156.4788 20.86919,15.7442 57.1221,-67.9194 85.67267,-56.9963 18.44061,7.0552 120.45665,73.7627 121.31917,96.2052 2.28622,59.4872 -33.25835,88.4451 19.89341,86.0152 89.93495,-4.1114 44.01707,-44.7016 43.05153,-71.7096 -1.69896,-47.5234 110.28967,-78.2951 136.79535,-77.5991 63.07678,1.6563 64.65977,158.2654 117.55779,157.885 20.28434,-0.1459 88.85834,-156.5149 111.15968,-156.9115 -49.05282,115.1613 -40.93664,218.5964 -32.78711,339.4785 l 459.38281,-15.705 c 0,0 -127.6062,-94.2329 -149.2012,-184.5391 -10.5299,-44.0342 1.3746,-105.2663 16.3086,-156.5293 90.4168,64.4311 141.58,181.4079 69.5606,-72.5 6.0999,-3.8636 12.0918,-7.7821 17.8847,-11.7773 44.9265,82.8303 92.926,187.7279 107.137,198.2996 154.7777,115.1401 -15.3274,-223.8391 -38.5706,-259.62 4.5399,-5.8698 8.5919,-11.7365 11.7715,-17.5683 1.5589,-2.8591 3.1249,-6.1867 4.6914,-9.3164 0,0 1.7251,-10.6818 3.8731,-28.168 1.074,-8.7431 2.2554,-19.1878 3.3769,-30.8476 1.1216,-11.6599 2.1866,-24.5359 3.0293,-38.1426 0.8429,-13.6067 1.4634,-27.9436 1.7012,-42.5274 0.2377,-14.5837 0.092,-29.413 -0.6016,-44.0039 -0.3468,-7.2954 -0.8318,-14.533 -1.4726,-21.6484 -0.6408,-7.1154 -1.4385,-14.1098 -2.4141,-20.92384 -0.9756,-6.81407 -2.1273,-13.44632 -3.4785,-19.83789 -1.3512,-6.39156 -2.9024,-12.54089 -4.6699,-18.38867 -1.7676,-5.84781 -4.0229,-11.63498 -6.6992,-17.3457 -2.6764,-5.71073 -5.7736,-11.34744 -9.2227,-16.89063 -3.4492,-5.5432 -7.2498,-10.99463 -11.3359,-16.33984 -4.0862,-5.34521 -8.4578,-10.58441 -13.0449,-15.70117 -4.5873,-5.11677 -9.3894,-10.11087 -14.3418,-14.96875 -4.9524,-4.85786 -10.0547,-9.57797 -15.2364,-14.14649 -10.3634,-9.13705 -21.0486,-17.66597 -31.5136,-25.46289 -10.4651,-7.79692 -20.7099,-14.86107 -30.1895,-21.07422 -9.4796,-6.21314 -18.1947,-11.57325 -25.6016,-15.95898 -14.8138,-8.77148 -24.3945,-13.64649 -24.3945,-13.64649 -51.2912,-16.92178 -108.7923,-25.03146 -164.5039,-24.07812 z"
         transform="rotate(-9.7469609,884.27543,1159.3808)"
         sodipodi:nodetypes="ssssssssssssscccscccscscsssssssssssssssssscs" />
      <path
         style="display:none;opacity:0.85;fill:#123456;stroke:#123456;stroke-width:64;stroke-linecap:round;stroke-linejoin:round;-inkscape-stroke:none;paint-order:fill markers stroke;stop-color:#000000"
         d="M 790.98452,784.53948 C 673.96856,812.13758 643.06878,1045.856 532.66627,956.75164 422.26376,867.64725 736.50321,811.8339 735.2135,677.80944 733.92379,543.78498 394.83186,818.20441 326.76156,724.17426 258.69126,630.14411 637.33983,459.89223 816.90389,443.77751 c 179.56406,-16.11472 265.03801,60.37504 264.94181,37.53343 -0.096,-22.84161 -166.59831,-67.50864 -165.92707,-166.01684 0.67124,-98.5082 371.25697,135.10696 408.79037,232.25229 37.5334,97.14533 125.0196,228.40837 84.1514,284.51442 -40.8682,56.10605 -220.1575,-86.3494 -299.2019,-81.79487 -79.0444,4.55453 -201.65801,6.67544 -318.67398,34.27354 z"
         id="path1637"
         sodipodi:nodetypes="zzzzzzzzzzz"
         inkscape:label="top hair" />
      <g
         id="g13003"
         inkscape:label="face">
        <path
           style="opacity:1;fill:none;fill-opacity:1;stroke:#65471b;stroke-width:64;stroke-linecap:round;stroke-linejoin:round;stroke-miterlimit:4;stroke-dasharray:none;stroke-dashoffset:0;stroke-opacity:1;paint-order:fill markers stroke;stop-color:#000000"
           d="m 83.898236,1201.0695 68.443294,6.6235 -37.53342,39.7413"
           id="path2163"
           inkscape:label="left nostril" />
        <path
           style="opacity:1;fill:none;fill-opacity:1;stroke:#65471b;stroke-width:64;stroke-linecap:round;stroke-linejoin:round;stroke-miterlimit:4;stroke-dasharray:none;stroke-dashoffset:0;stroke-opacity:1;paint-order:fill markers stroke;stop-color:#000000"
           d="m 401.82839,1251.85 -59.6119,-44.157 121.43166,-17.6628"
           id="path2198"
           inkscape:label="right nostril" />
        <path
           style="opacity:1;fill:none;fill-opacity:1;stroke:#65471b;stroke-width:64;stroke-linecap:round;stroke-linejoin:round;stroke-miterlimit:4;stroke-dasharray:none;stroke-dashoffset:0;stroke-opacity:1;paint-order:fill markers stroke;stop-color:#000000"
           d="m 132.4709,1346.7875 90.52178,-72.859 c 0,0 146.77847,102.9437 222.99268,101.561 126.88742,-2.302 123.7667,-77.291 123.7667,-77.291"
           id="path2200"
           sodipodi:nodetypes="ccsc"
           inkscape:label="mouf" />
        <path
           style="opacity:1;fill:#ffffff;fill-opacity:1;stroke:#65471b;stroke-width:64;stroke-linecap:round;stroke-linejoin:round;stroke-miterlimit:4;stroke-dasharray:none;stroke-dashoffset:0;stroke-opacity:1;paint-order:fill markers stroke;stop-color:#000000"
           d="M 274.65829,1532.2521 C 204.54486,1530.8025 132.4709,1346.7875 132.4709,1346.7875 l 90.52178,-72.859 103.76887,66.2354 c 0,0 18.01016,193.5378 -52.10326,192.0882 z"
           id="path2202"
           sodipodi:nodetypes="zcccz"
           inkscape:label="toof" />
      </g>
      <path
         id="path13483"
         style="display:inline;opacity:0.85;fill:#ffcb4c;stroke:#ffcb4c;stroke-width:64;stroke-linecap:round;stroke-linejoin:round;stroke-miterlimit:4;stroke-dasharray:none;stroke-dashoffset:0;stroke-opacity:1;paint-order:fill markers stroke;stop-color:#000000"
         inkscape:label="right ear"
         d="m 1319.9942,114.55253 c -78.3991,13.07918 -250.6826,244.07602 -263.5102,333.4549 -11.421,79.57778 -53.2322,282.09605 -65.13573,339.4967 0,0 25.13643,-12.19433 27.52773,4.85476 27.8688,198.69692 131.413,282.86331 288.0783,346.88301 27.0064,-46.7356 119.8824,175.2075 152.1535,101.4536 24.6454,-56.3258 149.1191,-94.819 143.1635,-216.4899 -5.1825,-105.878 -99.3542,-429.24025 -109.8537,-512.38516 -38.3407,-303.61675 -121.5833,-405.74947 -172.4234,-397.26791 z"
         sodipodi:nodetypes="sscscssss" />
      <g
         id="g12993"
         inkscape:label="right eye"
         style="display:inline">
        <path
           style="opacity:1;fill:#65471b;fill-opacity:1;stroke:#65471b;stroke-width:64;stroke-linecap:round;stroke-linejoin:round;stroke-miterlimit:4;stroke-dasharray:none;stroke-dashoffset:0;stroke-opacity:1;paint-order:fill markers stroke;stop-color:#000000"
           d="m 661.97569,1226.0485 53.36716,-115.5008 c -20.39571,74.9151 -10.54254,138.3558 86.53085,168.711 z"
           id="path7852"
           inkscape:label="eyenub"
           sodipodi:nodetypes="cccc" />
        <path
           id="path1915"
           style="display:inline;opacity:1;fill:#fefefe;stroke:#65471b;stroke-width:64;stroke-linecap:round;stroke-linejoin:round;paint-order:fill markers stroke;stop-color:#000000;fill-opacity:0.79802954"
           inkscape:label="righteye"
           d="m 1150.289,1075.2222 c 0,120.7167 -151.8603,218.5769 -272.57702,218.5769 -120.71671,0 -164.57695,-71.8602 -164.57699,-192.5769 -2e-5,-120.71675 97.86024,-244.57702 218.57699,-244.57701 120.71672,-2e-5 218.57702,97.86025 218.57702,218.57701 z"
           sodipodi:nodetypes="sssss" />
        <path
           style="opacity:1;fill:#ffffff;fill-opacity:1;stroke:#65471b;stroke-width:48;stroke-linecap:round;stroke-linejoin:round;stroke-miterlimit:4;stroke-dasharray:none;stroke-dashoffset:0;stroke-opacity:1;paint-order:fill markers stroke;stop-color:#000000"
           d="m 823.85243,984.08906 34.67556,186.68174"
           id="path2350"
           inkscape:label="right pupil" />
        <g
           id="g1475"
           inkscape:label="right lid"
           style="display:inline"
           transform="rotate(-2.5111826,988.08089,1107.8063)">
          <path
             id="path1280"
             style="opacity:1;fill:#d19020;stroke:#65471b;stroke-width:64;stroke-linecap:round;stroke-linejoin:round;paint-order:fill markers stroke;stop-color:#000000"
             inkscape:label="right lid 2"
             d="m 928.29023,1162.8151 c -112.23557,23.1054 -128.4126,55.5289 -160.15681,88.0125 24.64657,15.9581 55.2774,45.9036 177.57238,22.3456 122.295,-23.558 126.267,-55.7594 158.2236,-84.2582 -39.8623,-19.1991 -63.4036,-49.2053 -175.63917,-26.0999 z"
             sodipodi:nodetypes="zczcz" />
        </g>
      </g>
    </g>
  </g>
</svg>
