<?xml version="1.0" encoding="UTF-8" standalone="no"?>
<!-- Created with Inkscape (http://www.inkscape.org/) -->

<svg
   version="1.1"
   id="svg824"
   width="1706.6667"
   height="1706.6667"
   viewBox="0 0 1706.6667 1706.6667"
   sodipodi:docname="ying_think_zap.svg"
   inkscape:version="1.1 (c68e22c387, 2021-05-23)"
   inkscape:export-filename="D:\Pictures\yingmotes\ying_think.png"
   inkscape:export-xdpi="72"
   inkscape:export-ydpi="72"
   xmlns:inkscape="http://www.inkscape.org/namespaces/inkscape"
   xmlns:sodipodi="http://sodipodi.sourceforge.net/DTD/sodipodi-0.dtd"
   xmlns="http://www.w3.org/2000/svg"
   xmlns:svg="http://www.w3.org/2000/svg">
  <defs
     id="defs828" />
  <sodipodi:namedview
     id="namedview826"
     pagecolor="#ffffff"
     bordercolor="#666666"
     borderopacity="1.0"
     inkscape:pageshadow="2"
     inkscape:pageopacity="0.0"
     inkscape:pagecheckerboard="0"
     showgrid="false"
     inkscape:zoom="0.32026963"
     inkscape:cx="1211.4792"
     inkscape:cy="207.63755"
     inkscape:window-width="1920"
     inkscape:window-height="1001"
     inkscape:window-x="-9"
     inkscape:window-y="-9"
     inkscape:window-maximized="1"
     inkscape:current-layer="g12988"
     inkscape:lockguides="true">
    <inkscape:grid
       type="xygrid"
       id="grid1112" />
  </sodipodi:namedview>
  <g
     id="layer1"
     inkscape:label="Ying"
     style="display:inline"
     inkscape:groupmode="layer">
    <path
       style="display:none;fill:#123456;stroke:#123456;stroke-width:64;stroke-linecap:round;stroke-linejoin:round;-inkscape-stroke:none;paint-order:fill markers stroke;stop-color:#000000"
       d="m 1454.1495,855.73064 c 70.7982,131.45402 185.3824,239.02476 198.7064,401.82836 -29.438,-19.1346 -55.9321,-14.719 -79.4825,13.2471 91.0222,54.7003 58.5139,175.917 81.6903,267.1496 l -99.3531,6.6236 c 66.7588,58.9185 81.773,128.1858 90.5218,198.7063 l -494.5073,2.2079 c -24.3802,-41.4813 23.1146,-208.5632 66.2356,-227.0436 0,0 3.3791,-20.0154 -75.3533,-9.4549 28.7411,-247.2725 185.6948,-422.1763 311.5421,-653.26436 z"
       id="path3091"
       sodipodi:nodetypes="cccccccccc"
       inkscape:label="mane" />
    <path
       style="opacity:1;fill:#ffcb4c;fill-opacity:1;stroke:#ffcb4c;stroke-width:64;stroke-linecap:round;stroke-linejoin:round;stroke-miterlimit:4;stroke-dasharray:none;stroke-dashoffset:0;stroke-opacity:1;paint-order:fill markers stroke;stop-color:#000000"
       d="m 976.11048,1329.5209 -64.78494,239.5079 62.82174,-25.5214 -51.04267,200.2443 459.38389,-15.7054 c 0,0 -127.6066,-94.2326 -149.2016,-184.5389 -21.5949,-90.3062 51.0427,-253.25 51.0427,-253.25 z"
       id="path3340"
       inkscape:label="neck" />
    <g
       id="g12988"
       inkscape:label="head"
       transform="rotate(18.212386,994.94134,1637.2692)">
      <path
         style="display:inline;fill:none;fill-opacity:1;stroke:#f19020;stroke-width:32;stroke-linecap:round;stroke-linejoin:round;stroke-miterlimit:4;stroke-dasharray:none;stroke-dashoffset:0;stroke-opacity:1;paint-order:fill markers stroke;stop-color:#000000"
         d="m 108.86453,844.37622 c 172.21761,-8.22075 367.89073,10.4234 522.67897,53.83232"
         id="path6280-0-6"
         sodipodi:nodetypes="cc"
         inkscape:label="eyelash left small"
         inkscape:transform-center-x="323.16465"
         inkscape:transform-center-y="-82.268075" />
      <path
         style="display:inline;fill:none;fill-opacity:1;stroke:#f19020;stroke-width:32;stroke-linecap:round;stroke-linejoin:round;stroke-miterlimit:4;stroke-dasharray:none;stroke-dashoffset:0;stroke-opacity:1;paint-order:fill markers stroke;stop-color:#000000"
         d="m -65.316125,727.12992 c 283.576755,-27.87723 551.401715,0.014 788.679405,136.05641"
         id="path6280-3"
         sodipodi:nodetypes="cc"
         inkscape:label="eyelash left big"
         inkscape:transform-center-x="338.48711"
         inkscape:transform-center-y="-167.45889" />
      <path
         style="opacity:1;fill:#f19020;fill-opacity:1;stroke:#f19020;stroke-width:64;stroke-linecap:round;stroke-miterlimit:4;stroke-dasharray:none;stroke-dashoffset:0;stroke-opacity:1;paint-order:fill markers stroke;stop-color:#000000"
         d="m 685.85519,974.26839 c 0,0 -121.42546,-129.10917 -200.53094,-293.83105 C 398.30034,499.2269 366.77596,271.64572 425.42198,236.0842 c 58.64614,-35.56159 247.38479,87.62877 337.14769,197.69098 89.76289,110.06221 202.2954,397.49089 202.2954,397.49089 z"
         id="path1640"
         inkscape:label="left ear"
         sodipodi:nodetypes="cssscc"
         inkscape:transform-center-x="36.621393"
         inkscape:transform-center-y="-259.71987" />
      <g
         id="g12997"
         inkscape:label="left eye">
        <path
           id="path1915-9"
           style="display:inline;fill:#fefefe;stroke:#65471b;stroke-width:64;stroke-linecap:round;stroke-linejoin:round;paint-order:fill markers stroke;stop-color:#000000"
           inkscape:label="lefteye"
           d="m 792.61751,1048.7279 c 10e-6,120.7167 -155.86024,218.577 -276.57698,218.577 -120.71674,0 -160.57699,-55.8603 -160.57698,-176.577 0,-120.71673 97.86025,-260.57698 218.57698,-260.57698 120.71673,0 218.57698,97.86025 218.57698,218.57698 z"
           sodipodi:nodetypes="sssss" />
        <path
           style="opacity:1;fill:#ffffff;fill-opacity:1;stroke:#65471b;stroke-width:48;stroke-linecap:round;stroke-linejoin:round;stroke-miterlimit:4;stroke-dasharray:none;stroke-dashoffset:0;stroke-opacity:1;paint-order:fill markers stroke;stop-color:#000000"
           d="m 485.40835,963.71128 27.13074,167.82552"
           id="path2372"
           inkscape:label="left pupil" />
      </g>
      <path
         id="path1148"
         style="display:inline;opacity:1;fill:#ffcb4c;stroke:#ffcb4c;stroke-width:64;stroke-linecap:round;stroke-linejoin:round;stroke-miterlimit:4;stroke-dasharray:6.4, 6.4;stroke-dashoffset:0;stroke-opacity:1;paint-order:fill markers stroke;stop-color:#000000"
         inkscape:label="head"
         d="m 1299.0547,1153.5586 c 0,0 -0.1078,-10.8206 -0.9512,-28.418 -0.4217,-8.7987 -1.0259,-19.2912 -1.8945,-30.9726 -0.8686,-11.6814 -1.9997,-24.5525 -3.4727,-38.1055 -1.4729,-13.553 -3.2888,-27.7877 -5.5234,-42.2012 -2.2347,-14.41345 -4.8892,-29.0047 -8.043,-43.26755 -1.5769,-7.13143 -3.279,-14.18175 -5.1152,-21.08594 -1.8362,-6.90419 -3.8068,-13.66232 -5.9219,-20.21289 -2.1151,-6.55056 -4.3733,-12.89234 -6.7871,-18.96289 -2.4138,-6.07055 -4.9828,-11.86984 -7.7148,-17.33398 -2.7321,-5.46415 -5.9346,-10.78574 -9.5391,-15.96094 -3.6045,-5.1752 -7.6114,-10.20474 -11.9492,-15.08399 -4.3379,-4.87924 -9.0074,-9.60926 -13.9395,-14.18554 -4.9321,-4.57628 -10.1264,-8.99932 -15.5136,-13.26563 -5.3873,-4.2663 -10.9666,-8.37489 -16.67,-12.32422 -5.7033,-3.94932 -11.5298,-7.73794 -17.4101,-11.36328 -11.7607,-7.25067 -23.7371,-13.84709 -35.3711,-19.75976 -11.634,-5.91267 -22.9257,-11.14156 -33.3203,-15.66016 -10.3946,-4.5186 -19.8912,-8.32606 -27.9336,-11.39453 -16.085,-6.13693 -26.3535,-9.31836 -26.3535,-9.31836 -106.83135,-15.98813 -232.17461,6.96944 -312.62504,60.01367 -101.26734,66.76968 -136.88727,176.62945 -198.70703,211.95509 -61.81975,35.3255 -225.20029,77.273 -280.39649,83.8965 -55.19621,6.6235 -183.250354,6.6246 -161.171871,123.6406 22.078481,117.016 112.599211,282.6048 377.541011,247.2793 264.94179,-35.3256 313.51517,-44.1575 536.50782,-88.3145 22.8973,-4.5341 53.8481,-18.3195 86.8281,-36.9472 l 213.8711,-11.4278 -92.9258,-75.2558 c 5.3578,-4.8405 10.5999,-9.7184 15.6328,-14.6367 l 142.0762,-2.375 -84.8808,-69.668 c 3.4806,-6.5537 6.4805,-13.0207 8.6269,-19.3066 1.0523,-3.0817 2.0328,-6.6268 3.0469,-9.9766 z" />
      <path
         style="display:none;fill:#123456;stroke:#123456;stroke-width:64;stroke-linecap:round;stroke-linejoin:round;-inkscape-stroke:none;paint-order:fill markers stroke;stop-color:#000000"
         d="M 880.93148,744.0449 C 763.91552,771.643 622.61323,916.25706 622.61323,916.25706 620.95257,833.21142 611.27974,749.4374 735.2135,677.80944 c -124.69479,-7.45678 -249.2876,-15.1175 -408.45194,46.36482 0,0 303.22641,-263.62224 490.14233,-280.39675 172.2122,-15.45493 264.94181,37.53343 264.94181,37.53343 -0.1923,-45.68323 -31.4577,-88.25915 -90.52179,-128.0552 0,0 295.85169,97.14532 333.38509,194.29065 37.5334,97.14533 28.702,167.79647 28.702,167.79647 l -243.7525,34.92308 c 0,0 -111.71105,-33.81914 -228.72702,-6.22104 z"
         id="path1637"
         sodipodi:nodetypes="zcccsccsccz"
         inkscape:label="top hair" />
      <path
         style="fill:#ffff00;stroke:#ffff00;stroke-width:64;stroke-linecap:round;stroke-linejoin:round;paint-order:fill markers stroke;stop-color:#000000"
         d="m 471.02248,255.56155 c 77.25914,-9.3793 154.88391,-24.58806 230.81788,-12.83974 l 11.38293,-71.75507 c 87.0839,-29.31036 169.06186,-0.0974 253.56334,0.19146 C 863.35177,140.48876 770.57523,97.481908 653.05305,83.119046 l -8.43491,75.344644 c -64.73946,11.47305 -117.22626,60.18566 -173.59566,97.09786 z"
         id="path1052"
         sodipodi:nodetypes="ccccccc" />
      <path
         id="path13483"
         style="display:inline;opacity:1;fill:#ffcb4c;stroke:#ffcb4c;stroke-width:64;stroke-linecap:round;stroke-linejoin:round;stroke-miterlimit:4;stroke-dasharray:6.4, 6.4;stroke-dashoffset:0;stroke-opacity:1;paint-order:fill markers stroke;stop-color:#000000"
         inkscape:label="right ear"
         d="m 978.00172,106.89413 c -72.4907,32.59731 -101.86553,358.15322 -91.52854,447.85428 9.20353,79.86461 20.29914,286.35604 23.39314,344.89623 0,0 10.6699,-1.30973 27.85687,-2.30943 8.59324,-0.49977 18.81601,-0.92198 30.14945,-1.06391 11.33333,-0.14191 23.77618,-0.004 36.81166,0.61729 13.0355,0.62123 26.6637,1.72563 40.3634,3.51519 6.8499,0.89481 13.7176,1.96059 20.5389,3.22347 6.8214,1.26284 13.5948,2.72185 20.2579,4.40342 6.663,1.68161 13.2144,3.58528 19.5894,5.73626 6.3751,2.15095 12.5737,4.54983 18.531,7.22081 5.9573,2.67103 11.6745,5.61481 17.0842,8.8565 5.41,3.24167 10.5132,6.78173 15.246,10.64471 4.7326,3.86303 9.4539,8.09859 14.1452,12.64516 4.691,4.5466 9.3515,9.40439 13.967,14.51126 4.6155,5.10689 9.1844,10.46234 13.6906,16.00613 4.5062,5.54374 8.95,11.27585 13.313,17.1332 8.7259,11.7148 17.131,23.9337 25.0803,36.1629 7.9493,12.2291 15.4434,24.4667 22.345,36.2235 6.9018,11.7567 13.212,23.0317 18.7951,33.3292 5.5829,10.2976 10.4371,19.6193 14.4302,27.4711 7.9862,15.7034 12.5224,25.528 12.5224,25.528 40.1391,-146.9185 103.2209,-446.62552 19.7118,-653.96141 C 1209.9617,221.67027 1025.0103,85.755495 978.00172,106.89413 Z" />
      <g
         id="layer2"
         inkscape:label="hand"
         transform="matrix(1.0890505,-0.45614847,0.45614847,1.0890505,-568.11017,43.383819)"
         style="display:inline;fill:none;fill-opacity:1;stroke:#888800;stroke-width:0.84694;stroke-opacity:1">
        <rect
           style="fill:none;fill-opacity:1;stroke:#a18020;stroke-width:96.0001;stroke-linecap:round;stroke-linejoin:round;stroke-miterlimit:4;stroke-dasharray:none;stroke-opacity:1;paint-order:fill markers stroke;stop-color:#000000"
           id="rect21082"
           width="69.680054"
           height="256.81091"
           x="-791.12622"
           y="1425.8555"
           transform="rotate(-30.045577)"
           inkscape:transform-center-x="-90.714962"
           inkscape:transform-center-y="85.04706" />
        <path
           style="fill:none;fill-opacity:1;stroke:#a18020;stroke-width:81.3062;stroke-linecap:round;stroke-linejoin:round;stroke-miterlimit:4;stroke-dasharray:none;stroke-opacity:1;paint-order:fill markers stroke;stop-color:#000000"
           d="m 102.80466,1313.581 c 0,0 -65.913938,196.8699 -78.509835,213.9679"
           id="path15392"
           sodipodi:nodetypes="cc" />
        <path
           style="fill:none;fill-opacity:1;stroke:#a18020;stroke-width:81.3062;stroke-linecap:round;stroke-linejoin:round;stroke-miterlimit:4;stroke-dasharray:none;stroke-opacity:1;paint-order:fill markers stroke;stop-color:#000000"
           d="M 465.3647,1469.3989 89.494471,1497.1525"
           id="path20257"
           sodipodi:nodetypes="cc" />
        <path
           style="fill:none;fill-opacity:1;stroke:#a18020;stroke-width:81.3062;stroke-linecap:round;stroke-linejoin:round;stroke-miterlimit:4;stroke-dasharray:none;stroke-opacity:1;paint-order:fill markers stroke;stop-color:#000000"
           d="m 83.585394,1562.0096 235.596056,-10.6468 -227.01296,41.957"
           id="path20259"
           sodipodi:nodetypes="ccc" />
        <path
           style="fill:none;fill-opacity:1;stroke:#a18020;stroke-width:81.3062;stroke-linecap:round;stroke-linejoin:round;stroke-miterlimit:4;stroke-dasharray:none;stroke-opacity:1;paint-order:fill markers stroke;stop-color:#000000"
           d="M 71.288958,1621.58 258.1848,1609.5213 75.211429,1653.3286"
           id="path20261"
           sodipodi:nodetypes="ccc" />
        <path
           style="fill:none;fill-opacity:1;stroke:#a18020;stroke-width:81.3062;stroke-linecap:round;stroke-linejoin:round;stroke-miterlimit:4;stroke-dasharray:none;stroke-opacity:1;paint-order:fill markers stroke;stop-color:#000000"
           d="m 89.494447,1497.1525 c 0,0 -91.661563,27.9317 -87.4740127,89.3687 4.1875585,61.437 73.1909947,66.8074 73.1909947,66.8074 l 14.283018,-156.1761"
           id="path20376" />
      </g>
      <g
         id="g13003"
         inkscape:label="face">
        <path
           style="opacity:1;fill:none;fill-opacity:1;stroke:#65471b;stroke-width:64;stroke-linecap:round;stroke-linejoin:round;stroke-miterlimit:4;stroke-dasharray:none;stroke-dashoffset:0;stroke-opacity:1;paint-order:fill markers stroke;stop-color:#000000"
           d="m 83.898236,1201.0695 68.443294,6.6235 -37.53342,39.7413"
           id="path2163"
           inkscape:label="left nostril" />
        <path
           style="opacity:1;fill:none;fill-opacity:1;stroke:#65471b;stroke-width:64;stroke-linecap:round;stroke-linejoin:round;stroke-miterlimit:4;stroke-dasharray:none;stroke-dashoffset:0;stroke-opacity:1;paint-order:fill markers stroke;stop-color:#000000"
           d="m 401.82839,1251.85 -59.6119,-44.157 121.43166,-17.6628"
           id="path2198"
           inkscape:label="right nostril" />
        <path
           style="opacity:1;fill:#ffffff;fill-opacity:1;stroke:#65471b;stroke-width:64;stroke-linecap:round;stroke-linejoin:round;stroke-miterlimit:4;stroke-dasharray:none;stroke-dashoffset:0;stroke-opacity:1;paint-order:fill markers stroke;stop-color:#000000"
           d="m 222.99268,1530.0389 -90.52178,-183.2514 90.52178,-72.859 103.76887,66.2354 z"
           id="path2202"
           sodipodi:nodetypes="ccccc"
           inkscape:label="toof" />
      </g>
      <g
         id="g12993"
         inkscape:label="right eye">
        <path
           style="opacity:1;fill:#65471b;fill-opacity:1;stroke:#65471b;stroke-width:64;stroke-linecap:round;stroke-linejoin:round;stroke-miterlimit:4;stroke-dasharray:none;stroke-dashoffset:0;stroke-opacity:1;paint-order:fill markers stroke;stop-color:#000000"
           d="m 661.97569,1226.0485 53.36716,-115.5008 86.53085,168.711 z"
           id="path7852"
           inkscape:label="eyenub"
           sodipodi:nodetypes="cccc" />
        <path
           id="path1915"
           style="opacity:1;fill:#fefefe;stroke:#65471b;stroke-width:64;stroke-linecap:round;stroke-linejoin:round;paint-order:fill markers stroke;stop-color:#000000"
           inkscape:label="righteye"
           d="m 1150.289,1075.2222 c 0,120.7167 -151.8603,218.5769 -272.57702,218.5769 -120.71671,0 -164.57695,-71.8602 -164.57699,-192.5769 -2e-5,-120.71675 97.86024,-244.57702 218.57699,-244.57701 120.71672,-2e-5 218.57702,97.86025 218.57702,218.57701 z"
           sodipodi:nodetypes="sssss" />
        <g
           id="g1638"
           transform="rotate(-20.243089,757.87506,388.77848)">
          <path
             id="path10404"
             style="display:inline;fill:#d19020;stroke:#65471b;stroke-width:64;stroke-linecap:round;stroke-linejoin:round;paint-order:fill markers stroke;stop-color:#000000"
             inkscape:label="righteye"
             d="m 629.14345,886.38238 c -38.61094,12.99899 -74.60757,36.68393 -103.59991,67.08553 l 370.54158,89.32169 C 879.18606,969.94617 825.367,907.65544 748.889,883.52897 709.31517,871.04458 667.91498,873.3293 629.14345,886.38238 Z" />
          <path
             id="path10549"
             style="display:inline;fill:#d19020;stroke:#65471b;stroke-width:64;stroke-linecap:round;stroke-linejoin:round;paint-order:fill markers stroke;stop-color:#000000"
             inkscape:label="righteye"
             d="m 455.01173,1182.4682 c 11.66008,46.7504 46.35217,81.365 110.8592,101.715 67.58093,21.3198 155.51602,13.6706 223.98848,-19.5409 z" />
        </g>
        <path
           style="opacity:1;fill:#ffffff;fill-opacity:1;stroke:#65471b;stroke-width:48;stroke-linecap:round;stroke-linejoin:round;stroke-miterlimit:4;stroke-dasharray:none;stroke-dashoffset:0;stroke-opacity:1;paint-order:fill markers stroke;stop-color:#000000"
           d="m 821.68218,984.5184 32.185,165.0614"
           id="path2350"
           inkscape:label="right pupil"
           sodipodi:nodetypes="cc" />
      </g>
      <path
         style="opacity:1;fill:none;fill-opacity:1;stroke:#ffcb4c;stroke-width:32;stroke-linecap:round;stroke-linejoin:round;stroke-miterlimit:4;stroke-dasharray:none;stroke-dashoffset:0;stroke-opacity:1;paint-order:fill markers stroke;stop-color:#000000"
         d="M 9.691949,635.98064 C 294.26987,650.41414 554.54305,686.91961 769.05293,856.60679"
         id="path6280"
         sodipodi:nodetypes="cc"
         inkscape:label="eyelash right big"
         inkscape:transform-center-x="315.47477"
         inkscape:transform-center-y="-182.83898" />
      <path
         style="display:inline;fill:none;fill-opacity:1;stroke:#ffcb4c;stroke-width:32;stroke-linecap:round;stroke-linejoin:round;stroke-miterlimit:4;stroke-dasharray:none;stroke-dashoffset:0;stroke-opacity:1;paint-order:fill markers stroke;stop-color:#000000"
         d="m 372.00537,547.03228 c 159.9912,64.25965 330.1164,162.71265 452.757,266.65023"
         id="path6280-0"
         sodipodi:nodetypes="cc"
         inkscape:label="eyelash right small"
         inkscape:transform-center-x="122.8203"
         inkscape:transform-center-y="-237.55175" />
    </g>
    <g
       id="g23418"
       inkscape:label="thinkcloud"
       transform="matrix(1.2200152,-0.2489983,0.24924311,1.2188169,-173.69358,-260.09224)"
       style="display:inline;stroke-width:0.803469">
      <circle
         style="fill:#ffffff;fill-opacity:1;stroke:#000000;stroke-width:43.5514;stroke-linecap:round;stroke-linejoin:round;stroke-miterlimit:4;stroke-dasharray:none;stroke-opacity:1;paint-order:fill markers stroke;stop-color:#000000"
         id="path23111"
         cx="480.68256"
         cy="823.13184"
         transform="rotate(11.032163)"
         r="44.294693" />
      <ellipse
         style="fill:#ffffff;fill-opacity:1;stroke:#000000;stroke-width:43.5514;stroke-linecap:round;stroke-linejoin:round;stroke-miterlimit:4;stroke-dasharray:none;stroke-opacity:1;paint-order:fill markers stroke;stop-color:#000000"
         id="path23113"
         cx="330.53235"
         cy="710.58453"
         transform="rotate(11.032173)"
         rx="65.063431"
         ry="65.062202" />
      <path
         id="path23217"
         style="fill:#ffffff;fill-opacity:1;stroke:#000000;stroke-width:51.422;stroke-linecap:round;stroke-linejoin:round;stroke-miterlimit:4;stroke-dasharray:none;stroke-opacity:1;paint-order:fill markers stroke;stop-color:#000000"
         d="M 520.6543,60.886719 A 216.22406,216.22406 0 0 0 404.05859,95.525391 186.56156,186.56156 0 0 0 305.21094,67.130859 186.56156,186.56156 0 0 0 123.7832,211.5625 a 85.865151,85.865151 0 0 0 -51.968747,78.81836 85.865151,85.865151 0 0 0 85.865237,85.86523 85.865151,85.865151 0 0 0 6.99804,-0.45898 186.56156,186.56156 0 0 0 140.53321,64.4668 186.56156,186.56156 0 0 0 33.35742,-3.38672 96.793442,96.793442 0 0 0 79.83008,42.41601 96.793442,96.793442 0 0 0 19.90625,-2.27343 216.22406,216.22406 0 0 0 82.34961,16.32421 216.22406,216.22406 0 0 0 101.5664,-25.74023 113.96647,113.96647 0 0 0 11.6211,0.76172 113.96647,113.96647 0 0 0 113.96484,-113.9668 113.96647,113.96647 0 0 0 -12.58398,-51.99805 216.22406,216.22406 0 0 0 1.65625,-25.28124 216.22406,216.22406 0 0 0 -13.08594,-73.97071 81.181596,81.181596 0 0 0 13.08594,-43.89844 A 81.181596,81.181596 0 0 0 655.69727,78.058594 81.181596,81.181596 0 0 0 621.40234,85.830078 216.22406,216.22406 0 0 0 520.6543,60.886719 Z"
         transform="matrix(0.83128851,0.16207044,-0.16207044,0.83128851,77.146385,233.83643)" />
    </g>
  </g>
</svg>
