<?xml version="1.0" encoding="UTF-8" standalone="no"?>
<!-- Created with Inkscape (http://www.inkscape.org/) -->

<svg
   version="1.1"
   id="svg824"
   width="1706.6667"
   height="1706.6667"
   viewBox="0 0 1706.6667 1706.6667"
   sodipodi:docname="ying_sit_dragn.svg"
   inkscape:version="1.1 (c68e22c387, 2021-05-23)"
   inkscape:export-filename="D:\Pictures\yingmotes\ying_smol.png"
   inkscape:export-xdpi="72"
   inkscape:export-ydpi="72"
   xmlns:inkscape="http://www.inkscape.org/namespaces/inkscape"
   xmlns:sodipodi="http://sodipodi.sourceforge.net/DTD/sodipodi-0.dtd"
   xmlns="http://www.w3.org/2000/svg"
   xmlns:svg="http://www.w3.org/2000/svg">
  <defs
     id="defs828" />
  <sodipodi:namedview
     id="namedview826"
     pagecolor="#ffffff"
     bordercolor="#666666"
     borderopacity="1.0"
     inkscape:pageshadow="2"
     inkscape:pageopacity="0.0"
     inkscape:pagecheckerboard="0"
     showgrid="false"
     inkscape:zoom="0.35203928"
     inkscape:cx="1056.7003"
     inkscape:cy="467.27741"
     inkscape:window-width="1920"
     inkscape:window-height="1001"
     inkscape:window-x="-9"
     inkscape:window-y="-9"
     inkscape:window-maximized="1"
     inkscape:current-layer="g31027" />
  <g
     id="layer1"
     inkscape:label="Ying"
     style="display:inline"
     transform="translate(-40.172039,113.20559)">
    <g
       id="g913"
       transform="translate(542.32252,-136.58493)">
      <path
         style="display:inline;fill:#ffcb4c;fill-opacity:1;stroke:#ffcb4c;stroke-width:64;stroke-linecap:round;stroke-linejoin:round;stroke-opacity:1;paint-order:fill markers stroke;stop-color:#000000"
         d="m 598.77162,576.24842 c 0,0 -74.4444,116.58457 -65.24603,209.03497 10.52851,183.10719 125.06145,393.57811 308.57699,374.66901 116.15303,269.1032 68.86772,268.6178 262.80372,483.0005 4.0149,16.0595 -124.4792,-590.0725 -270.85077,-660.76998 C 727.27663,930.60868 655.43347,902.80204 647.34428,757.292 639.89462,623.28588 660.26583,546.81743 660.26583,546.81743"
         id="path2053"
         sodipodi:nodetypes="ccccssc" />
      <g
         id="g31027"
         inkscape:label="head"
         transform="rotate(11.146873,448.44237,1457.9133)"
         style="display:inline">
        <path
           style="display:inline;fill:none;stroke:#65471b;stroke-width:64;stroke-linecap:round;stroke-linejoin:round;stroke-opacity:1;paint-order:fill markers stroke;stop-color:#000000"
           d="m 282.68851,375.07131 3.08897,103.83206"
           id="path1517-8"
           sodipodi:nodetypes="cc" />
        <path
           style="fill:none;stroke:#65471b;stroke-width:64;stroke-linecap:round;stroke-linejoin:round;stroke-opacity:1;paint-order:fill markers stroke;stop-color:#000000"
           d="m 137.99052,534.29931 21.93043,93.52394"
           id="path1858"
           sodipodi:nodetypes="cc" />
        <path
           style="fill:#f19020;fill-opacity:1;stroke:#f19020;stroke-width:64.0002;stroke-linecap:round;stroke-miterlimit:4;stroke-dasharray:none;stroke-dashoffset:0;stroke-opacity:1;paint-order:fill markers stroke;stop-color:#000000"
           d="m 372.38879,370.87806 c 0,0 -24.31783,-55.49827 -31.09119,-117.64073 -7.45138,-68.36288 8.06808,-145.33185 30.82939,-150.09373 22.76132,-4.761905 69.27809,56.52104 85.61016,102.26058 16.33206,45.73956 19.99342,151.25963 19.99342,151.25963 z"
           id="path1640"
           inkscape:label="left ear"
           sodipodi:nodetypes="cssscc" />
        <path
           style="display:none;fill:#123456;fill-opacity:1;stroke:#123456;stroke-width:64;stroke-linecap:round;stroke-linejoin:round;stroke-opacity:1;paint-order:fill markers stroke;stop-color:#000000"
           d="M 589.90337,308.67515 745.51321,710.89051 672.56729,656.91582 653.7742,724.28516 584.15567,641.74479 562.02748,695.3083 490.18321,416.05028 Z"
           id="path30938"
           inkscape:label="mane"
           inkscape:transform-center-x="-47.166765"
           inkscape:transform-center-y="171.25123" />
        <path
           id="path1148"
           style="display:inline;fill:#ffcb4c;stroke:#ffcb4c;stroke-width:64.0002;stroke-linecap:round;stroke-linejoin:round;stroke-miterlimit:4;stroke-dasharray:6.40001, 6.40001;stroke-dashoffset:0;stroke-opacity:1;paint-order:fill markers stroke;stop-color:#000000"
           inkscape:label="head"
           d="m 539.60091,477.49373 c 0,0 -0.0366,-3.70164 -0.3225,-9.72156 -0.14297,-3.00997 -0.34782,-6.59936 -0.64231,-10.59548 -0.29449,-3.99611 -0.67797,-8.3992 -1.17738,-13.03557 -0.49937,-4.63637 -1.11503,-9.50595 -1.87265,-14.43669 -0.75765,-4.93072 -1.65763,-9.92227 -2.7269,-14.80147 -0.53463,-2.4396 -1.11171,-4.85146 -1.73425,-7.21333 -0.62254,-2.36186 -1.29066,-4.67376 -2.00776,-6.91466 -0.7171,-2.24089 -1.48272,-4.41036 -2.30109,-6.48705 -0.81838,-2.07668 -1.68937,-4.06057 -2.61562,-5.92981 -0.92629,-1.86924 -2.01207,-3.68971 -3.23414,-5.46011 -1.22206,-1.77039 -2.58056,-3.49095 -4.05125,-5.1601 -1.47072,-1.66915 -3.05386,-3.28725 -4.72604,-4.85276 -1.67217,-1.56551 -3.43325,-3.07859 -5.25972,-4.53806 -1.82651,-1.45947 -3.71811,-2.86498 -5.65179,-4.21602 -1.93364,-1.35103 -3.90906,-2.64708 -5.90271,-3.88728 -3.98734,-2.4804 -8.04781,-4.73698 -11.9922,-6.75965 -3.94438,-2.02268 -7.77272,-3.81144 -11.2969,-5.35722 -3.52418,-1.54577 -6.7439,-2.84827 -9.47059,-3.89797 -5.45345,-2.09939 -8.93488,-3.18773 -8.93488,-3.18773 -36.22004,-5.46941 -78.71636,2.38418 -105.99223,20.53018 -34.33362,22.84136 -46.41019,60.42348 -67.36953,72.50809 -20.95933,12.08456 -76.35178,26.43446 -95.06548,28.7003 -18.71369,2.26585 -62.1291,2.26622 -54.64363,42.29643 7.48548,40.03021 38.17558,96.67678 128.00132,84.59222 89.82572,-12.0846 106.29402,-15.10592 181.89733,-30.21167 7.76309,-1.55108 18.25663,-6.26695 29.43815,-12.63933 l 72.51075,-3.90936 -31.50552,-25.74439 c 1.81651,-1.65589 3.59379,-3.32458 5.30014,-5.00709 l 48.16944,-0.81247 -28.77794,-23.83285 c 1.18006,-2.24196 2.19714,-4.45427 2.92486,-6.60463 0.35677,-1.05422 0.6892,-2.26697 1.03302,-3.41291 z" />
        <path
           style="display:none;fill:#123456;fill-opacity:1;stroke:#123456;stroke-width:64;stroke-linecap:round;stroke-linejoin:round;stroke-opacity:1;paint-order:fill markers stroke;stop-color:#000000"
           d="M 320.87858,338.01294 C 281.95267,309.89167 225.6036,305.72726 156.39388,319.24623 209.58653,265.04748 278.4105,228.0432 369.45124,215.47736 360.951,193.10977 318.78532,194.78893 285.55301,190.0871 c 71.84967,-34.61604 149.12201,-28.5621 228.5123,-6.62354 11.48715,33.4857 35.33869,66.9714 -33.11772,100.4571 -56.18757,-3.20348 -111.36025,1.20466 -160.06901,54.09228 z"
           id="path30246"
           sodipodi:nodetypes="ccccccc"
           inkscape:label="top hair" />
        <path
           id="path13483"
           style="display:inline;fill:#ffcb4c;stroke:#ffcb4c;stroke-width:64.0002;stroke-linecap:round;stroke-linejoin:round;stroke-miterlimit:4;stroke-dasharray:6.40001, 6.40001;stroke-dashoffset:0;stroke-opacity:1;paint-order:fill markers stroke;stop-color:#000000"
           inkscape:label="right ear"
           d="m 634.24383,124.07068 c -26.09194,-6.73733 -103.08077,74.03116 -119.42208,100.21398 -14.54936,23.31167 -78.57847,107.13417 -90.20836,123.44302 0,0 26.15338,-24.33263 30.90876,-20.93647 2.37765,1.69808 5.16948,3.76419 8.19527,6.14197 3.0258,2.37778 6.28534,5.06687 9.59875,8.01147 3.31343,2.94459 6.68077,6.14468 9.92135,9.5432 1.62026,1.69926 3.20892,3.44803 4.74337,5.23959 1.53449,1.79159 3.01462,3.62539 4.41824,5.49516 1.40357,1.86977 2.73043,3.77509 3.9581,5.70895 1.22767,1.93386 2.35599,3.89638 3.36269,5.88022 1.00667,1.98384 1.89186,3.9894 2.63249,6.0091 0.74063,2.01971 1.33679,4.05383 1.76632,6.09529 0.4295,2.04145 0.77683,4.1801 1.05002,6.39544 0.27318,2.21534 0.47208,4.50733 0.60615,6.85634 0.13407,2.34902 0.20297,4.75453 0.21524,7.19703 0.0123,2.44251 -0.032,4.92205 -0.12427,7.41784 -0.18456,4.99158 -0.56112,10.04961 -1.06028,15.01317 -0.4992,4.96356 -1.12056,9.83242 -1.7962,14.4464 -0.67561,4.61399 -1.40515,8.97312 -2.1191,12.91595 -0.71395,3.94284 -1.413,7.46945 -2.02711,10.41957 -1.2282,5.90024 -2.11827,9.49346 -2.11827,9.49346 41.84953,-30.71957 122.25131,-97.39326 144.26517,-170.6197 30.13961,-100.25579 10.15379,-176.01198 -6.76625,-180.38098 z"
           sodipodi:nodetypes="sscsssssssssssssssssscss" />
        <path
           style="fill:none;stroke:#65471b;stroke-width:64;stroke-linecap:round;stroke-linejoin:round;stroke-opacity:1;paint-order:fill markers stroke;stop-color:#000000"
           d="m 413.42417,389.34377 3.08897,103.83206"
           id="path1517" />
      </g>
      <path
         style="fill:#ffcb4c;fill-opacity:1;stroke:#ffcb4c;stroke-width:64;stroke-linecap:round;stroke-linejoin:round;stroke-opacity:1;paint-order:fill markers stroke;stop-color:#000000"
         d="m 548.23428,677.48122 -29.82622,193.16026 24.14503,-35.5074"
         id="path964"
         sodipodi:nodetypes="ccc"
         inkscape:label="path964" />
      <path
         style="fill:#ffcb4c;fill-opacity:1;stroke:#ffcb4c;stroke-width:64;stroke-linecap:round;stroke-linejoin:round;stroke-opacity:1;paint-order:fill markers stroke;stop-color:#000000"
         d="m 542.55309,894.78651 32.66681,180.37759 31.24652,-24.145"
         id="path5564"
         sodipodi:nodetypes="ccc" />
      <path
         style="display:inline;fill:#ffcb4c;fill-opacity:1;stroke:#ffcb4c;stroke-width:64;stroke-linecap:round;stroke-linejoin:round;stroke-opacity:1;paint-order:fill markers stroke;stop-color:#000000"
         d="m 657.59707,1122.0339 66.75392,66.0437"
         id="path6398" />
      <path
         style="display:none;fill:#234567;fill-opacity:1;stroke:#234567;stroke-width:64;stroke-linecap:round;stroke-linejoin:round;stroke-opacity:1;paint-order:fill markers stroke;stop-color:#000000"
         d="m 1081.5352,1517.2257 c -34.4698,10.621 -65.4026,30.9826 -80.291,95.5325 52.6958,61.9637 73.9941,135.3276 90.8773,210.2947 42.2105,-57.9861 71.3988,-122.7168 68.0635,-204.2931 -5.2508,-41.784 -22.9907,-78.8386 -78.6498,-101.5341 z"
         id="path31499"
         sodipodi:nodetypes="ccccc"
         inkscape:label="tail tuft" />
    </g>
    <g
       id="g47627"
       inkscape:label="dragn"
       style="display:inline;stroke-width:1.02766"
       transform="matrix(-0.96943095,-0.08465324,-0.08466034,0.96934975,1788.2766,436.36407)">
      <path
         style="fill:#ffba00;fill-opacity:1;stroke:#ffba00;stroke-width:65.7706;stroke-linecap:round;stroke-linejoin:round;stroke-dashoffset:172.8;stroke-opacity:1;paint-order:fill markers stroke;stop-color:#000000"
         d="M 89.24734,1573.1178 C 70.187726,1180.7419 185.62305,1032.7035 373.46876,660.28896 195.22819,548.47503 67.918864,561.42682 55.392022,358.71666 L 468.28662,404.89361 C 350.34037,297.95271 222.70094,199.69101 228.13011,57.884858 385.79581,107.56812 632.97376,169.66246 763.83565,226.52058 c 244.02095,94.274 552.61635,107.11999 510.19415,322.54383 0,0 126.2973,113.64137 243.689,189.71596 54.5205,-45.23523 83.2657,-47.23995 154.9076,-47.50796 18.5052,87.90552 -123.8148,377.82429 -233.3941,419.30949 C 1316.2772,1157.1312 814.96263,811.58134 818.84715,799.92705 719.78989,1100.1434 792.5269,1202.3483 818.34531,1451.2496 579.78823,1626.3938 373.73659,1596.0544 89.24734,1573.1178 Z"
         id="path42076"
         sodipodi:nodetypes="cccccccccsccc" />
      <ellipse
         style="fill:#2f2f2f;fill-opacity:1;stroke:none;stroke-width:32.8853;stroke-linecap:round;stroke-linejoin:round;stroke-miterlimit:4;stroke-dasharray:none;stroke-dashoffset:172.8;stroke-opacity:1;paint-order:fill markers stroke;stop-color:#000000"
         id="path48003"
         cx="1592.152"
         cy="732.1626"
         rx="25.565329"
         ry="26.275478" />
      <path
         style="fill:none;fill-opacity:1;stroke:#2f2f2f;stroke-width:73.9919;stroke-linecap:round;stroke-linejoin:round;stroke-miterlimit:4;stroke-dasharray:none;stroke-dashoffset:172.8;stroke-opacity:1;paint-order:fill markers stroke;stop-color:#000000"
         d="m 1302.8991,829.97205 27.1946,132.90791 156.2214,-55.91676 28.6983,126.6428 91.0164,-88.83055"
         id="path53871" />
      <ellipse
         style="fill:#2f2f2f;fill-opacity:1;stroke:#2f2f2f;stroke-width:65.7706;stroke-linecap:round;stroke-linejoin:round;stroke-dashoffset:172.8;stroke-opacity:1;paint-order:fill markers stroke;stop-color:#000000"
         id="path4827"
         cx="-1061.5768"
         cy="478.16171"
         transform="matrix(-0.99620842,-0.08699881,-0.08699881,0.99620842,0,0)"
         rx="74.307281"
         ry="93.126007" />
    </g>
    <path
       style="display:inline;fill:none;stroke:#ffcb4c;stroke-width:64;stroke-linecap:round;stroke-linejoin:round;stroke-dashoffset:172.8;stroke-opacity:1;paint-order:fill markers stroke;stop-color:#000000"
       d="m 991.64542,766.39542 12.41578,-61.97066 204.5706,-202.58275"
       id="path2363"
       sodipodi:nodetypes="ccc"
       inkscape:transform-center-x="97.421563"
       inkscape:transform-center-y="166.67743" />
    <path
       style="display:inline;fill:none;stroke:#ffcb4c;stroke-width:64;stroke-linecap:round;stroke-linejoin:round;stroke-dashoffset:172.8;stroke-opacity:1;paint-order:fill markers stroke;stop-color:#000000"
       d="M 863.67014,762.97771 876.08589,701.00705 1080.6565,498.4243"
       id="path2363-5"
       sodipodi:nodetypes="ccc"
       inkscape:transform-center-x="97.421563"
       inkscape:transform-center-y="166.67743" />
  </g>
</svg>
