<?xml version="1.0" encoding="UTF-8" standalone="no"?>
<!-- Created with Inkscape (http://www.inkscape.org/) -->

<svg
   version="1.1"
   id="svg824"
   width="1706.6667"
   height="1706.6667"
   viewBox="0 0 1706.6667 1706.6667"
   sodipodi:docname="ying_hug_dragn.svg"
   inkscape:version="1.1 (c68e22c387, 2021-05-23)"
   inkscape:export-filename="D:\Pictures\yingmotes\ying_smol.png"
   inkscape:export-xdpi="72"
   inkscape:export-ydpi="72"
   xmlns:inkscape="http://www.inkscape.org/namespaces/inkscape"
   xmlns:sodipodi="http://sodipodi.sourceforge.net/DTD/sodipodi-0.dtd"
   xmlns="http://www.w3.org/2000/svg"
   xmlns:svg="http://www.w3.org/2000/svg">
  <defs
     id="defs828" />
  <sodipodi:namedview
     id="namedview826"
     pagecolor="#ffffff"
     bordercolor="#666666"
     borderopacity="1.0"
     inkscape:pageshadow="2"
     inkscape:pageopacity="0.0"
     inkscape:pagecheckerboard="0"
     showgrid="false"
     inkscape:zoom="0.23545481"
     inkscape:cx="934.36187"
     inkscape:cy="639.18846"
     inkscape:window-width="1920"
     inkscape:window-height="1001"
     inkscape:window-x="-9"
     inkscape:window-y="-9"
     inkscape:window-maximized="1"
     inkscape:current-layer="layer1"
     showguides="false" />
  <g
     id="layer1"
     inkscape:label="Ying"
     style="display:inline"
     inkscape:groupmode="layer">
    <path
       style="display:inline;fill:none;fill-opacity:1;stroke:#f19020;stroke-width:64;stroke-linecap:round;stroke-linejoin:round;stroke-opacity:1;paint-order:fill markers stroke;stop-color:#000000"
       d="m 445.0356,1139.368 67.45045,-43.662 298.86815,-89.1877 119.98644,0.6151"
       id="path14378-2"
       sodipodi:nodetypes="cccc"
       inkscape:transform-center-x="235.9187"
       inkscape:transform-center-y="53.29505" />
    <path
       style="display:inline;fill:none;fill-opacity:1;stroke:#f19020;stroke-width:64;stroke-linecap:round;stroke-linejoin:round;stroke-opacity:1;paint-order:fill markers stroke;stop-color:#000000"
       d="m 1159.1921,1632.261 90.69,-0.3769 -97.4696,-228.9908 -75.4396,-148.7408 158.4657,1.1562 -83.0261,147.5846"
       id="path10187-8"
       sodipodi:nodetypes="cccccc" />
    <path
       style="fill:none;fill-opacity:1;stroke:#ffcb4c;stroke-width:64;stroke-linecap:round;stroke-linejoin:round;stroke-opacity:1;paint-order:fill markers stroke;stop-color:#000000"
       d="m 1227.8821,1643.8841 119.8249,-2.6077 -119.1254,-257.8315 -123.6929,-111.8705 148.3747,-55.6566 -24.6818,167.5271"
       id="path10187"
       sodipodi:nodetypes="cccccc" />
    <g
       id="g917"
       inkscape:label="body"
       transform="rotate(-19.688676,1444.7034,1222.5434)">
      <path
         style="fill:#ffcb4c;fill-opacity:1;stroke:#ffcb4c;stroke-width:64;stroke-linecap:round;stroke-linejoin:round;stroke-opacity:1;paint-order:fill markers stroke;stop-color:#000000"
         d="m 1012.0887,783.16769 c 0,0 -60.40681,94.90558 -52.94293,170.16477 8.54319,149.05824 104.68283,319.71474 253.59363,304.32174 148.911,-15.3929 169.2085,-58.7996 248.0789,-122.1449 78.8703,-63.3452 190.4577,-91.7962 190.4577,-91.7962 0,0 -122.7302,-12.161 -210.3271,22.4404 -97.2606,38.4187 -121.4277,42.7782 -226.4179,40.5277 -96.1994,-2.062 -156.4649,-57.6828 -163.0288,-176.13512 -6.0449,-109.08758 10.485,-171.33667 10.485,-171.33667"
         id="path2053"
         sodipodi:nodetypes="cczzcsssc" />
      <path
         style="fill:#ffcb4c;fill-opacity:1;stroke:#ffcb4c;stroke-width:64;stroke-linecap:round;stroke-linejoin:round;stroke-opacity:1;paint-order:fill markers stroke;stop-color:#000000"
         d="m 971.08091,865.57618 -24.20203,157.24192 19.59211,-28.90473"
         id="path964"
         sodipodi:nodetypes="ccc"
         inkscape:label="path964" />
      <path
         style="fill:#ffcb4c;fill-opacity:1;stroke:#ffcb4c;stroke-width:64;stroke-linecap:round;stroke-linejoin:round;stroke-opacity:1;paint-order:fill markers stroke;stop-color:#000000"
         d="m 966.47099,1042.4734 26.50699,146.8363 25.35452,-19.6553"
         id="path5564"
         sodipodi:nodetypes="ccc" />
    </g>
    <path
       style="display:none;fill:#234567;fill-opacity:1;stroke:#234567;stroke-width:64;stroke-linecap:round;stroke-linejoin:round;stroke-opacity:1;paint-order:fill markers stroke;stop-color:#000000"
       d="m 1417.4248,1006.2692 c 5.1141,28.8359 18.4502,55.813 69.086,74.3597 55.3385,-36.1387 116.729,-45.8362 178.9706,-51.8154 -42.5893,-39.88095 -91.9344,-69.96089 -158.1523,-75.56248 -34.2732,-0.0166 -65.9821,10.50408 -89.9043,53.01818 z"
       id="path31499"
       sodipodi:nodetypes="ccccc"
       inkscape:label="tail tuft" />
    <path
       style="opacity:1;fill:none;fill-opacity:1;stroke:#65471b;stroke-width:64;stroke-linecap:round;stroke-linejoin:round;stroke-miterlimit:4;stroke-dasharray:none;stroke-dashoffset:172.8;stroke-opacity:1;paint-order:stroke fill markers;stop-color:#000000"
       d="m 860.57997,974.14607 c 21.27212,141.88863 100.36415,264.58833 188.45473,380.11143"
       id="path12613"
       sodipodi:nodetypes="cc" />
    <g
       id="g47627"
       inkscape:label="dragn"
       style="display:inline;opacity:1"
       transform="translate(-8.4941989,8.4941989)">
      <path
         style="fill:#ffba00;fill-opacity:1;stroke:#ffba00;stroke-width:64;stroke-linecap:round;stroke-linejoin:round;stroke-dashoffset:172.8;stroke-opacity:1;paint-order:fill markers stroke;stop-color:#000000"
         d="M 383.79593,1595.9893 C 215.60856,1213.4013 185.62305,1032.7035 373.46876,660.28896 195.22819,548.47503 67.918864,561.42682 55.392022,358.71666 L 468.28662,404.89361 C 350.34037,297.95271 222.70094,199.69101 228.13011,57.884858 385.79581,107.56812 632.97376,169.66246 763.83565,226.52058 c 244.02095,94.274 552.61635,107.11999 510.19415,322.54383 0,0 126.2973,113.64137 243.689,189.71596 54.5205,-45.23523 83.2657,-47.23995 154.9076,-47.50796 18.5052,87.90552 -123.8148,377.82429 -233.3941,419.30949 -122.9551,46.5493 -624.26967,-299.00056 -620.38515,-310.65485 -0.0135,308.86585 124.26597,441.23455 294.04675,674.19405 -238.55708,175.1442 -444.60872,144.8048 -729.09797,121.8682 z"
         id="path42076"
         sodipodi:nodetypes="cccccccccsccc" />
      <path
         style="fill:#ffba00;fill-opacity:1;stroke:#2f2f2f;stroke-width:72;stroke-linecap:round;stroke-linejoin:round;stroke-miterlimit:4;stroke-dasharray:none;stroke-dashoffset:172.8;stroke-opacity:1;paint-order:fill markers stroke;stop-color:#000000"
         d="M 886.01042,540.01532 C 1019.1499,419.52445 1129.8992,400.97632 1135.4216,643.29554"
         id="path47543"
         sodipodi:nodetypes="cc" />
      <ellipse
         style="fill:#2f2f2f;fill-opacity:1;stroke:none;stroke-width:32;stroke-linecap:round;stroke-linejoin:round;stroke-miterlimit:4;stroke-dasharray:none;stroke-dashoffset:172.8;stroke-opacity:1;paint-order:fill markers stroke;stop-color:#000000"
         id="path48003"
         cx="1592.152"
         cy="732.1626"
         rx="25.565329"
         ry="26.275478" />
      <path
         style="fill:none;fill-opacity:1;stroke:#2f2f2f;stroke-width:72;stroke-linecap:round;stroke-linejoin:round;stroke-miterlimit:4;stroke-dasharray:none;stroke-dashoffset:172.8;stroke-opacity:1;paint-order:fill markers stroke;stop-color:#000000"
         d="m 1302.8991,829.97205 27.1946,132.90791 156.2214,-55.91676 28.6983,126.6428 91.0164,-88.83055"
         id="path53871" />
    </g>
    <g
       id="g4083"
       inkscape:label="outlines"
       style="opacity:1;fill:none;fill-opacity:1;stroke:#65471b;stroke-width:64;stroke-miterlimit:4;stroke-dasharray:none;stroke-opacity:1"
       transform="translate(-8.4941989,8.4941989)">
      <g
         id="g943"
         inkscape:label="headoutline"
         transform="matrix(0.79915435,-0.14063691,0.14109006,0.80172928,473.30054,531.56195)"
         style="fill:none;fill-opacity:1;stroke:#65471b;stroke-width:78.7459;stroke-miterlimit:4;stroke-dasharray:none;stroke-opacity:1">
        <path
           id="path927"
           style="color:#000000;fill:none;fill-opacity:1;stroke:#65471b;stroke-width:64;stroke-linecap:round;stroke-linejoin:round;stroke-miterlimit:4;stroke-dasharray:none;stroke-opacity:1;paint-order:fill markers stroke"
           d="m 954.8427,930.99173 c 0,0 17.87403,-5.16977 18.46582,-5.20517 l 6.22461,-1.44531 c 1.51431,-0.35432 3.00069,-0.8191 4.44727,-1.39063 0.59286,-0.002 1.18553,-0.0199 1.77734,-0.0547 l 4.88867,-1.13476 c 15.32479,-3.69421 25.66139,-18.04961 24.34369,-33.8086 7.1911,-5.42796 11.7619,-13.64971 12.5879,-22.64257 1.1025,-0.59516 2.2106,-1.17544 3.3067,-1.78711 1.5108,-0.85824 2.9491,-1.83871 4.3007,-2.93164 0.6843,-0.21729 1.3612,-0.45766 2.0293,-0.72071 2.1028,-1.25404 4.2041,-2.54922 6.2969,-3.88867 1.4783,-0.96386 2.8743,-2.04895 4.1738,-3.24414 0.6876,-0.26737 1.3658,-0.55856 2.0333,-0.87305 2.0641,-1.41955 4.1172,-2.88451 6.1562,-4.40039 1.4373,-1.08926 2.78,-2.29865 4.0137,-3.61523 0.6882,-0.32848 1.3644,-0.68156 2.0273,-1.05859 2.005,-1.61554 3.9913,-3.28519 5.9531,-5.01172 1.3737,-1.23362 2.6382,-2.58437 3.7793,-4.03711 0.6776,-0.40044 1.3402,-0.82586 1.9864,-1.27539 1.9597,-1.88887 3.8104,-3.77585 5.5683,-5.64063 1.1293,-1.21128 2.163,-2.5088 3.0918,-3.88086 0.5548,-0.38114 1.0974,-0.77978 1.627,-1.19531 1.5824,-1.73572 3.1475,-3.48822 4.6972,-5.25977 1.1014,-1.27433 2.1006,-2.63402 2.9883,-4.0664 0.5447,-0.40927 1.0763,-0.83593 1.5938,-1.2793 1.514,-1.80244 3.0105,-3.62135 4.4883,-5.45703 1.0528,-1.32432 1.9991,-2.73042 2.83,-4.20508 0.5307,-0.43438 1.0472,-0.88578 1.5489,-1.35351 1.4383,-1.86634 2.8633,-3.75414 4.2714,-5.66602 0.9965,-1.37119 1.8828,-2.81976 2.6504,-4.33203 0.5125,-0.45774 1.0102,-0.93194 1.4922,-1.42188 1.3717,-1.9491 2.7172,-3.91121 4.0391,-5.88476 0.9391,-1.42254 1.7633,-2.91818 2.4648,-4.47266 0.4974,-0.48734 0.9788,-0.99086 1.4434,-1.50976 1.283,-2.01537 2.5448,-4.04948 3.7832,-6.10352 0.8762,-1.47625 1.6326,-3.02095 2.2617,-4.61914 0.477,-0.5159 0.9369,-1.04743 1.3789,-1.59375 1.1897,-2.08941 2.3584,-4.20396 3.5039,-6.3457 0.8051,-1.53133 1.4851,-3.12575 2.0332,-4.76758 0.4548,-0.54772 0.8913,-1.11053 1.3086,-1.6875 1.093,-2.18337 2.1601,-4.38892 3.1953,-6.61914 0.7253,-1.59742 1.3185,-3.25208 1.7735,-4.94727 0.4325,-0.58787 0.8449,-1.19044 1.2363,-1.80664 0.9756,-2.28421 1.9203,-4.60265 2.8301,-6.95312 0.6335,-1.68074 1.1248,-3.4121 1.4687,-5.17578 0.4053,-0.64109 0.7877,-1.29646 1.1465,-1.96485 0.8335,-2.41878 1.6327,-4.8911 2.3828,-7.41601 0.5162,-1.80541 0.873,-3.65302 1.0664,-5.52149 0.3713,-0.72741 0.7146,-1.46884 1.0293,-2.22265 0.6412,-2.6387 1.2335,-5.38345 1.7403,-8.24024 0.3413,-2.07174 0.4786,-4.17233 0.4101,-6.27148 0.3154,-0.91671 0.5891,-1.84735 0.8203,-2.78906 0.2849,-3.14515 0.4621,-6.69425 0.2989,-10.63282 -0.1205,-2.24111 -0.4753,-4.46359 -1.0586,-6.63086 -0.1402,-2.90426 -0.6738,-5.77632 -1.586,-8.53711 -1.2287,-3.67728 -3.339,-8.9398 -8.2519,-14.45898 -0.02,-0.0228 -0.041,-0.0456 -0.061,-0.0684 -0.9328,-1.04192 -1.9751,-2.09119 -3.1484,-3.12695 l -0.012,-0.008 -0.031,-0.0312 c -6.0025,-5.28006 -11.869,-7.61068 -16.2109,-8.98437 l -0.045,-0.0156 c -0.7999,-0.2517 -1.6079,-0.48276 -2.4239,-0.69726 -1.3747,-0.17401 -2.7591,-0.25817 -4.1445,-0.25195 -2.6753,-0.92446 -5.4607,-1.48863 -8.2832,-1.67774 -3.5276,-0.22052 -6.7649,-0.19276 -9.7012,-0.0703 -0.8703,0.17351 -1.7331,0.38333 -2.5859,0.62891 -1.9661,-0.17524 -3.9439,-0.16741 -5.9082,0.0234 -2.6708,0.29111 -5.2831,0.64684 -7.836,1.04883 -1.2179,0.36758 -2.4127,0.80782 -3.5781,1.31836 -1.2641,-0.0833 -2.532,-0.0911 -3.7969,-0.0234 -2.4223,0.46753 -4.8141,0.9675 -7.1757,1.4961 -1.1311,0.42695 -2.237,0.91797 -3.3125,1.4707 -1.2073,-0.0132 -2.4144,0.0422 -3.6153,0.16602 -2.3065,0.57196 -4.5829,1.16526 -6.832,1.77343 -1.0876,0.46658 -2.1485,0.99344 -3.1777,1.57813 -1.1825,0.0352 -2.362,0.13628 -3.5332,0.30273 -2.2248,0.64525 -4.4349,1.30782 -6.6348,1.98633 -1.0577,0.49893 -2.0873,1.05576 -3.084,1.66797 -1.1675,0.0733 -2.3301,0.21089 -3.4824,0.41211 -2.1825,0.71053 -4.3565,1.4382 -6.5215,2.17969 -1.0384,0.53018 -2.0471,1.11699 -3.0215,1.75781 -1.1609,0.10846 -2.315,0.28059 -3.457,0.51562 -2.1537,0.77387 -4.3123,1.56754 -6.4766,2.38477 -0.5915,0.3432 -1.1719,0.70537 -1.7402,1.08594 1.7699,-12.23063 2.5749,-23.98035 1.291,-35.85352 -1.3025,-12.04581 -3.3321,-27.22726 -20.21871,-39.21875 -9.77842,-6.9438 -19.04202,-8.7911 -27.42969,-8.46094 l 5.7e-4,6.8e-4 c -2.79589,0.11006 -5.49444,0.4615 -8.08203,0.94727 -3.45012,0.64766 -6.70417,1.53347 -9.72852,2.40039 -12.09735,3.46769 -23.37582,9.11601 -35.0996,16.24805 -23.44757,14.26407 -48.04488,34.71718 -68.8086,58.61914 -37.41933,43.07485 -58.27734,91.78906 -58.27734,91.78906 l -0.22852,0.52539 c -0.30024,0.16511 -0.5978,0.33506 -0.89258,0.50977 -2.26473,1.97223 -4.42981,4.02123 -6.5,6.13671 -0.88321,1.16924 -1.68522,2.39805 -2.40039,3.67774 -1.20907,0.83105 -2.35958,1.74467 -3.44336,2.73437 -1.85713,2.19058 -3.62686,4.43027 -5.30859,6.70899 -0.6773,1.22566 -1.27363,2.49466 -1.78516,3.79883 -1.03641,0.9293 -2.01113,1.92556 -2.91796,2.98242 -1.49094,2.28654 -2.88718,4.56984 -4.20508,6.83398 -0.49764,1.20335 -0.92161,2.43611 -1.26953,3.69141 -0.87471,0.94889 -1.69131,1.95007 -2.44532,2.99805 -1.16917,2.20196 -2.2757,4.3727 -3.33203,6.50585 -0.36335,1.10368 -0.66653,2.22643 -0.9082,3.36329 -0.73684,0.87883 -1.42598,1.79683 -2.06445,2.75 -0.005,0.0103 -0.009,0.019 -0.0137,0.0293 -1.1718,-0.13358 -2.36205,-0.22994 -3.57812,-0.26367 -2.85462,-0.0792 -5.69501,0.1667 -8.46875,0.67774 -8.32123,1.53307 -16.03924,5.45161 -21.74024,10.12304 -10.63134,8.71139 -17.23944,19.06177 -22.86523,32.24805 -0.62706,0.39835 -1.24007,0.81853 -1.83789,1.25976 -0.96946,0.1372 -1.93206,0.31904 -2.88477,0.54493 -1.75057,0.70744 -3.42078,1.3599 -5.01757,1.94726 -0.65834,0.3721 -1.30328,0.76753 -1.9336,1.18555 -0.70896,0.0395 -1.41638,0.10267 -2.12109,0.18945 -1.56764,0.46143 -3.52273,0.98893 -5.84766,1.64844 -1.14438,0.50303 -2.25827,1.07302 -3.33593,1.70703 -1.2877,0.0686 -2.57,0.21537 -3.83985,0.43945 -2.5552,0.82117 -5.24276,1.7586 -8.03711,2.86915 -1.41159,0.77035 -2.76309,1.64654 -4.04297,2.62109 -1.61892,0.33931 -3.20899,0.80425 -4.75586,1.39062 -3.06558,1.60115 -6.31877,3.53627 -9.62304,5.97852 -1.63692,1.46553 -3.1187,3.09655 -4.42188,4.86719 -2.00599,1.24351 -3.86826,2.7062 -5.55273,4.36132 -3.31284,3.86844 -6.25854,8.37744 -8.50196,13.61133 -0.93648,2.64757 -1.52157,5.40757 -1.74023,8.20899 -1.0701,2.43613 -1.83314,4.99688 -2.27148,7.62304 -0.49253,5.24273 -0.18892,10.0674 0.5,14.41993 0.52498,2.00481 1.24253,3.95404 2.14257,5.82031 0.0945,2.01429 0.37832,4.01535 0.84766,5.97656 1.05283,3.0089 2.14876,5.67833 3.16992,8.05078 0.73293,1.2364 1.54792,2.42202 2.43946,3.54883 0.29396,1.39394 0.68023,2.76678 1.15624,4.10938 0.98033,1.92821 2.06524,3.83662 3.15626,5.74218 0.34039,1.39869 0.77431,2.7729 1.29882,4.11328 l 30.72071,71.89846 c 6.95426,16.2747 25.73887,23.8281 41.95703,16.8711 14.10311,-6.0655 21.90149,-21.3384 18.57226,-36.3731 1.35883,0.3743 2.74075,0.6582 4.13672,0.8496 2.85537,0.017 5.67727,-0.062 8.45899,-0.2265 1.37537,-0.2645 2.73181,-0.6194 4.06054,-1.0625 1.38269,0.2014 2.77696,0.3116 4.17383,0.33 2.69834,-0.3198 5.37649,-0.712 8.03125,-1.1738 1.28263,-0.4051 2.53839,-0.8911 3.75977,-1.4551 1.34062,0.053 2.68312,0.021 4.01953,-0.096 2.5624,-0.575 5.09093,-1.2049 7.58398,-1.8828 1.74731,-0.4925 3.44943,-1.13344 5.08789,-1.91598 0.76055,-0.0554 1.51885,-0.13818 2.27344,-0.24805 l 0.35742,-0.11328 c 0.0286,-0.01 0.0573,-0.0195 0.0859,-0.0293 l 5.73242,-1.82617 c 1.48682,-0.47684 2.93666,-1.06239 4.33789,-1.75195 0.59225,-0.0499 1.18297,-0.1163 1.77149,-0.19922 l 0.67382,-0.2168 0.0254,-0.008 5.41015,-1.73242 c 1.49334,-0.48236 2.94911,-1.07446 4.35547,-1.77149 0.60015,-0.052 1.1987,-0.12106 1.79492,-0.20703 l 5.05469,-1.63281 0.043,-0.0137 1.02344,-0.33203 c 1.48613,-0.48462 2.93468,-1.07801 4.33398,-1.7754 0.5976,-0.0541 1.19354,-0.12511 1.78711,-0.21289 2.043,-0.66615 4.09604,-1.33766 6.15625,-2.01562 1.49104,-0.49483 2.94355,-1.09934 4.3457,-1.80859 0.60096,-0.0572 1.20016,-0.13143 1.79688,-0.22266 2.05696,-0.68254 4.1146,-1.36781 6.17578,-2.06055 1.49685,-0.50749 2.95398,-1.12572 4.35937,-1.84961 0.60764,-0.062 1.21335,-0.14145 1.81641,-0.23828 2.05695,-0.70055 4.12512,-1.41088 6.20313,-2.13086 1.49406,-0.52194 2.94728,-1.15454 4.34765,-1.89258 0.6085,-0.0691 1.21487,-0.15571 1.81836,-0.25976 2.08248,-0.73189 4.14865,-1.46688 6.19922,-2.20117 1.49496,-0.53972 2.94755,-1.19062 4.3457,-1.94727 0.61067,-0.0761 1.21899,-0.16989 1.82422,-0.28125 2.06033,-0.75019 4.11556,-1.50598 6.16602,-2.26562 1.48062,-0.55315 2.91816,-1.21578 4.30078,-1.98243 0.60623,-0.0809 1.20999,-0.17925 1.81055,-0.29492 2.03859,-0.76478 4.07017,-1.53081 6.09375,-2.29883 1.47273,-0.56314 2.90177,-1.2349 4.27539,-2.00976 0.60441,-0.0862 1.20622,-0.18976 1.80468,-0.31055 l 3.9961,-1.5332 0.0449,-0.0176"
           transform="matrix(1.2137337,0.21290948,-0.2135955,1.2098356,-460.92159,-743.87272)"
           sodipodi:nodetypes="ccccccccccccccccccccccccccccccccccccccccccccccccccccccccscccccccccccccccccccccccccccccssccssssccccccccccccccccssscccccccccccccccccccccccccccccccccccccccccccccccccccccccccccccccccccccccccc" />
      </g>
      <g
         id="g1282"
         inkscape:label="hairoutline"
         style="display:none;fill:none;fill-opacity:1;stroke:#65471b;stroke-width:64;stroke-miterlimit:4;stroke-dasharray:none;stroke-opacity:1">
        <path
           id="path967"
           style="color:#000000;display:inline;fill:none;fill-opacity:1;stroke:#65471b;stroke-width:64;stroke-linecap:round;stroke-linejoin:round;stroke-miterlimit:4;stroke-dasharray:none;stroke-opacity:1;paint-order:fill markers stroke"
           d="m 1146.6493,1041.5788 c 0.4,-4.1931 -0.021,-8.5105 -1.3466,-12.7136 L 1039.584,694.10739 c -4.3212,-13.67711 -17.1723,-22.81966 -31.4649,-22.38476 -3.4547,0.10536 -6.8688,0.77223 -10.10933,1.97461 -4.05533,1.50451 -7.76303,3.81949 -10.89844,6.80468 l -86.19141,82.08399 c -7.88577,7.51118 -11.41471,18.53516 -9.36523,29.25586"
           sodipodi:nodetypes="ccccsccc" />
        <path
           id="path983"
           style="color:#000000;display:inline;fill:none;fill-opacity:1;stroke:#65471b;stroke-width:64;stroke-linecap:round;stroke-linejoin:round;stroke-miterlimit:4;stroke-dasharray:none;stroke-opacity:1;paint-order:fill markers stroke"
           d="m 879.35156,571.582 c -22.04047,-0.33193 -44.0145,1.05519 -65.53125,4.91992 -34.4268,6.18358 -67.68542,18.70903 -98.17969,40.6836 a 32.054728,31.951778 80.019073 0 0 -6.44531,44.90039 c -35.16116,23.1938 -63.79139,51.89945 -86.23633,84.6914 a 32.054728,31.951778 80.019073 0 0 37.83204,48.07813 c 49.20462,-18.9551 85.44273,-20.49091 108.6914,-9.17578 a 32.054728,31.951778 80.019073 0 0 40.83008,-11.51953 c 25.4575,-39.84973 54.61491,-46.35901 97.13477,-51.35938 a 32.054728,31.951778 80.019073 0 0 15.06054,-5.9082 c 14.7864,-10.7901 25.9463,-21.73963 33.61328,-34.66797 7.66699,-12.92834 10.83486,-28.31003 9.44922,-41.41406 -2.77127,-26.20807 -16.37573,-40.99233 -21.625,-50.51758 a 32.054728,31.951778 80.019073 0 0 -24.93359,-16.42188 c -13.18817,-1.27314 -26.43587,-2.0899 -39.66016,-2.28906 z" />
      </g>
      <g
         id="g1325"
         transform="rotate(4.7266561,71.674279,938.88758)"
         inkscape:label="armoutline"
         style="fill:none;fill-opacity:1;stroke:#65471b;stroke-width:64;stroke-miterlimit:4;stroke-dasharray:none;stroke-opacity:1">
        <path
           id="path1321"
           style="color:#000000;fill:none;fill-opacity:1;stroke:#65471b;stroke-width:64;stroke-linecap:round;stroke-linejoin:round;stroke-miterlimit:4;stroke-dasharray:none;stroke-opacity:1;paint-order:fill markers stroke"
           d="M 887.406,1045.2486 850.01367,1110 h -0.002 l -281.27149,57.7598 -76.42773,-22 c -16.98387,-4.8889 -34.71518,4.9164 -39.60352,21.9004 -4.88888,16.9839 4.91638,34.7152 21.9004,39.6035 l 84,24.1777 c 4.97338,1.4312 10.21966,1.635 15.28906,0.5938 l 303.07226,-62.2364 c 0.74107,-0.2349 1.47333,-0.4968 2.19532,-0.7851 1.66522,-0.4469 3.29161,-1.0275 4.86328,-1.7364 1.03306,-0.5009 2.03842,-1.057 3.01172,-1.666 0.7908,-0.3948 1.5649,-0.8223 2.32031,-1.2812 l 35.20704,-25.6168"
           transform="rotate(-4.7266561,71.674279,938.88758)"
           sodipodi:nodetypes="ccccscccccccccc" />
      </g>
    </g>
    <g
       id="g18131"
       transform="rotate(4.7266561,-35.479758,840.22774)"
       style="display:inline">
      <path
         style="fill:none;fill-opacity:1;stroke:#ffcb4c;stroke-width:64;stroke-linecap:round;stroke-linejoin:round;stroke-opacity:1;paint-order:fill markers stroke;stop-color:#000000"
         d="m 501.64051,1141.7712 85.70741,17.1741 296.91459,-86.9979 68.9433,-145.98697"
         id="path14378"
         sodipodi:nodetypes="cccc"
         inkscape:transform-center-x="194.57836"
         inkscape:transform-center-y="113.44343" />
      <path
         style="fill:#ffcb4c;fill-opacity:1;stroke:#ffcb4c;stroke-width:64;stroke-linecap:round;stroke-linejoin:round;stroke-dashoffset:172.8;stroke-opacity:1;paint-order:fill markers stroke;stop-color:#000000"
         d="m 884.26251,1071.9474 95.93524,-82.71094 -26.99194,-63.27603 z"
         id="path2099" />
    </g>
    <g
       id="g31027"
       inkscape:label="head"
       transform="matrix(0.79915435,-0.14063691,0.14109006,0.80172928,464.80634,540.05615)"
       style="display:inline;stroke-width:1.2304">
      <path
         style="display:inline;fill:none;stroke:#65471b;stroke-width:78.7459;stroke-linecap:round;stroke-linejoin:round;stroke-opacity:1;paint-order:fill markers stroke;stop-color:#000000"
         d="m 219.85067,460.50396 c 49.76762,-91.0151 69.32981,-12.06063 65.92681,18.39941"
         id="path1517-8"
         sodipodi:nodetypes="cc" />
      <path
         style="fill:none;stroke:#65471b;stroke-width:78.7459;stroke-linecap:round;stroke-linejoin:round;stroke-opacity:1;paint-order:fill markers stroke;stop-color:#000000"
         d="m 137.99052,534.29931 21.93043,93.52394"
         id="path1858"
         sodipodi:nodetypes="cc" />
      <path
         style="fill:#f19020;fill-opacity:1;stroke:#f19020;stroke-width:78.7461;stroke-linecap:round;stroke-miterlimit:4;stroke-dasharray:none;stroke-dashoffset:0;stroke-opacity:1;paint-order:fill markers stroke;stop-color:#000000"
         d="m 365.55441,346.23288 c 0,0 33.60872,-50.47194 82.31857,-89.84329 53.58566,-43.31241 126.86466,-72.04043 143.20437,-55.54723 16.33973,16.4932 -10.12317,88.7056 -39.83115,127.19366 -29.70799,38.48807 -116.66469,98.77163 -116.66469,98.77163 z"
         id="path1640"
         inkscape:label="left ear"
         sodipodi:nodetypes="cssscc"
         inkscape:transform-center-x="-22.420557"
         inkscape:transform-center-y="-27.983334" />
      <path
         style="display:none;fill:#123456;fill-opacity:1;stroke:#123456;stroke-width:78.7459;stroke-linecap:round;stroke-linejoin:round;stroke-opacity:1;paint-order:fill markers stroke;stop-color:#000000"
         d="m 613.5679,322.40721 56.81184,427.50911 -58.23213,-69.5945 -34.08711,61.07273 -48.29007,-96.58014 -34.0871,46.86978 -4.26089,-288.32011 z"
         id="path30938"
         inkscape:label="mane" />
      <path
         id="path1148"
         style="display:inline;fill:#ffcb4c;stroke:#ffcb4c;stroke-width:78.7461;stroke-linecap:round;stroke-linejoin:round;stroke-miterlimit:4;stroke-dasharray:7.8746, 7.8746;stroke-dashoffset:0;stroke-opacity:1;paint-order:fill markers stroke;stop-color:#000000"
         inkscape:label="head"
         d="m 539.60091,477.49373 c 0,0 -0.0366,-3.70164 -0.3225,-9.72156 -0.14297,-3.00997 -0.34782,-6.59936 -0.64231,-10.59548 -0.29449,-3.99611 -0.67797,-8.3992 -1.17738,-13.03557 -0.49937,-4.63637 -1.11503,-9.50595 -1.87265,-14.43669 -0.75765,-4.93072 -1.65763,-9.92227 -2.7269,-14.80147 -0.53463,-2.4396 -1.11171,-4.85146 -1.73425,-7.21333 -0.62254,-2.36186 -1.29066,-4.67376 -2.00776,-6.91466 -0.7171,-2.24089 -1.48272,-4.41036 -2.30109,-6.48705 -0.81838,-2.07668 -1.68937,-4.06057 -2.61562,-5.92981 -0.92629,-1.86924 -2.01207,-3.68971 -3.23414,-5.46011 -1.22206,-1.77039 -2.58056,-3.49095 -4.05125,-5.1601 -1.47072,-1.66915 -3.05386,-3.28725 -4.72604,-4.85276 -1.67217,-1.56551 -3.43325,-3.07859 -5.25972,-4.53806 -1.82651,-1.45947 -3.71811,-2.86498 -5.65179,-4.21602 -1.93364,-1.35103 -3.90906,-2.64708 -5.90271,-3.88728 -3.98734,-2.4804 -8.04781,-4.73698 -11.9922,-6.75965 -3.94438,-2.02268 -7.77272,-3.81144 -11.2969,-5.35722 -3.52418,-1.54577 -6.7439,-2.84827 -9.47059,-3.89797 -5.45345,-2.09939 -8.93488,-3.18773 -8.93488,-3.18773 -36.22004,-5.46941 -78.71636,2.38418 -105.99223,20.53018 -34.33362,22.84136 -46.41019,60.42348 -67.36953,72.50809 -20.95933,12.08456 -76.35178,26.43446 -95.06548,28.7003 -18.71369,2.26585 -62.1291,2.26622 -54.64363,42.29643 7.48548,40.03021 38.17558,96.67678 128.00132,84.59222 89.82572,-12.0846 106.29402,-15.10592 181.89733,-30.21167 7.76309,-1.55108 18.25663,-6.26695 29.43815,-12.63933 l 72.51075,-3.90936 -31.50552,-25.74439 c 1.81651,-1.65589 3.59379,-3.32458 5.30014,-5.00709 l 48.16944,-0.81247 -28.77794,-23.83285 c 1.18006,-2.24196 2.19714,-4.45427 2.92486,-6.60463 0.35677,-1.05422 0.6892,-2.26697 1.03302,-3.41291 z" />
      <path
         style="display:none;fill:#123456;fill-opacity:1;stroke:#123456;stroke-width:78.7459;stroke-linecap:round;stroke-linejoin:round;stroke-opacity:1;paint-order:fill markers stroke;stop-color:#000000"
         d="m 328.26316,338.58459 c -38.92591,-28.12127 -95.27498,-32.28568 -164.4847,-18.76671 53.19265,-54.19875 122.01662,-91.20303 213.05736,-103.76887 -8.50024,-22.36759 -50.66592,-20.68843 -83.89823,-25.39026 71.84967,-34.61604 149.12201,-28.5621 228.5123,-6.62354 11.48715,33.4857 35.33869,66.9714 -33.11772,100.4571 -56.18757,-3.20348 -111.36025,1.20466 -160.06901,54.09228 z"
         id="path30246"
         sodipodi:nodetypes="ccccccc"
         inkscape:label="top hair" />
      <path
         id="path13483"
         style="display:inline;fill:#ffcb4c;stroke:#ffcb4c;stroke-width:78.7461;stroke-linecap:round;stroke-linejoin:round;stroke-miterlimit:4;stroke-dasharray:7.8746, 7.8746;stroke-dashoffset:0;stroke-opacity:1;paint-order:fill markers stroke;stop-color:#000000"
         inkscape:label="right ear"
         d="m 751.07502,307.40586 c -16.80524,-20.99805 -127.12545,-2.5755 -155.99601,8.55383 -25.70469,9.90893 -93.21626,31.35742 -112.36003,37.42111 0,0 1.31758,3.39149 3.07205,8.95013 0.87721,2.77929 1.86362,6.10041 2.84913,9.81048 0.98549,3.71008 1.97011,7.80868 2.84365,12.14359 0.87355,4.33491 1.63605,8.90615 2.1774,13.55997 0.27068,2.3269 0.48617,4.67442 0.6325,7.02367 0.14635,2.3493 0.22373,4.69977 0.2182,7.03316 -0.006,2.33338 -0.0939,4.64923 -0.27886,6.9285 -0.18492,2.27928 -0.46662,4.52196 -0.85847,6.70889 -0.39181,2.18691 -0.89401,4.31845 -1.52032,6.37475 -0.62631,2.05632 -1.37688,4.03766 -2.26516,5.92514 -0.88831,1.88745 -1.901,3.80334 -3.01925,5.73611 -1.11828,1.93275 -2.34221,3.88226 -3.65242,5.83852 -1.31021,1.95625 -2.70665,3.91861 -4.17069,5.87661 -1.46405,1.95802 -2.99565,3.91178 -4.57549,5.84976 -3.15965,3.87597 -6.513,7.6901 -9.90739,11.35538 -3.39443,3.66528 -6.82943,7.18179 -10.15405,10.46226 -3.3246,3.28049 -6.53855,6.32518 -9.48882,9.04672 -2.95028,2.72155 -5.63749,5.1196 -7.90888,7.10809 -4.54276,3.97699 -7.42295,6.31389 -7.42295,6.31389 52.01195,0.51549 156.55702,-4.60766 218.35218,-49.91229 84.60501,-62.02749 114.33151,-134.49149 103.43368,-148.10827 z"
         inkscape:transform-center-x="-80.317077"
         inkscape:transform-center-y="-18.729085" />
      <path
         style="fill:none;stroke:#65471b;stroke-width:78.7459;stroke-linecap:round;stroke-linejoin:round;stroke-opacity:1;paint-order:fill markers stroke;stop-color:#000000"
         d="m 338.76781,499.00929 c 34.62155,-120.20916 126.3071,-70.60243 134.39974,-15.20324"
         id="path1517"
         sodipodi:nodetypes="cc" />
    </g>
    <path
       style="display:inline;fill:#ff5555;fill-opacity:1;stroke:#b10020;stroke-width:64;stroke-linecap:round;stroke-linejoin:round;stroke-miterlimit:4;stroke-dasharray:none;stroke-opacity:1;paint-order:fill markers stroke;stop-color:#000000"
       d="m 569.06739,783.97263 c 0,0 -108.17804,-44.16767 -135.32626,-79.12515 -27.14814,-34.95754 -37.09864,-65.5408 -1.89549,-88.705 35.20322,-23.16421 65.91069,12.5868 65.91069,12.5868 0,0 -5.61137,-45.50324 27.53312,-56.92611 34.56019,-11.91072 55.22285,9.65733 64.94068,49.32633 9.71791,39.66908 -21.16274,162.84313 -21.16274,162.84313 z"
       id="path1288"
       sodipodi:nodetypes="czscszc" />
    <path
       style="display:inline;fill:#f84b2e;fill-opacity:1;stroke:#f84b2e;stroke-width:63.9999;stroke-linecap:round;stroke-linejoin:round;stroke-miterlimit:4;stroke-dasharray:none;stroke-opacity:1;paint-order:fill markers stroke;stop-color:#000000"
       d="m 1543.9075,577.54712 c 0,0 -164.0015,-106.05328 -195.4839,-168.42236 -31.4824,-62.36917 -35.8195,-111.84321 32.7626,-133.54965 68.5821,-21.70644 105.7278,43.16406 105.7278,43.16406 0,0 9.0058,-70.21858 69.3677,-75.09983 62.9402,-5.08965 88.9436,34.83415 89.2073,97.82979 0.2639,62.99577 -101.5815,236.07799 -101.5815,236.07799 z"
       id="path1288-2"
       sodipodi:nodetypes="czscszc" />
    <path
       style="fill:none;fill-opacity:1;stroke:#fd8160;stroke-width:64;stroke-linecap:round;stroke-linejoin:round;stroke-miterlimit:4;stroke-dasharray:none;stroke-dashoffset:172.8;stroke-opacity:1;paint-order:stroke fill markers;stop-color:#000000"
       d="m 1362.6641,367.36868 c -11.9765,-28.81242 13.0042,-62.62002 35.0655,-60.8414"
       id="path24504"
       sodipodi:nodetypes="cc" />
  </g>
</svg>
