<?xml version="1.0" encoding="UTF-8" standalone="no"?>
<!-- Created with Inkscape (http://www.inkscape.org/) -->

<svg
   version="1.1"
   id="svg824"
   width="1706.6667"
   height="1706.6667"
   viewBox="0 0 1706.6667 1706.6667"
   sodipodi:docname="ying_objection.svg"
   inkscape:version="1.3.2 (091e20e, 2023-11-25, custom)"
   inkscape:export-filename="D:\Pictures\yingmotes\ying.png"
   inkscape:export-xdpi="72"
   inkscape:export-ydpi="72"
   xmlns:inkscape="http://www.inkscape.org/namespaces/inkscape"
   xmlns:sodipodi="http://sodipodi.sourceforge.net/DTD/sodipodi-0.dtd"
   xmlns="http://www.w3.org/2000/svg"
   xmlns:svg="http://www.w3.org/2000/svg">
  <defs
     id="defs828" />
  <sodipodi:namedview
     id="namedview826"
     pagecolor="#ffffff"
     bordercolor="#666666"
     borderopacity="1.0"
     inkscape:pageshadow="2"
     inkscape:pageopacity="0.0"
     inkscape:pagecheckerboard="0"
     showgrid="false"
     inkscape:zoom="0.55832719"
     inkscape:cx="768.36666"
     inkscape:cy="792.54603"
     inkscape:window-width="1920"
     inkscape:window-height="1001"
     inkscape:window-x="-9"
     inkscape:window-y="-9"
     inkscape:window-maximized="1"
     inkscape:current-layer="svg824"
     inkscape:showpageshadow="2"
     inkscape:deskcolor="#d1d1d1" />
  <path
     style="display:inline;fill:#f2f2f2;stroke:#4d4d4d;stroke-width:64;stroke-linecap:round;stroke-linejoin:round;paint-order:fill markers stroke"
     d="M 76.660612,1395.8999 265.96882,1103.4735 59.758095,936.37262 357.24243,663.44128 117.22665,373.79983 l 321.14787,83.5504 128.45916,-178.24088 314.38685,147.60574 348.19187,-133.68067 43.9465,161.5308 348.1918,-103.04552 -175.786,278.50142 206.2106,222.80111 -341.4308,97.47552 212.9716,172.67085 -169.025,66.8403 212.9716,272.9314 -415.802,-194.9509 -91.2735,133.6806 -368.47489,-150.3909 -108.17613,108.6157 -94.65409,-105.8305 z"
     id="path1" />
  <g
     id="g7"
     transform="matrix(1.0509196,-0.06738548,0.06739683,1.0507426,-62.036521,-20.662839)"
     style="stroke-width:34.1884;stroke-dasharray:none">
    <path
       style="fill:#b10020;fill-opacity:1;stroke:#b10020;stroke-width:34.1884;stroke-linecap:round;stroke-linejoin:round;stroke-dasharray:none;stroke-opacity:1;paint-order:fill markers stroke"
       d="m 76.002269,565.13551 c 53.394901,-54.12775 159.195751,7.08525 212.479281,11.95288 50.2367,76.7606 105.05246,211.37679 129.48949,329.77452 -0.46116,-90.7629 1.61294,-230.73511 -45.16532,-317.37552 44.93745,-30.77238 88.63497,-26.71318 131.96109,-12.22108 24.6726,84.505 82.15887,235.40541 83.47696,331.7525 35.45518,-91.88941 17.12144,-249.55822 -21.5119,-344.69326 48.62951,-24.35446 92.53194,-18.69378 133.92015,2.93135 11.14311,208.98164 20.42196,417.92253 -55.75469,624.9929 -27.04772,13.0687 -48.79048,38.3258 -96.10081,4.8408 4.20951,-39.543 -1.82758,-132.014 -45.78289,-157.3848 2.52617,28.489 17.71617,124.6927 -2.2675,159.8052 -18.61705,25.5665 -76.82428,62.8241 -130.4906,81.6671 C 346.07918,1050.8161 190.03128,763.09565 76.002269,565.13551 Z"
       id="path3-1"
       sodipodi:nodetypes="cccccccccccccc" />
    <path
       style="fill:#ff5555;fill-opacity:1;stroke:#b10020;stroke-width:34.1884;stroke-linecap:round;stroke-linejoin:round;stroke-dasharray:none;stroke-opacity:1;paint-order:fill markers stroke"
       d="m 45.16113,556.43826 c 88.36536,-94.49931 150.44866,-4.89621 203.73219,-0.0286 50.2367,76.7606 105.05246,211.37679 129.48949,329.77452 -0.46116,-90.7629 1.61294,-230.73511 -45.16532,-317.37552 44.93746,-30.77238 88.63497,-26.71318 131.96109,-12.22108 24.6726,84.505 82.15887,235.40541 83.47697,331.7525 35.45517,-91.88941 17.12144,-249.55822 -21.51191,-344.69326 48.62951,-24.35446 92.53194,-18.69378 133.92015,2.93135 11.14311,208.98164 20.42196,417.92253 -55.75468,624.99291 -27.04773,13.0687 -48.79049,38.3258 -96.10082,4.8407 4.20951,-39.543 -1.82758,-132.0139 -45.78289,-157.3847 2.52617,28.489 17.71617,124.6927 -2.2675,159.8052 -18.61704,25.5665 -76.82428,62.8241 -130.4906,81.667 C 306.49095,1030.1374 159.19014,754.3984 45.16113,556.43826 Z"
       id="path3"
       sodipodi:nodetypes="cccccccccccccc" />
  </g>
  <g
     id="g8"
     transform="matrix(1.1036381,-0.07077773,0.07077773,1.1036381,-90.695843,-25.518757)"
     style="stroke-width:32.5525;stroke-dasharray:none">
    <path
       id="path4-9"
       style="fill:#b10020;fill-opacity:1;stroke:#b10020;stroke-width:32.5525;stroke-linecap:round;stroke-linejoin:round;stroke-dasharray:none;stroke-opacity:1;paint-order:fill markers stroke"
       d="m 982.5569,786.12361 c -23.80055,-13.30029 -57.64599,-39.34077 -165.38157,-34.19869 -107.73558,5.14209 -106.1676,166.34855 -130.07359,262.82718 -28.32027,114.2936 131.95419,159.8883 191.92127,166.8826 118.13924,13.779 150.46369,-134.8922 150.46369,-134.8922 0,0 -49.46108,16.7081 -129.75829,15.3746 -80.2972,-1.3335 -83.03573,-52.9485 -83.03573,-52.9485 0,0 186.65592,-8.0266 229.78472,-54.26921 33.6944,-36.12708 21.0814,-121.27471 -63.9205,-168.77578 z m -28.88205,76.58958 c 60.19145,33.81827 -23.04437,60.28647 -120.09939,45.95651 0,0 -54.26472,-106.87717 65.57839,-68.69976 22.47058,7.15825 40.63066,14.93905 54.521,22.74325 z"
       sodipodi:nodetypes="szsscscssscss" />
    <path
       id="path4"
       style="fill:#ff5555;fill-opacity:1;stroke:#b10020;stroke-width:32.5525;stroke-linecap:round;stroke-linejoin:round;stroke-dasharray:none;stroke-opacity:1;paint-order:fill markers stroke"
       d="m 942.96065,765.4475 c -23.80118,-13.29916 -57.64786,-39.33802 -165.3832,-34.19079 -107.73533,5.14724 -106.15963,166.35362 -130.06103,262.83343 -28.3148,114.29496 131.96183,159.88196 191.92921,166.87336 118.13988,13.7733 150.45731,-134.8994 150.45731,-134.8994 0,0 -49.46031,16.7105 -129.75758,15.3808 -80.29721,-1.3297 -83.03827,-52.94444 -83.03827,-52.94444 0,0 186.65549,-8.03553 229.78221,-54.28024 33.6927,-36.12867 21.0755,-121.27571 -63.92865,-168.77272 z m -28.87838,76.59096 c 60.19306,33.81539 -23.04149,60.28757 -120.0972,45.96225 0,0 -54.26982,-106.87458 65.57511,-68.7029 22.47092,7.15718 40.63137,14.93711 54.52209,22.74065 z"
       sodipodi:nodetypes="szsscscssscss" />
  </g>
  <g
     id="g9"
     transform="matrix(0.99536285,-0.22864123,0.22859226,0.99486342,-84.563921,246.23877)"
     style="stroke-width:35.2583;stroke-dasharray:none">
    <path
       style="fill:#b10020;fill-opacity:1;stroke:#b10020;stroke-width:35.2583;stroke-linecap:round;stroke-linejoin:round;stroke-dasharray:none;stroke-opacity:1;paint-order:fill markers stroke"
       d="m 1035.0543,460.11581 c 41.9831,-26.33696 86.4527,-14.73549 130.8789,3.33582 10.6329,93.24392 1.4033,205.03759 -21.7697,301.29042 0,0 111.1362,-109.86249 180.5862,-18.76618 85.3502,111.95244 -43.5756,371.49663 -43.5756,371.49663 l -90.7591,14.5 c 0,0 93.1405,-238.0081 22.5304,-261.69303 -70.6102,-23.68492 -70.5635,1.99918 -70.5635,1.99918 l -8.6162,263.96175 -111.8086,18.5145 c 29.2678,-220.66939 60.483,-452.18476 13.0972,-694.63909 z"
       id="path5-2"
       sodipodi:nodetypes="cccsccscccc" />
    <path
       style="fill:#ff5555;fill-opacity:1;stroke:#b10020;stroke-width:35.2583;stroke-linecap:round;stroke-linejoin:round;stroke-dasharray:none;stroke-opacity:1;paint-order:fill markers stroke"
       d="m 935.82674,479.74005 c 41.98316,-26.33696 146.09196,-55.03844 190.51826,-36.96713 10.6329,93.24392 1.4033,205.03759 -21.7698,301.29042 0,0 111.1363,-109.86249 180.5863,-18.76618 85.3501,111.95244 -24.6977,377.36404 -24.6977,377.36404 l -90.7591,14.5 c 0,0 74.2626,-243.87551 3.6525,-267.56044 -70.6102,-23.68492 -79.043,70.26256 -79.043,70.26256 1.0086,128.34858 4.3003,123.98778 -0.1367,195.69838 l -126.5221,27.7351 c 29.26784,-220.66929 79.1297,-612.30131 -31.82866,-663.55675 z"
       id="path5"
       sodipodi:nodetypes="cccsccscccc" />
  </g>
  <g
     id="g11"
     transform="rotate(10.245003,2284.0054,1216.4392)"
     style="stroke-width:36;stroke-dasharray:none">
    <path
       style="fill:#b10020;fill-opacity:1;stroke:#b10020;stroke-width:36;stroke-linecap:round;stroke-linejoin:round;stroke-dasharray:none;stroke-opacity:1;paint-order:fill markers stroke"
       d="m 1492.0425,1021.0136 c -50.5598,86.2097 -75.0724,199.1267 49.2471,163.3311 167.3423,-48.1832 52.4114,-135.1974 -49.2471,-163.3311 z"
       id="path7-1"
       sodipodi:nodetypes="csc" />
    <path
       style="fill:#ff5555;fill-opacity:1;stroke:#b10020;stroke-width:36;stroke-linecap:round;stroke-linejoin:round;stroke-dasharray:none;stroke-opacity:1;paint-order:fill markers stroke"
       d="m 1452.4543,1000.3349 c -50.5598,86.2097 -75.0724,199.1267 49.2471,163.3311 167.3423,-48.1832 52.4114,-135.1974 -49.2471,-163.3311 z"
       id="path7"
       sodipodi:nodetypes="csc" />
  </g>
  <g
     id="g10"
     transform="rotate(-3.6694271,-607.15162,289.74116)"
     style="stroke-width:36;stroke-dasharray:none">
    <path
       style="fill:#b10020;fill-opacity:1;stroke:#b10020;stroke-width:36;stroke-linecap:round;stroke-linejoin:round;stroke-dasharray:none;stroke-opacity:1;paint-order:fill markers stroke"
       d="m 1344.5605,363.48031 c 0,0 98.0839,-51.17423 157.7872,-42.64519 59.7031,8.52904 157.787,72.49682 157.787,72.49682 -114.2456,23.36243 -141.6555,374.95334 -125.8032,592.768 -24.6189,9.56428 -44.2623,11.66541 -57.571,4.26456 -128.0976,-192.95551 -116.904,-412.44268 -132.2,-626.88419 z"
       id="path6-6"
       sodipodi:nodetypes="cscccc" />
    <path
       style="fill:#ff5555;fill-opacity:1;stroke:#b10020;stroke-width:36;stroke-linecap:round;stroke-linejoin:round;stroke-dasharray:none;stroke-opacity:1;paint-order:fill markers stroke"
       d="m 1304.9722,342.8016 c 0,0 98.0839,-51.17423 157.7872,-42.64519 59.7032,8.52904 157.7871,72.49682 157.7871,72.49682 -114.2456,23.36243 -141.6555,374.95334 -125.8033,592.768 -24.6188,9.56428 -44.2622,11.66541 -57.571,4.26456 -128.0976,-192.95551 -116.9039,-412.44268 -132.2,-626.88419 z"
       id="path6"
       sodipodi:nodetypes="cscccc" />
  </g>
</svg>
