<?xml version="1.0" encoding="UTF-8" standalone="no"?>
<!-- Created with Inkscape (http://www.inkscape.org/) -->

<svg
   version="1.1"
   id="svg824"
   width="1706.6667"
   height="1706.6667"
   viewBox="0 0 1706.6667 1706.6667"
   sodipodi:docname="ying_missing.svg"
   inkscape:version="1.1 (c68e22c387, 2021-05-23)"
   inkscape:export-filename="D:\Pictures\yingmotes\ying.png"
   inkscape:export-xdpi="72"
   inkscape:export-ydpi="72"
   xmlns:inkscape="http://www.inkscape.org/namespaces/inkscape"
   xmlns:sodipodi="http://sodipodi.sourceforge.net/DTD/sodipodi-0.dtd"
   xmlns="http://www.w3.org/2000/svg"
   xmlns:svg="http://www.w3.org/2000/svg">
  <defs
     id="defs828">
    <marker
       style="overflow:visible"
       id="Arrow2Sstart"
       refX="0.0"
       refY="0.0"
       orient="auto"
       inkscape:stockid="Arrow2Sstart"
       inkscape:isstock="true">
      <path
         transform="scale(0.3) translate(-2.3,0)"
         d="M 8.7185878,4.0337352 L -2.2072895,0.016013256 L 8.7185884,-4.0017078 C 6.9730900,-1.6296469 6.9831476,1.6157441 8.7185878,4.0337352 z "
         style="fill-rule:evenodd;fill:context-stroke;stroke-width:0.62500000;stroke-linejoin:round"
         id="path6883" />
    </marker>
    <marker
       style="overflow:visible"
       id="Arrow1Sstart"
       refX="0.0"
       refY="0.0"
       orient="auto"
       inkscape:stockid="Arrow1Sstart"
       inkscape:isstock="true">
      <path
         transform="scale(0.2) translate(6,0)"
         style="fill-rule:evenodd;fill:context-stroke;stroke:context-stroke;stroke-width:1.0pt"
         d="M 0.0,0.0 L 5.0,-5.0 L -12.5,0.0 L 5.0,5.0 L 0.0,0.0 z "
         id="path6865" />
    </marker>
    <marker
       style="overflow:visible"
       id="Arrow1Lstart"
       refX="0.0"
       refY="0.0"
       orient="auto"
       inkscape:stockid="Arrow1Lstart"
       inkscape:isstock="true">
      <path
         transform="scale(0.8) translate(12.5,0)"
         style="fill-rule:evenodd;fill:context-stroke;stroke:context-stroke;stroke-width:1.0pt"
         d="M 0.0,0.0 L 5.0,-5.0 L -12.5,0.0 L 5.0,5.0 L 0.0,0.0 z "
         id="path6853" />
    </marker>
  </defs>
  <sodipodi:namedview
     id="namedview826"
     pagecolor="#ffffff"
     bordercolor="#666666"
     borderopacity="1.0"
     inkscape:pageshadow="2"
     inkscape:pageopacity="0.0"
     inkscape:pagecheckerboard="0"
     showgrid="false"
     inkscape:zoom="0.32026963"
     inkscape:cx="843.03966"
     inkscape:cy="1141.2259"
     inkscape:window-width="1920"
     inkscape:window-height="1001"
     inkscape:window-x="-9"
     inkscape:window-y="-9"
     inkscape:window-maximized="1"
     inkscape:current-layer="layer1" />
  <g
     id="layer1"
     inkscape:label="Ying"
     style="display:inline"
     inkscape:groupmode="layer">
    <path
       id="path3340"
       style="display:inline;opacity:1;fill:#ffcb4c;fill-opacity:0.60044152;stroke:#65471b;stroke-width:64;stroke-linecap:round;stroke-linejoin:round;stroke-miterlimit:4;stroke-dasharray:192,192;stroke-dashoffset:384;stroke-opacity:1;paint-order:fill markers stroke;stop-color:#000000"
       inkscape:label="neck"
       d="M 949.375,59.611328 C 880.9317,64.027024 803.65674,280.39636 797.0332,481.31055 c -3.79928,115.24502 13.86876,225.45431 27.44727,291.28125 -33.81335,10.61252 -65.08449,24.70344 -91.47461,42.10351 -101.26734,66.76968 -136.88727,176.62944 -198.70703,211.95509 -61.81975,35.3255 -225.20029,77.273 -280.39649,83.8965 -55.19621,6.6235 -183.250354,6.6246 -161.171871,123.6406 6.607923,35.022 19.539281,74.3494 41.250001,111.3848 l -1.50977,1.2148 90.52149,183.252 38.41601,-70.293 c 53.22845,23.0889 121.51648,33.3669 208.86328,21.7207 173.73083,-23.1641 255.8307,-35.4981 353.67579,-53.3086 l -40.63868,150.2383 62.82227,-25.5215 -51.04297,200.2441 481.23941,6.1516 c 0,0 -149.4628,-116.0894 -171.0578,-206.3957 -13.6765,-57.193 10.3927,-143.2735 29.92,-198.8926 l 172.289,-9.2051 -92.9258,-75.2558 c 5.3578,-4.8405 10.5999,-9.7184 15.6328,-14.6367 l 142.0762,-2.375 -84.8808,-69.668 c 3.4806,-6.5537 6.4805,-13.0207 8.6269,-19.3066 1.0523,-3.0817 2.0328,-6.6268 3.0469,-9.9766 96.8623,-117.5327 277.3103,-365.00398 286.1797,-588.34962 12.1432,-305.78699 -100.7972,-505.597652 -152.3399,-505.597652 -79.4826,-10e-7 -239.79,284.870282 -267.1504,370.919922 -0.5861,1.84351 -1.529,4.50978 -2.1718,6.48437 -1.7232,-16.63461 -3.8133,-32.43029 -6.6602,-46.22656 C 1128.2101,251.69462 1017.8183,55.195631 949.375,59.611328 Z"
       sodipodi:nodetypes="sscssssccccscccccsccccccscsssccs" />
    <path
       id="path3091"
       style="font-variation-settings:normal;display:none;opacity:1;fill:#234567;fill-opacity:0.57;stroke:#65471b;stroke-width:64;stroke-linecap:round;stroke-linejoin:round;stroke-miterlimit:4;stroke-dasharray:192, 192;stroke-dashoffset:377.6;stroke-opacity:1;paint-order:fill markers stroke;stop-color:#000000;stop-opacity:1"
       inkscape:label="mane"
       d="m 1398.1875,1022.0938 c -35.9146,52.1624 -71.0513,97.3907 -99.1328,131.4648 -1.0141,3.3498 -1.9946,6.8949 -3.0469,9.9766 -2.1464,6.2859 -5.1463,12.7529 -8.6269,19.3066 l 84.8808,69.668 -142.0762,2.375 c -5.0329,4.9183 -10.275,9.7962 -15.6328,14.6367 l 92.9258,75.2558 -172.289,9.2051 c -19.5273,55.6191 -43.5965,141.6996 -29.92,198.8926 21.595,90.3063 149.2012,184.5391 149.2012,184.5391 l -262.32422,8.9687 c 0.94283,3.1773 2.05413,6.0849 3.46094,8.4785 l 494.50588,-2.209 c -8.7488,-70.5205 -23.7627,-139.7865 -90.5215,-198.705 l 99.3535,-6.625 c -23.1764,-91.2326 9.3328,-212.4482 -81.6894,-267.1485 23.5504,-27.9661 50.0444,-32.3826 79.4824,-13.248 -7.7975,-95.2759 -50.465,-171.5317 -98.5508,-244.832 z" />
    <path
       id="path1637"
       style="font-variation-settings:normal;display:none;opacity:1;fill:#123456;fill-opacity:0.573951;stroke:#65471b;stroke-width:64;stroke-linecap:round;stroke-linejoin:round;stroke-miterlimit:4;stroke-dasharray:192, 192;stroke-dashoffset:172.8;stroke-opacity:1;paint-order:fill markers stroke;stop-color:#000000;stop-opacity:1"
       inkscape:label="top hair"
       d="m 991.32422,353.25586 c 59.06408,39.79605 90.32918,82.37146 90.52148,128.05469 0,0 -92.7292,-52.98814 -264.9414,-37.53321 C 629.98838,460.55185 326.76172,724.17383 326.76172,724.17383 485.92606,662.69151 610.5181,670.35181 735.21289,677.80859 611.27913,749.43655 620.95262,833.21217 622.61328,916.25781 c 0,0 141.3024,-144.61479 258.31836,-172.21289 64.86726,-15.29888 127.35726,-11.63077 170.83786,-5.40625 25.0913,-64.81575 90.8847,-235.48851 113.9746,-308.10742 0.4836,-1.52076 1.3116,-3.54521 1.877,-5.1875 -86.7951,-42.6145 -176.29688,-72.08789 -176.29688,-72.08789 z" />
    <path
       id="path19479"
       style="display:inline;fill:#65471b;fill-opacity:1;stroke:none;stroke-width:128;stroke-linecap:round;stroke-linejoin:round;stroke-miterlimit:4;stroke-dasharray:12.8, 12.8;stroke-dashoffset:0;paint-order:markers stroke fill;stop-color:#000000"
       d="m 1044.1454,1321.5512 a 75.533556,78.611032 33.968758 0 1 -83.11744,73.3895 75.533556,78.611032 33.968758 0 1 -69.26969,-81.7138 75.533556,78.611032 33.968758 0 1 83.11753,-73.3895 75.533556,78.611032 33.968758 0 1 69.2696,81.7138 z m 61.0894,-471.39096 a 58.423796,60.804165 33.968764 0 0 -7.6071,-5.49025 58.423796,60.804165 33.968764 0 0 -6.9852,-6.28467 c -5.1102,-3.61722 -10.4433,-6.90806 -15.9758,-9.85593 a 58.423796,60.804165 33.968764 0 0 -8.7558,-3.4269 58.423796,60.804165 33.968764 0 0 -8.2945,-4.32825 c -5.8425,-2.22911 -11.8074,-4.08786 -17.8654,-5.57593 a 58.423796,60.804165 33.968764 0 0 -9.3419,-1.17873 58.423796,60.804165 33.968764 0 0 -9.1461,-2.17091 c -6.2689,-0.74174 -12.5902,-1.09512 -18.935,-1.05566 a 58.423796,60.804165 33.968764 0 0 -9.47013,1.1381 58.423796,60.804165 33.968764 0 0 -9.50543,0.14312 c -6.3141,0.81548 -12.58267,2.01735 -18.77741,3.59721 a 58.423796,60.804165 33.968764 0 0 -8.99213,3.39449 58.423796,60.804165 33.968764 0 0 -9.23749,2.43199 c -5.98542,2.31202 -11.83092,4.97939 -17.51113,7.98642 a 58.423796,60.804165 33.968764 0 0 -8.00863,5.43559 58.423796,60.804165 33.968764 0 0 -8.49279,4.57827 c -5.31477,3.66584 -10.42579,7.64895 -15.30737,11.93682 a 58.423796,60.804165 33.968764 0 0 -6.57933,7.17908 58.423796,60.804165 33.968764 0 0 -7.26265,6.48409 c -4.36511,4.84056 -8.44286,9.93217 -12.2152,15.25188 a 58.423796,60.804165 33.968764 0 0 -4.75552,8.52124 58.423796,60.804165 33.968764 0 0 -5.57605,8.00052 c -3.12596,5.71036 -5.89965,11.56721 -8.32346,17.53913 a 58.423796,60.804165 33.968764 0 0 31.77196,77.3464 58.423796,60.804165 33.968764 0 0 77.42384,-35.13721 c 0.6197,-1.52704 1.32019,-3.00235 2.08588,-4.40091 a 58.423796,60.804165 33.968764 0 0 0.69098,-1.66703 58.423796,60.804165 33.968764 0 0 1.86435,-2.41999 c 0.91707,-1.29333 1.91534,-2.53933 2.975,-3.71432 a 58.423796,60.804165 33.968764 0 0 1.95468,-2.34889 58.423796,60.804165 33.968764 0 0 1.47433,-1.03562 c 1.19312,-1.04799 2.4617,-2.03806 3.78385,-2.95001 a 58.423796,60.804165 33.968764 0 0 2.45767,-1.84441 58.423796,60.804165 33.968764 0 0 1.67161,-0.66134 c 1.4192,-0.75186 2.88052,-1.41751 4.35673,-1.9878 a 58.423796,60.804165 33.968764 0 0 2.79978,-1.21446 58.423796,60.804165 33.968764 0 0 1.7627,-0.24402 c 1.52014,-0.3876 3.0664,-0.6837 4.61059,-0.88329 a 58.423796,60.804165 33.968764 0 0 2.93553,-0.50402 58.423796,60.804165 33.968764 0 0 1.7353,0.18912 c 1.54154,-0.009 3.09234,0.0762 4.62204,0.25716 a 58.423796,60.804165 33.968764 0 0 2.987,0.22623 58.423796,60.804165 33.968764 0 0 1.6491,0.61467 c 1.542,0.37867 3.0509,0.85041 4.5007,1.40346 a 58.423796,60.804165 33.968764 0 0 2.8054,0.93425 58.423796,60.804165 33.968764 0 0 1.4265,0.98968 c 1.345,0.71707 2.6543,1.5243 3.9023,2.40776 a 58.423796,60.804165 33.968764 0 0 2.4558,1.58435 58.423796,60.804165 33.968764 0 0 1.1336,1.31168 c 1.1366,1.04136 2.2146,2.1619 3.2147,3.34038 a 58.423796,60.804165 33.968764 0 0 1.7369,1.6206 58.423796,60.804165 33.968764 0 0 1.0757,2.14393 c 0.8529,1.3014 1.6318,2.66817 2.3223,4.07313 a 58.423796,60.804165 33.968764 0 0 1.2912,2.00667 58.423796,60.804165 33.968764 0 0 0.5291,2.34941 c 0.5164,1.48397 0.9429,3.00211 1.2711,4.52453 a 58.423796,60.804165 33.968764 0 0 0.7609,2.25271 58.423796,60.804165 33.968764 0 0 -0.045,2.40611 c 0.1437,1.55468 0.1939,3.13178 0.1509,4.70236 a 58.423796,60.804165 33.968764 0 0 0.2003,2.40836 58.423796,60.804165 33.968764 0 0 -0.6165,2.3685 c -0.2348,1.60083 -0.5658,3.20154 -0.9869,4.77437 a 58.423796,60.804165 33.968764 0 0 -0.3716,2.41797 58.423796,60.804165 33.968764 0 0 -1.1487,2.17537 c -0.5843,1.47223 -1.2592,2.9199 -2.011,4.3136 a 58.423796,60.804165 33.968764 0 0 -0.9185,2.25331 58.423796,60.804165 33.968764 0 0 -1.6072,1.83667 c -0.914,1.30472 -1.9112,2.56579 -2.9744,3.75959 a 58.423796,60.804165 33.968764 0 0 -1.4356,2.01272 58.423796,60.804165 33.968764 0 0 -2.0024,1.42727 c -1.1935,1.06344 -2.4642,2.06974 -3.7895,2.99904 a 58.423796,60.804165 33.968764 0 0 -1.8467,1.6197 58.423796,60.804165 33.968764 0 0 -2.2595,0.9143 c -1.4037,0.7569 -2.85,1.4293 -4.3114,2.0055 a 58.423796,60.804165 33.968764 0 0 -2.144,1.1328 58.423796,60.804165 33.968764 0 0 -2.3679,0.3427 c -1.5034,0.3942 -3.0383,0.6982 -4.5751,0.9059 a 58.423796,60.804165 33.968764 0 0 -2.33132,0.5871 58.423796,60.804165 33.968764 0 0 -2.37126,-0.2421 c -1.24928,0.021 -2.52735,-0.03 -3.81907,-0.1402 a 58.423796,60.804165 33.968764 0 0 -0.90125,0.027 58.423796,60.804165 33.968764 0 0 -0.88021,-0.1517 58.423796,60.804165 33.968764 0 0 -5.71707,0.34 58.423796,60.804165 33.968764 0 0 -6.6356,0.3937 58.423796,60.804165 33.968764 0 0 -6.44238,1.6751 58.423796,60.804165 33.968764 0 0 -6.43448,1.8792 58.423796,60.804165 33.968764 0 0 -5.98233,3.083 58.423796,60.804165 33.968764 0 0 -5.89833,3.2639 58.423796,60.804165 33.968764 0 0 -5.20472,4.3309 58.423796,60.804165 33.968764 0 0 -5.08831,4.4924 58.423796,60.804165 33.968764 0 0 -4.16369,5.3601 58.423796,60.804165 33.968764 0 0 -4.01696,5.4932 58.423796,60.804165 33.968764 0 0 -2.9213,6.1279 58.423796,60.804165 33.968764 0 0 -2.74273,6.214 58.423796,60.804165 33.968764 0 0 -1.52981,6.595 58.423796,60.804165 33.968764 0 0 -1.3226,5.7027 58.423796,60.804165 33.968764 0 0 -0.007,0.91 58.423796,60.804165 33.968764 0 0 -0.18203,0.9037 l -1.07068,11.9973 a 58.423796,60.804165 33.968764 0 0 0.1284,6.0335 58.423796,60.804165 33.968764 0 0 -1.19953,5.9628 l -1.07133,11.9978 a 58.423796,60.804165 33.968764 0 0 0.12835,6.0338 58.423796,60.804165 33.968764 0 0 -1.1997,5.9627 l -1.07056,11.9969 a 58.423796,60.804165 33.968764 0 0 0.12875,6.0318 58.423796,60.804165 33.968764 0 0 -1.2007,5.9651 l -1.07107,11.9973 a 58.423796,60.804165 33.968764 0 0 0.12846,6.0364 58.423796,60.804165 33.968764 0 0 -1.19916,5.9603 l -0.18809,2.1072 a 58.423796,60.804165 33.968764 0 0 53.57863,63.2043 58.423796,60.804165 33.968764 0 0 64.29008,-56.7651 l 0.1882,-2.1067 a 58.423796,60.804165 33.968764 0 0 -0.097,-4.5929 58.423796,60.804165 33.968764 0 0 1.1689,-7.4049 l 1.0709,-11.9972 a 58.423796,60.804165 33.968764 0 0 -0.097,-4.5886 58.423796,60.804165 33.968764 0 0 1.1689,-7.408 l 0.9784,-10.9639 a 58.423796,60.804165 33.968764 0 0 1.7692,-0.8212 58.423796,60.804165 33.968764 0 0 7.703,-2.0871 c 5.9811,-2.3598 11.8186,-5.0768 17.4878,-8.1335 a 58.423796,60.804165 33.968764 0 0 9.3909,-6.2759 58.423796,60.804165 33.968764 0 0 7.0428,-3.8679 c 5.2778,-3.7001 10.3522,-7.7142 15.196,-12.0303 a 58.423796,60.804165 33.968764 0 0 7.7306,-8.3095 58.423796,60.804165 33.968764 0 0 5.9897,-5.4165 c 4.324,-4.8563 8.3643,-9.9635 12.1016,-15.2987 a 58.423796,60.804165 33.968764 0 0 3.918,-7.1182 58.423796,60.804165 33.968764 0 0 6.3232,-9.4737 c 3.0969,-5.7382 5.851,-11.6454 8.2516,-17.6943 a 58.423796,60.804165 33.968764 0 0 2.1467,-7.7795 58.423796,60.804165 33.968764 0 0 3.9492,-10.6325 c 1.6668,-6.2245 2.9702,-12.52955 3.9031,-18.88861 a 58.423796,60.804165 33.968764 0 0 0.2861,-8.00747 58.423796,60.804165 33.968764 0 0 1.3865,-11.19809 c 0.1786,-6.43843 -0.027,-12.86559 -0.619,-19.25242 a 58.423796,60.804165 33.968764 0 0 -1.6149,-7.80296 58.423796,60.804165 33.968764 0 0 -1.2935,-11.11613 c -1.3482,-6.2358 -3.0681,-12.3552 -5.1466,-18.33236 a 58.423796,60.804165 33.968764 0 0 -3.4118,-7.08707 58.423796,60.804165 33.968764 0 0 -3.8764,-10.36222 c -2.7784,-5.65382 -5.8949,-11.11888 -9.3363,-16.37083 a 58.423796,60.804165 33.968764 0 0 -4.9967,-5.98342 58.423796,60.804165 33.968764 0 0 -6.2291,-9.03988 c -4.0548,-4.77759 -8.3973,-9.28882 -13.0085,-13.51492 z"
       inkscape:label="qm1" />
  </g>
</svg>
