<?xml version="1.0" encoding="UTF-8" standalone="no"?>
<!-- Created with Inkscape (http://www.inkscape.org/) -->

<svg
   version="1.1"
   id="svg824"
   width="1706.6667"
   height="1706.6667"
   viewBox="0 0 1706.6667 1706.6667"
   sodipodi:docname="ying_shadow.svg"
   inkscape:version="1.1 (c68e22c387, 2021-05-23)"
   inkscape:export-filename="D:\Pictures\yingmotes\ying.png"
   inkscape:export-xdpi="72"
   inkscape:export-ydpi="72"
   xmlns:inkscape="http://www.inkscape.org/namespaces/inkscape"
   xmlns:sodipodi="http://sodipodi.sourceforge.net/DTD/sodipodi-0.dtd"
   xmlns:xlink="http://www.w3.org/1999/xlink"
   xmlns="http://www.w3.org/2000/svg"
   xmlns:svg="http://www.w3.org/2000/svg">
  <defs
     id="defs828">
    <linearGradient
       inkscape:collect="always"
       id="linearGradient1482">
      <stop
         style="stop-color:#373737;stop-opacity:0.87058824"
         offset="0"
         id="stop1478" />
      <stop
         style="stop-color:#000000;stop-opacity:0.06548673"
         offset="1"
         id="stop1480" />
    </linearGradient>
    <linearGradient
       inkscape:collect="always"
       xlink:href="#linearGradient1482"
       id="linearGradient1484"
       x1="971.45325"
       y1="216.36916"
       x2="946.78815"
       y2="1531.0072"
       gradientUnits="userSpaceOnUse" />
    <filter
       style="color-interpolation-filters:sRGB;"
       inkscape:label="Fade to Black or White"
       id="filter3128"
       x="0"
       y="0"
       width="1"
       height="1">
      <feColorMatrix
         values="0.653251 0 0 0 0 0 0.653251 0 0 0 0 0 0.653251 0 0 0 0 0 1 0"
         id="feColorMatrix3126"
         result="fbSourceGraphic" />
      <feColorMatrix
         result="fbSourceGraphicAlpha"
         in="fbSourceGraphic"
         values="0 0 0 -1 0 0 0 0 -1 0 0 0 0 -1 0 0 0 0 1 0"
         id="feColorMatrix3148" />
      <feColorMatrix
         id="feColorMatrix3150"
         values="0.653251 0 0 0 0 0 0.653251 0 0 0 0 0 0.653251 0 0 0 0 0 1 0"
         in="fbSourceGraphic" />
    </filter>
  </defs>
  <sodipodi:namedview
     id="namedview826"
     pagecolor="#ffffff"
     bordercolor="#666666"
     borderopacity="1.0"
     inkscape:pageshadow="2"
     inkscape:pageopacity="0.0"
     inkscape:pagecheckerboard="0"
     showgrid="false"
     inkscape:zoom="0.22646483"
     inkscape:cx="737.42135"
     inkscape:cy="880.93149"
     inkscape:window-width="1920"
     inkscape:window-height="1001"
     inkscape:window-x="-9"
     inkscape:window-y="-9"
     inkscape:window-maximized="1"
     inkscape:current-layer="g12988" />
  <g
     id="layer1"
     inkscape:label="Ying"
     style="display:inline"
     inkscape:groupmode="layer">
    <path
       style="display:none;fill:#123456;stroke:#123456;stroke-width:64;stroke-linecap:round;stroke-linejoin:round;-inkscape-stroke:none;paint-order:fill markers stroke;stop-color:#000000"
       d="m 1298.031,865.09775 c 70.7982,131.45402 185.3824,239.02475 198.7064,401.82835 -29.438,-19.1346 -55.9321,-14.719 -79.4825,13.2471 91.0222,54.7003 58.5139,175.917 81.6903,267.1496 l -99.3531,6.6236 c 66.7588,58.9185 81.773,128.1858 90.5218,198.7063 l -494.50725,2.2079 c -24.3802,-41.4813 23.11455,-208.5632 66.23555,-227.0436 0,0 3.3791,-20.0154 -75.35325,-9.4549 C 1015.23,1271.0896 1172.1837,1096.1858 1298.031,865.09775 Z"
       id="path3091"
       sodipodi:nodetypes="cccccccccc"
       inkscape:label="mane" />
    <path
       style="opacity:1;fill:#ffcb4c;fill-opacity:1;stroke:#ffcb4c;stroke-width:64;stroke-linecap:round;stroke-linejoin:round;stroke-miterlimit:4;stroke-dasharray:none;stroke-dashoffset:0;stroke-opacity:1;paint-order:fill markers stroke;stop-color:#000000"
       d="m 848.0933,1338.888 -64.7849,239.5079 62.82173,-25.5214 -51.04266,200.2443 459.38383,-15.7054 c 0,0 -127.6066,-94.2326 -149.2016,-184.5389 -21.5949,-90.3062 51.0427,-253.25 51.0427,-253.25 z"
       id="path3340"
       inkscape:label="neck" />
    <g
       id="g12988"
       inkscape:label="head"
       style="display:inline">
      <path
         style="display:inline;fill:none;fill-opacity:1;stroke:#f19020;stroke-width:32;stroke-linecap:round;stroke-linejoin:round;stroke-miterlimit:4;stroke-dasharray:none;stroke-dashoffset:0;stroke-opacity:1;paint-order:fill markers stroke;stop-color:#000000"
         d="m 214.24675,510.63421 c 146.95696,90.16728 298.17327,215.74277 401.65747,338.76616"
         id="path6280-0-6"
         sodipodi:nodetypes="cc"
         inkscape:label="eyelash left small" />
      <path
         style="display:inline;fill:none;fill-opacity:1;stroke:#f19020;stroke-width:32;stroke-linecap:round;stroke-linejoin:round;stroke-miterlimit:4;stroke-dasharray:none;stroke-dashoffset:0;stroke-opacity:1;paint-order:fill markers stroke;stop-color:#000000"
         d="M 136.3074,315.66998 C 386.36359,452.28922 592.00322,626.1296 711.50637,872.15241"
         id="path6280-3"
         sodipodi:nodetypes="cc"
         inkscape:label="eyelash left big" />
      <g
         id="g12997"
         inkscape:label="left eye">
        <path
           id="path1915-9"
           style="display:inline;fill:#fefefe;stroke:#65471b;stroke-width:64;stroke-linecap:round;stroke-linejoin:round;paint-order:fill markers stroke;stop-color:#000000"
           inkscape:label="lefteye"
           d="m 792.61751,1048.7279 c 10e-6,120.7167 -155.86024,218.577 -276.57698,218.577 -120.71674,0 -160.57699,-55.8603 -160.57698,-176.577 0,-120.71673 97.86025,-260.57698 218.57698,-260.57698 120.71673,0 218.57698,97.86025 218.57698,218.57698 z"
           sodipodi:nodetypes="sssss" />
        <path
           style="opacity:1;fill:#ffffff;fill-opacity:1;stroke:#65471b;stroke-width:48;stroke-linecap:round;stroke-linejoin:round;stroke-miterlimit:4;stroke-dasharray:none;stroke-dashoffset:0;stroke-opacity:1;paint-order:fill markers stroke;stop-color:#000000"
           d="m 498.97372,962.62186 v 93.37764"
           id="path2372"
           inkscape:label="left pupil" />
      </g>
      <path
         style="opacity:1;fill:#f19020;fill-opacity:1;stroke:#f19020;stroke-width:64;stroke-linecap:round;stroke-miterlimit:4;stroke-dasharray:none;stroke-dashoffset:0;stroke-opacity:1;paint-order:fill markers stroke;stop-color:#000000"
         d="m 838.98236,834.56666 c 0,0 -47.96997,-170.62298 -41.94911,-353.25573 6.62354,-200.91419 83.89823,-417.283329 152.34153,-421.699025 68.44332,-4.415697 178.83572,192.082805 207.53772,331.177245 28.702,139.09445 -4.4157,445.98536 -4.4157,445.98536 z"
         id="path1640"
         inkscape:label="left ear"
         sodipodi:nodetypes="cssscc" />
      <path
         id="path1148"
         style="display:inline;opacity:1;fill:#ffcb4c;stroke:#ffcb4c;stroke-width:64;stroke-linecap:round;stroke-linejoin:round;stroke-miterlimit:4;stroke-dasharray:6.4, 6.4;stroke-dashoffset:0;stroke-opacity:1;paint-order:fill markers stroke;stop-color:#000000"
         inkscape:label="head"
         d="m 1299.0547,1153.5586 c 0,0 -0.1078,-10.8206 -0.9512,-28.418 -0.4217,-8.7987 -1.0259,-19.2912 -1.8945,-30.9726 -0.8686,-11.6814 -1.9997,-24.5525 -3.4727,-38.1055 -1.4729,-13.553 -3.2888,-27.7877 -5.5234,-42.2012 -2.2347,-14.41345 -4.8892,-29.0047 -8.043,-43.26755 -1.5769,-7.13143 -3.279,-14.18175 -5.1152,-21.08594 -1.8362,-6.90419 -3.8068,-13.66232 -5.9219,-20.21289 -2.1151,-6.55056 -4.3733,-12.89234 -6.7871,-18.96289 -2.4138,-6.07055 -4.9828,-11.86984 -7.7148,-17.33398 -2.7321,-5.46415 -5.9346,-10.78574 -9.5391,-15.96094 -3.6045,-5.1752 -7.6114,-10.20474 -11.9492,-15.08399 -4.3379,-4.87924 -9.0074,-9.60926 -13.9395,-14.18554 -4.9321,-4.57628 -10.1264,-8.99932 -15.5136,-13.26563 -5.3873,-4.2663 -10.9666,-8.37489 -16.67,-12.32422 -5.7033,-3.94932 -11.5298,-7.73794 -17.4101,-11.36328 -11.7607,-7.25067 -23.7371,-13.84709 -35.3711,-19.75976 -11.634,-5.91267 -22.9257,-11.14156 -33.3203,-15.66016 -10.3946,-4.5186 -19.8912,-8.32606 -27.9336,-11.39453 -16.085,-6.13693 -26.3535,-9.31836 -26.3535,-9.31836 -106.83135,-15.98813 -232.17461,6.96944 -312.62504,60.01367 -101.26734,66.76968 -136.88727,176.62945 -198.70703,211.95509 -61.81975,35.3255 -225.20029,77.273 -280.39649,83.8965 -55.19621,6.6235 -183.250354,6.6246 -161.171871,123.6406 22.078481,117.016 112.599211,282.6048 377.541011,247.2793 264.94179,-35.3256 313.51517,-44.1575 536.50782,-88.3145 22.8973,-4.5341 53.8481,-18.3195 86.8281,-36.9472 l 213.8711,-11.4278 -92.9258,-75.2558 c 5.3578,-4.8405 10.5999,-9.7184 15.6328,-14.6367 l 142.0762,-2.375 -84.8808,-69.668 c 3.4806,-6.5537 6.4805,-13.0207 8.6269,-19.3066 1.0523,-3.0817 2.0328,-6.6268 3.0469,-9.9766 z" />
      <path
         id="path13483"
         style="display:inline;opacity:1;fill:#ffcb4c;stroke:#ffcb4c;stroke-width:64;stroke-linecap:round;stroke-linejoin:round;stroke-miterlimit:4;stroke-dasharray:6.4, 6.4;stroke-dashoffset:0;stroke-opacity:1;paint-order:fill markers stroke;stop-color:#000000"
         inkscape:label="right ear"
         d="m 1432.8945,59.611328 c -79.4826,-10e-7 -239.79,284.870282 -267.1504,370.919922 -24.3601,76.61362 -98.9266,269.49096 -120.1132,324.15039 0,0 10.2685,3.18143 26.3535,9.31836 8.0424,3.06847 17.539,6.87593 27.9336,11.39453 10.3946,4.5186 21.6863,9.74749 33.3203,15.66016 11.634,5.91267 23.6104,12.50909 35.3711,19.75976 5.8803,3.62534 11.7068,7.41396 17.4101,11.36328 5.7034,3.94933 11.2827,8.05792 16.67,12.32422 5.3872,4.26631 10.5815,8.68935 15.5136,13.26563 4.9321,4.57628 9.6016,9.3063 13.9395,14.18554 4.3378,4.87925 8.3447,9.90879 11.9492,15.08399 3.6045,5.1752 6.807,10.49679 9.5391,15.96094 2.732,5.46414 5.301,11.26343 7.7148,17.33398 2.4138,6.07055 4.672,12.41233 6.7871,18.96289 2.1151,6.55057 4.0857,13.3087 5.9219,20.21289 1.8362,6.90419 3.5383,13.95451 5.1152,21.08594 3.1538,14.26285 5.8083,28.8541 8.043,43.26755 2.2346,14.4135 4.0505,28.6482 5.5234,42.2012 1.473,13.553 2.6041,26.4241 3.4727,38.1055 0.8686,11.6814 1.4728,22.1739 1.8945,30.9726 0.8434,17.5974 0.9512,28.418 0.9512,28.418 C 1395.917,1036.0259 1576.365,788.55462 1585.2344,565.20898 1597.3776,259.42199 1484.4372,59.611328 1432.8945,59.611328 Z" />
      <g
         id="g13003"
         inkscape:label="face">
        <path
           style="opacity:1;fill:none;fill-opacity:1;stroke:#65471b;stroke-width:64;stroke-linecap:round;stroke-linejoin:round;stroke-miterlimit:4;stroke-dasharray:none;stroke-dashoffset:0;stroke-opacity:1;paint-order:fill markers stroke;stop-color:#000000"
           d="m 83.898236,1201.0695 68.443294,6.6235 -37.53342,39.7413"
           id="path2163"
           inkscape:label="left nostril" />
        <path
           style="opacity:1;fill:none;fill-opacity:1;stroke:#65471b;stroke-width:64;stroke-linecap:round;stroke-linejoin:round;stroke-miterlimit:4;stroke-dasharray:none;stroke-dashoffset:0;stroke-opacity:1;paint-order:fill markers stroke;stop-color:#000000"
           d="m 401.82839,1251.85 -59.6119,-44.157 121.43166,-17.6628"
           id="path2198"
           inkscape:label="right nostril" />
        <path
           style="opacity:1;fill:none;fill-opacity:1;stroke:#65471b;stroke-width:64;stroke-linecap:round;stroke-linejoin:round;stroke-miterlimit:4;stroke-dasharray:none;stroke-dashoffset:0;stroke-opacity:1;paint-order:fill markers stroke;stop-color:#000000"
           d="m 132.4709,1346.7875 90.52178,-72.859 c 0,0 146.93476,106.6315 222.99268,101.561"
           id="path2200"
           sodipodi:nodetypes="ccc"
           inkscape:label="mouf" />
        <path
           style="opacity:1;fill:#ffffff;fill-opacity:1;stroke:#65471b;stroke-width:64;stroke-linecap:round;stroke-linejoin:round;stroke-miterlimit:4;stroke-dasharray:none;stroke-dashoffset:0;stroke-opacity:1;paint-order:fill markers stroke;stop-color:#000000"
           d="m 222.99268,1530.0389 -90.52178,-183.2514 90.52178,-72.859 103.76887,66.2354 z"
           id="path2202"
           sodipodi:nodetypes="ccccc"
           inkscape:label="toof" />
      </g>
      <g
         id="g12993"
         inkscape:label="right eye">
        <path
           style="opacity:1;fill:#65471b;fill-opacity:1;stroke:#65471b;stroke-width:64;stroke-linecap:round;stroke-linejoin:round;stroke-miterlimit:4;stroke-dasharray:none;stroke-dashoffset:0;stroke-opacity:1;paint-order:fill markers stroke;stop-color:#000000"
           d="m 661.97569,1226.0485 53.36716,-115.5008 86.53085,168.711 z"
           id="path7852"
           inkscape:label="eyenub"
           sodipodi:nodetypes="cccc" />
        <path
           id="path1915"
           style="opacity:1;fill:#fefefe;stroke:#65471b;stroke-width:64;stroke-linecap:round;stroke-linejoin:round;paint-order:fill markers stroke;stop-color:#000000"
           inkscape:label="righteye"
           d="m 1150.289,1075.2222 c 0,120.7167 -151.8603,218.5769 -272.57702,218.5769 -120.71671,0 -164.57695,-71.8602 -164.57699,-192.5769 -2e-5,-120.71675 97.86024,-244.57702 218.57699,-244.57701 120.71672,-2e-5 218.57702,97.86025 218.57702,218.57701 z"
           sodipodi:nodetypes="sssss" />
        <path
           style="opacity:1;fill:#ffffff;fill-opacity:1;stroke:#65471b;stroke-width:48;stroke-linecap:round;stroke-linejoin:round;stroke-miterlimit:4;stroke-dasharray:none;stroke-dashoffset:0;stroke-opacity:1;paint-order:fill markers stroke;stop-color:#000000"
           d="m 841.19021,982.4925 v 122.3818"
           id="path2350"
           inkscape:label="right pupil" />
      </g>
      <path
         style="opacity:1;fill:none;fill-opacity:1;stroke:#ffcb4c;stroke-width:32;stroke-linecap:round;stroke-linejoin:round;stroke-miterlimit:4;stroke-dasharray:none;stroke-dashoffset:0;stroke-opacity:1;paint-order:fill markers stroke;stop-color:#000000"
         d="M 422.09799,125.10137 C 599.10012,348.40199 720.6887,588.66091 734.81454,861.80682"
         id="path6280"
         sodipodi:nodetypes="cc"
         inkscape:label="eyelash right big" />
      <path
         style="display:inline;fill:none;fill-opacity:1;stroke:#ffcb4c;stroke-width:32;stroke-linecap:round;stroke-linejoin:round;stroke-miterlimit:4;stroke-dasharray:none;stroke-dashoffset:0;stroke-opacity:1;paint-order:fill markers stroke;stop-color:#000000"
         d="m 711.56797,296.29281 c 57.33566,162.60107 95.67474,355.38513 98.55015,516.11928"
         id="path6280-0"
         sodipodi:nodetypes="cc"
         inkscape:label="eyelash right small" />
      <path
         id="path870"
         style="color:#000000;fill:url(#linearGradient1484);fill-opacity:1;stroke-width:64;stroke-linecap:round;-inkscape-stroke:none;paint-order:fill markers stroke"
         d="m 1432.877,27.607422 v 0.002 l -0.01,0.002 c -4.1216,0.0032 -8.0963,0.388168 -11.9043,1.060547 a 32,32 0 0 0 -4.9922,1.943359 32,32 0 0 0 -5.2539,0.570313 c -3.2049,1.007702 -6.2458,2.165456 -9.1348,3.419922 a 32,32 0 0 0 -3.707,2.568359 32,32 0 0 0 -4.3066,1.291016 c -2.5441,1.349262 -4.983,2.757608 -7.3262,4.199218 a 32,32 0 0 0 -2.9981,2.78125 32,32 0 0 0 -3.7187,1.597657 c -2.1683,1.490362 -4.2842,3.018415 -6.3496,4.578125 a 32,32 0 0 0 -2.5293,2.839844 32,32 0 0 0 -3.3496,1.759765 c -1.9678,1.591689 -3.8681,3.188062 -5.7071,4.777344 a 32,32 0 0 0 -2.2597,2.902344 32,32 0 0 0 -3.1387,1.888671 c -1.7837,1.622946 -3.5374,3.262392 -5.2637,4.914063 a 32,32 0 0 0 -2.0449,2.917969 32,32 0 0 0 -2.9648,1.966797 c -1.6938,1.682227 -3.3341,3.352721 -4.9297,5 a 32,32 0 0 0 -1.9141,2.966797 32,32 0 0 0 -2.8457,2.035156 c -1.6099,1.715419 -3.1699,3.411986 -4.6875,5.082031 a 32,32 0 0 0 -1.7969,2.990234 32,32 0 0 0 -2.7578,2.097657 c -1.518,1.716329 -3.0191,3.439387 -4.5019,5.16406 a 32,32 0 0 0 -1.6875,2.99023 32,32 0 0 0 -2.6856,2.15235 c -1.4503,1.72479 -2.8925,3.45864 -4.3242,5.20117 a 32,32 0 0 0 -1.6113,3.01172 32,32 0 0 0 -2.6192,2.1875 c -1.4036,1.74169 -2.8047,3.49679 -4.2011,5.26758 a 32,32 0 0 0 -1.5371,3.01562 32,32 0 0 0 -2.5567,2.2168 c -1.3709,1.76587 -2.7322,3.53783 -4.0859,5.3164 a 32,32 0 0 0 -1.4785,3.0293 32,32 0 0 0 -2.5118,2.25 c -1.3356,1.77974 -2.664,3.56612 -3.9843,5.35742 a 32,32 0 0 0 -1.4278,3.04102 32,32 0 0 0 -2.4707,2.28125 c -1.3025,1.7901 -2.5982,3.58614 -3.8886,5.38867 a 32,32 0 0 0 -1.3829,3.05469 32,32 0 0 0 -2.4355,2.31054 c -1.2767,1.80526 -2.5418,3.6068 -3.7969,5.40625 a 32,32 0 0 0 -1.3476,3.07618 32,32 0 0 0 -2.4043,2.33789 c -1.2477,1.81117 -2.4903,3.62716 -3.7285,5.44921 a 32,32 0 0 0 -1.3028,3.07422 32,32 0 0 0 -2.3672,2.35352 c -1.2285,1.82642 -2.4503,3.65624 -3.666,5.48828 a 32,32 0 0 0 -1.2656,3.08398 32,32 0 0 0 -2.3438,2.38086 c -1.2044,1.83333 -2.4005,3.66751 -3.5918,5.50196 a 32,32 0 0 0 -1.2363,3.09961 32,32 0 0 0 -2.3144,2.39648 c -1.1862,1.84491 -2.3677,3.69246 -3.543,5.54297 a 32,32 0 0 0 -1.2012,3.10156 32,32 0 0 0 -2.2871,2.41406 c -1.1698,1.85797 -2.328,3.71279 -3.4785,5.56055 a 32,32 0 0 0 -1.1777,3.1211 32,32 0 0 0 -2.2657,2.4375 c -1.1467,1.85934 -2.2919,3.72268 -3.4316,5.59179 a 32,32 0 0 0 -1.1426,3.11914 32,32 0 0 0 -2.2402,2.45118 c -1.1324,1.87262 -2.2587,3.74637 -3.3789,5.61914 a 32,32 0 0 0 -1.1172,3.13281 32,32 0 0 0 -2.2246,2.47851 c -1.1084,1.87061 -2.2171,3.74911 -3.3242,5.63672 a 32,32 0 0 0 -1.0899,3.14063 32,32 0 0 0 -2.1953,2.48633 c -1.099,1.88948 -2.1938,3.78155 -3.2832,5.67578 a 32,32 0 0 0 -1.0605,3.14648 32,32 0 0 0 -2.1778,2.50781 c -1.082,1.89712 -2.1585,3.79552 -3.2304,5.69532 a 32,32 0 0 0 -1.0371,3.16015 32,32 0 0 0 -2.1602,2.53321 c -1.0624,1.90111 -2.1216,3.80553 -3.1777,5.71484 a 32,32 0 0 0 -1.0118,3.17187 32,32 0 0 0 -2.1367,2.54883 c -1.0501,1.91647 -2.0954,3.83371 -3.1347,5.75196 a 32,32 0 0 0 -0.9844,3.17968 32,32 0 0 0 -2.1133,2.56641 c -1.0359,1.93033 -2.0642,3.85863 -3.0859,5.78516 a 32,32 0 0 0 -0.9571,3.1914 32,32 0 0 0 -2.0937,2.5918 c -1.0184,1.94069 -2.0279,3.87923 -3.0313,5.81445 a 32,32 0 0 0 -0.9297,3.20899 32,32 0 0 0 -2.0761,2.62109 c -0.6703,1.30883 -1.341,2.63341 -2.0117,3.95508 -18.4702,-60.2102 -46.916,-123.20163 -78.9864,-176.42969 -20.8366,-34.58292 -43.022,-64.907444 -66.4394,-87.810542 C 1005.5962,44.155589 980.19135,25.5566 947.3123,27.677828 913.83209,29.837842 891.02935,52.969296 871.48418,80.658297 851.939,108.34729 834.92514,144.21466 819.90996,185.93954 794.95377,255.28894 776.134,340.71268 768.45683,427.38095 756.07958,380.5806 742.07872,334.71067 726.65605,290.97275 a 16,16 0 0 0 -12.1543,-10.40821 16,16 0 0 0 -8.25586,0.63867 16,16 0 0 0 -9.76953,20.41016 c 28.31925,80.31199 51.97396,168.27332 68.92774,255.9336 2.96009,74.62121 12.86893,142.64969 22.42382,193.8457 -0.89265,0.34177 -1.7852,0.67263 -2.67773,1.02148 a 32,32 0 0 0 -2.94922,1.88672 32,32 0 0 0 -3.4414,0.66602 c -2.14854,0.87726 -4.28269,1.77024 -6.40235,2.67773 a 32,32 0 0 0 -2.91015,1.99414 32,32 0 0 0 -3.43946,0.78711 c -2.1086,0.94469 -4.22336,1.91408 -6.33984,2.9082 a 32,32 0 0 0 -2.8418,2.09571 32,32 0 0 0 -3.42187,0.91015 c -2.09466,1.02805 -4.18228,2.07642 -6.26172,3.14649 a 32,32 0 0 0 -2.78516,2.21484 32,32 0 0 0 -2.03711,0.625 C 709.05777,531.24343 593.64877,315.76698 434.63672,115.16211 a 16,16 0 0 0 -14.87695,-5.88867 16,16 0 0 0 -7.60157,3.28906 16,16 0 0 0 -2.59961,22.47852 c 159.74716,201.53224 273.10003,415.67658 302.86329,654.9375 -0.568,0.38331 -1.14053,0.75293 -1.70704,1.14062 a 32,32 0 0 0 -2.5,2.55664 32,32 0 0 0 -3.26367,1.4707 c -1.9142,1.36615 -3.81926,2.75578 -5.71484,4.16993 a 32,32 0 0 0 -2.38672,2.64843 32,32 0 0 0 -3.18359,1.58985 c -0.0836,0.0648 -0.16263,0.13044 -0.2461,0.19531 C 569.09364,586.02977 374.64095,427.65229 143.97852,301.62891 a 16,16 0 0 0 -8.04883,-1.95508 16,16 0 0 0 -13.66407,8.32422 16,16 0 0 0 6.3711,21.71289 c 225.46461,123.18352 413.00027,276.1763 533.70312,484.5957 -21.98312,-8.32487 -45.42451,-13.6056 -69.81836,-15.40039 C 490.30311,687.61081 355.10891,578.28925 222.61523,496.99609 a 16,16 0 0 0 -7.9414,-2.35547 16,16 0 0 0 -14.06445,7.62696 16,16 0 0 0 5.26953,22.0039 c 121.57214,74.59212 246.1202,174.1127 343.42187,275.55469 -62.23747,8.15767 -116.04346,46.30254 -154.92383,95.50391 -38.33814,48.51521 -63.73936,108.56822 -69.60351,168.91792 a 32,32 0 0 0 -1.06836,0.4942 32,32 0 0 0 -3.20313,0.1211 c -2.01591,0.4808 -4.0397,0.9563 -6.07031,1.4297 a 32,32 0 0 0 -2.9043,1.3164 32,32 0 0 0 -3.19336,0.09 c -2.01832,0.4611 -4.03628,0.9156 -6.05273,1.3633 a 32,32 0 0 0 -2.91406,1.2832 32,32 0 0 0 -3.17969,0.055 c -2.02105,0.4381 -4.03651,0.8695 -6.04688,1.291 a 32,32 0 0 0 -2.9082,1.2402 32,32 0 0 0 -3.1582,0.012 c -2.01956,0.4099 -4.02178,0.8104 -6.00586,1.1953 a 32,32 0 0 0 -2.9043,1.1875 32,32 0 0 0 -3.12695,-0.041 c -1.99038,0.3692 -3.96615,0.7249 -5.92578,1.0644 a 32,32 0 0 0 -2.85352,1.0996 32,32 0 0 0 -3.04101,-0.1152 c -1.95613,0.3123 -3.86046,0.6015 -5.7168,0.8613 a 32,32 0 0 0 -2.73047,0.9512 32,32 0 0 0 -2.86133,-0.2324 c -1.93949,0.2244 -3.92002,0.4376 -5.9414,0.6445 a 32,32 0 0 0 -3.04102,0.9355 32,32 0 0 0 -3.19336,-0.3164 c -2.0515,0.2012 -4.17385,0.4026 -6.36523,0.6172 a 32,32 0 0 0 -3.15821,0.9571 32,32 0 0 0 -3.30078,-0.3184 c -2.17841,0.2196 -4.37925,0.4473 -6.59961,0.6875 a 32,32 0 0 0 -3.23828,1.0156 32,32 0 0 0 -3.39258,-0.2715 c -2.24464,0.2623 -4.49453,0.5398 -6.75,0.8321 a 32,32 0 0 0 -3.28906,1.1093 32,32 0 0 0 -3.46484,-0.1894 c -2.29539,0.3278 -4.59169,0.6757 -6.88672,1.0449 a 32,32 0 0 0 -3.32422,1.2344 32,32 0 0 0 -3.55078,-0.061 c -2.31582,0.4152 -4.6384,0.8546 -6.9668,1.3243 a 32,32 0 0 0 -3.35351,1.4003 32,32 0 0 0 -3.64649,0.096 c -2.3332,0.5285 -4.68752,1.0921 -7.06054,1.6973 a 32,32 0 0 0 -3.35547,1.6055 32,32 0 0 0 -3.71875,0.3066 c -2.38288,0.6818 -4.77389,1.4083 -7.16993,2.1836 a 32,32 0 0 0 -3.35156,1.8711 32,32 0 0 0 -3.80664,0.5879 c -2.40999,0.8784 -4.81954,1.8114 -7.22461,2.8047 a 32,32 0 0 0 -3.32226,2.2148 32,32 0 0 0 -3.89649,0.961 c -2.40678,1.1277 -4.81775,2.3288 -7.22265,3.6133 a 32,32 0 0 0 -3.22657,2.6464 32,32 0 0 0 -3.92968,1.4414 c -2.37477,1.4498 -4.7464,2.9979 -7.10352,4.6582 a 32,32 0 0 0 -2.99805,3.1504 32,32 0 0 0 -3.863278,2.0411 c -2.295956,1.8663 -4.527674,3.8277 -6.6875,5.8847 a 32,32 0 0 0 -2.625,3.7285 32,32 0 0 0 -3.652343,2.7578 c -2.017892,2.2657 -3.968525,4.65 -5.832031,7.1583 a 32,32 0 0 0 -1.986329,4.1933 32,32 0 0 0 -3.167968,3.4121 c -1.637998,2.6607 -3.147133,5.3891 -4.527344,8.1778 a 32,32 0 0 0 -1.205078,4.4746 32,32 0 0 0 -2.492188,3.8867 c -1.132607,2.8878 -2.117236,5.7841 -2.970703,8.6738 a 32,32 0 0 0 -0.310547,3.4004 32,32 0 0 0 -10.691406,20.7988 32,32 0 0 0 6.669922,22.709 c 0.08673,1.1066 0.137508,2.2462 0.244141,3.332 a 32,32 0 0 0 1.152343,3.8047 32,32 0 0 0 -0.214843,3.9512 c 0.36513,2.5534 0.78487,5.1023 1.257812,7.6426 a 32,32 0 0 0 1.318359,3.2988 32,32 0 0 0 0.02148,3.5508 c 0.463699,2.2619 0.948619,4.5366 1.460937,6.8242 a 32,32 0 0 0 1.425781,3.2207 32,32 0 0 0 0.144532,3.5391 c 0.54006,2.2342 1.104108,4.4891 1.697265,6.7636 a 32,32 0 0 0 1.535157,3.1661 32,32 0 0 0 0.261718,3.5039 c 0.627996,2.2605 1.273694,4.5003 1.933594,6.7168 a 32,32 0 0 0 1.652344,3.1289 32,32 0 0 0 0.390625,3.5254 c 0.698204,2.203 1.420452,4.4158 2.169922,6.6386 a 32,32 0 0 0 1.759765,3.0625 32,32 0 0 0 0.513672,3.4961 c 0.781637,2.1948 1.586929,4.392 2.417969,6.5899 a 32,32 0 0 0 1.869141,2.9961 32,32 0 0 0 0.640625,3.4785 c 0.864878,2.1752 1.753245,4.3474 2.666015,6.5156 a 32,32 0 0 0 1.982422,2.9297 32,32 0 0 0 0.771484,3.459 c 0.948511,2.1479 1.920651,4.2892 2.916016,6.4238 a 32,32 0 0 0 2.097656,2.8613 32,32 0 0 0 0.908204,3.4375 c 1.035634,2.1199 2.089072,4.2211 3.160156,6.3047 a 32,32 0 0 0 2.226562,2.8028 32,32 0 0 0 1.050789,3.4199 c 0.2872,0.5325 0.5936,1.0683 0.88476,1.6015 a 32.0032,32.0032 0 0 0 2.74805,8.2774 l 90.52148,183.2519 a 32.0032,32.0032 0 0 0 56.76954,1.1739 l 25.0625,-45.8594 a 32,32 0 0 0 2.83984,0.3516 32,32 0 0 0 3.13086,1.6972 c 2.28038,0.7066 4.56061,1.3842 6.83789,2.0332 a 32,32 0 0 0 3.53516,0.2871 32,32 0 0 0 3.17773,1.5606 c 2.30161,0.6123 4.60906,1.196 6.91992,1.7539 a 32,32 0 0 0 3.51953,0.1426 32,32 0 0 0 3.22852,1.4296 c 2.32872,0.5217 4.6272,1.0074 6.89062,1.4668 a 32,32 0 0 0 3.56055,0.014 32,32 0 0 0 3.27344,1.3047 c 2.31552,0.4279 4.63913,0.8327 6.97264,1.2129 a 32,32 0 0 0 3.50196,-0.1231 32,32 0 0 0 3.33203,1.1856 c 2.27393,0.3331 4.58818,0.6558 6.94336,0.9551 a 32,32 0 0 0 3.47851,-0.2442 32,32 0 0 0 3.31642,1.0586 c 2.3396,0.2644 4.65919,0.5022 6.95702,0.7188 a 32,32 0 0 0 3.47656,-0.3574 32,32 0 0 0 3.33789,0.9472 c 2.35528,0.1893 4.6739,0.3518 6.95509,0.4942 a 32,32 0 0 0 3.46094,-0.4668 32,32 0 0 0 3.36133,0.8418 c 2.32734,0.1136 4.64551,0.205 6.95312,0.2773 a 32,32 0 0 0 3.41992,-0.5703 32,32 0 0 0 3.40821,0.7422 c 2.25143,0.04 4.56079,0.069 6.92773,0.072 a 32,32 0 0 0 3.35352,-0.6621 32,32 0 0 0 3.37695,0.6407 c 2.31998,-0.021 4.61424,-0.06 6.88477,-0.1153 a 32,32 0 0 0 4.90039,-0.5058 32,32 0 0 0 1.84765,0.3008 c 2.31243,-0.081 4.61222,-0.1825 6.89844,-0.2989 a 32,32 0 0 0 4.82617,-0.6289 32,32 0 0 0 1.86327,0.2559 c 2.35056,-0.1418 4.62014,-0.3038 6.80861,-0.4649 a 32,32 0 0 0 4.91014,-0.7519 32,32 0 0 0 1.86134,0.207 c 2.21636,-0.1907 4.49221,-0.3946 6.82616,-0.6289 a 32,32 0 0 0 4.71486,-0.8516 32,32 0 0 0 1.87889,0.168 c 2.27867,-0.2453 4.54897,-0.5072 6.81055,-0.7832 a 32,32 0 0 0 4.73048,-0.959 32,32 0 0 0 1.89062,0.125 l 1.18554,-0.1543 a 32.0032,32.0032 0 0 0 0.0859,-0.012 l 5.1582,-0.6894 a 32,32 0 0 0 4.49415,-0.9629 32,32 0 0 0 1.8496,0.1171 l 0.75977,-0.1015 a 32.0032,32.0032 0 0 0 0.01,0 l 5.584,-0.7461 a 32,32 0 0 0 4.5,-0.9668 32,32 0 0 0 1.84375,0.1172 h 0.0254 a 32.0032,32.0032 0 0 0 0.0117,0 l 6.3164,-0.8477 a 32,32 0 0 0 4.50585,-0.9687 32,32 0 0 0 1.84961,0.1152 l 6.3418,-0.8535 a 32,32 0 0 0 4.50976,-0.9707 32,32 0 0 0 1.84767,0.1152 l 6.3418,-0.8554 a 32,32 0 0 0 4.5078,-0.9746 32,32 0 0 0 1.84961,0.1152 l 6.34181,-0.8594 a 32,32 0 0 0 4.50976,-0.9766 32,32 0 0 0 1.84766,0.1133 l 4.75,-0.6465 a 32.0032,32.0032 0 0 0 0.0156,0 l 1.59375,-0.2168 a 32,32 0 0 0 4.49609,-0.9765 32,32 0 0 0 1.84375,0.1113 l 2.36133,-0.3223 a 32.0032,32.0032 0 0 0 0.0176,0 l 3.98047,-0.5468 a 32,32 0 0 0 4.50781,-0.9825 32,32 0 0 0 1.85352,0.1114 l 6.33984,-0.8731 a 32,32 0 0 0 4.51758,-0.9863 32,32 0 0 0 1.84375,0.1074 l 6.33985,-0.8769 a 32,32 0 0 0 4.51953,-0.9922 32,32 0 0 0 1.84375,0.1074 l 3.13086,-0.4355 a 32.0032,32.0032 0 0 0 0.0254,0 l 3.20703,-0.4493 a 32,32 0 0 0 4.5039,-0.9961 32,32 0 0 0 1.85938,0.1055 l 6.33789,-0.8926 a 32,32 0 0 0 4.51367,-1.0019 32,32 0 0 0 1.85156,0.1035 l 4.65821,-0.6602 a 32.0032,32.0032 0 0 0 0.0293,-0.014 l 1.67969,-0.2403 a 32,32 0 0 0 4.48828,-1.0039 32,32 0 0 0 1.84767,0.1016 l 0.56641,-0.078 a 32.0032,32.0032 0 0 0 0.0312,-0.012 l 5.76953,-0.8281 a 32,32 0 0 0 4.52344,-1.0176 32,32 0 0 0 1.84374,0.1016 l 4.54671,-0.662 a 32.0032,32.0032 0 0 0 0.0352,-0.012 l 1.78711,-0.2598 a 32,32 0 0 0 4.50195,-1.0234 32,32 0 0 0 1.86914,0.096 l 6.33203,-0.9317 a 32,32 0 0 0 4.52149,-1.0332 32,32 0 0 0 1.84765,0.09 l 3.04492,-0.4512 a 32.0032,32.0032 0 0 0 0.0312,-0.012 l 3.28516,-0.4902 a 32,32 0 0 0 4.51562,-1.0411 32,32 0 0 0 1.84961,0.088 c 2.12049,-0.3192 4.24756,-0.642 6.38086,-0.9668 a 32,32 0 0 0 4.49024,-1.0488 32,32 0 0 0 1.85156,0.082 c 2.13726,-0.3264 4.26336,-0.6536 6.37891,-0.9804 a 32,32 0 0 0 4.50586,-1.0645 32,32 0 0 0 1.85546,0.076 c 2.11384,-0.329 4.24008,-0.6613 6.37891,-0.9981 a 32,32 0 0 0 4.48828,-1.0722 32,32 0 0 0 1.85156,0.072 c 2.13962,-0.3383 4.2661,-0.6776 6.37891,-1.0156 a 32,32 0 0 0 4.50586,-1.0898 32,32 0 0 0 1.85156,0.068 c 2.12253,-0.3422 4.24843,-0.6868 6.38086,-1.0351 a 32,32 0 0 0 4.49805,-1.1016 32,32 0 0 0 1.86328,0.061 l 2.99609,-0.4942 a 32.0032,32.0032 0 0 0 0.0254,0 l 3.32032,-0.5508 a 32,32 0 0 0 4.51757,-1.1171 32,32 0 0 0 1.8418,0.058 c 2.13676,-0.3571 4.26005,-0.7147 6.37305,-1.0722 a 32,32 0 0 0 4.49219,-1.1289 32,32 0 0 0 1.85546,0.051 c 0.45209,-0.077 0.90525,-0.1551 1.35743,-0.2325 l -27.39258,101.2715 a 32.0032,32.0032 0 0 0 42.93359,38.002 l 4.11914,-1.6739 -35.39258,138.8457 a 32.0032,32.0032 0 0 0 32.10352,39.8848 l 459.38286,-15.7051 a 32.0032,32.0032 0 0 0 17.916,-57.7226 c 0,0 -30.052,-22.226 -62.8047,-55.211 -32.7527,-32.985 -66.216,-77.2937 -74.2832,-111.0293 -7.8975,-33.0259 2.1643,-94.094 16.9746,-143.9316 1.7248,-5.8042 3.4874,-11.4228 5.25,-16.8887 a 32,32 0 0 0 0.8281,0.1192 l 6.3926,-0.3418 a 32,32 0 0 0 4.5547,-0.6035 32,32 0 0 0 1.8359,0.2636 l 6.3906,-0.3418 a 32,32 0 0 0 4.5547,-0.6054 32,32 0 0 0 1.836,0.2636 l 6.3906,-0.3418 a 32,32 0 0 0 4.5625,-0.6054 32,32 0 0 0 1.8281,0.2636 l 6.3906,-0.3418 a 32,32 0 0 0 4.5625,-0.6054 32,32 0 0 0 1.8301,0.2636 l 6.3906,-0.3398 a 32,32 0 0 0 4.5547,-0.6055 32,32 0 0 0 1.836,0.2637 l 6.3906,-0.3418 a 32,32 0 0 0 4.5625,-0.6055 32,32 0 0 0 1.8281,0.2637 l 6.3906,-0.3418 a 32,32 0 0 0 4.5625,-0.6055 32,32 0 0 0 1.8282,0.2637 l 6.3906,-0.3398 a 32,32 0 0 0 4.5566,-0.6055 32,32 0 0 0 1.836,0.2637 l 6.3906,-0.3418 a 32,32 0 0 0 4.5625,-0.6055 32,32 0 0 0 1.8281,0.2637 l 6.3906,-0.3418 a 32,32 0 0 0 4.5625,-0.6055 32,32 0 0 0 1.8282,0.2637 l 6.3906,-0.3399 a 32,32 0 0 0 4.5566,-0.6054 32,32 0 0 0 1.834,0.2637 l 6.3926,-0.3418 a 32,32 0 0 0 30.2461,-33.6622 32,32 0 0 0 -0.1191,-0.4668 32,32 0 0 0 -11.7813,-25.1347 l -4.9727,-4.0293 a 32,32 0 0 0 -1.6406,-0.8633 32,32 0 0 0 -3.334,-3.1641 l -4.9726,-4.0273 a 32,32 0 0 0 -1.6367,-0.8613 32,32 0 0 0 -3.3379,-3.166 l -4.9727,-4.0293 a 32,32 0 0 0 -1.6406,-0.8633 32,32 0 0 0 -3.334,-3.1641 l -4.9726,-4.0273 a 32,32 0 0 0 -1.6368,-0.8614 32,32 0 0 0 -2.7343,-2.5957 l 6.1679,-0.1035 a 32,32 0 0 0 4.584,-0.4375 32,32 0 0 0 1.8145,0.3301 l 6.3984,-0.1055 a 32,32 0 0 0 4.5781,-0.4375 32,32 0 0 0 1.8223,0.3301 l 6.3984,-0.1074 a 32,32 0 0 0 4.584,-0.4375 32,32 0 0 0 1.8145,0.3301 l 6.4004,-0.1055 a 32,32 0 0 0 4.5761,-0.4375 32,32 0 0 0 1.8223,0.3301 l 6.3984,-0.1074 a 32,32 0 0 0 4.586,-0.4375 32,32 0 0 0 1.8144,0.33 l 6.3985,-0.1054 a 32,32 0 0 0 4.5761,-0.4375 32,32 0 0 0 1.8223,0.33 l 6.4004,-0.1074 a 32,32 0 0 0 16.5,-5.0234 32,32 0 0 0 1.75,-1.1133 32,32 0 0 0 1.7851,-1.4668 32,32 0 0 0 6.7403,-5.5293 32,32 0 0 0 -4.4336,-45.0371 l -4.9473,-4.0605 a 32,32 0 0 0 -1.6328,-0.8731 32,32 0 0 0 -3.3144,-3.1875 l -4.9473,-4.0605 a 32,32 0 0 0 -1.6289,-0.8711 32,32 0 0 0 -3.3184,-3.1895 l -4.9453,-4.0605 a 32,32 0 0 0 -1.6328,-0.8731 32,32 0 0 0 -3.3145,-3.1875 l -4.9472,-4.0605 a 32,32 0 0 0 -1.6367,-0.875 32,32 0 0 0 -3.3106,-3.1836 l -4.9473,-4.0606 a 32,32 0 0 0 -1.6328,-0.873 32,32 0 0 0 -3.3144,-3.1875 l -4.9473,-4.0606 a 32,32 0 0 0 -1.6289,-0.8711 32,32 0 0 0 -3.3184,-3.1894 l -3.6738,-3.0156 -0.5625,1.0683 a 32,32 0 0 0 -1.1445,-1.5136 c 0.091,-0.2654 0.1395,-0.4521 0.2266,-0.711 a 32,32 0 0 0 -1.0704,-0.5723 32,32 0 0 0 0,-0.3632 l 1.0821,0.8886 c 0.653,-1.9453 1.22,-3.7454 1.707,-5.3496 a 32,32 0 0 0 1.2793,-1.0547 c 1.3612,-1.6662 2.7396,-3.3573 4.1309,-5.0761 a 32,32 0 0 0 2.6269,-3.8243 32,32 0 0 0 1.4219,-1.1855 c 1.3794,-1.7089 2.7475,-3.4139 4.1055,-5.1133 a 32,32 0 0 0 2.6269,-3.873 32,32 0 0 0 1.4375,-1.2207 l 2.5156,-3.1699 a 32.0032,32.0032 0 0 0 0.041,-0.053 l 1.4571,-1.8457 a 32,32 0 0 0 2.6211,-3.9121 32,32 0 0 0 1.4218,-1.2227 l 2.3047,-2.9433 a 32.0032,32.0032 0 0 0 0.043,-0.059 l 1.6367,-2.0996 a 32,32 0 0 0 2.5957,-3.9317 32,32 0 0 0 1.416,-1.2343 l 2.3477,-3.0391 a 32.0032,32.0032 0 0 0 0.043,-0.057 l 1.5605,-2.0293 a 32,32 0 0 0 2.5606,-3.9336 32,32 0 0 0 1.3984,-1.2324 c 1.3163,-1.724 2.6301,-3.4501 3.9414,-5.1797 a 32,32 0 0 0 2.5293,-3.9473 32,32 0 0 0 1.3867,-1.2363 c 1.3077,-1.7357 2.6138,-3.4747 3.916,-5.2168 a 32,32 0 0 0 2.502,-3.959 32,32 0 0 0 1.375,-1.2441 c 1.2998,-1.7492 2.5926,-3.4932 3.8769,-5.2344 a 32,32 0 0 0 2.4805,-3.9844 32,32 0 0 0 1.3692,-1.2559 c 1.2855,-1.7542 2.5661,-3.5106 3.8457,-5.2714 a 32,32 0 0 0 2.4492,-3.9922 32,32 0 0 0 1.3672,-1.2735 c 1.264,-1.7514 2.5335,-3.5169 3.8066,-5.2949 a 32,32 0 0 0 2.4121,-3.998 32,32 0 0 0 1.3613,-1.2832 c 1.2604,-1.7709 2.5183,-3.546 3.7735,-5.3243 a 32,32 0 0 0 2.3945,-4.0293 32,32 0 0 0 1.3418,-1.2832 c 1.2531,-1.7864 2.4993,-3.57 3.7383,-5.3515 a 32,32 0 0 0 2.3652,-4.0469 32,32 0 0 0 1.336,-1.2949 c 1.2424,-1.7982 2.4758,-3.5917 3.7011,-5.3809 a 32,32 0 0 0 2.336,-4.0644 32,32 0 0 0 1.3281,-1.3067 c 1.2286,-1.8062 2.4497,-3.6104 3.6641,-5.4121 a 32,32 0 0 0 2.3086,-4.084 32,32 0 0 0 1.3183,-1.3164 c 1.2115,-1.8102 2.4194,-3.6246 3.625,-5.4433 a 32,32 0 0 0 2.2774,-4.1035 32,32 0 0 0 1.3125,-1.3301 c 1.1904,-1.8092 2.3852,-3.6311 3.5839,-5.4707 a 32,32 0 0 0 2.2422,-4.1172 32,32 0 0 0 1.3067,-1.34572 c 1.1702,-1.80982 2.3513,-3.64205 3.541,-5.5 a 32,32 0 0 0 2.2051,-4.12305 32,32 0 0 0 1.2832,-1.33984 c 1.1855,-1.862 2.3522,-3.70727 3.5019,-5.53125 a 32,32 0 0 0 2.1953,-4.17773 32,32 0 0 0 1.2676,-1.34571 c 1.1633,-1.86093 2.3162,-3.717 3.4609,-5.56836 a 32,32 0 0 0 2.1563,-4.1875 32,32 0 0 0 1.2676,-1.37109 c 1.1304,-1.84479 2.2696,-3.71107 3.414,-5.59961 a 32,32 0 0 0 2.1055,-4.17969 32,32 0 0 0 1.252,-1.37695 c 1.1396,-1.89277 2.2592,-3.76942 3.3652,-5.62695 a 32,32 0 0 0 2.0898,-4.23438 32,32 0 0 0 1.2364,-1.38281 c 1.116,-1.89145 2.2255,-3.78133 3.3261,-5.66992 a 32,32 0 0 0 2.0489,-4.25391 32,32 0 0 0 1.2363,-1.41015 c 1.0728,-1.86061 2.1646,-3.75555 3.2676,-5.69141 a 32,32 0 0 0 1.9922,-4.23633 32,32 0 0 0 1.2128,-1.4082 c 1.0928,-1.93065 2.1659,-3.84294 3.2227,-5.73438 a 32,32 0 0 0 1.9785,-4.30273 32,32 0 0 0 1.2051,-1.42774 c 1.049,-1.8993 2.1076,-3.8236 3.1699,-5.77343 a 32,32 0 0 0 1.9102,-4.27539 32,32 0 0 0 1.1894,-1.4336 c 1.0635,-1.96618 2.0964,-3.90049 3.1094,-5.79883 a 32,32 0 0 0 1.9063,-4.36328 32,32 0 0 0 1.1699,-1.44336 c 1.0178,-1.93204 2.0394,-3.88124 3.0605,-5.84961 a 32,32 0 0 0 1.8301,-4.32812 32,32 0 0 0 1.1543,-1.45313 c 1.0274,-1.99667 2.0227,-3.95548 2.9941,-5.87109 a 32,32 0 0 0 1.8164,-4.4082 32,32 0 0 0 1.1407,-1.47071 c 0.9809,-1.96184 1.9609,-3.93699 2.9394,-5.92773 a 32,32 0 0 0 1.7383,-4.37109 32,32 0 0 0 1.127,-1.48438 c 0.9835,-2.01989 1.9356,-4.00474 2.8671,-5.94922 a 32,32 0 0 0 1.7188,-4.45508 32,32 0 0 0 1.1074,-1.49414 c 0.9395,-1.99088 1.8773,-3.99412 2.8106,-6.00976 a 32,32 0 0 0 1.6386,-4.42383 32,32 0 0 0 1.0938,-1.51367 c 0.9341,-2.04019 1.8429,-4.05073 2.7324,-6.0293 a 32,32 0 0 0 1.6113,-4.5 32,32 0 0 0 1.0703,-1.52148 c 0.8943,-2.02144 1.7842,-4.05268 2.668,-6.09375 a 32,32 0 0 0 1.5352,-4.48243 32,32 0 0 0 1.0566,-1.54492 c 0.8752,-2.04933 1.7363,-4.08852 2.584,-6.11523 a 32,32 0 0 0 1.4922,-4.53711 32,32 0 0 0 1.0293,-1.54883 c 0.8458,-2.05623 1.683,-4.11743 2.5117,-6.18164 a 32,32 0 0 0 1.4238,-4.54687 32,32 0 0 0 1.0215,-1.5879 c 0.8015,-2.03389 1.6092,-4.1011 2.418,-6.20312 a 32,32 0 0 0 1.3515,-4.54883 32,32 0 0 0 0.9922,-1.58984 c 0.7946,-2.09825 1.5735,-4.18858 2.3399,-6.26953 a 32,32 0 0 0 1.3008,-4.62305 32,32 0 0 0 0.9785,-1.62891 c 0.728,-2.02646 1.4781,-4.12202 2.2363,-6.29101 a 32,32 0 0 0 1.207,-4.57617 32,32 0 0 0 0.9434,-1.61719 c 0.7401,-2.15072 1.4535,-4.26908 2.1484,-6.35352 a 32,32 0 0 0 1.1641,-4.68945 32,32 0 0 0 0.918,-1.64258 c 0.6771,-2.08879 1.3603,-4.22243 2.0429,-6.40234 a 32,32 0 0 0 1.0625,-4.63672 32,32 0 0 0 0.8848,-1.64258 c 0.6776,-2.20577 1.3188,-4.35094 1.9355,-6.43164 a 32,32 0 0 0 1.0137,-4.76758 32,32 0 0 0 0.8496,-1.64844 c 0.6217,-2.16708 1.2317,-4.33556 1.8281,-6.50586 a 32,32 0 0 0 0.9102,-4.75195 32,32 0 0 0 0.8418,-1.71875 c 0.5543,-2.09484 1.1257,-4.26956 1.6973,-6.52734 a 32,32 0 0 0 0.8047,-4.69727 32,32 0 0 0 0.7949,-1.69531 c 0.5583,-2.26207 1.0764,-4.45524 1.5742,-6.57422 a 32,32 0 0 0 0.7461,-4.85742 32,32 0 0 0 0.7519,-1.69922 c 0.4967,-2.21501 0.9794,-4.43049 1.4473,-6.64844 a 32,32 0 0 0 0.627,-4.82812 32,32 0 0 0 0.7343,-1.76758 c 0.4306,-2.15238 0.8687,-4.37801 1.2989,-6.67773 a 32,32 0 0 0 0.5117,-4.78711 32,32 0 0 0 0.6894,-1.76172 c 0.4038,-2.25988 0.7873,-4.50388 1.1543,-6.72852 a 32,32 0 0 0 0.4141,-4.87109 32,32 0 0 0 0.6387,-1.7461 c 0.3596,-2.3155 0.6879,-4.57277 0.998,-6.76953 a 32,32 0 0 0 0.3047,-4.93359 32,32 0 0 0 0.5977,-1.77539 c 0.2949,-2.27928 0.5704,-4.55538 0.83,-6.82813 a 32,32 0 0 0 0.1739,-4.92578 32,32 0 0 0 0.5586,-1.8164 c 0.2287,-2.23832 0.4498,-4.52338 0.6523,-6.85938 a 32,32 0 0 0 0.041,-4.91797 32,32 0 0 0 0.5156,-1.86523 c 0.1628,-2.20063 0.3255,-4.49201 0.4649,-6.87891 a 32,32 0 0 0 -0.098,-4.84765 32,32 0 0 0 0.4571,-1.82227 c 0.1233,-2.48518 0.1948,-4.7268 0.2734,-6.7207 a 32,32 0 0 0 -0.1875,-4.83985 32,32 0 0 0 0.4121,-1.77148 c 0.073,-2.24002 0.1348,-4.45431 0.1895,-6.64453 a 32,32 0 0 0 -0.2539,-4.71094 32,32 0 0 0 0.4042,-1.83203 c 0.044,-2.16843 0.086,-4.38017 0.1153,-6.63672 a 32,32 0 0 0 -0.3086,-4.71094 32,32 0 0 0 0.3867,-1.86914 l 0.025,-3.45703 a 32.0032,32.0032 0 0 0 0,-0.0996 l 0.014,-2.94141 a 32,32 0 0 0 -0.2481,-3.33984 32,32 0 0 0 0.25,-3.23047 c 0,-2.24009 -0.016,-4.4568 -0.035,-6.65039 a 32,32 0 0 0 -0.3809,-1.82812 32,32 0 0 0 0.3086,-4.70899 c -0.029,-2.19426 -0.064,-4.411 -0.1113,-6.65039 a 32,32 0 0 0 -0.3985,-1.80273 32,32 0 0 0 0.252,-4.7461 c -0.055,-2.14412 -0.1131,-4.35199 -0.1875,-6.62304 a 32,32 0 0 0 -0.416,-1.78711 32,32 0 0 0 0.1914,-4.79297 l -0.125,-3.23633 a 32.0032,32.0032 0 0 0 0,-0.0977 l -0.1309,-3.1582 a 32,32 0 0 0 -0.4492,-1.85547 32,32 0 0 0 0.1484,-4.7207 c -0.1075,-2.27316 -0.2277,-4.47829 -0.3437,-6.61523 a 32,32 0 0 0 -0.4688,-1.83204 32,32 0 0 0 0.09,-4.71484 c -0.134,-2.26064 -0.278,-4.46885 -0.4219,-6.625 a 32,32 0 0 0 -0.4902,-1.82031 32,32 0 0 0 0.033,-4.71289 c -0.1611,-2.25487 -0.3311,-4.46145 -0.502,-6.62305 a 32,32 0 0 0 -0.5136,-1.81641 32,32 0 0 0 -0.022,-4.70898 c -0.1888,-2.25627 -0.3873,-4.46052 -0.584,-6.61524 a 32,32 0 0 0 -0.5352,-1.80859 32,32 0 0 0 -0.082,-4.71484 c -0.2176,-2.26493 -0.4435,-4.46352 -0.6641,-6.59766 a 32,32 0 0 0 -0.5566,-1.80469 32,32 0 0 0 -0.1445,-4.7539 c -0.2438,-2.22457 -0.4956,-4.41361 -0.7461,-6.56836 a 32,32 0 0 0 -0.5762,-1.78516 32,32 0 0 0 -0.2129,-4.79687 c -0.2645,-2.14104 -0.5387,-4.33871 -0.834,-6.58985 a 32,32 0 0 0 -0.5957,-1.75976 32,32 0 0 0 -0.2656,-4.72071 c -0.2969,-2.19022 -0.6037,-4.38951 -0.9219,-6.59961 a 32,32 0 0 0 -0.623,-1.76367 32,32 0 0 0 -0.3223,-4.69922 c -0.3315,-2.23675 -0.67,-4.42931 -1.0059,-6.57812 a 32,32 0 0 0 -0.6425,-1.75 32,32 0 0 0 -0.4043,-4.80664 c -0.3478,-2.1208 -0.7081,-4.30522 -1.0938,-6.55078 a 32,32 0 0 0 -0.6679,-1.73828 32,32 0 0 0 -0.4512,-4.70118 c -0.3883,-2.20456 -0.7843,-4.3933 -1.1856,-6.56445 a 32,32 0 0 0 -0.6894,-1.72851 32,32 0 0 0 -0.5332,-4.78711 c -0.4066,-2.11424 -0.8276,-4.2903 -1.2754,-6.52539 a 32,32 0 0 0 -0.7168,-1.72266 32,32 0 0 0 -0.582,-4.68555 c -0.4539,-2.21604 -0.9117,-4.38988 -1.3672,-6.52344 a 32,32 0 0 0 -0.7481,-1.73632 32,32 0 0 0 -0.6601,-4.73438 c -0.4778,-2.16362 -0.9675,-4.3357 -1.4688,-6.51562 a 32,32 0 0 0 -0.7597,-1.68946 32,32 0 0 0 -0.7422,-4.76367 c -0.5029,-2.11813 -1.0198,-4.28068 -1.5625,-6.48437 a 32,32 0 0 0 -0.7891,-1.6836 32,32 0 0 0 -0.8066,-4.72461 c -0.5388,-2.12854 -1.092,-4.2883 -1.6661,-6.47461 a 32,32 0 0 0 -0.8144,-1.67187 32,32 0 0 0 -0.8828,-4.7168 c -0.5748,-2.13163 -1.1621,-4.28465 -1.7695,-6.45703 a 32,32 0 0 0 -0.8418,-1.66016 32,32 0 0 0 -0.9649,-4.72265 c -0.6075,-2.11347 -1.229,-4.2564 -1.875,-6.42774 a 32,32 0 0 0 -0.873,-1.65429 32,32 0 0 0 -1.0371,-4.69336 c -0.6501,-2.12974 -1.3117,-4.26262 -1.9864,-6.40039 a 32,32 0 0 0 -0.9062,-1.65039 32,32 0 0 0 -1.1153,-4.67188 c -0.6935,-2.14167 -1.397,-4.27148 -2.1074,-6.39062 a 32,32 0 0 0 -0.9297,-1.62696 32,32 0 0 0 -1.2207,-4.69922 c -0.7255,-2.10281 -1.4645,-4.21845 -2.2226,-6.3457 a 32,32 0 0 0 -0.9668,-1.61523 32,32 0 0 0 -1.2969,-4.65235 c -0.7747,-2.11849 -1.562,-4.23345 -2.3613,-6.34375 a 32,32 0 0 0 -0.9981,-1.5957 32,32 0 0 0 -1.3965,-4.64258 c -0.8166,-2.09953 -1.6475,-4.20242 -2.4961,-6.30859 a 32,32 0 0 0 -1.0292,-1.57422 32,32 0 0 0 -1.504,-4.63086 c -0.8653,-2.0909 -1.7451,-4.18293 -2.6425,-6.27539 a 32,32 0 0 0 -1.0664,-1.55273 32,32 0 0 0 -1.6114,-4.60547 c -0.9264,-2.10237 -1.8611,-4.17751 -2.7968,-6.22657 a 32,32 0 0 0 -1.1055,-1.5332 32,32 0 0 0 -1.7578,-4.63867 c -0.9626,-2.03958 -1.9515,-4.10189 -2.9707,-6.18359 a 32,32 0 0 0 -1.1387,-1.49219 32,32 0 0 0 -1.8926,-4.60938 c -1.0245,-2.02571 -2.0748,-4.07201 -3.1601,-6.13672 a 32,32 0 0 0 -1.1895,-1.46875 32,32 0 0 0 -2.0488,-4.59375 c -1.0924,-2.00532 -2.2154,-4.03186 -3.375,-6.07617 a 32,32 0 0 0 -1.252,-1.45117 32,32 0 0 0 -2.207,-4.53711 c -1.1895,-2.02062 -2.4042,-4.03611 -3.6445,-6.046874 a 32,32 0 0 0 -1.3321,-1.43164 32,32 0 0 0 -2.4023,-4.498047 c -1.2922,-2.008429 -2.6089,-4.002452 -3.9512,-5.982422 a 32,32 0 0 0 -1.4394,-1.419922 32,32 0 0 0 -2.6582,-4.476563 c -1.3942,-1.952246 -2.8372,-3.920135 -4.3379,-5.898437 a 32,32 0 0 0 -1.5723,-1.394531 32,32 0 0 0 -2.9551,-4.396485 c -1.5735,-1.951093 -3.2001,-3.899744 -4.8886,-5.83789 a 32,32 0 0 0 -1.7793,-1.375 32,32 0 0 0 -3.4063,-4.34375 c -1.7972,-1.898804 -3.6918,-3.814893 -5.6992,-5.72461 a 32,32 0 0 0 -2.1113,-1.335937 32,32 0 0 0 -4.1094,-4.242188 c -2.2098,-1.858563 -4.5844,-3.72438 -7.1543,-5.544922 a 32,32 0 0 0 -2.7852,-1.24414 32,32 0 0 0 -5.5254,-4.021484 c -3.0363,-1.693397 -6.4572,-3.355885 -10.33,-4.78125 a 32,32 0 0 0 -4.0567,-0.638672 32,32 0 0 0 -9.0625,-2.621094 c -2.3106,-0.300485 -4.5508,-0.433853 -6.7168,-0.4375 a 32,32 0 0 0 -0.041,0.0078 32,32 0 0 0 -0.039,-0.0078 z"
         inkscape:label="shadow" />
      <path
         id="path3175"
         style="color:#000000;display:none;fill:#123456;stroke-width:64;stroke-linecap:round;stroke-linejoin:round;-inkscape-stroke:none;paint-order:fill markers stroke;filter:url(#filter3128)"
         inkscape:label="top hair"
         d="m 993.83398,321.35938 c -2.53272,-0.19771 -5.08967,-0.0933 -7.61523,0.3164 -12.95437,2.10257 -23.31127,11.9009 -26.12891,24.71875 -2.81763,12.81786 2.47516,26.05693 13.35352,33.39844 24.4399,16.46705 41.95804,32.27474 54.22074,47.54297 -1.9877,-0.53348 -3.7974,-1.0875 -5.8594,-1.60938 -47.9172,-12.12718 -117.90364,-21.88449 -207.76173,-13.82031 -106.7876,9.58351 -229.5491,82.81425 -330.40039,151.96875 -100.8513,69.1545 -177.87695,136.15039 -177.87696,136.15039 -11.72041,10.2001 -14.42127,27.34498 -6.40429,40.6543 8.01698,13.30931 24.43535,18.93745 38.93164,13.3457 117.82989,-45.51557 214.37988,-51.53031 309.47851,-48.52344 -23.08004,24.71106 -37.94935,50.93287 -46.43945,77.51172 -15.22851,47.67393 -11.52269,93.38666 -10.71289,133.88281 0.26012,12.89034 8.2308,24.36606 20.21875,29.11133 11.98795,4.74527 25.65185,1.8333 34.66406,-7.38672 0,0 33.99111,-34.76893 82.26953,-73.04492 48.27842,-38.27598 111.3513,-78.79366 160.50586,-90.38672 73.49952,-17.33478 103.37234,-21.24838 126.50196,-21.5 a 32,32 0 0 1 1.4062,-11.58398 l 2.3106,-5.9668 a 32,32 0 0 1 1.748,-2.75 32,32 0 0 1 0.5586,-3.20508 l 2.2618,-5.84765 0.043,-0.10938 a 32,32 0 0 1 1.7461,-2.75586 32,32 0 0 1 0.5606,-3.21484 l 0.6093,-1.58008 1.6895,-4.3789 a 32,32 0 0 1 1.7441,-2.75196 32,32 0 0 1 0.5547,-3.20508 l 2.3008,-5.9707 a 32,32 0 0 1 1.7383,-2.74805 32,32 0 0 1 0.5547,-3.21093 l 1.6386,-4.25977 0.6524,-1.69727 a 32,32 0 0 1 1.7422,-2.75781 32,32 0 0 1 0.5527,-3.21679 l 0.8457,-2.19727 1.4414,-3.75977 a 32,32 0 0 1 1.7383,-2.75781 32,32 0 0 1 0.5527,-3.21875 l 0.2188,-0.56836 2.0625,-5.39062 a 32,32 0 0 1 1.7344,-2.75391 32,32 0 0 1 0.5449,-3.20312 l 2.2851,-5.97852 a 32,32 0 0 1 1.7305,-2.75391 32,32 0 0 1 0.543,-3.20312 l 2.2793,-5.98047 a 32,32 0 0 1 1.7304,-2.75586 32,32 0 0 1 0.5411,-3.20703 l 1.371,-3.59961 0.9004,-2.37109 a 32,32 0 0 1 1.7286,-2.75977 32,32 0 0 1 0.539,-3.20898 l 1.2695,-3.34766 0.9961,-2.62305 a 32,32 0 0 1 1.7247,-2.75976 32,32 0 0 1 0.5371,-3.21289 l 1.2382,-3.27149 1.0196,-2.69922 a 32,32 0 0 1 1.7246,-2.76367 32,32 0 0 1 0.5332,-3.20898 l 1.2539,-3.32617 0.998,-2.64649 a 32,32 0 0 1 1.7207,-2.76367 32,32 0 0 1 0.5293,-3.20898 l 1.3028,-3.46485 0.9414,-2.50976 a 32,32 0 0 1 1.7168,-2.76563 32,32 0 0 1 0.5254,-3.20898 l 1.3652,-3.63672 0.875,-2.33789 a 32,32 0 0 1 1.7129,-2.76563 32,32 0 0 1 0.5215,-3.20898 l 1.4179,-3.80078 0.8106,-2.17578 a 32,32 0 0 1 1.709,-2.76758 32,32 0 0 1 0.5176,-3.20899 l 1.4511,-3.90429 0.7696,-2.07227 a 32,32 0 0 1 1.705,-2.77148 32,32 0 0 1 0.5118,-3.20508 l 1.4453,-3.9043 0.7656,-2.07422 a 32,32 0 0 1 1.6992,-2.77148 32,32 0 0 1 0.5059,-3.20703 l 1.3808,-3.75 0.8184,-2.22852 a 32,32 0 0 1 1.6933,-2.77148 32,32 0 0 1 0.5,-3.20899 l 1.2442,-3.39648 0.9414,-2.58399 a 32,32 0 0 1 1.6875,-2.77539 32,32 0 0 1 0.4922,-3.20507 l 1.0176,-2.79493 1.1543,-3.18554 a 32,32 0 0 1 1.6757,-2.77149 32,32 0 0 1 0.4864,-3.21094 l 0.6855,-1.89648 1.4688,-4.08594 a 32,32 0 0 1 1.666,-2.77148 32,32 0 0 1 0.4785,-3.21485 c 0.7107,-1.98441 1.4172,-3.9605 2.1152,-5.92968 a 32,32 0 0 1 1.6582,-2.78516 32,32 0 0 1 0.459,-3.19727 l 1.4414,-4.08398 0.6699,-1.91016 a 32,32 0 0 1 1.6387,-2.77148 32,32 0 0 1 0.4453,-3.19336 c 0.6906,-1.98362 1.3771,-3.96766 2.0606,-5.95117 a 32,32 0 0 1 1.6211,-2.7793 32,32 0 0 1 0.4258,-3.18945 c 0.6748,-1.97686 1.3438,-3.95209 2.0078,-5.92578 a 32,32 0 0 1 1.5918,-2.77344 32,32 0 0 1 0.3925,-3.16016 c 0.6558,-1.97861 1.2998,-3.94108 1.9317,-5.88867 a 32,32 0 0 1 1.5703,-2.80664 32,32 0 0 1 0.3828,-3.26367 c 0.7604,-2.34988 1.5479,-4.65715 2.3535,-6.92383 a 32,32 0 0 1 1.836,-3.07812 32,32 0 0 1 0.5878,-3.52735 c 0.8262,-2.18545 1.6663,-4.34769 2.5176,-6.48633 a 32,32 0 0 1 1.8887,-2.91406 32,32 0 0 1 0.6777,-3.41211 c 0.8626,-2.08559 1.7404,-4.1697 2.6309,-6.25195 a 32,32 0 0 1 1.9258,-2.8125 32,32 0 0 1 0.5468,-2.47656 c -78.0209,-35.58526 -149.2539,-59.01953 -149.2539,-59.01953 -2.43136,-0.79658 -4.93989,-1.29644 -7.47262,-1.49414 z" />
    </g>
  </g>
</svg>
