<?xml version="1.0" encoding="UTF-8" standalone="no"?>
<!-- Created with Inkscape (http://www.inkscape.org/) -->

<svg
   version="1.1"
   id="svg824"
   width="1706.6667"
   height="1706.6667"
   viewBox="0 0 1706.6667 1706.6667"
   sodipodi:docname="ying_listening.svg"
   inkscape:version="1.1 (c68e22c387, 2021-05-23)"
   inkscape:export-filename="D:\Pictures\yingmotes\ying_surprised.png"
   inkscape:export-xdpi="72"
   inkscape:export-ydpi="72"
   xmlns:inkscape="http://www.inkscape.org/namespaces/inkscape"
   xmlns:sodipodi="http://sodipodi.sourceforge.net/DTD/sodipodi-0.dtd"
   xmlns="http://www.w3.org/2000/svg"
   xmlns:svg="http://www.w3.org/2000/svg">
  <defs
     id="defs828" />
  <sodipodi:namedview
     id="namedview826"
     pagecolor="#ffffff"
     bordercolor="#666666"
     borderopacity="1.0"
     inkscape:pageshadow="2"
     inkscape:pageopacity="0.0"
     inkscape:pagecheckerboard="0"
     showgrid="false"
     inkscape:zoom="0.16681243"
     inkscape:cx="-1666.5425"
     inkscape:cy="-290.74572"
     inkscape:window-width="1920"
     inkscape:window-height="1001"
     inkscape:window-x="-9"
     inkscape:window-y="-9"
     inkscape:window-maximized="1"
     inkscape:current-layer="g12988" />
  <g
     id="layer1"
     inkscape:label="Ying"
     style="display:inline"
     inkscape:groupmode="layer">
    <path
       style="display:none;fill:#123456;stroke:#123456;stroke-width:64;stroke-linecap:round;stroke-linejoin:round;-inkscape-stroke:none;paint-order:fill markers stroke;stop-color:#000000"
       d="m 1298.031,865.09775 c 70.7982,131.45402 185.3824,239.02475 198.7064,401.82835 -29.438,-19.1346 -55.9321,-14.719 -79.4825,13.2471 91.0222,54.7003 58.5139,175.917 81.6903,267.1496 l -99.3531,6.6236 c 66.7588,58.9185 81.773,128.1858 90.5218,198.7063 l -494.50725,2.2079 c -24.3802,-41.4813 23.11455,-208.5632 66.23555,-227.0436 0,0 3.3791,-20.0154 -75.35325,-9.4549 C 1015.23,1271.0896 1172.1837,1096.1858 1298.031,865.09775 Z"
       id="path3091"
       sodipodi:nodetypes="cccccccccc"
       inkscape:label="mane" />
    <path
       style="opacity:1;fill:#ffcb4c;fill-opacity:1;stroke:#ffcb4c;stroke-width:64;stroke-linecap:round;stroke-linejoin:round;stroke-miterlimit:4;stroke-dasharray:none;stroke-dashoffset:0;stroke-opacity:1;paint-order:fill markers stroke;stop-color:#000000"
       d="m 848.0933,1338.888 -105.3757,267.6092 103.41253,-53.6227 -94.75583,206.489 503.097,-21.9501 c 0,0 -127.6066,-94.2326 -149.2016,-184.5389 -21.5949,-90.3062 51.0427,-253.25 51.0427,-253.25 z"
       id="path3340"
       inkscape:label="neck"
       sodipodi:nodetypes="cccccscc" />
    <g
       id="g12988"
       inkscape:label="head"
       inkscape:groupmode="layer">
      <path
         style="opacity:1;fill:#f19020;fill-opacity:1;stroke:#f19020;stroke-width:64;stroke-linecap:round;stroke-miterlimit:4;stroke-dasharray:none;stroke-dashoffset:0;stroke-opacity:1;paint-order:fill markers stroke;stop-color:#000000"
         d="m 949.4807,1125.8781 c 0,0 -145.97643,-100.5197 -258.1185,-244.79409 C 567.99482,722.36774 489.06902,506.59524 538.87122,459.439 c 49.80219,-47.15635 260.31902,33.3472 371.32168,121.94439 111.0029,88.59736 281.7583,345.73805 281.7583,345.73805 z"
         id="path1640"
         inkscape:label="left ear"
         sodipodi:nodetypes="cssscc"
         inkscape:transform-center-x="117.60791"
         inkscape:transform-center-y="-136.95806" />
      <path
         style="display:inline;fill:none;fill-opacity:1;stroke:#f19020;stroke-width:32;stroke-linecap:round;stroke-linejoin:round;stroke-miterlimit:4;stroke-dasharray:none;stroke-dashoffset:0;stroke-opacity:1;paint-order:fill markers stroke;stop-color:#000000"
         d="m 255.05932,466.90088 c 134.67334,107.6549 269.1929,250.97295 356.66275,385.85349"
         id="path6280-0-6"
         sodipodi:nodetypes="cc"
         inkscape:label="eyelash left small"
         inkscape:transform-center-x="153.41509"
         inkscape:transform-center-y="-157.5739" />
      <path
         style="display:inline;fill:none;fill-opacity:1;stroke:#f19020;stroke-width:32;stroke-linecap:round;stroke-linejoin:round;stroke-miterlimit:4;stroke-dasharray:none;stroke-dashoffset:0;stroke-opacity:1;paint-order:fill markers stroke;stop-color:#000000"
         d="M 280.98441,193.95321 C 488.46046,389.26478 643.56322,609.38126 697.09917,877.60156"
         id="path6280-3"
         sodipodi:nodetypes="cc"
         inkscape:label="eyelash left big"
         inkscape:transform-center-x="194.02173"
         inkscape:transform-center-y="-282.94438" />
      <g
         id="g12997"
         inkscape:label="left eye">
        <path
           id="path1915-9"
           style="display:inline;fill:#fefefe;stroke:#65471b;stroke-width:64;stroke-linecap:round;stroke-linejoin:round;paint-order:fill markers stroke;stop-color:#000000"
           inkscape:label="lefteye"
           d="m 792.61751,1048.7279 c 10e-6,120.7167 -155.86024,218.577 -276.57698,218.577 -120.71674,0 -160.57699,-55.8603 -160.57698,-176.577 0,-120.71673 97.86025,-260.57698 218.57698,-260.57698 120.71673,0 218.57698,97.86025 218.57698,218.57698 z"
           sodipodi:nodetypes="sssss" />
        <path
           style="opacity:1;fill:#ffffff;fill-opacity:1;stroke:#65471b;stroke-width:47.9999;stroke-linecap:round;stroke-linejoin:round;stroke-miterlimit:4;stroke-dasharray:none;stroke-dashoffset:0;stroke-opacity:1;paint-order:fill markers stroke;stop-color:#000000"
           d="m 550.97372,956.62184 v 91.46096"
           id="path2372"
           inkscape:label="left pupil" />
      </g>
      <path
         id="path1148"
         style="display:inline;opacity:1;fill:#ffcb4c;stroke:#ffcb4c;stroke-width:64;stroke-linecap:round;stroke-linejoin:round;stroke-miterlimit:4;stroke-dasharray:6.4, 6.4;stroke-dashoffset:0;stroke-opacity:1;paint-order:fill markers stroke;stop-color:#000000"
         inkscape:label="head"
         d="m 1299.0547,1153.5586 c 0,0 -0.1078,-10.8206 -0.9512,-28.418 -0.4217,-8.7987 -1.0259,-19.2912 -1.8945,-30.9726 -0.8686,-11.6814 -1.9997,-24.5525 -3.4727,-38.1055 -1.4729,-13.553 -3.2888,-27.7877 -5.5234,-42.2012 -2.2347,-14.41345 -4.8892,-29.0047 -8.043,-43.26755 -1.5769,-7.13143 -3.279,-14.18175 -5.1152,-21.08594 -1.8362,-6.90419 -3.8068,-13.66232 -5.9219,-20.21289 -2.1151,-6.55056 -4.3733,-12.89234 -6.7871,-18.96289 -2.4138,-6.07055 -4.9828,-11.86984 -7.7148,-17.33398 -2.7321,-5.46415 -5.9346,-10.78574 -9.5391,-15.96094 -3.6045,-5.1752 -7.6114,-10.20474 -11.9492,-15.08399 -4.3379,-4.87924 -9.0074,-9.60926 -13.9395,-14.18554 -4.9321,-4.57628 -10.1264,-8.99932 -15.5136,-13.26563 -5.3873,-4.2663 -10.9666,-8.37489 -16.67,-12.32422 -5.7033,-3.94932 -11.5298,-7.73794 -17.4101,-11.36328 -11.7607,-7.25067 -23.7371,-13.84709 -35.3711,-19.75976 -11.634,-5.91267 -22.9257,-11.14156 -33.3203,-15.66016 -10.3946,-4.5186 -19.8912,-8.32606 -27.9336,-11.39453 -16.085,-6.13693 -26.3535,-9.31836 -26.3535,-9.31836 -106.83135,-15.98813 -232.17461,6.96944 -312.62504,60.01367 -101.26734,66.76968 -136.88727,176.62945 -198.70703,211.95509 -61.81975,35.3255 -225.20029,77.273 -280.39649,83.8965 -55.19621,6.6235 -183.250354,6.6246 -161.171871,123.6406 22.078481,117.016 112.599211,282.6048 377.541011,247.2793 264.94179,-35.3256 313.51517,-44.1575 536.50782,-88.3145 22.8973,-4.5341 53.8481,-18.3195 86.8281,-36.9472 l 291.9303,26.0406 -170.985,-112.7242 c 5.3578,-4.8405 10.5999,-9.7184 15.6328,-14.6367 l 220.1354,-11.7421 -162.94,-60.3009 c 3.4806,-6.5537 6.4805,-13.0207 8.6269,-19.3066 1.0523,-3.0817 2.0328,-6.6268 3.0469,-9.9766 z"
         sodipodi:nodetypes="csssssssssssssssssscssssssccccccsc" />
      <path
         style="display:none;fill:#123456;stroke:#123456;stroke-width:64;stroke-linecap:round;stroke-linejoin:round;-inkscape-stroke:none;paint-order:fill markers stroke;stop-color:#000000"
         d="M 880.93148,744.0449 C 763.91552,771.643 622.61323,916.25706 622.61323,916.25706 620.95257,833.21142 611.27974,749.4374 735.2135,677.80944 c -124.69479,-7.45678 -249.2876,-15.1175 -408.45194,46.36482 0,0 303.22641,-263.62224 490.14233,-280.39675 172.2122,-15.45493 264.94181,37.53343 264.94181,37.53343 -0.1923,-45.68323 -31.4577,-88.25915 -90.52179,-128.0552 0,0 295.85169,97.14532 333.38509,194.29065 37.5334,97.14533 28.702,167.79647 28.702,167.79647 l -243.7525,34.92308 c 0,0 -111.71105,-33.81914 -228.72702,-6.22104 z"
         id="path1637"
         sodipodi:nodetypes="zcccsccsccz"
         inkscape:label="top hair" />
      <path
         id="path13483"
         style="display:inline;opacity:1;fill:#ffcb4c;stroke:#ffcb4c;stroke-width:64;stroke-linecap:round;stroke-linejoin:round;stroke-miterlimit:4;stroke-dasharray:6.4, 6.4;stroke-dashoffset:0;stroke-opacity:1;paint-order:fill markers stroke;stop-color:#000000"
         inkscape:label="right ear"
         d="M 1167.3325,71.790543 C 1088.6556,91.011726 998.81143,411.48053 992.52213,503.18965 c -5.5995,81.65248 -32.80179,290.41691 -40.56538,349.59195 22.56711,377.4264 224.07225,315.3991 347.24365,333.1555 67.479,-139.6495 186.297,-428.00592 141.1053,-651.01234 C 1378.4328,229.60221 1218.3529,59.326065 1167.3325,71.790543 Z"
         sodipodi:nodetypes="ssccss"
         inkscape:transform-center-x="-42.911105"
         inkscape:transform-center-y="-378.14014" />
      <g
         id="g13003"
         inkscape:label="face">
        <path
           style="opacity:1;fill:none;fill-opacity:1;stroke:#65471b;stroke-width:64;stroke-linecap:round;stroke-linejoin:round;stroke-miterlimit:4;stroke-dasharray:none;stroke-dashoffset:0;stroke-opacity:1;paint-order:fill markers stroke;stop-color:#000000"
           d="m 83.898236,1201.0695 68.443294,6.6235 -37.53342,39.7413"
           id="path2163"
           inkscape:label="left nostril" />
        <path
           style="opacity:1;fill:none;fill-opacity:1;stroke:#65471b;stroke-width:64;stroke-linecap:round;stroke-linejoin:round;stroke-miterlimit:4;stroke-dasharray:none;stroke-dashoffset:0;stroke-opacity:1;paint-order:fill markers stroke;stop-color:#000000"
           d="m 401.82839,1251.85 -59.6119,-44.157 121.43166,-17.6628"
           id="path2198"
           inkscape:label="right nostril" />
        <path
           style="opacity:1;fill:#ffffff;fill-opacity:1;stroke:#65471b;stroke-width:64;stroke-linecap:round;stroke-linejoin:round;stroke-miterlimit:4;stroke-dasharray:none;stroke-dashoffset:0;stroke-opacity:1;paint-order:fill markers stroke;stop-color:#000000"
           d="m 222.99268,1530.0389 -90.52178,-183.2514 90.52178,-72.859 103.76887,66.2354 z"
           id="path2202"
           sodipodi:nodetypes="ccccc"
           inkscape:label="toof" />
      </g>
      <g
         id="g12993"
         inkscape:label="right eye">
        <path
           style="opacity:1;fill:#65471b;fill-opacity:1;stroke:#65471b;stroke-width:64;stroke-linecap:round;stroke-linejoin:round;stroke-miterlimit:4;stroke-dasharray:none;stroke-dashoffset:0;stroke-opacity:1;paint-order:fill markers stroke;stop-color:#000000"
           d="m 661.97569,1226.0485 53.36716,-115.5008 86.53085,168.711 z"
           id="path7852"
           inkscape:label="eyenub"
           sodipodi:nodetypes="cccc" />
        <path
           id="path1915"
           style="opacity:1;fill:#fefefe;stroke:#65471b;stroke-width:64;stroke-linecap:round;stroke-linejoin:round;paint-order:fill markers stroke;stop-color:#000000"
           inkscape:label="righteye"
           d="m 1150.289,1075.2222 c 0,120.7167 -151.8603,218.5769 -272.57702,218.5769 -120.71671,0 -164.57695,-71.8602 -164.57699,-192.5769 -2e-5,-120.71675 97.86024,-244.57702 218.57699,-244.57701 120.71672,-2e-5 218.57702,97.86025 218.57702,218.57701 z"
           sodipodi:nodetypes="sssss" />
        <path
           style="opacity:1;fill:#ffffff;fill-opacity:1;stroke:#65471b;stroke-width:48;stroke-linecap:round;stroke-linejoin:round;stroke-miterlimit:4;stroke-dasharray:none;stroke-dashoffset:0;stroke-opacity:1;paint-order:fill markers stroke;stop-color:#000000"
           d="M 990.68447,967.39453 V 1145.7191"
           id="path2350"
           inkscape:label="right pupil"
           sodipodi:nodetypes="cc" />
      </g>
      <path
         style="opacity:1;fill:none;fill-opacity:1;stroke:#ffcb4c;stroke-width:32;stroke-linecap:round;stroke-linejoin:round;stroke-miterlimit:4;stroke-dasharray:none;stroke-dashoffset:0;stroke-opacity:1;paint-order:fill markers stroke;stop-color:#000000"
         d="M 589.06526,72.036885 C 708.6632,330.66645 770.41461,592.76356 719.98502,861.58522"
         id="path6280"
         sodipodi:nodetypes="cc"
         inkscape:label="eyelash right big"
         inkscape:transform-center-x="64.966751"
         inkscape:transform-center-y="-332.6352" />
      <path
         style="display:inline;fill:none;fill-opacity:1;stroke:#ffcb4c;stroke-width:32;stroke-linecap:round;stroke-linejoin:round;stroke-miterlimit:4;stroke-dasharray:none;stroke-dashoffset:0;stroke-opacity:1;paint-order:fill markers stroke;stop-color:#000000"
         d="m 863.55826,301.93376 c 2.88779,172.38951 -21.80221,367.39203 -69.98003,520.76293"
         id="path6280-0"
         sodipodi:nodetypes="cc"
         inkscape:label="eyelash right small"
         inkscape:transform-center-x="-58.471784"
         inkscape:transform-center-y="-204.35832" />
      <path
         id="path19479"
         style="display:inline;fill:#ff0000;fill-opacity:1;stroke:#ffffff;stroke-width:128;stroke-linecap:round;stroke-linejoin:round;stroke-miterlimit:4;stroke-dasharray:none;stroke-dashoffset:0;stroke-opacity:1;paint-order:markers stroke fill;stop-color:#000000"
         d="m 374.61557,722.04691 a 55.301327,56.67857 74.322916 0 1 -31.55291,72.39214 55.301327,56.67857 74.322916 0 1 -73.5311,-29.97286 55.301327,56.67857 74.322916 0 1 31.55299,-72.39213 55.301327,56.67857 74.322916 0 1 73.53102,29.97285 z M 259.79646,404.99299 a 42.774545,43.839816 74.322909 0 0 -6.92334,-1.08997 42.774545,43.839816 74.322909 0 0 -6.76854,-1.78656 c -4.62755,-0.68728 -9.29683,-1.09847 -13.98646,-1.23064 a 42.774545,43.839816 74.322909 0 0 -7.01269,0.57367 42.774545,43.839816 74.322909 0 0 -7.0009,-0.1404 c -4.66043,0.41923 -9.28047,1.11076 -13.84042,2.06569 a 42.774545,43.839816 74.322909 0 0 -6.66311,2.17812 42.774545,43.839816 74.322909 0 0 -6.8595,1.48955 c -4.45491,1.49278 -8.81663,3.24743 -13.06438,5.25746 a 42.774545,43.839816 74.322909 0 0 -5.98304,3.68238 42.774545,43.839816 74.322909 0 0 -6.33587,3.06475 c -3.97041,2.49108 -7.7827,5.212 -11.42019,8.14883 a 42.774545,43.839816 74.322909 0 0 -4.91632,4.95904 42.774545,43.839816 74.322909 0 0 -5.39911,4.42743 c -3.25503,3.33416 -6.29856,6.84907 -9.1188,10.52682 a 42.774545,43.839816 74.322909 0 0 -3.58102,5.94147 42.774545,43.839816 74.322909 0 0 -4.18958,5.55103 c -2.35705,3.97986 -4.47238,8.09659 -6.33292,12.33407 a 42.774545,43.839816 74.322909 0 0 -2.04478,6.59614 42.774545,43.839816 74.322909 0 0 -2.73339,6.37067 c -1.33101,4.42528 -2.38602,8.91927 -3.1606,13.46183 a 42.774545,43.839816 74.322909 0 0 -0.37626,6.87378 42.774545,43.839816 74.322909 0 0 -1.09954,6.80138 c -0.21128,4.58726 -0.13756,9.15701 0.20907,13.68988 a 42.774545,43.839816 74.322909 0 0 46.90644,38.9451 42.774545,43.839816 74.322909 0 0 40.37558,-46.43363 c -0.0887,-1.15905 -0.10608,-2.31059 -0.0545,-3.43423 a 42.774545,43.839816 74.322909 0 0 -0.0871,-1.26978 42.774545,43.839816 74.322909 0 0 0.45183,-2.11288 c 0.18835,-1.10441 0.44674,-2.20424 0.76985,-3.27849 a 42.774545,43.839816 74.322909 0 0 0.53617,-2.0962 42.774545,43.839816 74.322909 0 0 0.64763,-1.11583 c 0.45478,-1.03575 0.9793,-2.05844 1.56567,-3.04852 a 42.774545,43.839816 74.322909 0 0 1.04056,-1.93475 42.774545,43.839816 74.322909 0 0 0.90388,-0.94089 c 0.70454,-0.91939 1.46577,-1.79729 2.26851,-2.61961 a 42.774545,43.839816 74.322909 0 0 1.47868,-1.64369 42.774545,43.839816 74.322909 0 0 1.103,-0.70571 c 0.89267,-0.72067 1.83319,-1.39167 2.80416,-2.00087 a 42.774545,43.839816 74.322909 0 0 1.80452,-1.23712 42.774545,43.839816 74.322909 0 0 1.22781,-0.42358 c 1.03208,-0.48835 2.10175,-0.91946 3.18876,-1.28356 a 42.774545,43.839816 74.322909 0 0 2.08082,-0.79144 42.774545,43.839816 74.322909 0 0 1.31067,-0.12751 c 1.16057,-0.24308 2.32992,-0.41714 3.48629,-0.52117 a 42.774545,43.839816 74.322909 0 0 2.19266,-0.28726 42.774545,43.839816 74.322909 0 0 1.2853,0.17914 c 1.14031,0.0321 2.28628,0.13297 3.41641,0.30076 a 42.774545,43.839816 74.322909 0 0 2.1729,0.23302 42.774545,43.839816 74.322909 0 0 1.19493,0.47431 c 1.1075,0.30266 2.2018,0.67352 3.26307,1.10546 a 42.774545,43.839816 74.322909 0 0 1.70212,0.48083 42.774545,43.839816 74.322909 0 0 1.4312,1.01846 c 1.00282,0.55577 1.97784,1.1758 2.90597,1.84776 a 42.774545,43.839816 74.322909 0 0 1.53043,0.86429 42.774545,43.839816 74.322909 0 0 1.13212,1.31944 c 0.83731,0.7764 1.62516,1.6027 2.34953,2.46183 a 42.774545,43.839816 74.322909 0 0 1.2559,1.18555 42.774545,43.839816 74.322909 0 0 0.76565,1.53473 c 0.61062,0.93756 1.16559,1.91863 1.65553,2.92497 a 42.774545,43.839816 74.322909 0 0 0.93072,1.45962 42.774545,43.839816 74.322909 0 0 0.36911,1.68984 c 0.37155,1.08521 0.67845,2.2005 0.91553,3.32631 a 42.774545,43.839816 74.322909 0 0 0.54996,1.64463 42.774545,43.839816 74.322909 0 0 -0.0523,1.73422 c 0.0944,1.11342 0.11987,2.23955 0.0756,3.3555 a 42.774545,43.839816 74.322909 0 0 0.12834,1.71177 42.774545,43.839816 74.322909 0 0 -0.4721,1.66366 c -0.18238,1.1107 -0.43524,2.21972 -0.75445,3.30701 a 42.774545,43.839816 74.322909 0 0 -0.29857,1.72111 42.774545,43.839816 74.322909 0 0 -0.87284,1.52881 c -0.44992,1.04557 -0.97053,2.07907 -1.55321,3.08096 a 42.774545,43.839816 74.322909 0 0 -0.70476,1.60187 42.774545,43.839816 74.322909 0 0 -1.21513,1.28481 c -0.69231,0.9175 -1.4413,1.79491 -2.2321,2.61656 a 42.774545,43.839816 74.322909 0 0 -1.0654,1.38661 42.774545,43.839816 74.322909 0 0 -1.47668,0.95772 c -0.87941,0.71927 -1.80946,1.39188 -2.77276,2.0041 a 42.774545,43.839816 74.322909 0 0 -1.37149,1.10047 42.774545,43.839816 74.322909 0 0 -1.67227,0.58918 c -0.8337,0.401 -1.70691,0.77216 -2.61101,1.10637 a 42.774545,43.839816 74.322909 0 0 -0.59669,0.29832 42.774545,43.839816 74.322909 0 0 -0.64092,0.1803 42.774545,43.839816 74.322909 0 0 -3.7267,2.00374 42.774545,43.839816 74.322909 0 0 -4.32589,2.3251 42.774545,43.839816 74.322909 0 0 -3.7724,3.07448 42.774545,43.839816 74.322909 0 0 -3.69957,3.2011 42.774545,43.839816 74.322909 0 0 -2.99805,3.82033 42.774545,43.839816 74.322909 0 0 -2.88179,3.90848 42.774545,43.839816 74.322909 0 0 -2.06335,4.36594 42.774545,43.839816 74.322909 0 0 -1.93168,4.43139 42.774545,43.839816 74.322909 0 0 -1.02405,4.69068 42.774545,43.839816 74.322909 0 0 -0.8814,4.72882 42.774545,43.839816 74.322909 0 0 0.0641,4.78721 42.774545,43.839816 74.322909 0 0 0.21261,4.78573 42.774545,43.839816 74.322909 0 0 1.15298,4.64692 42.774545,43.839816 74.322909 0 0 0.99721,4.01815 42.774545,43.839816 74.322909 0 0 0.29562,0.57749 42.774545,43.839816 74.322909 0 0 0.17663,0.62815 l 3.24722,7.91769 a 42.774545,43.839816 74.322909 0 0 2.08097,3.77347 42.774545,43.839816 74.322909 0 0 1.16574,4.14393 l 3.24707,7.91832 a 42.774545,43.839816 74.322909 0 0 2.08097,3.77354 42.774545,43.839816 74.322909 0 0 1.16566,4.14394 l 3.24722,7.91753 a 42.774545,43.839816 74.322909 0 0 2.08068,3.77221 42.774545,43.839816 74.322909 0 0 1.1658,4.14597 l 3.24693,7.91775 a 42.774545,43.839816 74.322909 0 0 2.08193,3.77509 42.774545,43.839816 74.322909 0 0 1.16529,4.14252 l 0.57023,1.39067 a 42.774545,43.839816 74.322909 0 0 56.87479,23.18358 42.774545,43.839816 74.322909 0 0 24.40568,-55.99383 l -0.5703,-1.39059 a 42.774545,43.839816 74.322909 0 0 -1.58387,-2.87209 42.774545,43.839816 74.322909 0 0 -1.6632,-5.04616 l -3.24693,-7.91776 a 42.774545,43.839816 74.322909 0 0 -1.5824,-2.86976 42.774545,43.839816 74.322909 0 0 -1.66415,-5.04778 l -2.9676,-7.236 a 42.774545,43.839816 74.322909 0 0 0.91656,-1.07261 42.774545,43.839816 74.322909 0 0 4.48262,-3.72937 c 3.23653,-3.36291 6.25824,-6.90655 9.05466,-10.61234 a 42.774545,43.839816 74.322909 0 0 4.23139,-6.90508 42.774545,43.839816 74.322909 0 0 3.45083,-4.64827 c 2.32085,-3.99007 4.40123,-8.1148 6.22728,-12.35849 a 42.774545,43.839816 74.322909 0 0 2.44411,-7.67089 42.774545,43.839816 74.322909 0 0 2.23151,-5.29735 c 1.29814,-4.42238 2.32277,-8.91461 3.0686,-13.45607 a 42.774545,43.839816 74.322909 0 0 0.27799,-5.72494 42.774545,43.839816 74.322909 0 0 1.11399,-7.96608 c 0.18253,-4.5958 0.0793,-9.19126 -0.30859,-13.76539 a 42.774545,43.839816 74.322909 0 0 -1.13028,-5.58887 42.774545,43.839816 74.322909 0 0 -0.86311,-7.95593 c -0.93846,-4.45555 -2.14776,-8.84861 -3.62364,-13.15952 a 42.774545,43.839816 74.322909 0 0 -2.45502,-5.15066 42.774545,43.839816 74.322909 0 0 -2.77114,-7.5114 c -2.00858,-4.12533 -4.272,-8.12308 -6.78047,-11.9749 a 42.774545,43.839816 74.322909 0 0 -3.66419,-4.42637 42.774545,43.839816 74.322909 0 0 -4.54351,-6.62119 c -2.96694,-3.51937 -6.14493,-6.84901 -9.51681,-9.97657 a 42.774545,43.839816 74.322909 0 0 -4.63405,-3.41176 42.774545,43.839816 74.322909 0 0 -6.02904,-5.33642 c -3.73473,-2.70419 -7.6343,-5.18314 -11.68153,-7.42594 a 42.774545,43.839816 74.322909 0 0 -5.33357,-2.21826 42.774545,43.839816 74.322909 0 0 -7.17171,-3.76458 c -4.30223,-1.75094 -8.70973,-3.24351 -13.20348,-4.47176 z"
         inkscape:label="qm1" />
      <g
         id="g3708"
         transform="matrix(0.72952815,-0.03420355,0.04268966,0.71985213,2169.4082,481.13879)"
         style="fill:#00ff00;stroke:#000000;stroke-width:132.29;stroke-miterlimit:4;stroke-dasharray:none">
        <path
           id="path5951"
           style="color:#000000;fill:#00ff00;stroke:#000000;stroke-width:132.29;stroke-linecap:round;stroke-linejoin:round;stroke-miterlimit:4;stroke-dasharray:none;paint-order:stroke fill markers"
           d="m -845.84766,616.0332 c -6.9065,-0.694 -13.8792,-0.29655 -20.66211,1.17774 l -141.49413,30.75195 c -35.6972,7.75856 -58.3461,42.98629 -50.5879,78.68359 7.7586,35.69724 42.9863,58.34613 78.6836,50.58789 l 141.49414,-30.75195 c 35.69723,-7.75856 58.34613,-42.98629 50.58789,-78.68359 -6.08578,-28.00161 -29.50982,-48.90007 -58.02149,-51.76563 z M -993.09131,228.81814 c -20.62149,5.02226 -37.62879,19.57122 -45.74829,39.13568 -14.0095,33.75604 2.0351,72.3203 35.8364,86.13515 l 160.57454,65.62754 c 33.80045,13.81417 72.55709,-2.35091 86.56611,-36.10602 14.0095,-33.75606 -2.03512,-72.32033 -35.83643,-86.13516 l -160.57446,-65.62754 c -12.92458,-5.28235 -27.21316,-6.3429 -40.81787,-3.02965 z m -38.57079,199.38694 c -28.651,0.50887 -53.716,19.40853 -62.0859,46.81445 -10.671,34.93855 9.0025,71.91227 43.9414,82.58203 35.9999,10.99449 79.54321,15.99555 119.60348,20.58789 40.06026,4.59234 73.79296,7.26368 73.79296,7.26367 36.41621,2.8885 68.27906,-24.29085 71.16797,-60.70703 2.8885,-36.41621 -24.29085,-68.27906 -60.70703,-71.16797 0,0 -178.77298,-25.49593 -185.71288,-25.37304 z"
           sodipodi:nodetypes="sccsscssssscsssscccscscc" />
      </g>
    </g>
  </g>
</svg>
