<?xml version="1.0" encoding="UTF-8" standalone="no"?>
<!-- Created with Inkscape (http://www.inkscape.org/) -->

<svg
   version="1.1"
   id="svg824"
   width="1706.6667"
   height="1706.6667"
   viewBox="0 0 1706.6667 1706.6667"
   sodipodi:docname="ying_flump.svg"
   inkscape:version="1.3.2 (091e20e, 2023-11-25, custom)"
   inkscape:export-filename="D:\Pictures\yingmotes\ying_smol.png"
   inkscape:export-xdpi="72"
   inkscape:export-ydpi="72"
   xml:space="preserve"
   xmlns:inkscape="http://www.inkscape.org/namespaces/inkscape"
   xmlns:sodipodi="http://sodipodi.sourceforge.net/DTD/sodipodi-0.dtd"
   xmlns="http://www.w3.org/2000/svg"
   xmlns:svg="http://www.w3.org/2000/svg"><defs
     id="defs828" /><sodipodi:namedview
     id="namedview826"
     pagecolor="#ffffff"
     bordercolor="#666666"
     borderopacity="1.0"
     inkscape:pageshadow="2"
     inkscape:pageopacity="0.0"
     inkscape:pagecheckerboard="0"
     showgrid="false"
     inkscape:zoom="0.32971233"
     inkscape:cx="773.40147"
     inkscape:cy="592.94113"
     inkscape:window-width="1600"
     inkscape:window-height="1201"
     inkscape:window-x="2391"
     inkscape:window-y="-9"
     inkscape:window-maximized="1"
     inkscape:current-layer="layer1"
     inkscape:showpageshadow="2"
     inkscape:deskcolor="#d1d1d1" /><g
     id="layer1"
     inkscape:label="Ying"
     style="display:inline"
     transform="translate(-40.172039,241.03223)"><path
       style="display:inline;opacity:0.162844;fill:#333333;fill-opacity:1;stroke:#333333;stroke-width:69.6579;stroke-linecap:round;stroke-linejoin:round;stroke-dasharray:none;stroke-opacity:1;paint-order:fill markers stroke"
       d="m 1182.8752,596.58751 c 0,0 -201.32217,1.71507 -422.8786,133.06501 -237.65263,140.8926 -315.47611,370.04708 -236.34267,452.24868 171.11006,177.7442 500.39657,113.0391 500.39657,113.0391 0,0 -247.91815,-5.55 -356.10254,-161.1635 C 589.63101,1021.125 752.0634,931.15511 850.91995,872.24717 1239.5985,640.63616 1256.3227,594.32371 1256.3227,594.32371 Z"
       id="path1-4"
       sodipodi:nodetypes="csscsscc" /><path
       style="display:inline;fill:none;fill-opacity:1;stroke:#f19020;stroke-width:69.6579;stroke-linecap:round;stroke-linejoin:round;stroke-dasharray:none;stroke-opacity:1;paint-order:fill markers stroke"
       d="m 904.97895,794.82834 500.67175,9.40743 125.7975,-47.06324"
       id="path3"
       sodipodi:nodetypes="ccc"
       inkscape:transform-center-x="-326.18892"
       inkscape:transform-center-y="13.458289" /><path
       style="display:inline;fill:none;fill-opacity:1;stroke:#f19020;stroke-width:69.1188;stroke-linecap:round;stroke-linejoin:round;stroke-opacity:1;paint-order:fill markers stroke;stop-color:#000000"
       d="M 1355.0448,988.34097 1240.5081,1023.8582 559.7199,1008.934 577.43991,908.9113"
       id="path14378-2"
       sodipodi:nodetypes="cccc"
       inkscape:transform-center-x="-422.476"
       inkscape:transform-center-y="-54.347024" /><path
       style="display:inline;fill:#ffcb4c;fill-opacity:1;stroke:#ffcb4c;stroke-width:69.6579;stroke-linecap:round;stroke-linejoin:round;stroke-dasharray:none;stroke-opacity:1;paint-order:fill markers stroke"
       d="m 1046.44,609.48625 c 0,0 -201.3222,1.71507 -422.87863,133.06501 -237.65263,140.8926 -315.47611,370.04704 -236.34267,452.24864 171.11006,177.7442 761.484,104.3666 761.484,104.3666 0,0 -509.00558,3.1225 -617.18997,-152.491 C 453.19578,1034.0237 615.62817,944.05385 714.48472,885.14591 1103.1633,653.5349 1119.8875,607.22245 1119.8875,607.22245 Z"
       id="path1"
       sodipodi:nodetypes="csscsscc" /><g
       id="g31027"
       inkscape:label="head"
       transform="matrix(-1.0744173,0.07223111,0.01751103,0.91451963,1583.3802,94.166069)"
       style="display:inline;stroke-width:1.08881"
       inkscape:transform-center-x="-77.193848"
       inkscape:transform-center-y="-143.92497"><path
         style="display:none;fill:#123456;fill-opacity:1;stroke:#123456;stroke-width:69.6841;stroke-linecap:round;stroke-linejoin:round;stroke-opacity:1;paint-order:fill markers stroke;stop-color:#000000"
         d="M 320.87858,338.01294 C 281.95267,309.89167 225.6036,305.72726 156.39388,319.24623 209.58653,265.04748 278.4105,228.0432 369.45124,215.47736 360.951,193.10977 318.78532,194.78893 285.55301,190.0871 c 71.84967,-34.61604 149.12201,-28.5621 228.5123,-6.62354 11.48715,33.4857 35.33869,66.9714 -33.11772,100.4571 -56.18757,-3.20348 -111.36025,1.20466 -160.06901,54.09228 z"
         id="path30246"
         sodipodi:nodetypes="ccccccc"
         inkscape:label="top hair"
         transform="translate(-4.5913543e-5)" /><path
         style="fill:none;stroke:#65471b;stroke-width:69.6841;stroke-linecap:round;stroke-linejoin:round;stroke-opacity:1;paint-order:fill markers stroke;stop-color:#000000"
         d="m 152.42696,552.15747 22.02695,99.44594"
         id="path1858"
         sodipodi:nodetypes="cc" /><path
         style="display:inline;fill:#f19020;fill-opacity:1;stroke:#f19020;stroke-width:69.6843;stroke-linecap:round;stroke-miterlimit:4;stroke-dasharray:none;stroke-dashoffset:0;stroke-opacity:1;paint-order:fill markers stroke;stop-color:#000000"
         d="m 437.02325,334.25952 c 0,0 50.99173,-25.79013 110.13642,-33.44016 65.06504,-8.41581 140.71502,6.91998 147.5783,30.49257 6.8633,23.5726 -47.47436,72.45715 -89.87127,89.86264 -42.39691,17.40547 -143.61169,22.25963 -143.61169,22.25963 z"
         id="path1640"
         inkscape:label="left ear"
         sodipodi:nodetypes="cssscc"
         inkscape:transform-center-x="103.82307"
         inkscape:transform-center-y="-42.631903" /><path
         id="path13483"
         style="display:inline;fill:#ffcb4c;fill-opacity:1;stroke:#ffcb4c;stroke-width:69.6844;stroke-linecap:round;stroke-linejoin:round;stroke-miterlimit:4;stroke-dasharray:6.96843, 6.96843;stroke-dashoffset:0;stroke-opacity:1;paint-order:fill markers stroke;stop-color:#000000"
         inkscape:label="right ear"
         d="m 472.58386,121.8546 c -22.52155,13.30874 -44.51246,142.90805 -45.18692,178.52877 -0.6005,31.71465 -12.2598,141.23525 -13.76694,164.49926 0,0 9.56748,-28.03298 14.63001,-28.51262 2.53121,-0.23975 5.53526,-0.45639 8.85229,-0.56703 3.317,-0.11051 6.94662,-0.11504 10.72951,0.0697 3.78287,0.18476 7.71899,0.55882 11.64782,1.20505 1.96441,0.32312 3.92699,0.71409 5.8679,1.18367 1.94097,0.46948 3.85981,1.0174 5.73724,1.65425 1.87724,0.63737 3.7132,1.36213 5.48681,2.18804 1.77405,0.82459 3.48615,1.74918 5.11665,2.78285 1.63047,1.03369 3.17956,2.177 4.62658,3.44029 1.44706,1.26318 2.79222,2.64655 4.0158,4.16014 1.2236,1.51344 2.42855,3.17526 3.61185,4.96084 1.1833,1.78559 2.34482,3.69506 3.48295,5.70379 1.13814,2.00872 2.25246,4.11642 3.34064,6.29948 1.08789,2.18317 2.1504,4.44117 3.18385,6.74957 2.06685,4.61673 4.01922,9.43558 5.83806,14.26046 1.81878,4.82502 3.50421,9.65569 5.03641,14.29781 1.53218,4.64211 2.91139,9.09564 4.1184,13.16378 1.20698,4.06828 2.24127,7.7519 3.08449,10.85515 1.68652,6.20638 2.6071,10.09155 2.6071,10.09155 17.77827,-58.61472 48.55239,-178.09603 32.69387,-260.14542 -21.71219,-112.33541 -70.14982,-165.4993 -84.75453,-156.8689 z"
         sodipodi:nodetypes="sscsssssssssssssssssscss"
         inkscape:transform-center-x="-19.608913"
         inkscape:transform-center-y="-109.85729" /><path
         style="display:none;fill:#123456;fill-opacity:1;stroke:#123456;stroke-width:69.6841;stroke-linecap:round;stroke-linejoin:round;stroke-opacity:1;paint-order:fill markers stroke;stop-color:#000000"
         d="m 574.77403,295.31689 188.37397,-52.90431 27.66466,103.5755 43.70177,49.85183 9.1253,90.70758 58.07459,61.95819 -409.85057,-132.36076 z"
         id="path30938"
         inkscape:label="mane"
         sodipodi:nodetypes="cccccccc" /><path
         id="path1148"
         style="display:inline;fill:#ffcb4c;stroke:#ffcb4c;stroke-width:69.6843;stroke-linecap:round;stroke-linejoin:round;stroke-miterlimit:4;stroke-dasharray:6.96842, 6.96842;stroke-dashoffset:0;stroke-opacity:1;paint-order:fill markers stroke;stop-color:#000000"
         inkscape:label="head"
         d="m 539.60091,477.49373 c 0,0 -0.0366,-3.70164 -0.3225,-9.72156 -0.14297,-3.00997 -0.34782,-6.59936 -0.64231,-10.59548 -0.29449,-3.99611 -0.67797,-8.3992 -1.17738,-13.03557 -0.49937,-4.63637 -1.11503,-9.50595 -1.87265,-14.43669 -0.75765,-4.93072 -1.65763,-9.92227 -2.7269,-14.80147 -0.53463,-2.4396 -1.11171,-4.85146 -1.73425,-7.21333 -0.62254,-2.36186 -1.29066,-4.67376 -2.00776,-6.91466 -0.7171,-2.24089 -1.48272,-4.41036 -2.30109,-6.48705 -0.81838,-2.07668 -1.68937,-4.06057 -2.61562,-5.92981 -0.92629,-1.86924 -2.01207,-3.68971 -3.23414,-5.46011 -1.22206,-1.77039 -2.58056,-3.49095 -4.05125,-5.1601 -1.47072,-1.66915 -3.05386,-3.28725 -4.72604,-4.85276 -1.67217,-1.56551 -3.43325,-3.07859 -5.25972,-4.53806 -1.82651,-1.45947 -3.71811,-2.86498 -5.65179,-4.21602 -1.93364,-1.35103 -3.90906,-2.64708 -5.90271,-3.88728 -3.98734,-2.4804 -8.04781,-4.73698 -11.9922,-6.75965 -3.94438,-2.02268 -7.77272,-3.81144 -11.2969,-5.35722 -3.52418,-1.54577 -6.7439,-2.84827 -9.47059,-3.89797 -5.45345,-2.09939 -8.93488,-3.18773 -8.93488,-3.18773 -36.22004,-5.46941 -78.71636,2.38418 -105.99223,20.53018 -34.33362,22.84136 -46.41019,60.42348 -67.36953,72.50809 -20.95933,12.08456 -76.35178,26.43446 -95.06548,28.7003 -18.71369,2.26585 -62.1291,2.26622 -54.64363,42.29643 7.48548,40.03021 37.63457,63.48218 127.46031,51.39762 89.82572,-12.0846 106.29402,-15.10592 181.89733,-30.21167 7.76309,-1.55108 18.25663,-6.26695 29.43815,-12.63933 l 72.01608,-13.27801 -31.01085,-16.37574 c 1.81651,-1.65589 3.59379,-3.32458 5.30014,-5.00709 l 83.30189,-2.66749 -63.36938,11.21677 c 1.18006,-2.24196 2.19714,-4.45427 2.92486,-6.60463 0.35677,-1.05422 0.6892,-2.26697 1.03302,-3.41291 z"
         sodipodi:nodetypes="csssssssssssssssssscssssssccccccsc" /><path
         style="display:inline;fill:none;stroke:#65471b;stroke-width:81.7195;stroke-linecap:round;stroke-linejoin:round;stroke-dasharray:none;stroke-opacity:1;paint-order:fill markers stroke;stop-color:#000000"
         d="m 377.29153,340.89152 41.77169,89.38952"
         id="path1517" /></g><path
       style="display:inline;fill:none;fill-opacity:1;stroke:#ffcb4c;stroke-width:69.1188;stroke-linecap:round;stroke-linejoin:round;stroke-opacity:1;paint-order:fill markers stroke;stop-color:#000000"
       d="M 999.6788,24.82283 990.53179,138.27731 817.52567,538.39318 771.82669,692.559"
       id="path14378"
       sodipodi:nodetypes="cccc"
       inkscape:transform-center-x="-132.28978"
       inkscape:transform-center-y="-306.57449" /><path
       style="display:none;fill:#234567;fill-opacity:1;stroke:#234567;stroke-width:69.1188;stroke-linecap:round;stroke-linejoin:round;stroke-opacity:1;paint-order:fill markers stroke;stop-color:#000000"
       d="m 994.22315,1306.5031 c -1.46294,-38.9264 8.26515,-77.72 68.76035,-115.9132 81.9562,31.6262 164.3392,27.1801 246.7824,17.6616 -44.0622,63.7056 -99.6434,116.5409 -183.9934,142.227 -44.4679,9.5453 -88.5675,4.6728 -131.54935,-43.9754 z"
       id="path31499"
       sodipodi:nodetypes="ccccc"
       inkscape:label="tail tuft" /><path
       style="display:inline;fill:none;fill-opacity:1;stroke:#ffcb4c;stroke-width:69.6579;stroke-linecap:round;stroke-linejoin:round;stroke-dasharray:none;stroke-opacity:1;paint-order:fill markers stroke"
       d="M 458.56612,879.87788 532.91709,672.81808 590.24014,188.9402 576.38604,46.81871"
       id="path2"
       sodipodi:nodetypes="cccc"
       inkscape:transform-center-x="-103.33165"
       inkscape:transform-center-y="-352.40376" /></g></svg>
