<?xml version="1.0" encoding="UTF-8" standalone="no"?>
<!-- Created with Inkscape (http://www.inkscape.org/) -->

<svg
   version="1.1"
   id="svg824"
   width="1706.6667"
   height="1706.6667"
   viewBox="0 0 1706.6667 1706.6667"
   sodipodi:docname="ying_sit_comfy.svg"
   inkscape:version="1.1 (c68e22c387, 2021-05-23)"
   inkscape:export-filename="D:\Pictures\yingmotes\ying_smol.png"
   inkscape:export-xdpi="72"
   inkscape:export-ydpi="72"
   xmlns:inkscape="http://www.inkscape.org/namespaces/inkscape"
   xmlns:sodipodi="http://sodipodi.sourceforge.net/DTD/sodipodi-0.dtd"
   xmlns="http://www.w3.org/2000/svg"
   xmlns:svg="http://www.w3.org/2000/svg">
  <defs
     id="defs828" />
  <sodipodi:namedview
     id="namedview826"
     pagecolor="#ffffff"
     bordercolor="#666666"
     borderopacity="1.0"
     inkscape:pageshadow="2"
     inkscape:pageopacity="0.0"
     inkscape:pagecheckerboard="0"
     showgrid="false"
     inkscape:zoom="0.35203928"
     inkscape:cx="730.03218"
     inkscape:cy="924.61274"
     inkscape:window-width="1920"
     inkscape:window-height="1001"
     inkscape:window-x="-9"
     inkscape:window-y="-9"
     inkscape:window-maximized="1"
     inkscape:current-layer="layer1" />
  <g
     id="layer1"
     inkscape:label="Ying"
     style="display:inline"
     transform="translate(-40.172039,241.03223)">
    <path
       style="display:inline;fill:none;fill-opacity:1;stroke:#f19020;stroke-width:64;stroke-linecap:round;stroke-linejoin:round;stroke-opacity:1;paint-order:fill markers stroke;stop-color:#000000"
       d="m 182.6112,1134.7708 73.71108,68.0546 401.27479,-80.7915 172.92742,-110.1147 c 45.48353,45.4604 134.15436,86.8906 11.57809,148.0332 l -184.50551,-37.9185"
       id="path10187-1"
       sodipodi:nodetypes="cccccc" />
    <path
       style="display:inline;fill:none;fill-opacity:1;stroke:#f19020;stroke-width:64;stroke-linecap:round;stroke-linejoin:round;stroke-opacity:1;paint-order:fill markers stroke;stop-color:#000000"
       d="M 467.96853,921.5016 533.73661,967.86847 662.92099,797.28823 618.0232,650.74568"
       id="path14378-2"
       sodipodi:nodetypes="cccc"
       inkscape:transform-center-x="126.16903"
       inkscape:transform-center-y="219.29747" />
    <path
       style="display:inline;fill:#ffcb4c;fill-opacity:1;stroke:#ffcb4c;stroke-width:64;stroke-linecap:round;stroke-linejoin:round;stroke-opacity:1;paint-order:fill markers stroke;stop-color:#000000"
       d="m 598.77162,576.24842 c 0,0 -74.4444,116.58457 -65.24603,209.03497 10.52851,183.10719 125.06145,393.57811 308.57699,374.66901 183.51552,-18.9091 192.09852,-41.0455 351.66932,-95.8063 159.5707,-54.7608 344.9924,-162.36728 344.9924,-162.36728 4.0149,16.05946 -558.3372,151.10158 -704.70877,80.4041 C 727.27663,930.60868 655.43347,902.80204 647.34428,757.292 639.89462,623.28588 660.26583,546.81743 660.26583,546.81743"
       id="path2053"
       sodipodi:nodetypes="cczzcssc" />
    <path
       style="display:inline;fill:none;fill-opacity:1;stroke:#ffcb4c;stroke-width:64;stroke-linecap:round;stroke-linejoin:round;stroke-opacity:1;paint-order:fill markers stroke;stop-color:#000000"
       d="m 255.18221,1309.813 86.85615,78.8207 368.5987,-190.4395 130.56663,-158.0553 c 57.28138,29.2273 154.40505,41.309 56.64318,137.2567 l -187.20981,20.7986"
       id="path10187"
       sodipodi:nodetypes="cccccc" />
    <path
       style="display:inline;fill:none;fill-opacity:1;stroke:#ffcb4c;stroke-width:64;stroke-linecap:round;stroke-linejoin:round;stroke-opacity:1;paint-order:fill markers stroke;stop-color:#000000"
       d="m 1107.2704,1296.6271 -76.59,-32.8795 L 705.52986,817.17238 618.0232,650.74568"
       id="path14378"
       sodipodi:nodetypes="cccc"
       inkscape:transform-center-x="148.28432"
       inkscape:transform-center-y="204.22593" />
    <path
       style="display:none;fill:#234567;fill-opacity:1;stroke:#234567;stroke-width:64;stroke-linecap:round;stroke-linejoin:round;stroke-opacity:1;paint-order:fill markers stroke;stop-color:#000000"
       d="m 1365.374,977.40674 c -6.7808,-35.42585 -3.2998,-72.29477 46.734,-115.71107 79.4381,17.49118 154.2241,1.90474 228.356,-18.33311 -31.4256,64.47126 -74.9144,120.60291 -148.5316,155.90599 -39.3683,14.95355 -80.4151,16.65855 -126.5584,-21.86181 z"
       id="path31499"
       sodipodi:nodetypes="ccccc"
       inkscape:label="tail tuft" />
    <path
       style="fill:#ffcb4c;fill-opacity:1;stroke:#ffcb4c;stroke-width:64;stroke-linecap:round;stroke-linejoin:round;stroke-opacity:1;paint-order:fill markers stroke;stop-color:#000000"
       d="m 548.23428,677.48122 -29.82622,193.16026 24.14503,-35.5074"
       id="path964"
       sodipodi:nodetypes="ccc"
       inkscape:label="path964" />
    <path
       style="fill:#ffcb4c;fill-opacity:1;stroke:#ffcb4c;stroke-width:64;stroke-linecap:round;stroke-linejoin:round;stroke-opacity:1;paint-order:fill markers stroke;stop-color:#000000"
       d="m 542.55309,894.78651 32.66681,180.37759 31.24652,-24.145"
       id="path5564"
       sodipodi:nodetypes="ccc" />
    <path
       style="display:inline;fill:#ffcb4c;fill-opacity:1;stroke:#ffcb4c;stroke-width:64;stroke-linecap:round;stroke-linejoin:round;stroke-opacity:1;paint-order:fill markers stroke;stop-color:#000000"
       d="m 657.59707,1122.0339 66.75392,66.0437"
       id="path6398" />
    <path
       style="opacity:1;fill:#8800aa;fill-opacity:1;stroke:#660080;stroke-width:64;stroke-linecap:round;stroke-linejoin:round;stroke-opacity:1;paint-order:fill markers stroke;stop-color:#000000"
       d="m 360.8382,1127.1912 c 0,0 25.3781,-4.6698 45.47451,12.8265 9.51087,8.2803 27.29297,35.3532 45.02073,49.6619 43.34772,38.008 71.48699,14.1282 150.10207,23.3747 54.07867,14.7358 76.67669,55.5003 105.33374,63.3542 45.80094,12.5523 126.25407,18.2901 126.25407,18.2901 49.90791,-33.0265 106.24093,-96.0323 149.71562,-107.7377 35.54066,-8.5969 51.59286,9.3628 91.77486,-10.1408 111.471,-54.106 109.4616,-208.05135 109.4616,-208.05135 0,0 -84.3148,11.90083 -110.5399,14.06741 -82.08382,6.78132 -114.47383,10.50152 -171.57322,-4.64729 C 705.01929,925.96555 676.89886,628.69242 676.89886,628.69242 c 0,0 -20.93786,8.67005 -72.30967,10.04301 -59.36781,1.58666 -78.83763,-11.54946 -78.83763,-11.54946 C 495.64435,806.9236 428.28401,974.12402 360.8382,1127.1912 Z"
       id="path2173"
       sodipodi:nodetypes="csccsccscsscscc" />
    <path
       style="opacity:1;fill:none;fill-opacity:1;stroke:#660080;stroke-width:64;stroke-linecap:round;stroke-linejoin:round;stroke-opacity:1;paint-order:fill markers stroke;stop-color:#000000"
       d="m 525.75156,627.18597 c 45.57025,160.60239 100.16368,313.04096 201.36235,423.31283 -108.70773,79.1009 -236.47746,81.9537 -366.27571,76.6924"
       id="path7357"
       sodipodi:nodetypes="ccc" />
    <g
       id="g31027"
       inkscape:label="head"
       transform="rotate(11.146873,448.44237,1457.9133)"
       style="display:inline">
      <path
         style="display:inline;fill:none;stroke:#65471b;stroke-width:64;stroke-linecap:round;stroke-linejoin:round;stroke-opacity:1;paint-order:fill markers stroke;stop-color:#000000"
         d="m 317.15069,425.60306 c -14.31014,16.89679 -68.64251,-29.54865 -56.93492,17.39257"
         id="path1517-8"
         sodipodi:nodetypes="cc" />
      <path
         style="fill:none;stroke:#65471b;stroke-width:64;stroke-linecap:round;stroke-linejoin:round;stroke-opacity:1;paint-order:fill markers stroke;stop-color:#000000"
         d="m 137.99052,534.29931 21.93043,93.52394"
         id="path1858"
         sodipodi:nodetypes="cc" />
      <path
         style="fill:#f19020;fill-opacity:1;stroke:#f19020;stroke-width:64.0002;stroke-linecap:round;stroke-miterlimit:4;stroke-dasharray:none;stroke-dashoffset:0;stroke-opacity:1;paint-order:fill markers stroke;stop-color:#000000"
         d="m 372.38879,370.87806 c 0,0 -24.31783,-55.49827 -31.09119,-117.64073 -7.45138,-68.36288 8.06808,-145.33185 30.82939,-150.09373 22.76132,-4.761905 69.27809,56.52104 85.61016,102.26058 16.33206,45.73956 19.99342,151.25963 19.99342,151.25963 z"
         id="path1640"
         inkscape:label="left ear"
         sodipodi:nodetypes="cssscc" />
      <path
         style="display:none;fill:#123456;fill-opacity:1;stroke:#123456;stroke-width:64;stroke-linecap:round;stroke-linejoin:round;stroke-opacity:1;paint-order:fill markers stroke;stop-color:#000000"
         d="m 598.12651,319.56637 85.27302,422.75304 -62.7557,-65.54462 -29.92676,63.21549 -54.64047,-93.1347 -30.87653,49.04433 -23.53187,-287.38979 z"
         id="path30938"
         inkscape:label="mane" />
      <path
         id="path1148"
         style="display:inline;fill:#ffcb4c;stroke:#ffcb4c;stroke-width:64.0002;stroke-linecap:round;stroke-linejoin:round;stroke-miterlimit:4;stroke-dasharray:6.40001, 6.40001;stroke-dashoffset:0;stroke-opacity:1;paint-order:fill markers stroke;stop-color:#000000"
         inkscape:label="head"
         d="m 539.60091,477.49373 c 0,0 -0.0366,-3.70164 -0.3225,-9.72156 -0.14297,-3.00997 -0.34782,-6.59936 -0.64231,-10.59548 -0.29449,-3.99611 -0.67797,-8.3992 -1.17738,-13.03557 -0.49937,-4.63637 -1.11503,-9.50595 -1.87265,-14.43669 -0.75765,-4.93072 -1.65763,-9.92227 -2.7269,-14.80147 -0.53463,-2.4396 -1.11171,-4.85146 -1.73425,-7.21333 -0.62254,-2.36186 -1.29066,-4.67376 -2.00776,-6.91466 -0.7171,-2.24089 -1.48272,-4.41036 -2.30109,-6.48705 -0.81838,-2.07668 -1.68937,-4.06057 -2.61562,-5.92981 -0.92629,-1.86924 -2.01207,-3.68971 -3.23414,-5.46011 -1.22206,-1.77039 -2.58056,-3.49095 -4.05125,-5.1601 -1.47072,-1.66915 -3.05386,-3.28725 -4.72604,-4.85276 -1.67217,-1.56551 -3.43325,-3.07859 -5.25972,-4.53806 -1.82651,-1.45947 -3.71811,-2.86498 -5.65179,-4.21602 -1.93364,-1.35103 -3.90906,-2.64708 -5.90271,-3.88728 -3.98734,-2.4804 -8.04781,-4.73698 -11.9922,-6.75965 -3.94438,-2.02268 -7.77272,-3.81144 -11.2969,-5.35722 -3.52418,-1.54577 -6.7439,-2.84827 -9.47059,-3.89797 -5.45345,-2.09939 -8.93488,-3.18773 -8.93488,-3.18773 -36.22004,-5.46941 -78.71636,2.38418 -105.99223,20.53018 -34.33362,22.84136 -46.41019,60.42348 -67.36953,72.50809 -20.95933,12.08456 -76.35178,26.43446 -95.06548,28.7003 -18.71369,2.26585 -62.1291,2.26622 -54.64363,42.29643 7.48548,40.03021 38.17558,96.67678 128.00132,84.59222 89.82572,-12.0846 106.29402,-15.10592 181.89733,-30.21167 7.76309,-1.55108 18.25663,-6.26695 29.43815,-12.63933 l 72.51075,-3.90936 -31.50552,-25.74439 c 1.81651,-1.65589 3.59379,-3.32458 5.30014,-5.00709 l 48.16944,-0.81247 -28.77794,-23.83285 c 1.18006,-2.24196 2.19714,-4.45427 2.92486,-6.60463 0.35677,-1.05422 0.6892,-2.26697 1.03302,-3.41291 z" />
      <path
         style="display:none;fill:#123456;fill-opacity:1;stroke:#123456;stroke-width:64;stroke-linecap:round;stroke-linejoin:round;stroke-opacity:1;paint-order:fill markers stroke;stop-color:#000000"
         d="M 320.87858,338.01294 C 281.95267,309.89167 225.6036,305.72726 156.39388,319.24623 209.58653,265.04748 278.4105,228.0432 369.45124,215.47736 360.951,193.10977 318.78532,194.78893 285.55301,190.0871 c 71.84967,-34.61604 149.12201,-28.5621 228.5123,-6.62354 11.48715,33.4857 35.33869,66.9714 -33.11772,100.4571 -56.18757,-3.20348 -111.36025,1.20466 -160.06901,54.09228 z"
         id="path30246"
         sodipodi:nodetypes="ccccccc"
         inkscape:label="top hair" />
      <path
         id="path13483"
         style="display:inline;fill:#ffcb4c;stroke:#ffcb4c;stroke-width:64.0002;stroke-linecap:round;stroke-linejoin:round;stroke-miterlimit:4;stroke-dasharray:6.40001, 6.40001;stroke-dashoffset:0;stroke-opacity:1;paint-order:fill markers stroke;stop-color:#000000"
         inkscape:label="right ear"
         d="m 634.24383,124.07068 c -26.09194,-6.73733 -103.08077,74.03116 -119.42208,100.21398 -14.54936,23.31167 -73.39572,96.70351 -85.02561,113.01236 0,0 20.97063,-13.90197 25.72601,-10.50581 2.37765,1.69808 5.16948,3.76419 8.19527,6.14197 3.0258,2.37778 6.28534,5.06687 9.59875,8.01147 3.31343,2.94459 6.68077,6.14468 9.92135,9.5432 1.62026,1.69926 3.20892,3.44803 4.74337,5.23959 1.53449,1.79159 3.01462,3.62539 4.41824,5.49516 1.40357,1.86977 2.73043,3.77509 3.9581,5.70895 1.22767,1.93386 2.35599,3.89638 3.36269,5.88022 1.00667,1.98384 1.89186,3.9894 2.63249,6.0091 0.74063,2.01971 1.33679,4.05383 1.76632,6.09529 0.4295,2.04145 0.77683,4.1801 1.05002,6.39544 0.27318,2.21534 0.47208,4.50733 0.60615,6.85634 0.13407,2.34902 0.20297,4.75453 0.21524,7.19703 0.0123,2.44251 -0.032,4.92205 -0.12427,7.41784 -0.18456,4.99158 -0.56112,10.04961 -1.06028,15.01317 -0.4992,4.96356 -1.12056,9.83242 -1.7962,14.4464 -0.67561,4.61399 -1.40515,8.97312 -2.1191,12.91595 -0.71395,3.94284 -1.413,7.46945 -2.02711,10.41957 -1.2282,5.90024 -2.11827,9.49346 -2.11827,9.49346 41.84953,-30.71957 122.25131,-97.39326 144.26517,-170.6197 30.13961,-100.25579 10.15379,-176.01198 -6.76625,-180.38098 z"
         sodipodi:nodetypes="sscsssssssssssssssssscss" />
      <path
         style="fill:none;stroke:#65471b;stroke-width:64;stroke-linecap:round;stroke-linejoin:round;stroke-opacity:1;paint-order:fill markers stroke;stop-color:#000000"
         d="M 496.74491,475.07136 C 455.12931,422.26007 411.71009,425.35717 367.8086,443.40319"
         id="path1517"
         sodipodi:nodetypes="cc" />
    </g>
  </g>
</svg>
