<?xml version="1.0" encoding="UTF-8" standalone="no"?>
<!-- Created with Inkscape (http://www.inkscape.org/) -->

<svg
   version="1.1"
   id="svg824"
   width="1706.6667"
   height="1706.6667"
   viewBox="0 0 1706.6667 1706.6667"
   sodipodi:docname="ying_blush_hearts.svg"
   inkscape:version="1.1 (c68e22c387, 2021-05-23)"
   inkscape:export-filename="D:\Pictures\yingmotes\ying_blush_hearts.png"
   inkscape:export-xdpi="72"
   inkscape:export-ydpi="72"
   xmlns:inkscape="http://www.inkscape.org/namespaces/inkscape"
   xmlns:sodipodi="http://sodipodi.sourceforge.net/DTD/sodipodi-0.dtd"
   xmlns:xlink="http://www.w3.org/1999/xlink"
   xmlns="http://www.w3.org/2000/svg"
   xmlns:svg="http://www.w3.org/2000/svg">
  <defs
     id="defs828">
    <linearGradient
       inkscape:collect="always"
       id="linearGradient1104">
      <stop
         style="stop-color:#ff0101;stop-opacity:1"
         offset="0"
         id="stop1100" />
      <stop
         style="stop-color:#ff0101;stop-opacity:0"
         offset="1"
         id="stop1102" />
    </linearGradient>
    <radialGradient
       inkscape:collect="always"
       xlink:href="#linearGradient1104"
       id="radialGradient1098"
       cx="688.30719"
       cy="1416.8561"
       fx="688.30719"
       fy="1416.8561"
       r="710.71331"
       gradientTransform="matrix(0.79005034,-0.40561825,0.26721652,0.52049511,-187.14408,855.36368)"
       gradientUnits="userSpaceOnUse" />
  </defs>
  <sodipodi:namedview
     id="namedview826"
     pagecolor="#ffffff"
     bordercolor="#666666"
     borderopacity="1.0"
     inkscape:pageshadow="2"
     inkscape:pageopacity="0.0"
     inkscape:pagecheckerboard="0"
     showgrid="false"
     inkscape:zoom="0.32026963"
     inkscape:cx="772.78636"
     inkscape:cy="872.70217"
     inkscape:window-width="1920"
     inkscape:window-height="1001"
     inkscape:window-x="-9"
     inkscape:window-y="-9"
     inkscape:window-maximized="1"
     inkscape:current-layer="g12988" />
  <g
     id="layer1"
     inkscape:label="Ying"
     style="display:inline"
     inkscape:groupmode="layer">
    <path
       style="display:none;fill:#123456;stroke:#123456;stroke-width:64;stroke-linecap:round;stroke-linejoin:round;-inkscape-stroke:none;paint-order:fill markers stroke;stop-color:#000000"
       d="m 1298.031,865.09775 c 70.7982,131.45402 185.3824,239.02475 198.7064,401.82835 -29.438,-19.1346 -55.9321,-14.719 -79.4825,13.2471 91.0222,54.7003 58.5139,175.917 81.6903,267.1496 l -99.3531,6.6236 c 66.7588,58.9185 81.773,128.1858 90.5218,198.7063 l -494.50725,2.2079 c -24.3802,-41.4813 23.11455,-208.5632 66.23555,-227.0436 0,0 3.3791,-20.0154 -75.35325,-9.4549 C 1015.23,1271.0896 1172.1837,1096.1858 1298.031,865.09775 Z"
       id="path3091"
       sodipodi:nodetypes="cccccccccc"
       inkscape:label="mane" />
    <path
       style="opacity:1;fill:#ffcb4c;fill-opacity:1;stroke:#ffcb4c;stroke-width:64;stroke-linecap:round;stroke-linejoin:round;stroke-miterlimit:4;stroke-dasharray:none;stroke-dashoffset:0;stroke-opacity:1;paint-order:fill markers stroke;stop-color:#000000"
       d="m 848.0933,1338.888 -105.3757,267.6092 103.41253,-53.6227 -94.75583,206.489 503.097,-21.9501 c 0,0 -127.6066,-94.2326 -149.2016,-184.5389 -21.5949,-90.3062 51.0427,-253.25 51.0427,-253.25 z"
       id="path3340"
       inkscape:label="neck"
       sodipodi:nodetypes="cccccscc" />
    <g
       id="g12988"
       inkscape:label="head"
       inkscape:transform-center-x="164.24331"
       inkscape:transform-center-y="-477.72888"
       transform="rotate(-10.378422,920.33556,1305.8165)">
      <path
         style="display:inline;fill:none;fill-opacity:1;stroke:#f19020;stroke-width:32;stroke-linecap:round;stroke-linejoin:round;stroke-miterlimit:4;stroke-dasharray:none;stroke-dashoffset:0;stroke-opacity:1;paint-order:fill markers stroke;stop-color:#000000"
         d="m 255.05932,466.90088 c 134.67334,107.6549 269.1929,250.97295 356.66275,385.85349"
         id="path6280-0-6"
         sodipodi:nodetypes="cc"
         inkscape:label="eyelash left small"
         inkscape:transform-center-x="153.41509"
         inkscape:transform-center-y="-157.5739" />
      <path
         style="display:inline;fill:none;fill-opacity:1;stroke:#f19020;stroke-width:32;stroke-linecap:round;stroke-linejoin:round;stroke-miterlimit:4;stroke-dasharray:none;stroke-dashoffset:0;stroke-opacity:1;paint-order:fill markers stroke;stop-color:#000000"
         d="M 280.98441,193.95321 C 488.46046,389.26478 643.56322,609.38126 697.09917,877.60156"
         id="path6280-3"
         sodipodi:nodetypes="cc"
         inkscape:label="eyelash left big"
         inkscape:transform-center-x="194.02173"
         inkscape:transform-center-y="-282.94438" />
      <g
         id="g12997"
         inkscape:label="left eye"
         transform="translate(130.83584,50.213893)">
        <path
           id="path1915-9"
           style="display:inline;fill:#d19020;fill-opacity:1;stroke:#65471b;stroke-width:64;stroke-linecap:round;stroke-linejoin:round;paint-order:fill markers stroke;stop-color:#000000"
           inkscape:label="lefteye"
           d="m 675.04252,1049.4147 c 1e-5,120.7167 -155.86024,218.577 -276.57698,218.577 -120.71674,0 -160.57699,-55.8603 -160.57698,-176.577 0,-120.71669 97.86025,-260.57694 218.57698,-260.57694 120.71673,0 218.57698,97.86025 218.57698,218.57694 z"
           sodipodi:nodetypes="sssss" />
        <path
           style="opacity:1;fill:#ffffff;fill-opacity:1;stroke:#65471b;stroke-width:48;stroke-linecap:round;stroke-linejoin:round;stroke-miterlimit:4;stroke-dasharray:none;stroke-dashoffset:0;stroke-opacity:1;paint-order:fill markers stroke;stop-color:#000000"
           d="m 498.97372,962.62186 v 50.23624"
           id="path2372"
           inkscape:label="left pupil" />
      </g>
      <path
         style="opacity:1;fill:#f19020;fill-opacity:1;stroke:#f19020;stroke-width:64;stroke-linecap:round;stroke-miterlimit:4;stroke-dasharray:none;stroke-dashoffset:0;stroke-opacity:1;paint-order:fill markers stroke;stop-color:#000000"
         d="m 900.79697,723.56252 c 0,0 75.55691,-160.32616 199.76963,-294.34916 136.6464,-147.43864 336.7918,-260.26062 391.3898,-218.75111 54.598,41.5095 9.2434,262.28342 -60.2112,386.16692 -69.4546,123.88354 -295.5536,334.02176 -295.5536,334.02176 z"
         id="path1640"
         inkscape:label="left ear"
         sodipodi:nodetypes="cssscc"
         inkscape:transform-center-x="-90.541263"
         inkscape:transform-center-y="-173.07249" />
      <path
         id="path1148"
         style="display:inline;opacity:1;fill:#ffcb4c;stroke:#ffcb4c;stroke-width:64;stroke-linecap:round;stroke-linejoin:round;stroke-miterlimit:4;stroke-dasharray:6.4, 6.4;stroke-dashoffset:0;stroke-opacity:1;paint-order:fill markers stroke;stop-color:#000000"
         inkscape:label="head"
         d="m 1299.0547,1153.5586 c 0,0 -0.1078,-10.8206 -0.9512,-28.418 -0.4217,-8.7987 -1.0259,-19.2912 -1.8945,-30.9726 -0.8686,-11.6814 -1.9997,-24.5525 -3.4727,-38.1055 -1.4729,-13.553 -3.2888,-27.7877 -5.5234,-42.2012 -2.2347,-14.41345 -4.8892,-29.0047 -8.043,-43.26755 -1.5769,-7.13143 -3.279,-14.18175 -5.1152,-21.08594 -1.8362,-6.90419 -3.8068,-13.66232 -5.9219,-20.21289 -2.1151,-6.55056 -4.3733,-12.89234 -6.7871,-18.96289 -2.4138,-6.07055 -4.9828,-11.86984 -7.7148,-17.33398 -2.7321,-5.46415 -5.9346,-10.78574 -9.5391,-15.96094 -3.6045,-5.1752 -7.6114,-10.20474 -11.9492,-15.08399 -4.3379,-4.87924 -9.0074,-9.60926 -13.9395,-14.18554 -4.9321,-4.57628 -10.1264,-8.99932 -15.5136,-13.26563 -5.3873,-4.2663 -10.9666,-8.37489 -16.67,-12.32422 -5.7033,-3.94932 -11.5298,-7.73794 -17.4101,-11.36328 -11.7607,-7.25067 -23.7371,-13.84709 -35.3711,-19.75976 -11.634,-5.91267 -22.9257,-11.14156 -33.3203,-15.66016 -10.3946,-4.5186 -19.8912,-8.32606 -27.9336,-11.39453 -16.085,-6.13693 -26.3535,-9.31836 -26.3535,-9.31836 -106.83135,-15.98813 -232.17461,6.96944 -312.62504,60.01367 -101.26734,66.76968 -136.88727,176.62945 -198.70703,211.95509 -61.81975,35.3255 -225.20029,77.273 -280.39649,83.8965 -55.19621,6.6235 -183.250354,6.6246 -161.171871,123.6406 22.078481,117.016 112.599211,282.6048 377.541011,247.2793 264.94179,-35.3256 313.51517,-44.1575 536.50782,-88.3145 22.8973,-4.5341 53.8481,-18.3195 86.8281,-36.9472 l 291.9303,26.0406 -170.985,-112.7242 c 5.3578,-4.8405 10.5999,-9.7184 15.6328,-14.6367 l 220.1354,-11.7421 -162.94,-60.3009 c 3.4806,-6.5537 6.4805,-13.0207 8.6269,-19.3066 1.0523,-3.0817 2.0328,-6.6268 3.0469,-9.9766 z"
         sodipodi:nodetypes="csssssssssssssssssscssssssccccccsc" />
      <path
         style="display:none;fill:#123456;stroke:#123456;stroke-width:64;stroke-linecap:round;stroke-linejoin:round;-inkscape-stroke:none;paint-order:fill markers stroke;stop-color:#000000"
         d="M 880.93148,744.0449 C 763.91552,771.643 622.61323,916.25706 622.61323,916.25706 620.95257,833.21142 611.27974,749.4374 735.2135,677.80944 c -124.69479,-7.45678 -249.2876,-15.1175 -408.45194,46.36482 0,0 303.22641,-263.62224 490.14233,-280.39675 172.2122,-15.45493 264.94181,37.53343 264.94181,37.53343 -0.1923,-45.68323 -31.4577,-88.25915 -90.52179,-128.0552 0,0 295.85169,97.14532 333.38509,194.29065 37.5334,97.14533 28.702,167.79647 28.702,167.79647 l -243.7525,34.92308 c 0,0 -111.71105,-33.81914 -228.72702,-6.22104 z"
         id="path1637"
         sodipodi:nodetypes="zcccsccsccz"
         inkscape:label="top hair" />
      <path
         id="path13483"
         style="display:inline;opacity:1;fill:#ffcb4c;stroke:#ffcb4c;stroke-width:64;stroke-linecap:round;stroke-linejoin:round;stroke-miterlimit:4;stroke-dasharray:6.4, 6.4;stroke-dashoffset:0;stroke-opacity:1;paint-order:fill markers stroke;stop-color:#000000"
         inkscape:label="right ear"
         d="m 1675.5175,200.5866 c -75.8608,-23.71955 -313.876,200.3303 -365.6689,274.29393 -46.1136,65.8529 -174.8417,227.68892 -211.3747,273.53504 -172.43919,328.95993 28.3436,378.94273 122.8413,456.32933 127.5232,-83.271 373.6004,-265.61551 448.7176,-476.13712 102.8443,-288.22941 54.6787,-512.63954 5.4847,-528.02118 z"
         sodipodi:nodetypes="ssccss"
         inkscape:transform-center-x="-179.32578"
         inkscape:transform-center-y="-293.41517" />
      <path
         id="path1053"
         style="color:#000000;opacity:0.607219;fill:url(#radialGradient1098);fill-opacity:1;stroke-width:64;stroke-linecap:round;stroke-linejoin:round;stroke-dasharray:6.4, 6.4;-inkscape-stroke:none;paint-order:fill markers stroke"
         inkscape:label="blush"
         d="m 939.58789,709.27539 c -2.29954,0.0926 -4.59361,0.20463 -6.88281,0.33203 a 32,32 0 0 0 -1.8418,0.47461 32,32 0 0 0 -4.99023,-0.0449 c -2.28754,0.15922 -4.57204,0.33492 -6.85157,0.52734 a 32,32 0 0 0 -1.82226,0.52539 32,32 0 0 0 -4.97461,0.0937 c -2.27621,0.22279 -4.54845,0.46187 -6.81836,0.7168 a 32,32 0 0 0 -1.80859,0.57617 32,32 0 0 0 -4.95508,0.22852 c -2.26523,0.28385 -4.528,0.58137 -6.78711,0.89648 a 32,32 0 0 0 -1.79102,0.625 32,32 0 0 0 -4.93359,0.35742 c -2.25367,0.34291 -4.50249,0.69942 -6.74805,1.07227 a 32,32 0 0 0 -1.77343,0.66992 32,32 0 0 0 -4.91993,0.48242 l 0.004,0.002 c -2.24145,0.40034 -4.47643,0.81445 -6.70313,1.24218 a 32,32 0 0 0 -3.20312,1.30274 32,32 0 0 0 -3.46289,0.0195 c -2.21588,0.45422 -4.43554,0.92379 -6.65625,1.4082 a 32,32 0 0 0 -3.16797,1.38086 32,32 0 0 0 -3.44922,0.10547 c -2.21051,0.50981 -4.41763,1.03321 -6.625,1.57227 a 32,32 0 0 0 -3.12305,1.45508 32,32 0 0 0 -3.44531,0.18945 c -2.2004,0.56434 -4.39481,1.14104 -6.58398,1.73242 a 32,32 0 0 0 -3.08985,1.5332 32,32 0 0 0 -3.4375,0.27344 c -2.18549,0.61784 -4.36181,1.24755 -6.52734,1.88867 a 32,32 0 0 0 -3.06055,1.60742 32,32 0 0 0 -3.43554,0.35743 c -2.16165,0.66848 -4.32436,1.35232 -6.48633,2.05078 a 32,32 0 0 0 -3.01172,1.67969 32,32 0 0 0 -3.41797,0.4375 c -2.15197,0.72289 -4.29953,1.46183 -6.44336,2.21289 a 32,32 0 0 0 -2.96875,1.7539 32,32 0 0 0 -3.41211,0.52344 c -2.13601,0.77642 -4.2656,1.56617 -6.38867,2.36914 a 32,32 0 0 0 -2.92773,1.82813 32,32 0 0 0 -3.4043,0.60937 c -2.11637,0.82977 -4.22437,1.67282 -6.32422,2.52734 a 32,32 0 0 0 -2.89258,1.90625 32,32 0 0 0 -3.39453,0.69922 c -2.08992,0.88156 -4.17666,1.77786 -6.26172,2.68946 a 32,32 0 0 0 -2.8457,1.98242 32,32 0 0 0 -3.37695,0.78515 c -2.0737,0.93838 -4.14331,1.88969 -6.20704,2.85743 a 32,32 0 0 0 -2.79687,2.0625 32,32 0 0 0 -3.35547,0.87304 c -2.05405,0.99611 -4.10093,2.00657 -6.14062,3.03125 a 32,32 0 0 0 -2.74414,2.13672 32,32 0 0 0 -3.34376,0.97266 c -2.03088,1.05501 -4.05215,2.12464 -6.06445,3.20703 a 32,32 0 0 0 -2.6914,2.2207 32,32 0 0 0 -3.32813,1.07227 c -1.99649,1.11136 -3.99274,2.2395 -5.98633,3.38867 a 32,32 0 0 0 -2.63086,2.30469 32,32 0 0 0 -3.29492,1.17187 c -1.97424,1.17695 -3.94492,2.37165 -5.91211,3.58789 a 32,32 0 0 0 -2.5625,2.38867 32,32 0 0 0 -3.26367,1.27344 c -1.95535,1.24997 -3.8949,2.51457 -5.81641,3.78906 a 32,32 0 0 0 -2.50195,2.48438 32,32 0 0 0 -3.24219,1.39453 c -1.90391,1.3091 -3.81012,2.64282 -5.71289,4.00195 a 32,32 0 0 0 -2.41797,2.57422 32,32 0 0 0 -3.20117,1.51172 c -1.87519,1.38858 -3.73915,2.79549 -5.59179,4.22266 a 32,32 0 0 0 -2.3418,2.67968 32,32 0 0 0 -3.1543,1.63672 c -1.84226,1.47394 -3.6624,2.96283 -5.46094,4.46289 a 32,32 0 0 0 -2.25586,2.79297 32,32 0 0 0 -3.10546,1.77344 c -1.78962,1.55464 -3.56028,3.12738 -5.3125,4.71875 a 32,32 0 0 0 -2.14844,2.90039 32,32 0 0 0 -3.06055,1.93164 c -1.71163,1.62475 -3.41183,3.27329 -5.09765,4.94531 a 32,32 0 0 0 -1.99805,2.96485 32,32 0 0 0 -2.94531,2.03515 c -1.63678,1.68864 -3.25934,3.39836 -4.86914,5.13086 a 32,32 0 0 0 -1.8711,3.03516 32,32 0 0 0 -2.8457,2.13672 c -1.58261,1.76856 -3.12937,3.53702 -4.64453,5.30078 a 32,32 0 0 0 -1.75586,3.11133 32,32 0 0 0 -2.75781,2.24804 c -1.49191,1.80492 -2.96921,3.62576 -4.42774,5.4629 a 32,32 0 0 0 -1.61719,3.14843 32,32 0 0 0 -2.6582,2.33594 c -1.42458,1.85936 -2.82084,3.71764 -4.19336,5.57813 a 32,32 0 0 0 -1.50391,3.20312 32,32 0 0 0 -2.57031,2.42188 c -1.3413,1.88463 -2.66908,3.78451 -3.98047,5.69531 a 32,32 0 0 0 -1.38086,3.2207 32,32 0 0 0 -2.4707,2.48438 c -1.27718,1.92283 -2.53586,3.85349 -3.77734,5.78906 a 32,32 0 0 0 -1.27344,3.24414 32,32 0 0 0 -2.37891,2.53906 c -1.21153,1.9475 -2.40657,3.90015 -3.58398,5.85547 a 32,32 0 0 0 -1.17383,3.25781 32,32 0 0 0 -2.29492,2.58594 c -1.15051,1.96533 -2.28626,3.93315 -3.4043,5.90039 a 32,32 0 0 0 -1.08203,3.26367 32,32 0 0 0 -2.22461,2.63086 c -1.08204,1.9547 -2.16642,3.93438 -3.24805,5.94336 a 32,32 0 0 0 -0.99218,3.24024 32,32 0 0 0 -2.15235,2.65039 c -1.03333,1.95965 -2.06694,3.94078 -3.09961,5.94531 a 32,32 0 0 0 -0.92968,3.23437 32,32 0 0 0 -2.07422,2.64454 c -1.01058,1.99222 -2.00188,3.9685 -2.97852,5.92968 a 32,32 0 0 0 -0.88086,3.23438 32,32 0 0 0 -2.03125,2.6543 c -0.97194,1.97768 -1.93058,3.94592 -2.88086,5.90624 a 32,32 0 0 0 -0.83789,3.21094 32,32 0 0 0 -2.00195,2.66992 l -1.96094,4.08594 a 32.0032,32.0032 0 0 0 -0.0176,0.041 l -0.80664,1.6875 a 32,32 0 0 0 -0.80859,3.17383 32,32 0 0 0 -1.95899,2.62304 l -2.34179,4.90625 -0.4043,0.84766 a 32,32 0 0 0 -0.80273,3.14453 32,32 0 0 0 -1.94922,2.60359 c -0.89691,1.8725 -1.80223,3.7497 -2.71485,5.6328 a 32,32 0 0 0 -0.80273,3.0781 32,32 0 0 0 -1.92969,2.5254 c -0.91071,1.8543 -1.82115,3.6901 -2.73242,5.5098 a 32,32 0 0 0 -0.82422,3.0078 32,32 0 0 0 -1.93359,2.4394 c -0.92741,1.8099 -1.84564,3.5817 -2.76172,5.3145 a 32,32 0 0 0 -0.87305,2.9277 32,32 0 0 0 -1.94922,2.332 c -0.93569,1.7139 -1.8827,3.4145 -2.83984,5.0957 a 32,32 0 0 0 -0.92773,2.7872 32,32 0 0 0 -1.9629,2.1757 c -0.96493,1.6172 -1.94291,3.2082 -2.92968,4.7715 a 32,32 0 0 0 -1.00977,2.6289 32,32 0 0 0 -1.98047,1.9727 c -1.00824,1.5008 -2.02155,2.9591 -3.04297,4.375 a 32,32 0 0 0 -1.10351,2.414 32,32 0 0 0 -2,1.7227 c -1.05173,1.3457 -2.10016,2.631 -3.14649,3.8535 a 32,32 0 0 0 -1.21289,2.166 32,32 0 0 0 -2.01757,1.4317 c -1.05803,1.1203 -2.13144,2.1965 -3.22266,3.2265 a 32,32 0 0 0 -1.32813,1.8672 32,32 0 0 0 -2.03515,1.1133 c -1.32977,1.1132 -2.7181,2.2329 -4.16406,3.3652 a 32,32 0 0 0 -1.85547,2.1621 32,32 0 0 0 -2.58008,1.2208 c -1.52508,1.1323 -3.06997,2.251 -4.63086,3.3593 a 32,32 0 0 0 -2.05469,2.1739 32,32 0 0 0 -2.74805,1.1757 c -1.61392,1.1053 -3.24944,2.2058 -4.90234,3.3008 a 32,32 0 0 0 -2.16992,2.1524 32,32 0 0 0 -2.85742,1.1289 c -1.67153,1.0778 -3.3572,2.1484 -5.05274,3.2109 a 32,32 0 0 0 -2.26953,2.1406 32,32 0 0 0 -2.93555,1.0879 c -1.69694,1.0433 -3.42718,2.0917 -5.18945,3.1504 a 32,32 0 0 0 -2.32031,2.1055 32,32 0 0 0 -2.96484,1.039 c -1.7476,1.0314 -3.5098,2.0593 -5.2793,3.0821 a 32,32 0 0 0 -2.37695,2.0879 32,32 0 0 0 -2.99805,0.9961 c -1.78989,1.0197 -3.57526,2.0302 -5.35742,3.0273 a 32,32 0 0 0 -2.42188,2.0684 32,32 0 0 0 -3.0293,0.9648 c -1.80468,0.9977 -3.61242,1.9883 -5.42187,2.9727 a 32,32 0 0 0 -2.45508,2.0449 32,32 0 0 0 -3.05664,0.9375 c -1.79302,0.9659 -3.62097,1.9393 -5.47851,2.9258 a 32,32 0 0 0 -2.4629,2.0097 32,32 0 0 0 -3.06835,0.9082 c -1.81931,0.9557 -3.66011,1.9145 -5.51758,2.877 a 32,32 0 0 0 -2.49219,1.9941 32,32 0 0 0 -3.07227,0.8731 c -1.85621,0.9516 -3.70753,1.8944 -5.55273,2.8281 a 32,32 0 0 0 -2.52539,1.9805 32,32 0 0 0 -3.07422,0.8437 c -1.88763,0.9456 -3.751,1.8759 -5.5918,2.7871 a 32,32 0 0 0 -2.55078,1.9649 32,32 0 0 0 -3.11328,0.83 c -1.84443,0.9071 -3.71844,1.8183 -5.61914,2.7422 a 32,32 0 0 0 -2.54687,1.9336 32,32 0 0 0 -3.10743,0.8008 c -1.86642,0.8985 -3.74457,1.7952 -5.63671,2.6953 a 32,32 0 0 0 -2.56836,1.9141 32,32 0 0 0 -3.11133,0.7754 c -1.88833,0.8898 -3.77515,1.7728 -5.66016,2.6504 a 32,32 0 0 0 -2.5918,1.8984 32,32 0 0 0 -3.11132,0.7461 c -1.90321,0.8776 -3.79494,1.747 -5.67969,2.6055 a 32,32 0 0 0 -2.60352,1.873 32,32 0 0 0 -3.12109,0.7227 c -1.90693,0.8603 -3.80496,1.7121 -5.69727,2.5547 a 32,32 0 0 0 -2.61523,1.8496 32,32 0 0 0 -3.12891,0.6972 c -1.89631,0.8361 -3.80078,1.6686 -5.71289,2.5 a 32,32 0 0 0 -2.62109,1.8164 32,32 0 0 0 -3.12305,0.6641 c -1.90223,0.8172 -3.80618,1.628 -5.70898,2.4316 a 32,32 0 0 0 -2.63477,1.7872 32,32 0 0 0 -3.11914,0.6269 c -1.90906,0.795 -3.8133,1.5826 -5.71484,2.3594 a 32,32 0 0 0 -2.63672,1.7441 32,32 0 0 0 -3.10352,0.5801 c -1.91267,0.767 -3.81108,1.5218 -5.69336,2.2578 a 32,32 0 0 0 -2.64257,1.6914 32,32 0 0 0 -3.08399,0.5235 c -1.8913,0.7217 -3.77031,1.4282 -5.63672,2.1152 a 32,32 0 0 0 -2.60937,1.5957 32,32 0 0 0 -3.01172,0.4336 c -1.86787,0.6596 -3.68763,1.287 -5.4668,1.8769 a 32,32 0 0 0 -2.51562,1.4278 32,32 0 0 0 -2.85547,0.2871 c -1.86734,0.5701 -3.77748,1.1374 -5.72852,1.7051 a 32,32 0 0 0 -2.82226,1.4668 32,32 0 0 0 -3.19922,0.2636 c -1.98169,0.5675 -4.03157,1.1481 -6.14844,1.7539 a 32,32 0 0 0 -2.93555,1.5118 32,32 0 0 0 -3.30273,0.2812 c -2.10321,0.6085 -4.22838,1.229 -6.36914,1.8652 a 32,32 0 0 0 -3.00195,1.5821 32,32 0 0 0 -3.38672,0.3437 c -2.16067,0.6624 -4.32237,1.3413 -6.48828,2.0352 a 32,32 0 0 0 -3.03516,1.6836 32,32 0 0 0 -3.44336,0.4375 c -2.19878,0.7359 -4.39497,1.4909 -6.58594,2.2675 a 32,32 0 0 0 -3.04687,1.8145 32,32 0 0 0 -3.50391,0.5762 c -2.20313,0.8256 -4.40954,1.6751 -6.61523,2.5566 a 32,32 0 0 0 -3.04492,1.9824 32,32 0 0 0 -3.57032,0.752 c -2.19982,0.9402 -4.4135,1.9186 -6.63867,2.9414 a 32,32 0 0 0 -3.01172,2.1836 32,32 0 0 0 -3.60351,0.9707 c -2.22107,1.0999 -4.44106,2.2452 -6.65821,3.4394 a 32,32 0 0 0 -2.96093,2.4454 32,32 0 0 0 -3.63672,1.2636 c -2.21234,1.2981 -4.41479,2.6503 -6.60157,4.0606 a 32,32 0 0 0 -2.86914,2.7773 32,32 0 0 0 -3.66015,1.6465 c -2.16425,1.5428 -4.318974,3.1588 -6.453128,4.8555 a 32,32 0 0 0 -2.697265,3.1836 32,32 0 0 0 -3.605469,2.1269 c -2.074738,1.8539 -4.128982,3.8036 -6.148437,5.8614 a 32,32 0 0 0 -2.38086,3.6386 32,32 0 0 0 -3.433593,2.7031 c -1.922182,2.2494 -3.763655,4.5818 -5.517579,6.9942 a 32,32 0 0 0 -1.910156,4.1406 32,32 0 0 0 -3.095703,3.3692 c -1.576715,2.5921 -3.066095,5.2889 -4.447266,8.0917 a 32,32 0 0 0 -1.197265,4.4844 32,32 0 0 0 -2.501953,3.9258 c -1.131878,2.9123 -2.12522,5.8677 -2.980469,8.8594 a 32,32 0 0 0 -0.378906,4.6191 32,32 0 0 0 -1.751953,4.2715 c -0.593844,3.0446 -1.040447,6.0722 -1.359376,9.0684 a 32,32 0 0 0 0.40625,4.4922 32,32 0 0 0 -0.998046,4.3632 c -0.08543,2.9917 -0.0489,5.9316 0.08594,8.8106 a 32,32 0 0 0 1.041016,4.1933 32,32 0 0 0 -0.359375,4.2813 c 0.317967,2.813 0.725235,5.5902 1.210937,8.3281 a 32,32 0 0 0 1.494141,3.8281 32,32 0 0 0 0.128906,4.0918 c 0.617643,2.6588 1.297845,5.2467 2.019531,7.7657 a 32,32 0 0 0 1.820313,3.5351 32,32 0 0 0 0.5,3.9238 c 0.81913,2.4458 1.690445,4.8775 2.613281,7.2911 a 32,32 0 0 0 1.890625,3.0078 32,32 0 0 0 0.66211,3.4883 c 0.86359,2.1413 1.749971,4.2913 2.666015,6.4492 a 32,32 0 0 0 1.982422,2.9121 32,32 0 0 0 0.779297,3.4551 c 0.933712,2.1003 1.895471,4.2172 2.888672,6.3476 a 32,32 0 0 0 2.080078,2.8379 32,32 0 0 0 0.888672,3.3984 c 1.024948,2.1104 2.062925,4.1985 3.111328,6.2598 a 32,32 0 0 0 2.189453,2.7793 32,32 0 0 0 1.019531,3.3965 c 1.083649,2.0412 2.192436,4.0892 3.330078,6.1406 a 32,32 0 0 0 2.283204,2.6953 32,32 0 0 0 1.134765,3.3457 c 1.164239,2.0181 2.353014,4.0347 3.566406,6.0469 a 32,32 0 0 0 2.376953,2.6094 32,32 0 0 0 1.257813,3.3066 c 1.242588,1.9838 2.50844,3.9614 3.796872,5.9297 a 32,32 0 0 0 2.47656,2.5235 32,32 0 0 0 1.38281,3.2636 c 1.31994,1.9419 2.66177,3.8726 4.0254,5.793 a 32,32 0 0 0 2.57812,2.4375 32,32 0 0 0 1.51367,3.2168 c 1.40059,1.8986 2.81522,3.7762 4.24414,5.6328 a 32,32 0 0 0 2.69532,2.3555 32,32 0 0 0 1.64843,3.1758 c 1.46313,1.8251 2.95727,3.65 4.48242,5.4726 a 32,32 0 0 0 2.77735,2.2363 32,32 0 0 0 1.76758,3.0918 c 1.55734,1.791 3.138,3.5662 4.73828,5.3243 a 32,32 0 0 0 2.87305,2.121 32,32 0 0 0 1.91015,3.0352 c 1.6331,1.7244 3.28315,3.427 4.94922,5.1094 a 32,32 0 0 0 2.98242,2.0136 32,32 0 0 0 2.03711,2.9473 c 1.71566,1.6627 3.45149,3.3063 5.20703,4.9277 a 32,32 0 0 0 3.06641,1.877 32,32 0 0 0 2.19336,2.8848 c 1.7579,1.5541 3.56,3.115 5.41406,4.6777 a 32,32 0 0 0 3.14258,1.7324 32,32 0 0 0 2.29687,2.7578 c 1.88673,1.5255 3.77027,3.005 5.64063,4.4434 a 32,32 0 0 0 3.2539,1.6094 32,32 0 0 0 2.42774,2.6543 c 1.96467,1.4433 3.91994,2.838 5.86328,4.1914 a 32,32 0 0 0 3.32813,1.4531 32,32 0 0 0 2.55859,2.5449 c 2.01805,1.3393 4.04627,2.6432 6.07617,3.916 a 32,32 0 0 0 3.38477,1.2891 32,32 0 0 0 2.67968,2.4199 c 2.08037,1.241 4.16791,2.4479 6.25977,3.6231 a 32,32 0 0 0 3.44141,1.123 32,32 0 0 0 2.78515,2.2832 c 2.16798,1.1565 4.3126,2.2574 6.42383,3.3145 a 32,32 0 0 0 3.51172,0.9629 32,32 0 0 0 2.89258,2.1445 c 2.22128,1.0502 4.41964,2.0481 6.58594,3.0039 a 32,32 0 0 0 3.55078,0.791 32,32 0 0 0 3.02539,2.0176 c 2.20126,0.91 4.44182,1.8067 6.72656,2.6816 a 32,32 0 0 0 3.53906,0.6055 32,32 0 0 0 3.08594,1.8555 c 2.29614,0.8249 4.56564,1.6037 6.80469,2.3457 a 32,32 0 0 0 3.61328,0.4472 32,32 0 0 0 3.18164,1.7129 c 2.27926,0.6978 4.59187,1.3767 6.93945,2.0293 a 32,32 0 0 0 3.56055,0.2676 32,32 0 0 0 3.22266,1.5488 c 2.36079,0.6073 4.69638,1.1711 7.00585,1.7032 a 32,32 0 0 0 3.5918,0.1074 32,32 0 0 0 3.29883,1.4043 c 2.36644,0.4944 4.70993,0.9502 7.02539,1.3769 a 32,32 0 0 0 3.59961,-0.049 32,32 0 0 0 3.35937,1.2559 c 2.35621,0.3838 4.70736,0.7374 7.04883,1.0644 a 32,32 0 0 0 3.57617,-0.2051 32,32 0 0 0 3.38477,1.1055 c 2.37036,0.2842 4.73486,0.5394 7.0918,0.7676 a 32,32 0 0 0 3.52929,-0.3535 32,32 0 0 0 3.40625,0.9629 c 2.37426,0.1876 4.74949,0.346 7.12305,0.4785 a 32,32 0 0 0 3.48828,-0.4942 32,32 0 0 0 3.4336,0.8242 c 2.38458,0.094 4.73186,0.1571 7.04101,0.2012 a 32,32 0 0 0 3.50586,-0.6269 32,32 0 0 0 3.45508,0.6933 c 2.35472,0 4.71234,-0.016 7.07617,-0.062 a 32,32 0 0 0 3.42188,-0.7519 32,32 0 0 0 3.49218,0.5644 c 2.29674,-0.082 4.63139,-0.1806 7.00196,-0.3105 a 32,32 0 0 0 3.37695,-0.8672 32,32 0 0 0 3.45312,0.4434 c 2.34897,-0.1615 4.67339,-0.3441 6.97266,-0.545 a 32,32 0 0 0 3.35547,-0.9785 32,32 0 0 0 3.45312,0.3301 c 2.35084,-0.2381 4.66212,-0.4947 6.93165,-0.7656 a 32,32 0 0 0 3.32031,-1.084 32,32 0 0 0 3.45703,0.2226 c 2.30973,-0.3075 4.6058,-0.6358 6.88867,-0.9804 a 32,32 0 0 0 3.26172,-1.1758 32,32 0 0 0 3.48633,0.1152 c 2.2218,-0.3662 4.49937,-0.7543 6.82812,-1.1777 a 32,32 0 0 0 3.17969,-1.2539 32,32 0 0 0 3.43555,0.021 c 2.27824,-0.4386 4.52853,-0.8901 6.75195,-1.3535 a 32,32 0 0 0 4.72852,-1.3809 32,32 0 0 0 1.87304,-0.037 c 2.26001,-0.4963 4.50262,-1.0108 6.73047,-1.5371 a 32,32 0 0 0 4.63477,-1.4883 32,32 0 0 0 1.8789,-0.082 c 2.28656,-0.563 4.48965,-1.1329 6.61328,-1.6856 a 32,32 0 0 0 4.69336,-1.623 32,32 0 0 0 1.86914,-0.1328 c 2.14575,-0.5869 4.348,-1.1968 6.60157,-1.8477 a 32,32 0 0 0 4.48437,-1.6875 32,32 0 0 0 1.87695,-0.1719 c 2.1972,-0.6518 4.38373,-1.3191 6.5586,-1.998 a 32,32 0 0 0 4.48047,-1.7949 32,32 0 0 0 1.88281,-0.2188 l 1.13867,-0.3652 a 32.0032,32.0032 0 0 0 0.082,-0.027 l 4.94922,-1.6074 a 32,32 0 0 0 4.24805,-1.7559 32,32 0 0 0 1.83984,-0.2187 l 0.72852,-0.2363 a 32.0032,32.0032 0 0 0 0.01,0 l 5.35938,-1.7402 a 32,32 0 0 0 4.25195,-1.7617 32,32 0 0 0 1.83399,-0.2168 h 0.0254 a 32.0032,32.0032 0 0 0 0.0117,0 l 6.06054,-1.9726 a 32,32 0 0 0 4.25782,-1.7637 32,32 0 0 0 1.83984,-0.2207 l 6.08398,-1.9824 a 32,32 0 0 0 4.26172,-1.7657 32,32 0 0 0 1.83789,-0.2207 l 6.08399,-1.9844 a 32,32 0 0 0 4.25781,-1.7695 32,32 0 0 0 1.83984,-0.2207 l 6.08399,-1.9863 a 32,32 0 0 0 4.25976,-1.7735 32,32 0 0 0 1.83789,-0.2226 l 4.55469,-1.4902 a 32.0032,32.0032 0 0 0 0.0156,0 l 1.52929,-0.5 a 32,32 0 0 0 4.2461,-1.7696 32,32 0 0 0 1.83398,-0.2226 l 2.26563,-0.7442 a 32.0032,32.0032 0 0 0 0.0156,0 l 3.81836,-1.2559 a 32,32 0 0 0 4.25586,-1.7773 32,32 0 0 0 1.84375,-0.2246 l 6.07812,-2.002 a 32,32 0 0 0 4.26758,-1.7832 32,32 0 0 0 1.83203,-0.2266 l 6.07813,-2.0039 a 32,32 0 0 0 4.26758,-1.791 32,32 0 0 0 1.83203,-0.2265 l 3.00195,-0.9922 a 32.0032,32.0032 0 0 0 0.0234,0 l 3.07422,-1.0215 a 32,32 0 0 0 4.25195,-1.791 32,32 0 0 0 1.84766,-0.2305 l 6.07226,-2.0195 a 32,32 0 0 0 4.25977,-1.7989 32,32 0 0 0 1.83984,-0.2324 l 4.46289,-1.4883 a 32.0032,32.0032 0 0 0 0.0274,-0.018 l 1.60937,-0.5352 a 32,32 0 0 0 4.23242,-1.7988 32,32 0 0 0 1.83594,-0.2325 l 0.54297,-0.1816 a 32.0032,32.0032 0 0 0 0.0293,-0.016 l 5.52539,-1.8535 a 32,32 0 0 0 4.26758,-1.8164 32,32 0 0 0 1.83007,-0.2325 l 4.35352,-1.4687 a 32.0032,32.0032 0 0 0 0.0332,-0.018 l 1.71094,-0.5781 a 32,32 0 0 0 4.24414,-1.8164 32,32 0 0 0 1.85547,-0.2442 l 6.06055,-2.0566 a 32,32 0 0 0 4.26172,-1.8301 32,32 0 0 0 1.83398,-0.2441 l 2.91406,-0.9922 a 32.0032,32.0032 0 0 0 0.0273,-0.018 l 3.14453,-1.0742 a 32,32 0 0 0 4.2539,-1.8379 32,32 0 0 0 1.83399,-0.2461 c 2.02829,-0.696 4.06363,-1.3978 6.10351,-2.1016 a 32,32 0 0 0 4.22657,-1.8398 32,32 0 0 0 1.83593,-0.2539 c 2.0435,-0.7061 4.07559,-1.4107 6.09766,-2.1133 a 32,32 0 0 0 0.85937,-0.3769 l -31.29882,79.4843 a 32.0032,32.0032 0 0 0 44.50586,40.1328 l 20.77539,-10.7734 -55.93164,121.8848 a 32.0032,32.0032 0 0 0 30.47851,45.3144 l 503.09569,-21.9492 a 32.0032,32.0032 0 0 0 17.6153,-57.7109 c 0,0 -30.0521,-22.224 -62.8047,-55.209 -32.7526,-32.9851 -66.216,-77.2937 -74.2832,-111.0293 -7.8975,-33.0259 2.1643,-94.096 16.9746,-143.9336 5.915,-19.9043 12.0084,-37.1073 17.4687,-51.7617 l 2.2813,-0.211 a 32,32 0 0 0 3.1289,-0.9277 32,32 0 0 0 3.2441,0.3399 l 6.3731,-0.5899 a 32,32 0 0 0 3.1289,-0.9277 32,32 0 0 0 3.2441,0.3379 l 6.3731,-0.5899 a 32,32 0 0 0 3.125,-0.9277 32,32 0 0 0 3.248,0.3418 l 6.3731,-0.5899 a 32,32 0 0 0 3.1269,-0.9277 32,32 0 0 0 3.2461,0.3379 l 6.3731,-0.5898 a 32,32 0 0 0 3.1269,-0.9278 32,32 0 0 0 3.2461,0.3399 l 6.3731,-0.5899 a 32,32 0 0 0 3.1269,-0.9277 32,32 0 0 0 3.2442,0.3379 l 6.373,-0.586 a 32,32 0 0 0 3.1289,-0.9297 32,32 0 0 0 3.2441,0.3399 l 6.3731,-0.5899 a 32,32 0 0 0 3.1289,-0.9277 32,32 0 0 0 3.2441,0.3379 l 6.3731,-0.5879 a 32,32 0 0 0 3.1289,-0.9297 32,32 0 0 0 3.2422,0.3399 l 6.373,-0.5899 a 32,32 0 0 0 3.125,-0.9277 32,32 0 0 0 3.2481,0.3398 l 6.373,-0.5879 a 32,32 0 0 0 3.1289,-0.9296 32,32 0 0 0 3.2442,0.3398 l 6.373,-0.5898 a 32,32 0 0 0 3.1289,-0.9278 32,32 0 0 0 3.2442,0.3379 l 6.3711,-0.5879 a 32,32 0 0 0 3.1289,-0.9297 32,32 0 0 0 3.2441,0.3399 l 6.375,-0.5879 a 32,32 0 0 0 3.127,-0.9277 32,32 0 0 0 3.246,0.3378 l 6.3731,-0.5878 a 32,32 0 0 0 3.1269,-0.9297 32,32 0 0 0 3.2461,0.3398 l 6.3711,-0.5898 a 32,32 0 0 0 3.127,-0.9278 32,32 0 0 0 3.2461,0.3399 l 6.373,-0.5899 a 32,32 0 0 0 3.127,-0.9297 32,32 0 0 0 3.2461,0.3399 l 6.373,-0.5879 a 32,32 0 0 0 8.1543,-2.4199 32,32 0 0 0 21.7871,-17.9785 32,32 0 0 0 -16.9394,-41.9649 l -5.8926,-2.5039 a 32,32 0 0 0 -1.8145,-0.3789 32,32 0 0 0 -4.0761,-2.123 l -5.8907,-2.502 a 32,32 0 0 0 -1.8085,-0.3789 32,32 0 0 0 -4.0801,-2.125 l -5.8906,-2.502 a 32,32 0 0 0 -1.8086,-0.3769 32,32 0 0 0 -4.0821,-2.125 l -5.8906,-2.502 a 32,32 0 0 0 -1.8086,-0.3769 32,32 0 0 0 -4.082,-2.127 l -5.8907,-2.5019 a 32,32 0 0 0 -1.8124,-0.377 32,32 0 0 0 -4.0782,-2.125 L 1338,1239.6094 a 32,32 0 0 0 -1.8145,-0.3789 32,32 0 0 0 -4.0742,-2.1231 l -5.8906,-2.5039 a 32,32 0 0 0 -1.8164,-0.3789 32,32 0 0 0 -4.0762,-2.123 l -5.8906,-2.502 a 32,32 0 0 0 -1.8086,-0.3769 32,32 0 0 0 -4.082,-2.127 l -5.8887,-2.5 a 32,32 0 0 0 -1.8086,-0.3789 32,32 0 0 0 -4.082,-2.125 l -5.8906,-2.5039 a 32,32 0 0 0 -1.8125,-0.377 32,32 0 0 0 -4.0782,-2.123 l -1.1738,-0.5 1.1465,-0.2734 a 32,32 0 0 0 4.3789,-1.418 32,32 0 0 0 1.8457,-0.07 l 6.2266,-1.4844 a 32,32 0 0 0 4.3789,-1.418 32,32 0 0 0 1.8457,-0.07 l 6.2246,-1.4863 a 32,32 0 0 0 4.3789,-1.416 32,32 0 0 0 1.8457,-0.07 l 6.2246,-1.4864 a 32,32 0 0 0 4.3789,-1.416 32,32 0 0 0 1.8457,-0.07 l 6.2266,-1.4863 a 32,32 0 0 0 4.3789,-1.418 32,32 0 0 0 1.8457,-0.07 l 6.2246,-1.4844 a 32,32 0 0 0 4.3789,-1.418 32,32 0 0 0 1.8457,-0.07 l 6.2246,-1.4843 a 32,32 0 0 0 4.3789,-1.418 32,32 0 0 0 1.8457,-0.07 l 6.2246,-1.4883 a 32,32 0 0 0 4.3789,-1.4141 32,32 0 0 0 1.8477,-0.07 l 6.2246,-1.4883 a 32,32 0 0 0 4.3711,-1.414 32,32 0 0 0 1.8535,-0.072 l 6.2246,-1.4863 a 32,32 0 0 0 4.3731,-1.4141 32,32 0 0 0 1.8515,-0.072 l 6.2246,-1.4864 a 32,32 0 0 0 4.375,-1.416 32,32 0 0 0 1.8516,-0.07 l 6.2246,-1.4883 a 32,32 0 0 0 4.373,-1.414 32,32 0 0 0 1.8536,-0.07 l 6.2246,-1.4882 a 32,32 0 0 0 23.8535,-24.7539 32,32 0 0 0 0.8398,-2.1661 32,32 0 0 0 -26.0019,-37.039 l -6.3047,-1.1055 a 32,32 0 0 0 -1.8535,0.045 32,32 0 0 0 -4.4492,-1.1484 l -6.3047,-1.1016 a 32,32 0 0 0 -1.8477,0.041 32,32 0 0 0 -4.4551,-1.1464 l -6.3066,-1.1036 a 32,32 0 0 0 -1.8496,0.043 32,32 0 0 0 -4.4531,-1.1465 l -6.3047,-1.1015 a 32,32 0 0 0 -1.8457,0.041 32,32 0 0 0 -4.459,-1.1465 l -6.3027,-1.1035 a 32,32 0 0 0 -1.8477,0.043 32,32 0 0 0 -4.457,-1.1465 l -6.3047,-1.1055 a 32,32 0 0 0 -1.8535,0.045 32,32 0 0 0 -4.4493,-1.1465 l -6.3046,-1.1035 a 32,32 0 0 0 -1.8477,0.043 32,32 0 0 0 -4.457,-1.1484 l -6.3047,-1.1036 a 32,32 0 0 0 -1.8496,0.043 32,32 0 0 0 -4.4532,-1.1445 l -6.3046,-1.1035 a 32,32 0 0 0 -1.8457,0.041 32,32 0 0 0 -4.459,-1.1465 l -6.3028,-1.1035 a 32,32 0 0 0 -1.8457,0.043 32,32 0 0 0 -4.4589,-1.1464 l -6.3047,-1.1036 a 32,32 0 0 0 -1.8536,0.043 32,32 0 0 0 -1.8906,-0.4883 32,32 0 0 0 -0.088,-11.3906 c -0.4488,-2.2898 -0.9097,-4.514 -1.3632,-6.6758 a 32,32 0 0 0 -0.7403,-1.7402 32,32 0 0 0 -0.6387,-4.7246 c -0.4747,-2.1928 -0.9545,-4.3494 -1.4296,-6.4707 a 32,32 0 0 0 -0.7618,-1.7188 32,32 0 0 0 -0.6992,-4.709 c -0.4932,-2.1436 -0.9948,-4.282 -1.5,-6.4179 a 32,32 0 0 0 -0.7773,-1.7031 32,32 0 0 0 -0.7481,-4.6739 c -0.5188,-2.147 -1.0424,-4.2774 -1.5664,-6.3926 a 32,32 0 0 0 -0.7929,-1.6933 32,32 0 0 0 -0.8047,-4.6836 c -0.5379,-2.1221 -1.0836,-4.2467 -1.6368,-6.377 a 32,32 0 0 0 -0.8105,-1.6796 32,32 0 0 0 -0.8574,-4.6719 c -0.5608,-2.1149 -1.1286,-4.2344 -1.7051,-6.3594 a 32,32 0 0 0 -0.834,-1.6738 32,32 0 0 0 -0.8984,-4.6446 c -0.5885,-2.129 -1.1838,-4.2508 -1.7832,-6.36519 a 32,32 0 0 0 -0.8516,-1.66406 32,32 0 0 0 -0.9551,-4.64844 c -0.6103,-2.11088 -1.2286,-4.23126 -1.8593,-6.35742 a 32,32 0 0 0 -0.8711,-1.64844 32,32 0 0 0 -1.0118,-4.64258 c -0.636,-2.10353 -1.2853,-4.21591 -1.9453,-6.34179 a 32,32 0 0 0 -0.8925,-1.64454 32,32 0 0 0 -1.0645,-4.61132 c -0.6762,-2.14173 -1.3554,-4.25167 -2.0293,-6.33008 a 32,32 0 0 0 -0.9219,-1.64844 32,32 0 0 0 -1.1347,-4.61523 c -0.7064,-2.13457 -1.416,-4.24313 -2.125,-6.32618 a 32,32 0 0 0 -0.9395,-1.625 32,32 0 0 0 -1.2207,-4.64648 c -0.7252,-2.0806 -1.4669,-4.18679 -2.2324,-6.31836 a 32,32 0 0 0 -0.957,-1.5918 32,32 0 0 0 -1.2989,-4.63281 c -0.7677,-2.09199 -1.5464,-4.18408 -2.3359,-6.27539 a 32,32 0 0 0 -0.9922,-1.59375 32,32 0 0 0 -1.3965,-4.6543 c -0.805,-2.0754 -1.6262,-4.16345 -2.4629,-6.25781 a 32,32 0 0 0 -1.0254,-1.57617 32,32 0 0 0 -1.4902,-4.64258 c -0.8579,-2.08852 -1.7273,-4.16733 -2.6055,-6.23828 a 32,32 0 0 0 -1.0625,-1.56055 32,32 0 0 0 -1.6132,-4.65039 c -0.9091,-2.07815 -1.8353,-4.15377 -2.7754,-6.22851 a 32,32 0 0 0 -1.0957,-1.53125 32,32 0 0 0 -1.752,-4.65625 c -0.9686,-2.0665 -1.9543,-4.13089 -2.959,-6.19532 a 32,32 0 0 0 -1.1523,-1.51757 32,32 0 0 0 -1.9043,-4.64649 c -1.0416,-2.06122 -2.1063,-4.12268 -3.1934,-6.18359 a 32,32 0 0 0 -1.2168,-1.50196 32,32 0 0 0 -2.0781,-4.61914 c -1.1297,-2.05541 -2.2852,-4.10642 -3.4668,-6.15429 a 32,32 0 0 0 -1.3047,-1.48828 32,32 0 0 0 -2.289,-4.59571 c -1.2423,-2.05309 -2.5058,-4.087 -3.795,-6.10351 a 32,32 0 0 0 -1.4277,-1.48633 32,32 0 0 0 -2.5547,-4.5625 c -1.3687,-2.02152 -2.7797,-4.04069 -4.2344,-6.05274 a 32,32 0 0 0 -1.6172,-1.5039 32,32 0 0 0 -3.0058,-4.6582 c -1.6782,-2.13275 -3.4016,-4.20199 -5.1602,-6.21094 a 32,32 0 0 0 -1.8613,-1.43164 32,32 0 0 0 -3.4844,-4.38672 c -1.8314,-1.90367 -3.6935,-3.75242 -5.584,-5.54492 a 32,32 0 0 0 -1.9003,-1.19727 32,32 0 0 0 -3.7852,-3.98047 c -1.9048,-1.66577 -3.8502,-3.30509 -5.8398,-4.91406 a 32,32 0 0 0 -1.9043,-1.00195 32,32 0 0 0 -3.9668,-3.58594 c -2.0072,-1.51684 -4.021,-2.98235 -6.0371,-4.40235 a 32,32 0 0 0 -1.9161,-0.8496 32,32 0 0 0 -4.1328,-3.28125 c -2.0472,-1.35496 -4.0993,-2.66868 -6.1484,-3.94336 a 32,32 0 0 0 -1.918,-0.72266 32,32 0 0 0 -4.2597,-3.00977 c -2.0694,-1.21509 -4.1452,-2.39898 -6.2266,-3.55468 a 32,32 0 0 0 -1.9082,-0.61328 32,32 0 0 0 -4.3477,-2.76954 c -2.0921,-1.10141 -4.1933,-2.17764 -6.3008,-3.23046 a 32,32 0 0 0 -1.8925,-0.51954 32,32 0 0 0 -4.4121,-2.55468 c -2.1139,-1.00578 -4.234,-1.98918 -6.3594,-2.95118 a 32,32 0 0 0 -1.8809,-0.4375 32,32 0 0 0 -4.4609,-2.36914 c -2.132,-0.92238 -4.2665,-1.82372 -6.4043,-2.70507 a 32,32 0 0 0 -1.8692,-0.36719 32,32 0 0 0 -4.5039,-2.20313 c -2.1435,-0.84681 -4.2904,-1.67463 -6.4375,-2.48437 a 32,32 0 0 0 -1.875,-0.31055 32,32 0 0 0 -4.5293,-2.05859 c -2.1512,-0.77858 -4.3058,-1.5395 -6.4609,-2.28516 a 32,32 0 0 0 -1.8789,-0.25781 32,32 0 0 0 -4.5527,-1.92188 c -2.1593,-0.71766 -4.3196,-1.42022 -6.4805,-2.10742 a 32,32 0 0 0 -1.8809,-0.21093 32,32 0 0 0 -4.5742,-1.80079 c -2.1699,-0.66322 -4.3332,-1.30965 -6.4902,-1.9414 a 32,32 0 0 0 -1.8906,-0.16797 32,32 0 0 0 -4.5723,-1.6836 c -2.1879,-0.61691 -4.3719,-1.22052 -6.5547,-1.80664 a 32,32 0 0 0 -1.873,-0.12304 32,32 0 0 0 -4.6055,-1.58594 c -2.1781,-0.5631 -4.3545,-1.11206 -6.5313,-1.65039 a 32,32 0 0 0 -1.8828,-0.0859 32,32 0 0 0 -4.625,-1.49023 c -2.1949,-0.5213 -4.3817,-1.02828 -6.5586,-1.52149 a 32,32 0 0 0 -1.8808,-0.0488 32,32 0 0 0 -4.6719,-1.40234 c -2.16596,-0.46865 -4.35994,-0.93372 -6.58008,-1.39062 a 32,32 0 0 0 -1.87304,-0.0137 32,32 0 0 0 -4.67188,-1.30664 c -2.19469,-0.43179 -4.39785,-0.85395 -6.61132,-1.26562 a 32,32 0 0 0 -1.88477,0.0234 32,32 0 0 0 -4.70899,-1.21875 c -2.21339,-0.39016 -4.43422,-0.76961 -6.6621,-1.13672 a 32,32 0 0 0 -1.88086,0.0625 32,32 0 0 0 -4.80664,-1.12696 c -2.23825,-0.34209 -4.51067,-0.67557 -6.81836,-0.99218 a 32,32 0 0 0 -4.04102,0.24218 32,32 0 0 0 -7.96875,-0.77734 z"
         transform="rotate(10.378422,920.33556,1305.8165)" />
      <g
         id="g13003"
         inkscape:label="face">
        <path
           style="opacity:1;fill:none;fill-opacity:1;stroke:#65471b;stroke-width:64;stroke-linecap:round;stroke-linejoin:round;stroke-miterlimit:4;stroke-dasharray:none;stroke-dashoffset:0;stroke-opacity:1;paint-order:fill markers stroke;stop-color:#000000"
           d="m 83.898236,1201.0695 68.443294,6.6235 -37.53342,39.7413"
           id="path2163"
           inkscape:label="left nostril" />
        <path
           style="opacity:1;fill:none;fill-opacity:1;stroke:#65471b;stroke-width:64;stroke-linecap:round;stroke-linejoin:round;stroke-miterlimit:4;stroke-dasharray:none;stroke-dashoffset:0;stroke-opacity:1;paint-order:fill markers stroke;stop-color:#000000"
           d="m 401.82839,1251.85 -59.6119,-44.157 121.43166,-17.6628"
           id="path2198"
           inkscape:label="right nostril" />
        <path
           style="opacity:1;fill:#ffffff;fill-opacity:1;stroke:#65471b;stroke-width:64;stroke-linecap:round;stroke-linejoin:round;stroke-miterlimit:4;stroke-dasharray:none;stroke-dashoffset:0;stroke-opacity:1;paint-order:fill markers stroke;stop-color:#000000"
           d="m 222.99268,1530.0389 -90.52178,-183.2514 90.52178,-72.859 103.76887,66.2354 z"
           id="path2202"
           sodipodi:nodetypes="ccccc"
           inkscape:label="toof" />
      </g>
      <path
         style="opacity:1;fill:none;fill-opacity:1;stroke:#ffcb4c;stroke-width:32;stroke-linecap:round;stroke-linejoin:round;stroke-miterlimit:4;stroke-dasharray:none;stroke-dashoffset:0;stroke-opacity:1;paint-order:fill markers stroke;stop-color:#000000"
         d="M 589.06526,72.036885 C 708.6632,330.66645 770.41461,592.76356 719.98502,861.58522"
         id="path6280"
         sodipodi:nodetypes="cc"
         inkscape:label="eyelash right big"
         inkscape:transform-center-x="64.966751"
         inkscape:transform-center-y="-332.6352" />
      <path
         style="display:inline;fill:none;fill-opacity:1;stroke:#ffcb4c;stroke-width:32;stroke-linecap:round;stroke-linejoin:round;stroke-miterlimit:4;stroke-dasharray:none;stroke-dashoffset:0;stroke-opacity:1;paint-order:fill markers stroke;stop-color:#000000"
         d="m 863.55826,301.93376 c 2.88779,172.38951 -21.80221,367.39203 -69.98003,520.76293"
         id="path6280-0"
         sodipodi:nodetypes="cc"
         inkscape:label="eyelash right small"
         inkscape:transform-center-x="-58.471784"
         inkscape:transform-center-y="-204.35832" />
      <g
         id="g12993"
         inkscape:label="right eye"
         transform="rotate(5.2271744,824.03715,995.72549)"
         style="display:inline;fill:#d19020;fill-opacity:1">
        <path
           style="opacity:1;fill:#d19020;fill-opacity:1;stroke:#65471b;stroke-width:64;stroke-linecap:round;stroke-linejoin:round;stroke-miterlimit:4;stroke-dasharray:none;stroke-dashoffset:0;stroke-opacity:1;paint-order:fill markers stroke;stop-color:#000000"
           d="m 661.97569,1226.0485 53.36716,-115.5008 86.53085,168.711 z"
           id="path7852"
           inkscape:label="eyenub"
           sodipodi:nodetypes="cccc" />
        <path
           id="path1915"
           style="opacity:1;fill:#d19020;fill-opacity:1;stroke:#65471b;stroke-width:64;stroke-linecap:round;stroke-linejoin:round;paint-order:fill markers stroke;stop-color:#000000"
           inkscape:label="righteye"
           d="m 1150.289,1075.2222 c 0,120.7167 -151.8603,218.5769 -272.57702,218.5769 -120.71671,0 -164.57695,-71.8602 -164.57699,-192.5769 -2e-5,-120.71675 97.86024,-244.57702 218.57699,-244.57701 120.71672,-2e-5 218.57702,97.86025 218.57702,218.57701 z"
           sodipodi:nodetypes="sssss" />
        <path
           id="path1749"
           style="display:inline;fill:#d19020;fill-opacity:1;stroke:#65471b;stroke-width:64;stroke-linecap:round;stroke-linejoin:round;-inkscape-stroke:none;paint-order:fill markers stroke;stop-color:#000000"
           d="m 925.78349,1058.1404 c -111.90142,23.5165 -174.60086,104.1948 -204.10291,151.6744 39.96804,93.9647 177.10005,86.8811 225.00615,74.9035 60.34347,-15.0872 171.34587,-89.0116 196.72947,-172.4815 -38.4856,-7.457 -105.7313,-77.6129 -217.63271,-54.0964 z"
           inkscape:label="right lid"
           sodipodi:nodetypes="zcscz" />
      </g>
    </g>
    <path
       style="display:inline;fill:none;fill-opacity:1;stroke:#65471b;stroke-width:64;stroke-linecap:round;stroke-linejoin:round;stroke-miterlimit:4;stroke-dasharray:none;stroke-dashoffset:0;stroke-opacity:1;paint-order:fill markers stroke;stop-color:#000000"
       d="m 154.04868,1489.161 74.60838,-89.0854 c 0,0 254.22716,109.8085 328.45719,92.4758 128.42463,-29.9871 104.82294,-116.3656 104.82294,-116.3656"
       id="path2200"
       sodipodi:nodetypes="ccsc"
       inkscape:label="mouf" />
    <path
       style="fill:#ff5555;stroke:#b10020;stroke-width:96;stroke-linecap:round;stroke-linejoin:round;stroke-miterlimit:4;stroke-dasharray:none;stroke-opacity:1;paint-order:fill markers stroke;stop-color:#000000"
       d="m 460.86855,832.98989 c 0,0 -235.56695,-105.81842 -292.47165,-183.90185 -56.90469,-78.08345 -76.114859,-145.05847 4.02227,-191.64248 80.13713,-46.584 144.85366,33.55728 144.85366,33.55728 0,0 -8.21411,-98.75707 66.27392,-120.19833 77.66946,-22.35711 121.44701,26.19803 139.29946,112.76078 17.85252,86.56282 -61.97766,349.4246 -61.97766,349.4246 z"
       id="path1288"
       sodipodi:nodetypes="czscszc" />
    <path
       style="display:inline;fill:#ff5555;stroke:#b10020;stroke-width:96;stroke-linecap:round;stroke-linejoin:round;stroke-miterlimit:4;stroke-dasharray:none;stroke-opacity:1;paint-order:fill markers stroke;stop-color:#000000"
       d="m 1291.3376,1581.2498 c 0,0 -9.8497,-200.1329 23.8615,-266.9946 33.7112,-66.8618 73.0009,-103.7524 133.0988,-64.7844 60.0979,38.9681 27.7106,111.955 27.7106,111.955 0,0 64.9829,-40.495 105.8238,3.4325 42.5852,45.8036 24.5637,93.1815 -28.6617,136.0395 -53.2253,42.858 -261.833,80.352 -261.833,80.352 z"
       id="path1288-2"
       sodipodi:nodetypes="czscszc" />
    <path
       style="display:inline;fill:#ff5555;stroke:#b10020;stroke-width:96;stroke-linecap:round;stroke-linejoin:round;stroke-miterlimit:4;stroke-dasharray:none;stroke-opacity:1;paint-order:fill markers stroke;stop-color:#000000"
       d="m 734.29571,535.36883 c 0,0 -57.79728,-251.69187 -29.88149,-344.18985 27.91582,-92.497975 69.72404,-148.236261 155.23235,-112.454156 85.5083,35.782116 60.66634,135.750766 60.66634,135.750766 0,0 73.78583,-66.15196 135.83739,-19.69982 64.7018,48.4361 52.4076,112.6461 -5.8382,179.12357 -58.24576,66.47751 -316.01639,161.46949 -316.01639,161.46949 z"
       id="path1288-5"
       sodipodi:nodetypes="czscszc" />
  </g>
</svg>
