<?xml version="1.0" encoding="UTF-8" standalone="no"?>
<!-- Created with Inkscape (http://www.inkscape.org/) -->

<svg
   version="1.1"
   id="svg824"
   width="1706.6667"
   height="1706.6667"
   viewBox="0 0 1706.6667 1706.6667"
   sodipodi:docname="ying_ill.svg"
   inkscape:version="1.1 (c68e22c387, 2021-05-23)"
   inkscape:export-filename="D:\Pictures\yingmotes\ying_ill.png"
   inkscape:export-xdpi="72"
   inkscape:export-ydpi="72"
   xmlns:inkscape="http://www.inkscape.org/namespaces/inkscape"
   xmlns:sodipodi="http://sodipodi.sourceforge.net/DTD/sodipodi-0.dtd"
   xmlns:xlink="http://www.w3.org/1999/xlink"
   xmlns="http://www.w3.org/2000/svg"
   xmlns:svg="http://www.w3.org/2000/svg">
  <defs
     id="defs828">
    <linearGradient
       inkscape:collect="always"
       id="linearGradient933">
      <stop
         style="stop-color:#00ff00;stop-opacity:1;"
         offset="0"
         id="stop929" />
      <stop
         style="stop-color:#00ff00;stop-opacity:0;"
         offset="1"
         id="stop931" />
    </linearGradient>
    <linearGradient
       inkscape:collect="always"
       xlink:href="#linearGradient933"
       id="linearGradient935"
       x1="662.35455"
       y1="984.70038"
       x2="657.93884"
       y2="1401.9838"
       gradientUnits="userSpaceOnUse" />
  </defs>
  <sodipodi:namedview
     id="namedview826"
     pagecolor="#ffffff"
     bordercolor="#666666"
     borderopacity="1.0"
     inkscape:pageshadow="2"
     inkscape:pageopacity="0.0"
     inkscape:pagecheckerboard="0"
     showgrid="false"
     inkscape:zoom="0.22646482"
     inkscape:cx="132.47091"
     inkscape:cy="845.60595"
     inkscape:window-width="1920"
     inkscape:window-height="1001"
     inkscape:window-x="-9"
     inkscape:window-y="-9"
     inkscape:window-maximized="1"
     inkscape:current-layer="g12988" />
  <g
     id="layer1"
     inkscape:label="Ying"
     style="display:inline;"
     inkscape:groupmode="layer">
    <path
       style="display:none;fill:#123456;stroke:#123456;stroke-width:64;stroke-linecap:round;stroke-linejoin:round;-inkscape-stroke:none;paint-order:fill markers stroke;stop-color:#000000"
       d="m 1298.031,865.09775 c 70.7982,131.45402 185.3824,239.02475 198.7064,401.82835 -29.438,-19.1346 -55.9321,-14.719 -79.4825,13.2471 91.0222,54.7003 58.5139,175.917 81.6903,267.1496 l -99.3531,6.6236 c 66.7588,58.9185 81.773,128.1858 90.5218,198.7063 l -494.50725,2.2079 c -24.3802,-41.4813 23.11455,-208.5632 66.23555,-227.0436 0,0 3.3791,-20.0154 -75.35325,-9.4549 C 1015.23,1271.0896 1172.1837,1096.1858 1298.031,865.09775 Z"
       id="path3091"
       sodipodi:nodetypes="cccccccccc"
       inkscape:label="mane" />
    <path
       style="opacity:1;fill:#ffcb4c;fill-opacity:1;stroke:#ffcb4c;stroke-width:64;stroke-linecap:round;stroke-linejoin:round;stroke-miterlimit:4;stroke-dasharray:none;stroke-dashoffset:0;stroke-opacity:1;paint-order:fill markers stroke;stop-color:#000000"
       d="m 848.0933,1338.888 -64.7849,239.5079 62.82173,-25.5214 -51.04266,200.2443 459.38383,-15.7054 c 0,0 -127.6066,-94.2326 -149.2016,-184.5389 -21.5949,-90.3062 51.0427,-253.25 51.0427,-253.25 z"
       id="path3340"
       inkscape:label="neck" />
    <g
       id="g12988"
       inkscape:label="head">
      <path
         style="display:inline;fill:none;fill-opacity:1;stroke:#f19020;stroke-width:32;stroke-linecap:round;stroke-linejoin:round;stroke-miterlimit:4;stroke-dasharray:none;stroke-dashoffset:0;stroke-opacity:1;paint-order:fill markers stroke;stop-color:#000000"
         d="m 171.25415,641.8025 c 165.06584,49.79714 343.2623,132.75253 474.64887,225.38786"
         id="path6280-0-6"
         sodipodi:nodetypes="cc"
         inkscape:label="eyelash left small"
         inkscape:transform-center-x="234.03193"
         inkscape:transform-center-y="-112.60027" />
      <path
         style="display:inline;fill:none;fill-opacity:1;stroke:#f19020;stroke-width:32;stroke-linecap:round;stroke-linejoin:round;stroke-miterlimit:4;stroke-dasharray:none;stroke-dashoffset:0;stroke-opacity:1;paint-order:fill markers stroke;stop-color:#000000"
         d="M 46.262074,473.09396 C 322.85447,541.57433 565.96578,657.3544 744.14764,864.86211"
         id="path6280-3"
         sodipodi:nodetypes="cc"
         inkscape:label="eyelash left big" />
      <path
         style="display:inline;fill:none;fill-opacity:1;stroke:#008000;stroke-width:32;stroke-linecap:round;stroke-linejoin:round;stroke-miterlimit:4;stroke-dasharray:none;stroke-dashoffset:0;stroke-opacity:1;paint-order:fill markers stroke;;stop-color:#000000"
         d="m 171.25415,641.8025 c 165.06584,49.79714 343.2623,132.75253 474.64887,225.38786"
         id="path6280-0-6-8"
         sodipodi:nodetypes="cc"
         inkscape:label="sick lash"
         inkscape:transform-center-x="234.03193"
         inkscape:transform-center-y="-112.60027" />
      <path
         style="display:inline;fill:none;fill-opacity:1;stroke:#008000;stroke-width:32;stroke-linecap:round;stroke-linejoin:round;stroke-miterlimit:4;stroke-dasharray:none;stroke-dashoffset:0;stroke-opacity:1;paint-order:fill markers stroke;;stop-color:#000000"
         d="M 46.262073,473.09396 C 322.85447,541.57433 565.96578,657.3544 744.14764,864.86211"
         id="path6280-3-0"
         sodipodi:nodetypes="cc"
         inkscape:label="sick lash" />
      <g
         id="g12997"
         inkscape:label="left eye">
        <path
           id="path1915-9"
           style="display:inline;fill:#fefefe;stroke:#65471b;stroke-width:64;stroke-linecap:round;stroke-linejoin:round;paint-order:fill markers stroke;stop-color:#000000"
           inkscape:label="lefteye"
           d="m 792.61751,1048.7279 c 10e-6,120.7167 -155.86024,218.577 -276.57698,218.577 -120.71674,0 -160.57699,-55.8603 -160.57698,-176.577 0,-120.71673 97.86025,-260.57698 218.57698,-260.57698 120.71673,0 218.57698,97.86025 218.57698,218.57698 z"
           sodipodi:nodetypes="sssss" />
        <path
           style="opacity:1;fill:#ffffff;fill-opacity:1;stroke:#65471b;stroke-width:48;stroke-linecap:round;stroke-linejoin:round;stroke-miterlimit:4;stroke-dasharray:none;stroke-dashoffset:0;stroke-opacity:1;paint-order:fill markers stroke;stop-color:#000000"
           d="M 498.97372,962.62186 V 1132.6262"
           id="path2372"
           inkscape:label="left pupil" />
        <path
           id="path2196"
           style="display:inline;fill:#d19020;stroke:#65471b;stroke-width:64;stroke-linecap:round;stroke-linejoin:round;paint-order:fill markers stroke;stop-color:#000000"
           inkscape:label="left lid"
           d="m 574.04102,830.15039 c -76.87606,0 -144.43444,56.74726 -183.4004,129.12305 60.05391,37.612 203.77788,-26.93651 331.1836,-71.56055 -38.91044,-35.73221 -90.79078,-57.5625 -147.7832,-57.5625 z"
           sodipodi:nodetypes="sccs" />
      </g>
      <path
         style="opacity:1;fill:#f19020;fill-opacity:1;stroke:#f19020;stroke-width:64;stroke-linecap:round;stroke-miterlimit:4;stroke-dasharray:none;stroke-dashoffset:0;stroke-opacity:1;paint-order:fill markers stroke;stop-color:#000000"
         d="m 852.98326,1058.849 c 0,0 154.08354,87.5877 332.80604,125.6562 196.6127,41.879 425.2143,18.8956 445.9571,-46.4781 20.7429,-65.3737 -143.448,-219.7741 -271.5607,-281.0783 -128.1128,-61.3041 -433.96342,-74.24557 -433.96342,-74.24557 z"
         id="path1640"
         inkscape:label="left ear"
         sodipodi:nodetypes="cssscc" />
      <path
         id="path1148"
         style="display:inline;opacity:1;fill:#ffcb4c;stroke:#ffcb4c;stroke-width:64;stroke-linecap:round;stroke-linejoin:round;stroke-miterlimit:4;stroke-dasharray:6.4, 6.4;stroke-dashoffset:0;stroke-opacity:1;paint-order:fill markers stroke;stop-color:#000000"
         inkscape:label="head"
         d="m 1299.0547,1153.5586 c 0,0 -0.1078,-10.8206 -0.9512,-28.418 -0.4217,-8.7987 -1.0259,-19.2912 -1.8945,-30.9726 -0.8686,-11.6814 -1.9997,-24.5525 -3.4727,-38.1055 -1.4729,-13.553 -3.2888,-27.7877 -5.5234,-42.2012 -2.2347,-14.41345 -4.8892,-29.0047 -8.043,-43.26755 -1.5769,-7.13143 -3.279,-14.18175 -5.1152,-21.08594 -1.8362,-6.90419 -3.8068,-13.66232 -5.9219,-20.21289 -2.1151,-6.55056 -4.3733,-12.89234 -6.7871,-18.96289 -2.4138,-6.07055 -4.9828,-11.86984 -7.7148,-17.33398 -2.7321,-5.46415 -5.9346,-10.78574 -9.5391,-15.96094 -3.6045,-5.1752 -7.6114,-10.20474 -11.9492,-15.08399 -4.3379,-4.87924 -9.0074,-9.60926 -13.9395,-14.18554 -4.9321,-4.57628 -10.1264,-8.99932 -15.5136,-13.26563 -5.3873,-4.2663 -10.9666,-8.37489 -16.67,-12.32422 -5.7033,-3.94932 -11.5298,-7.73794 -17.4101,-11.36328 -11.7607,-7.25067 -23.7371,-13.84709 -35.3711,-19.75976 -11.634,-5.91267 -22.9257,-11.14156 -33.3203,-15.66016 -10.3946,-4.5186 -19.8912,-8.32606 -27.9336,-11.39453 -16.085,-6.13693 -26.3535,-9.31836 -26.3535,-9.31836 -106.83135,-15.98813 -232.17461,6.96944 -312.62504,60.01367 -101.26734,66.76968 -136.88727,176.62945 -198.70703,211.95509 -61.81975,35.3255 -225.20029,77.273 -280.39649,83.8965 -55.19621,6.6235 -183.250354,6.6246 -161.171871,123.6406 22.078481,117.016 112.599211,282.6048 377.541011,247.2793 264.94179,-35.3256 313.51517,-44.1575 536.50782,-88.3145 22.8973,-4.5341 53.8481,-18.3195 86.8281,-36.9472 l 213.8711,-11.4278 -92.9258,-75.2558 c 5.3578,-4.8405 10.5999,-9.7184 15.6328,-14.6367 l 142.0762,-2.375 -84.8808,-69.668 c 3.4806,-6.5537 6.4805,-13.0207 8.6269,-19.3066 1.0523,-3.0817 2.0328,-6.6268 3.0469,-9.9766 z" />
      <path
         id="path1376"
         style="color:#000000;font-variation-settings:normal;opacity:1;vector-effect:none;fill:url(#linearGradient935);fill-opacity:1;stroke-width:64;stroke-linecap:round;stroke-linejoin:round;stroke-miterlimit:4;stroke-dasharray:6.4, 6.4;stroke-dashoffset:0;stroke-opacity:1;-inkscape-stroke:none;paint-order:fill markers stroke;stop-color:#000000;stop-opacity:1"
         d="m 901.88281,749.64453 -86.15234,324.83787 21.43945,12.1856 c 0,0 157.11446,89.7635 341.95308,129.1347 101.9445,21.7145 210.6509,26.6002 298.8731,17.5157 44.1111,-4.5423 83.0176,-12.4339 114.5937,-24.7481 31.5762,-12.3142 59.5116,-28.8866 69.6582,-60.8652 9.9646,-31.4045 -1.9794,-60.5362 -18.58,-88.7735 -16.6007,-28.2372 -40.7014,-57.063 -69.2598,-85.60348 -57.1168,-57.08099 -131.7197,-112.37453 -200.4102,-145.24414 -72.2093,-34.55337 -181.31,-51.97516 -275.0918,-63.02734 -93.7817,-11.05218 -171.33198,-14.32422 -171.33198,-14.32422 z"
         inkscape:label="sickness back ear" />
      <path
         id="path873"
         style="color:#000000;fill:url(#linearGradient935);fill-opacity:1;stroke-width:64;stroke-linecap:round;stroke-linejoin:round;stroke-dasharray:6.4, 6.4;-inkscape-stroke:none;paint-order:fill markers stroke"
         d="m 978.5918,717.68164 0.006,0.002 c -2.2769,-0.01 -4.54909,-0.004 -6.81641,0.0156 a 32,32 0 0 0 -3.38672,0.70312 32,32 0 0 0 -3.41015,-0.60351 c -2.26145,0.0476 -4.52914,0.10912 -6.80079,0.18555 a 32,32 0 0 0 -3.36328,0.7871 32,32 0 0 0 -3.41211,-0.51757 c -2.26619,0.10325 -4.53242,0.22093 -6.80078,0.35351 a 32,32 0 0 0 -3.33398,0.86914 32,32 0 0 0 -3.42188,-0.43554 c -2.26607,0.15871 -4.52917,0.3322 -6.78906,0.51953 a 32,32 0 0 0 -3.31641,0.95117 32,32 0 0 0 -3.42968,-0.35156 c -2.26104,0.21402 -4.51612,0.44112 -6.76172,0.68164 a 32,32 0 0 0 -3.29883,1.03125 32,32 0 0 0 -3.44336,-0.26758 c -2.24671,0.26813 -4.49757,0.5501 -6.75,0.84765 a 32,32 0 0 0 -3.26562,1.10938 32,32 0 0 0 -3.44141,-0.18359 c -2.24699,0.32339 -4.49227,0.66306 -6.73633,1.01562 a 32,32 0 0 0 -3.23633,1.18945 32,32 0 0 0 -3.44922,-0.0996 c -2.24094,0.37892 -4.47794,0.77232 -6.71093,1.17968 a 32,32 0 0 0 -3.21094,1.27149 32,32 0 0 0 -3.45703,-0.0137 c -2.23123,0.43493 -4.45634,0.88344 -6.67578,1.3457 a 32,32 0 0 0 -3.18946,1.35351 32,32 0 0 0 -3.46484,0.0762 c -2.21454,0.49064 -4.42936,0.99651 -6.64453,1.51757 a 32,32 0 0 0 -3.15625,1.4375 32,32 0 0 0 -3.46289,0.16407 c -2.20882,0.54945 -4.41484,1.11323 -6.61914,1.69336 a 32,32 0 0 0 -3.12305,1.52343 32,32 0 0 0 -3.45898,0.25586 c -2.19989,0.60978 -4.39502,1.23453 -6.58594,1.875 a 32,32 0 0 0 -3.08399,1.60742 32,32 0 0 0 -3.46289,0.35352 c -2.18772,0.67189 -4.3686,1.36033 -6.54297,2.0625 a 32,32 0 0 0 -3.04882,1.69922 32,32 0 0 0 -3.4668,0.45508 c -2.16404,0.73351 -4.33006,1.48463 -6.49805,2.25586 a 32,32 0 0 0 -3.0039,1.79296 32,32 0 0 0 -3.45118,0.5586 c -2.15397,0.80204 -4.30878,1.62288 -6.46289,2.46484 a 32,32 0 0 0 -2.94922,1.88672 32,32 0 0 0 -3.4414,0.66602 c -2.14854,0.87726 -4.28267,1.77024 -6.40234,2.67773 a 32,32 0 0 0 -2.91016,1.99414 32,32 0 0 0 -3.43945,0.78711 c -2.1086,0.94469 -4.22337,1.91408 -6.33985,2.9082 a 32,32 0 0 0 -2.8418,2.09571 32,32 0 0 0 -3.42187,0.91015 c -2.09466,1.02805 -4.18228,2.07642 -6.26172,3.14649 a 32,32 0 0 0 -2.78515,2.21484 32,32 0 0 0 -3.39844,1.04102 c -2.07765,1.11794 -4.13643,2.25473 -6.17578,3.40625 a 32,32 0 0 0 -2.72071,2.33984 32,32 0 0 0 -3.375,1.18555 c -2.0404,1.20681 -4.06593,2.43392 -6.07617,3.68359 a 32,32 0 0 0 -2.63476,2.4668 32,32 0 0 0 -3.35938,1.34961 c -1.97632,1.28982 -3.94484,2.60434 -5.9043,3.94531 a 32,32 0 0 0 -2.5,2.55664 32,32 0 0 0 -3.26367,1.4707 c -1.9142,1.36615 -3.81926,2.75578 -5.71484,4.16993 a 32,32 0 0 0 -2.38672,2.64843 32,32 0 0 0 -3.18359,1.58985 c -1.87532,1.45452 -3.71533,2.915 -5.52344,4.37695 a 32,32 0 0 0 -2.28711,2.74414 32,32 0 0 0 -3.11914,1.71484 c -1.79265,1.50662 -3.57226,3.03185 -5.33789,4.57618 a 32,32 0 0 0 -2.15821,2.80468 32,32 0 0 0 -3.03515,1.81836 c -1.73623,1.5723 -3.44563,3.14964 -5.13086,4.73243 a 32,32 0 0 0 -2.05664,2.8789 32,32 0 0 0 -2.96485,1.91992 c -1.65887,1.61217 -3.30529,3.24148 -4.93945,4.88477 a 32,32 0 0 0 -1.93945,2.91992 32,32 0 0 0 -2.87695,1.99805 c -1.60268,1.66129 -3.18991,3.33342 -4.75977,5.01367 a 32,32 0 0 0 -1.83594,2.96094 32,32 0 0 0 -2.79883,2.07031 c -1.54255,1.69738 -3.06967,3.40206 -4.58007,5.11328 a 32,32 0 0 0 -1.74024,2.99219 32,32 0 0 0 -2.72461,2.13086 c -1.48574,1.72591 -2.95601,3.45776 -4.41015,5.1914 a 32,32 0 0 0 -1.65235,3.01563 32,32 0 0 0 -2.66211,2.18555 c -1.41647,1.72779 -2.83978,3.48046 -4.26562,5.26172 a 32,32 0 0 0 -1.56055,3.00781 32,32 0 0 0 -2.59375,2.2207 c -1.36946,1.74144 -2.74421,3.50336 -4.12109,5.28906 a 32,32 0 0 0 -1.4961,3.01367 32,32 0 0 0 -2.51758,2.22657 c -1.35294,1.77758 -2.68408,3.54371 -3.99804,5.29687 a 32,32 0 0 0 -1.44922,3.02344 32,32 0 0 0 -2.47461,2.24414 c -1.31232,1.77023 -2.61056,3.53396 -3.89844,5.29102 a 32,32 0 0 0 -1.40234,3.00781 32,32 0 0 0 -2.45117,2.26562 l -2.66407,3.66602 a 32.0032,32.0032 0 0 0 -0.0254,0.0371 l -1.09765,1.51367 a 32,32 0 0 0 -1.36719,2.97656 32,32 0 0 0 -2.39844,2.22657 l -3.1875,4.40429 -0.55078,0.76172 a 32,32 0 0 0 -1.35547,2.94922 32,32 0 0 0 -2.38672,2.20898 c -1.21956,1.6803 -2.44862,3.36291 -3.68554,5.05079 a 32,32 0 0 0 -1.34375,2.88476 32,32 0 0 0 -2.35352,2.13477 c -1.22987,1.65994 -2.45552,3.30203 -3.67969,4.92773 a 32,32 0 0 0 -1.35351,2.81055 32,32 0 0 0 -2.33985,2.05078 c -1.23828,1.61317 -2.46058,3.19112 -3.67382,4.73047 a 32,32 0 0 0 -1.38672,2.72265 32,32 0 0 0 -2.33789,1.94336 c -1.22913,1.51721 -2.46658,3.01864 -3.71094,4.5 a 32,32 0 0 0 -1.41406,2.57422 32,32 0 0 0 -2.32422,1.78711 c -1.24047,1.41683 -2.48799,2.80608 -3.74024,4.16602 a 32,32 0 0 0 -1.46679,2.40234 32,32 0 0 0 -2.30469,1.58399 c -1.26211,1.29461 -2.52148,2.54718 -3.78125,3.75585 a 32,32 0 0 0 -1.51953,2.17579 32,32 0 0 0 -2.27735,1.33398 c -1.27694,1.1342 -2.53962,2.2106 -3.78906,3.22461 a 32,32 0 0 0 -1.58398,1.91016 32,32 0 0 0 -2.24219,1.04492 c -1.24254,0.91138 -2.49302,1.77711 -3.75195,2.59375 a 32,32 0 0 0 -1.64258,1.59765 32,32 0 0 0 -2.20117,0.72852 c -1.50856,0.85544 -3.07684,1.7072 -4.70313,2.5605 a 32,32 0 0 0 -2.21484,1.7911 32,32 0 0 0 -2.75781,0.7363 c -1.70412,0.8391 -3.42514,1.6617 -5.16016,2.4707 a 32,32 0 0 0 -2.41211,1.7676 32,32 0 0 0 -2.91602,0.6621 c -1.78663,0.7964 -3.59289,1.584 -5.41601,2.3633 a 32,32 0 0 0 -2.52149,1.7265 32,32 0 0 0 -3.01562,0.5957 c -1.83836,0.7591 -3.68767,1.5084 -5.54688,2.2481 a 32,32 0 0 0 -2.61914,1.6972 32,32 0 0 0 -3.08398,0.5411 c -1.85713,0.7205 -3.74772,1.4401 -5.67188,2.164 a 32,32 0 0 0 -2.66015,1.6524 32,32 0 0 0 -3.10547,0.4882 c -1.90481,0.6997 -3.82128,1.3928 -5.74609,2.0801 a 32,32 0 0 0 -2.71485,1.625 32,32 0 0 0 -3.1289,0.4414 c -1.94431,0.6806 -3.88183,1.352 -5.81446,2.0117 a 32,32 0 0 0 -2.75586,1.5977 32,32 0 0 0 -3.15234,0.4043 c -1.9549,0.6563 -3.91196,1.305 -5.86914,1.9473 a 32,32 0 0 0 -2.7832,1.5683 32,32 0 0 0 -3.17579,0.3731 c -1.93769,0.6271 -3.91114,1.2549 -5.91601,1.8906 a 32,32 0 0 0 -2.78516,1.5332 32,32 0 0 0 -3.18164,0.3398 c -1.96171,0.6123 -3.94484,1.2239 -5.94531,1.836 a 32,32 0 0 0 -2.81055,1.5117 32,32 0 0 0 -3.17969,0.3066 c -1.99729,0.6017 -3.98749,1.1953 -5.9707,1.7813 a 32,32 0 0 0 -2.8418,1.4922 32,32 0 0 0 -3.17578,0.2773 c -2.0271,0.5901 -4.02711,1.1697 -6.00195,1.7344 a 32,32 0 0 0 -2.86328,1.4727 32,32 0 0 0 -3.21094,0.2558 c -1.97765,0.5599 -3.98543,1.1192 -6.02148,1.6856 a 32,32 0 0 0 -2.85352,1.4414 32,32 0 0 0 -3.20117,0.2285 c -1.99776,0.5476 -4.00791,1.0922 -6.03125,1.6367 a 32,32 0 0 0 -2.87109,1.4199 32,32 0 0 0 -3.19922,0.2012 c -2.01774,0.5351 -4.03266,1.0643 -6.04492,1.5879 a 32,32 0 0 0 -2.89063,1.4004 32,32 0 0 0 -3.19531,0.1738 c -2.03017,0.5204 -4.04807,1.0342 -6.05664,1.5391 a 32,32 0 0 0 -2.89844,1.373 32,32 0 0 0 -3.19922,0.1484 c -2.03071,0.5027 -4.05131,1.0004 -6.06445,1.4883 a 32,32 0 0 0 -2.90625,1.3477 32,32 0 0 0 -3.20313,0.1211 c -2.01591,0.4808 -4.0397,0.9563 -6.07031,1.4297 a 32,32 0 0 0 -2.9043,1.3164 32,32 0 0 0 -3.19336,0.09 c -2.01832,0.4611 -4.03628,0.9156 -6.05273,1.3633 a 32,32 0 0 0 -2.91406,1.2832 32,32 0 0 0 -3.17969,0.055 c -2.02105,0.4381 -4.03651,0.8695 -6.04688,1.291 a 32,32 0 0 0 -2.9082,1.2402 32,32 0 0 0 -3.1582,0.012 c -2.01956,0.4099 -4.02178,0.8104 -6.00586,1.1953 a 32,32 0 0 0 -2.9043,1.1875 32,32 0 0 0 -3.12695,-0.041 c -1.99038,0.3692 -3.96615,0.7249 -5.92578,1.0644 a 32,32 0 0 0 -2.85352,1.0996 32,32 0 0 0 -3.04101,-0.1152 c -1.95613,0.3123 -3.86046,0.6015 -5.7168,0.8613 a 32,32 0 0 0 -2.73047,0.9512 32,32 0 0 0 -2.86133,-0.2324 c -1.93949,0.2244 -3.92002,0.4376 -5.9414,0.6445 a 32,32 0 0 0 -3.04102,0.9355 32,32 0 0 0 -3.19336,-0.3164 c -2.0515,0.2012 -4.17385,0.4026 -6.36523,0.6172 a 32,32 0 0 0 -3.15821,0.9571 32,32 0 0 0 -3.30078,-0.3184 c -2.17841,0.2196 -4.37925,0.4473 -6.59961,0.6875 a 32,32 0 0 0 -3.23828,1.0156 32,32 0 0 0 -3.39258,-0.2715 c -2.24464,0.2623 -4.49453,0.5398 -6.75,0.8321 a 32,32 0 0 0 -3.28906,1.1093 32,32 0 0 0 -3.46484,-0.1894 c -2.29539,0.3278 -4.59169,0.6757 -6.88672,1.0449 a 32,32 0 0 0 -3.32422,1.2344 32,32 0 0 0 -3.55078,-0.064 c -2.31582,0.4152 -4.6384,0.8545 -6.9668,1.3242 a 32,32 0 0 0 -3.35351,1.4004 32,32 0 0 0 -3.64649,0.096 c -2.3332,0.5285 -4.68752,1.0921 -7.06054,1.6973 a 32,32 0 0 0 -3.35547,1.6055 32,32 0 0 0 -3.71875,0.3066 c -2.38288,0.6818 -4.77391,1.4083 -7.16993,2.1836 a 32,32 0 0 0 -3.35156,1.8711 32,32 0 0 0 -3.80664,0.5879 c -2.40999,0.8783 -4.81954,1.8114 -7.22461,2.8047 a 32,32 0 0 0 -3.32226,2.2148 32,32 0 0 0 -3.89649,0.961 c -2.40678,1.1277 -4.81775,2.3287 -7.22265,3.6132 a 32,32 0 0 0 -3.22657,2.6465 32,32 0 0 0 -3.92968,1.4414 c -2.37477,1.4498 -4.7464,2.9979 -7.10352,4.6582 a 32,32 0 0 0 -2.99805,3.1504 32,32 0 0 0 -3.863278,2.041 c -2.295956,1.8663 -4.527674,3.8278 -6.6875,5.8848 a 32,32 0 0 0 -2.625,3.7285 32,32 0 0 0 -3.652343,2.7578 c -2.017892,2.2657 -3.968523,4.65 -5.832031,7.1582 a 32,32 0 0 0 -1.986329,4.1934 32,32 0 0 0 -3.167968,3.4121 c -1.637998,2.6607 -3.147133,5.389 -4.527344,8.1777 a 32,32 0 0 0 -1.205078,4.4747 32,32 0 0 0 -2.492188,3.8867 c -1.132607,2.8878 -2.117236,5.7841 -2.970703,8.6738 a 32,32 0 0 0 -0.410156,4.4922 32,32 0 0 0 -1.767578,4.1133 c -0.622972,2.9273 -1.115935,5.8254 -1.501953,8.6816 a 32,32 0 0 0 0.267578,4.3125 32,32 0 0 0 -1.125,4.1465 c -0.194001,2.8243 -0.293122,5.6296 -0.308594,8.4102 a 32,32 0 0 0 0.779297,4.0332 32,32 0 0 0 -0.609375,4.0488 c 0.128571,2.7265 0.331807,5.3941 0.587891,8.0019 a 32,32 0 0 0 1.152343,3.8047 32,32 0 0 0 -0.214843,3.9512 c 0.36513,2.5533 0.78487,5.1023 1.257812,7.6426 a 32,32 0 0 0 1.318359,3.2988 32,32 0 0 0 0.02148,3.5508 c 0.463699,2.2619 0.948619,4.5366 1.460937,6.8242 a 32,32 0 0 0 1.425781,3.2207 32,32 0 0 0 0.144532,3.5391 c 0.54006,2.2342 1.104108,4.4891 1.697265,6.7636 a 32,32 0 0 0 1.535157,3.1661 32,32 0 0 0 0.261718,3.5039 c 0.627996,2.2605 1.273694,4.5003 1.933594,6.7168 a 32,32 0 0 0 1.652344,3.1289 32,32 0 0 0 0.390625,3.5254 c 0.698204,2.203 1.420452,4.4158 2.169922,6.6386 a 32,32 0 0 0 1.759765,3.0625 32,32 0 0 0 0.513672,3.4961 c 0.781637,2.1948 1.586929,4.392 2.417969,6.5899 a 32,32 0 0 0 1.869141,2.9961 32,32 0 0 0 0.640625,3.4785 c 0.864878,2.1752 1.753245,4.3474 2.666015,6.5156 a 32,32 0 0 0 1.982422,2.9297 32,32 0 0 0 0.771484,3.459 c 0.948511,2.1479 1.920651,4.2892 2.916016,6.4238 a 32,32 0 0 0 2.097656,2.8613 32,32 0 0 0 0.908204,3.4375 c 1.035636,2.1199 2.089072,4.2211 3.160156,6.3047 a 32,32 0 0 0 2.226562,2.8027 32,32 0 0 0 1.050779,3.42 c 1.11039,2.0589 2.25,4.1239 3.42187,6.1914 a 32,32 0 0 0 2.33008,2.6992 32,32 0 0 0 1.18164,3.3613 c 1.20923,2.0422 2.44379,4.0723 3.70117,6.0899 a 32,32 0 0 0 2.44336,2.6035 32,32 0 0 0 1.33203,3.3301 c 1.29573,1.9904 2.61349,3.9629 3.94922,5.9179 a 32,32 0 0 0 2.57031,2.5176 32,32 0 0 0 1.47266,3.2656 c 1.38805,1.9446 2.79966,3.874 4.23438,5.7852 a 32,32 0 0 0 2.67773,2.3984 32,32 0 0 0 1.63867,3.2325 c 1.44916,1.8454 2.9402,3.707 4.48242,5.5781 a 32,32 0 0 0 2.7793,2.2695 32,32 0 0 0 1.76172,3.127 c 1.58105,1.8404 3.16742,3.6349 4.74805,5.3867 a 32,32 0 0 0 2.91015,2.1679 32,32 0 0 0 1.91016,3.0489 c 1.6725,1.7737 3.34593,3.4984 5.01367,5.1797 a 32,32 0 0 0 3.01172,2.0293 32,32 0 0 0 2.05859,2.9629 c 1.74377,1.6809 3.50215,3.3295 5.26954,4.9472 a 32,32 0 0 0 3.09765,1.877 32,32 0 0 0 2.20117,2.8632 c 1.82276,1.5955 3.65798,3.1587 5.50391,4.6915 a 32,32 0 0 0 3.18164,1.7246 32,32 0 0 0 2.33008,2.748 c 1.92417,1.5281 3.83444,2.9979 5.7207,4.418 a 32,32 0 0 0 3.28125,1.5801 32,32 0 0 0 2.45899,2.6308 c 1.99574,1.4332 3.97687,2.8102 5.93554,4.1406 a 32,32 0 0 0 3.35157,1.418 32,32 0 0 0 2.61132,2.5293 c 2.00131,1.2917 4.04503,2.5774 6.13477,3.8496 a 32,32 0 0 0 3.37109,1.2324 32,32 0 0 0 2.70117,2.3809 c 2.10996,1.2251 4.20274,2.4 6.27149,3.5332 a 32,32 0 0 0 3.47266,1.0918 32,32 0 0 0 2.82226,2.2578 c 2.11626,1.097 4.26738,2.1812 6.45898,3.2461 a 32,32 0 0 0 3.45508,0.9043 32,32 0 0 0 2.89063,2.1035 c 2.21278,1.0226 4.40814,1.9981 6.58398,2.9375 a 32,32 0 0 0 3.51367,0.7539 32,32 0 0 0 2.99219,1.9746 c 2.23866,0.9126 4.46141,1.7842 6.66211,2.6211 a 32,32 0 0 0 3.55078,0.5996 32,32 0 0 0 3.07813,1.8399 c 2.24851,0.802 4.49598,1.5748 6.74023,2.3183 a 32,32 0 0 0 3.55469,0.4414 32,32 0 0 0 3.13086,1.6973 c 2.28038,0.7066 4.56061,1.3842 6.83789,2.0332 a 32,32 0 0 0 3.53516,0.2871 32,32 0 0 0 3.17773,1.5606 c 2.30161,0.6123 4.60906,1.196 6.91992,1.7539 a 32,32 0 0 0 3.51953,0.1426 32,32 0 0 0 3.22852,1.4296 c 2.32872,0.5216 4.6272,1.0074 6.89062,1.4668 a 32,32 0 0 0 3.56055,0.014 32,32 0 0 0 3.27344,1.3047 c 2.31552,0.4279 4.63913,0.8327 6.97265,1.2129 a 32,32 0 0 0 3.50196,-0.1231 32,32 0 0 0 3.33203,1.1856 c 2.27393,0.3331 4.58818,0.6558 6.94336,0.9551 a 32,32 0 0 0 3.47851,-0.2442 32,32 0 0 0 3.31641,1.0586 c 2.33961,0.2644 4.65919,0.5022 6.95703,0.7188 a 32,32 0 0 0 3.47656,-0.3574 32,32 0 0 0 3.33789,0.9472 c 2.35527,0.1893 4.67389,0.3518 6.95508,0.4942 a 32,32 0 0 0 3.46094,-0.4668 32,32 0 0 0 3.36133,0.8418 c 2.32734,0.1136 4.64552,0.205 6.95312,0.2773 a 32,32 0 0 0 3.41992,-0.5703 32,32 0 0 0 3.40821,0.7422 c 2.25143,0.04 4.56079,0.069 6.92773,0.072 a 32,32 0 0 0 3.35352,-0.6621 32,32 0 0 0 3.37695,0.6407 c 2.31998,-0.021 4.61424,-0.06 6.88477,-0.1153 a 32,32 0 0 0 4.90039,-0.5058 32,32 0 0 0 1.84765,0.3007 c 2.31243,-0.081 4.61222,-0.1824 6.89844,-0.2988 a 32,32 0 0 0 4.82617,-0.6289 32,32 0 0 0 1.86328,0.2559 c 2.35056,-0.1418 4.62014,-0.3038 6.8086,-0.4649 a 32,32 0 0 0 4.91015,-0.7519 32,32 0 0 0 1.86133,0.207 c 2.21636,-0.1907 4.49221,-0.3946 6.82617,-0.6289 a 32,32 0 0 0 4.71485,-0.8516 32,32 0 0 0 1.8789,0.168 c 2.27867,-0.2453 4.54896,-0.5072 6.81055,-0.7832 a 32,32 0 0 0 4.73047,-0.959 32,32 0 0 0 1.89063,0.125 l 1.18554,-0.1543 a 32.0032,32.0032 0 0 0 0.0859,-0.012 l 5.1582,-0.6895 a 32,32 0 0 0 4.49414,-0.9628 32,32 0 0 0 1.84961,0.1171 l 0.75977,-0.1015 a 32.0032,32.0032 0 0 0 0.01,0 l 5.58399,-0.7461 a 32,32 0 0 0 4.5,-0.9668 32,32 0 0 0 1.84375,0.1172 h 0.0254 a 32.0032,32.0032 0 0 0 0.0117,0 l 6.3164,-0.8477 a 32,32 0 0 0 4.50586,-0.9687 32,32 0 0 0 1.84961,0.1152 l 6.3418,-0.8535 a 32,32 0 0 0 4.50976,-0.9707 32,32 0 0 0 1.84766,0.1152 l 6.3418,-0.8554 a 32,32 0 0 0 4.50781,-0.9747 32,32 0 0 0 1.84961,0.1153 l 6.3418,-0.8594 a 32,32 0 0 0 4.50976,-0.9766 32,32 0 0 0 1.84766,0.1133 l 4.75,-0.6465 a 32.0032,32.0032 0 0 0 0.0156,0 l 1.59375,-0.2168 a 32,32 0 0 0 4.4961,-0.9765 32,32 0 0 0 1.84375,0.1113 l 2.36133,-0.3223 a 32.0032,32.0032 0 0 0 0.0176,0 l 3.98047,-0.5468 a 32,32 0 0 0 4.50781,-0.9825 32,32 0 0 0 1.85352,0.1114 l 6.33984,-0.8731 a 32,32 0 0 0 4.51758,-0.9863 32,32 0 0 0 1.84375,0.1074 l 6.33985,-0.8769 a 32,32 0 0 0 4.51953,-0.9922 32,32 0 0 0 1.84375,0.1074 l 3.13086,-0.4355 a 32.0032,32.0032 0 0 0 0.0254,0 l 3.20703,-0.4493 a 32,32 0 0 0 4.5039,-0.9961 32,32 0 0 0 1.85938,0.1055 l 6.33789,-0.8926 a 32,32 0 0 0 4.51367,-1.0019 32,32 0 0 0 1.85156,0.1035 l 4.65821,-0.6602 a 32.0032,32.0032 0 0 0 0.0293,-0.012 l 1.67969,-0.2383 a 32,32 0 0 0 4.48828,-1.0058 32,32 0 0 0 1.84766,0.1015 l 0.56641,-0.08 a 32.0032,32.0032 0 0 0 0.0312,-0.01 l 5.76953,-0.8281 a 32,32 0 0 0 4.52344,-1.0176 32,32 0 0 0 1.84374,0.1 L 655.75,1488.25 a 32.0032,32.0032 0 0 0 0.0352,-0.012 l 1.78711,-0.2598 a 32,32 0 0 0 4.50195,-1.0234 32,32 0 0 0 1.86914,0.096 l 6.33203,-0.9317 a 32,32 0 0 0 4.52149,-1.0332 32,32 0 0 0 1.84765,0.09 l 3.04492,-0.4512 a 32.0032,32.0032 0 0 0 0.0312,-0.012 l 3.28516,-0.4902 a 32,32 0 0 0 4.51562,-1.0411 32,32 0 0 0 1.84961,0.088 c 2.12049,-0.3192 4.24756,-0.642 6.38086,-0.9668 a 32,32 0 0 0 4.49024,-1.0488 32,32 0 0 0 1.85156,0.082 c 2.13726,-0.3264 4.26336,-0.6536 6.37891,-0.9804 a 32,32 0 0 0 4.50586,-1.0645 32,32 0 0 0 1.85546,0.076 c 2.11384,-0.329 4.24008,-0.6613 6.37891,-0.9981 a 32,32 0 0 0 4.48828,-1.0722 32,32 0 0 0 1.85156,0.072 c 2.13962,-0.3383 4.2661,-0.6776 6.37891,-1.0156 a 32,32 0 0 0 4.50586,-1.0898 32,32 0 0 0 1.85156,0.068 c 2.12253,-0.3422 4.24843,-0.6868 6.38086,-1.0351 a 32,32 0 0 0 4.49805,-1.1016 32,32 0 0 0 1.86328,0.061 l 2.99609,-0.4942 a 32.0032,32.0032 0 0 0 0.0254,0 l 3.32032,-0.5508 a 32,32 0 0 0 4.51757,-1.1171 32,32 0 0 0 1.8418,0.058 c 2.13676,-0.3571 4.26005,-0.7147 6.37305,-1.0722 a 32,32 0 0 0 4.49219,-1.1289 32,32 0 0 0 1.85546,0.051 c 2.12256,-0.3617 4.24621,-0.7268 6.37305,-1.0938 a 32,32 0 0 0 4.48438,-1.1426 32,32 0 0 0 1.86133,0.045 c 2.10377,-0.3657 4.22493,-0.734 6.36132,-1.1093 a 32,32 0 0 0 4.47266,-1.1543 32,32 0 0 0 1.84961,0.041 c 2.13503,-0.3765 4.2551,-0.7545 6.35742,-1.1289 a 32,32 0 0 0 4.48242,-1.168 32,32 0 0 0 1.85547,0.035 c 2.10986,-0.3785 4.23391,-0.76 6.3711,-1.1485 a 32,32 0 0 0 4.45507,-1.1777 32,32 0 0 0 1.87305,0.029 l 6.29492,-1.1523 a 32,32 0 0 0 4.4961,-1.1915 32,32 0 0 0 1.83984,0.024 l 0.81055,-0.1485 a 32.0032,32.0032 0 0 0 0.041,-0.01 l 5.48047,-1.0176 a 32,32 0 0 0 4.48633,-1.2012 32,32 0 0 0 1.84375,0.021 l 2.6543,-0.4941 a 32.0032,32.0032 0 0 0 0.0371,-0.01 l 3.63476,-0.6816 a 32,32 0 0 0 4.4668,-1.209 32,32 0 0 0 1.85547,0.018 l 4.88281,-0.9219 a 32.0032,32.0032 0 0 0 0.0312,-0.01 l 1.40625,-0.2676 a 32,32 0 0 0 4.45508,-1.2148 32,32 0 0 0 1.86328,0.014 l 6.28515,-1.1992 a 32,32 0 0 0 4.46875,-1.2227 32,32 0 0 0 1.84375,0.012 l 2.81055,-0.539 a 32.0032,32.0032 0 0 0 0.0254,-0.01 l 3.47461,-0.668 a 32,32 0 0 0 4.45117,-1.2285 32,32 0 0 0 1.85743,0.01 l 6.2832,-1.2149 a 32,32 0 0 0 4.46094,-1.2324 32,32 0 0 0 1.84179,0.01 l 2.00196,-0.3887 a 32.0032,32.0032 0 0 0 0.0195,0 l 4.28125,-0.834 a 32,32 0 0 0 4.43945,-1.2324 32,32 0 0 0 1.85938,0.012 l 6.28124,-1.2305 a 32,32 0 0 0 4.44922,-1.2363 32,32 0 0 0 1.84571,0.01 l 2.69922,-0.5293 a 32.0032,32.0032 0 0 0 0.0137,0 l 3.58203,-0.7031 a 32,32 0 0 0 4.4375,-1.2403 32,32 0 0 0 1.85351,0 l 6.2793,-1.2363 a 32,32 0 0 0 4.44141,-1.2422 32,32 0 0 0 1.84961,0 l 5.13672,-1.0117 a 32.0032,32.0032 0 0 0 0.0137,0 l 1.14062,-0.2246 a 32,32 0 0 0 4.43164,-1.2422 32,32 0 0 0 1.84766,0 l 6.27734,-1.2402 a 32,32 0 0 0 4.4375,-1.2442 32,32 0 0 0 1.85352,0 l 6.2793,-1.2422 a 32,32 0 0 0 4.42976,-1.2441 32,32 0 0 0 1.8476,0 l 6.2793,-1.2422 a 32,32 0 0 0 5.2813,-1.5645 32,32 0 0 0 2.3457,-0.1015 c 2.571,-0.6274 5.0759,-1.3048 7.5175,-2.0137 a 32,32 0 0 0 5.0235,-1.959 32,32 0 0 0 2.1406,-0.2597 c 2.3583,-0.7735 4.6728,-1.5749 6.9473,-2.3965 a 32,32 0 0 0 4.7207,-2.1699 32,32 0 0 0 1.9824,-0.3477 c 2.2559,-0.876 4.4553,-1.7642 6.6035,-2.6543 a 32,32 0 0 0 4.541,-2.3301 32,32 0 0 0 1.9043,-0.416 c 2.1319,-0.9311 4.2549,-1.8824 6.3692,-2.8516 a 32,32 0 0 0 4.3711,-2.4335 32,32 0 0 0 1.8359,-0.4649 c 2.0784,-0.9884 4.1426,-1.9905 6.1934,-3.0039 a 32,32 0 0 0 4.2363,-2.5254 32,32 0 0 0 1.8203,-0.5117 c 2.0344,-1.0353 4.0467,-2.0776 6.0391,-3.1231 a 32,32 0 0 0 4.1523,-2.6152 32,32 0 0 0 1.8047,-0.5527 c 1.6931,-0.9119 3.3855,-1.841 5.0781,-2.7735 a 32,32 0 0 0 3.6406,-0.4824 32,32 0 0 0 1.8282,0.2637 l 6.3925,-0.3418 a 32,32 0 0 0 4.5625,-0.6055 32,32 0 0 0 1.8282,0.2637 l 6.3906,-0.3418 a 32,32 0 0 0 4.5547,-0.6035 32,32 0 0 0 1.8359,0.2637 l 6.3906,-0.3418 a 32,32 0 0 0 4.5625,-0.6055 32,32 0 0 0 1.8282,0.2637 l 6.3906,-0.3418 a 32,32 0 0 0 4.5625,-0.6055 32,32 0 0 0 1.8281,0.2637 l 6.3926,-0.3418 a 32,32 0 0 0 4.5547,-0.6035 32,32 0 0 0 1.8359,0.2636 l 6.3906,-0.3418 a 32,32 0 0 0 4.5547,-0.6054 32,32 0 0 0 1.836,0.2636 l 6.3906,-0.3418 a 32,32 0 0 0 4.5625,-0.6054 32,32 0 0 0 1.8281,0.2636 l 6.3906,-0.3418 a 32,32 0 0 0 4.5625,-0.6054 32,32 0 0 0 1.8301,0.2636 l 6.3906,-0.3398 a 32,32 0 0 0 4.5547,-0.6055 32,32 0 0 0 1.836,0.2637 l 6.3906,-0.3418 a 32,32 0 0 0 4.5625,-0.6055 32,32 0 0 0 1.8281,0.2637 l 6.3906,-0.3418 a 32,32 0 0 0 4.5625,-0.6055 32,32 0 0 0 1.8282,0.2637 l 6.3906,-0.3398 a 32,32 0 0 0 4.5566,-0.6055 32,32 0 0 0 1.836,0.2637 l 6.3906,-0.3418 a 32,32 0 0 0 4.5625,-0.6055 32,32 0 0 0 1.8281,0.2637 l 6.3906,-0.3418 a 32,32 0 0 0 4.5625,-0.6055 32,32 0 0 0 1.8282,0.2637 l 6.3906,-0.3399 a 32,32 0 0 0 4.5566,-0.6054 32,32 0 0 0 1.834,0.2637 l 6.3926,-0.3418 a 32,32 0 0 0 30.2461,-33.6622 32,32 0 0 0 -0.1191,-0.4668 32,32 0 0 0 -11.7813,-25.1347 l -4.9727,-4.0293 a 32,32 0 0 0 -1.6406,-0.8633 32,32 0 0 0 -3.334,-3.1641 l -4.9726,-4.0273 a 32,32 0 0 0 -1.6367,-0.8613 32,32 0 0 0 -3.3379,-3.166 l -4.9727,-4.0293 a 32,32 0 0 0 -1.6406,-0.8633 32,32 0 0 0 -3.334,-3.1641 l -4.9726,-4.0273 a 32,32 0 0 0 -1.6368,-0.8614 32,32 0 0 0 -2.7343,-2.5957 l 6.1679,-0.1035 a 32,32 0 0 0 4.584,-0.4375 32,32 0 0 0 1.8145,0.3301 l 6.3984,-0.1055 a 32,32 0 0 0 4.5781,-0.4375 32,32 0 0 0 1.8223,0.3301 l 6.3984,-0.1074 a 32,32 0 0 0 4.584,-0.4375 32,32 0 0 0 1.8145,0.3301 l 6.4004,-0.1055 a 32,32 0 0 0 4.5761,-0.4375 32,32 0 0 0 1.8223,0.3301 l 6.3984,-0.1074 a 32,32 0 0 0 4.586,-0.4375 32,32 0 0 0 1.8144,0.33 l 6.3985,-0.1054 a 32,32 0 0 0 4.5761,-0.4375 32,32 0 0 0 1.8223,0.33 l 6.4004,-0.1074 a 32,32 0 0 0 16.5,-5.0234 32,32 0 0 0 1.75,-1.1133 32,32 0 0 0 1.7851,-1.4668 32,32 0 0 0 6.7403,-5.5293 32,32 0 0 0 -4.4336,-45.0371 l -4.9473,-4.0605 a 32,32 0 0 0 -1.6328,-0.8731 32,32 0 0 0 -3.3144,-3.1875 l -4.9473,-4.0605 a 32,32 0 0 0 -1.6289,-0.8711 32,32 0 0 0 -3.3184,-3.1895 l -4.9453,-4.0605 a 32,32 0 0 0 -1.6328,-0.8731 32,32 0 0 0 -3.3145,-3.1875 l -4.9472,-4.0605 a 32,32 0 0 0 -1.6367,-0.875 32,32 0 0 0 -3.3106,-3.1836 l -4.9473,-4.0606 a 32,32 0 0 0 -1.6328,-0.873 32,32 0 0 0 -3.3144,-3.1875 l -4.9473,-4.0606 a 32,32 0 0 0 -1.6289,-0.8711 32,32 0 0 0 -3.3184,-3.1894 l -3.6738,-3.0156 -0.5625,1.0683 a 32,32 0 0 0 -1.1445,-1.5136 c 0.091,-0.2653 0.1395,-0.4521 0.2266,-0.711 a 32,32 0 0 0 -1.0704,-0.5723 32,32 0 0 0 0,-0.3632 l 1.0821,0.8886 c 0.751,-2.2372 1.4482,-4.4168 1.9629,-6.1523 a 32,32 0 0 0 0.5,-2.3496 32,32 0 0 0 2.1992,-11.8047 c -0.029,-2.3332 -0.08,-4.6044 -0.1367,-6.8125 a 32,32 0 0 0 -0.4161,-1.8438 32,32 0 0 0 0.2227,-4.7636 c -0.072,-2.2424 -0.155,-4.4509 -0.2402,-6.6231 a 32,32 0 0 0 -0.4395,-1.8261 32,32 0 0 0 0.1602,-4.7579 c -0.099,-2.1974 -0.2063,-4.3919 -0.3184,-6.5839 a 32,32 0 0 0 -0.459,-1.8145 32,32 0 0 0 0.1074,-4.7324 c -0.1235,-2.2054 -0.2542,-4.3954 -0.3886,-6.5703 a 32,32 0 0 0 -0.4766,-1.8086 32,32 0 0 0 0.053,-4.752 c -0.1468,-2.1843 -0.3007,-4.3733 -0.461,-6.5683 a 32,32 0 0 0 -0.4961,-1.7969 32,32 0 0 0 0,-4.75 c -0.1706,-2.1813 -0.3489,-4.3684 -0.5332,-6.5625 a 32,32 0 0 0 -0.5176,-1.7969 32,32 0 0 0 -0.047,-4.7305 c -0.1953,-2.2002 -0.3988,-4.3942 -0.6075,-6.582 a 32,32 0 0 0 -0.5371,-1.791 32,32 0 0 0 -0.1035,-4.7441 c -0.2201,-2.1863 -0.4462,-4.3829 -0.6836,-6.5879 a 32,32 0 0 0 -0.5586,-1.7793 32,32 0 0 0 -0.1601,-4.7481 c -0.2467,-2.1837 -0.5034,-4.3798 -0.7696,-6.5898 a 32,32 0 0 0 -0.582,-1.7774 32,32 0 0 0 -0.2168,-4.7285 c -0.2793,-2.2285 -0.5671,-4.426 -0.8555,-6.5918 a 32,32 0 0 0 -0.6093,-1.7871 32,32 0 0 0 -0.2852,-4.7441 c -0.3103,-2.2269 -0.629,-4.4288 -0.9512,-6.6055 a 32,32 0 0 0 -0.6308,-1.7676 32,32 0 0 0 -0.3633,-4.791 c -0.3385,-2.1772 -0.6896,-4.3826 -1.0586,-6.6172 a 32,32 0 0 0 -0.6543,-1.7383 32,32 0 0 0 -0.4433,-4.79097 c -0.3784,-2.19607 -0.7663,-4.39443 -1.1661,-6.59375 a 32,32 0 0 0 -0.6894,-1.7461 32,32 0 0 0 -0.5352,-4.83007 c -0.418,-2.18648 -0.8492,-4.38684 -1.2949,-6.59766 a 32,32 0 0 0 -0.7246,-1.73633 32,32 0 0 0 -0.6309,-4.83398 c -0.4676,-2.2089 -0.9487,-4.4102 -1.4394,-6.60547 a 32,32 0 0 0 -0.7637,-1.72656 32,32 0 0 0 -0.748,-4.86524 c -0.5198,-2.20792 -1.0565,-4.41678 -1.6075,-6.62695 a 32,32 0 0 0 -0.8027,-1.70313 32,32 0 0 0 -0.8848,-4.89648 c -0.5805,-2.20718 -1.1786,-4.41531 -1.7949,-6.62695 a 32,32 0 0 0 -0.8594,-1.69922 32,32 0 0 0 -1.0371,-4.91406 c -0.6532,-2.21514 -1.3274,-4.43518 -2.0254,-6.65821 a 32,32 0 0 0 -0.9277,-1.69726 32,32 0 0 0 -1.2109,-4.91602 c -0.7409,-2.22529 -1.5075,-4.45247 -2.3008,-6.67969 a 32,32 0 0 0 -1.0156,-1.69922 32,32 0 0 0 -1.4239,-4.93164 c -0.8521,-2.2433 -1.7299,-4.47174 -2.6347,-6.6875 a 32,32 0 0 0 -1.1367,-1.71875 32,32 0 0 0 -1.6895,-4.94921 c -0.9821,-2.23501 -2.0058,-4.47562 -3.0742,-6.7168 a 32,32 0 0 0 -1.3203,-1.76953 32,32 0 0 0 -2.1172,-5.12305 c -1.2665,-2.40017 -2.5891,-4.74617 -3.9571,-7.03906 a 32,32 0 0 0 -1.5742,-1.74414 32,32 0 0 0 -2.6367,-4.94336 c -1.4585,-2.20245 -2.9575,-4.35525 -4.4941,-6.45899 a 32,32 0 0 0 -1.6524,-1.51953 32,32 0 0 0 -3.0058,-4.59765 c -1.5735,-1.98166 -3.1922,-3.94565 -4.8594,-5.88672 a 32,32 0 0 0 -1.6934,-1.32813 32,32 0 0 0 -3.2558,-4.24219 c -1.7011,-1.85362 -3.4172,-3.65798 -5.1446,-5.41796 a 32,32 0 0 0 -1.7324,-1.18165 32,32 0 0 0 -3.4746,-3.9707 c -1.7696,-1.70159 -3.5499,-3.36335 -5.3359,-4.98633 a 32,32 0 0 0 -1.7578,-1.05664 32,32 0 0 0 -3.6465,-3.72851 c -1.8166,-1.56801 -3.6452,-3.10542 -5.4844,-4.61719 a 32,32 0 0 0 -1.7676,-0.94727 32,32 0 0 0 -3.7773,-3.50781 c -1.8595,-1.46029 -3.732,-2.89725 -5.6153,-4.3125 a 32,32 0 0 0 -1.7695,-0.85156 32,32 0 0 0 -3.8789,-3.30859 c -1.8981,-1.37013 -3.8053,-2.71969 -5.7226,-4.04883 a 32,32 0 0 0 -1.7715,-0.76953 32,32 0 0 0 -3.961,-3.13282 c -1.9309,-1.29136 -3.8684,-2.56238 -5.8125,-3.81445 a 32,32 0 0 0 -1.7734,-0.69922 32,32 0 0 0 -4.0332,-2.97851 c -1.9559,-1.21911 -3.9187,-2.42023 -5.8848,-3.60352 a 32,32 0 0 0 -1.7871,-0.64258 32,32 0 0 0 -4.0859,-2.83984 c -1.9758,-1.15339 -3.9579,-2.29042 -5.9434,-3.41211 a 32,32 0 0 0 -1.8008,-0.5918 32,32 0 0 0 -4.1328,-2.71093 c -1.9947,-1.09492 -3.9924,-2.17501 -5.9941,-3.24024 a 32,32 0 0 0 -1.8125,-0.54687 32,32 0 0 0 -4.1738,-2.59571 c -2.0149,-1.04327 -4.0273,-2.06812 -6.0352,-3.07812 a 32,32 0 0 0 -1.8301,-0.50586 32,32 0 0 0 -4.1933,-2.48047 c -2.041,-1.00098 -4.0816,-1.98727 -6.1231,-2.95703 a 32,32 0 0 0 -1.8183,-0.45899 32,32 0 0 0 -4.2461,-2.38867 c -2.041,-0.94627 -4.0828,-1.87911 -6.127,-2.80078 a 32,32 0 0 0 -1.8359,-0.42383 32,32 0 0 0 -4.2813,-2.29883 c -2.0651,-0.90818 -4.1253,-1.80043 -6.1777,-2.67773 a 32,32 0 0 0 -1.8399,-0.38672 32,32 0 0 0 -4.3437,-2.22265 c -2.0461,-0.85118 -4.1192,-1.70336 -6.2207,-2.55274 a 32,32 0 0 0 -1.8399,-0.34961 32,32 0 0 0 -4.3613,-2.12695 c -2.081,-0.8201 -4.1723,-1.63381 -6.2754,-2.4375 a 32,32 0 0 0 -1.8574,-0.31641 32,32 0 0 0 -4.4121,-2.04687 c -2.1068,-0.78251 -4.2224,-1.5559 -6.3477,-2.31836 a 32,32 0 0 0 -1.8613,-0.27735 32,32 0 0 0 -4.5254,-1.97461 c -2.14,-0.73971 -4.3164,-1.47596 -6.5293,-2.20312 a 32,32 0 0 0 -4.0176,-0.49024 32,32 0 0 0 -7.6992,-2.19921 c -2.2786,-0.32319 -4.5553,-0.62699 -6.8301,-0.91407 a 32,32 0 0 0 -1.8964,0.13477 32,32 0 0 0 -4.9004,-0.94336 c -2.2788,-0.25548 -4.5571,-0.49346 -6.834,-0.71484 a 32,32 0 0 0 -1.8867,0.1875 32,32 0 0 0 -4.9121,-0.80274 c -2.2791,-0.19091 -4.5573,-0.36528 -6.836,-0.52344 a 32,32 0 0 0 -1.8808,0.24024 32,32 0 0 0 -4.916,-0.66797 c -2.2794,-0.12887 -4.5591,-0.24282 -6.83797,-0.33984 a 32,32 0 0 0 -1.875,0.29101 32,32 0 0 0 -4.91602,-0.53711 c -2.27857,-0.0687 -4.55604,-0.12237 -6.83203,-0.16015 a 32,32 0 0 0 -1.86523,0.33984 32,32 0 0 0 -4.92578,-0.41211 z"
         inkscape:label="sickness face" />
      <path
         style="display:none;fill:#123456;stroke:#123456;stroke-width:64;stroke-linecap:round;stroke-linejoin:round;-inkscape-stroke:none;paint-order:fill markers stroke;stop-color:#000000"
         d="M 880.93148,744.0449 C 763.91552,771.643 622.61323,916.25706 622.61323,916.25706 620.95257,833.21142 611.27974,749.4374 735.2135,677.80944 c -124.69479,-7.45678 -249.2876,-15.1175 -408.45194,46.36482 0,0 303.22641,-263.62224 490.14233,-280.39675 172.2122,-15.45493 264.94181,37.53343 264.94181,37.53343 -0.1923,-45.68323 -31.4577,-88.25915 -90.52179,-128.0552 0,0 279.96389,104.89186 333.38509,194.29065 108.1845,181.04357 92.7296,439.36182 92.7296,439.36182 L 1109.6585,750.26594 c 0,0 -111.71105,-33.81914 -228.72702,-6.22104 z"
         id="path1637"
         sodipodi:nodetypes="zcccsccsccz"
         inkscape:label="top hair" />
      <path
         id="path13483"
         style="display:inline;opacity:1;fill:#ffcb4c;stroke:#ffcb4c;stroke-width:63.9997;stroke-linecap:round;stroke-linejoin:round;stroke-miterlimit:4;stroke-dasharray:6.39997, 6.39997;stroke-dashoffset:0;stroke-opacity:1;paint-order:fill markers stroke;stop-color:#000000"
         inkscape:label="right ear"
         d="m 1523.8841,1563.6968 c -77.7646,16.4364 -276.1393,-146.9138 -315.4538,-200.6119 -35.0033,-47.8097 -136.0784,-165.4346 -164.7761,-198.7568 -83.62638,-194.69874 70.1056,-403.06948 152.2589,-347.41727 111.9042,61.04226 362.065,214.30067 403.3051,366.52787 56.4625,208.4172 -24.9055,369.5995 -75.3341,380.2581 z"
         sodipodi:nodetypes="ssccss"
         inkscape:transform-center-x="-139.0813"
         inkscape:transform-center-y="171.80015" />
      <path
         id="path1085"
         style="color:#000000;font-variation-settings:normal;opacity:1;vector-effect:none;fill:url(#linearGradient935);fill-opacity:1;stroke-width:64;stroke-linecap:round;stroke-linejoin:round;stroke-miterlimit:4;stroke-dasharray:6.4, 6.4;stroke-dashoffset:0;stroke-opacity:1;-inkscape-stroke:none;paint-order:fill markers stroke;stop-color:#000000;stop-opacity:1"
         d="m 1162.584,775.82422 v 0.002 a 31.999849,31.999849 0 0 0 -4.7188,1.13672 31.999849,31.999849 0 0 0 -4.8144,-0.27539 c -3.2267,0.45209 -6.3283,1.05981 -9.3047,1.77344 a 31.999849,31.999849 0 0 0 -4.1738,1.92383 31.999849,31.999849 0 0 0 -4.5098,0.54882 c -2.8354,0.93199 -5.6122,1.96916 -8.3262,3.10157 a 31.999849,31.999849 0 0 0 -3.5508,2.38476 31.999849,31.999849 0 0 0 -4.1113,1.10352 c -2.5525,1.25963 -5.0246,2.5858 -7.4219,3.96289 a 31.999849,31.999849 0 0 0 -3.082,2.6914 31.999849,31.999849 0 0 0 -3.8164,1.51368 c -2.2387,1.4472 -4.4472,2.95518 -6.625,4.52539 a 31.999849,31.999849 0 0 0 -2.6855,2.88281 31.999849,31.999849 0 0 0 -3.5254,1.79687 c -2.0223,1.59453 -4.0277,3.24393 -6.0098,4.95118 a 31.999849,31.999849 0 0 0 -2.3535,3.01172 31.999849,31.999849 0 0 0 -3.2578,1.99609 c -1.891,1.74788 -3.7128,3.50512 -5.4746,5.25976 a 31.999849,31.999849 0 0 0 -2.1094,3.14258 31.999849,31.999849 0 0 0 -3.082,2.19922 c -1.7026,1.81065 -3.3696,3.645 -5.0039,5.5 a 31.999849,31.999849 0 0 0 -1.8692,3.21875 31.999849,31.999849 0 0 0 -2.8848,2.33789 c -1.5703,1.88817 -3.1129,3.80184 -4.6289,5.74219 a 31.999849,31.999849 0 0 0 -1.6464,3.26562 31.999849,31.999849 0 0 0 -2.7051,2.44922 c -1.4749,1.98609 -2.8891,3.95477 -4.252,5.89844 a 31.999849,31.999849 0 0 0 -1.4785,3.35547 31.999849,31.999849 0 0 0 -2.5644,2.57227 c -1.349,2.02668 -2.6578,4.05608 -3.9317,6.08398 a 31.999849,31.999849 0 0 0 -1.291,3.38086 31.999849,31.999849 0 0 0 -2.4219,2.67969 c -1.2324,2.06167 -2.4375,4.13638 -3.6152,6.22265 a 31.999849,31.999849 0 0 0 -1.1211,3.41211 31.999849,31.999849 0 0 0 -2.2773,2.75781 c -1.1519,2.14002 -2.2529,4.25488 -3.3125,6.33985 a 31.999849,31.999849 0 0 0 -0.9747,3.4707 31.999849,31.999849 0 0 0 -2.1484,2.84766 c -1.0489,2.17176 -2.0574,4.33184 -3.0312,6.47461 a 31.999849,31.999849 0 0 0 -0.8184,3.49414 31.999849,31.999849 0 0 0 -2.0391,2.96679 c -0.9168,2.13391 -1.836,4.32163 -2.7422,6.56836 a 31.999849,31.999849 0 0 0 -0.6562,3.47461 31.999849,31.999849 0 0 0 -1.8887,2.99414 c -0.8634,2.25211 -1.6824,4.48023 -2.4687,6.67774 a 31.999849,31.999849 0 0 0 -0.5254,3.54101 31.999849,31.999849 0 0 0 -1.7871,3.125 c -0.7351,2.19524 -1.4655,4.43673 -2.1797,6.72852 a 31.999849,31.999849 0 0 0 -0.375,3.5332 31.999849,31.999849 0 0 0 -1.6406,3.15039 c -0.659,2.25814 -1.3008,4.54417 -1.91996,6.85938 a 31.999849,31.999849 0 0 0 -0.22852,3.52539 31.999849,31.999849 0 0 0 -1.50976,3.19922 c -0.57746,2.31645 -1.1248,4.62772 -1.64453,6.93554 a 31.999849,31.999849 0 0 0 -0.0898,3.54688 31.999849,31.999849 0 0 0 -1.37695,3.25391 c -0.48614,2.34846 -0.93901,4.67911 -1.36328,6.99023 a 31.999849,31.999849 0 0 0 0.0527,3.55469 31.999849,31.999849 0 0 0 -1.24804,3.3164 c -0.39036,2.36436 -0.74756,4.7106 -1.07813,7.03711 a 31.999849,31.999849 0 0 0 0.19531,3.5507 31.999849,31.999849 0 0 0 -1.11328,3.3672 c -0.29395,2.3773 -0.55511,4.7402 -0.79101,7.086 a 31.999849,31.999849 0 0 0 0.33984,3.5351 31.999849,31.999849 0 0 0 -0.97461,3.4102 c -0.19681,2.3874 -0.36258,4.7659 -0.50195,7.1329 a 31.999849,31.999849 0 0 0 0.48633,3.5195 31.999849,31.999849 0 0 0 -0.83203,3.4434 c -0.0978,2.3849 -0.16835,4.7713 -0.20899,7.1621 a 31.999849,31.999849 0 0 0 0.63281,3.4902 31.999849,31.999849 0 0 0 -0.68945,3.4863 c 0.002,2.3763 0.031,4.7612 0.0898,7.1543 a 31.999849,31.999849 0 0 0 0.7793,3.4727 31.999849,31.999849 0 0 0 -0.54297,3.5332 c 0.10371,2.3749 0.23417,4.7373 0.38867,7.0898 a 31.999849,31.999849 0 0 0 0.92969,3.4688 31.999849,31.999849 0 0 0 -0.39453,3.5469 c 0.20356,2.3765 0.4355,4.7561 0.69727,7.1367 a 31.999849,31.999849 0 0 0 1.07031,3.3887 31.999849,31.999849 0 0 0 -0.24414,3.5429 c 0.30552,2.3795 0.63983,4.7517 1.00195,7.1133 a 31.999849,31.999849 0 0 0 1.22071,3.3574 31.999849,31.999849 0 0 0 -0.0859,3.6094 c 0.40038,2.2948 0.82994,4.6305 1.30078,7.0078 a 31.999849,31.999849 0 0 0 1.35937,3.2871 31.999849,31.999849 0 0 0 0.0606,3.5469 c 0.511,2.3557 1.05097,4.6932 1.61524,7.0137 a 31.999849,31.999849 0 0 0 1.5039,3.2383 31.999849,31.999849 0 0 0 0.22656,3.6015 c 0.59573,2.2484 1.22637,4.5486 1.90819,6.8965 a 31.999849,31.999849 0 0 0 1.6309,3.1387 31.999849,31.999849 0 0 0 0.3652,3.5195 c 0.7224,2.3358 1.4609,4.6023 2.1973,6.8008 a 31.999849,31.999849 0 0 0 1.7891,3.1289 31.999849,31.999849 0 0 0 0.5195,3.5156 c 0.8128,2.2757 1.6503,4.5243 2.5078,6.7481 a 31.999849,31.999849 0 0 0 1.8926,2.9883 31.999849,31.999849 0 0 0 0.6504,3.4316 c 0.819,2.0282 1.5976,3.8456 2.291,5.4726 a 32.003049,32.003049 0 0 0 5.1836,8.3301 l 0.7012,0.8145 a 31.999849,31.999849 0 0 0 2.5703,2.0097 31.999849,31.999849 0 0 0 1.6054,2.8418 l 1.3125,1.5254 2.8477,3.3125 a 31.999849,31.999849 0 0 0 2.5645,2.0078 31.999849,31.999849 0 0 0 1.5976,2.836 l 0.6582,0.7656 3.4981,4.0781 a 31.999849,31.999849 0 0 0 2.5546,2.0059 31.999849,31.999849 0 0 0 1.5977,2.8398 l 1.3047,1.5215 2.8457,3.3242 a 31.999849,31.999849 0 0 0 2.5547,2.0098 31.999849,31.999849 0 0 0 1.5898,2.8379 l 3.0489,3.5664 1.0937,1.2812 a 31.999849,31.999849 0 0 0 2.5605,2.0196 31.999849,31.999849 0 0 0 1.5938,2.8496 l 0.1152,0.1328 4.0196,4.7188 a 31.999849,31.999849 0 0 0 2.5488,2.0136 31.999849,31.999849 0 0 0 1.582,2.8399 l 3.1328,3.6836 0.9942,1.1699 a 31.999849,31.999849 0 0 0 2.5566,2.0273 31.999849,31.999849 0 0 0 1.586,2.8516 l 0.7343,0.8652 3.3828,3.9922 a 31.999849,31.999849 0 0 0 2.545,2.0215 31.999849,31.999849 0 0 0 1.5742,2.8437 l 1.5176,1.793 2.6035,3.0801 a 31.999849,31.999849 0 0 0 2.5351,2.0215 31.999849,31.999849 0 0 0 1.5684,2.8418 l 2.4922,2.9551 1.6191,1.9238 a 31.999849,31.999849 0 0 0 2.5391,2.0312 31.999849,31.999849 0 0 0 1.5683,2.8516 c 1.3627,1.6203 2.7248,3.2419 4.084,4.8633 a 31.999849,31.999849 0 0 0 2.5371,2.039 31.999849,31.999849 0 0 0 1.5606,2.8496 l 1.5898,1.9004 2.5,2.9902 a 31.999849,31.999849 0 0 0 2.5196,2.0312 31.999849,31.999849 0 0 0 1.5468,2.8418 l 2.6914,3.2305 1.3848,1.666 a 31.999849,31.999849 0 0 0 2.5234,2.0449 31.999849,31.999849 0 0 0 1.5508,2.8594 c 1.35,1.626 2.695,3.2492 4.0352,4.8711 a 31.999849,31.999849 0 0 0 2.5215,2.0566 31.999849,31.999849 0 0 0 1.5351,2.8535 l 1.5293,1.8555 2.5156,3.0567 a 31.999849,31.999849 0 0 0 2.4922,2.041 31.999849,31.999849 0 0 0 1.5157,2.8437 l 2.1738,2.6563 1.8496,2.2656 a 31.999849,31.999849 0 0 0 2.4844,2.0488 31.999849,31.999849 0 0 0 1.4961,2.8379 l 2.4941,3.0762 1.5,1.8555 a 31.999849,31.999849 0 0 0 2.4688,2.0566 31.999849,31.999849 0 0 0 1.4746,2.834 l 2.4179,3.0117 1.543,1.9316 a 31.999849,31.999849 0 0 0 2.4512,2.0665 31.999849,31.999849 0 0 0 1.4668,2.8554 c 1.2951,1.6322 2.5841,3.2649 3.8672,4.8985 a 31.999849,31.999849 0 0 0 2.4199,2.0742 31.999849,31.999849 0 0 0 1.4277,2.8496 c 1.2669,1.6287 2.5278,3.2605 3.7813,4.8945 a 31.999849,31.999849 0 0 0 2.3535,2.0645 31.999849,31.999849 0 0 0 1.3594,2.8164 c 1.225,1.6249 2.4266,3.2335 3.5996,4.8281 a 31.999849,31.999849 0 0 0 2.8203,2.5781 31.999849,31.999849 0 0 0 1.8047,3.4942 c 1.6088,2.0193 3.2109,3.946 4.791,5.7929 a 31.999849,31.999849 0 0 0 2.8847,2.2696 31.999849,31.999849 0 0 0 1.8594,3.1308 c 1.5936,1.7725 3.1819,3.4975 4.7598,5.1836 a 31.999849,31.999849 0 0 0 2.8672,2.0567 31.999849,31.999849 0 0 0 1.8965,2.9472 c 1.595,1.6511 3.1947,3.2828 4.7988,4.8965 a 31.999849,31.999849 0 0 0 2.8574,1.9219 31.999849,31.999849 0 0 0 1.9356,2.8457 c 1.6123,1.5859 3.2255,3.1533 4.8378,4.7051 a 31.999849,31.999849 0 0 0 2.877,1.8437 31.999849,31.999849 0 0 0 1.9707,2.7754 c 1.6269,1.5371 3.2557,3.0619 4.8887,4.5762 a 31.999849,31.999849 0 0 0 2.8847,1.7734 31.999849,31.999849 0 0 0 2.0098,2.7305 c 1.641,1.498 3.2852,2.985 4.9297,4.4629 a 31.999849,31.999849 0 0 0 2.9043,1.7246 31.999849,31.999849 0 0 0 2.043,2.6894 c 1.655,1.4659 3.3151,2.9242 4.9765,4.375 a 31.999849,31.999849 0 0 0 2.9219,1.6778 31.999849,31.999849 0 0 0 2.0723,2.6543 c 1.6692,1.4382 3.3447,2.8733 5.0293,4.3047 a 31.999849,31.999849 0 0 0 2.9316,1.6308 31.999849,31.999849 0 0 0 2.0977,2.6172 c 1.6939,1.4227 3.3873,2.8333 5.0781,4.2344 a 31.999849,31.999849 0 0 0 2.9531,1.5957 31.999849,31.999849 0 0 0 2.1328,2.5937 c 1.7013,1.3929 3.4113,2.7825 5.1289,4.17 a 31.999849,31.999849 0 0 0 2.9649,1.5566 31.999849,31.999849 0 0 0 2.1699,2.5703 c 1.709,1.3642 3.4321,2.7328 5.1719,4.1035 a 31.999849,31.999849 0 0 0 2.9843,1.5196 31.999849,31.999849 0 0 0 2.1934,2.5371 c 1.7303,1.3477 3.473,2.6972 5.2266,4.0449 a 31.999849,31.999849 0 0 0 3.0039,1.4844 31.999849,31.999849 0 0 0 2.2246,2.5117 c 1.7482,1.3277 3.5078,2.6575 5.2793,3.9844 a 31.999849,31.999849 0 0 0 3.0254,1.4472 31.999849,31.999849 0 0 0 2.2597,2.4883 c 1.7641,1.3052 3.5413,2.6126 5.334,3.9199 a 31.999849,31.999849 0 0 0 3.0449,1.4102 31.999849,31.999849 0 0 0 2.2969,2.4629 c 1.7794,1.2808 3.5763,2.5657 5.3926,3.8535 a 31.999849,31.999849 0 0 0 3.0683,1.3711 31.999849,31.999849 0 0 0 2.336,2.4375 c 1.7976,1.2568 3.6147,2.5209 5.4551,3.7871 a 31.999849,31.999849 0 0 0 3.0937,1.3301 31.999849,31.999849 0 0 0 2.3711,2.4043 c 1.8213,1.2347 3.6636,2.4752 5.5274,3.7168 a 31.999849,31.999849 0 0 0 3.1191,1.2871 31.999849,31.999849 0 0 0 2.418,2.375 c 1.8449,1.2092 3.7124,2.4248 5.6035,3.6406 a 31.999849,31.999849 0 0 0 3.1484,1.2383 31.999849,31.999849 0 0 0 2.4668,2.3437 c 1.8724,1.1823 3.7681,2.3683 5.6875,3.5547 a 31.999849,31.999849 0 0 0 3.1836,1.1875 31.999849,31.999849 0 0 0 2.5098,2.2988 c 1.9213,1.1648 3.849,2.3204 5.7832,3.4649 a 31.999849,31.999849 0 0 0 3.2304,1.1367 31.999849,31.999849 0 0 0 2.5704,2.2559 c 1.962,1.1347 3.9288,2.2561 5.9023,3.3652 a 31.999849,31.999849 0 0 0 3.2793,1.0703 31.999849,31.999849 0 0 0 2.6523,2.2188 c 1.9836,1.0837 3.9881,2.1637 6.0157,3.2363 a 31.999849,31.999849 0 0 0 3.33,0.9941 31.999849,31.999849 0 0 0 2.7227,2.1563 c 2.0492,1.0495 4.1135,2.086 6.1914,3.1074 a 31.999849,31.999849 0 0 0 3.3926,0.9043 31.999849,31.999849 0 0 0 2.8203,2.0898 c 2.1182,1.0007 4.2451,1.9798 6.3789,2.9375 a 31.999849,31.999849 0 0 0 3.4844,0.8008 31.999849,31.999849 0 0 0 2.9765,2.0254 c 2.1483,0.9121 4.3495,1.8231 6.6094,2.7207 a 31.999849,31.999849 0 0 0 3.5762,0.6563 31.999849,31.999849 0 0 0 3.1133,1.9121 c 2.2759,0.8416 4.5908,1.6619 6.9472,2.4531 a 31.999849,31.999849 0 0 0 3.7266,0.4785 31.999849,31.999849 0 0 0 3.3437,1.7754 c 2.4102,0.7246 4.8594,1.4155 7.3497,2.0606 a 31.999849,31.999849 0 0 0 3.9628,0.2265 31.999849,31.999849 0 0 0 3.6641,1.5703 c 2.5664,0.5432 5.2394,1.0477 8.0215,1.4785 a 31.999849,31.999849 0 0 0 4.2187,-0.1796 31.999849,31.999849 0 0 0 4.1133,1.2168 c 2.8906,0.2643 5.8686,0.4327 8.9278,0.4687 a 31.999849,31.999849 0 0 0 4.6953,-0.8769 31.999849,31.999849 0 0 0 4.7675,0.5371 c 3.3618,-0.284 6.7806,-0.7682 10.2344,-1.4961 a 31.999849,31.999849 0 0 0 0.025,-0.01 31.999849,31.999849 0 0 0 0.01,0 c 2.6205,-0.5549 5.1122,-1.263 7.4804,-2.0801 a 31.999849,31.999849 0 0 0 7.0254,-3.5488 31.999849,31.999849 0 0 0 3.4336,-1.0371 c 3.1851,-1.6967 6.0693,-3.5123 8.6992,-5.3457 a 31.999849,31.999849 0 0 0 4.8516,-4.2774 31.999849,31.999849 0 0 0 2.5195,-1.3867 c 2.2672,-1.9074 4.4208,-3.8684 6.4688,-5.8633 a 31.999849,31.999849 0 0 0 3.7519,-4.4746 31.999849,31.999849 0 0 0 2.0079,-1.4785 c 1.8144,-1.9886 3.5678,-4.0164 5.2636,-6.0781 a 31.999849,31.999849 0 0 0 3.1016,-4.5762 31.999849,31.999849 0 0 0 1.6875,-1.5039 c 1.5627,-2.0709 3.0581,-4.1464 4.4961,-6.2187 a 31.999849,31.999849 0 0 0 2.6601,-4.668 31.999849,31.999849 0 0 0 1.4942,-1.543 c 1.3638,-2.1132 2.667,-4.2181 3.9219,-6.3066 a 31.999849,31.999849 0 0 0 2.3203,-4.7461 31.999849,31.999849 0 0 0 1.3554,-1.582 c 1.1961,-2.1266 2.355,-4.2567 3.4786,-6.3887 a 31.999849,31.999849 0 0 0 2.0293,-4.791 31.999849,31.999849 0 0 0 1.2441,-1.6133 c 1.0584,-2.135 2.0973,-4.2939 3.1133,-6.4766 a 31.999849,31.999849 0 0 0 1.7793,-4.8203 31.999849,31.999849 0 0 0 1.1465,-1.6387 c 0.9444,-2.149 1.8756,-4.3274 2.789,-6.5371 a 31.999849,31.999849 0 0 0 1.5606,-4.8457 31.999849,31.999849 0 0 0 1.0547,-1.6484 c 0.864,-2.2065 1.6941,-4.401 2.498,-6.582 a 31.999849,31.999849 0 0 0 1.3711,-4.9063 31.999849,31.999849 0 0 0 0.9863,-1.6816 c 0.7651,-2.2012 1.5114,-4.4152 2.2383,-6.6426 a 31.999849,31.999849 0 0 0 1.1797,-4.9102 31.999849,31.999849 0 0 0 0.916,-1.6953 c 0.6867,-2.2287 1.35,-4.4568 1.9922,-6.6816 a 31.999849,31.999849 0 0 0 1.0117,-4.9473 31.999849,31.999849 0 0 0 0.8555,-1.7246 c 0.6007,-2.2181 1.1886,-4.4565 1.7597,-6.7168 a 31.999849,31.999849 0 0 0 0.8418,-4.9375 31.999849,31.999849 0 0 0 0.7891,-1.7226 c 0.5396,-2.2717 1.0536,-4.5262 1.5449,-6.7598 a 31.999849,31.999849 0 0 0 0.6895,-4.9727 31.999849,31.999849 0 0 0 0.7344,-1.7461 c 0.4628,-2.2612 0.9064,-4.5258 1.332,-6.7929 a 31.999849,31.999849 0 0 0 0.5332,-4.959 31.999849,31.999849 0 0 0 0.6836,-1.7715 c 0.3924,-2.2619 0.7684,-4.5321 1.1269,-6.8105 a 31.999849,31.999849 0 0 0 0.3848,-4.9493 31.999849,31.999849 0 0 0 0.6289,-1.7812 c 0.3326,-2.3036 0.6404,-4.578 0.9297,-6.8203 a 31.999849,31.999849 0 0 0 0.248,-4.9883 31.999849,31.999849 0 0 0 0.5762,-1.7871 c 0.2645,-2.29 0.5087,-4.5733 0.7363,-6.8496 a 31.999849,31.999849 0 0 0 0.1036,-4.9649 31.999849,31.999849 0 0 0 0.5332,-1.834 c 0.1944,-2.247 0.3801,-4.5241 0.5468,-6.832 a 31.999849,31.999849 0 0 0 -0.033,-4.9336 31.999849,31.999849 0 0 0 0.4805,-1.8281 c 0.1381,-2.2865 0.2592,-4.5765 0.3633,-6.8691 a 31.999849,31.999849 0 0 0 -0.1621,-4.9161 31.999849,31.999849 0 0 0 0.4316,-1.8398 c 0.079,-2.3076 0.137,-4.5933 0.1817,-6.8574 a 31.999849,31.999849 0 0 0 -0.2911,-4.9375 31.999849,31.999849 0 0 0 0.3829,-1.8477 c 0.018,-2.2927 0.017,-4.5704 0,-6.834 a 31.999849,31.999849 0 0 0 -0.3809,-1.8554 31.999849,31.999849 0 0 0 0.2988,-4.9375 c -0.041,-2.2789 -0.099,-4.5531 -0.1699,-6.8223 a 31.999849,31.999849 0 0 0 -0.4277,-1.8477 31.999849,31.999849 0 0 0 0.1738,-4.9218 c -0.099,-2.2802 -0.2128,-4.5561 -0.3418,-6.8262 a 31.999849,31.999849 0 0 0 -0.4746,-1.8379 31.999849,31.999849 0 0 0 0.053,-4.8984 c -0.1547,-2.283 -0.3255,-4.5604 -0.5117,-6.8321 a 31.999849,31.999849 0 0 0 -0.5176,-1.8125 31.999849,31.999849 0 0 0 -0.066,-4.8965 c -0.2101,-2.2707 -0.4362,-4.5403 -0.6777,-6.8085 a 31.999849,31.999849 0 0 0 -0.5606,-1.7969 31.999849,31.999849 0 0 0 -0.1894,-4.9199 c -0.2639,-2.2404 -0.5425,-4.4908 -0.8379,-6.752 a 31.999849,31.999849 0 0 0 -0.6055,-1.791 31.999849,31.999849 0 0 0 -0.3027,-4.877 c -0.3188,-2.2591 -0.6525,-4.5153 -1.002,-6.7675 a 31.999849,31.999849 0 0 0 -0.6445,-1.7618 31.999849,31.999849 0 0 0 -0.4219,-4.8984 c -0.3682,-2.2144 -0.7523,-4.4491 -1.1562,-6.7031 a 31.999849,31.999849 0 0 0 -0.6895,-1.7578 31.999849,31.999849 0 0 0 -0.5254,-4.8321 c -0.4277,-2.2646 -0.8659,-4.49 -1.3086,-6.6797 a 31.999849,31.999849 0 0 0 -0.7363,-1.7597 31.999849,31.999849 0 0 0 -0.6387,-4.8379 c -0.474,-2.2237 -0.9626,-4.4461 -1.4668,-6.666 a 31.999849,31.999849 0 0 0 -0.7617,-1.7071 31.999849,31.999849 0 0 0 -0.7597,-4.8496 c -0.5159,-2.1674 -1.0504,-4.3725 -1.6133,-6.6113 a 31.999849,31.999849 0 0 0 -0.7891,-1.666 31.999849,31.999849 0 0 0 -0.8847,-4.8828 c -0.537,-2.0379 -1.1189,-4.2621 -1.7891,-6.6563 a 31.999849,31.999849 0 0 0 -0.9668,-1.9062 31.999849,31.999849 0 0 0 -1.1465,-5.2012 c -0.7449,-2.3684 -1.5336,-4.7409 -2.3711,-7.1152 a 31.999849,31.999849 0 0 0 -1.0566,-1.7793 31.999849,31.999849 0 0 0 -1.4707,-5.0957 c -0.8569,-2.2221 -1.7656,-4.5027 -2.7442,-6.8301 a 31.999849,31.999849 0 0 0 -1.125,-1.6641 31.999849,31.999849 0 0 0 -1.7109,-4.8691 c -1.0189,-2.2779 -2.0481,-4.4782 -3.0723,-6.6074 a 31.999849,31.999849 0 0 0 -1.2207,-1.6231 31.999849,31.999849 0 0 0 -1.9707,-4.8086 c -1.0707,-2.094 -2.1826,-4.2154 -3.3476,-6.3613 a 31.999849,31.999849 0 0 0 -1.2481,-1.5 31.999849,31.999849 0 0 0 -2.1465,-4.6172 c -1.1804,-2.081 -2.3806,-4.1395 -3.5996,-6.1758 a 31.999849,31.999849 0 0 0 -1.2949,-1.4297 31.999849,31.999849 0 0 0 -2.3203,-4.4941 c -1.2607,-2.0277 -2.5288,-4.0131 -3.7969,-5.9609 a 31.999849,31.999849 0 0 0 -1.3418,-1.375 31.999849,31.999849 0 0 0 -2.4765,-4.3848 c -1.3181,-1.9556 -2.6419,-3.8751 -3.9668,-5.7637 a 31.999849,31.999849 0 0 0 -1.3809,-1.3183 31.999849,31.999849 0 0 0 -2.6035,-4.2696 c -1.3687,-1.8922 -2.7435,-3.758 -4.1231,-5.5976 a 31.999849,31.999849 0 0 0 -1.4199,-1.2735 31.999849,31.999849 0 0 0 -2.7031,-4.1464 c -1.4122,-1.8337 -2.8347,-3.6482 -4.2656,-5.4454 a 31.999849,31.999849 0 0 0 -1.4414,-1.2187 31.999849,31.999849 0 0 0 -2.8047,-4.0527 c -1.4473,-1.7752 -2.9079,-3.5395 -4.3789,-5.2911 a 31.999849,31.999849 0 0 0 -1.4688,-1.1777 31.999849,31.999849 0 0 0 -2.9043,-3.9746 c -1.4768,-1.719 -2.9642,-3.4278 -4.4609,-5.1269 a 31.999849,31.999849 0 0 0 -1.502,-1.1485 31.999849,31.999849 0 0 0 -2.9707,-3.873 c -1.5181,-1.6885 -3.0445,-3.3662 -4.5801,-5.0313 a 31.999849,31.999849 0 0 0 -1.5234,-1.1094 31.999849,31.999849 0 0 0 -3.0293,-3.7832 c -1.5543,-1.656 -3.1018,-3.2838 -4.6406,-4.8886 a 31.999849,31.999849 0 0 0 -1.5547,-1.086 31.999849,31.999849 0 0 0 -3.1035,-3.7226 c -1.5711,-1.6086 -3.151,-3.2084 -4.7403,-4.8008 a 31.999849,31.999849 0 0 0 -1.5546,-1.041 31.999849,31.999849 0 0 0 -3.1602,-3.6485 c -1.5921,-1.5703 -3.1914,-3.1316 -4.7949,-4.6836 a 31.999849,31.999849 0 0 0 -1.5801,-1.0175 31.999849,31.999849 0 0 0 -3.2031,-3.57616 c -1.6241,-1.54926 -3.2487,-3.08269 -4.8711,-4.60156 a 31.999849,31.999849 0 0 0 -1.5899,-0.98828 31.999849,31.999849 0 0 0 -3.2675,-3.52734 c -1.624,-1.49818 -3.264,-3.00076 -4.9239,-4.50586 a 31.999849,31.999849 0 0 0 -1.6035,-0.96094 31.999849,31.999849 0 0 0 -3.2969,-3.45899 c -1.6533,-1.48067 -3.311,-2.95133 -4.9726,-4.41601 a 31.999849,31.999849 0 0 0 -1.627,-0.94531 31.999849,31.999849 0 0 0 -3.3281,-3.39453 c -1.6856,-1.46852 -3.3613,-2.91408 -5.0254,-4.3418 a 31.999849,31.999849 0 0 0 -1.6386,-0.92383 31.999849,31.999849 0 0 0 -3.3809,-3.35352 c -1.6874,-1.4301 -3.3808,-2.85481 -5.0801,-4.27343 a 31.999849,31.999849 0 0 0 -1.6328,-0.89063 31.999849,31.999849 0 0 0 -3.4316,-3.3164 c -1.6835,-1.38893 -3.3874,-2.7885 -5.1133,-4.19336 a 31.999849,31.999849 0 0 0 -1.6465,-0.8711 31.999849,31.999849 0 0 0 -3.4453,-3.25586 c -1.7153,-1.38256 -3.4337,-2.758 -5.1543,-4.12695 a 31.999849,31.999849 0 0 0 -1.666,-0.85742 31.999849,31.999849 0 0 0 -3.4688,-3.20508 c -1.7424,-1.37319 -3.4736,-2.72739 -5.1914,-4.06445 a 31.999849,31.999849 0 0 0 -1.6758,-0.8418 31.999849,31.999849 0 0 0 -3.5097,-3.17187 c -1.7433,-1.34305 -3.4889,-2.67835 -5.2364,-4.00782 a 31.999849,31.999849 0 0 0 -1.6738,-0.8164 31.999849,31.999849 0 0 0 -3.5488,-3.13867 c -1.7393,-1.3104 -3.4915,-2.62694 -5.2617,-3.94532 a 31.999849,31.999849 0 0 0 -1.6817,-0.79883 31.999849,31.999849 0 0 0 -3.5625,-3.09179 c -1.7616,-1.30096 -3.5259,-2.59593 -5.2929,-3.88672 a 31.999849,31.999849 0 0 0 -1.6954,-0.78711 31.999849,31.999849 0 0 0 -3.582,-3.05078 c -1.7815,-1.29067 -3.5588,-2.56797 -5.3281,-3.83594 a 31.999849,31.999849 0 0 0 -1.6992,-0.76953 31.999849,31.999849 0 0 0 -3.6192,-3.02539 c -1.7803,-1.26471 -3.5647,-2.52729 -5.3574,-3.78711 a 31.999849,31.999849 0 0 0 -1.707,-0.75391 31.999849,31.999849 0 0 0 -3.6348,-2.98437 c -1.7898,-1.24788 -3.5828,-2.49235 -5.3789,-3.73242 a 31.999849,31.999849 0 0 0 -1.7129,-0.74024 31.999849,31.999849 0 0 0 -3.6543,-2.95117 c -1.8038,-1.23582 -3.6087,-2.46507 -5.4141,-3.68945 a 31.999849,31.999849 0 0 0 -1.7128,-0.72266 31.999849,31.999849 0 0 0 -3.6914,-2.92969 c -1.8005,-1.21101 -3.6105,-2.42417 -5.4297,-3.63672 a 31.999849,31.999849 0 0 0 -1.7246,-0.71093 31.999849,31.999849 0 0 0 -3.6954,-2.88672 c -1.8194,-1.20407 -3.6394,-2.40454 -5.4628,-3.59961 a 31.999849,31.999849 0 0 0 -1.7286,-0.69727 31.999849,31.999849 0 0 0 -3.7207,-2.86132 c -1.8261,-1.18808 -3.6518,-2.36984 -5.4765,-3.54688 a 31.999849,31.999849 0 0 0 -1.7364,-0.68555 31.999849,31.999849 0 0 0 -3.7421,-2.83398 c -1.8339,-1.17383 -3.6707,-2.34432 -5.5079,-3.50977 a 31.999849,31.999849 0 0 0 -1.7382,-0.67187 31.999849,31.999849 0 0 0 -3.7559,-2.80078 c -1.8441,-1.16175 -3.6884,-2.31709 -5.5332,-3.46875 a 31.999849,31.999849 0 0 0 -1.7363,-0.65821 31.999849,31.999849 0 0 0 -3.7871,-2.77734 c -1.8367,-1.1383 -3.6923,-2.28532 -5.5704,-3.4375 a 31.999849,31.999849 0 0 0 -1.7382,-0.64258 31.999849,31.999849 0 0 0 -3.7578,-2.72461 c -1.8795,-1.14927 -3.7539,-2.28535 -5.6192,-3.41211 a 31.999849,31.999849 0 0 0 -1.7402,-0.6289 31.999849,31.999849 0 0 0 -3.7813,-2.70117 c -1.8992,-1.14336 -3.7764,-2.26453 -5.6289,-3.36719 a 31.999849,31.999849 0 0 0 -1.7441,-0.61719 31.999849,31.999849 0 0 0 -3.8653,-2.71094 l -2.8906,-1.70703 a 32.003049,32.003049 0 0 0 -0.057,-0.0332 l -2.625,-1.54102 a 31.999849,31.999849 0 0 0 -1.7735,-0.61719 31.999849,31.999849 0 0 0 -3.8515,-2.66796 c -1.8713,-1.09004 -3.7606,-2.18822 -5.6719,-3.28907 a 31.999849,31.999849 0 0 0 -1.7578,-0.59375 31.999849,31.999849 0 0 0 -3.832,-2.61914 c -1.9272,-1.10614 -3.8223,-2.1847 -5.6797,-3.24023 a 31.999849,31.999849 0 0 0 -1.7754,-0.58985 31.999849,31.999849 0 0 0 -3.877,-2.60742 c -1.9087,-1.07722 -3.815,-2.14694 -5.7187,-3.20898 a 31.999849,31.999849 0 0 0 -1.7715,-0.57227 31.999849,31.999849 0 0 0 -3.8906,-2.57617 c -1.9108,-1.05979 -3.825,-2.11495 -5.7422,-3.16601 a 31.999849,31.999849 0 0 0 -1.5547,-0.49024 31.999849,31.999849 0 0 0 -2.2617,-1.69336 c -2.8871,-1.82609 -5.9033,-3.48964 -9.043,-4.97265 a 31.999849,31.999849 0 0 0 -3.1523,-0.78711 31.999849,31.999849 0 0 0 -6.3594,-3.0293 c -3.3246,-1.10472 -6.6847,-1.98605 -10.0586,-2.6543 a 31.999849,31.999849 0 0 0 -3.2813,0.004 31.999849,31.999849 0 0 0 -6.8378,-1.37891 c -3.3762,-0.25776 -6.7505,-0.31785 -10.1094,-0.18359 z"
         inkscape:label="sickness ear" />
      <g
         id="g13003"
         inkscape:label="face">
        <path
           style="opacity:1;fill:none;fill-opacity:1;stroke:#65471b;stroke-width:64;stroke-linecap:round;stroke-linejoin:round;stroke-miterlimit:4;stroke-dasharray:none;stroke-dashoffset:0;stroke-opacity:1;paint-order:fill markers stroke;stop-color:#000000"
           d="m 83.898236,1201.0695 68.443294,6.6235 -37.53342,39.7413"
           id="path2163"
           inkscape:label="left nostril" />
        <path
           style="opacity:1;fill:none;fill-opacity:1;stroke:#65471b;stroke-width:64;stroke-linecap:round;stroke-linejoin:round;stroke-miterlimit:4;stroke-dasharray:none;stroke-dashoffset:0;stroke-opacity:1;paint-order:fill markers stroke;stop-color:#000000"
           d="m 401.82839,1251.85 -59.6119,-44.157 121.43166,-17.6628"
           id="path2198"
           inkscape:label="right nostril" />
        <path
           style="opacity:1;fill:none;fill-opacity:1;stroke:#65471b;stroke-width:64;stroke-linecap:round;stroke-linejoin:round;stroke-miterlimit:4;stroke-dasharray:none;stroke-dashoffset:0;stroke-opacity:1;paint-order:fill markers stroke;stop-color:#000000"
           d="m 132.4709,1346.7875 90.52178,-72.859 c 2.96986,3.4708 153.12577,113.8669 222.99268,101.561 65.37614,-11.5149 67.86163,77.7264 67.86163,77.7264"
           id="path2200"
           sodipodi:nodetypes="ccsc"
           inkscape:label="mouf" />
        <path
           style="opacity:1;fill:#ffffff;fill-opacity:1;stroke:#65471b;stroke-width:64;stroke-linecap:round;stroke-linejoin:round;stroke-miterlimit:4;stroke-dasharray:none;stroke-dashoffset:0;stroke-opacity:1;paint-order:fill markers stroke;stop-color:#000000"
           d="m 222.99268,1530.0389 -90.52178,-183.2514 90.52178,-72.859 103.76887,66.2354 z"
           id="path2202"
           sodipodi:nodetypes="ccccc"
           inkscape:label="toof" />
      </g>
      <g
         id="g12993"
         inkscape:label="right eye">
        <path
           style="opacity:1;fill:#65471b;fill-opacity:1;stroke:#65471b;stroke-width:64;stroke-linecap:round;stroke-linejoin:round;stroke-miterlimit:4;stroke-dasharray:none;stroke-dashoffset:0;stroke-opacity:1;paint-order:fill markers stroke;stop-color:#000000"
           d="m 661.97569,1226.0485 53.36716,-115.5008 86.53085,168.711 z"
           id="path7852"
           inkscape:label="eyenub"
           sodipodi:nodetypes="cccc" />
        <path
           id="path1915"
           style="opacity:1;fill:#fefefe;stroke:#65471b;stroke-width:64;stroke-linecap:round;stroke-linejoin:round;paint-order:fill markers stroke;stop-color:#000000"
           inkscape:label="righteye"
           d="m 1150.289,1075.2222 c 0,120.7167 -151.8603,218.5769 -272.57702,218.5769 -120.71671,0 -164.57695,-71.8602 -164.57699,-192.5769 -2e-5,-120.71675 97.86024,-244.57702 218.57699,-244.57701 120.71672,-2e-5 218.57702,97.86025 218.57702,218.57701 z"
           sodipodi:nodetypes="sssss" />
        <path
           style="opacity:1;fill:#ffffff;fill-opacity:1;stroke:#65471b;stroke-width:48;stroke-linecap:round;stroke-linejoin:round;stroke-miterlimit:4;stroke-dasharray:none;stroke-dashoffset:0;stroke-opacity:1;paint-order:fill markers stroke;stop-color:#000000"
           d="m 841.19021,982.4925 v 189.8749"
           id="path2350"
           inkscape:label="right pupil" />
        <path
           id="path1967"
           style="opacity:1;fill:#d19020;stroke:#65471b;stroke-width:64;stroke-linecap:round;stroke-linejoin:round;paint-order:fill markers stroke;stop-color:#000000"
           inkscape:label="right lid"
           d="m 931.71289,856.64453 c -65.93165,0 -124.99849,36.98813 -165.07422,90.19141 116.1277,144.73736 243.91573,187.44716 383.59373,126.11916 -1.2223,-119.66715 -98.5633,-216.31059 -218.51951,-216.31057 z"
           sodipodi:nodetypes="sccs" />
      </g>
      <path
         style="opacity:1;fill:none;fill-opacity:1;stroke:#ffcb4c;stroke-width:32;stroke-linecap:round;stroke-linejoin:round;stroke-miterlimit:4;stroke-dasharray:none;stroke-dashoffset:0;stroke-opacity:1;paint-order:fill markers stroke;stop-color:#000000"
         d="M 191.14998,316.33524 C 452.87139,429.00654 673.84613,582.88408 815.80139,816.6723"
         id="path6280"
         sodipodi:nodetypes="cc"
         inkscape:label="eyelash right big"
         inkscape:transform-center-x="309.09877"
         inkscape:transform-center-y="-240.65547" />
      <path
         style="display:inline;fill:none;fill-opacity:1;stroke:#ffcb4c;stroke-width:32;stroke-linecap:round;stroke-linejoin:round;stroke-miterlimit:4;stroke-dasharray:none;stroke-dashoffset:0;stroke-opacity:1;paint-order:fill markers stroke;stop-color:#000000"
         d="M 555.88491,367.33217 C 683.46609,483.30428 808.63403,634.85811 887.38143,775.01011"
         id="path6280-0"
         sodipodi:nodetypes="cc"
         inkscape:label="eyelash right small" />
      <path
         style="display:inline;fill:none;fill-opacity:1;stroke:#00ff00;stroke-width:32;stroke-linecap:round;stroke-linejoin:round;stroke-miterlimit:4;stroke-dasharray:none;stroke-dashoffset:0;stroke-opacity:1;paint-order:fill markers stroke;;stop-color:#000000"
         d="M 191.14998,316.33524 C 452.8714,429.00654 673.84614,582.88408 815.80139,816.6723"
         id="path6280-5"
         sodipodi:nodetypes="cc"
         inkscape:label="sick las"
         inkscape:transform-center-x="309.09877"
         inkscape:transform-center-y="-240.65547" />
      <path
         style="display:inline;fill:none;fill-opacity:1;stroke:#00ff00;stroke-width:32;stroke-linecap:round;stroke-linejoin:round;stroke-miterlimit:4;stroke-dasharray:none;stroke-dashoffset:0;stroke-opacity:1;paint-order:fill markers stroke;;stop-color:#000000"
         d="M 555.88491,367.33217 C 683.46609,483.30428 808.63404,634.85811 887.38144,775.01011"
         id="path6280-0-3"
         sodipodi:nodetypes="cc"
         inkscape:label="sick lash" />
    </g>
  </g>
</svg>
