<?xml version="1.0" encoding="UTF-8" standalone="no"?>
<!-- Created with Inkscape (http://www.inkscape.org/) -->

<svg
   version="1.1"
   id="svg824"
   width="1706.6667"
   height="1706.6667"
   viewBox="0 0 1706.6667 1706.6667"
   sodipodi:docname="ying_party.svg"
   inkscape:version="1.1 (c68e22c387, 2021-05-23)"
   inkscape:export-filename="D:\Pictures\yingmotes\ying_look_up.png"
   inkscape:export-xdpi="72"
   inkscape:export-ydpi="72"
   xmlns:inkscape="http://www.inkscape.org/namespaces/inkscape"
   xmlns:sodipodi="http://sodipodi.sourceforge.net/DTD/sodipodi-0.dtd"
   xmlns="http://www.w3.org/2000/svg"
   xmlns:svg="http://www.w3.org/2000/svg">
  <defs
     id="defs828" />
  <sodipodi:namedview
     id="namedview826"
     pagecolor="#ffffff"
     bordercolor="#666666"
     borderopacity="1.0"
     inkscape:pageshadow="2"
     inkscape:pageopacity="0.0"
     inkscape:pagecheckerboard="0"
     showgrid="false"
     inkscape:zoom="0.32026963"
     inkscape:cx="958.56732"
     inkscape:cy="925.78244"
     inkscape:window-width="1920"
     inkscape:window-height="1001"
     inkscape:window-x="-9"
     inkscape:window-y="-9"
     inkscape:window-maximized="1"
     inkscape:current-layer="g12988" />
  <g
     id="layer1"
     inkscape:label="Ying"
     style="display:inline"
     inkscape:groupmode="layer">
    <path
       style="display:none;fill:#123456;stroke:#123456;stroke-width:64;stroke-linecap:round;stroke-linejoin:round;-inkscape-stroke:none;paint-order:fill markers stroke;stop-color:#000000"
       d="m 1298.031,865.09775 c 70.7982,131.45402 185.3824,239.02475 198.7064,401.82835 -29.438,-19.1346 -55.9321,-14.719 -79.4825,13.2471 91.0222,54.7003 58.5139,175.917 81.6903,267.1496 l -99.3531,6.6236 c 66.7588,58.9185 81.773,128.1858 90.5218,198.7063 l -494.50725,2.2079 c -24.3802,-41.4813 23.11455,-208.5632 66.23555,-227.0436 0,0 3.3791,-20.0154 -75.35325,-9.4549 C 1015.23,1271.0896 1172.1837,1096.1858 1298.031,865.09775 Z"
       id="path3091"
       sodipodi:nodetypes="cccccccccc"
       inkscape:label="mane" />
    <path
       style="opacity:1;fill:#ffcb4c;fill-opacity:1;stroke:#ffcb4c;stroke-width:64;stroke-linecap:round;stroke-linejoin:round;stroke-miterlimit:4;stroke-dasharray:none;stroke-dashoffset:0;stroke-opacity:1;paint-order:fill markers stroke;stop-color:#000000"
       d="m 848.0933,1338.888 -64.7849,239.5079 62.82173,-25.5214 -51.04266,200.2443 459.38383,-15.7054 c 0,0 -127.6066,-94.2326 -149.2016,-184.5389 -21.5949,-90.3062 51.0427,-253.25 51.0427,-253.25 z"
       id="path3340"
       inkscape:label="neck" />
    <g
       id="g12988"
       inkscape:label="head"
       transform="rotate(25.753394,1095.1246,1162.5366)">
      <path
         style="display:inline;fill:none;fill-opacity:1;stroke:#f19020;stroke-width:32;stroke-linecap:round;stroke-linejoin:round;stroke-miterlimit:4;stroke-dasharray:none;stroke-dashoffset:0;stroke-opacity:1;paint-order:fill markers stroke;stop-color:#000000"
         d="m 132.33538,655.57205 c 168.03757,38.59874 351.40305,109.399 488.71443,193.00114"
         id="path6280-0-6"
         sodipodi:nodetypes="cc"
         inkscape:label="eyelash left small"
         inkscape:transform-center-x="215.61782"
         inkscape:transform-center-y="-131.70666" />
      <path
         style="display:inline;fill:none;fill-opacity:1;stroke:#f19020;stroke-width:32;stroke-linecap:round;stroke-linejoin:round;stroke-miterlimit:4;stroke-dasharray:none;stroke-dashoffset:0;stroke-opacity:1;paint-order:fill markers stroke;stop-color:#000000"
         d="M 20.405684,498.49783 C 298.80473,559.21753 545.05836,668.15462 728.97274,870.599"
         id="path6280-3"
         sodipodi:nodetypes="cc"
         inkscape:label="eyelash left big"
         inkscape:transform-center-x="285.98351"
         inkscape:transform-center-y="-231.7491" />
      <g
         id="g12997"
         inkscape:label="left eye"
         style="fill:#d19020;fill-opacity:1"
         transform="translate(-121.88703,27.599849)">
        <path
           id="path1915-9"
           style="display:inline;fill:#d19020;stroke:#65471b;stroke-width:64;stroke-linecap:round;stroke-linejoin:round;paint-order:fill markers stroke;stop-color:#000000;fill-opacity:1"
           inkscape:label="lefteye"
           d="m 930.68562,1061.856 c 10e-6,120.7167 -155.86024,218.577 -276.57698,218.577 -120.71674,0 -160.57699,-55.8603 -160.57698,-176.577 0,-120.71676 97.86025,-260.57701 218.57698,-260.57701 120.71673,0 218.57698,97.86025 218.57698,218.57701 z"
           sodipodi:nodetypes="sssss" />
      </g>
      <path
         style="display:inline;opacity:1;fill:#f19020;fill-opacity:1;stroke:#f19020;stroke-width:64;stroke-linecap:round;stroke-miterlimit:4;stroke-dasharray:none;stroke-dashoffset:0;stroke-opacity:1;paint-order:fill markers stroke;stop-color:#000000"
         d="m 868.07397,901.11241 c 0,0 -84.50193,-155.79713 -119.00376,-335.24237 -37.95544,-197.40762 -10.42425,-425.50632 55.34953,-444.94318 65.77379,-19.43687 216.87396,147.79617 275.61476,277.10427 58.7408,129.30811 94.2854,435.9274 94.2854,435.9274 z"
         id="path1640"
         inkscape:label="left ear"
         sodipodi:nodetypes="cssscc"
         inkscape:transform-center-x="57.917466"
         inkscape:transform-center-y="-261.97304" />
      <path
         id="path1148"
         style="display:inline;opacity:1;fill:#ffcb4c;stroke:#ffcb4c;stroke-width:64;stroke-linecap:round;stroke-linejoin:round;stroke-miterlimit:4;stroke-dasharray:6.4, 6.4;stroke-dashoffset:0;stroke-opacity:1;paint-order:fill markers stroke;stop-color:#000000"
         inkscape:label="head"
         d="m 1299.0547,1153.5586 c 0,0 -0.1078,-10.8206 -0.9512,-28.418 -0.4217,-8.7987 -1.0259,-19.2912 -1.8945,-30.9726 -0.8686,-11.6814 -1.9997,-24.5525 -3.4727,-38.1055 -1.4729,-13.553 -3.2888,-27.7877 -5.5234,-42.2012 -2.2347,-14.41345 -4.8892,-29.0047 -8.043,-43.26755 -1.5769,-7.13143 -3.279,-14.18175 -5.1152,-21.08594 -1.8362,-6.90419 -3.8068,-13.66232 -5.9219,-20.21289 -2.1151,-6.55056 -4.3733,-12.89234 -6.7871,-18.96289 -2.4138,-6.07055 -4.9828,-11.86984 -7.7148,-17.33398 -2.7321,-5.46415 -5.9346,-10.78574 -9.5391,-15.96094 -3.6045,-5.1752 -7.6114,-10.20474 -11.9492,-15.08399 -4.3379,-4.87924 -9.0074,-9.60926 -13.9395,-14.18554 -4.9321,-4.57628 -10.1264,-8.99932 -15.5136,-13.26563 -5.3873,-4.2663 -10.9666,-8.37489 -16.67,-12.32422 -5.7033,-3.94932 -11.5298,-7.73794 -17.4101,-11.36328 -11.7607,-7.25067 -23.7371,-13.84709 -35.3711,-19.75976 -11.634,-5.91267 -22.9257,-11.14156 -33.3203,-15.66016 -10.3946,-4.5186 -19.8912,-8.32606 -27.9336,-11.39453 -16.085,-6.13693 -26.3535,-9.31836 -26.3535,-9.31836 -106.83135,-15.98813 -232.17461,6.96944 -312.62504,60.01367 -101.26734,66.76968 -136.88727,176.62945 -198.70703,211.95509 -61.81975,35.3255 -225.20029,77.273 -280.39649,83.8965 -55.19621,6.6235 -183.250354,6.6246 -161.171871,123.6406 22.078481,117.016 112.599211,282.6048 377.541011,247.2793 264.94179,-35.3256 313.51517,-44.1575 536.50782,-88.3145 22.8973,-4.5341 53.8481,-18.3195 86.8281,-36.9472 l 213.8711,-11.4278 -92.9258,-75.2558 c 5.3578,-4.8405 10.5999,-9.7184 15.6328,-14.6367 l 142.0762,-2.375 -84.8808,-69.668 c 3.4806,-6.5537 6.4805,-13.0207 8.6269,-19.3066 1.0523,-3.0817 2.0328,-6.6268 3.0469,-9.9766 z" />
      <path
         style="display:none;fill:#123456;stroke:#123456;stroke-width:64;stroke-linecap:round;stroke-linejoin:round;-inkscape-stroke:none;paint-order:fill markers stroke;stop-color:#000000"
         d="M 880.93148,744.0449 C 763.91552,771.643 622.61323,916.25706 622.61323,916.25706 620.95257,833.21142 611.27974,749.4374 735.2135,677.80944 c -124.69479,-7.45678 -249.2876,-15.1175 -408.45194,46.36482 0,0 303.22641,-263.62224 490.14233,-280.39675 172.2122,-15.45493 264.94181,37.53343 264.94181,37.53343 -0.1923,-45.68323 -31.4577,-88.25915 -90.52179,-128.0552 0,0 295.85169,97.14532 333.38509,194.29065 37.5334,97.14533 28.702,167.79647 28.702,167.79647 l -243.7525,34.92308 c 0,0 -111.71105,-33.81914 -228.72702,-6.22104 z"
         id="path1637"
         sodipodi:nodetypes="zcccsccsccz"
         inkscape:label="top hair" />
      <g
         id="g1185"
         transform="matrix(0.82567167,0.00459813,0.1424874,0.92471639,84.709437,51.483278)"
         style="stroke-width:1.14493">
        <path
           style="fill:#ff0000;stroke:#800000;stroke-width:73.2754;stroke-linecap:round;stroke-linejoin:round;paint-order:fill markers stroke;stop-color:#000000"
           id="path864"
           transform="rotate(-30.521488)"
           sodipodi:type="arc"
           sodipodi:cx="681.05121"
           sodipodi:cy="477.3006"
           sodipodi:rx="719.70605"
           sodipodi:ry="719.70605"
           sodipodi:start="1.2904781"
           sodipodi:end="2.285888"
           sodipodi:arc-type="slice"
           d="M 880.16614,1168.9147 A 719.70605,719.70605 0 0 1 209.14957,1020.7025 L 681.05121,477.3006 Z" />
        <path
           style="fill:#ff0000;stroke:#800000;stroke-width:73.2754;stroke-linecap:round;stroke-linejoin:round;paint-order:fill markers stroke;stop-color:#000000"
           d="M 785.00568,302.2034 1036.722,277.83932"
           id="path1220" />
        <path
           style="fill:#ff0000;stroke:#800000;stroke-width:73.2754;stroke-linecap:round;stroke-linejoin:round;paint-order:fill markers stroke;stop-color:#000000"
           d="M 768.96651,448.60929 1171.752,406.83437"
           id="path1222" />
        <path
           style="fill:#ff0000;stroke:#800000;stroke-width:73.2754;stroke-linecap:round;stroke-linejoin:round;paint-order:fill markers stroke;stop-color:#000000"
           d="M 738.86613,601.79853 1351.856,559.94593"
           id="path1224" />
      </g>
      <g
         id="g2587"
         transform="matrix(0.59781602,0.73181199,-0.68633992,0.58848704,1092.5024,357.11303)"
         style="stroke-width:1.08206">
        <path
           style="fill:none;stroke:#2ad4ff;stroke-width:69.2518;stroke-linecap:round;stroke-linejoin:round;stroke-miterlimit:4;stroke-dasharray:none;paint-order:fill markers stroke;stop-color:#000000"
           d="m 296.59525,1352.8472 393.12848,200.4314 c 0,0 122.99199,81.4022 84.68145,120.718 -38.3108,39.316 -147.17761,17.3832 -174.2155,-36.6204 -27.0378,-54.0036 59.00847,-25.1527 59.00847,-25.1527"
           id="path1584"
           sodipodi:nodetypes="ccssc" />
        <path
           style="fill:#00ffcc;stroke:#37c8ab;stroke-width:103.878;stroke-linecap:round;stroke-linejoin:round;stroke-miterlimit:4;stroke-dasharray:none;paint-order:fill markers stroke;stop-color:#000000"
           d="m 296.59525,1352.8472 237.31076,120.1951"
           id="path2218"
           sodipodi:nodetypes="cc" />
      </g>
      <path
         id="path13483"
         style="display:inline;opacity:1;fill:#ffcb4c;stroke:#ffcb4c;stroke-width:64;stroke-linecap:round;stroke-linejoin:round;stroke-miterlimit:4;stroke-dasharray:6.4, 6.4;stroke-dashoffset:0;stroke-opacity:1;paint-order:fill markers stroke;stop-color:#000000"
         inkscape:label="right ear"
         d="M 1062.5955,91.267999 C 989.55737,122.61949 954.61335,447.62481 963.41318,537.48968 c 7.83485,80.01048 15.39366,286.66163 17.48498,345.24621 83.11504,361.99691 268.10024,269.30131 390.21114,266.57421 42.6484,-146.21 110.8519,-444.79298 30.9046,-653.52816 C 1292.5565,209.99845 1109.959,70.937266 1062.5955,91.267999 Z"
         sodipodi:nodetypes="ssccss"
         inkscape:transform-center-x="25.537722"
         inkscape:transform-center-y="-383.92116" />
      <g
         id="g13003"
         inkscape:label="face">
        <path
           style="opacity:1;fill:none;fill-opacity:1;stroke:#65471b;stroke-width:64;stroke-linecap:round;stroke-linejoin:round;stroke-miterlimit:4;stroke-dasharray:none;stroke-dashoffset:0;stroke-opacity:1;paint-order:fill markers stroke;stop-color:#000000"
           d="m 83.898236,1201.0695 68.443294,6.6235 -37.53342,39.7413"
           id="path2163"
           inkscape:label="left nostril" />
        <path
           style="opacity:1;fill:none;fill-opacity:1;stroke:#65471b;stroke-width:64;stroke-linecap:round;stroke-linejoin:round;stroke-miterlimit:4;stroke-dasharray:none;stroke-dashoffset:0;stroke-opacity:1;paint-order:fill markers stroke;stop-color:#000000"
           d="m 401.82839,1251.85 -59.6119,-44.157 121.43166,-17.6628"
           id="path2198"
           inkscape:label="right nostril" />
        <path
           style="opacity:1;fill:none;fill-opacity:1;stroke:#65471b;stroke-width:64;stroke-linecap:round;stroke-linejoin:round;stroke-miterlimit:4;stroke-dasharray:none;stroke-dashoffset:0;stroke-opacity:1;paint-order:fill markers stroke;stop-color:#000000"
           d="m 132.4709,1346.7875 90.52178,-72.859 c 0,0 227.99027,157.1936 304.17428,154.6413 131.8052,-4.4157 125.46854,-93.7361 125.46854,-93.7361"
           id="path2200"
           sodipodi:nodetypes="ccsc"
           inkscape:label="mouf" />
        <path
           style="opacity:1;fill:#ffffff;fill-opacity:1;stroke:#65471b;stroke-width:64;stroke-linecap:round;stroke-linejoin:round;stroke-miterlimit:4;stroke-dasharray:none;stroke-dashoffset:0;stroke-opacity:1;paint-order:fill markers stroke;stop-color:#000000"
           d="m 222.99268,1530.0389 -90.52178,-183.2514 90.52178,-72.859 103.76887,66.2354 z"
           id="path2202"
           sodipodi:nodetypes="ccccc"
           inkscape:label="toof" />
      </g>
      <path
         style="opacity:1;fill:none;fill-opacity:1;stroke:#ffcb4c;stroke-width:32;stroke-linecap:round;stroke-linejoin:round;stroke-miterlimit:4;stroke-dasharray:none;stroke-dashoffset:0;stroke-opacity:1;paint-order:fill markers stroke;stop-color:#000000"
         d="m 106.94748,403.17608 c 268.00926,96.76751 497.81723,237.11148 653.54194,461.96263"
         id="path6280"
         sodipodi:nodetypes="cc"
         inkscape:label="eyelash right big"
         inkscape:transform-center-x="258.59617"
         inkscape:transform-center-y="-273.28904" />
      <path
         style="display:inline;fill:none;fill-opacity:1;stroke:#ffcb4c;stroke-width:32;stroke-linecap:round;stroke-linejoin:round;stroke-miterlimit:4;stroke-dasharray:none;stroke-dashoffset:0;stroke-opacity:1;paint-order:fill markers stroke;stop-color:#000000"
         d="M 468.85311,448.15095 C 602.88403,556.60462 736.54916,700.71989 823.21557,836.11808"
         id="path6280-0"
         sodipodi:nodetypes="cc"
         inkscape:label="eyelash right small"
         inkscape:transform-center-x="130.7821"
         inkscape:transform-center-y="-205.78314" />
      <circle
         style="fill:#800000;stroke:none;stroke-width:64;stroke-linecap:round;stroke-linejoin:round;paint-order:fill markers stroke;stop-color:#000000"
         id="path1334"
         cx="650.97528"
         cy="442.46277"
         transform="rotate(-25.753393)"
         r="71.502129" />
      <g
         id="g12993"
         inkscape:label="right eye"
         transform="rotate(-1.7431344,1050.3547,898.88056)"
         style="display:inline;fill:#d19020;fill-opacity:1">
        <path
           style="opacity:1;fill:#d19020;fill-opacity:1;stroke:#65471b;stroke-width:64;stroke-linecap:round;stroke-linejoin:round;stroke-miterlimit:4;stroke-dasharray:none;stroke-dashoffset:0;stroke-opacity:1;paint-order:fill markers stroke;stop-color:#000000"
           d="m 661.97569,1226.0485 53.36716,-115.5008 86.53085,168.711 z"
           id="path7852"
           inkscape:label="eyenub"
           sodipodi:nodetypes="cccc" />
        <path
           id="path1915"
           style="opacity:1;fill:#d19020;fill-opacity:1;stroke:#65471b;stroke-width:64;stroke-linecap:round;stroke-linejoin:round;paint-order:fill markers stroke;stop-color:#000000"
           inkscape:label="righteye"
           d="m 1150.289,1075.2222 c 0,120.7167 -151.8603,218.5769 -272.57702,218.5769 -120.71671,0 -164.57695,-71.8602 -164.57699,-192.5769 -2e-5,-120.71675 97.86024,-244.57702 218.57699,-244.57701 120.71672,-2e-5 218.57702,97.86025 218.57702,218.57701 z"
           sodipodi:nodetypes="sssss" />
        <path
           id="path1749"
           style="display:inline;fill:#d19020;fill-opacity:1;stroke:#65471b;stroke-width:64;stroke-linecap:round;stroke-linejoin:round;-inkscape-stroke:none;paint-order:fill markers stroke;stop-color:#000000"
           d="m 925.78349,1058.1404 c -111.90142,23.5165 -174.60086,104.1948 -204.10291,151.6744 39.96804,93.9647 177.10005,86.8811 225.00615,74.9035 60.34347,-15.0872 171.34587,-89.0116 196.72947,-172.4815 -38.4856,-7.457 -105.7313,-77.6129 -217.63271,-54.0964 z"
           inkscape:label="right lid"
           sodipodi:nodetypes="zcscz" />
      </g>
    </g>
  </g>
  <g
     inkscape:groupmode="layer"
     id="layer2"
     inkscape:label="confetti">
    <path
       style="display:inline;fill:#ff2a2a;fill-opacity:1;stroke:none;stroke-width:96.0006;stroke-linecap:round;stroke-linejoin:round;stroke-miterlimit:4;stroke-dasharray:none;paint-order:fill markers stroke;stop-color:#000000"
       d="M 104.59934,316.82463 283.58316,488.77761 357.51123,234.94226 Z"
       id="path4733" />
    <path
       style="display:inline;fill:#ff2a2a;fill-opacity:1;stroke:none;stroke-width:96.0003;stroke-linecap:round;stroke-linejoin:round;stroke-miterlimit:4;stroke-dasharray:none;paint-order:fill markers stroke;stop-color:#000000"
       d="m 1187.878,1499.8189 105.1546,163.6553 159.9202,-209.6311 z"
       id="path4733-2" />
    <path
       style="display:inline;fill:#ff2a2a;fill-opacity:1;stroke:none;stroke-width:96.0003;stroke-linecap:round;stroke-linejoin:round;stroke-miterlimit:4;stroke-dasharray:none;paint-order:fill markers stroke;stop-color:#000000"
       d="M 1610.8095,457.51764 1486.2867,308.0699 1353.4219,535.81232 Z"
       id="path4733-2-5" />
    <path
       style="display:inline;fill:#55d400;fill-opacity:1;stroke:none;stroke-width:96.0003;stroke-linecap:round;stroke-linejoin:round;stroke-miterlimit:4;stroke-dasharray:none;paint-order:fill markers stroke;stop-color:#000000"
       d="M 862.59004,83.527385 986.01864,277.5546 1072.3819,41.156915 Z"
       id="path4733-2-7" />
    <path
       style="display:inline;fill:#ff2a2a;fill-opacity:1;stroke:none;stroke-width:96.0002;stroke-linecap:round;stroke-linejoin:round;stroke-miterlimit:4;stroke-dasharray:none;paint-order:fill markers stroke;stop-color:#000000"
       d="m 811.56143,1476.6773 155.21351,64.0909 -47.66759,-177.4969 z"
       id="path4733-2-7-7" />
    <path
       style="display:inline;fill:#55d400;fill-opacity:1;stroke:none;stroke-width:96.0007;stroke-linecap:round;stroke-linejoin:round;stroke-miterlimit:4;stroke-dasharray:none;paint-order:fill markers stroke;stop-color:#000000"
       d="m 539.38278,1461.8512 95.33645,128.4687 78.3451,-146.966 z"
       id="path4733-2-7-8" />
    <path
       style="display:inline;fill:#55d400;fill-opacity:1;stroke:none;stroke-width:96.0003;stroke-linecap:round;stroke-linejoin:round;stroke-miterlimit:4;stroke-dasharray:none;paint-order:fill markers stroke;stop-color:#000000"
       d="m 1531.0483,1624.1662 153.6548,-64.642 -108.3453,-142.8118 z"
       id="path4733-2-7-88"
       sodipodi:nodetypes="cccc" />
    <path
       style="display:inline;fill:#55d400;fill-opacity:1;stroke:none;stroke-width:96.0003;stroke-linecap:round;stroke-linejoin:round;stroke-miterlimit:4;stroke-dasharray:none;paint-order:fill markers stroke;stop-color:#000000"
       d="M 163.595,234.86636 317.2498,170.22436 208.9045,27.412563 Z"
       id="path4733-2-7-88-1"
       sodipodi:nodetypes="cccc" />
    <path
       style="display:inline;fill:#55d400;fill-opacity:1;stroke:none;stroke-width:96.0001;stroke-linecap:round;stroke-linejoin:round;stroke-miterlimit:4;stroke-dasharray:none;paint-order:fill markers stroke;stop-color:#000000"
       d="m 338.74058,555.82625 125.5829,-64.642 -88.55119,-142.81179 z"
       id="path4733-2-7-88-1-4"
       sodipodi:nodetypes="cccc" />
    <path
       style="display:inline;fill:#ff2a2a;fill-opacity:1;stroke:none;stroke-width:96.0003;stroke-linecap:round;stroke-linejoin:round;stroke-miterlimit:4;stroke-dasharray:none;paint-order:fill markers stroke;stop-color:#000000"
       d="M 300.02077,1670.6208 525.64185,1544.5082 350.32824,1443.2141 Z"
       id="path4733-0"
       inkscape:transform-center-x="14.75846"
       inkscape:transform-center-y="-5.8283216"
       sodipodi:nodetypes="cccc" />
    <path
       style="display:inline;fill:#00aad4;fill-opacity:1;stroke:none;stroke-width:96.0002;stroke-linecap:round;stroke-linejoin:round;stroke-miterlimit:4;stroke-dasharray:none;paint-order:fill markers stroke;stop-color:#000000"
       d="M 370.62299,637.9356 595.53836,701.17338 553.80298,457.9972 Z"
       id="path4733-2-7-9" />
    <path
       style="display:inline;fill:#00aad4;fill-opacity:1;stroke:none;stroke-width:96.0002;stroke-linecap:round;stroke-linejoin:round;stroke-miterlimit:4;stroke-dasharray:none;paint-order:fill markers stroke;stop-color:#000000"
       d="m 1273.4852,654.63914 91.7672,214.85968 163.2634,-184.99076 z"
       id="path4733-2-7-9-3" />
    <path
       style="display:inline;fill:#00aad4;fill-opacity:1;stroke:none;stroke-width:95.9999;stroke-linecap:round;stroke-linejoin:round;stroke-miterlimit:4;stroke-dasharray:none;paint-order:fill markers stroke;stop-color:#000000"
       d="m 1614.9158,1301.7028 85.903,-117.7597 -161.3158,-20.2673 z"
       id="path4733-2-7-9-4" />
    <path
       style="display:inline;fill:#00aad4;fill-opacity:1;stroke:none;stroke-width:96.0008;stroke-linecap:round;stroke-linejoin:round;stroke-miterlimit:4;stroke-dasharray:none;paint-order:fill markers stroke;stop-color:#000000"
       d="m 482.27505,1407.1136 128.32968,-33.7222 -97.41294,-80.2449 z"
       id="path4733-2-7-9-4-5" />
    <path
       style="display:inline;fill:#00aad4;fill-opacity:1;stroke:none;stroke-width:96.0008;stroke-linecap:round;stroke-linejoin:round;stroke-miterlimit:4;stroke-dasharray:none;paint-order:fill markers stroke;stop-color:#000000"
       d="M 51.36282,512.8494 179.6925,479.1272 82.27956,398.8823 Z"
       id="path4733-2-7-9-4-5-2" />
  </g>
</svg>
