<?xml version="1.0" encoding="UTF-8" standalone="no"?>
<!-- Created with Inkscape (http://www.inkscape.org/) -->

<svg
   version="1.1"
   id="svg824"
   width="1706.6667"
   height="1706.6667"
   viewBox="0 0 1706.6667 1706.6667"
   sodipodi:docname="ying_starstruck.svg"
   inkscape:version="1.1 (c68e22c387, 2021-05-23)"
   inkscape:export-filename="D:\Pictures\yingmotes\ying_aww.png"
   inkscape:export-xdpi="72"
   inkscape:export-ydpi="72"
   xmlns:inkscape="http://www.inkscape.org/namespaces/inkscape"
   xmlns:sodipodi="http://sodipodi.sourceforge.net/DTD/sodipodi-0.dtd"
   xmlns="http://www.w3.org/2000/svg"
   xmlns:svg="http://www.w3.org/2000/svg">
  <defs
     id="defs828" />
  <sodipodi:namedview
     id="namedview826"
     pagecolor="#ffffff"
     bordercolor="#666666"
     borderopacity="1.0"
     inkscape:pageshadow="2"
     inkscape:pageopacity="0.0"
     inkscape:pagecheckerboard="0"
     showgrid="false"
     inkscape:zoom="0.45292965"
     inkscape:cx="702.09578"
     inkscape:cy="932.81594"
     inkscape:window-width="1920"
     inkscape:window-height="1001"
     inkscape:window-x="-9"
     inkscape:window-y="-9"
     inkscape:window-maximized="1"
     inkscape:current-layer="g12988" />
  <g
     id="layer1"
     inkscape:label="Ying"
     style="display:inline"
     inkscape:groupmode="layer">
    <g
       id="g11101"
       transform="rotate(10.596926,1621.6885,278.01755)">
      <g
         id="g11065"
         inkscape:label="hand"
         transform="matrix(-0.21547621,-1.0255215,-1.1418282,0.08735501,2510.7342,1773.398)"
         style="display:inline;fill:none;fill-opacity:1;stroke:#888800;stroke-width:0.916778;stroke-opacity:1">
        <path
           style="fill:none;fill-opacity:1;stroke:#a18020;stroke-width:88.0107;stroke-linecap:round;stroke-linejoin:round;stroke-miterlimit:4;stroke-dasharray:none;stroke-opacity:1;paint-order:fill markers stroke;stop-color:#000000"
           d="m 268.04516,1433.4324 c 0,0 -238.726995,27.9141 -243.750335,94.1165"
           id="path11055"
           sodipodi:nodetypes="cc" />
        <path
           style="fill:none;fill-opacity:1;stroke:#a18020;stroke-width:88.0107;stroke-linecap:round;stroke-linejoin:round;stroke-miterlimit:4;stroke-dasharray:none;stroke-opacity:1;paint-order:fill markers stroke;stop-color:#000000"
           d="M 465.3647,1469.3989 89.494471,1497.1525"
           id="path11057"
           sodipodi:nodetypes="cc" />
        <path
           style="fill:none;fill-opacity:1;stroke:#a18020;stroke-width:88.0107;stroke-linecap:round;stroke-linejoin:round;stroke-miterlimit:4;stroke-dasharray:none;stroke-opacity:1;paint-order:fill markers stroke;stop-color:#000000"
           d="M 83.585394,1562.0096 450.17823,1535.4753"
           id="path11059"
           sodipodi:nodetypes="cc" />
        <path
           style="fill:none;fill-opacity:1;stroke:#a18020;stroke-width:88.0107;stroke-linecap:round;stroke-linejoin:round;stroke-miterlimit:4;stroke-dasharray:none;stroke-opacity:1;paint-order:fill markers stroke;stop-color:#000000"
           d="M 71.288958,1621.58 402.78195,1595.2649"
           id="path11061"
           sodipodi:nodetypes="cc" />
        <path
           style="fill:none;fill-opacity:1;stroke:#a18020;stroke-width:88.0107;stroke-linecap:round;stroke-linejoin:round;stroke-miterlimit:4;stroke-dasharray:none;stroke-opacity:1;paint-order:fill markers stroke;stop-color:#000000"
           d="m 87.397854,1472.6573 c 0,0 -91.7196952,27.7007 -88.27995681,86.167 C 2.5576437,1617.2906 71.288951,1621.58 71.288951,1621.58 l 16.108903,-148.9227"
           id="path11063" />
      </g>
      <g
         id="layer2-2"
         inkscape:label="hand"
         transform="matrix(-0.21547621,-1.0255215,-1.1418282,0.08735501,2510.7342,1773.398)"
         style="display:inline;opacity:0.161359;fill:none;fill-opacity:1;stroke:#000000;stroke-width:0.916778;stroke-opacity:1">
        <path
           style="fill:none;fill-opacity:1;stroke:#000000;stroke-width:88.0107;stroke-linecap:round;stroke-linejoin:round;stroke-miterlimit:4;stroke-dasharray:none;stroke-opacity:1;paint-order:fill markers stroke;stop-color:#000000"
           d="m 268.04516,1433.4324 c 0,0 -238.726995,27.9141 -243.750335,94.1165"
           id="path15392-7"
           sodipodi:nodetypes="cc" />
        <path
           style="fill:none;fill-opacity:1;stroke:#000000;stroke-width:88.0107;stroke-linecap:round;stroke-linejoin:round;stroke-miterlimit:4;stroke-dasharray:none;stroke-opacity:1;paint-order:fill markers stroke;stop-color:#000000"
           d="M 465.3647,1469.3989 89.494471,1497.1525"
           id="path20257-7"
           sodipodi:nodetypes="cc" />
        <path
           style="fill:none;fill-opacity:1;stroke:#000000;stroke-width:88.0107;stroke-linecap:round;stroke-linejoin:round;stroke-miterlimit:4;stroke-dasharray:none;stroke-opacity:1;paint-order:fill markers stroke;stop-color:#000000"
           d="M 83.585394,1562.0096 450.17823,1535.4753"
           id="path20259-0"
           sodipodi:nodetypes="cc" />
        <path
           style="fill:none;fill-opacity:1;stroke:#000000;stroke-width:88.0107;stroke-linecap:round;stroke-linejoin:round;stroke-miterlimit:4;stroke-dasharray:none;stroke-opacity:1;paint-order:fill markers stroke;stop-color:#000000"
           d="M 71.288958,1621.58 402.78195,1595.2649"
           id="path20261-9"
           sodipodi:nodetypes="cc" />
        <path
           style="fill:none;fill-opacity:1;stroke:#000000;stroke-width:88.0107;stroke-linecap:round;stroke-linejoin:round;stroke-miterlimit:4;stroke-dasharray:none;stroke-opacity:1;paint-order:fill markers stroke;stop-color:#000000"
           d="m 87.397854,1472.6573 c 0,0 -91.7196952,27.7007 -88.27995681,86.167 C 2.5576437,1617.2906 71.288951,1621.58 71.288951,1621.58 l 16.108903,-148.9227"
           id="path20376-5" />
      </g>
    </g>
    <path
       style="display:none;fill:#123456;stroke:#123456;stroke-width:64;stroke-linecap:round;stroke-linejoin:round;-inkscape-stroke:none;paint-order:fill markers stroke;stop-color:#000000"
       d="m 1298.031,866.83969 c 70.7982,131.45402 185.3824,239.02471 198.7064,401.82831 -29.438,-19.1346 -55.9321,-14.719 -79.4825,13.2471 91.0222,54.7003 58.5139,175.917 81.6903,267.1496 l -99.3531,6.6236 c 66.7588,58.9185 81.773,128.1858 90.5218,198.7063 l -494.50725,2.2079 c -24.3802,-41.4813 23.11455,-208.5632 66.23555,-227.0436 0,0 3.3791,-20.0154 -75.35325,-9.4549 C 1015.23,1272.8315 1172.1837,1097.9277 1298.031,866.83969 Z"
       id="path3091"
       sodipodi:nodetypes="cccccccccc"
       inkscape:label="mane" />
    <path
       style="display:inline;fill:#ffcb4c;fill-opacity:1;stroke:#ffcb4c;stroke-width:64;stroke-linecap:round;stroke-linejoin:round;stroke-miterlimit:4;stroke-dasharray:none;stroke-dashoffset:0;stroke-opacity:1;paint-order:fill markers stroke;stop-color:#000000"
       d="m 848.0933,1340.6299 -64.7849,239.5079 62.82173,-25.5214 -51.04266,200.2443 459.38383,-15.7054 c 0,0 -127.6066,-94.2326 -149.2016,-184.5389 -21.5949,-90.3062 51.0427,-253.25 51.0427,-253.25 z"
       id="path3340"
       inkscape:label="neck" />
    <g
       id="g12988"
       inkscape:label="head"
       transform="rotate(14.603029,1184.5241,1441.8619)">
      <path
         sodipodi:type="star"
         style="display:inline;fill:#ffb312;fill-opacity:1;stroke:#c27814;stroke-width:88.8191;stroke-linecap:round;stroke-linejoin:round;stroke-miterlimit:4;stroke-dasharray:none;stroke-opacity:1;paint-order:fill markers stroke;stop-color:#000000"
         id="path1451-6"
         inkscape:flatsided="false"
         sodipodi:sides="5"
         sodipodi:cx="-440.25403"
         sodipodi:cy="409.03036"
         sodipodi:r1="484.78238"
         sodipodi:r2="242.39119"
         sodipodi:arg1="1.1388384"
         sodipodi:arg2="1.7671569"
         inkscape:rounded="0"
         inkscape:randomized="0"
         transform="matrix(0.59051203,-0.41255461,0.41280026,0.59086363,551.92108,632.80038)"
         inkscape:transform-center-x="95.380519"
         inkscape:transform-center-y="42.861471"
         d="M -237.30004,849.28442 -487.54483,646.76355 -796.24428,738.09707 -680.96539,437.51774 -863.2221,172.15072 -541.73103,188.90334 -345.67242,-66.43601 -262.25891,244.49701 41.168691,352.05563 -228.76999,527.47018 Z" />
      <path
         style="display:inline;fill:none;fill-opacity:1;stroke:#f19020;stroke-width:32;stroke-linecap:round;stroke-linejoin:round;stroke-miterlimit:4;stroke-dasharray:none;stroke-dashoffset:0;stroke-opacity:1;paint-order:fill markers stroke;stop-color:#000000"
         d="M 103.27127,866.18303 C 272.8829,835.22534 469.30154,827.7893 628.47545,850.31487"
         id="path6280-0-6"
         sodipodi:nodetypes="cc"
         inkscape:label="eyelash left small"
         inkscape:transform-center-x="245.38549"
         inkscape:transform-center-y="-81.939857" />
      <path
         style="display:inline;fill:none;fill-opacity:1;stroke:#f19020;stroke-width:32;stroke-linecap:round;stroke-linejoin:round;stroke-miterlimit:4;stroke-dasharray:none;stroke-dashoffset:0;stroke-opacity:1;paint-order:fill markers stroke;stop-color:#000000"
         d="M -60.019482,698.09977 C 224.37421,680.40393 491.02747,717.8762 723.27692,862.33527"
         id="path6280-3"
         sodipodi:nodetypes="cc"
         inkscape:label="eyelash left big"
         inkscape:transform-center-x="309.88345"
         inkscape:transform-center-y="-210.71201" />
      <path
         style="opacity:1;fill:#f19020;fill-opacity:1;stroke:#f19020;stroke-width:64;stroke-linecap:round;stroke-miterlimit:4;stroke-dasharray:none;stroke-dashoffset:0;stroke-opacity:1;paint-order:fill markers stroke;stop-color:#000000"
         d="m 739.93918,1002.4031 c 0,0 -141.89198,-106.20729 -248.24774,-254.79876 C 374.68953,584.13895 304.34817,365.41749 355.97418,320.26509 c 51.62602,-45.15241 258.79864,43.60372 366.21519,136.51633 107.41656,92.91261 267.88187,356.59747 267.88187,356.59747 z"
         id="path1640"
         inkscape:label="left ear"
         sodipodi:nodetypes="cssscc"
         inkscape:transform-center-x="55.93538"
         inkscape:transform-center-y="-307.15733" />
      <path
         id="path1148"
         style="display:inline;opacity:1;fill:#ffcb4c;stroke:#ffcb4c;stroke-width:64;stroke-linecap:round;stroke-linejoin:round;stroke-miterlimit:4;stroke-dasharray:6.4, 6.4;stroke-dashoffset:0;stroke-opacity:1;paint-order:fill markers stroke;stop-color:#000000"
         inkscape:label="head"
         d="m 1300.4812,1152.9243 c 0,0 -0.1078,-10.8206 -0.9512,-28.418 -0.4217,-8.7987 -1.0259,-19.2912 -1.8945,-30.9726 -0.8686,-11.6814 -1.9997,-24.5525 -3.4727,-38.1055 -1.4729,-13.553 -3.2888,-27.7877 -5.5234,-42.2012 -2.2347,-14.41341 -4.8892,-29.00466 -8.043,-43.26751 -1.5769,-7.13143 -3.279,-14.18175 -5.1152,-21.08594 -1.8362,-6.90419 -3.8068,-13.66232 -5.9219,-20.21289 -2.1151,-6.55056 -4.3733,-12.89234 -6.7871,-18.96289 -2.4138,-6.07055 -4.9828,-11.86984 -7.7148,-17.33398 -2.7321,-5.46415 -5.9346,-10.78574 -9.5391,-15.96094 -3.6045,-5.1752 -7.6114,-10.20474 -11.9492,-15.08399 -4.3379,-4.87924 -9.0074,-9.60926 -13.9395,-14.18554 -4.9321,-4.57628 -10.1264,-8.99932 -15.5136,-13.26563 -5.3873,-4.2663 -10.9666,-8.37489 -16.67,-12.32422 -5.7033,-3.94932 -11.5298,-7.73794 -17.4101,-11.36328 -11.7607,-7.25067 -23.7371,-13.84709 -35.3711,-19.75976 -11.634,-5.91267 -22.9257,-11.14156 -33.3203,-15.66016 -10.3946,-4.5186 -19.8912,-8.32606 -27.9336,-11.39453 -16.085,-6.13693 -26.3535,-9.31836 -26.3535,-9.31836 -106.83131,-15.98813 -232.17457,6.96944 -312.625,60.01367 -101.26734,66.76968 -136.88727,176.62945 -198.70703,211.95505 -61.81975,35.3255 -225.20029,77.273 -280.39649,83.8965 -55.19621,6.6235 -183.250355,6.6246 -161.171872,123.6406 22.078482,117.016 112.599212,282.6048 377.541012,247.2793 264.94179,-35.3256 313.51517,-44.1575 536.50778,-88.3145 22.8973,-4.5341 53.8481,-18.3195 86.8281,-36.9472 l 213.8711,-11.4278 -92.9258,-75.2558 c 5.3578,-4.8405 10.5999,-9.7184 15.6328,-14.6367 l 142.0762,-2.375 -84.8808,-69.668 c 3.4806,-6.5537 6.4805,-13.0207 8.6269,-19.3066 1.0523,-3.0817 2.0328,-6.6268 3.0469,-9.9766 z" />
      <path
         style="display:none;fill:#123456;stroke:#123456;stroke-width:64;stroke-linecap:round;stroke-linejoin:round;-inkscape-stroke:none;paint-order:fill markers stroke;stop-color:#000000"
         d="M 880.93148,744.0449 C 763.91552,771.643 622.61323,916.25706 622.61323,916.25706 620.95257,833.21142 611.27974,749.4374 735.2135,677.80944 c -124.69479,-7.45678 -249.2876,-15.1175 -408.45194,46.36482 0,0 303.22641,-263.62224 490.14233,-280.39675 172.2122,-15.45493 264.94181,37.53343 264.94181,37.53343 -0.1923,-45.68323 -31.4577,-88.25915 -90.52179,-128.0552 0,0 295.85169,97.14532 333.38509,194.29065 37.5334,97.14533 28.702,167.79647 28.702,167.79647 l -243.7525,34.92308 c 0,0 -111.71105,-33.81914 -228.72702,-6.22104 z"
         id="path1637"
         sodipodi:nodetypes="zcccsccsccz"
         inkscape:label="top hair" />
      <path
         id="path13483"
         style="display:inline;opacity:1;fill:#ffcb4c;stroke:#ffcb4c;stroke-width:64;stroke-linecap:round;stroke-linejoin:round;stroke-miterlimit:4;stroke-dasharray:6.4, 6.4;stroke-dashoffset:0;stroke-opacity:1;paint-order:fill markers stroke;stop-color:#000000"
         inkscape:label="right ear"
         d="M 1021.0231,98.946039 C 947.32531,128.71373 905.3743,452.88907 912.23237,542.92296 c 6.10604,80.16093 9.20262,286.92709 10.02895,345.54315 0,0 10.71269,-0.89586 27.92543,-1.2297 8.60623,-0.16689 18.83765,-0.19318 30.16802,0.10358 11.33035,0.29676 23.75863,0.91614 36.76033,2.04134 13.0016,1.1252 26.5769,2.75615 40.1971,5.07452 6.8101,1.1592 13.6315,2.48995 20.3988,4.01584 6.7674,1.52588 13.4793,3.24588 20.0724,5.18404 6.5929,1.9382 13.0656,4.09396 19.3527,6.49003 6.287,2.39605 12.3882,5.03301 18.2377,7.93251 5.8495,2.89955 11.4484,6.06238 16.7287,9.51096 5.2805,3.44861 10.2429,7.1835 14.8226,11.22674 4.5796,4.04327 9.1335,8.45835 13.6452,13.18306 4.5117,4.72473 8.9806,9.75922 13.395,15.04087 4.4145,5.28168 8.7728,10.80992 13.0611,16.52393 4.2883,5.71402 8.5069,11.61374 12.6399,17.63557 8.2661,12.0436 16.192,24.5788 23.6622,37.1063 7.47,12.5275 14.4849,25.0462 20.9266,37.0612 6.4415,12.0149 12.3109,23.5257 17.4911,34.0315 5.1803,10.506 9.6701,20.0086 13.3564,28.0089 7.3726,16.0008 11.525,25.9934 11.525,25.9934 45.7945,-145.2553 120.4268,-442.29656 45.0037,-652.70875 C 1248.3679,222.61245 1068.8146,79.642353 1021.0231,98.946039 Z"
         inkscape:transform-center-x="-115.72816"
         inkscape:transform-center-y="-279.95864" />
      <g
         id="g13003"
         inkscape:label="face">
        <path
           style="opacity:1;fill:none;fill-opacity:1;stroke:#65471b;stroke-width:64;stroke-linecap:round;stroke-linejoin:round;stroke-miterlimit:4;stroke-dasharray:none;stroke-dashoffset:0;stroke-opacity:1;paint-order:fill markers stroke;stop-color:#000000"
           d="m 83.898236,1201.0695 68.443294,6.6235 -37.53342,39.7413"
           id="path2163"
           inkscape:label="left nostril" />
        <path
           style="opacity:1;fill:none;fill-opacity:1;stroke:#65471b;stroke-width:64;stroke-linecap:round;stroke-linejoin:round;stroke-miterlimit:4;stroke-dasharray:none;stroke-dashoffset:0;stroke-opacity:1;paint-order:fill markers stroke;stop-color:#000000"
           d="m 401.82839,1251.85 -59.6119,-44.157 121.43166,-17.6628"
           id="path2198"
           inkscape:label="right nostril" />
        <path
           style="opacity:1;fill:#ff5678;fill-opacity:1;stroke:#65471b;stroke-width:64;stroke-linecap:round;stroke-linejoin:round;stroke-miterlimit:4;stroke-dasharray:none;stroke-dashoffset:0;stroke-opacity:1;paint-order:fill markers stroke;stop-color:#000000"
           d="m 132.4709,1346.7875 c 0,0 23.25386,140.6263 138.81003,135.379 148.04787,-0.4857 266.71031,-36.0237 265.86935,-157.3631 0,0 -49.50319,17.8998 -115.73864,22.3155 -76.05792,5.0705 -198.41896,-73.1904 -198.41896,-73.1904 l -90.52178,72.859"
           id="path2200"
           sodipodi:nodetypes="ccsccc"
           inkscape:label="mouf" />
        <path
           style="opacity:1;fill:#ffffff;fill-opacity:1;stroke:#65471b;stroke-width:64;stroke-linecap:round;stroke-linejoin:round;stroke-miterlimit:4;stroke-dasharray:none;stroke-dashoffset:0;stroke-opacity:1;paint-order:fill markers stroke;stop-color:#000000"
           d="m 222.99268,1530.0389 -90.52178,-183.2514 90.52178,-72.859 103.76887,66.2354 z"
           id="path2202"
           sodipodi:nodetypes="ccccc"
           inkscape:label="toof" />
      </g>
      <path
         style="opacity:1;fill:none;fill-opacity:1;stroke:#ffcb4c;stroke-width:32;stroke-linecap:round;stroke-linejoin:round;stroke-miterlimit:4;stroke-dasharray:none;stroke-dashoffset:0;stroke-opacity:1;paint-order:fill markers stroke;stop-color:#000000"
         d="M 37.362611,522.92702 C 318.51761,569.23884 570.0512,665.35847 764.14039,858.06969"
         id="path6280"
         sodipodi:nodetypes="cc"
         inkscape:label="eyelash right big"
         inkscape:transform-center-x="267.61085"
         inkscape:transform-center-y="-229.36148" />
      <path
         style="display:inline;fill:none;fill-opacity:1;stroke:#ffcb4c;stroke-width:32;stroke-linecap:round;stroke-linejoin:round;stroke-miterlimit:4;stroke-dasharray:none;stroke-dashoffset:0;stroke-opacity:1;paint-order:fill markers stroke;stop-color:#000000"
         d="m 443.56183,455.23715 c 143.64508,95.355 290.28303,226.24767 389.31036,352.88623"
         id="path6280-0"
         sodipodi:nodetypes="cc"
         inkscape:label="eyelash right small"
         inkscape:transform-center-x="102.87503"
         inkscape:transform-center-y="-203.97091" />
      <path
         style="display:inline;fill:#ffffff;fill-opacity:1;stroke:#65471b;stroke-width:64;stroke-linecap:round;stroke-linejoin:round;stroke-miterlimit:4;stroke-dasharray:none;stroke-dashoffset:0;stroke-opacity:1;paint-order:fill markers stroke;stop-color:#000000"
         d="m 222.99268,1530.0389 -90.52178,-183.2514 90.52178,-72.859 103.76887,66.2354 z"
         id="path2202-8"
         sodipodi:nodetypes="ccccc"
         inkscape:label="toof" />
      <g
         id="layer2"
         inkscape:label="hand"
         transform="matrix(-0.54164937,-0.89707317,-1.0491281,0.45905646,2487.9507,1105.0313)"
         style="display:inline;fill:none;fill-opacity:1;stroke:#888800;stroke-width:0.916778;stroke-opacity:1">
        <path
           style="fill:none;fill-opacity:1;stroke:#a18020;stroke-width:88.0107;stroke-linecap:round;stroke-linejoin:round;stroke-miterlimit:4;stroke-dasharray:none;stroke-opacity:1;paint-order:fill markers stroke;stop-color:#000000"
           d="m 268.04516,1433.4324 c 0,0 -238.726995,27.9141 -243.750335,94.1165"
           id="path15392"
           sodipodi:nodetypes="cc" />
        <path
           style="fill:none;fill-opacity:1;stroke:#a18020;stroke-width:88.0107;stroke-linecap:round;stroke-linejoin:round;stroke-miterlimit:4;stroke-dasharray:none;stroke-opacity:1;paint-order:fill markers stroke;stop-color:#000000"
           d="M 465.3647,1469.3989 89.494471,1497.1525"
           id="path20257"
           sodipodi:nodetypes="cc" />
        <path
           style="fill:none;fill-opacity:1;stroke:#a18020;stroke-width:88.0107;stroke-linecap:round;stroke-linejoin:round;stroke-miterlimit:4;stroke-dasharray:none;stroke-opacity:1;paint-order:fill markers stroke;stop-color:#000000"
           d="M 83.585394,1562.0096 450.17823,1535.4753"
           id="path20259"
           sodipodi:nodetypes="cc" />
        <path
           style="fill:none;fill-opacity:1;stroke:#a18020;stroke-width:88.0107;stroke-linecap:round;stroke-linejoin:round;stroke-miterlimit:4;stroke-dasharray:none;stroke-opacity:1;paint-order:fill markers stroke;stop-color:#000000"
           d="M 71.288958,1621.58 402.78195,1595.2649"
           id="path20261"
           sodipodi:nodetypes="cc" />
        <path
           style="fill:none;fill-opacity:1;stroke:#a18020;stroke-width:88.0107;stroke-linecap:round;stroke-linejoin:round;stroke-miterlimit:4;stroke-dasharray:none;stroke-opacity:1;paint-order:fill markers stroke;stop-color:#000000"
           d="m 87.397854,1472.6573 c 0,0 -91.7196952,27.7007 -88.27995681,86.167 C 2.5576437,1617.2906 71.288951,1621.58 71.288951,1621.58 l 16.108903,-148.9227"
           id="path20376" />
      </g>
      <path
         sodipodi:type="star"
         style="fill:#ffb312;fill-opacity:1;stroke:#c27814;stroke-width:88.8191;stroke-linecap:round;stroke-linejoin:round;stroke-miterlimit:4;stroke-dasharray:none;stroke-opacity:1;paint-order:fill markers stroke;stop-color:#000000"
         id="path1451"
         inkscape:flatsided="false"
         sodipodi:sides="5"
         sodipodi:cx="-440.25403"
         sodipodi:cy="409.03036"
         sodipodi:r1="484.78238"
         sodipodi:r2="242.39119"
         sodipodi:arg1="1.1388384"
         sodipodi:arg2="1.7671569"
         inkscape:rounded="0"
         inkscape:randomized="0"
         d="M -237.30004,849.28442 -487.54483,646.76355 -796.24428,738.09707 -680.96539,437.51774 -863.2221,172.15072 -541.73103,188.90334 -345.67242,-66.43601 -262.25891,244.49701 41.168691,352.05563 -228.76999,527.47018 Z"
         transform="matrix(0.71695699,-0.06984583,0.06988743,0.71738388,1175.1674,673.99802)"
         inkscape:transform-center-x="68.278037"
         inkscape:transform-center-y="17.833957" />
    </g>
  </g>
</svg>
