<?xml version="1.0" encoding="UTF-8" standalone="no"?>
<!-- Created with Inkscape (http://www.inkscape.org/) -->

<svg
   version="1.1"
   id="svg824"
   width="1706.6667"
   height="1706.6667"
   viewBox="0 0 1706.6667 1706.6667"
   sodipodi:docname="ying_witch.svg"
   inkscape:version="1.1 (c68e22c387, 2021-05-23)"
   inkscape:export-filename="D:\Pictures\yingmotes\ying.png"
   inkscape:export-xdpi="72"
   inkscape:export-ydpi="72"
   xmlns:inkscape="http://www.inkscape.org/namespaces/inkscape"
   xmlns:sodipodi="http://sodipodi.sourceforge.net/DTD/sodipodi-0.dtd"
   xmlns="http://www.w3.org/2000/svg"
   xmlns:svg="http://www.w3.org/2000/svg">
  <defs
     id="defs828" />
  <sodipodi:namedview
     id="namedview826"
     pagecolor="#ffffff"
     bordercolor="#666666"
     borderopacity="1.0"
     inkscape:pageshadow="2"
     inkscape:pageopacity="0.0"
     inkscape:pagecheckerboard="0"
     showgrid="false"
     inkscape:zoom="0.22646483"
     inkscape:cx="1024.4416"
     inkscape:cy="841.19023"
     inkscape:window-width="1920"
     inkscape:window-height="1001"
     inkscape:window-x="-9"
     inkscape:window-y="-9"
     inkscape:window-maximized="1"
     inkscape:current-layer="g12993" />
  <g
     id="layer1"
     inkscape:label="Ying"
     style="display:inline"
     inkscape:groupmode="layer">
    <path
       style="display:none;fill:#123456;stroke:#123456;stroke-width:64;stroke-linecap:round;stroke-linejoin:round;-inkscape-stroke:none;paint-order:fill markers stroke;stop-color:#000000"
       d="m 1298.031,865.09775 c 70.7982,131.45402 185.3824,239.02475 198.7064,401.82835 -29.438,-19.1346 -55.9321,-14.719 -79.4825,13.2471 91.0222,54.7003 58.5139,175.917 81.6903,267.1496 l -99.3531,6.6236 c 66.7588,58.9185 81.773,128.1858 90.5218,198.7063 l -494.50725,2.2079 c -24.3802,-41.4813 23.11455,-208.5632 66.23555,-227.0436 0,0 3.3791,-20.0154 -75.35325,-9.4549 C 1015.23,1271.0896 1172.1837,1096.1858 1298.031,865.09775 Z"
       id="path3091"
       sodipodi:nodetypes="cccccccccc"
       inkscape:label="mane" />
    <path
       style="opacity:1;fill:#ffcb4c;fill-opacity:1;stroke:#ffcb4c;stroke-width:64;stroke-linecap:round;stroke-linejoin:round;stroke-miterlimit:4;stroke-dasharray:none;stroke-dashoffset:0;stroke-opacity:1;paint-order:fill markers stroke;stop-color:#000000"
       d="m 848.0933,1338.888 -64.7849,239.5079 62.82173,-25.5214 -51.04266,200.2443 459.38383,-15.7054 c 0,0 -127.6066,-94.2326 -149.2016,-184.5389 -21.5949,-90.3062 51.0427,-253.25 51.0427,-253.25 z"
       id="path3340"
       inkscape:label="neck" />
    <g
       id="g12988"
       inkscape:label="head">
      <g
         id="g12997"
         inkscape:label="left eye">
        <path
           id="path1915-9"
           style="display:inline;fill:#fefefe;stroke:#65471b;stroke-width:64;stroke-linecap:round;stroke-linejoin:round;paint-order:fill markers stroke;stop-color:#000000"
           inkscape:label="lefteye"
           d="m 792.61751,1048.7279 c 10e-6,120.7167 -155.86024,218.577 -276.57698,218.577 -120.71674,0 -160.57699,-55.8603 -160.57698,-176.577 0,-120.71673 97.86025,-260.57698 218.57698,-260.57698 120.71673,0 218.57698,97.86025 218.57698,218.57698 z"
           sodipodi:nodetypes="sssss" />
        <path
           style="opacity:1;fill:#ffffff;fill-opacity:1;stroke:#65471b;stroke-width:48;stroke-linecap:round;stroke-linejoin:round;stroke-miterlimit:4;stroke-dasharray:none;stroke-dashoffset:0;stroke-opacity:1;paint-order:fill markers stroke;stop-color:#000000"
           d="M 498.97372,962.62186 V 1132.6262"
           id="path2372"
           inkscape:label="left pupil" />
      </g>
      <path
         style="opacity:1;fill:#f19020;fill-opacity:1;stroke:#f19020;stroke-width:64;stroke-linecap:round;stroke-miterlimit:4;stroke-dasharray:none;stroke-dashoffset:0;stroke-opacity:1;paint-order:fill markers stroke;stop-color:#000000"
         d="m 858.98342,862.20368 c 0,0 -79.7456,-158.28442 -108.79795,-338.69211 -31.96048,-198.4664 2.46495,-425.626828 68.79718,-443.063163 66.33222,-17.43633 212.29915,154.295413 267.09755,285.322893 54.7984,131.02752 81.0421,438.5825 81.0421,438.5825 z"
         id="path1640"
         inkscape:label="left ear"
         sodipodi:nodetypes="cssscc"
         inkscape:transform-center-x="39.399886"
         inkscape:transform-center-y="-274.15877" />
      <path
         id="path1148"
         style="display:inline;opacity:1;fill:#ffcb4c;stroke:#ffcb4c;stroke-width:64;stroke-linecap:round;stroke-linejoin:round;stroke-miterlimit:4;stroke-dasharray:6.4, 6.4;stroke-dashoffset:0;stroke-opacity:1;paint-order:fill markers stroke;stop-color:#000000"
         inkscape:label="head"
         d="m 1299.0547,1153.5586 c 0,0 -0.1078,-10.8206 -0.9512,-28.418 -0.4217,-8.7987 -1.0259,-19.2912 -1.8945,-30.9726 -0.8686,-11.6814 -1.9997,-24.5525 -3.4727,-38.1055 -1.4729,-13.553 -3.2888,-27.7877 -5.5234,-42.2012 -2.2347,-14.41345 -4.8892,-29.0047 -8.043,-43.26755 -1.5769,-7.13143 -3.279,-14.18175 -5.1152,-21.08594 -1.8362,-6.90419 -3.8068,-13.66232 -5.9219,-20.21289 -2.1151,-6.55056 -4.3733,-12.89234 -6.7871,-18.96289 -2.4138,-6.07055 -4.9828,-11.86984 -7.7148,-17.33398 -2.7321,-5.46415 -5.9346,-10.78574 -9.5391,-15.96094 -3.6045,-5.1752 -7.6114,-10.20474 -11.9492,-15.08399 -4.3379,-4.87924 -9.0074,-9.60926 -13.9395,-14.18554 -4.9321,-4.57628 -10.1264,-8.99932 -15.5136,-13.26563 -5.3873,-4.2663 -10.9666,-8.37489 -16.67,-12.32422 -5.7033,-3.94932 -11.5298,-7.73794 -17.4101,-11.36328 -11.7607,-7.25067 -23.7371,-13.84709 -35.3711,-19.75976 -11.634,-5.91267 -22.9257,-11.14156 -33.3203,-15.66016 -10.3946,-4.5186 -19.8912,-8.32606 -27.9336,-11.39453 -16.085,-6.13693 -26.3535,-9.31836 -26.3535,-9.31836 -106.83135,-15.98813 -232.17461,6.96944 -312.62504,60.01367 -101.26734,66.76968 -136.88727,176.62945 -198.70703,211.95509 -61.81975,35.3255 -225.20029,77.273 -280.39649,83.8965 -55.19621,6.6235 -183.250354,6.6246 -161.171871,123.6406 22.078481,117.016 112.599211,282.6048 377.541011,247.2793 264.94179,-35.3256 313.51517,-44.1575 536.50782,-88.3145 22.8973,-4.5341 53.8481,-18.3195 86.8281,-36.9472 l 213.8711,-11.4278 -92.9258,-75.2558 c 5.3578,-4.8405 10.5999,-9.7184 15.6328,-14.6367 l 142.0762,-2.375 -84.8808,-69.668 c 3.4806,-6.5537 6.4805,-13.0207 8.6269,-19.3066 1.0523,-3.0817 2.0328,-6.6268 3.0469,-9.9766 z" />
      <path
         style="display:none;fill:#123456;stroke:#123456;stroke-width:64;stroke-linecap:round;stroke-linejoin:round;-inkscape-stroke:none;paint-order:fill markers stroke;stop-color:#000000"
         d="M 880.93148,744.0449 C 763.91552,771.643 622.61323,916.25706 622.61323,916.25706 620.95257,833.21142 611.27974,749.4374 735.2135,677.80944 c -124.69479,-7.45678 -249.2876,-15.1175 -408.45194,46.36482 0,0 303.22641,-263.62224 490.14233,-280.39675 172.2122,-15.45493 264.94181,37.53343 264.94181,37.53343 -0.1923,-45.68323 -31.4577,-88.25915 -90.52179,-128.0552 0,0 295.85169,97.14532 333.38509,194.29065 37.5334,97.14533 28.702,167.79647 28.702,167.79647 l -243.7525,34.92308 c 0,0 -111.71105,-33.81914 -228.72702,-6.22104 z"
         id="path1637"
         sodipodi:nodetypes="zcccsccsccz"
         inkscape:label="top hair" />
      <path
         id="path13483"
         style="display:inline;opacity:1;fill:#ffcb4c;stroke:#ffcb4c;stroke-width:64;stroke-linecap:round;stroke-linejoin:round;stroke-miterlimit:4;stroke-dasharray:6.4, 6.4;stroke-dashoffset:0;stroke-opacity:1;paint-order:fill markers stroke;stop-color:#000000"
         inkscape:label="right ear"
         d="m 1541.0823,98.146967 c -78.8765,-9.797995 -273.0777,253.138123 -310.837,335.158673 -33.6187,73.02635 -131.3928,255.24063 -159.1558,306.87145 0,0 9.7979,4.42298 25.0038,12.49593 7.6028,4.03647 16.5576,8.98555 26.3159,14.75107 9.7583,5.76548 20.3193,12.34645 31.1357,19.64816 10.8164,7.30174 21.8883,15.32422 32.6655,23.96934 5.3886,4.32258 10.7035,8.80053 15.8766,13.4228 5.173,4.62227 10.2032,9.38729 15.0235,14.28517 4.8202,4.89784 9.4297,9.92747 13.76,15.07682 4.3304,5.1494 8.3812,10.41894 12.0846,15.79571 3.7032,5.37679 7.0595,10.86189 9.9985,16.44195 2.9392,5.58007 5.4612,11.25584 7.4989,17.01512 2.0376,5.75925 3.8721,11.83098 5.5191,18.15277 1.6471,6.32183 3.1063,12.89359 4.3978,19.65491 1.2915,6.76138 2.4139,13.71087 3.385,20.78876 0.9712,7.07789 1.7911,14.28424 2.477,21.55568 1.3715,14.54287 2.207,29.35002 2.6479,43.92902 0.4407,14.579 0.4881,28.929 0.279,42.5602 -0.2089,13.6313 -0.6731,26.5436 -1.2511,38.2429 -0.578,11.6995 -1.2719,22.1864 -1.938,30.97 -1.3323,17.5671 -2.5593,28.3184 -2.5593,28.3184 C 1384.022,1062.5561 1593.6,839.21644 1629.9341,618.66764 1679.6797,316.70986 1592.2318,104.50075 1541.0823,98.146967 Z"
         inkscape:transform-center-x="-182.33551"
         inkscape:transform-center-y="-320.59908" />
      <g
         id="g13003"
         inkscape:label="face">
        <path
           style="opacity:1;fill:none;fill-opacity:1;stroke:#65471b;stroke-width:64;stroke-linecap:round;stroke-linejoin:round;stroke-miterlimit:4;stroke-dasharray:none;stroke-dashoffset:0;stroke-opacity:1;paint-order:fill markers stroke;stop-color:#000000"
           d="m 83.898236,1201.0695 68.443294,6.6235 -37.53342,39.7413"
           id="path2163"
           inkscape:label="left nostril" />
        <path
           style="opacity:1;fill:none;fill-opacity:1;stroke:#65471b;stroke-width:64;stroke-linecap:round;stroke-linejoin:round;stroke-miterlimit:4;stroke-dasharray:none;stroke-dashoffset:0;stroke-opacity:1;paint-order:fill markers stroke;stop-color:#000000"
           d="m 401.82839,1251.85 -59.6119,-44.157 121.43166,-17.6628"
           id="path2198"
           inkscape:label="right nostril" />
        <path
           style="opacity:1;fill:none;fill-opacity:1;stroke:#65471b;stroke-width:64;stroke-linecap:round;stroke-linejoin:round;stroke-miterlimit:4;stroke-dasharray:none;stroke-dashoffset:0;stroke-opacity:1;paint-order:fill markers stroke;stop-color:#000000"
           d="m 132.4709,1346.7875 90.52178,-72.859 c 0,0 146.93476,106.6315 222.99268,101.561 66.23545,-4.4157 119.2238,-37.5334 119.2238,-37.5334"
           id="path2200"
           sodipodi:nodetypes="ccsc"
           inkscape:label="mouf" />
        <path
           style="opacity:1;fill:#ffffff;fill-opacity:1;stroke:#65471b;stroke-width:64;stroke-linecap:round;stroke-linejoin:round;stroke-miterlimit:4;stroke-dasharray:none;stroke-dashoffset:0;stroke-opacity:1;paint-order:fill markers stroke;stop-color:#000000"
           d="m 222.99268,1530.0389 -90.52178,-183.2514 90.52178,-72.859 103.76887,66.2354 z"
           id="path2202"
           sodipodi:nodetypes="ccccc"
           inkscape:label="toof" />
      </g>
      <g
         id="g12993"
         inkscape:label="right eye">
        <path
           style="opacity:1;fill:#65471b;fill-opacity:1;stroke:#65471b;stroke-width:64;stroke-linecap:round;stroke-linejoin:round;stroke-miterlimit:4;stroke-dasharray:none;stroke-dashoffset:0;stroke-opacity:1;paint-order:fill markers stroke;stop-color:#000000"
           d="m 661.97569,1226.0485 53.36716,-115.5008 86.53085,168.711 z"
           id="path7852"
           inkscape:label="eyenub"
           sodipodi:nodetypes="cccc" />
        <path
           id="path1915"
           style="opacity:1;fill:#fefefe;stroke:#65471b;stroke-width:64;stroke-linecap:round;stroke-linejoin:round;paint-order:fill markers stroke;stop-color:#000000"
           inkscape:label="righteye"
           d="m 1150.289,1075.2222 c 0,120.7167 -151.8603,218.5769 -272.57702,218.5769 -120.71671,0 -164.57695,-71.8602 -164.57699,-192.5769 -2e-5,-120.71675 97.86024,-244.57702 218.57699,-244.57701 120.71672,-2e-5 218.57702,97.86025 218.57702,218.57701 z"
           sodipodi:nodetypes="sssss" />
        <path
           style="opacity:1;fill:#ffffff;fill-opacity:1;stroke:#65471b;stroke-width:48;stroke-linecap:round;stroke-linejoin:round;stroke-miterlimit:4;stroke-dasharray:none;stroke-dashoffset:0;stroke-opacity:1;paint-order:fill markers stroke;stop-color:#000000"
           d="m 841.19021,982.4925 v 189.8749"
           id="path2350"
           inkscape:label="right pupil" />
      </g>
      <g
         id="g11683"
         inkscape:label="hat"
         style="opacity:1;stroke-width:1.08549"
         transform="matrix(0.92055982,0.03556202,-0.03556202,0.92055982,121.18453,46.018837)">
        <path
           id="path899"
           style="fill:#6900b4;stroke:#421c6d;stroke-width:69.4724;stroke-linecap:round;stroke-linejoin:round;stroke-dashoffset:172.8;paint-order:fill markers stroke;stop-color:#000000"
           transform="matrix(0.98413628,0.17741416,-0.16908652,0.98560121,0,0)"
           d="m 2091.1039,622.53525 c 0,71.16526 -146.5722,179.42025 -336.0775,229.74168 -189.5053,50.32144 -324.2893,-48.77125 -592.2903,-48.77125 -268.001,0 -557.22451,65.4229 -746.72985,15.10147 C 226.50092,768.28571 120.03793,700.0352 120.03793,628.86995 c 0,-71.16526 138.66212,-233.10896 328.16745,-283.43039 189.50533,-50.32144 446.52972,-78.59172 714.53072,-78.59172 268.001,0 518.0091,-4.82912 707.5144,45.49231 189.5053,50.32144 220.8534,239.02985 220.8534,310.1951 z"
           sodipodi:nodetypes="sssssssss" />
        <path
           style="fill:#6900b4;fill-opacity:1;stroke:#421c6d;stroke-width:69.4711;stroke-linecap:round;stroke-linejoin:round;stroke-dashoffset:172.8;stroke-opacity:1;paint-order:fill markers stroke;stop-color:#000000"
           d="M 483.96714,610.19528 861.45539,22.865267 898.91606,87.150143 1789.1174,-421.51965 1568.6916,253.45517 1622.8179,700.83548"
           id="path1102"
           sodipodi:nodetypes="cccccc" />
        <g
           id="g19440"
           style="opacity:0.54126679">
          <path
             sodipodi:type="star"
             style="fill:#9800ff;fill-opacity:1;stroke:#9800ff;stroke-width:147.911;stroke-linecap:round;stroke-linejoin:round;stroke-dashoffset:172.8;stroke-opacity:1;paint-order:fill markers stroke;stop-color:#000000"
             id="path17100"
             inkscape:flatsided="false"
             sodipodi:sides="4"
             sodipodi:cx="-527.68036"
             sodipodi:cy="-93.671074"
             sodipodi:r1="162.3932"
             sodipodi:r2="65.191292"
             sodipodi:arg1="1.5900247"
             sodipodi:arg2="2.3754229"
             inkscape:rounded="0"
             inkscape:randomized="0"
             d="m -530.80272,68.69211 -43.85264,-117.160822 -115.38818,-48.324727 117.16082,-43.852641 48.32473,-115.38818 43.85264,117.16082 115.38817,48.324731 -117.16082,43.852639 z"
             transform="matrix(0.46933127,-0.01813067,0.01813067,0.46933127,524.27037,680.97884)" />
          <path
             sodipodi:type="star"
             style="display:inline;opacity:1;fill:#9800ff;fill-opacity:1;stroke:#9800ff;stroke-width:179.892;stroke-linecap:round;stroke-linejoin:round;stroke-dashoffset:172.8;stroke-opacity:1;paint-order:fill markers stroke;stop-color:#000000"
             id="path17100-9"
             inkscape:flatsided="false"
             sodipodi:sides="4"
             sodipodi:cx="-527.68036"
             sodipodi:cy="-93.671074"
             sodipodi:r1="162.3932"
             sodipodi:r2="65.191292"
             sodipodi:arg1="1.5900247"
             sodipodi:arg2="2.3754229"
             inkscape:rounded="0"
             inkscape:randomized="0"
             transform="matrix(0.38589459,-0.01490744,0.01490744,0.38589459,1215.7239,317.43402)"
             d="m -530.80272,68.69211 -43.85264,-117.160822 -115.38818,-48.324727 117.16082,-43.852641 48.32473,-115.38818 43.85264,117.16082 115.38817,48.324731 -117.16082,43.852639 z" />
          <path
             sodipodi:type="star"
             style="display:inline;opacity:1;fill:#9800ff;fill-opacity:1;stroke:#9800ff;stroke-width:83.2001;stroke-linecap:round;stroke-linejoin:round;stroke-dashoffset:172.8;stroke-opacity:1;paint-order:fill markers stroke;stop-color:#000000"
             id="path17100-6"
             inkscape:flatsided="false"
             sodipodi:sides="4"
             sodipodi:cx="-527.68036"
             sodipodi:cy="-93.671074"
             sodipodi:r1="162.3932"
             sodipodi:r2="65.191292"
             sodipodi:arg1="1.5900247"
             sodipodi:arg2="2.3754229"
             inkscape:rounded="0"
             inkscape:randomized="0"
             transform="matrix(0.83436675,-0.03223231,0.03223231,0.83436675,1254.0336,661.59312)"
             d="m -530.80272,68.69211 -43.85264,-117.160822 -115.38818,-48.324727 117.16082,-43.852641 48.32473,-115.38818 43.85264,117.16082 115.38817,48.324731 -117.16082,43.852639 z" />
          <path
             sodipodi:type="star"
             style="display:inline;opacity:1;fill:#9800ff;fill-opacity:1;stroke:#9800ff;stroke-width:107.355;stroke-linecap:round;stroke-linejoin:round;stroke-dashoffset:172.8;stroke-opacity:1;paint-order:fill markers stroke;stop-color:#000000"
             id="path17100-5"
             inkscape:flatsided="false"
             sodipodi:sides="4"
             sodipodi:cx="-527.68036"
             sodipodi:cy="-93.671074"
             sodipodi:r1="162.3932"
             sodipodi:r2="65.191292"
             sodipodi:arg1="1.5900247"
             sodipodi:arg2="2.3754229"
             inkscape:rounded="0"
             inkscape:randomized="0"
             transform="matrix(0.64663422,-0.02498004,0.02498004,0.64663422,1937.8707,1000.8397)"
             d="m -530.80272,68.69211 -43.85264,-117.160822 -115.38818,-48.324727 117.16082,-43.852641 48.32473,-115.38818 43.85264,117.16082 115.38817,48.324731 -117.16082,43.852639 z" />
          <path
             sodipodi:type="star"
             style="display:inline;opacity:1;fill:#9800ff;fill-opacity:1;stroke:#9800ff;stroke-width:107.355;stroke-linecap:round;stroke-linejoin:round;stroke-dashoffset:172.8;stroke-opacity:1;paint-order:fill markers stroke;stop-color:#000000"
             id="path17100-5-1"
             inkscape:flatsided="false"
             sodipodi:sides="4"
             sodipodi:cx="-527.68036"
             sodipodi:cy="-93.671074"
             sodipodi:r1="162.3932"
             sodipodi:r2="65.191292"
             sodipodi:arg1="1.5900247"
             sodipodi:arg2="2.3754229"
             inkscape:rounded="0"
             inkscape:randomized="0"
             transform="matrix(0.64663422,-0.02498004,0.02498004,0.64663422,1713.1486,100.5144)"
             d="m -530.80272,68.69211 -43.85264,-117.160822 -115.38818,-48.324727 117.16082,-43.852641 48.32473,-115.38818 43.85264,117.16082 115.38817,48.324731 -117.16082,43.852639 z" />
        </g>
      </g>
      <path
         id="path13483-9"
         style="display:inline;fill:#ffcb4c;fill-opacity:1;stroke:#ffcb4c;stroke-width:64;stroke-linecap:round;stroke-linejoin:round;stroke-miterlimit:4;stroke-dasharray:6.4, 6.4;stroke-dashoffset:0;stroke-opacity:1;paint-order:fill markers stroke;stop-color:#000000"
         inkscape:label="right ear"
         inkscape:transform-center-x="-182.33551"
         inkscape:transform-center-y="-320.59908"
         d="m 1590.1624,748.8905 c 18.6282,-42.89078 32.587,-86.61135 39.7717,-130.22281 49.7456,-301.95778 -37.7023,-514.16689 -88.8518,-520.520674 v 0 c -78.8765,-9.797995 -273.0777,253.138124 -310.837,335.158674 -33.6187,73.02635 -131.3928,255.24063 -159.1558,306.87145 0,0 9.7979,4.42298 25.0038,12.49593 7.6028,4.03647 16.5576,8.98555 26.3159,14.75107 9.7583,5.76548 20.3193,12.34645 31.1357,19.64816 10.8164,7.30174 21.8883,15.32422 32.6655,23.96934 5.3886,4.32258 10.7035,8.80053 15.8766,13.4228 3.2431,2.89779 6.43,5.85168 9.5443,8.85925" />
      <path
         id="path12489"
         style="fill:none;stroke:#421c6d;stroke-width:64;stroke-linecap:round;stroke-linejoin:round;stroke-dashoffset:172.8;paint-order:fill markers stroke;stop-color:#000000"
         transform="rotate(-5.8423098)"
         d="m 1596.0467,828.0161 c 0,80.18631 -170.7763,141.37621 -335.46,141.37622 -164.6837,10e-6 -297.20675,-32.00857 -297.20675,-112.19489"
         sodipodi:nodetypes="csc" />
    </g>
  </g>
</svg>
