<?xml version="1.0" encoding="UTF-8" standalone="no"?>
<!-- Created with Inkscape (http://www.inkscape.org/) -->

<svg
   version="1.1"
   id="svg824"
   width="1706.6667"
   height="1706.6667"
   viewBox="0 0 1706.6667 1706.6667"
   sodipodi:docname="ying_shock_happy.svg"
   inkscape:version="1.3.2 (091e20e, 2023-11-25, custom)"
   inkscape:export-filename="D:\Pictures\yingmotes\ying_surprised.png"
   inkscape:export-xdpi="72"
   inkscape:export-ydpi="72"
   xmlns:inkscape="http://www.inkscape.org/namespaces/inkscape"
   xmlns:sodipodi="http://sodipodi.sourceforge.net/DTD/sodipodi-0.dtd"
   xmlns="http://www.w3.org/2000/svg"
   xmlns:svg="http://www.w3.org/2000/svg">
  <defs
     id="defs828" />
  <sodipodi:namedview
     id="namedview826"
     pagecolor="#ffffff"
     bordercolor="#666666"
     borderopacity="1.0"
     inkscape:pageshadow="2"
     inkscape:pageopacity="0.0"
     inkscape:pagecheckerboard="0"
     showgrid="false"
     inkscape:zoom="0.080067408"
     inkscape:cx="636.9633"
     inkscape:cy="1142.7871"
     inkscape:window-width="1920"
     inkscape:window-height="1001"
     inkscape:window-x="-9"
     inkscape:window-y="-9"
     inkscape:window-maximized="1"
     inkscape:current-layer="g12988"
     inkscape:showpageshadow="2"
     inkscape:deskcolor="#d1d1d1" />
  <g
     id="layer1"
     inkscape:label="Ying"
     style="display:inline"
     inkscape:groupmode="layer">
    <path
       style="display:none;fill:#123456;stroke:#123456;stroke-width:64;stroke-linecap:round;stroke-linejoin:round;-inkscape-stroke:none;paint-order:fill markers stroke;stop-color:#000000"
       d="m 1298.031,865.09775 c 70.7982,131.45402 185.3824,239.02475 198.7064,401.82835 -29.438,-19.1346 -55.9321,-14.719 -79.4825,13.2471 91.0222,54.7003 58.5139,175.917 81.6903,267.1496 l -99.3531,6.6236 c 66.7588,58.9185 81.773,128.1858 90.5218,198.7063 l -494.50725,2.2079 c -24.3802,-41.4813 23.11455,-208.5632 66.23555,-227.0436 0,0 3.3791,-20.0154 -75.35325,-9.4549 C 1015.23,1271.0896 1172.1837,1096.1858 1298.031,865.09775 Z"
       id="path3091"
       sodipodi:nodetypes="cccccccccc"
       inkscape:label="mane" />
    <path
       style="opacity:1;fill:#ffcb4c;fill-opacity:1;stroke:#ffcb4c;stroke-width:64;stroke-linecap:round;stroke-linejoin:round;stroke-miterlimit:4;stroke-dasharray:none;stroke-dashoffset:0;stroke-opacity:1;paint-order:fill markers stroke;stop-color:#000000"
       d="m 848.0933,1338.888 -105.3757,267.6092 103.41253,-53.6227 -94.75583,206.489 503.097,-21.9501 c 0,0 -127.6066,-94.2326 -149.2016,-184.5389 -21.5949,-90.3062 51.0427,-253.25 51.0427,-253.25 z"
       id="path3340"
       inkscape:label="neck"
       sodipodi:nodetypes="cccccscc" />
    <g
       id="g12988"
       inkscape:label="head"
       inkscape:groupmode="layer">
      <g
         id="g11101"
         transform="rotate(7.5868838,1436.6673,-621.75976)"
         style="display:inline">
        <g
           id="g11065"
           inkscape:label="hand"
           transform="matrix(-0.21547621,-1.0255215,-1.1418282,0.08735501,2510.7342,1773.398)"
           style="display:inline;fill:none;fill-opacity:1;stroke:#888800;stroke-width:0.916778;stroke-opacity:1">
          <path
             style="fill:none;fill-opacity:1;stroke:#a18020;stroke-width:88.0107;stroke-linecap:round;stroke-linejoin:round;stroke-miterlimit:4;stroke-dasharray:none;stroke-opacity:1;paint-order:fill markers stroke;stop-color:#000000"
             d="m 268.04516,1433.4324 c 0,0 -238.726995,27.9141 -243.750335,94.1165"
             id="path11055"
             sodipodi:nodetypes="cc" />
          <path
             style="fill:none;fill-opacity:1;stroke:#a18020;stroke-width:88.0107;stroke-linecap:round;stroke-linejoin:round;stroke-miterlimit:4;stroke-dasharray:none;stroke-opacity:1;paint-order:fill markers stroke;stop-color:#000000"
             d="M 465.3647,1469.3989 89.494471,1497.1525"
             id="path11057"
             sodipodi:nodetypes="cc" />
          <path
             style="fill:none;fill-opacity:1;stroke:#a18020;stroke-width:88.0107;stroke-linecap:round;stroke-linejoin:round;stroke-miterlimit:4;stroke-dasharray:none;stroke-opacity:1;paint-order:fill markers stroke;stop-color:#000000"
             d="M 83.585394,1562.0096 450.17823,1535.4753"
             id="path11059"
             sodipodi:nodetypes="cc" />
          <path
             style="fill:none;fill-opacity:1;stroke:#a18020;stroke-width:88.0107;stroke-linecap:round;stroke-linejoin:round;stroke-miterlimit:4;stroke-dasharray:none;stroke-opacity:1;paint-order:fill markers stroke;stop-color:#000000"
             d="M 71.288958,1621.58 402.78195,1595.2649"
             id="path11061"
             sodipodi:nodetypes="cc" />
          <path
             style="fill:none;fill-opacity:1;stroke:#a18020;stroke-width:88.0107;stroke-linecap:round;stroke-linejoin:round;stroke-miterlimit:4;stroke-dasharray:none;stroke-opacity:1;paint-order:fill markers stroke;stop-color:#000000"
             d="m 87.397854,1472.6573 c 0,0 -91.7196952,27.7007 -88.27995681,86.167 C 2.5576437,1617.2906 71.288951,1621.58 71.288951,1621.58 l 16.108903,-148.9227"
             id="path11063" />
        </g>
        <g
           id="layer2-2"
           inkscape:label="hand"
           transform="matrix(-0.21547621,-1.0255215,-1.1418282,0.08735501,2510.7342,1773.398)"
           style="display:inline;opacity:0.161359;fill:none;fill-opacity:1;stroke:#000000;stroke-width:0.916778;stroke-opacity:1">
          <path
             style="fill:none;fill-opacity:1;stroke:#000000;stroke-width:88.0107;stroke-linecap:round;stroke-linejoin:round;stroke-miterlimit:4;stroke-dasharray:none;stroke-opacity:1;paint-order:fill markers stroke;stop-color:#000000"
             d="m 268.04516,1433.4324 c 0,0 -238.726995,27.9141 -243.750335,94.1165"
             id="path15392-7"
             sodipodi:nodetypes="cc" />
          <path
             style="fill:none;fill-opacity:1;stroke:#000000;stroke-width:88.0107;stroke-linecap:round;stroke-linejoin:round;stroke-miterlimit:4;stroke-dasharray:none;stroke-opacity:1;paint-order:fill markers stroke;stop-color:#000000"
             d="M 465.3647,1469.3989 89.494471,1497.1525"
             id="path20257-7"
             sodipodi:nodetypes="cc" />
          <path
             style="fill:none;fill-opacity:1;stroke:#000000;stroke-width:88.0107;stroke-linecap:round;stroke-linejoin:round;stroke-miterlimit:4;stroke-dasharray:none;stroke-opacity:1;paint-order:fill markers stroke;stop-color:#000000"
             d="M 83.585394,1562.0096 450.17823,1535.4753"
             id="path20259-0"
             sodipodi:nodetypes="cc" />
          <path
             style="fill:none;fill-opacity:1;stroke:#000000;stroke-width:88.0107;stroke-linecap:round;stroke-linejoin:round;stroke-miterlimit:4;stroke-dasharray:none;stroke-opacity:1;paint-order:fill markers stroke;stop-color:#000000"
             d="M 71.288958,1621.58 402.78195,1595.2649"
             id="path20261-9"
             sodipodi:nodetypes="cc" />
          <path
             style="fill:none;fill-opacity:1;stroke:#000000;stroke-width:88.0107;stroke-linecap:round;stroke-linejoin:round;stroke-miterlimit:4;stroke-dasharray:none;stroke-opacity:1;paint-order:fill markers stroke;stop-color:#000000"
             d="m 87.397854,1472.6573 c 0,0 -91.7196952,27.7007 -88.27995681,86.167 C 2.5576437,1617.2906 71.288951,1621.58 71.288951,1621.58 l 16.108903,-148.9227"
             id="path20376-5" />
        </g>
      </g>
      <path
         style="display:inline;fill:none;fill-opacity:1;stroke:#f19020;stroke-width:32;stroke-linecap:round;stroke-linejoin:round;stroke-miterlimit:4;stroke-dasharray:none;stroke-dashoffset:0;stroke-opacity:1;paint-order:fill markers stroke;stop-color:#000000"
         d="m 255.05932,466.90088 c 134.67334,107.6549 269.1929,250.97295 356.66275,385.85349"
         id="path6280-0-6"
         sodipodi:nodetypes="cc"
         inkscape:label="eyelash left small"
         inkscape:transform-center-x="153.41509"
         inkscape:transform-center-y="-157.5739" />
      <path
         style="display:inline;fill:none;fill-opacity:1;stroke:#f19020;stroke-width:32;stroke-linecap:round;stroke-linejoin:round;stroke-miterlimit:4;stroke-dasharray:none;stroke-dashoffset:0;stroke-opacity:1;paint-order:fill markers stroke;stop-color:#000000"
         d="M 280.98441,193.95321 C 488.46046,389.26478 643.56322,609.38126 697.09917,877.60156"
         id="path6280-3"
         sodipodi:nodetypes="cc"
         inkscape:label="eyelash left big"
         inkscape:transform-center-x="194.02173"
         inkscape:transform-center-y="-282.94438" />
      <g
         id="g12997"
         inkscape:label="left eye">
        <path
           id="path1915-9"
           style="display:inline;fill:#fefefe;stroke:#65471b;stroke-width:64;stroke-linecap:round;stroke-linejoin:round;paint-order:fill markers stroke;stop-color:#000000"
           inkscape:label="lefteye"
           d="m 792.61751,1048.7279 c 10e-6,120.7167 -155.86024,218.577 -276.57698,218.577 -120.71674,0 -160.57699,-55.8603 -160.57698,-176.577 0,-120.71673 97.86025,-260.57698 218.57698,-260.57698 120.71673,0 218.57698,97.86025 218.57698,218.57698 z"
           sodipodi:nodetypes="sssss" />
        <path
           style="opacity:1;fill:#ffffff;fill-opacity:1;stroke:#65471b;stroke-width:48;stroke-linecap:round;stroke-linejoin:round;stroke-miterlimit:4;stroke-dasharray:none;stroke-dashoffset:0;stroke-opacity:1;paint-order:fill markers stroke;stop-color:#000000"
           d="m 498.97372,962.62186 v 50.23624"
           id="path2372"
           inkscape:label="left pupil" />
      </g>
      <path
         style="opacity:1;fill:#f19020;fill-opacity:1;stroke:#f19020;stroke-width:64;stroke-linecap:round;stroke-miterlimit:4;stroke-dasharray:none;stroke-dashoffset:0;stroke-opacity:1;paint-order:fill markers stroke;stop-color:#000000"
         d="m 849.2706,844.85286 c 0,0 -59.95698,-166.78874 -66.9115,-349.38832 -7.65066,-200.87769 54.07499,-422.18501 122.03237,-431.446521 67.95736,-9.261507 192.01573,178.907811 230.51593,315.614791 38.5002,136.707 27.244,445.17435 27.244,445.17435 z"
         id="path1640"
         inkscape:label="left ear"
         sodipodi:nodetypes="cssscc"
         inkscape:transform-center-x="16.195397"
         inkscape:transform-center-y="-240.6416" />
      <path
         id="path1148"
         style="display:inline;opacity:1;fill:#ffcb4c;stroke:#ffcb4c;stroke-width:64;stroke-linecap:round;stroke-linejoin:round;stroke-miterlimit:4;stroke-dasharray:6.4, 6.4;stroke-dashoffset:0;stroke-opacity:1;paint-order:fill markers stroke;stop-color:#000000"
         inkscape:label="head"
         d="m 1299.0547,1153.5586 c 0,0 -0.1078,-10.8206 -0.9512,-28.418 -0.4217,-8.7987 -1.0259,-19.2912 -1.8945,-30.9726 -0.8686,-11.6814 -1.9997,-24.5525 -3.4727,-38.1055 -1.4729,-13.553 -3.2888,-27.7877 -5.5234,-42.2012 -2.2347,-14.41345 -4.8892,-29.0047 -8.043,-43.26755 -1.5769,-7.13143 -3.279,-14.18175 -5.1152,-21.08594 -1.8362,-6.90419 -3.8068,-13.66232 -5.9219,-20.21289 -2.1151,-6.55056 -4.3733,-12.89234 -6.7871,-18.96289 -2.4138,-6.07055 -4.9828,-11.86984 -7.7148,-17.33398 -2.7321,-5.46415 -5.9346,-10.78574 -9.5391,-15.96094 -3.6045,-5.1752 -7.6114,-10.20474 -11.9492,-15.08399 -4.3379,-4.87924 -9.0074,-9.60926 -13.9395,-14.18554 -4.9321,-4.57628 -10.1264,-8.99932 -15.5136,-13.26563 -5.3873,-4.2663 -10.9666,-8.37489 -16.67,-12.32422 -5.7033,-3.94932 -11.5298,-7.73794 -17.4101,-11.36328 -11.7607,-7.25067 -23.7371,-13.84709 -35.3711,-19.75976 -11.634,-5.91267 -22.9257,-11.14156 -33.3203,-15.66016 -10.3946,-4.5186 -19.8912,-8.32606 -27.9336,-11.39453 -16.085,-6.13693 -26.3535,-9.31836 -26.3535,-9.31836 -106.83135,-15.98813 -232.17461,6.96944 -312.62504,60.01367 -101.26734,66.76968 -136.88727,176.62945 -198.70703,211.95509 -61.81975,35.3255 -225.20029,77.273 -280.39649,83.8965 -55.19621,6.6235 -183.250354,6.6246 -161.171871,123.6406 22.078481,117.016 112.599211,282.6048 377.541011,247.2793 264.94179,-35.3256 313.51517,-44.1575 536.50782,-88.3145 22.8973,-4.5341 53.8481,-18.3195 86.8281,-36.9472 l 291.9303,26.0406 -170.985,-112.7242 c 5.3578,-4.8405 10.5999,-9.7184 15.6328,-14.6367 l 220.1354,-11.7421 -162.94,-60.3009 c 3.4806,-6.5537 6.4805,-13.0207 8.6269,-19.3066 1.0523,-3.0817 2.0328,-6.6268 3.0469,-9.9766 z"
         sodipodi:nodetypes="csssssssssssssssssscssssssccccccsc" />
      <path
         style="display:none;fill:#123456;stroke:#123456;stroke-width:64;stroke-linecap:round;stroke-linejoin:round;-inkscape-stroke:none;paint-order:fill markers stroke;stop-color:#000000"
         d="M 880.93148,744.0449 C 763.91552,771.643 622.61323,916.25706 622.61323,916.25706 620.95257,833.21142 611.27974,749.4374 735.2135,677.80944 c -124.69479,-7.45678 -249.2876,-15.1175 -408.45194,46.36482 0,0 303.22641,-263.62224 490.14233,-280.39675 172.2122,-15.45493 264.94181,37.53343 264.94181,37.53343 -0.1923,-45.68323 -31.4577,-88.25915 -90.52179,-128.0552 0,0 295.85169,97.14532 333.38509,194.29065 37.5334,97.14533 28.702,167.79647 28.702,167.79647 l -243.7525,34.92308 c 0,0 -111.71105,-33.81914 -228.72702,-6.22104 z"
         id="path1637"
         sodipodi:nodetypes="zcccsccsccz"
         inkscape:label="top hair" />
      <path
         id="path13483"
         style="display:inline;opacity:1;fill:#ffcb4c;stroke:#ffcb4c;stroke-width:64;stroke-linecap:round;stroke-linejoin:round;stroke-miterlimit:4;stroke-dasharray:6.4, 6.4;stroke-dashoffset:0;stroke-opacity:1;paint-order:fill markers stroke;stop-color:#000000"
         inkscape:label="right ear"
         d="m 1371.6351,54.231532 c -79.2972,5.423577 -219.7927,300.568588 -241.2176,388.284628 -19.0755,78.09729 -80.3071,275.61318 -97.7147,331.59089 -41.32153,369.11035 163.9135,342.83135 280.0509,380.65465 88.6166,-123.8683 251.7576,-383.07571 245.3662,-606.50599 C 1549.3691,242.35284 1423.0577,50.71448 1371.6351,54.231532 Z"
         sodipodi:nodetypes="ssccss"
         inkscape:transform-center-x="-86.385409"
         inkscape:transform-center-y="-353.16109" />
      <g
         id="g13003"
         inkscape:label="face">
        <path
           style="opacity:1;fill:none;fill-opacity:1;stroke:#65471b;stroke-width:64;stroke-linecap:round;stroke-linejoin:round;stroke-miterlimit:4;stroke-dasharray:none;stroke-dashoffset:0;stroke-opacity:1;paint-order:fill markers stroke;stop-color:#000000"
           d="m 83.898236,1201.0695 68.443294,6.6235 -37.53342,39.7413"
           id="path2163"
           inkscape:label="left nostril" />
        <path
           style="opacity:1;fill:none;fill-opacity:1;stroke:#65471b;stroke-width:64;stroke-linecap:round;stroke-linejoin:round;stroke-miterlimit:4;stroke-dasharray:none;stroke-dashoffset:0;stroke-opacity:1;paint-order:fill markers stroke;stop-color:#000000"
           d="m 401.82839,1251.85 -59.6119,-44.157 121.43166,-17.6628"
           id="path2198"
           inkscape:label="right nostril" />
        <path
           style="display:inline;fill:none;fill-opacity:1;stroke:#65471b;stroke-width:64;stroke-linecap:round;stroke-linejoin:round;stroke-miterlimit:4;stroke-dasharray:none;stroke-dashoffset:0;stroke-opacity:1;paint-order:fill markers stroke;stop-color:#000000"
           d="m 132.4709,1346.7875 90.52178,-72.859 c 0,0 119.42334,86.7104 195.60735,84.1581 131.8052,-4.4157 101.36956,-57.7465 101.36956,-57.7465"
           id="path2200"
           sodipodi:nodetypes="ccsc"
           inkscape:label="mouf" />
        <path
           style="opacity:1;fill:#ffffff;fill-opacity:1;stroke:#65471b;stroke-width:64;stroke-linecap:round;stroke-linejoin:round;stroke-miterlimit:4;stroke-dasharray:none;stroke-dashoffset:0;stroke-opacity:1;paint-order:fill markers stroke;stop-color:#000000"
           d="m 222.99268,1530.0389 -90.52178,-183.2514 90.52178,-72.859 103.76887,66.2354 z"
           id="path2202"
           sodipodi:nodetypes="ccccc"
           inkscape:label="toof" />
      </g>
      <g
         id="g12993"
         inkscape:label="right eye">
        <path
           style="opacity:1;fill:#65471b;fill-opacity:1;stroke:#65471b;stroke-width:64;stroke-linecap:round;stroke-linejoin:round;stroke-miterlimit:4;stroke-dasharray:none;stroke-dashoffset:0;stroke-opacity:1;paint-order:fill markers stroke;stop-color:#000000"
           d="m 661.97569,1226.0485 53.36716,-115.5008 86.53085,168.711 z"
           id="path7852"
           inkscape:label="eyenub"
           sodipodi:nodetypes="cccc" />
        <path
           id="path1915"
           style="opacity:1;fill:#fefefe;stroke:#65471b;stroke-width:64;stroke-linecap:round;stroke-linejoin:round;paint-order:fill markers stroke;stop-color:#000000"
           inkscape:label="righteye"
           d="m 1150.289,1075.2222 c 0,120.7167 -151.8603,218.5769 -272.57702,218.5769 -120.71671,0 -164.57695,-71.8602 -164.57699,-192.5769 -2e-5,-120.71675 97.86024,-244.57702 218.57699,-244.57701 120.71672,-2e-5 218.57702,97.86025 218.57702,218.57701 z"
           sodipodi:nodetypes="sssss" />
        <path
           style="opacity:1;fill:#ffffff;fill-opacity:1;stroke:#65471b;stroke-width:48.0001;stroke-linecap:round;stroke-linejoin:round;stroke-miterlimit:4;stroke-dasharray:none;stroke-dashoffset:0;stroke-opacity:1;paint-order:fill markers stroke;stop-color:#000000"
           d="m 841.19021,1001.8865 v 116.7423"
           id="path2350"
           inkscape:label="right pupil"
           sodipodi:nodetypes="cc" />
        <path
           id="path1"
           style="display:inline;opacity:1;fill:#d19020;fill-opacity:1;stroke:#65471b;stroke-width:64;stroke-linecap:round;stroke-linejoin:round;paint-order:fill markers stroke;stop-color:#000000"
           inkscape:label="righteye"
           d="m 1094.4531,1198.8613 c -70.655,-24.5527 -89.757,-40.2796 -186.76838,-42.0144 -98.96166,-1.7696 -116.03879,17.1135 -182.25503,37.6922 20.24521,63.4541 67.11914,99.2597 152.2832,99.2597 74.81778,0 161.56481,-37.6124 216.74021,-94.9375 z"
           sodipodi:nodetypes="cscsc" />
      </g>
      <g
         id="layer2"
         inkscape:label="hand"
         transform="matrix(-0.46273639,-0.94021237,-1.0846256,0.36740993,2456.3015,1243.4512)"
         style="display:inline;fill:none;fill-opacity:1;stroke:#888800;stroke-width:0.916778;stroke-opacity:1">
        <path
           style="fill:none;fill-opacity:1;stroke:#a18020;stroke-width:88.0107;stroke-linecap:round;stroke-linejoin:round;stroke-miterlimit:4;stroke-dasharray:none;stroke-opacity:1;paint-order:fill markers stroke;stop-color:#000000"
           d="m 268.04516,1433.4324 c 0,0 -238.726995,27.9141 -243.750335,94.1165"
           id="path15392"
           sodipodi:nodetypes="cc" />
        <path
           style="fill:none;fill-opacity:1;stroke:#a18020;stroke-width:88.0107;stroke-linecap:round;stroke-linejoin:round;stroke-miterlimit:4;stroke-dasharray:none;stroke-opacity:1;paint-order:fill markers stroke;stop-color:#000000"
           d="M 465.3647,1469.3989 89.494471,1497.1525"
           id="path20257"
           sodipodi:nodetypes="cc" />
        <path
           style="fill:none;fill-opacity:1;stroke:#a18020;stroke-width:88.0107;stroke-linecap:round;stroke-linejoin:round;stroke-miterlimit:4;stroke-dasharray:none;stroke-opacity:1;paint-order:fill markers stroke;stop-color:#000000"
           d="M 83.585394,1562.0096 450.17823,1535.4753"
           id="path20259"
           sodipodi:nodetypes="cc" />
        <path
           style="fill:none;fill-opacity:1;stroke:#a18020;stroke-width:88.0107;stroke-linecap:round;stroke-linejoin:round;stroke-miterlimit:4;stroke-dasharray:none;stroke-opacity:1;paint-order:fill markers stroke;stop-color:#000000"
           d="M 71.288958,1621.58 402.78195,1595.2649"
           id="path20261"
           sodipodi:nodetypes="cc" />
        <path
           style="fill:none;fill-opacity:1;stroke:#a18020;stroke-width:88.0107;stroke-linecap:round;stroke-linejoin:round;stroke-miterlimit:4;stroke-dasharray:none;stroke-opacity:1;paint-order:fill markers stroke;stop-color:#000000"
           d="m 87.397854,1472.6573 c 0,0 -91.7196952,27.7007 -88.27995681,86.167 C 2.5576437,1617.2906 71.288951,1621.58 71.288951,1621.58 l 16.108903,-148.9227"
           id="path20376" />
      </g>
      <path
         style="opacity:1;fill:none;fill-opacity:1;stroke:#ffcb4c;stroke-width:32;stroke-linecap:round;stroke-linejoin:round;stroke-miterlimit:4;stroke-dasharray:none;stroke-dashoffset:0;stroke-opacity:1;paint-order:fill markers stroke;stop-color:#000000"
         d="M 589.06526,89.699672 C 708.6632,348.32924 770.41461,610.42635 719.98502,879.24801"
         id="path6280"
         sodipodi:nodetypes="cc"
         inkscape:label="eyelash right big"
         inkscape:transform-center-x="64.966751"
         inkscape:transform-center-y="-332.6352" />
      <path
         style="display:inline;fill:none;fill-opacity:1;stroke:#ffcb4c;stroke-width:32;stroke-linecap:round;stroke-linejoin:round;stroke-miterlimit:4;stroke-dasharray:none;stroke-dashoffset:0;stroke-opacity:1;paint-order:fill markers stroke;stop-color:#000000"
         d="m 863.55826,301.93376 c 2.88779,172.38951 -21.80221,367.39203 -69.98003,520.76293"
         id="path6280-0"
         sodipodi:nodetypes="cc"
         inkscape:label="eyelash right small"
         inkscape:transform-center-x="-58.471784"
         inkscape:transform-center-y="-204.35832" />
    </g>
  </g>
</svg>
