<?xml version="1.0" encoding="UTF-8" standalone="no"?>
<!-- Created with Inkscape (http://www.inkscape.org/) -->

<svg
   version="1.1"
   id="svg824"
   width="1706.6667"
   height="1706.6667"
   viewBox="0 0 1706.6667 1706.6667"
   sodipodi:docname="ying_upside_down_dizzy.svg"
   inkscape:version="1.1 (c68e22c387, 2021-05-23)"
   inkscape:export-filename="D:\Pictures\yingmotes\ying.png"
   inkscape:export-xdpi="72"
   inkscape:export-ydpi="72"
   xmlns:inkscape="http://www.inkscape.org/namespaces/inkscape"
   xmlns:sodipodi="http://sodipodi.sourceforge.net/DTD/sodipodi-0.dtd"
   xmlns="http://www.w3.org/2000/svg"
   xmlns:svg="http://www.w3.org/2000/svg">
  <defs
     id="defs828" />
  <sodipodi:namedview
     id="namedview826"
     pagecolor="#ffffff"
     bordercolor="#666666"
     borderopacity="1.0"
     inkscape:pageshadow="2"
     inkscape:pageopacity="0.0"
     inkscape:pagecheckerboard="0"
     showgrid="false"
     inkscape:zoom="0.32026963"
     inkscape:cx="338.77705"
     inkscape:cy="878.9469"
     inkscape:window-width="1920"
     inkscape:window-height="1001"
     inkscape:window-x="-9"
     inkscape:window-y="-9"
     inkscape:window-maximized="1"
     inkscape:current-layer="g12988" />
  <g
     id="layer1"
     inkscape:label="Ying"
     style="display:inline"
     inkscape:groupmode="layer">
    <path
       style="display:none;opacity:1;fill:#123456;fill-opacity:1;stroke:#123456;stroke-width:48;stroke-linecap:round;stroke-linejoin:round;stroke-opacity:1;paint-order:stroke fill markers;stop-color:#000000"
       d="m 1236.4302,370.40485 c 133.3153,79.64609 298.57,112.83475 346.6109,316.51635 -90.8554,84.30397 -55.1426,168.60793 -62.4473,252.9119 147.0891,217.7983 90.8502,476.6602 124.8947,702.5331 -72.49,-84.2653 -140.3241,1.0786 -261.4364,-6.7651 -59.0159,-3.8221 -138.4527,-60.0251 -183.2369,-55.1798 -106.1168,11.4809 -101.9324,61.3331 -120.4755,80.6791 -175.4039,-422.4796 144.6511,-858.38213 156.0905,-1290.69555 z"
       id="path4238"
       inkscape:label="mane"
       sodipodi:nodetypes="ccccsscc" />
    <path
       style="opacity:1;fill:#ffcb4c;fill-opacity:1;stroke:#ffcb4c;stroke-width:64;stroke-linecap:round;stroke-linejoin:round;stroke-miterlimit:4;stroke-dasharray:none;stroke-dashoffset:0;stroke-opacity:1;paint-order:fill markers stroke;stop-color:#000000"
       d="m 854.33804,286.40165 -64.7849,-239.507897 62.82173,25.5214 -51.04266,-200.244303 459.38379,15.7054 c 0,0 -127.6066,94.232603 -149.2016,184.538903 -21.5949,90.306197 51.0427,253.249997 51.0427,253.249997 z"
       id="path3340"
       inkscape:label="neck" />
    <g
       id="g12988"
       inkscape:label="head">
      <path
         style="display:inline;fill:none;fill-opacity:1;stroke:#f19020;stroke-width:32;stroke-linecap:round;stroke-linejoin:round;stroke-miterlimit:4;stroke-dasharray:none;stroke-dashoffset:0;stroke-opacity:1;paint-order:fill markers stroke;stop-color:#000000"
         d="M 400.7395,1200.2111 C 503.39645,1061.6902 596.78268,888.73181 646.84255,735.96487"
         id="path6280-0-6"
         sodipodi:nodetypes="cc"
         inkscape:label="eyelash left small"
         inkscape:transform-center-x="100.48319"
         inkscape:transform-center-y="185.17877" />
      <path
         style="display:inline;fill:none;fill-opacity:1;stroke:#f19020;stroke-width:32;stroke-linecap:round;stroke-linejoin:round;stroke-miterlimit:4;stroke-dasharray:none;stroke-dashoffset:0;stroke-opacity:1;paint-order:fill markers stroke;stop-color:#000000"
         d="M 375.93389,1481.3565 C 556.75268,1261.1351 682.45795,1023.0042 701.28237,750.14182"
         id="path6280-3"
         sodipodi:nodetypes="cc"
         inkscape:label="eyelash left big"
         inkscape:transform-center-x="163.18961"
         inkscape:transform-center-y="321.67074" />
      <path
         style="opacity:1;fill:#f19020;fill-opacity:1;stroke:#f19020;stroke-width:64;stroke-linecap:round;stroke-miterlimit:4;stroke-dasharray:none;stroke-dashoffset:0;stroke-opacity:1;paint-order:fill markers stroke;stop-color:#000000"
         d="m 845.2271,790.72299 c 0,0 -47.96997,170.62296 -41.94911,353.25581 6.62354,200.9142 83.89823,417.2833 152.34153,421.699 68.44328,4.4157 178.83568,-192.0828 207.53768,-331.1772 28.702,-139.0945 -4.4157,-445.98546 -4.4157,-445.98546 z"
         id="path1640"
         inkscape:label="left ear"
         sodipodi:nodetypes="cssscc" />
      <path
         sodipodi:type="spiral"
         style="display:inline;fill:none;fill-rule:evenodd;stroke:#65471b;stroke-width:64;stroke-linecap:round;stroke-linejoin:round;stroke-miterlimit:4;stroke-dasharray:none;stroke-opacity:1"
         id="path1108-9"
         sodipodi:cx="896.38641"
         sodipodi:cy="1046.5201"
         sodipodi:expansion="1"
         sodipodi:revolution="2.3504226"
         sodipodi:radius="284.2439"
         sodipodi:argument="-18.077454"
         sodipodi:t0="0.20026168"
         transform="rotate(145.08452,814.06349,772.68969)"
         d="m 849.02347,1014.9449 c 10.91053,-40.69478 59.41518,-55.04763 95.70862,-40.94331 54.10832,21.02752 72.12131,87.33851 49.32848,137.63461 -30.6443,67.6217 -115.39102,89.375 -179.56063,57.7137 -81.19743,-40.0628 -106.71874,-143.5022 -66.0989,-221.48663 49.38401,-94.81044 171.64565,-124.11384 263.41266,-74.48411 108.4468,58.65055 141.5409,199.80894 82.8693,305.33864 -67.8834,122.0986 -227.98546,158.9891 -347.26465,91.2545 -65.96819,-37.461 -113.63606,-102.3854 -131.2873,-176.0019" />
      <path
         id="path1148"
         style="display:inline;opacity:1;fill:#ffcb4c;stroke:#ffcb4c;stroke-width:64;stroke-linecap:round;stroke-linejoin:round;stroke-miterlimit:4;stroke-dasharray:6.4, 6.4;stroke-dashoffset:0;stroke-opacity:1;paint-order:fill markers stroke;stop-color:#000000"
         inkscape:label="head"
         d="m 1305.2994,471.73105 c 0,0 -0.1078,10.8206 -0.9512,28.418 -0.4217,8.7987 -1.0259,19.2912 -1.8945,30.9726 -0.8686,11.6814 -1.9997,24.5525 -3.4727,38.1055 -1.4729,13.553 -3.2888,27.7877 -5.5234,42.2012 -2.2347,14.41345 -4.8892,29.0047 -8.043,43.26755 -1.5769,7.13143 -3.279,14.18175 -5.1152,21.08594 -1.8362,6.90419 -3.8068,13.66232 -5.9219,20.21289 -2.1151,6.55056 -4.3733,12.89234 -6.7871,18.96289 -2.4138,6.07055 -4.9828,11.86984 -7.7148,17.33398 -2.7321,5.46415 -5.9346,10.78574 -9.5391,15.96094 -3.6045,5.1752 -7.6114,10.20474 -11.9492,15.08399 -4.3379,4.87924 -9.0074,9.60926 -13.9395,14.18554 -4.9321,4.57628 -10.1264,8.99932 -15.5136,13.26563 -5.3873,4.2663 -10.9666,8.37489 -16.67,12.32422 -5.7033,3.94932 -11.5298,7.73794 -17.4101,11.36333 -11.7607,7.2506 -23.7371,13.847 -35.3711,19.7597 -11.634,5.9127 -22.9257,11.1416 -33.3203,15.6602 -10.3946,4.5186 -19.8912,8.326 -27.9336,11.3945 -16.085,6.1369 -26.3535,9.3184 -26.3535,9.3184 -106.83131,15.9881 -232.17457,-6.9695 -312.625,-60.01371 C 637.98326,743.82466 602.36333,633.96489 540.54357,598.63925 c -61.81975,-35.3255 -225.20029,-77.273 -280.39649,-83.8965 -55.19621,-6.6235 -183.250356,-6.6246 -161.171873,-123.6406 22.078483,-117.016 112.599213,-282.6048 377.541013,-247.2793 264.94179,35.3256 313.51517,44.1575 536.50778,88.3145 22.8973,4.5341 53.8481,18.3195 86.8281,36.9472 l 213.8711,11.4278 -92.9258,75.2558 c 5.3578,4.8405 10.5999,9.7184 15.6328,14.6367 l 142.0762,2.375 -84.8808,69.668 c 3.4806,6.5537 6.4805,13.0207 8.6269,19.3066 1.0523,3.0817 2.0328,6.6268 3.0469,9.9766 z" />
      <path
         style="display:none;fill:#123456;stroke:#123456;stroke-width:64;stroke-linecap:round;stroke-linejoin:round;-inkscape-stroke:none;paint-order:fill markers stroke;stop-color:#000000"
         d="M 845.60652,877.83466 C 534.56028,822.23629 448.93304,1281.7253 446.95163,1324.4714 c 113.75051,-71.0196 159.95515,-228.2022 264.95436,-358.63086 -24.6061,144.14686 -131.90976,406.28276 28.40072,624.71116 0,0 -0.19243,-229.0734 175.45929,-315.4846 155.1469,-76.324 95.0437,-56.0532 95.0437,-56.0532 6.8857,45.1617 145.1735,224.9742 264.513,319.2383 0,0 17.107,-433.239 39.141,-535.0255 22.034,-101.78634 2.3662,-170.21702 2.3662,-170.21702 l -114.9431,134.5727 c 0.1,0.17422 -45.234,-34.14935 -356.28028,-89.74772 z"
         id="path1637"
         sodipodi:nodetypes="zcccsccsccz"
         inkscape:label="top hair" />
      <path
         id="path13483"
         style="display:inline;opacity:1;fill:#ffcb4c;stroke:#ffcb4c;stroke-width:64;stroke-linecap:round;stroke-linejoin:round;stroke-miterlimit:4;stroke-dasharray:6.4, 6.4;stroke-dashoffset:0;stroke-opacity:1;paint-order:fill markers stroke;stop-color:#000000"
         inkscape:label="right ear"
         d="m 1439.1392,1565.6784 c -79.4826,0 -239.79,-284.8703 -267.1504,-370.9199 -24.3601,-76.6137 -98.9266,-269.49105 -120.1132,-324.15045 0,0 10.2685,-3.1815 26.3535,-9.3184 8.0424,-3.0685 17.539,-6.8759 27.9336,-11.3945 10.3946,-4.5186 21.6863,-9.7475 33.3203,-15.6602 11.634,-5.9127 23.6104,-12.5091 35.3711,-19.7597 5.8803,-3.62539 11.7068,-7.41401 17.4101,-11.36333 5.7034,-3.94933 11.2827,-8.05792 16.67,-12.32422 5.3872,-4.26631 10.5815,-8.68935 15.5136,-13.26563 4.9321,-4.57628 9.6016,-9.3063 13.9395,-14.18554 4.3378,-4.87925 8.3447,-9.90879 11.9492,-15.08399 3.6045,-5.1752 6.807,-10.49679 9.5391,-15.96094 2.732,-5.46414 5.301,-11.26343 7.7148,-17.33398 2.4138,-6.07055 4.672,-12.41233 6.7871,-18.96289 2.1151,-6.55057 4.0857,-13.3087 5.9219,-20.21289 1.8362,-6.90419 3.5383,-13.95451 5.1152,-21.08594 3.1538,-14.26285 5.8083,-28.8541 8.043,-43.26755 2.2346,-14.4135 4.0505,-28.6482 5.5234,-42.2012 1.473,-13.553 2.6041,-26.4241 3.4727,-38.1055 0.8686,-11.6814 1.4728,-22.1739 1.8945,-30.9726 0.8434,-17.5974 0.9512,-28.418 0.9512,-28.418 96.8623,117.5327 277.3103,365.004 286.1797,588.34965 12.1432,305.787 -100.7972,505.5977 -152.3399,505.5977 z" />
      <g
         id="g13003"
         inkscape:label="face"
         transform="matrix(1,0,0,-1,6.2447382,1625.2897)">
        <path
           style="opacity:1;fill:none;fill-opacity:1;stroke:#65471b;stroke-width:64;stroke-linecap:round;stroke-linejoin:round;stroke-miterlimit:4;stroke-dasharray:none;stroke-dashoffset:0;stroke-opacity:1;paint-order:fill markers stroke;stop-color:#000000"
           d="m 83.898236,1201.0695 68.443294,6.6235 -37.53342,39.7413"
           id="path2163"
           inkscape:label="left nostril" />
        <path
           style="opacity:1;fill:none;fill-opacity:1;stroke:#65471b;stroke-width:64;stroke-linecap:round;stroke-linejoin:round;stroke-miterlimit:4;stroke-dasharray:none;stroke-dashoffset:0;stroke-opacity:1;paint-order:fill markers stroke;stop-color:#000000"
           d="m 401.82839,1251.85 -59.6119,-44.157 121.43166,-17.6628"
           id="path2198"
           inkscape:label="right nostril" />
        <path
           style="opacity:1;fill:none;fill-opacity:1;stroke:#65471b;stroke-width:64;stroke-linecap:round;stroke-linejoin:round;stroke-miterlimit:4;stroke-dasharray:none;stroke-dashoffset:0;stroke-opacity:1;paint-order:fill markers stroke;stop-color:#000000"
           d="m 132.4709,1346.7875 90.52178,-72.859 c 121.60195,66.8293 234.14181,106.4723 339.09411,123.3526"
           id="path2200"
           sodipodi:nodetypes="ccc"
           inkscape:label="mouf" />
        <path
           style="opacity:1;fill:#ffffff;fill-opacity:1;stroke:#65471b;stroke-width:64;stroke-linecap:round;stroke-linejoin:round;stroke-miterlimit:4;stroke-dasharray:none;stroke-dashoffset:0;stroke-opacity:1;paint-order:fill markers stroke;stop-color:#000000"
           d="m 222.99268,1530.0389 -90.52178,-183.2514 90.52178,-72.859 103.76887,66.2354 z"
           id="path2202"
           sodipodi:nodetypes="ccccc"
           inkscape:label="toof" />
      </g>
      <path
         style="opacity:1;fill:none;fill-opacity:1;stroke:#ffcb4c;stroke-width:32;stroke-linecap:round;stroke-linejoin:round;stroke-miterlimit:4;stroke-dasharray:none;stroke-dashoffset:0;stroke-opacity:1;paint-order:fill markers stroke;stop-color:#000000"
         d="M 583.8119,1550.5605 C 709.41352,1294.7928 777.2653,1034.2083 733.12357,764.28281"
         id="path6280"
         sodipodi:nodetypes="cc"
         inkscape:label="eyelash right big"
         inkscape:transform-center-x="75.603329"
         inkscape:transform-center-y="356.55721" />
      <path
         style="display:inline;fill:none;fill-opacity:1;stroke:#ffcb4c;stroke-width:32;stroke-linecap:round;stroke-linejoin:round;stroke-miterlimit:4;stroke-dasharray:none;stroke-dashoffset:0;stroke-opacity:1;paint-order:fill markers stroke;stop-color:#000000"
         d="M 829.31361,1336.8614 C 848.15343,1165.4801 841.62809,969.02908 807.86049,811.85561"
         id="path6280-0"
         sodipodi:nodetypes="cc"
         inkscape:label="eyelash right small"
         inkscape:transform-center-x="-16.108796"
         inkscape:transform-center-y="225.10948" />
      <path
         sodipodi:type="spiral"
         style="display:inline;fill:none;fill-rule:evenodd;stroke:#65471b;stroke-width:64;stroke-linecap:round;stroke-linejoin:round;stroke-miterlimit:4;stroke-dasharray:none;stroke-opacity:1"
         id="path1108"
         sodipodi:cx="896.38641"
         sodipodi:cy="1046.5201"
         sodipodi:expansion="1"
         sodipodi:revolution="2.3504226"
         sodipodi:radius="284.2439"
         sodipodi:argument="-18.077454"
         sodipodi:t0="0.20026168"
         transform="rotate(145.08452,986.59918,813.22541)"
         d="m 849.02347,1014.9449 c 10.91053,-40.69478 59.41518,-55.04763 95.70862,-40.94331 54.10832,21.02752 72.12131,87.33851 49.32848,137.63461 -30.6443,67.6217 -115.39102,89.375 -179.56063,57.7137 -81.19743,-40.0628 -106.71874,-143.5022 -66.0989,-221.48663 49.38401,-94.81044 171.64565,-124.11384 263.41266,-74.48411 108.4468,58.65055 141.5409,199.80894 82.8693,305.33864 -67.8834,122.0986 -227.98546,158.9891 -347.26465,91.2545 -65.96819,-37.461 -113.63606,-102.3854 -131.2873,-176.0019" />
    </g>
  </g>
</svg>
