<?xml version="1.0" encoding="UTF-8" standalone="no"?>
<!-- Created with Inkscape (http://www.inkscape.org/) -->

<svg
   version="1.1"
   id="svg824"
   width="1706.6667"
   height="1706.6667"
   viewBox="0 0 1706.6667 1706.6667"
   sodipodi:docname="ying_bonk.svg"
   inkscape:version="1.1 (c68e22c387, 2021-05-23)"
   inkscape:export-filename="D:\Pictures\yingmotes\ying_blush.png"
   inkscape:export-xdpi="72"
   inkscape:export-ydpi="72"
   xmlns:inkscape="http://www.inkscape.org/namespaces/inkscape"
   xmlns:sodipodi="http://sodipodi.sourceforge.net/DTD/sodipodi-0.dtd"
   xmlns="http://www.w3.org/2000/svg"
   xmlns:svg="http://www.w3.org/2000/svg">
  <defs
     id="defs828" />
  <sodipodi:namedview
     id="namedview826"
     pagecolor="#ffffff"
     bordercolor="#666666"
     borderopacity="1.0"
     inkscape:pageshadow="2"
     inkscape:pageopacity="0.0"
     inkscape:pagecheckerboard="0"
     showgrid="false"
     inkscape:zoom="0.45292966"
     inkscape:cx="1038.7926"
     inkscape:cy="833.46275"
     inkscape:window-width="1920"
     inkscape:window-height="1001"
     inkscape:window-x="-9"
     inkscape:window-y="-9"
     inkscape:window-maximized="1"
     inkscape:current-layer="layer1" />
  <g
     id="layer1"
     inkscape:label="Ying"
     style="display:inline"
     inkscape:groupmode="layer">
    <path
       style="display:none;fill:#123456;stroke:#123456;stroke-width:64;stroke-linecap:round;stroke-linejoin:round;-inkscape-stroke:none;paint-order:fill markers stroke;stop-color:#000000"
       d="m 1298.031,865.09775 c 70.7982,131.45402 185.3824,239.02475 198.7064,401.82835 -29.438,-19.1346 -55.9321,-14.719 -79.4825,13.2471 91.0222,54.7003 58.5139,175.917 81.6903,267.1496 l -99.3531,6.6236 c 66.7588,58.9185 81.773,128.1858 90.5218,198.7063 l -494.50725,2.2079 c -24.3802,-41.4813 23.11455,-208.5632 66.23555,-227.0436 0,0 3.3791,-20.0154 -75.35325,-9.4549 C 1015.23,1271.0896 1172.1837,1096.1858 1298.031,865.09775 Z"
       id="path3091"
       sodipodi:nodetypes="cccccccccc"
       inkscape:label="mane" />
    <path
       style="opacity:1;fill:#ffcb4c;fill-opacity:1;stroke:#ffcb4c;stroke-width:64;stroke-linecap:round;stroke-linejoin:round;stroke-miterlimit:4;stroke-dasharray:none;stroke-dashoffset:0;stroke-opacity:1;paint-order:fill markers stroke;stop-color:#000000"
       d="m 848.0933,1338.888 -105.3757,267.6092 103.41253,-53.6227 -94.75583,206.489 503.097,-21.9501 c 0,0 -127.6066,-94.2326 -149.2016,-184.5389 -21.5949,-90.3062 51.0427,-253.25 51.0427,-253.25 z"
       id="path3340"
       inkscape:label="neck"
       sodipodi:nodetypes="cccccscc" />
    <g
       id="g12988"
       inkscape:label="head"
       inkscape:groupmode="layer"
       style="display:inline">
      <path
         style="display:inline;fill:#f19020;fill-opacity:1;stroke:#f19020;stroke-width:64;stroke-linecap:round;stroke-miterlimit:4;stroke-dasharray:none;stroke-dashoffset:0;stroke-opacity:1;paint-order:fill markers stroke;stop-color:#000000"
         d="m 852.98326,1058.849 c 0,0 154.08354,87.5877 332.80604,125.6562 196.6127,41.879 425.2143,18.8956 445.9571,-46.4781 20.7429,-65.3737 -143.448,-219.77407 -271.5607,-281.07827 -128.1128,-61.3041 -433.96342,-74.24557 -433.96342,-74.24557 z"
         id="path1640-1"
         inkscape:label="left ear"
         sodipodi:nodetypes="cssscc" />
      <path
         style="display:inline;fill:none;fill-opacity:1;stroke:#f19020;stroke-width:32;stroke-linecap:round;stroke-linejoin:round;stroke-miterlimit:4;stroke-dasharray:none;stroke-dashoffset:0;stroke-opacity:1;paint-order:fill markers stroke;stop-color:#000000"
         d="m 172.1218,570.53391 c 158.90749,66.89468 327.38255,168.14551 448.28887,274.0955"
         id="path6280-0-6"
         sodipodi:nodetypes="cc"
         inkscape:label="eyelash left small"
         inkscape:transform-center-x="190.53955"
         inkscape:transform-center-y="-109.81987" />
      <path
         style="display:inline;fill:none;fill-opacity:1;stroke:#f19020;stroke-width:32;stroke-linecap:round;stroke-linejoin:round;stroke-miterlimit:4;stroke-dasharray:none;stroke-dashoffset:0;stroke-opacity:1;paint-order:fill markers stroke;stop-color:#000000"
         d="M 44.823747,383.27023 C 315.67565,471.76975 549.68116,604.9972 712.23094,824.96491"
         id="path6280-3"
         sodipodi:nodetypes="cc"
         inkscape:label="eyelash left big"
         inkscape:transform-center-x="295.95411"
         inkscape:transform-center-y="-173.53132" />
      <g
         id="g12997"
         inkscape:label="left eye">
        <path
           id="path1915-9"
           style="display:inline;fill:#d19020;fill-opacity:1;stroke:#65471b;stroke-width:64;stroke-linecap:round;stroke-linejoin:round;paint-order:fill markers stroke;stop-color:#000000"
           inkscape:label="lefteye"
           d="m 792.61751,1048.7279 c 10e-6,120.7167 -155.86024,218.577 -276.57698,218.577 -120.71674,0 -160.57699,-55.8603 -160.57698,-176.577 0,-120.71673 97.86025,-260.57698 218.57698,-260.57698 120.71673,0 218.57698,97.86025 218.57698,218.57698 z"
           sodipodi:nodetypes="sssss" />
      </g>
      <path
         id="path1148"
         style="display:inline;opacity:1;fill:#ffcb4c;stroke:#ffcb4c;stroke-width:64;stroke-linecap:round;stroke-linejoin:round;stroke-miterlimit:4;stroke-dasharray:6.4, 6.4;stroke-dashoffset:0;stroke-opacity:1;paint-order:fill markers stroke;stop-color:#000000"
         inkscape:label="head"
         d="m 1299.0547,1153.5586 c 0,0 -0.1078,-10.8206 -0.9512,-28.418 -0.4217,-8.7987 -1.0259,-19.2912 -1.8945,-30.9726 -0.8686,-11.6814 -1.9997,-24.5525 -3.4727,-38.1055 -1.4729,-13.553 -3.2888,-27.7877 -5.5234,-42.2012 -2.2347,-14.41345 -4.8892,-29.0047 -8.043,-43.26755 -1.5769,-7.13143 -3.279,-14.18175 -5.1152,-21.08594 -1.8362,-6.90419 -3.8068,-13.66232 -5.9219,-20.21289 -2.1151,-6.55056 -4.3733,-12.89234 -6.7871,-18.96289 -2.4138,-6.07055 -4.9828,-11.86984 -7.7148,-17.33398 -2.7321,-5.46415 -5.9346,-10.78574 -9.5391,-15.96094 -3.6045,-5.1752 -7.6114,-10.20474 -11.9492,-15.08399 -4.3379,-4.87924 -9.0074,-9.60926 -13.9395,-14.18554 -4.9321,-4.57628 -10.1264,-8.99932 -15.5136,-13.26563 -5.3873,-4.2663 -10.9666,-8.37489 -16.67,-12.32422 -5.7033,-3.94932 -11.5298,-7.73794 -17.4101,-11.36328 -11.7607,-7.25067 -23.7371,-13.84709 -35.3711,-19.75976 -11.634,-5.91267 -22.9257,-11.14156 -33.3203,-15.66016 -10.3946,-4.5186 -19.8912,-8.32606 -27.9336,-11.39453 -16.085,-6.13693 -26.3535,-9.31836 -26.3535,-9.31836 -106.83135,-15.98813 -232.17461,6.96944 -312.62504,60.01367 -101.26734,66.76968 -136.88727,176.62945 -198.70703,211.95509 -61.81975,35.3255 -225.20029,77.273 -280.39649,83.8965 -55.19621,6.6235 -183.250354,6.6246 -161.171871,123.6406 22.078481,117.016 112.599211,282.6048 377.541011,247.2793 264.94179,-35.3256 313.51517,-44.1575 536.50782,-88.3145 22.8973,-4.5341 53.8481,-18.3195 86.8281,-36.9472 l 291.9303,26.0406 -170.985,-112.7242 c 5.3578,-4.8405 10.5999,-9.7184 15.6328,-14.6367 l 220.1354,-11.7421 -162.94,-60.3009 c 3.4806,-6.5537 6.4805,-13.0207 8.6269,-19.3066 1.0523,-3.0817 2.0328,-6.6268 3.0469,-9.9766 z"
         sodipodi:nodetypes="csssssssssssssssssscssssssccccccsc" />
      <path
         style="display:none;fill:#123456;stroke:#123456;stroke-width:64;stroke-linecap:round;stroke-linejoin:round;-inkscape-stroke:none;paint-order:fill markers stroke;stop-color:#000000"
         d="M 880.93148,744.0449 C 763.91552,771.643 660.08166,947.48075 660.08166,947.48075 658.421,864.43511 611.27974,749.4374 735.2135,677.80944 600.38251,650.08026 637.60877,797.44975 507.85896,917.76114 438.50778,859.07937 630.78292,560.66011 854.37232,574.91701 1026.9262,585.91969 1081.8457,481.31094 1081.8457,481.31094 1081.6534,435.62771 1016.042,411.786 956.97786,371.98995 c 0,0 306.20034,91.533 367.73114,175.55644 137.4492,187.69403 119.2507,408.21889 119.2507,408.21889 L 1109.6585,750.26594 c 0,0 -111.71105,-33.81914 -228.72702,-6.22104 z"
         id="path1637"
         sodipodi:nodetypes="zcccsccsccz"
         inkscape:label="top hair" />
      <g
         id="g13003"
         inkscape:label="face">
        <path
           style="opacity:1;fill:none;fill-opacity:1;stroke:#65471b;stroke-width:64;stroke-linecap:round;stroke-linejoin:round;stroke-miterlimit:4;stroke-dasharray:none;stroke-opacity:1;paint-order:stroke fill markers;stop-color:#000000"
           d="m 222.99268,1273.9285 c 0,0 201.28676,99.7455 262.7855,164.9294"
           id="path10022"
           sodipodi:nodetypes="cc" />
        <path
           style="opacity:1;fill:none;fill-opacity:1;stroke:#65471b;stroke-width:64;stroke-linecap:round;stroke-linejoin:round;stroke-miterlimit:4;stroke-dasharray:none;stroke-dashoffset:0;stroke-opacity:1;paint-order:fill markers stroke;stop-color:#000000"
           d="m 83.898236,1201.0695 68.443294,6.6235 -37.53342,39.7413"
           id="path2163"
           inkscape:label="left nostril" />
        <path
           style="opacity:1;fill:none;fill-opacity:1;stroke:#65471b;stroke-width:64;stroke-linecap:round;stroke-linejoin:round;stroke-miterlimit:4;stroke-dasharray:none;stroke-dashoffset:0;stroke-opacity:1;paint-order:fill markers stroke;stop-color:#000000"
           d="m 401.82839,1251.85 -59.6119,-44.157 121.43166,-17.6628"
           id="path2198"
           inkscape:label="right nostril" />
        <path
           style="opacity:1;fill:#ffffff;fill-opacity:1;stroke:#65471b;stroke-width:64;stroke-linecap:round;stroke-linejoin:round;stroke-miterlimit:4;stroke-dasharray:none;stroke-dashoffset:0;stroke-opacity:1;paint-order:fill markers stroke;stop-color:#000000"
           d="m 222.99268,1530.0389 -90.52178,-183.2514 90.52178,-72.859 103.76887,66.2354 z"
           id="path2202"
           sodipodi:nodetypes="ccccc"
           inkscape:label="toof" />
      </g>
      <path
         id="path13483-6"
         style="display:inline;fill:#ffcb4c;stroke:#ffcb4c;stroke-width:63.9997;stroke-linecap:round;stroke-linejoin:round;stroke-miterlimit:4;stroke-dasharray:6.39997, 6.39997;stroke-dashoffset:0;stroke-opacity:1;paint-order:fill markers stroke;stop-color:#000000"
         inkscape:label="right ear"
         d="m 1523.8841,1563.6968 c -77.7646,16.4364 -276.1393,-146.9138 -315.4538,-200.6119 -35.0033,-47.8097 -203.2093,-162.3122 -231.90704,-195.6344 -83.62638,-194.69874 50.63014,-403.81084 132.78344,-348.15863 147.096,8.25455 457.0076,199.41533 489.9115,364.14683 42.2949,211.7472 -24.9055,369.5995 -75.3341,380.2581 z"
         sodipodi:nodetypes="ssccss"
         inkscape:transform-center-x="-139.0813"
         inkscape:transform-center-y="171.80015" />
      <g
         id="g12993"
         inkscape:label="right eye">
        <path
           style="opacity:1;fill:#65471b;fill-opacity:1;stroke:#65471b;stroke-width:64;stroke-linecap:round;stroke-linejoin:round;stroke-miterlimit:4;stroke-dasharray:none;stroke-dashoffset:0;stroke-opacity:1;paint-order:fill markers stroke;stop-color:#000000"
           d="m 661.97569,1226.0485 53.36716,-115.5008 86.53085,168.711 z"
           id="path7852"
           inkscape:label="eyenub"
           sodipodi:nodetypes="cccc" />
        <path
           id="path1915"
           style="opacity:1;fill:#d19020;fill-opacity:1;stroke:#65471b;stroke-width:64;stroke-linecap:round;stroke-linejoin:round;paint-order:fill markers stroke;stop-color:#000000"
           inkscape:label="righteye"
           d="m 1150.289,1075.2222 c 0,120.7167 -151.8603,218.5769 -272.57702,218.5769 -120.71671,0 -164.57695,-71.8602 -164.57699,-192.5769 -2e-5,-120.71675 97.86024,-244.57702 218.57699,-244.57701 120.71672,-2e-5 218.57702,97.86025 218.57702,218.57701 z"
           sodipodi:nodetypes="sssss" />
        <path
           style="opacity:1;fill:none;fill-opacity:1;stroke:#65471b;stroke-width:64;stroke-linecap:round;stroke-linejoin:round;stroke-miterlimit:4;stroke-dasharray:none;stroke-opacity:1;paint-order:stroke fill markers;stop-color:#000000"
           d="m 739.6292,1218.7323 c 126.15135,-156.1536 329.2404,-322.22916 403.1447,-196.6325"
           id="path1276"
           sodipodi:nodetypes="cc" />
      </g>
      <g
         id="g4240"
         transform="matrix(0.27513425,0.55170611,-0.55334694,0.27303806,1152.7139,843.15978)"
         style="display:inline;fill:#c49e79;fill-opacity:1;stroke:#c49e79;stroke-width:51.8831;stroke-miterlimit:4;stroke-dasharray:none;stroke-opacity:1">
        <g
           id="g1783"
           transform="translate(22.709274,11.291467)">
          <path
             id="rect1984"
             style="stroke-width:51.8831;stroke-linecap:round;stroke-linejoin:round;stroke-dashoffset:172.8;paint-order:fill markers stroke;stop-color:#000000"
             d="M -581.77512,-3.9308499 C -498.37567,-4.1336988 -431.4987,105.19944 -431.82676,241.2107 l -1.28648,533.36245 c -0.32806,136.01127 -70.93899,420.15575 -154.33844,420.35865 -83.39945,0.2028 -147.07066,-283.61507 -146.7426,-419.62634 l 1.28647,-533.36245 c 0.32806,-136.01127 67.73324,-245.6710109 151.13269,-245.8738599 z"
             sodipodi:nodetypes="sssssss" />
          <rect
             style="fill:#c49e79;fill-opacity:1;stroke:#c49e79;stroke-width:51.8837;stroke-linecap:round;stroke-linejoin:round;stroke-miterlimit:4;stroke-dasharray:none;stroke-dashoffset:172.8;stroke-opacity:1;paint-order:fill markers stroke;stop-color:#000000"
             id="rect2027"
             width="150.48647"
             height="434.60349"
             x="-654.52386"
             y="1133.075"
             transform="matrix(0.99999405,-0.00344867,-0.00341472,0.99999417,0,0)" />
          <path
             sodipodi:type="star"
             style="fill:#c49e79;fill-opacity:1;stroke:#c49e79;stroke-width:98.5869;stroke-linecap:round;stroke-linejoin:round;stroke-miterlimit:4;stroke-dasharray:none;stroke-dashoffset:249.126;stroke-opacity:1;paint-order:fill markers stroke;stop-color:#000000"
             id="path2164"
             inkscape:flatsided="true"
             sodipodi:sides="3"
             sodipodi:cx="-567.48108"
             sodipodi:cy="1607.3451"
             sodipodi:r1="221.71019"
             sodipodi:r2="110.8551"
             sodipodi:arg1="-1.5707963"
             sodipodi:arg2="-0.52359878"
             inkscape:rounded="0"
             inkscape:randomized="0"
             inkscape:transform-center-y="-29.860638"
             transform="matrix(0.51054888,-0.00176073,-0.00185242,0.5424757,-291.84854,674.01324)"
             inkscape:transform-center-x="6.0522215e-06"
             d="m -567.48107,1385.6349 192.00664,332.5653 -384.01331,0 z" />
        </g>
      </g>
      <path
         style="opacity:1;fill:none;fill-opacity:1;stroke:#ffcb4c;stroke-width:32;stroke-linecap:round;stroke-linejoin:round;stroke-miterlimit:4;stroke-dasharray:none;stroke-dashoffset:0;stroke-opacity:1;paint-order:fill markers stroke;stop-color:#000000"
         d="M 293.85547,177.20477 C 512.11206,360.39042 679.49213,571.32179 748.20805,836.06006"
         id="path6280"
         sodipodi:nodetypes="cc"
         inkscape:label="eyelash right big"
         inkscape:transform-center-x="208.295"
         inkscape:transform-center-y="-269.64147" />
      <path
         style="display:inline;fill:none;fill-opacity:1;stroke:#ffcb4c;stroke-width:32;stroke-linecap:round;stroke-linejoin:round;stroke-miterlimit:4;stroke-dasharray:none;stroke-dashoffset:0;stroke-opacity:1;paint-order:fill markers stroke;stop-color:#000000"
         d="m 621.32363,323.87874 c 94.50689,144.20447 177.77471,322.25516 218.9512,477.65218"
         id="path6280-0"
         sodipodi:nodetypes="cc"
         inkscape:label="eyelash right small"
         inkscape:transform-center-x="59.799644"
         inkscape:transform-center-y="-203.94115" />
    </g>
    <g
       id="path9452"
       style="display:inline;fill:#ff6600;stroke:#ffffff;stroke-width:96;stroke-miterlimit:4;stroke-dasharray:none;paint-order:stroke fill markers"
       transform="rotate(87.204868,987.81227,1036.9028)">
      <path
         id="path9729"
         style="color:#000000;fill:#ff6600;stroke:#000000;stroke-width:96;stroke-linecap:round;stroke-linejoin:round;stroke-miterlimit:4;stroke-dasharray:none;paint-order:stroke fill markers"
         d="m 618.09448,480.36083 a 48,48 0 0 0 -50.40719,45.46494 l -13.60585,263.82297 a 48,48 0 0 0 45.46493,50.40719 48,48 0 0 0 50.40719,-45.46493 L 663.55905,530.76994 A 48,48 0 0 0 618.09448,480.36083 Z M 602.01746,792.1199 615.62269,528.29788 M 391.13483,472.99563 a 48,48 0 0 0 -18.51462,2.82735 48,48 0 0 0 -28.75721,61.4888 l 101.96626,281.14419 a 48,48 0 0 0 61.4888,28.75719 48,48 0 0 0 28.75912,-61.48843 L 434.11092,504.58054 A 48,48 0 0 0 391.13483,472.99563 Z M 490.95292,802.09034 388.98627,520.94658 M 201.62307,623.9245 a 48,48 0 0 0 -34.21218,13.3836 48,48 0 0 0 -1.34635,67.8688 l 193.67471,201.50515 a 48,48 0 0 0 67.86881,1.34634 48,48 0 0 0 1.34442,-67.86916 L 235.27813,638.65216 A 48,48 0 0 0 201.62307,623.9245 Z M 394.3465,873.42061 200.6719,671.91502" />
    </g>
  </g>
</svg>
