<?xml version="1.0" encoding="UTF-8" standalone="no"?>
<!-- Created with Inkscape (http://www.inkscape.org/) -->

<svg
   version="1.1"
   id="svg824"
   width="1706.6667"
   height="1706.6667"
   viewBox="0 0 1706.6667 1706.6667"
   sodipodi:docname="ying_melt2.svg"
   inkscape:version="1.3.2 (091e20e, 2023-11-25, custom)"
   inkscape:export-filename="D:\Pictures\yingmotes\ying_happy.png"
   inkscape:export-xdpi="72"
   inkscape:export-ydpi="72"
   xmlns:inkscape="http://www.inkscape.org/namespaces/inkscape"
   xmlns:sodipodi="http://sodipodi.sourceforge.net/DTD/sodipodi-0.dtd"
   xmlns="http://www.w3.org/2000/svg"
   xmlns:svg="http://www.w3.org/2000/svg">
  <defs
     id="defs828" />
  <sodipodi:namedview
     id="namedview826"
     pagecolor="#ffffff"
     bordercolor="#666666"
     borderopacity="1.0"
     inkscape:pageshadow="2"
     inkscape:pageopacity="0.0"
     inkscape:pagecheckerboard="0"
     showgrid="false"
     inkscape:zoom="0.29207707"
     inkscape:cx="528.96997"
     inkscape:cy="912.43041"
     inkscape:window-width="1920"
     inkscape:window-height="1001"
     inkscape:window-x="-9"
     inkscape:window-y="-9"
     inkscape:window-maximized="1"
     inkscape:current-layer="layer1"
     inkscape:showpageshadow="2"
     inkscape:deskcolor="#d1d1d1" />
  <g
     id="layer1"
     inkscape:label="Ying"
     style="display:inline"
     inkscape:groupmode="layer"
     transform="translate(0,40)">
    <path
       style="display:none;fill:#123456;stroke:#123456;stroke-width:47.8832;stroke-linecap:round;stroke-linejoin:round;-inkscape-stroke:none;paint-order:fill markers stroke;stop-color:#000000"
       d="m 1298.031,1256.8007 c 70.7982,73.5836 185.3824,133.7982 198.7064,224.9303 -29.438,-10.711 -55.9321,-8.2392 -79.4825,7.4152 91.0222,30.6195 58.5139,98.4726 81.6903,149.5416 l -99.3531,3.7077 c 66.7588,32.9806 81.773,71.7541 90.5218,111.2292 l -494.50725,1.2359 c -24.3802,-23.2199 23.11455,-116.7468 66.23555,-127.0915 0,0 3.3791,-11.204 -75.35325,-5.2926 28.74105,-138.4149 185.69475,-236.3203 311.54205,-365.6758 z"
       id="path3091"
       sodipodi:nodetypes="cccccccccc"
       inkscape:label="mane" />
    <path
       style="display:inline;opacity:1;fill:#ffcb4c;fill-opacity:1;stroke:#ffcb4c;stroke-width:47.8832;stroke-linecap:round;stroke-linejoin:round;stroke-miterlimit:4;stroke-dasharray:none;stroke-dashoffset:0;stroke-opacity:1;paint-order:fill markers stroke;stop-color:#000000"
       d="m 848.0933,1522.0129 -64.7849,134.0686 62.82173,-14.2861 -51.04266,112.0902 459.38383,-8.7913 c 0,0 -127.6066,-52.7484 -149.2016,-103.2989 -21.5949,-50.5504 51.0427,-141.7609 51.0427,-141.7609 z"
       id="path3340"
       inkscape:label="neck" />
    <g
       id="g12988"
       inkscape:label="head"
       transform="matrix(1,0,0,0.70709669,0,514.00447)"
       style="display:inline">
      <path
         style="display:inline;fill:none;fill-opacity:1;stroke:#f19020;stroke-width:28.4718;stroke-linecap:round;stroke-linejoin:round;stroke-miterlimit:4;stroke-dasharray:none;stroke-dashoffset:0;stroke-opacity:1;paint-order:fill markers stroke;stop-color:#000000"
         d="m 210.06027,844.86412 c 160.04837,50.75776 330.2612,128.57724 452.99433,210.77198"
         id="path6280-0-6"
         sodipodi:nodetypes="cc"
         inkscape:label="eyelash left small" />
      <path
         style="display:inline;fill:none;fill-opacity:1;stroke:#f19020;stroke-width:28.4718;stroke-linecap:round;stroke-linejoin:round;stroke-miterlimit:4;stroke-dasharray:none;stroke-dashoffset:0;stroke-opacity:1;paint-order:fill markers stroke;stop-color:#000000"
         d="M 100.38532,703.12493 C 369.88571,776.37833 601.876,884.60077 761.12346,1060.6382"
         id="path6280-3"
         sodipodi:nodetypes="cc"
         inkscape:label="eyelash left big" />
      <g
         id="g12997"
         inkscape:label="left eye"
         style="fill:#d19020;fill-opacity:1"
         transform="matrix(1,0,0,0.79164139,0,365.64031)">
        <path
           id="path1915-9"
           style="display:inline;fill:#d19020;fill-opacity:1;stroke:#65471b;stroke-width:64;stroke-linecap:round;stroke-linejoin:round;paint-order:fill markers stroke;stop-color:#000000"
           inkscape:label="lefteye"
           d="m 792.61751,1048.7279 c 10e-6,120.7167 -155.86024,218.577 -276.57698,218.577 -120.71674,0 -160.57699,-55.8603 -160.57698,-176.577 0,-120.71673 97.86025,-260.57698 218.57698,-260.57698 120.71673,0 218.57698,97.86025 218.57698,218.57698 z"
           sodipodi:nodetypes="sssss" />
      </g>
      <path
         style="opacity:1;fill:#f19020;fill-opacity:1;stroke:#f19020;stroke-width:56.9435;stroke-linecap:round;stroke-miterlimit:4;stroke-dasharray:none;stroke-dashoffset:0;stroke-opacity:1;paint-order:fill markers stroke;stop-color:#000000"
         d="m 816.3055,972.37443 c 0,0 33.44316,-137.78853 120.54475,-264.95553 95.82045,-139.89635 261.74035,-265.709 324.92585,-244.59181 63.1857,21.1172 73.9901,199.33573 37.4223,307.97784 -36.5676,108.64215 -203.5002,314.18297 -203.5002,314.18297 z"
         id="path1640"
         inkscape:label="left ear"
         sodipodi:nodetypes="cssscc"
         inkscape:transform-center-x="-55.336246"
         inkscape:transform-center-y="-153.8599" />
      <path
         id="path1148"
         style="display:inline;opacity:1;fill:#ffcb4c;stroke:#ffcb4c;stroke-width:56.9435;stroke-linecap:round;stroke-linejoin:round;stroke-miterlimit:4;stroke-dasharray:5.69435, 5.69435;stroke-dashoffset:0;stroke-opacity:1;paint-order:fill markers stroke;stop-color:#000000"
         inkscape:label="head"
         d="m 1299.0547,1278.845 c 0,0 -0.1078,-8.566 -0.9512,-22.4968 -0.4217,-6.9654 -1.0259,-15.2717 -1.8945,-24.5192 -0.8686,-9.2475 -1.9997,-19.4368 -3.4727,-30.1659 -1.4729,-10.7291 -3.2888,-21.9979 -5.5234,-33.4082 -2.2347,-11.4103 -4.8892,-22.9613 -8.043,-34.2524 -1.5769,-5.6455 -3.279,-11.2269 -5.1152,-16.6925 -1.8362,-5.4656 -3.8068,-10.8157 -5.9219,-16.0014 -2.1151,-5.1857 -4.3733,-10.2061 -6.7871,-15.0118 -2.4138,-4.8057 -4.9828,-9.3966 -7.7148,-13.7223 -2.7321,-4.3256 -5.9346,-8.5384 -9.5391,-12.6353 -3.6045,-4.0969 -7.6114,-8.0785 -11.9492,-11.9411 -4.3379,-3.8626 -9.0074,-7.6071 -13.9395,-11.2299 -4.9321,-3.6228 -10.1264,-7.1242 -15.5136,-10.5016 -5.3873,-3.3774 -10.9666,-6.6299 -16.67,-9.7564 -5.7033,-3.1264 -11.5298,-6.1256 -17.4101,-8.9956 -11.7607,-5.7399 -23.7371,-10.96194 -35.3711,-15.64265 -11.634,-4.68072 -22.9257,-8.82012 -33.3203,-12.39723 -10.3946,-3.57711 -19.8912,-6.59126 -27.9336,-9.02038 -16.085,-4.85825 -26.3535,-7.3768 -26.3535,-7.3768 -106.83135,-12.65687 -232.17461,5.51729 -312.62504,47.50926 -101.26734,52.8577 -136.88727,139.8272 -198.70703,167.7925 -61.81975,27.9651 -225.20029,61.1725 -280.39649,66.4159 -55.19621,5.2434 -183.250354,5.2443 -161.171871,97.879 22.078481,92.6347 112.599211,223.7217 377.541011,195.7566 264.94179,-27.9653 313.51517,-34.957 536.50782,-69.9135 22.8973,-3.5893 53.8481,-14.5024 86.8281,-29.2489 l 213.8711,-9.0467 -92.9258,-59.5756 c 5.3578,-3.832 10.5999,-7.6935 15.6328,-11.587 l 142.0762,-1.8802 -84.8808,-55.1521 c 3.4806,-5.1881 6.4805,-10.3077 8.6269,-15.2839 1.0523,-2.4396 2.0328,-5.246 3.0469,-7.8979 z" />
      <path
         style="display:none;fill:#123456;stroke:#123456;stroke-width:56.9435;stroke-linecap:round;stroke-linejoin:round;-inkscape-stroke:none;paint-order:fill markers stroke;stop-color:#000000"
         d="M 880.93148,954.65705 C 763.91552,976.50485 622.61323,1090.9873 622.61323,1090.9873 620.95257,1025.245 611.27974,958.92598 735.2135,902.22232 c -124.69479,-5.9031 -249.2876,-11.96764 -408.45194,36.70431 0,0 303.22641,-208.69428 490.14233,-221.97367 172.2122,-12.23476 264.94181,29.71301 264.94181,29.71301 -0.1923,-36.16473 -31.4577,-69.86959 -90.52179,-101.37379 0,0 295.85169,76.90425 333.38509,153.80852 37.5334,76.90426 28.702,132.83463 28.702,132.83463 l -243.7525,27.64655 c 0,0 -111.71105,-26.77263 -228.72702,-4.92483 z"
         id="path1637"
         sodipodi:nodetypes="zcccsccsccz"
         inkscape:label="top hair" />
      <path
         id="path13483"
         style="display:inline;opacity:1;fill:#ffcb4c;stroke:#ffcb4c;stroke-width:56.9435;stroke-linecap:round;stroke-linejoin:round;stroke-miterlimit:4;stroke-dasharray:5.69435, 5.69435;stroke-dashoffset:0;stroke-opacity:1;paint-order:fill markers stroke;stop-color:#000000"
         inkscape:label="right ear"
         d="m 1569.3418,455.88825 c -78.5039,-9.84353 -281.4028,193.04161 -321.8881,256.93486 -36.0457,56.88686 -139.868,198.46184 -169.3447,238.57587 -122.76234,277.50312 83.155,293.53372 187.9029,343.26482 114.0565,-79.9023 330.9973,-251.051 374.6979,-424.58517 59.8312,-237.58919 -20.46,-407.80709 -71.368,-414.19038 z"
         sodipodi:nodetypes="ssccss"
         inkscape:transform-center-x="-144.68283"
         inkscape:transform-center-y="-248.63998" />
      <g
         id="g13003"
         inkscape:label="face"
         transform="matrix(1,0,0,0.79164139,0,365.64031)">
        <path
           style="opacity:1;fill:none;fill-opacity:1;stroke:#65471b;stroke-width:64;stroke-linecap:round;stroke-linejoin:round;stroke-miterlimit:4;stroke-dasharray:none;stroke-dashoffset:0;stroke-opacity:1;paint-order:fill markers stroke;stop-color:#000000"
           d="m 83.898236,1201.0695 68.443294,6.6235 -37.53342,39.7413"
           id="path2163"
           inkscape:label="left nostril" />
        <path
           style="opacity:1;fill:none;fill-opacity:1;stroke:#65471b;stroke-width:64;stroke-linecap:round;stroke-linejoin:round;stroke-miterlimit:4;stroke-dasharray:none;stroke-dashoffset:0;stroke-opacity:1;paint-order:fill markers stroke;stop-color:#000000"
           d="m 401.82839,1251.85 -59.6119,-44.157 121.43166,-17.6628"
           id="path2198"
           inkscape:label="right nostril" />
        <path
           style="opacity:1;fill:none;fill-opacity:1;stroke:#65471b;stroke-width:64;stroke-linecap:round;stroke-linejoin:round;stroke-miterlimit:4;stroke-dasharray:none;stroke-dashoffset:0;stroke-opacity:1;paint-order:fill markers stroke;stop-color:#000000"
           d="m 132.4709,1346.7875 90.52178,-72.859 c 0,0 227.99027,157.1936 304.17428,154.6413 131.8052,-4.4157 125.46854,-93.7361 125.46854,-93.7361"
           id="path2200"
           sodipodi:nodetypes="ccsc"
           inkscape:label="mouf" />
        <path
           style="opacity:1;fill:#ffffff;fill-opacity:1;stroke:#65471b;stroke-width:64;stroke-linecap:round;stroke-linejoin:round;stroke-miterlimit:4;stroke-dasharray:none;stroke-dashoffset:0;stroke-opacity:1;paint-order:fill markers stroke;stop-color:#000000"
           d="m 222.99268,1530.0389 -90.52178,-183.2514 90.52178,-72.859 103.76887,66.2354 z"
           id="path2202"
           sodipodi:nodetypes="ccccc"
           inkscape:label="toof" />
      </g>
      <g
         id="g12993"
         inkscape:label="right eye"
         transform="matrix(1,0,0,0.79164139,0,365.64031)">
        <path
           style="opacity:1;fill:#65471b;fill-opacity:1;stroke:#65471b;stroke-width:64;stroke-linecap:round;stroke-linejoin:round;stroke-miterlimit:4;stroke-dasharray:none;stroke-dashoffset:0;stroke-opacity:1;paint-order:fill markers stroke;stop-color:#000000"
           d="m 661.97569,1226.0485 53.36716,-115.5008 86.53085,168.711 z"
           id="path7852"
           inkscape:label="eyenub"
           sodipodi:nodetypes="cccc" />
        <path
           id="path1915"
           style="opacity:1;fill:#d19020;fill-opacity:1;stroke:#65471b;stroke-width:64;stroke-linecap:round;stroke-linejoin:round;paint-order:fill markers stroke;stop-color:#000000"
           inkscape:label="righteye"
           d="m 1150.289,1075.2222 c 0,120.7167 -151.8603,218.5769 -272.57702,218.5769 -120.71671,0 -164.57695,-71.8602 -164.57699,-192.5769 -2e-5,-120.71675 97.86024,-244.57702 218.57699,-244.57701 120.71672,-2e-5 218.57702,97.86025 218.57702,218.57701 z"
           sodipodi:nodetypes="sssss" />
      </g>
      <path
         style="opacity:1;fill:none;fill-opacity:1;stroke:#ffcb4c;stroke-width:28.4718;stroke-linecap:round;stroke-linejoin:round;stroke-miterlimit:4;stroke-dasharray:none;stroke-dashoffset:0;stroke-opacity:1;paint-order:fill markers stroke;stop-color:#000000"
         d="M 251.98402,550.04293 C 479.3563,685.99974 657.34341,845.95973 739.55851,1052.4688"
         id="path6280"
         sodipodi:nodetypes="cc"
         inkscape:label="eyelash right big"
         inkscape:transform-center-x="264.13445"
         inkscape:transform-center-y="-234.19281" />
      <path
         style="display:inline;fill:none;fill-opacity:1;stroke:#ffcb4c;stroke-width:28.4718;stroke-linecap:round;stroke-linejoin:round;stroke-miterlimit:4;stroke-dasharray:none;stroke-dashoffset:0;stroke-opacity:1;paint-order:fill markers stroke;stop-color:#000000"
         d="m 581.99731,631.85739 c 96.30309,113.21358 181.79131,253.3304 224.90817,375.93181"
         id="path6280-0"
         sodipodi:nodetypes="cc"
         inkscape:label="eyelash right small"
         inkscape:transform-center-x="72.301832"
         inkscape:transform-center-y="-223.75654" />
      <path
         style="fill:none;fill-opacity:1;stroke:#65471b;stroke-width:56.9435;stroke-linecap:round;stroke-linejoin:round;stroke-opacity:1;paint-order:fill markers stroke;stop-color:#000000"
         d="m 752.91843,1337.322 c 0,0 59.81492,-106.0635 167.04622,-141.8233 136.51595,-45.5258 206.11475,57.7461 206.11475,57.7461"
         id="path3985"
         sodipodi:nodetypes="csc" />
    </g>
  </g>
</svg>
