<?xml version="1.0" encoding="UTF-8" standalone="no"?>
<!-- Created with Inkscape (http://www.inkscape.org/) -->

<svg
   version="1.1"
   id="svg824"
   width="1706.6667"
   height="1706.6667"
   viewBox="0 0 1706.6667 1706.6667"
   sodipodi:docname="ying_maid.svg"
   inkscape:version="1.3.2 (091e20e, 2023-11-25, custom)"
   inkscape:export-filename="D:\Pictures\yingmotes\ying_smol.png"
   inkscape:export-xdpi="72"
   inkscape:export-ydpi="72"
   xmlns:inkscape="http://www.inkscape.org/namespaces/inkscape"
   xmlns:sodipodi="http://sodipodi.sourceforge.net/DTD/sodipodi-0.dtd"
   xmlns="http://www.w3.org/2000/svg"
   xmlns:svg="http://www.w3.org/2000/svg">
  <defs
     id="defs828" />
  <sodipodi:namedview
     id="namedview826"
     pagecolor="#ffffff"
     bordercolor="#666666"
     borderopacity="1.0"
     inkscape:pageshadow="2"
     inkscape:pageopacity="0.0"
     inkscape:pagecheckerboard="0"
     showgrid="false"
     inkscape:zoom="0.24892936"
     inkscape:cx="650.78703"
     inkscape:cy="757.24294"
     inkscape:window-width="1920"
     inkscape:window-height="1001"
     inkscape:window-x="-9"
     inkscape:window-y="-9"
     inkscape:window-maximized="1"
     inkscape:current-layer="layer1"
     inkscape:showpageshadow="2"
     inkscape:deskcolor="#d1d1d1" />
  <g
     id="layer1"
     inkscape:label="Ying"
     style="display:inline"
     inkscape:groupmode="layer">
    <path
       style="fill:none;fill-opacity:1;stroke:#f19020;stroke-width:64;stroke-linecap:round;stroke-linejoin:round;stroke-opacity:1;paint-order:fill markers stroke;stop-color:#000000"
       d="m 718.5681,1627.8587 117.01596,-2.2078 -26.49419,-388.5814 -134.97059,-182.7172 195.29071,1.4203 -60.32012,181.2969"
       id="path1090"
       sodipodi:nodetypes="cccccc" />
    <path
       style="display:inline;fill:none;fill-opacity:1;stroke:#f19020;stroke-width:64;stroke-linecap:round;stroke-linejoin:round;stroke-opacity:1;paint-order:fill markers stroke;stop-color:#000000"
       d="M 461.39925,1241.9953 538.68127,1170.6755 716.89223,822.85356 618.0232,650.74568"
       id="path14378-2"
       sodipodi:nodetypes="cccc"
       inkscape:transform-center-x="126.16903"
       inkscape:transform-center-y="219.29747" />
    <path
       style="fill:#ffcb4c;fill-opacity:1;stroke:#ffcb4c;stroke-width:64;stroke-linecap:round;stroke-linejoin:round;stroke-opacity:1;paint-order:fill markers stroke;stop-color:#000000"
       d="m 598.77162,576.24842 c 0,0 -74.4444,116.58457 -65.24603,209.03497 10.52851,183.10719 129.00951,392.74611 312.52505,373.83701 183.51556,-18.9091 205.19406,-62.9383 344.88066,-185.87325 139.6866,-122.93498 194.4411,-418.02057 194.4411,-418.02057 0,0 -102.419,185.92255 -187.0879,273.42167 -89.4691,92.45982 -220.63769,147.7774 -350.02601,145.01289 C 729.70378,971.1281 655.43347,902.80204 647.34428,757.292 639.89462,623.28588 660.26583,546.81743 660.26583,546.81743"
       id="path2053"
       sodipodi:nodetypes="cczzcsssc" />
    <path
       style="fill:none;fill-opacity:1;stroke:#ffcb4c;stroke-width:64;stroke-linecap:round;stroke-linejoin:round;stroke-opacity:1;paint-order:fill markers stroke;stop-color:#000000"
       d="m 782.5681,1627.8587 117.01596,-2.2078 -26.49419,-388.5814 -134.97059,-182.7172 195.29071,1.4203 -60.32012,181.2969"
       id="path10187"
       sodipodi:nodetypes="cccccc" />
    <path
       style="display:none;fill:#234567;fill-opacity:1;stroke:#234567;stroke-width:64;stroke-linecap:round;stroke-linejoin:round;stroke-opacity:1;paint-order:fill markers stroke;stop-color:#000000"
       d="m 1350.7886,670.67218 c -32.4042,-15.84101 -59.8029,-40.75579 -64.495,-106.83407 61.6724,-53.03647 94.0965,-122.20699 122.4077,-193.64635 32.7017,63.83345 51.4923,132.30937 35.5394,212.37997 -11.6708,40.46314 -34.9455,74.31632 -93.4521,88.10045 z"
       id="path31499"
       sodipodi:nodetypes="ccccc"
       inkscape:label="tail tuft" />
    <path
       style="fill:#000000;stroke:#000000;stroke-width:64;stroke-linecap:round;stroke-linejoin:round;stroke-dasharray:none;stroke-dashoffset:192;paint-order:fill markers stroke"
       d="m 519.52559,785.28339 c 62.82071,-11.54002 113.5303,-38.7467 159.0652,-60.6582 0,0 50.18253,239.62632 138.20849,246.67341 88.02597,7.04709 219.17322,-72.41514 219.17322,-72.41514 46.6183,85.95206 60.5308,144.07524 19.4242,192.40264 -32.2718,51.0288 -49.3121,108.8272 -47.5056,175.002 -80.87743,-4.6973 -135.66265,42.7899 -190.68632,89.8001 -45.15521,-30.4845 -94.02591,-46.1071 -150.51196,-31.2682 l -0.44912,-230.1984 c 0,0 -82.09426,-64.906 -107.11284,-143.91762 -5.98909,-18.91426 -11.38038,-38.25243 -16.11687,-56.72767 -15.0495,-58.70239 -23.4884,-108.69292 -23.4884,-108.69292 z m 0,0 c 62.8207,-11.54002 113.53029,-38.7467 159.06519,-60.6582"
       id="path1"
       sodipodi:nodetypes="ccsccccccssccc" />
    <g
       id="g31027"
       inkscape:label="head"
       transform="translate(190.31967)"
       style="display:inline">
      <path
         style="display:inline;fill:none;stroke:#65471b;stroke-width:64;stroke-linecap:round;stroke-linejoin:round;stroke-opacity:1;paint-order:fill markers stroke;stop-color:#000000"
         d="m 282.68851,375.07131 3.08897,103.83206"
         id="path1517-8"
         sodipodi:nodetypes="cc" />
      <path
         style="fill:none;stroke:#65471b;stroke-width:64;stroke-linecap:round;stroke-linejoin:round;stroke-opacity:1;paint-order:fill markers stroke;stop-color:#000000"
         d="m 137.99052,534.29931 21.93043,93.52394"
         id="path1858"
         sodipodi:nodetypes="cc" />
      <path
         style="fill:#f19020;fill-opacity:1;stroke:#f19020;stroke-width:64.0002;stroke-linecap:round;stroke-miterlimit:4;stroke-dasharray:none;stroke-dashoffset:0;stroke-opacity:1;paint-order:fill markers stroke;stop-color:#000000"
         d="m 383.61822,368.36921 c 0,0 -16.26371,-58.36871 -14.2224,-120.84588 2.24564,-68.73109 28.44481,-142.74919 51.64979,-144.25976 23.20499,-1.51058 60.63237,65.70995 70.36348,113.29301 9.73111,47.58307 -1.4971,152.56792 -1.4971,152.56792 z"
         id="path1640"
         inkscape:label="left ear"
         sodipodi:nodetypes="cssscc" />
      <path
         style="display:none;fill:#123456;fill-opacity:1;stroke:#123456;stroke-width:64;stroke-linecap:round;stroke-linejoin:round;stroke-opacity:1;paint-order:fill markers stroke;stop-color:#000000"
         d="m 613.5679,322.40721 56.81184,427.50911 -58.23213,-69.5945 -34.08711,61.07273 -48.29007,-96.58014 -34.0871,46.86978 -4.26089,-288.32011 z"
         id="path30938"
         inkscape:label="mane" />
      <path
         id="path1148"
         style="display:inline;fill:#ffcb4c;stroke:#ffcb4c;stroke-width:64.0002;stroke-linecap:round;stroke-linejoin:round;stroke-miterlimit:4;stroke-dasharray:6.40001, 6.40001;stroke-dashoffset:0;stroke-opacity:1;paint-order:fill markers stroke;stop-color:#000000"
         inkscape:label="head"
         d="m 539.60091,477.49373 c 0,0 -0.0366,-3.70164 -0.3225,-9.72156 -0.14297,-3.00997 -0.34782,-6.59936 -0.64231,-10.59548 -0.29449,-3.99611 -0.67797,-8.3992 -1.17738,-13.03557 -0.49937,-4.63637 -1.11503,-9.50595 -1.87265,-14.43669 -0.75765,-4.93072 -1.65763,-9.92227 -2.7269,-14.80147 -0.53463,-2.4396 -1.11171,-4.85146 -1.73425,-7.21333 -0.62254,-2.36186 -1.29066,-4.67376 -2.00776,-6.91466 -0.7171,-2.24089 -1.48272,-4.41036 -2.30109,-6.48705 -0.81838,-2.07668 -1.68937,-4.06057 -2.61562,-5.92981 -0.92629,-1.86924 -2.01207,-3.68971 -3.23414,-5.46011 -1.22206,-1.77039 -2.58056,-3.49095 -4.05125,-5.1601 -1.47072,-1.66915 -3.05386,-3.28725 -4.72604,-4.85276 -1.67217,-1.56551 -3.43325,-3.07859 -5.25972,-4.53806 -1.82651,-1.45947 -3.71811,-2.86498 -5.65179,-4.21602 -1.93364,-1.35103 -3.90906,-2.64708 -5.90271,-3.88728 -3.98734,-2.4804 -8.04781,-4.73698 -11.9922,-6.75965 -3.94438,-2.02268 -7.77272,-3.81144 -11.2969,-5.35722 -3.52418,-1.54577 -6.7439,-2.84827 -9.47059,-3.89797 -5.45345,-2.09939 -8.93488,-3.18773 -8.93488,-3.18773 -36.22004,-5.46941 -78.71636,2.38418 -105.99223,20.53018 -34.33362,22.84136 -46.41019,60.42348 -67.36953,72.50809 -20.95933,12.08456 -76.35178,26.43446 -95.06548,28.7003 -18.71369,2.26585 -62.1291,2.26622 -54.64363,42.29643 7.48548,40.03021 38.17558,96.67678 128.00132,84.59222 89.82572,-12.0846 106.29402,-15.10592 181.89733,-30.21167 7.76309,-1.55108 18.25663,-6.26695 29.43815,-12.63933 l 72.51075,-3.90936 -31.50552,-25.74439 c 1.81651,-1.65589 3.59379,-3.32458 5.30014,-5.00709 l 48.16944,-0.81247 -28.77794,-23.83285 c 1.18006,-2.24196 2.19714,-4.45427 2.92486,-6.60463 0.35677,-1.05422 0.6892,-2.26697 1.03302,-3.41291 z" />
      <path
         style="display:none;fill:#123456;fill-opacity:1;stroke:#123456;stroke-width:64;stroke-linecap:round;stroke-linejoin:round;stroke-opacity:1;paint-order:fill markers stroke;stop-color:#000000"
         d="m 326.76156,347.08986 c -38.92591,-28.12127 -95.27498,-32.28568 -164.4847,-18.76671 53.19265,-54.19875 122.01662,-91.20303 213.05736,-103.76887 -8.50024,-22.36759 -50.66592,-20.68843 -83.89823,-25.39026 71.84967,-34.61604 149.12201,-28.5621 228.5123,-6.62354 11.48715,33.4857 35.33869,66.9714 -33.11772,100.4571 -56.18757,-3.20348 -111.36025,1.20466 -160.06901,54.09228 z"
         id="path30246"
         sodipodi:nodetypes="ccccccc"
         inkscape:label="top hair" />
      <path
         id="path13483"
         style="display:inline;fill:#ffcb4c;stroke:#ffcb4c;stroke-width:64.0002;stroke-linecap:round;stroke-linejoin:round;stroke-miterlimit:4;stroke-dasharray:6.40001, 6.40001;stroke-dashoffset:0;stroke-opacity:1;paint-order:fill markers stroke;stop-color:#000000"
         inkscape:label="right ear"
         d="m 584.97788,103.26337 c -26.94774,0 -81.29827,97.45178 -90.57453,126.88865 -8.25904,26.20889 -33.54002,92.19064 -40.72312,110.88919 0,0 3.48143,1.08834 8.93488,3.18773 2.72669,1.0497 5.94641,2.3522 9.47059,3.89797 3.52418,1.54578 7.35252,3.33454 11.2969,5.35722 3.94439,2.02267 8.00486,4.27925 11.9922,6.75965 1.99365,1.2402 3.96907,2.53625 5.90271,3.88728 1.93368,1.35104 3.82528,2.75655 5.65179,4.21602 1.82647,1.45947 3.58755,2.97255 5.25972,4.53806 1.67218,1.56551 3.25532,3.18361 4.72604,4.85276 1.47069,1.66915 2.82919,3.38971 4.05125,5.1601 1.22207,1.7704 2.30785,3.59087 3.23414,5.46011 0.92625,1.86924 1.79724,3.85313 2.61562,5.92981 0.81837,2.07669 1.58399,4.24616 2.30109,6.48705 0.7171,2.2409 1.38522,4.5528 2.00776,6.91466 0.62254,2.36187 1.19962,4.77373 1.73425,7.21333 1.06927,4.8792 1.96925,9.87075 2.7269,14.80147 0.75762,4.93074 1.37328,9.80032 1.87265,14.43669 0.49941,4.63637 0.88289,9.03946 1.17738,13.03557 0.29449,3.99612 0.49934,7.58551 0.64231,10.59548 0.28595,6.01992 0.3225,9.72156 0.3225,9.72156 32.84014,-40.20697 94.01914,-124.86486 97.02621,-201.26956 4.11703,-104.60722 -34.17423,-172.9608 -51.64924,-172.9608 z" />
      <path
         style="fill:none;stroke:#65471b;stroke-width:64;stroke-linecap:round;stroke-linejoin:round;stroke-opacity:1;paint-order:fill markers stroke;stop-color:#000000"
         d="m 413.42417,389.34377 3.08897,103.83206"
         id="path1517" />
    </g>
    <path
       style="display:inline;fill:none;fill-opacity:1;stroke:#ffcb4c;stroke-width:64;stroke-linecap:round;stroke-linejoin:round;stroke-opacity:1;paint-order:fill markers stroke;stop-color:#000000"
       d="M 623.37719,1282.8809 595.31367,1183.0874 716.89223,822.85356"
       id="path14378"
       sodipodi:nodetypes="ccc"
       inkscape:transform-center-x="148.28432"
       inkscape:transform-center-y="204.22593" />
    <path
       style="fill:#000000;stroke:#000000;stroke-width:72;stroke-linecap:round;stroke-linejoin:round;stroke-dasharray:none;stroke-dashoffset:192;paint-order:fill markers stroke"
       d="m 667.45771,736.79962 78.55059,80.37276 -78.97701,39.04119 z"
       id="path2"
       sodipodi:nodetypes="cc" />
    <path
       d="m 519.52559,785.28339 c 62.8207,-11.54002 113.53029,-38.7467 159.06519,-60.6582 m -159.06519,60.6582 c 62.82069,-11.54002 113.53028,-38.7467 159.06518,-60.6582 m 357.38173,174.25826 c 46.6183,85.95206 60.5308,144.07525 19.4242,192.40265 -32.2718,51.0288 -49.3121,108.8272 -47.5056,175.002 -80.87744,-4.6973 -135.66265,42.7899 -190.68632,89.8001 -45.15521,-30.4845 -94.02591,-46.1071 -150.51196,-31.2682 M 559.13086,950.70397 C 553.14177,931.78971 547.75048,912.45154 543.014,893.9763"
       style="fill:#000000;stroke:#f9f9f9;stroke-width:72;stroke-linecap:round;stroke-linejoin:round;stroke-dasharray:none;stroke-dashoffset:192;paint-order:fill markers stroke"
       id="path1-4"
       sodipodi:nodetypes="ccccccccccc" />
    <g
       id="g6"
       inkscape:label="duster"
       transform="rotate(73.781907,403.02243,1264.5872)">
      <path
         style="fill:#000000;stroke:#916f6f;stroke-width:72;stroke-linecap:round;stroke-linejoin:round;stroke-dasharray:none;stroke-dashoffset:192;paint-order:fill markers stroke"
         d="M 419.71668,1126.3825 262.67983,1277.7089"
         id="path3" />
      <path
         style="fill:#000000;stroke:#cccccc;stroke-width:72;stroke-linecap:round;stroke-linejoin:round;stroke-dasharray:none;stroke-dashoffset:192;paint-order:fill markers stroke"
         d="M 61.387134,1340.5237 262.67983,1277.7089 55.676703,1414.7593"
         id="path4" />
      <path
         style="fill:#000000;stroke:#cccccc;stroke-width:72;stroke-linecap:round;stroke-linejoin:round;stroke-dasharray:none;stroke-dashoffset:192;paint-order:fill markers stroke"
         d="M 98.504935,1471.8636 262.67983,1277.7089 197.00987,1447.5943"
         id="path5" />
      <path
         style="fill:#000000;stroke:#cccccc;stroke-width:72;stroke-linecap:round;stroke-linejoin:round;stroke-dasharray:none;stroke-dashoffset:192;paint-order:fill markers stroke"
         d="m 262.67983,1277.7089 7.13804,144.1884"
         id="path6" />
    </g>
    <path
       style="display:inline;fill:none;fill-opacity:1;stroke:#ffcb4c;stroke-width:64;stroke-linecap:round;stroke-linejoin:round;stroke-opacity:1;paint-order:fill markers stroke;stop-color:#000000"
       d="m 623.37719,1282.8809 -28.06352,-99.7935"
       id="path7"
       sodipodi:nodetypes="cc"
       inkscape:transform-center-x="148.28432"
       inkscape:transform-center-y="204.22593" />
    <path
       style="fill:#000000;stroke:#ff5555;stroke-width:72;stroke-linecap:round;stroke-linejoin:round;stroke-dasharray:none;stroke-dashoffset:192;stroke-opacity:1;paint-order:fill markers stroke"
       d="M 1289.0946,904.48613 C 1275.813,843.64884 1232.262,817.11682 1179.0623,801.52007"
       id="path8"
       sodipodi:nodetypes="cc" />
    <path
       style="fill:#000000;stroke:#ff5555;stroke-width:72;stroke-linecap:round;stroke-linejoin:round;stroke-dasharray:none;stroke-dashoffset:192;stroke-opacity:1;paint-order:fill markers stroke"
       d="m 1180.0483,801.97089 c 0,0 -18.8035,-116.75267 22.9789,-103.77295 41.7826,12.97974 -22.9789,103.77295 -22.9789,103.77295 z"
       id="path10"
       inkscape:transform-center-x="-19.10612"
       inkscape:transform-center-y="-57.001484" />
    <path
       style="fill:#000000;stroke:#ff5555;stroke-width:72;stroke-linecap:round;stroke-linejoin:round;stroke-dasharray:none;stroke-dashoffset:192;stroke-opacity:1;paint-order:fill markers stroke"
       d="m 1179.3039,800.91039 c 0,0 -120.9374,-40.44634 -120.3883,-1.5823 0.5491,38.86404 120.3883,1.5823 120.3883,1.5823 z"
       id="path11"
       inkscape:transform-center-x="65.380068"
       inkscape:transform-center-y="-3.579382" />
  </g>
</svg>
