<?xml version="1.0" encoding="UTF-8" standalone="no"?>
<!-- Created with Inkscape (http://www.inkscape.org/) -->

<svg
   version="1.1"
   id="svg824"
   width="1706.6667"
   height="1706.6667"
   viewBox="0 0 1706.6667 1706.6667"
   sodipodi:docname="ying_sploot.svg"
   inkscape:version="1.3.2 (091e20e, 2023-11-25, custom)"
   inkscape:export-filename="D:\Pictures\yingmotes\ying_smol.png"
   inkscape:export-xdpi="72"
   inkscape:export-ydpi="72"
   xmlns:inkscape="http://www.inkscape.org/namespaces/inkscape"
   xmlns:sodipodi="http://sodipodi.sourceforge.net/DTD/sodipodi-0.dtd"
   xmlns="http://www.w3.org/2000/svg"
   xmlns:svg="http://www.w3.org/2000/svg">
  <defs
     id="defs828" />
  <sodipodi:namedview
     id="namedview826"
     pagecolor="#ffffff"
     bordercolor="#666666"
     borderopacity="1.0"
     inkscape:pageshadow="2"
     inkscape:pageopacity="0.0"
     inkscape:pagecheckerboard="0"
     showgrid="false"
     inkscape:zoom="0.43395944"
     inkscape:cx="675.1783"
     inkscape:cy="869.89696"
     inkscape:window-width="1920"
     inkscape:window-height="1001"
     inkscape:window-x="-9"
     inkscape:window-y="-9"
     inkscape:window-maximized="1"
     inkscape:current-layer="layer1"
     inkscape:showpageshadow="2"
     inkscape:deskcolor="#d1d1d1" />
  <g
     id="layer1"
     inkscape:label="Ying"
     style="display:inline"
     transform="translate(-40.172039,241.03223)">
    <ellipse
       style="display:inline;opacity:0.114679;fill:#000000;fill-opacity:1;stroke:#000000;stroke-width:46.5555;stroke-linecap:round;stroke-linejoin:round;stroke-dasharray:none;stroke-opacity:1;paint-order:fill markers stroke"
       id="path4"
       cx="353.45129"
       cy="1263.6581"
       rx="742.12"
       ry="97.295753"
       transform="matrix(0.97846756,-0.20640068,0.41895717,0.908006,0,0)" />
    <path
       style="display:inline;fill:none;fill-opacity:1;stroke:#f19020;stroke-width:55;stroke-linecap:round;stroke-linejoin:round;stroke-dasharray:none;stroke-opacity:1;paint-order:fill markers stroke"
       d="m 1016.3108,981.8859 376.1027,-121.97242 90.8198,-15.64592"
       id="path3"
       sodipodi:nodetypes="ccc" />
    <path
       style="display:inline;fill:none;fill-opacity:1;stroke:#ffcb4c;stroke-width:54.5743;stroke-linecap:round;stroke-linejoin:round;stroke-opacity:1;paint-order:fill markers stroke;stop-color:#000000"
       d="m 198.55846,1315.2583 98.79823,-6.2951 337.32148,-86.4131 60.31815,-154.609"
       id="path14378"
       sodipodi:nodetypes="cccc"
       inkscape:transform-center-x="126.44553"
       inkscape:transform-center-y="174.14827" />
    <path
       style="display:inline;fill:none;fill-opacity:1;stroke:#f19020;stroke-width:54.5743;stroke-linecap:round;stroke-linejoin:round;stroke-opacity:1;paint-order:fill markers stroke;stop-color:#000000"
       d="m 95.827789,1211.2667 98.798231,-6.2951 337.32148,-86.4131 167.91504,-78.1103"
       id="path14378-2"
       sodipodi:nodetypes="cccc"
       inkscape:transform-center-x="126.44553"
       inkscape:transform-center-y="174.14827" />
    <path
       style="fill:#ffcb4c;fill-opacity:1;stroke:#ffcb4c;stroke-width:55;stroke-linecap:round;stroke-linejoin:round;stroke-dasharray:none;stroke-opacity:1;paint-order:fill markers stroke"
       d="m 451.02498,1147.1848 c 0,0 117.57867,-102.7948 314.45786,-153.75179 196.8792,-50.957 880.89236,-121.11954 880.89236,-121.11954 0,0 -506.9533,173.45913 -855.41388,252.19573 -348.4607,78.7366 -329.73154,59.1575 -329.73154,59.1575 z"
       id="path1"
       sodipodi:nodetypes="cscscc" />
    <g
       id="g31027"
       inkscape:label="head"
       transform="matrix(0.85153738,0.04496176,-0.04496176,0.85153738,49.388161,720.30923)"
       style="display:inline">
      <path
         style="display:inline;fill:none;stroke:#65471b;stroke-width:64;stroke-linecap:round;stroke-linejoin:round;stroke-opacity:1;paint-order:fill markers stroke;stop-color:#000000"
         d="m 282.68851,375.07131 3.08897,103.83206"
         id="path1517-8"
         sodipodi:nodetypes="cc" />
      <path
         style="fill:none;stroke:#65471b;stroke-width:64;stroke-linecap:round;stroke-linejoin:round;stroke-opacity:1;paint-order:fill markers stroke;stop-color:#000000"
         d="m 137.99052,534.29931 21.93043,93.52394"
         id="path1858"
         sodipodi:nodetypes="cc" />
      <path
         style="fill:#f19020;fill-opacity:1;stroke:#f19020;stroke-width:64.0002;stroke-linecap:round;stroke-miterlimit:4;stroke-dasharray:none;stroke-dashoffset:0;stroke-opacity:1;paint-order:fill markers stroke;stop-color:#000000"
         d="m 372.38879,370.87806 c 0,0 -24.31783,-55.49827 -31.09119,-117.64073 -7.45138,-68.36288 8.06808,-145.33185 30.82939,-150.09373 22.76132,-4.761905 69.27809,56.52104 85.61016,102.26058 16.33206,45.73956 19.99342,151.25963 19.99342,151.25963 z"
         id="path1640"
         inkscape:label="left ear"
         sodipodi:nodetypes="cssscc" />
      <path
         style="display:none;fill:#123456;fill-opacity:1;stroke:#123456;stroke-width:64;stroke-linecap:round;stroke-linejoin:round;stroke-opacity:1;paint-order:fill markers stroke;stop-color:#000000"
         d="m 574.77403,295.31689 267.60463,284.23357 -93.40924,12.12342 -53.53487,40.64186 -77.54192,-6.68203 -87.47716,23.57266 -38.55172,-233.06145 z"
         id="path30938"
         inkscape:label="mane"
         sodipodi:nodetypes="cccccccc" />
      <path
         id="path1148"
         style="display:inline;fill:#ffcb4c;stroke:#ffcb4c;stroke-width:64.0002;stroke-linecap:round;stroke-linejoin:round;stroke-miterlimit:4;stroke-dasharray:6.40001, 6.40001;stroke-dashoffset:0;stroke-opacity:1;paint-order:fill markers stroke;stop-color:#000000"
         inkscape:label="head"
         d="m 539.60091,477.49373 c 0,0 -0.0366,-3.70164 -0.3225,-9.72156 -0.14297,-3.00997 -0.34782,-6.59936 -0.64231,-10.59548 -0.29449,-3.99611 -0.67797,-8.3992 -1.17738,-13.03557 -0.49937,-4.63637 -1.11503,-9.50595 -1.87265,-14.43669 -0.75765,-4.93072 -1.65763,-9.92227 -2.7269,-14.80147 -0.53463,-2.4396 -1.11171,-4.85146 -1.73425,-7.21333 -0.62254,-2.36186 -1.29066,-4.67376 -2.00776,-6.91466 -0.7171,-2.24089 -1.48272,-4.41036 -2.30109,-6.48705 -0.81838,-2.07668 -1.68937,-4.06057 -2.61562,-5.92981 -0.92629,-1.86924 -2.01207,-3.68971 -3.23414,-5.46011 -1.22206,-1.77039 -2.58056,-3.49095 -4.05125,-5.1601 -1.47072,-1.66915 -3.05386,-3.28725 -4.72604,-4.85276 -1.67217,-1.56551 -3.43325,-3.07859 -5.25972,-4.53806 -1.82651,-1.45947 -3.71811,-2.86498 -5.65179,-4.21602 -1.93364,-1.35103 -3.90906,-2.64708 -5.90271,-3.88728 -3.98734,-2.4804 -8.04781,-4.73698 -11.9922,-6.75965 -3.94438,-2.02268 -7.77272,-3.81144 -11.2969,-5.35722 -3.52418,-1.54577 -6.7439,-2.84827 -9.47059,-3.89797 -5.45345,-2.09939 -8.93488,-3.18773 -8.93488,-3.18773 -36.22004,-5.46941 -78.71636,2.38418 -105.99223,20.53018 -34.33362,22.84136 -46.41019,60.42348 -67.36953,72.50809 -20.95933,12.08456 -76.35178,26.43446 -95.06548,28.7003 -18.71369,2.26585 -62.1291,2.26622 -54.64363,42.29643 7.48548,40.03021 38.17558,96.67678 128.00132,84.59222 89.82572,-12.0846 106.29402,-15.10592 181.89733,-30.21167 7.76309,-1.55108 18.25663,-6.26695 29.43815,-12.63933 l 72.01608,-13.27801 -31.01085,-16.37574 c 1.81651,-1.65589 3.59379,-3.32458 5.30014,-5.00709 l 83.30189,-2.66749 -63.91039,-21.97783 c 1.18006,-2.24196 2.19714,-4.45427 2.92486,-6.60463 0.35677,-1.05422 0.6892,-2.26697 1.03302,-3.41291 z"
         sodipodi:nodetypes="csssssssssssssssssscssssssccccccsc" />
      <path
         style="display:none;fill:#123456;fill-opacity:1;stroke:#123456;stroke-width:64;stroke-linecap:round;stroke-linejoin:round;stroke-opacity:1;paint-order:fill markers stroke;stop-color:#000000"
         d="M 320.87858,338.01294 C 281.95267,309.89167 225.6036,305.72726 156.39388,319.24623 209.58653,265.04748 278.4105,228.0432 369.45124,215.47736 360.951,193.10977 318.78532,194.78893 285.55301,190.0871 c 71.84967,-34.61604 149.12201,-28.5621 228.5123,-6.62354 11.48715,33.4857 35.33869,66.9714 -33.11772,100.4571 -56.18757,-3.20348 -111.36025,1.20466 -160.06901,54.09228 z"
         id="path30246"
         sodipodi:nodetypes="ccccccc"
         inkscape:label="top hair" />
      <path
         id="path13483"
         style="display:inline;fill:#ffcb4c;stroke:#ffcb4c;stroke-width:64.0002;stroke-linecap:round;stroke-linejoin:round;stroke-miterlimit:4;stroke-dasharray:6.40001, 6.40001;stroke-dashoffset:0;stroke-opacity:1;paint-order:fill markers stroke;stop-color:#000000"
         inkscape:label="right ear"
         d="m 634.24383,124.07068 c -26.09194,-6.73733 -103.08077,74.03116 -119.42208,100.21398 -14.54936,23.31167 -73.39572,96.70351 -85.02561,113.01236 0,0 20.97063,-13.90197 25.72601,-10.50581 2.37765,1.69808 5.16948,3.76419 8.19527,6.14197 3.0258,2.37778 6.28534,5.06687 9.59875,8.01147 3.31343,2.94459 6.68077,6.14468 9.92135,9.5432 1.62026,1.69926 3.20892,3.44803 4.74337,5.23959 1.53449,1.79159 3.01462,3.62539 4.41824,5.49516 1.40357,1.86977 2.73043,3.77509 3.9581,5.70895 1.22767,1.93386 2.35599,3.89638 3.36269,5.88022 1.00667,1.98384 1.89186,3.9894 2.63249,6.0091 0.74063,2.01971 1.33679,4.05383 1.76632,6.09529 0.4295,2.04145 0.77683,4.1801 1.05002,6.39544 0.27318,2.21534 0.47208,4.50733 0.60615,6.85634 0.13407,2.34902 0.20297,4.75453 0.21524,7.19703 0.0123,2.44251 -0.032,4.92205 -0.12427,7.41784 -0.18456,4.99158 -0.56112,10.04961 -1.06028,15.01317 -0.4992,4.96356 -1.12056,9.83242 -1.7962,14.4464 -0.67561,4.61399 -1.40515,8.97312 -2.1191,12.91595 -0.71395,3.94284 -1.413,7.46945 -2.02711,10.41957 -1.2282,5.90024 -2.11827,9.49346 -2.11827,9.49346 41.84953,-30.71957 122.25131,-97.39326 144.26517,-170.6197 30.13961,-100.25579 10.15379,-176.01198 -6.76625,-180.38098 z"
         sodipodi:nodetypes="sscsssssssssssssssssscss" />
      <path
         style="display:inline;fill:none;stroke:#65471b;stroke-width:64;stroke-linecap:round;stroke-linejoin:round;stroke-opacity:1;paint-order:fill markers stroke;stop-color:#000000"
         d="m 413.42417,389.34377 3.08897,103.83206"
         id="path1517" />
    </g>
    <path
       style="display:none;fill:#234567;fill-opacity:1;stroke:#234567;stroke-width:54.5743;stroke-linecap:round;stroke-linejoin:round;stroke-opacity:1;paint-order:fill markers stroke;stop-color:#000000"
       d="m 1466.6172,933.20806 c -5.7822,-30.20846 -2.8138,-61.64746 39.8512,-98.66956 67.7387,14.91514 131.5105,1.62422 194.7245,-15.63307 -26.7973,54.97616 -63.8813,102.84094 -126.6564,132.94471 -33.5703,12.75124 -68.5718,14.20513 -107.9193,-18.64208 z"
       id="path31499"
       sodipodi:nodetypes="ccccc"
       inkscape:label="tail tuft" />
    <path
       style="fill:none;fill-opacity:1;stroke:#ffcb4c;stroke-width:55;stroke-linecap:round;stroke-linejoin:round;stroke-dasharray:none;stroke-opacity:1;paint-order:fill markers stroke"
       d="m 1030.6948,1064.7288 435.9323,-53.7343 57.3237,-16.69244"
       id="path2"
       sodipodi:nodetypes="ccc" />
  </g>
</svg>
