<?xml version="1.0" encoding="UTF-8" standalone="no"?>
<!-- Created with Inkscape (http://www.inkscape.org/) -->

<svg
   version="1.1"
   id="svg824"
   width="1706.6667"
   height="1706.6667"
   viewBox="0 0 1706.6667 1706.6667"
   sodipodi:docname="ying_box.svg"
   inkscape:version="1.1 (c68e22c387, 2021-05-23)"
   inkscape:export-filename="D:\Pictures\yingmotes\ying_smol.png"
   inkscape:export-xdpi="72"
   inkscape:export-ydpi="72"
   xmlns:inkscape="http://www.inkscape.org/namespaces/inkscape"
   xmlns:sodipodi="http://sodipodi.sourceforge.net/DTD/sodipodi-0.dtd"
   xmlns="http://www.w3.org/2000/svg"
   xmlns:svg="http://www.w3.org/2000/svg">
  <defs
     id="defs828" />
  <sodipodi:namedview
     id="namedview826"
     pagecolor="#ffffff"
     bordercolor="#666666"
     borderopacity="1.0"
     inkscape:pageshadow="2"
     inkscape:pageopacity="0.0"
     inkscape:pagecheckerboard="0"
     showgrid="false"
     inkscape:zoom="0.45254834"
     inkscape:cx="486.13591"
     inkscape:cy="272.89902"
     inkscape:window-width="1920"
     inkscape:window-height="1001"
     inkscape:window-x="-9"
     inkscape:window-y="-9"
     inkscape:window-maximized="1"
     inkscape:current-layer="layer2" />
  <g
     id="layer1"
     inkscape:label="Ying"
     style="display:inline"
     inkscape:groupmode="layer">
    <path
       style="fill:#ffcb4c;fill-opacity:1;stroke:#ffcb4c;stroke-width:64;stroke-linecap:round;stroke-linejoin:round;stroke-opacity:1;paint-order:fill markers stroke;stop-color:#000000"
       d="m 533.97112,845.4459 c 0,0 -16.42305,137.34705 32.01458,216.6281 89.00886,160.3637 286.7804,297.7415 443.8722,201.0063 157.0917,-96.7351 157.4966,-145.8102 229.9294,-317.2128 72.4329,-171.40257 -6.4047,-460.98537 -6.4047,-460.98537 0,0 -11.5074,211.95382 -49.7724,327.54236 C 1143.1758,934.56621 1049.0488,1041.362 931.29992,1095.0664 823.41,1144.2742 726.83535,1114.9848 656.35253,987.42784 591.44204,869.95544 576.58073,792.22802 576.58073,792.22802"
       id="path2053"
       sodipodi:nodetypes="cczzcsssc" />
    <g
       id="g31027"
       inkscape:label="head"
       transform="matrix(1.3359638,0.53706068,-0.53483978,1.3395019,284.33084,-305.20734)"
       style="display:inline;stroke-width:0.693915">
      <path
         style="display:inline;fill:none;stroke:#65471b;stroke-width:44.4106;stroke-linecap:round;stroke-linejoin:round;stroke-opacity:1;paint-order:fill markers stroke;stop-color:#000000"
         d="m 278.04257,513.47886 c -3.8299,-44.8745 -27.01051,-128.59988 34.88507,-138.43279 61.89558,-9.83291 58.17034,65.86723 68.25052,127.22887"
         id="path952-4"
         sodipodi:nodetypes="czc" />
      <path
         style="fill:none;stroke:#65471b;stroke-width:44.4106;stroke-linecap:round;stroke-linejoin:round;stroke-opacity:1;paint-order:fill markers stroke;stop-color:#000000"
         d="m 137.99052,534.29931 21.93043,93.52394"
         id="path1858"
         sodipodi:nodetypes="cc" />
      <path
         style="fill:#f19020;fill-opacity:1;stroke:#f19020;stroke-width:44.4107;stroke-linecap:round;stroke-miterlimit:4;stroke-dasharray:none;stroke-dashoffset:0;stroke-opacity:1;paint-order:fill markers stroke;stop-color:#000000"
         d="m 383.61822,368.36921 c 0,0 -16.26371,-58.36871 -14.2224,-120.84588 2.24564,-68.73109 28.44481,-142.74919 51.64979,-144.25976 23.20499,-1.51058 60.63237,65.70995 70.36348,113.29301 9.73111,47.58307 -1.4971,152.56792 -1.4971,152.56792 z"
         id="path1640"
         inkscape:label="left ear"
         sodipodi:nodetypes="cssscc" />
      <path
         style="display:none;fill:#123456;fill-opacity:1;stroke:#123456;stroke-width:44.4106;stroke-linecap:round;stroke-linejoin:round;stroke-opacity:1;paint-order:fill markers stroke;stop-color:#000000"
         d="M 586.46546,305.39841 766.7314,697.03447 690.534,647.65922 675.91998,715.99619 601.28307,637.92843 582.48545,692.70018 493.48269,418.57675 Z"
         id="path30938"
         inkscape:label="mane"
         inkscape:transform-center-x="-20.068896"
         inkscape:transform-center-y="201.8778" />
      <path
         id="path1148"
         style="display:inline;fill:#ffcb4c;stroke:#ffcb4c;stroke-width:44.4107;stroke-linecap:round;stroke-linejoin:round;stroke-miterlimit:4;stroke-dasharray:4.44107, 4.44107;stroke-dashoffset:0;stroke-opacity:1;paint-order:fill markers stroke;stop-color:#000000"
         inkscape:label="head"
         d="m 539.60091,477.49373 c 0,0 -0.0366,-3.70164 -0.3225,-9.72156 -0.14297,-3.00997 -0.34782,-6.59936 -0.64231,-10.59548 -0.29449,-3.99611 -0.67797,-8.3992 -1.17738,-13.03557 -0.49937,-4.63637 -1.11503,-9.50595 -1.87265,-14.43669 -0.75765,-4.93072 -1.65763,-9.92227 -2.7269,-14.80147 -0.53463,-2.4396 -1.11171,-4.85146 -1.73425,-7.21333 -0.62254,-2.36186 -1.29066,-4.67376 -2.00776,-6.91466 -0.7171,-2.24089 -1.48272,-4.41036 -2.30109,-6.48705 -0.81838,-2.07668 -1.68937,-4.06057 -2.61562,-5.92981 -0.92629,-1.86924 -2.01207,-3.68971 -3.23414,-5.46011 -1.22206,-1.77039 -2.58056,-3.49095 -4.05125,-5.1601 -1.47072,-1.66915 -3.05386,-3.28725 -4.72604,-4.85276 -1.67217,-1.56551 -3.43325,-3.07859 -5.25972,-4.53806 -1.82651,-1.45947 -3.71811,-2.86498 -5.65179,-4.21602 -1.93364,-1.35103 -3.90906,-2.64708 -5.90271,-3.88728 -3.98734,-2.4804 -8.04781,-4.73698 -11.9922,-6.75965 -3.94438,-2.02268 -7.77272,-3.81144 -11.2969,-5.35722 -3.52418,-1.54577 -6.7439,-2.84827 -9.47059,-3.89797 -5.45345,-2.09939 -8.93488,-3.18773 -8.93488,-3.18773 -36.22004,-5.46941 -78.71636,2.38418 -105.99223,20.53018 -34.33362,22.84136 -46.41019,60.42348 -67.36953,72.50809 -20.95933,12.08456 -76.35178,26.43446 -95.06548,28.7003 -18.71369,2.26585 -62.1291,2.26622 -54.64363,42.29643 7.48548,40.03021 38.17558,96.67678 128.00132,84.59222 89.82572,-12.0846 106.29402,-15.10592 181.89733,-30.21167 7.76309,-1.55108 18.25663,-6.26695 29.43815,-12.63933 l 72.51075,-3.90936 -31.50552,-25.74439 c 1.81651,-1.65589 3.59379,-3.32458 5.30014,-5.00709 l 48.16944,-0.81247 -28.77794,-23.83285 c 1.18006,-2.24196 2.19714,-4.45427 2.92486,-6.60463 0.35677,-1.05422 0.6892,-2.26697 1.03302,-3.41291 z" />
      <path
         style="display:none;fill:#123456;fill-opacity:1;stroke:#123456;stroke-width:44.4106;stroke-linecap:round;stroke-linejoin:round;stroke-opacity:1;paint-order:fill markers stroke;stop-color:#000000"
         d="m 326.76156,347.08986 c -38.92591,-28.12127 -95.27498,-32.28568 -164.4847,-18.76671 53.19265,-54.19875 122.01662,-91.20303 213.05736,-103.76887 -8.50024,-22.36759 -50.66592,-20.68843 -83.89823,-25.39026 71.84967,-34.61604 149.12201,-28.5621 228.5123,-6.62354 11.48715,33.4857 35.33869,66.9714 -33.11772,100.4571 -56.18757,-3.20348 -111.36025,1.20466 -160.06901,54.09228 z"
         id="path30246"
         sodipodi:nodetypes="ccccccc"
         inkscape:label="top hair" />
      <path
         id="path13483"
         style="display:inline;fill:#ffcb4c;stroke:#ffcb4c;stroke-width:44.4107;stroke-linecap:round;stroke-linejoin:round;stroke-miterlimit:4;stroke-dasharray:4.44107, 4.44107;stroke-dashoffset:0;stroke-opacity:1;paint-order:fill markers stroke;stop-color:#000000"
         inkscape:label="right ear"
         d="m 584.97788,103.26337 c -26.94774,0 -81.29827,97.45178 -90.57453,126.88865 -8.25904,26.20889 -33.54002,92.19064 -40.72312,110.88919 0,0 3.48143,1.08834 8.93488,3.18773 2.72669,1.0497 5.94641,2.3522 9.47059,3.89797 3.52418,1.54578 7.35252,3.33454 11.2969,5.35722 3.94439,2.02267 8.00486,4.27925 11.9922,6.75965 1.99365,1.2402 3.96907,2.53625 5.90271,3.88728 1.93368,1.35104 3.82528,2.75655 5.65179,4.21602 1.82647,1.45947 3.58755,2.97255 5.25972,4.53806 1.67218,1.56551 3.25532,3.18361 4.72604,4.85276 1.47069,1.66915 2.82919,3.38971 4.05125,5.1601 1.22207,1.7704 2.30785,3.59087 3.23414,5.46011 0.92625,1.86924 1.79724,3.85313 2.61562,5.92981 0.81837,2.07669 1.58399,4.24616 2.30109,6.48705 0.7171,2.2409 1.38522,4.5528 2.00776,6.91466 0.62254,2.36187 1.19962,4.77373 1.73425,7.21333 1.06927,4.8792 1.96925,9.87075 2.7269,14.80147 0.75762,4.93074 1.37328,9.80032 1.87265,14.43669 0.49941,4.63637 0.88289,9.03946 1.17738,13.03557 0.29449,3.99612 0.49934,7.58551 0.64231,10.59548 0.28595,6.01992 0.3225,9.72156 0.3225,9.72156 32.84014,-40.20697 94.01914,-124.86486 97.02621,-201.26956 4.11703,-104.60722 -34.17423,-172.9608 -51.64924,-172.9608 z" />
      <path
         style="fill:none;stroke:#65471b;stroke-width:44.4106;stroke-linecap:round;stroke-linejoin:round;stroke-opacity:1;paint-order:fill markers stroke;stop-color:#000000"
         d="m 372.08399,511.19057 c -3.8299,-44.8745 -27.01051,-128.59988 34.88507,-138.43279 61.89558,-9.83291 58.17034,65.86723 68.25052,127.22887"
         id="path952"
         sodipodi:nodetypes="czc" />
    </g>
    <path
       style="display:none;fill:#234567;fill-opacity:1;stroke:#234567;stroke-width:64;stroke-linecap:round;stroke-linejoin:round;stroke-opacity:1;paint-order:fill markers stroke;stop-color:#000000"
       d="m 1225.0769,622.03852 c 41.412,12.28649 85.762,12.51521 143.4414,-41.9557 -11.4134,-96.74307 16.0398,-184.0152 48.9583,-269.95561 -80.5615,29.79576 -152.6167,74.95744 -203.4274,158.49589 -22.494,45.13998 -29.3989,93.85315 11.0277,153.41542 z"
       id="path31499"
       sodipodi:nodetypes="ccccc"
       inkscape:label="tail tuft" />
  </g>
  <g
     inkscape:groupmode="layer"
     id="layer2"
     inkscape:label="box"
     sodipodi:insensitive="true">
    <path
       style="display:inline;fill:#d38d5f;fill-opacity:1;stroke:#502d16;stroke-width:64;stroke-linecap:round;stroke-linejoin:round;stroke-opacity:1;paint-order:fill markers stroke;stop-color:#000000"
       d="M 1354.6979,718.93781 1541.9124,1357.803 1644.1737,1235.6576 1354.6979,718.93781"
       id="path5606-0"
       sodipodi:nodetypes="cccc" />
    <path
       style="fill:#d38d5f;stroke:#502d16;stroke-width:64;stroke-linecap:round;stroke-linejoin:round;stroke-opacity:1;paint-order:fill markers stroke;stop-color:#000000"
       d="M 351.96887,718.93781 153.39197,1383.3684 65.333621,1266.9041 351.96887,718.93781"
       id="path5606"
       sodipodi:nodetypes="cccc" />
    <rect
       style="fill:#d38d5f;stroke:#502d16;stroke-width:64;stroke-linecap:round;stroke-linejoin:round;stroke-opacity:1;paint-order:fill markers stroke;stop-color:#000000"
       id="rect5049"
       width="1002.729"
       height="931.71417"
       x="351.96887"
       y="718.93781" />
    <path
       id="rect9193"
       style="opacity:0.623274;fill:#502d16;fill-opacity:1;stroke:#502d16;stroke-width:64.0002;stroke-linecap:round;stroke-linejoin:round;stroke-opacity:1;paint-order:fill markers stroke;stop-color:#000000"
       d="M 848.8756,842.65041 615.3998,1099.4341 h 152.53818 v 231.4417 h 161.87525 v -231.4417 h 152.53697 z" />
    <path
       style="opacity:0.623274;fill:#502d16;fill-opacity:1;stroke:#502d16;stroke-width:64;stroke-linecap:round;stroke-linejoin:round;stroke-opacity:1;paint-order:fill markers stroke;stop-color:#000000"
       d="m 452,1449.625 h 793.75"
       id="path10704" />
    <path
       style="opacity:0.623274;fill:#502d16;fill-opacity:1;stroke:#502d16;stroke-width:64;stroke-linecap:round;stroke-linejoin:round;stroke-opacity:1;paint-order:fill markers stroke;stop-color:#000000"
       d="m 1248.875,1549.625 h -800"
       id="path10706" />
    <g
       id="g11824"
       transform="rotate(17.281003,993.22261,946.01866)">
      <rect
         style="opacity:1;fill:#ffffff;fill-opacity:1;stroke:#ffffff;stroke-width:64;stroke-linecap:round;stroke-linejoin:round;stroke-opacity:1;paint-order:fill markers stroke;stop-color:#000000"
         id="rect11272"
         width="334.375"
         height="162.5"
         x="912.5"
         y="821.875" />
    </g>
  </g>
</svg>
