<?xml version="1.0" encoding="UTF-8" standalone="no"?>
<!-- Created with Inkscape (http://www.inkscape.org/) -->

<svg
   version="1.1"
   id="svg824"
   width="1706.6667"
   height="1706.6667"
   viewBox="0 0 1706.6667 1706.6667"
   sodipodi:docname="ying_verified.svg"
   inkscape:version="1.1 (c68e22c387, 2021-05-23)"
   inkscape:export-filename="D:\Pictures\yingmotes\ying_smol.png"
   inkscape:export-xdpi="72"
   inkscape:export-ydpi="72"
   xmlns:inkscape="http://www.inkscape.org/namespaces/inkscape"
   xmlns:sodipodi="http://sodipodi.sourceforge.net/DTD/sodipodi-0.dtd"
   xmlns="http://www.w3.org/2000/svg"
   xmlns:svg="http://www.w3.org/2000/svg">
  <defs
     id="defs828" />
  <sodipodi:namedview
     id="namedview826"
     pagecolor="#ffffff"
     bordercolor="#666666"
     borderopacity="1.0"
     inkscape:pageshadow="2"
     inkscape:pageopacity="0.0"
     inkscape:pagecheckerboard="0"
     showgrid="false"
     inkscape:zoom="0.35203928"
     inkscape:cx="718.6698"
     inkscape:cy="793.94549"
     inkscape:window-width="1920"
     inkscape:window-height="1001"
     inkscape:window-x="-9"
     inkscape:window-y="-9"
     inkscape:window-maximized="1"
     inkscape:current-layer="svg824" />
  <path
     style="stroke-width:1.22937;fill:#1d9bf0;fill-opacity:1"
     d="m 1706.8334,853.33343 c -1.6373,-58.68041 -19.5295,-115.81697 -51.7763,-164.95889 -32.156,-49.05174 -77.393,-88.29363 -130.6232,-113.18268 20.2563,-55.13773 24.5255,-114.81756 12.7167,-172.31651 -11.8988,-57.59078 -39.6956,-110.63943 -80.1174,-153.24117 -42.6935,-40.42251 -95.651,-68.12787 -153.2412,-80.11861 -57.5002,-11.80872 -117.1794,-7.54289 -172.3171,12.71716 C 1106.6767,128.91187 1067.5255,83.584864 1018.3836,51.428376 969.24097,19.272713 912.10433,1.2870154 853.33288,-0.16662598 794.65314,1.374744 737.69813,19.181704 688.64635,51.428376 639.59453,83.675871 600.62583,129.00288 576.00946,182.23273 520.78104,161.97679 460.91913,157.52566 403.23807,169.51557 c -57.68106,11.80954 -110.82031,39.60509 -153.5138,80.11861 -40.42258,42.69275 -68.0368,95.83241 -79.75475,153.33136 -11.80881,57.49977 -7.26949,117.17961 13.08098,172.22632 C 129.72951,600.08091 84.310791,639.23179 51.97304,688.28354 19.635302,737.33528 1.5590152,794.56203 -0.16667598,853.33343 1.6506995,912.10484 19.635302,969.24061 51.97304,1018.3833 c 32.337751,49.0517 77.75647,88.2927 131.07746,113.0917 -20.34719,55.0466 -24.88979,114.7265 -13.08098,172.2256 11.80882,57.5907 39.33217,110.6394 79.66389,153.3321 42.69347,40.2405 95.74186,67.8548 153.24119,79.7545 57.49932,11.9907 117.17949,7.6331 172.31704,-12.3539 24.88898,53.2306 64.04022,98.4666 113.18208,130.7142 49.05187,32.1556 106.27942,50.0502 164.95916,51.6859 58.77145,-1.4511 115.90809,-19.3482 165.05072,-51.5047 49.1419,-32.1557 88.2931,-77.5745 113.0913,-130.8045 54.8649,21.7096 114.9988,26.888 172.8624,14.8973 57.7719,-11.9907 110.8203,-40.6037 152.605,-82.3888 41.7848,-41.7844 70.4896,-94.833 82.4792,-152.696 11.9906,-57.863 6.8111,-117.997 -14.9876,-172.8617 53.2302,-24.8899 98.4672,-64.04 130.714,-113.1827 32.156,-49.05169 50.0506,-106.27848 51.6855,-164.95887 z"
     id="path1425" />
  <g
     id="layer1"
     inkscape:label="Ying"
     style="display:inline;stroke-width:1.20008"
     transform="matrix(0.83168515,0,0,0.83486658,142.00197,140.98244)">
    <path
       style="display:inline;fill:none;fill-opacity:1;stroke:#f19020;stroke-width:76.8054;stroke-linecap:round;stroke-linejoin:round;stroke-opacity:1;paint-order:fill markers stroke;stop-color:#000000"
       d="M 579.69099,1216.2135 560.63971,1129.1794 721.24665,815.23959 632.14409,659.89713"
       id="path14378-2"
       sodipodi:nodetypes="cccc"
       inkscape:transform-center-x="113.70581"
       inkscape:transform-center-y="197.93521" />
    <path
       style="display:inline;fill:none;fill-opacity:1;stroke:#f19020;stroke-width:76.8054;stroke-linecap:round;stroke-linejoin:round;stroke-opacity:1;paint-order:fill markers stroke;stop-color:#000000"
       d="m 711.1184,1538.0514 105.4569,-1.9928 -23.87705,-350.7288 -83.78677,-164.9183 175.99952,1.282 -92.21275,163.6363"
       id="path10187-8"
       sodipodi:nodetypes="ccc" />
    <path
       style="fill:#ffcb4c;fill-opacity:1;stroke:#ffcb4c;stroke-width:76.8054;stroke-linecap:round;stroke-linejoin:round;stroke-opacity:1;paint-order:fill markers stroke;stop-color:#000000"
       d="m 614.79422,592.65681 c 0,0 -67.09064,105.22781 -58.80091,188.6724 9.48849,165.27031 116.26571,354.48779 281.65323,337.42069 165.38756,-17.0671 184.92456,-56.8073 310.81266,-167.7669 125.8881,-110.95961 175.2339,-377.30024 175.2339,-377.30024 0,0 -92.3019,167.81141 -168.607,246.78704 C 1074.4549,903.9229 956.24339,953.85187 839.6363,951.35666 732.79265,949.07037 665.8589,887.4001 658.56878,756.06453 651.85501,635.11225 670.21391,566.09276 670.21391,566.09276"
       id="path2053"
       sodipodi:nodetypes="cczzcsssc" />
    <path
       style="fill:none;fill-opacity:1;stroke:#ffcb4c;stroke-width:76.8054;stroke-linecap:round;stroke-linejoin:round;stroke-opacity:1;paint-order:fill markers stroke;stop-color:#000000"
       d="m 766.01544,1541.8273 105.4569,-1.9927 -23.87704,-350.7288 -83.78678,-164.9183 175.99952,1.282 -92.21274,163.6363"
       id="path10187"
       sodipodi:nodetypes="ccc" />
    <path
       style="fill:none;fill-opacity:1;stroke:#ffcb4c;stroke-width:76.8054;stroke-linecap:round;stroke-linejoin:round;stroke-opacity:1;paint-order:fill markers stroke;stop-color:#000000"
       d="M 636.9692,1230.4546 611.67785,1140.3822 721.24665,815.23959 632.14409,659.89713"
       id="path14378"
       sodipodi:nodetypes="cccc"
       inkscape:transform-center-x="133.63651"
       inkscape:transform-center-y="184.33181" />
    <g
       id="g31027"
       inkscape:label="head"
       transform="matrix(0.90121809,0,0,0.90258773,246.68993,72.54206)"
       style="display:inline;stroke-width:1.33062">
      <path
         style="display:inline;fill:none;stroke:#65471b;stroke-width:85.1593;stroke-linecap:round;stroke-linejoin:round;stroke-opacity:1;paint-order:fill markers stroke;stop-color:#000000"
         d="m 282.68851,375.07131 3.08897,103.83206"
         id="path1517-8"
         sodipodi:nodetypes="cc" />
      <path
         style="fill:none;stroke:#65471b;stroke-width:85.1593;stroke-linecap:round;stroke-linejoin:round;stroke-opacity:1;paint-order:fill markers stroke;stop-color:#000000"
         d="m 137.99052,534.29931 21.93043,93.52394"
         id="path1858"
         sodipodi:nodetypes="cc" />
      <path
         style="fill:#f19020;fill-opacity:1;stroke:#f19020;stroke-width:85.1596;stroke-linecap:round;stroke-miterlimit:4;stroke-dasharray:none;stroke-dashoffset:0;stroke-opacity:1;paint-order:fill markers stroke;stop-color:#000000"
         d="m 383.61822,368.36921 c 0,0 -16.26371,-58.36871 -14.2224,-120.84588 2.24564,-68.73109 28.44481,-142.74919 51.64979,-144.25976 23.20499,-1.51058 60.63237,65.70995 70.36348,113.29301 9.73111,47.58307 -1.4971,152.56792 -1.4971,152.56792 z"
         id="path1640"
         inkscape:label="left ear"
         sodipodi:nodetypes="cssscc" />
      <path
         style="display:none;fill:#123456;fill-opacity:1;stroke:#123456;stroke-width:85.1593;stroke-linecap:round;stroke-linejoin:round;stroke-opacity:1;paint-order:fill markers stroke;stop-color:#000000"
         d="m 613.5679,322.40721 56.81184,427.50911 -58.23213,-69.5945 -34.08711,61.07273 -48.29007,-96.58014 -34.0871,46.86978 -4.26089,-288.32011 z"
         id="path30938"
         inkscape:label="mane" />
      <path
         id="path1148"
         style="display:inline;fill:#ffcb4c;stroke:#ffcb4c;stroke-width:85.1596;stroke-linecap:round;stroke-linejoin:round;stroke-miterlimit:4;stroke-dasharray:8.51595, 8.51595;stroke-dashoffset:0;stroke-opacity:1;paint-order:fill markers stroke;stop-color:#000000"
         inkscape:label="head"
         d="m 539.60091,477.49373 c 0,0 -0.0366,-3.70164 -0.3225,-9.72156 -0.14297,-3.00997 -0.34782,-6.59936 -0.64231,-10.59548 -0.29449,-3.99611 -0.67797,-8.3992 -1.17738,-13.03557 -0.49937,-4.63637 -1.11503,-9.50595 -1.87265,-14.43669 -0.75765,-4.93072 -1.65763,-9.92227 -2.7269,-14.80147 -0.53463,-2.4396 -1.11171,-4.85146 -1.73425,-7.21333 -0.62254,-2.36186 -1.29066,-4.67376 -2.00776,-6.91466 -0.7171,-2.24089 -1.48272,-4.41036 -2.30109,-6.48705 -0.81838,-2.07668 -1.68937,-4.06057 -2.61562,-5.92981 -0.92629,-1.86924 -2.01207,-3.68971 -3.23414,-5.46011 -1.22206,-1.77039 -2.58056,-3.49095 -4.05125,-5.1601 -1.47072,-1.66915 -3.05386,-3.28725 -4.72604,-4.85276 -1.67217,-1.56551 -3.43325,-3.07859 -5.25972,-4.53806 -1.82651,-1.45947 -3.71811,-2.86498 -5.65179,-4.21602 -1.93364,-1.35103 -3.90906,-2.64708 -5.90271,-3.88728 -3.98734,-2.4804 -8.04781,-4.73698 -11.9922,-6.75965 -3.94438,-2.02268 -7.77272,-3.81144 -11.2969,-5.35722 -3.52418,-1.54577 -6.7439,-2.84827 -9.47059,-3.89797 -5.45345,-2.09939 -8.93488,-3.18773 -8.93488,-3.18773 -36.22004,-5.46941 -78.71636,2.38418 -105.99223,20.53018 -34.33362,22.84136 -46.41019,60.42348 -67.36953,72.50809 -20.95933,12.08456 -76.35178,26.43446 -95.06548,28.7003 -18.71369,2.26585 -62.1291,2.26622 -54.64363,42.29643 7.48548,40.03021 38.17558,96.67678 128.00132,84.59222 89.82572,-12.0846 106.29402,-15.10592 181.89733,-30.21167 7.76309,-1.55108 18.25663,-6.26695 29.43815,-12.63933 l 72.51075,-3.90936 -31.50552,-25.74439 c 1.81651,-1.65589 3.59379,-3.32458 5.30014,-5.00709 l 48.16944,-0.81247 -28.77794,-23.83285 c 1.18006,-2.24196 2.19714,-4.45427 2.92486,-6.60463 0.35677,-1.05422 0.6892,-2.26697 1.03302,-3.41291 z" />
      <path
         style="display:none;fill:#123456;fill-opacity:1;stroke:#123456;stroke-width:85.1593;stroke-linecap:round;stroke-linejoin:round;stroke-opacity:1;paint-order:fill markers stroke;stop-color:#000000"
         d="m 326.76156,347.08986 c -38.92591,-28.12127 -95.27498,-32.28568 -164.4847,-18.76671 53.19265,-54.19875 122.01662,-91.20303 213.05736,-103.76887 -8.50024,-22.36759 -50.66592,-20.68843 -83.89823,-25.39026 71.84967,-34.61604 149.12201,-28.5621 228.5123,-6.62354 11.48715,33.4857 35.33869,66.9714 -33.11772,100.4571 -56.18757,-3.20348 -111.36025,1.20466 -160.06901,54.09228 z"
         id="path30246"
         sodipodi:nodetypes="ccccccc"
         inkscape:label="top hair" />
      <path
         id="path13483"
         style="display:inline;fill:#ffcb4c;stroke:#ffcb4c;stroke-width:85.1596;stroke-linecap:round;stroke-linejoin:round;stroke-miterlimit:4;stroke-dasharray:8.51595, 8.51595;stroke-dashoffset:0;stroke-opacity:1;paint-order:fill markers stroke;stop-color:#000000"
         inkscape:label="right ear"
         d="m 584.97788,103.26337 c -26.94774,0 -81.29827,97.45178 -90.57453,126.88865 -8.25904,26.20889 -33.54002,92.19064 -40.72312,110.88919 0,0 3.48143,1.08834 8.93488,3.18773 2.72669,1.0497 5.94641,2.3522 9.47059,3.89797 3.52418,1.54578 7.35252,3.33454 11.2969,5.35722 3.94439,2.02267 8.00486,4.27925 11.9922,6.75965 1.99365,1.2402 3.96907,2.53625 5.90271,3.88728 1.93368,1.35104 3.82528,2.75655 5.65179,4.21602 1.82647,1.45947 3.58755,2.97255 5.25972,4.53806 1.67218,1.56551 3.25532,3.18361 4.72604,4.85276 1.47069,1.66915 2.82919,3.38971 4.05125,5.1601 1.22207,1.7704 2.30785,3.59087 3.23414,5.46011 0.92625,1.86924 1.79724,3.85313 2.61562,5.92981 0.81837,2.07669 1.58399,4.24616 2.30109,6.48705 0.7171,2.2409 1.38522,4.5528 2.00776,6.91466 0.62254,2.36187 1.19962,4.77373 1.73425,7.21333 1.06927,4.8792 1.96925,9.87075 2.7269,14.80147 0.75762,4.93074 1.37328,9.80032 1.87265,14.43669 0.49941,4.63637 0.88289,9.03946 1.17738,13.03557 0.29449,3.99612 0.49934,7.58551 0.64231,10.59548 0.28595,6.01992 0.3225,9.72156 0.3225,9.72156 32.84014,-40.20697 94.01914,-124.86486 97.02621,-201.26956 4.11703,-104.60722 -34.17423,-172.9608 -51.64924,-172.9608 z" />
      <path
         style="fill:none;stroke:#65471b;stroke-width:85.1593;stroke-linecap:round;stroke-linejoin:round;stroke-opacity:1;paint-order:fill markers stroke;stop-color:#000000"
         d="m 413.42417,389.34377 3.08897,103.83206"
         id="path1517" />
    </g>
    <path
       style="display:none;fill:#234567;fill-opacity:1;stroke:#234567;stroke-width:76.8054;stroke-linecap:round;stroke-linejoin:round;stroke-opacity:1;paint-order:fill markers stroke;stop-color:#000000"
       d="m 1292.5255,677.88254 c -29.2032,-14.2979 -53.8954,-36.78568 -58.124,-96.42712 55.5802,-47.87007 84.8014,-110.30253 110.316,-174.78282 29.4714,57.61529 46.4058,119.42081 32.0287,191.69156 -10.5179,36.52153 -31.4935,67.07699 -84.2207,79.51838 z"
       id="path31499"
       sodipodi:nodetypes="ccccc"
       inkscape:label="tail tuft" />
    <path
       style="fill:#ffcb4c;fill-opacity:1;stroke:#ffcb4c;stroke-width:76.8054;stroke-linecap:round;stroke-linejoin:round;stroke-opacity:1;paint-order:fill markers stroke;stop-color:#000000"
       d="m 569.24905,684.0283 -26.87993,174.34408 21.75994,-32.04855"
       id="path964"
       sodipodi:nodetypes="ccc"
       inkscape:label="path964" />
    <path
       style="fill:#ffcb4c;fill-opacity:1;stroke:#ffcb4c;stroke-width:76.8054;stroke-linecap:round;stroke-linejoin:round;stroke-opacity:1;paint-order:fill markers stroke;stop-color:#000000"
       d="m 564.12906,880.16538 29.43992,162.80662 28.15993,-21.793"
       id="path5564"
       sodipodi:nodetypes="ccc" />
    <path
       style="fill:#ffcb4c;fill-opacity:1;stroke:#ffcb4c;stroke-width:76.8054;stroke-linecap:round;stroke-linejoin:round;stroke-opacity:1;paint-order:fill markers stroke;stop-color:#000000"
       d="m 667.80878,1085.2761 60.15984,59.6102"
       id="path6398" />
  </g>
</svg>
