<?xml version="1.0" encoding="UTF-8" standalone="no"?>
<!-- Created with Inkscape (http://www.inkscape.org/) -->

<svg
   version="1.1"
   id="svg824"
   width="1706.6667"
   height="1706.6667"
   viewBox="0 0 1706.6667 1706.6667"
   sodipodi:docname="ying_head_tilt.svg"
   inkscape:version="1.1 (c68e22c387, 2021-05-23)"
   inkscape:export-filename="D:\Pictures\yingmotes\ying_confused.png"
   inkscape:export-xdpi="72"
   inkscape:export-ydpi="72"
   xmlns:inkscape="http://www.inkscape.org/namespaces/inkscape"
   xmlns:sodipodi="http://sodipodi.sourceforge.net/DTD/sodipodi-0.dtd"
   xmlns="http://www.w3.org/2000/svg"
   xmlns:svg="http://www.w3.org/2000/svg">
  <defs
     id="defs828">
    <rect
       x="46.835537"
       y="1064.7279"
       width="593.25013"
       height="574.51592"
       id="rect14460" />
  </defs>
  <sodipodi:namedview
     id="namedview826"
     pagecolor="#ffffff"
     bordercolor="#666666"
     borderopacity="1.0"
     inkscape:pageshadow="2"
     inkscape:pageopacity="0.0"
     inkscape:pagecheckerboard="0"
     showgrid="false"
     inkscape:zoom="0.32026963"
     inkscape:cx="291.94151"
     inkscape:cy="754.05214"
     inkscape:window-width="1920"
     inkscape:window-height="1001"
     inkscape:window-x="-9"
     inkscape:window-y="-9"
     inkscape:window-maximized="1"
     inkscape:current-layer="g12988" />
  <g
     id="layer1"
     inkscape:label="Ying"
     style="display:inline"
     inkscape:groupmode="layer">
    <path
       style="display:none;fill:#123456;stroke:#123456;stroke-width:64;stroke-linecap:round;stroke-linejoin:round;-inkscape-stroke:none;paint-order:fill markers stroke;stop-color:#000000"
       d="m 1298.031,865.09775 c 70.7982,131.45402 185.3824,239.02475 198.7064,401.82835 -29.438,-19.1346 -55.9321,-14.719 -79.4825,13.2471 91.0222,54.7003 58.5139,175.917 81.6903,267.1496 l -99.3531,6.6236 c 66.7588,58.9185 81.773,128.1858 90.5218,198.7063 l -494.50725,2.2079 c -24.3802,-41.4813 23.11455,-208.5632 66.23555,-227.0436 0,0 3.3791,-20.0154 -75.35325,-9.4549 C 1015.23,1271.0896 1172.1837,1096.1858 1298.031,865.09775 Z"
       id="path3091"
       sodipodi:nodetypes="cccccccccc"
       inkscape:label="mane" />
    <path
       style="opacity:1;fill:#ffcb4c;fill-opacity:1;stroke:#ffcb4c;stroke-width:64;stroke-linecap:round;stroke-linejoin:round;stroke-miterlimit:4;stroke-dasharray:none;stroke-dashoffset:0;stroke-opacity:1;paint-order:fill markers stroke;stop-color:#000000"
       d="m 848.0933,1338.888 -170.94545,183.3053 106.5349,-0.5425 -38.55319,212.7338 465.62854,-0.094 c 0,0 -152.5855,-59.8865 -174.1805,-150.1928 -21.5949,-90.3062 119.7348,-284.4737 119.7348,-284.4737 z"
       id="path3340"
       inkscape:label="neck"
       sodipodi:nodetypes="cccccscc" />
    <g
       id="g12988"
       inkscape:label="head"
       inkscape:transform-center-x="-166.03022"
       inkscape:transform-center-y="-531.47196"
       transform="rotate(35.721316,997.3237,995.09923)"
       inkscape:groupmode="layer">
      <path
         style="display:inline;fill:none;fill-opacity:1;stroke:#f19020;stroke-width:32;stroke-linecap:round;stroke-linejoin:round;stroke-miterlimit:4;stroke-dasharray:none;stroke-dashoffset:0;stroke-opacity:1;paint-order:fill markers stroke;stop-color:#000000"
         d="m 96.355928,750.04929 c 172.380622,3.3773 366.357362,35.13579 517.876622,88.85401"
         id="path6280-0-6"
         sodipodi:nodetypes="cc"
         inkscape:label="eyelash left small"
         inkscape:transform-center-x="164.42517"
         inkscape:transform-center-y="-183.21914" />
      <path
         style="display:inline;fill:none;fill-opacity:1;stroke:#f19020;stroke-width:32;stroke-linecap:round;stroke-linejoin:round;stroke-miterlimit:4;stroke-dasharray:none;stroke-dashoffset:0;stroke-opacity:1;paint-order:fill markers stroke;stop-color:#000000"
         d="M -69.547232,621.35688 C 215.26218,612.60967 480.60573,658.44565 708.19934,810.13406"
         id="path6280-3"
         sodipodi:nodetypes="cc"
         inkscape:label="eyelash left big"
         inkscape:transform-center-x="147.66006"
         inkscape:transform-center-y="-268.13783" />
      <path
         style="opacity:1;fill:#f19020;fill-opacity:1;stroke:#f19020;stroke-width:64;stroke-linecap:round;stroke-miterlimit:4;stroke-dasharray:none;stroke-dashoffset:0;stroke-opacity:1;paint-order:fill markers stroke;stop-color:#000000"
         d="m 841.19021,982.4925 c 0,0 -155.81049,-84.47727 -282.61606,-216.04975 C 419.07539,621.69994 317.71885,415.51111 362.24102,363.34064 c 44.5222,-52.1705 262.38733,5.56111 382.15728,81.89084 119.76995,76.32975 316.8243,313.91843 316.8243,313.91843 z"
         id="path1640"
         inkscape:label="left ear"
         sodipodi:nodetypes="cssscc"
         inkscape:transform-center-x="-2.4809287"
         inkscape:transform-center-y="-288.19752" />
      <g
         id="g12997"
         inkscape:label="left eye">
        <path
           id="path1915-9"
           style="display:inline;fill:#fefefe;stroke:#65471b;stroke-width:64;stroke-linecap:round;stroke-linejoin:round;paint-order:fill markers stroke;stop-color:#000000"
           inkscape:label="lefteye"
           d="m 792.61751,1048.7279 c 10e-6,120.7167 -155.86024,218.577 -276.57698,218.577 -120.71674,0 -160.57699,-55.8603 -160.57698,-176.577 0,-120.71673 97.86025,-260.57698 218.57698,-260.57698 120.71673,0 218.57698,97.86025 218.57698,218.57698 z"
           sodipodi:nodetypes="sssss" />
        <path
           style="opacity:1;fill:#ffffff;fill-opacity:1;stroke:#65471b;stroke-width:48;stroke-linecap:round;stroke-linejoin:round;stroke-miterlimit:4;stroke-dasharray:none;stroke-dashoffset:0;stroke-opacity:1;paint-order:fill markers stroke;stop-color:#000000"
           d="M 498.97372,962.62186 V 1132.6262"
           id="path2372"
           inkscape:label="left pupil" />
      </g>
      <path
         id="path1148"
         style="display:inline;opacity:1;fill:#ffcb4c;stroke:#ffcb4c;stroke-width:64;stroke-linecap:round;stroke-linejoin:round;stroke-miterlimit:4;stroke-dasharray:6.4, 6.4;stroke-dashoffset:0;stroke-opacity:1;paint-order:fill markers stroke;stop-color:#000000"
         inkscape:label="head"
         d="m 666.95508,1275.2539 c -1.24673,-1.1269 -0.83192,-0.7586 -2.11524,-1.918 -32.18554,-29.0779 -75.68714,-68.2147 -120.94922,-108.4472 -22.63103,-20.1163 -45.7023,-40.5065 -68.01953,-60.0508 -22.31722,-19.5443 -43.87934,-38.2428 -63.49414,-54.9746 -19.61479,-16.7319 -37.2829,-31.4968 -51.80664,-43.1758 -7.26187,-5.8395 -13.73806,-10.90823 -19.27929,-15.06445 -5.54124,-4.15623 -10.14595,-7.40087 -13.66797,-9.59375 -4.04433,-2.51809 -8.05893,-5.5518 -12.03125,-9.02735 -3.97233,-3.47554 -7.90308,-7.39142 -11.7793,-11.67578 -3.87622,-4.28435 -7.69907,-8.93633 -11.45508,-13.88086 -3.75601,-4.94452 -7.44494,-10.18262 -11.05664,-15.63867 -3.6117,-5.45605 -7.1446,-11.13029 -10.58789,-16.94922 -3.44329,-5.81892 -6.79806,-11.78129 -10.04883,-17.81445 -6.50154,-12.06632 -12.59281,-24.41393 -18.17968,-36.44531 -5.58688,-12.03138 -10.66906,-23.74741 -15.14844,-34.55469 -4.47938,-10.80728 -8.35609,-20.7056 -11.53516,-29.09961 -6.35814,-16.78803 -9.92383,-27.56055 -9.92383,-27.56055 l -114.214841,6.20508 c -9.336966,100.05921 28.662301,218.3845 193.802731,306.66011 187.91254,100.4484 257.48922,135.6172 381.49024,193.0059 z"
         transform="rotate(-35.721316,997.3237,995.09923)" />
      <path
         id="path10138"
         style="display:inline;opacity:1;fill:#ffcb4c;stroke:#ffcb4c;stroke-width:64;stroke-linecap:round;stroke-linejoin:round;stroke-miterlimit:4;stroke-dasharray:6.4, 6.4;stroke-dashoffset:0;stroke-opacity:1;paint-order:fill markers stroke;stop-color:#000000"
         inkscape:label="head"
         d="m 203.9668,604.54883 c -30.85637,-1.00025 -60.16993,12.68656 -80.64258,56.51758 -15.08939,32.30567 -27.671467,71.75591 -31.662111,114.52148 l 114.214841,-6.20508 c 0,0 3.56569,10.77252 9.92383,27.56055 3.17907,8.39401 7.05578,18.29233 11.53516,29.09961 4.47938,10.80728 9.56156,22.52331 15.14844,34.55469 5.58687,12.03138 11.67814,24.37899 18.17968,36.44531 3.25077,6.03316 6.60554,11.99553 10.04883,17.81445 3.44329,5.81893 6.97619,11.49317 10.58789,16.94922 3.6117,5.45605 7.30063,10.69415 11.05664,15.63867 3.75601,4.94453 7.57886,9.59651 11.45508,13.88086 3.87622,4.28436 7.80697,8.20024 11.7793,11.67578 3.97232,3.47555 7.98692,6.50926 12.03125,9.02735 3.52202,2.19288 8.12673,5.43752 13.66797,9.59375 5.54123,4.15622 12.01742,9.22495 19.27929,15.06445 14.52374,11.679 32.19185,26.4439 51.80664,43.1758 19.6148,16.7318 41.17692,35.4303 63.49414,54.9746 22.31723,19.5443 45.3885,39.9345 68.01953,60.0508 45.26208,40.2325 88.76368,79.3693 120.94922,108.4472 1.28332,1.1594 0.86851,0.7911 2.11524,1.918 31.5488,14.6011 63.69684,29.3965 105.64453,48.5313 21.23675,9.6873 54.41344,16.5672 92.06445,20.6992 l 180.30664,115.5879 -31.5059,-115.3516 c 7.176,-0.8017 14.2808,-1.7013 21.2383,-2.7559 l 116.7324,81.0215 -28.2363,-106.1172 c 6.6521,-3.2886 12.8628,-6.7885 18.2754,-10.6386 2.6536,-1.8876 5.5198,-4.1928 8.2988,-6.3203 0,0 6.231,-8.8478 15.8204,-23.627 4.7946,-7.3896 10.43,-16.2611 16.5449,-26.252 6.1149,-9.9908 12.7108,-21.0996 19.4277,-32.9628 6.717,-11.8632 13.5533,-24.4799 20.1543,-37.4864 6.6009,-13.0065 12.9656,-26.4033 18.7324,-39.8242 2.8834,-6.7104 5.618,-13.4281 8.1582,-20.1055 2.5402,-6.6773 4.8849,-13.3141 6.9922,-19.8671 2.1073,-6.5531 3.9779,-13.0197 5.5625,-19.3575 1.5846,-6.3377 2.8833,-12.5469 3.8555,-18.5781 0.9721,-6.0313 1.4791,-12.2213 1.5742,-18.5273 0.095,-6.3061 -0.2215,-12.7288 -0.8945,-19.2227 -0.6731,-6.4939 -1.7028,-13.0594 -3.0352,-19.6543 -1.3324,-6.59489 -2.9668,-13.21916 -4.8496,-19.82811 -1.8829,-6.60901 -4.0133,-13.20206 -6.3379,-19.73828 -2.3245,-6.53616 -4.8426,-13.01416 -7.5,-19.39063 -5.3148,-12.75298 -11.1865,-25.10063 -17.1797,-36.69336 -5.9932,-11.59273 -12.1073,-22.43065 -17.9082,-32.16797 -5.8008,-9.73731 -11.2895,-18.3719 -16.0273,-25.55859 -9.4759,-14.37349 -15.9551,-22.95313 -15.9551,-22.95313 C 1099.51,752.76224 984.34506,698.22007 888.06055,694.31445 766.86197,689.39825 673.8023,757.79421 602.98828,750.38086 532.17435,742.9674 375.04035,681.63369 326.36133,654.78516 297.45815,638.84384 249.06457,606.01073 203.9668,604.54883 Z"
         transform="rotate(-35.721316,997.3237,995.09923)" />
      <path
         style="display:none;fill:#123456;stroke:#123456;stroke-width:64;stroke-linecap:round;stroke-linejoin:round;-inkscape-stroke:none;paint-order:fill markers stroke;stop-color:#000000"
         d="M 880.93148,744.0449 C 763.91552,771.643 622.61323,916.25706 622.61323,916.25706 620.95257,833.21142 611.27974,749.4374 735.2135,677.80944 c -124.69479,-7.45678 -249.2876,-15.1175 -408.45194,46.36482 0,0 303.22641,-263.62224 490.14233,-280.39675 172.2122,-15.45493 264.94181,37.53343 264.94181,37.53343 -0.1923,-45.68323 -31.4577,-88.25915 -90.52179,-128.0552 0,0 295.85169,97.14532 333.38509,194.29065 37.5334,97.14533 28.702,167.79647 28.702,167.79647 l -243.7525,34.92308 c 0,0 -111.71105,-33.81914 -228.72702,-6.22104 z"
         id="path1637"
         sodipodi:nodetypes="zcccsccsccz"
         inkscape:label="top hair" />
      <path
         id="path13483"
         style="display:inline;opacity:1;fill:#ffcb4c;stroke:#ffcb4c;stroke-width:64;stroke-linecap:round;stroke-linejoin:round;stroke-miterlimit:4;stroke-dasharray:6.4, 6.4;stroke-dashoffset:0;stroke-opacity:1;paint-order:fill markers stroke;stop-color:#000000"
         inkscape:label="right ear"
         d="m 1004.183,41.727265 c -70.55306,36.602671 -81.66439,363.292245 -66.32407,452.274305 13.65814,79.22447 36.2912,284.77149 42.65615,343.0468 57.66232,327.89933 201.29002,535.22013 408.64012,237.35993 31.8549,-148.93455 78.0668,-451.70175 -16.9135,-654.03978 C 1242.2021,143.34351 1049.935,17.991245 1004.183,41.727265 Z"
         inkscape:transform-center-x="-180.42712"
         inkscape:transform-center-y="-292.96137"
         sodipodi:nodetypes="ssccss" />
      <g
         id="g13003"
         inkscape:label="face">
        <path
           style="opacity:1;fill:none;fill-opacity:1;stroke:#65471b;stroke-width:64;stroke-linecap:round;stroke-linejoin:round;stroke-miterlimit:4;stroke-dasharray:none;stroke-dashoffset:0;stroke-opacity:1;paint-order:fill markers stroke;stop-color:#000000"
           d="m 83.898236,1201.0695 68.443294,6.6235 -37.53342,39.7413"
           id="path2163"
           inkscape:label="left nostril" />
        <path
           style="opacity:1;fill:none;fill-opacity:1;stroke:#65471b;stroke-width:64;stroke-linecap:round;stroke-linejoin:round;stroke-miterlimit:4;stroke-dasharray:none;stroke-dashoffset:0;stroke-opacity:1;paint-order:fill markers stroke;stop-color:#000000"
           d="m 401.82839,1251.85 -59.6119,-44.157 121.43166,-17.6628"
           id="path2198"
           inkscape:label="right nostril" />
        <path
           style="opacity:1;fill:#ffffff;fill-opacity:1;stroke:#65471b;stroke-width:64;stroke-linecap:round;stroke-linejoin:round;stroke-miterlimit:4;stroke-dasharray:none;stroke-dashoffset:0;stroke-opacity:1;paint-order:fill markers stroke;stop-color:#000000"
           d="m 222.99268,1530.0389 -90.52178,-183.2514 90.52178,-72.859 103.76887,66.2354 z"
           id="path2202"
           sodipodi:nodetypes="ccccc"
           inkscape:label="toof" />
      </g>
      <g
         id="g12993"
         inkscape:label="right eye">
        <path
           style="opacity:1;fill:#65471b;fill-opacity:1;stroke:#65471b;stroke-width:64;stroke-linecap:round;stroke-linejoin:round;stroke-miterlimit:4;stroke-dasharray:none;stroke-dashoffset:0;stroke-opacity:1;paint-order:fill markers stroke;stop-color:#000000"
           d="m 661.97569,1226.0485 53.36716,-115.5008 86.53085,168.711 z"
           id="path7852"
           inkscape:label="eyenub"
           sodipodi:nodetypes="cccc" />
        <path
           id="path1915"
           style="opacity:1;fill:#fefefe;stroke:#65471b;stroke-width:64;stroke-linecap:round;stroke-linejoin:round;paint-order:fill markers stroke;stop-color:#000000"
           inkscape:label="righteye"
           d="m 1150.289,1075.2222 c 0,120.7167 -151.8603,218.5769 -272.57702,218.5769 -120.71671,0 -164.57695,-71.8602 -164.57699,-192.5769 -2e-5,-120.71675 97.86024,-244.57702 218.57699,-244.57701 120.71672,-2e-5 218.57702,97.86025 218.57702,218.57701 z"
           sodipodi:nodetypes="sssss" />
        <path
           style="opacity:1;fill:#ffffff;fill-opacity:1;stroke:#65471b;stroke-width:48;stroke-linecap:round;stroke-linejoin:round;stroke-miterlimit:4;stroke-dasharray:none;stroke-dashoffset:0;stroke-opacity:1;paint-order:fill markers stroke;stop-color:#000000"
           d="m 841.19021,982.4925 v 189.8749"
           id="path2350"
           inkscape:label="right pupil" />
        <path
           id="path10404"
           style="opacity:1;fill:#d19020;stroke:#65471b;stroke-width:64;stroke-linecap:round;stroke-linejoin:round;paint-order:fill markers stroke;stop-color:#000000"
           inkscape:label="righteye"
           d="m 910.25195,809.67188 c -40.73941,0.28033 -82.33527,11.52836 -119.37695,31.3457 l 324.0625,200.65622 c 6.714,-74.47591 -24.9406,-150.46678 -90.0469,-197.28708 -33.68949,-24.22739 -73.72978,-34.99635 -114.63865,-34.71484 z"
           transform="rotate(-35.721316,997.3237,995.09923)" />
        <path
           id="path10549"
           style="opacity:1;fill:#d19020;stroke:#65471b;stroke-width:64;stroke-linecap:round;stroke-linejoin:round;paint-order:fill markers stroke;stop-color:#000000"
           inkscape:label="righteye"
           d="m 652.30469,1036.502 c -3.5354,48.0526 18.6003,91.7759 73.51562,131.2675 57.53215,41.3735 143.45278,61.5907 218.875,51.4434 z"
           transform="rotate(-35.721316,997.3237,995.09923)" />
      </g>
      <path
         id="path19479"
         style="opacity:1;fill:#00ff00;stroke:#000000;stroke-width:128;stroke-linecap:round;stroke-linejoin:round;stroke-miterlimit:4;stroke-dasharray:12.8, 12.8;stroke-dashoffset:0;paint-order:markers stroke fill;stop-color:#000000"
         d="m 1112.693,387.56337 a 65.917271,62.836887 87.2086 0 1 -18.7322,91.02457 65.917271,62.836887 87.2086 0 1 -86.8789,-20.07023 65.917271,62.836887 87.2086 0 1 18.7322,-91.02457 65.917271,62.836887 87.2086 0 1 86.8789,20.07023 z M 918.23361,40.378548 a 50.985778,48.60316 87.208601 0 0 -7.80322,0.134638 50.985778,48.60316 87.208601 0 0 -7.78559,-0.710973 c -5.20674,0.138221 -10.39896,0.60758 -15.55281,1.407206 a 50.985778,48.60316 87.208601 0 0 -7.5389,2.097125 50.985778,48.60316 87.208601 0 0 -7.6814,1.260197 c -5.00189,1.438079 -9.90047,3.186206 -14.67597,5.229924 a 50.985778,48.60316 87.208601 0 0 -6.80782,3.90114 50.985778,48.60316 87.208601 0 0 -7.17227,3.136367 c -4.54379,2.650961 -8.92863,5.588995 -13.13344,8.802298 a 50.985778,48.60316 87.208601 0 0 -5.73743,5.520858 50.985778,48.60316 87.208601 0 0 -6.25725,4.87078 c -3.7971,3.719111 -7.3713,7.674655 -10.7076,11.846971 a 50.985778,48.60316 87.208601 0 0 -4.29376,6.795867 50.985778,48.60316 87.208601 0 0 -4.93714,6.272794 c -2.83183,4.55888 -5.3932,9.28596 -7.67515,14.15795 a 50.985778,48.60316 87.208601 0 0 -2.62079,7.67239 50.985778,48.60316 87.208601 0 0 -3.37078,7.33989 c -1.71001,5.13084 -3.1261,10.37244 -4.2374,15.70335 a 50.985778,48.60316 87.208601 0 0 -0.79957,8.12497 50.985778,48.60316 87.208601 0 0 -1.60111,8.00155 c -0.49179,5.44264 -0.667,10.90946 -0.52513,16.37596 a 50.985778,48.60316 87.208601 0 0 1.08424,8.11 50.985778,48.60316 87.208601 0 0 0.27819,8.17252 c 0.7671,5.40417 1.84188,10.72988 3.20692,15.95697 a 50.985778,48.60316 87.208601 0 0 59.73444,35.97276 50.985778,48.60316 87.208601 0 0 34.02169,-62.48157 c -0.34905,-1.33657 -0.61861,-2.67885 -0.80644,-4.0026 a 50.985778,48.60316 87.208601 0 0 -0.37143,-1.46628 50.985778,48.60316 87.208601 0 0 0.0341,-2.56126 c -0.0344,-1.32905 0.009,-2.66701 0.12805,-3.98823 a 50.985778,48.60316 87.208601 0 0 0.12986,-2.55892 50.985778,48.60316 87.208601 0 0 0.46501,-1.43583 c 0.27164,-1.30303 0.62235,-2.60496 1.04776,-3.88137 a 50.985778,48.60316 87.208601 0 0 0.71627,-2.47285 50.985778,48.60316 87.208601 0 0 0.78305,-1.28353 c 0.57018,-1.21771 1.21084,-2.39872 1.90925,-3.52308 a 50.985778,48.60316 87.208601 0 0 1.2583,-2.2218 50.985778,48.60316 87.208601 0 0 1.05186,-1.04917 c 0.81875,-1.02388 1.7006,-1.99942 2.6292,-2.90893 a 50.985778,48.60316 87.208601 0 0 1.70291,-1.81295 50.985778,48.60316 87.208601 0 0 1.24965,-0.74482 c 1.02165,-0.78073 2.09685,-1.50219 3.20555,-2.14886 a 50.985778,48.60316 87.208601 0 0 2.10176,-1.34828 50.985778,48.60316 87.208601 0 0 1.4046,-0.41566 c 1.21549,-0.52022 2.45553,-0.96153 3.69662,-1.31838 a 50.985778,48.60316 87.208601 0 0 2.33373,-0.78179 50.985778,48.60316 87.208601 0 0 1.44361,-0.0521 c 1.25312,-0.19439 2.52747,-0.30973 3.79905,-0.34355 a 50.985778,48.60316 87.208601 0 0 2.42533,-0.16973 50.985778,48.60316 87.208601 0 0 1.40902,0.31123 c 1.27618,0.1284 2.55279,0.33921 3.80652,0.62811 a 50.985778,48.60316 87.208601 0 0 1.96479,0.21565 50.985778,48.60316 87.208601 0 0 1.78564,0.89912 c 1.21688,0.44552 2.41727,0.9718 3.57777,1.56831 a 50.985778,48.60316 87.208601 0 0 1.86058,0.69873 50.985778,48.60316 87.208601 0 0 1.52432,1.31172 c 1.08399,0.73705 2.1247,1.54247 3.10324,2.39918 a 50.985778,48.60316 87.208601 0 0 1.63042,1.13006 50.985778,48.60316 87.208601 0 0 1.17063,1.63789 c 0.87134,0.97151 1.69128,2.00519 2.44566,3.08163 a 50.985778,48.60316 87.208601 0 0 1.33469,1.51653 50.985778,48.60316 87.208601 0 0 0.77099,1.89984 c 0.64217,1.19271 1.22018,2.43373 1.72426,3.70123 a 50.985778,48.60316 87.208601 0 0 0.95882,1.81021 50.985778,48.60316 87.208601 0 0 0.32011,2.03745 c 0.34547,1.28205 0.61821,2.59301 0.81263,3.90623 a 50.985778,48.60316 87.208601 0 0 0.51264,1.97445 50.985778,48.60316 87.208601 0 0 -0.15394,2.04039 c 0.0423,1.33518 0.007,2.68276 -0.10501,4.0184 a 50.985778,48.60316 87.208601 0 0 0.0481,2.07224 50.985778,48.60316 87.208601 0 0 -0.62126,1.96432 c -0.26415,1.31348 -0.60822,2.62725 -1.0271,3.91672 a 50.985778,48.60316 87.208601 0 0 -0.42161,2.01549 50.985778,48.60316 87.208601 0 0 -1.04842,1.74878 c -0.55697,1.21313 -1.18464,2.39096 -1.87008,3.51211 a 50.985778,48.60316 87.208601 0 0 -0.8626,1.83729 50.985778,48.60316 87.208601 0 0 -1.40543,1.41971 c -0.80458,1.01954 -1.67465,1.99484 -2.59419,2.90631 a 50.985778,48.60316 87.208601 0 0 -1.25937,1.56515 50.985778,48.60316 87.208601 0 0 -1.69934,1.02879 c -0.82388,0.63827 -1.6974,1.24971 -2.61268,1.82421 a 50.985778,48.60316 87.208601 0 0 -0.5872,0.47005 50.985778,48.60316 87.208601 0 0 -0.66121,0.34112 50.985778,48.60316 87.208601 0 0 -3.63676,3.09996 50.985778,48.60316 87.208601 0 0 -4.22161,3.59743 50.985778,48.60316 87.208601 0 0 -3.45375,4.36061 50.985778,48.60316 87.208601 0 0 -3.34659,4.49388 50.985778,48.60316 87.208601 0 0 -2.44518,5.07479 50.985778,48.60316 87.208601 0 0 -2.29903,5.15414 50.985778,48.60316 87.208601 0 0 -1.30498,5.52232 50.985778,48.60316 87.208601 0 0 -1.14691,5.57199 50.985778,48.60316 87.208601 0 0 -0.0986,5.69031 50.985778,48.60316 87.208601 0 0 0.0656,5.70596 50.985778,48.60316 87.208601 0 0 1.11161,5.58178 50.985778,48.60316 87.208601 0 0 1.27355,5.54988 50.985778,48.60316 87.208601 0 0 2.27108,5.19638 50.985778,48.60316 87.208601 0 0 1.96395,4.49317 50.985778,48.60316 87.208601 0 0 0.44877,0.61474 50.985778,48.60316 87.208601 0 0 0.32968,0.69824 l 5.27133,8.59283 a 50.985778,48.60316 87.208601 0 0 3.09518,3.98677 50.985778,48.60316 87.208601 0 0 2.17551,4.60587 l 5.27126,8.59361 a 50.985778,48.60316 87.208601 0 0 3.09522,3.98679 50.985778,48.60316 87.208601 0 0 2.17541,4.60592 l 5.27136,8.59273 a 50.985778,48.60316 87.208601 0 0 3.0945,3.98526 50.985778,48.60316 87.208601 0 0 2.17606,4.60826 l 5.27105,8.593 a 50.985778,48.60316 87.208601 0 0 3.09655,3.98847 50.985778,48.60316 87.208601 0 0 2.17475,4.60431 l 0.92572,1.50927 a 50.985778,48.60316 87.208601 0 0 67.19904,15.52408 50.985778,48.60316 87.208601 0 0 14.4892,-70.40571 l -0.9258,-1.50915 a 50.985778,48.60316 87.208601 0 0 -2.3557,-3.03436 50.985778,48.60316 87.208601 0 0 -2.9155,-5.55915 l -5.2711,-8.59301 a 50.985778,48.60316 87.208601 0 0 -2.3537,-3.03202 50.985778,48.60316 87.208601 0 0 -2.9169,-5.5608 l -4.8174,-7.85305 a 50.985778,48.60316 87.208601 0 0 0.7683,-1.44 50.985778,48.60316 87.208601 0 0 4.0875,-5.27048 c 2.8053,-4.58877 5.3365,-9.34503 7.5863,-14.24488 a 50.985778,48.60316 87.208601 0 0 3.122,-8.93086 50.985778,48.60316 87.208601 0 0 2.7602,-6.13444 c 1.6682,-5.13535 3.0443,-10.37923 4.1166,-15.71033 a 50.985778,48.60316 87.208601 0 0 1.0021,-9.46229 50.985778,48.60316 87.208601 0 0 1.2862,-6.64508 c 0.4565,-5.43256 0.5989,-10.89114 0.4259,-16.35051 a 50.985778,48.60316 87.208601 0 0 -0.9418,-6.74734 50.985778,48.60316 87.208601 0 0 -0.5157,-9.53668 c -0.8004,-5.40829 -1.9131,-10.75803 -3.3322,-16.02495 a 50.985778,48.60316 87.208601 0 0 -2.4511,-6.30183 50.985778,48.60316 87.208601 0 0 -2.6742,-9.12258 c -1.995,-5.01631 -4.2723,-9.90449 -6.8231,-14.64244 a 50.985778,48.60316 87.208601 0 0 -3.8036,-5.52016 50.985778,48.60316 87.208601 0 0 -4.6626,-8.214899 c -3.0926,-4.412681 -6.436,-8.624402 -10.0154,-12.615721 a 50.985778,48.60316 87.208601 0 0 -4.96737,-4.427689 50.985778,48.60316 87.208601 0 0 -6.40589,-6.813911 c -4.00809,-3.509513 -8.20553,-6.754362 -12.57092,-9.723592 a 50.985778,48.60316 87.208601 0 0 -5.80656,-3.044577 50.985778,48.60316 87.208601 0 0 -7.74979,-5.010172 c -4.6698,-2.400611 -9.47078,-4.504425 -14.38174,-6.302225 a 50.985778,48.60316 87.208601 0 0 -6.31137,-1.507441 50.985778,48.60316 87.208601 0 0 -8.65654,-2.940669 c -5.0826,-1.17109 -10.22404,-2.018778 -15.40222,-2.540034 z"
         inkscape:label="qm1" />
      <path
         style="opacity:1;fill:none;fill-opacity:1;stroke:#ffcb4c;stroke-width:32;stroke-linecap:round;stroke-linejoin:round;stroke-miterlimit:4;stroke-dasharray:none;stroke-dashoffset:0;stroke-opacity:1;paint-order:fill markers stroke;stop-color:#000000"
         d="M 92.563343,477.22565 C 371.55845,535.14502 618.8942,641.60232 804.8334,842.18856"
         id="path6280"
         sodipodi:nodetypes="cc"
         inkscape:label="eyelash right big"
         inkscape:transform-center-x="232.47425"
         inkscape:transform-center-y="-231.44121" />
      <path
         style="display:inline;fill:none;fill-opacity:1;stroke:#ffcb4c;stroke-width:32;stroke-linecap:round;stroke-linejoin:round;stroke-miterlimit:4;stroke-dasharray:none;stroke-dashoffset:0;stroke-opacity:1;paint-order:fill markers stroke;stop-color:#000000"
         d="M 468.79703,426.30382 C 609.80704,525.51401 752.8464,660.32989 848.40781,789.60383"
         id="path6280-0"
         sodipodi:nodetypes="cc"
         inkscape:label="eyelash right small"
         inkscape:transform-center-x="31.844486"
         inkscape:transform-center-y="-186.90689" />
    </g>
  </g>
</svg>
