<?xml version="1.0" encoding="UTF-8" standalone="no"?>
<!-- Created with Inkscape (http://www.inkscape.org/) -->

<svg
   version="1.1"
   id="svg824"
   width="1706.6667"
   height="1706.6667"
   viewBox="0 0 1706.6667 1706.6667"
   sodipodi:docname="ying_head_empty.svg"
   inkscape:version="1.1 (c68e22c387, 2021-05-23)"
   inkscape:export-filename="D:\Pictures\yingmotes\ying.png"
   inkscape:export-xdpi="72"
   inkscape:export-ydpi="72"
   xmlns:inkscape="http://www.inkscape.org/namespaces/inkscape"
   xmlns:sodipodi="http://sodipodi.sourceforge.net/DTD/sodipodi-0.dtd"
   xmlns="http://www.w3.org/2000/svg"
   xmlns:svg="http://www.w3.org/2000/svg">
  <defs
     id="defs828" />
  <sodipodi:namedview
     id="namedview826"
     pagecolor="#ffffff"
     bordercolor="#666666"
     borderopacity="1.0"
     inkscape:pageshadow="2"
     inkscape:pageopacity="0.0"
     inkscape:pagecheckerboard="0"
     showgrid="false"
     inkscape:zoom="0.28596416"
     inkscape:cx="297.24004"
     inkscape:cy="701.1368"
     inkscape:window-width="1920"
     inkscape:window-height="1001"
     inkscape:window-x="-9"
     inkscape:window-y="-9"
     inkscape:window-maximized="1"
     inkscape:current-layer="g13003">
    <inkscape:grid
       type="xygrid"
       id="grid2997" />
  </sodipodi:namedview>
  <g
     id="layer1"
     inkscape:label="Ying"
     style="display:inline"
     inkscape:groupmode="layer">
    <path
       style="display:none;fill:#123456;stroke:#123456;stroke-width:64;stroke-linecap:round;stroke-linejoin:round;-inkscape-stroke:none;paint-order:fill markers stroke;stop-color:#000000"
       d="m 1298.031,865.09775 c 70.7982,131.45402 185.3824,239.02475 198.7064,401.82835 -29.438,-19.1346 -55.9321,-14.719 -79.4825,13.2471 91.0222,54.7003 58.5139,175.917 81.6903,267.1496 l -99.3531,6.6236 c 66.7588,58.9185 81.773,128.1858 90.5218,198.7063 l -494.50725,2.2079 c -24.3802,-41.4813 23.11455,-208.5632 66.23555,-227.0436 0,0 3.3791,-20.0154 -75.35325,-9.4549 C 1015.23,1271.0896 1172.1837,1096.1858 1298.031,865.09775 Z"
       id="path3091"
       sodipodi:nodetypes="cccccccccc"
       inkscape:label="mane" />
    <path
       style="opacity:1;fill:#ffcb4c;fill-opacity:1;stroke:#ffcb4c;stroke-width:64;stroke-linecap:round;stroke-linejoin:round;stroke-miterlimit:4;stroke-dasharray:none;stroke-dashoffset:0;stroke-opacity:1;paint-order:fill markers stroke;stop-color:#000000"
       d="m 926.15253,1395.0907 -64.7849,239.5079 62.82173,-25.5214 -51.04266,200.2443 459.3839,-15.7054 c 0,0 -127.6066,-94.2326 -149.2016,-184.5389 -21.5949,-90.3062 51.0427,-253.25 51.0427,-253.25 z"
       id="path3340"
       inkscape:label="neck" />
    <g
       id="g12988"
       inkscape:label="head">
      <path
         style="display:inline;fill:none;fill-opacity:1;stroke:#f19020;stroke-width:32;stroke-linecap:round;stroke-linejoin:round;stroke-miterlimit:4;stroke-dasharray:none;stroke-dashoffset:0;stroke-opacity:1;paint-order:fill markers stroke;stop-color:#000000"
         d="m 279.8165,613.67239 c 146.95696,90.16728 298.17327,215.74277 401.65747,338.76616"
         id="path6280-0-6"
         sodipodi:nodetypes="cc"
         inkscape:label="eyelash left small" />
      <path
         style="display:inline;fill:none;fill-opacity:1;stroke:#f19020;stroke-width:32;stroke-linecap:round;stroke-linejoin:round;stroke-miterlimit:4;stroke-dasharray:none;stroke-dashoffset:0;stroke-opacity:1;paint-order:fill markers stroke;stop-color:#000000"
         d="M 201.87715,418.70816 C 451.93334,555.3274 657.57297,729.16778 777.07612,975.19059"
         id="path6280-3"
         sodipodi:nodetypes="cc"
         inkscape:label="eyelash left big" />
      <g
         id="g12997"
         inkscape:label="left eye"
         transform="translate(65.569751,103.03818)">
        <path
           id="path1915-9"
           style="display:inline;fill:#fefefe;stroke:#65471b;stroke-width:64;stroke-linecap:round;stroke-linejoin:round;paint-order:fill markers stroke;stop-color:#000000"
           inkscape:label="lefteye"
           d="m 792.61751,1048.7279 c 10e-6,120.7167 -155.86024,218.577 -276.57698,218.577 -120.71674,0 -160.57699,-55.8603 -160.57698,-176.577 0,-120.71673 97.86025,-260.57698 218.57698,-260.57698 120.71673,0 218.57698,97.86025 218.57698,218.57698 z"
           sodipodi:nodetypes="sssss" />
        <path
           style="opacity:1;fill:#ffffff;fill-opacity:1;stroke:#65471b;stroke-width:48;stroke-linecap:round;stroke-linejoin:round;stroke-miterlimit:4;stroke-dasharray:none;stroke-dashoffset:0;stroke-opacity:1;paint-order:fill markers stroke;stop-color:#000000"
           d="M 498.97372,962.62186 V 1132.6262"
           id="path2372"
           inkscape:label="left pupil" />
      </g>
      <path
         style="opacity:1;fill:#f19020;fill-opacity:1;stroke:#f19020;stroke-width:64;stroke-linecap:round;stroke-miterlimit:4;stroke-dasharray:none;stroke-dashoffset:0;stroke-opacity:1;paint-order:fill markers stroke;stop-color:#000000"
         d="m 904.55211,937.60484 c 0,0 -47.96997,-170.62298 -41.94911,-353.25573 6.62354,-200.91419 83.89823,-417.28333 152.3415,-421.69902 68.4434,-4.4157 178.8358,192.0828 207.5378,331.17724 28.702,139.09445 -4.4157,445.98536 -4.4157,445.98536 z"
         id="path1640"
         inkscape:label="left ear"
         sodipodi:nodetypes="cssscc" />
      <path
         id="path1148"
         style="display:inline;opacity:1;fill:#ffcb4c;stroke:#ffcb4c;stroke-width:64;stroke-linecap:round;stroke-linejoin:round;stroke-miterlimit:4;stroke-dasharray:6.4, 6.4;stroke-dashoffset:0;stroke-opacity:1;paint-order:fill markers stroke;stop-color:#000000"
         inkscape:label="head"
         d="m 1364.6245,1256.5968 c 0,0 -0.1078,-10.8206 -0.9512,-28.418 -0.4217,-8.7987 -1.0259,-19.2912 -1.8945,-30.9726 -0.8686,-11.6814 -1.9997,-24.5525 -3.4727,-38.1055 -1.4729,-13.553 -3.2888,-27.7877 -5.5234,-42.2012 -2.2347,-14.4135 -4.8892,-29.0047 -8.043,-43.2676 -1.5769,-7.1314 -3.279,-14.1817 -5.1152,-21.0859 -1.8362,-6.9042 -3.8068,-13.6623 -5.9219,-20.2129 -2.1151,-6.5506 -4.3733,-12.8923 -6.7871,-18.9629 -2.4138,-6.0705 -4.9828,-11.8698 -7.7148,-17.33397 -2.7321,-5.46415 -5.9346,-10.78574 -9.5391,-15.96094 -3.6045,-5.1752 -7.6114,-10.20474 -11.9492,-15.08399 -4.3379,-4.87924 -9.0074,-9.60926 -13.9395,-14.18554 -4.9321,-4.57628 -10.1264,-8.99932 -15.5136,-13.26563 -5.3873,-4.2663 -10.9666,-8.37489 -16.67,-12.32422 -5.7033,-3.94932 -11.5298,-7.73794 -17.4101,-11.36328 -11.7607,-7.25067 -23.7371,-13.84709 -35.3711,-19.75976 -11.634,-5.91267 -22.9257,-11.14156 -33.3203,-15.66016 -10.3946,-4.5186 -19.8912,-8.32606 -27.9336,-11.39453 -16.085,-6.13693 -26.3535,-9.31836 -26.3535,-9.31836 -106.8314,-15.98813 -232.17466,6.96944 -312.62509,60.01367 -101.26734,66.76968 -136.88727,176.62941 -198.70703,211.95511 -61.81975,35.3255 -225.20029,77.273 -280.39649,83.8965 -55.19621,6.6235 -183.25035,6.6246 -161.17187,123.6406 22.07848,117.016 112.59921,282.6048 377.54101,247.2793 264.94179,-35.3256 313.51517,-44.1575 536.50787,-88.3145 22.8973,-4.5341 53.8481,-18.3195 86.8281,-36.9472 l 213.8711,-11.4278 -92.9258,-75.2558 c 5.3578,-4.8405 10.5999,-9.7184 15.6328,-14.6367 l 142.0762,-2.375 -84.8808,-69.668 c 3.4806,-6.5537 6.4805,-13.0207 8.6269,-19.3066 1.0523,-3.0817 2.0328,-6.6268 3.0469,-9.9766 z" />
      <path
         style="display:none;fill:#123456;stroke:#123456;stroke-width:64;stroke-linecap:round;stroke-linejoin:round;-inkscape-stroke:none;paint-order:fill markers stroke;stop-color:#000000"
         d="M 884.42842,831.46844 C 767.41246,859.06654 626.11017,1003.6806 626.11017,1003.6806 624.44951,920.63496 614.77668,836.86094 738.71044,765.23298 614.01565,757.7762 489.42284,750.11548 330.2585,811.5978 c 0,0 303.22641,-263.62224 490.14233,-280.39675 172.2122,-15.45493 264.94177,37.53343 264.94177,37.53343 -0.1923,-45.68323 -31.4577,-88.25915 -90.52175,-128.0552 0,0 295.85165,97.14532 333.38505,194.29065 37.5334,97.14533 28.702,167.79647 28.702,167.79647 l -243.7525,34.92308 c 0,0 -111.711,-33.81914 -228.72698,-6.22104 z"
         id="path1637"
         sodipodi:nodetypes="zcccsccsccz"
         inkscape:label="top hair" />
      <path
         id="path13483"
         style="display:inline;opacity:1;fill:#ffcb4c;stroke:#ffcb4c;stroke-width:64;stroke-linecap:round;stroke-linejoin:round;stroke-miterlimit:4;stroke-dasharray:6.4, 6.4;stroke-dashoffset:0;stroke-opacity:1;paint-order:fill markers stroke;stop-color:#000000"
         inkscape:label="right ear"
         d="m 1498.4643,162.64951 c -79.4826,0 -239.79,284.87028 -267.1504,370.91992 -24.3601,76.61362 -98.9266,269.49096 -120.1132,324.15039 0,0 10.2685,3.18143 26.3535,9.31836 8.0424,3.06847 17.539,6.87593 27.9336,11.39453 10.3946,4.5186 21.6863,9.74749 33.3203,15.66016 11.634,5.91267 23.6104,12.50909 35.3711,19.75976 5.8803,3.62534 11.7068,7.41396 17.4101,11.36328 5.7034,3.94933 11.2827,8.05792 16.67,12.32422 5.3872,4.26631 10.5815,8.68935 15.5136,13.26563 4.9321,4.57628 9.6016,9.3063 13.9395,14.18554 4.3378,4.87925 8.3447,9.90879 11.9492,15.08399 3.6045,5.1752 6.807,10.49679 9.5391,15.96094 2.732,5.46417 5.301,11.26347 7.7148,17.33397 2.4138,6.0706 4.672,12.4123 6.7871,18.9629 2.1151,6.5506 4.0857,13.3087 5.9219,20.2129 1.8362,6.9042 3.5383,13.9545 5.1152,21.0859 3.1538,14.2629 5.8083,28.8541 8.043,43.2676 2.2346,14.4135 4.0505,28.6482 5.5234,42.2012 1.473,13.553 2.6041,26.4241 3.4727,38.1055 0.8686,11.6814 1.4728,22.1739 1.8945,30.9726 0.8434,17.5974 0.9512,28.418 0.9512,28.418 96.8623,-117.5327 277.3103,-365.004 286.1797,-588.34964 12.1432,-305.78699 -100.7972,-505.59765 -152.3399,-505.59765 z" />
      <g
         id="g13003"
         inkscape:label="face">
        <path
           style="opacity:1;fill:none;fill-opacity:1;stroke:#65471b;stroke-width:64;stroke-linecap:round;stroke-linejoin:round;stroke-miterlimit:4;stroke-dasharray:none;stroke-dashoffset:0;stroke-opacity:1;paint-order:fill markers stroke;stop-color:#000000"
           d="m 149.46799,1304.1077 68.44329,6.6235 -37.53342,39.7413"
           id="path2163"
           inkscape:label="left nostril" />
        <path
           style="opacity:1;fill:none;fill-opacity:1;stroke:#65471b;stroke-width:64;stroke-linecap:round;stroke-linejoin:round;stroke-miterlimit:4;stroke-dasharray:none;stroke-dashoffset:0;stroke-opacity:1;paint-order:fill markers stroke;stop-color:#000000"
           d="m 467.39814,1354.8882 -59.6119,-44.157 121.43166,-17.6628"
           id="path2198"
           inkscape:label="right nostril" />
        <path
           style="opacity:1;fill:#ffffff;fill-opacity:1;stroke:#65471b;stroke-width:64;stroke-linecap:round;stroke-linejoin:round;stroke-miterlimit:4;stroke-dasharray:none;stroke-dashoffset:0;stroke-opacity:1;paint-order:fill markers stroke;stop-color:#000000"
           d="m 288.56243,1633.0771 -90.52178,-183.2514 90.52178,-72.859 103.76887,66.2354 z"
           id="path2202"
           sodipodi:nodetypes="ccccc"
           inkscape:label="toof" />
      </g>
      <g
         id="g12993"
         inkscape:label="right eye"
         transform="translate(65.569751,103.03818)">
        <path
           style="opacity:1;fill:#65471b;fill-opacity:1;stroke:#65471b;stroke-width:64;stroke-linecap:round;stroke-linejoin:round;stroke-miterlimit:4;stroke-dasharray:none;stroke-dashoffset:0;stroke-opacity:1;paint-order:fill markers stroke;stop-color:#000000"
           d="m 661.97569,1226.0485 53.36716,-115.5008 86.53085,168.711 z"
           id="path7852"
           inkscape:label="eyenub"
           sodipodi:nodetypes="cccc" />
        <path
           id="path1915"
           style="opacity:1;fill:#fefefe;stroke:#65471b;stroke-width:64;stroke-linecap:round;stroke-linejoin:round;paint-order:fill markers stroke;stop-color:#000000"
           inkscape:label="righteye"
           d="m 1150.289,1075.2222 c 0,120.7167 -151.8603,218.5769 -272.57702,218.5769 -120.71671,0 -164.57695,-71.8602 -164.57699,-192.5769 -2e-5,-120.71675 97.86024,-244.57702 218.57699,-244.57701 120.71672,-2e-5 218.57702,97.86025 218.57702,218.57701 z"
           sodipodi:nodetypes="sssss" />
        <path
           style="opacity:1;fill:#ffffff;fill-opacity:1;stroke:#65471b;stroke-width:48;stroke-linecap:round;stroke-linejoin:round;stroke-miterlimit:4;stroke-dasharray:none;stroke-dashoffset:0;stroke-opacity:1;paint-order:fill markers stroke;stop-color:#000000"
           d="m 841.19021,982.4925 v 189.8749"
           id="path2350"
           inkscape:label="right pupil" />
      </g>
      <path
         style="opacity:1;fill:none;fill-opacity:1;stroke:#ffcb4c;stroke-width:32;stroke-linecap:round;stroke-linejoin:round;stroke-miterlimit:4;stroke-dasharray:none;stroke-dashoffset:0;stroke-opacity:1;paint-order:fill markers stroke;stop-color:#000000"
         d="M 487.66774,228.13955 C 664.66987,451.44017 786.25845,691.69909 800.38429,964.845"
         id="path6280"
         sodipodi:nodetypes="cc"
         inkscape:label="eyelash right big" />
      <path
         style="display:inline;fill:none;fill-opacity:1;stroke:#ffcb4c;stroke-width:32;stroke-linecap:round;stroke-linejoin:round;stroke-miterlimit:4;stroke-dasharray:none;stroke-dashoffset:0;stroke-opacity:1;paint-order:fill markers stroke;stop-color:#000000"
         d="m 777.13772,399.33099 c 57.33566,162.60107 95.67474,355.38513 98.55015,516.11928"
         id="path6280-0"
         sodipodi:nodetypes="cc"
         inkscape:label="eyelash right small" />
    </g>
    <g
       id="g2960"
       transform="matrix(-0.96657504,0,0,0.96657504,957.35538,24.678781)"
       style="stroke:#ffffff;stroke-width:1.03458">
      <path
         id="path2005"
         style="color:#000000;fill:#000000;stroke:#ffffff;stroke-width:66.2132;stroke-linecap:round;stroke-linejoin:round;stroke-miterlimit:4;stroke-dasharray:none;paint-order:stroke fill markers"
         inkscape:transform-center-x="-1.8345618"
         inkscape:transform-center-y="-303.52524"
         d="m 458.52148,32.140625 c -18.1431,0.117927 -36.03147,8.950948 -47.06479,23.370745 -8.35258,10.747277 -12.92799,24.372624 -12.67994,37.988228 -0.0324,16.011232 -0.0119,32.022662 -0.0176,48.033992 0.007,47.35548 -0.01,94.71149 0.052,142.06662 0.54024,17.59619 9.24739,34.7728 23.20347,45.52388 12.25158,9.58214 28.29818,14.21003 43.76707,12.41659 14.73123,-1.60627 28.79928,-8.81928 38.57963,-19.97232 9.43104,-10.62519 14.98679,-24.65202 15.16919,-38.8759 0.11184,-5.32183 -0.0199,-10.64529 0.0363,-15.96785 0.0104,-58.70175 0.018,-117.40411 -0.0199,-176.105469 -0.45854,-16.480176 -8.06957,-32.602328 -20.4765,-43.454736 -11.06865,-9.738495 -25.79309,-15.260444 -40.5489,-15.02378 z" />
      <path
         id="path2740"
         style="color:#000000;fill:#1a1a1a;stroke:#ffffff;stroke-width:66.2132;stroke-linecap:round;stroke-linejoin:round;stroke-miterlimit:4;stroke-dasharray:none;paint-order:stroke fill markers"
         inkscape:transform-center-x="-215.92199"
         inkscape:transform-center-y="-213.32752"
         d="m 738.72266,156.23242 c -13.47807,0.29905 -26.70732,5.91295 -36.39725,15.26519 -13.45063,13.50084 -26.95856,26.94732 -40.42894,40.42958 -31.81192,31.80836 -63.62465,63.61682 -95.38239,95.47878 -11.51072,12.45063 -16.66312,30.53142 -13.21268,47.15937 2.61705,13.26181 10.34374,25.4784 21.36212,33.34478 10.88932,7.9032 24.78642,11.59603 38.1564,9.92943 9.28918,-1.10599 18.26808,-4.66763 25.80508,-10.20674 0.25867,-0.19532 0.85493,-0.63216 1.24083,-0.94238 3.79946,-2.93417 6.98618,-6.54778 10.42725,-9.8738 31.3331,-31.29291 62.63749,-62.61576 93.94281,-93.93523 12.04425,-12.06531 24.09969,-24.1201 36.11255,-36.21633 10.95817,-12.06341 15.95048,-29.25751 13.1747,-45.31561 -0.25079,-1.50082 -0.59533,-3.03291 -0.95335,-4.41173 -3.72211,-14.52333 -13.69483,-27.38855 -27.0178,-34.33497 -8.20515,-4.36327 -17.53559,-6.59954 -26.82933,-6.37034 z" />
      <path
         id="path2742"
         style="color:#000000;fill:#333333;stroke:#ffffff;stroke-width:66.2132;stroke-linecap:round;stroke-linejoin:round;stroke-miterlimit:4;stroke-dasharray:none;paint-order:stroke fill markers"
         inkscape:transform-center-x="-303.52524"
         inkscape:transform-center-y="1.8345614"
         d="m 853.75,436.10156 c -63.22212,0.0128 -126.44485,-0.0215 -189.66658,0.0738 -17.36057,0.63276 -34.2044,9.84912 -43.98871,24.22288 -3.8572,5.56725 -6.656,11.85096 -8.30565,18.41616 -0.0649,0.30641 -0.28345,1.17472 -0.34804,1.48083 -2.31329,10.26344 -1.58856,21.16415 1.98284,31.05423 3.76502,10.54348 10.72247,19.93833 19.81512,26.48931 9.60881,7.00693 21.47047,10.88292 33.37102,10.79747 6.64306,0.0592 13.28656,-0.0331 19.92984,0.0106 56.93031,-0.005 113.86129,0.0431 170.79117,-0.0593 16.72908,-0.50087 33.02789,-8.97686 42.9998,-22.42731 6.69135,-8.92613 10.68113,-19.86619 11.21021,-31.01573 0.01,-0.44553 0.0603,-1.26569 0.0598,-1.85542 0.20907,-10.86031 -2.87492,-21.73877 -8.64965,-30.92973 -0.20585,-0.30443 -0.61007,-0.96175 -0.91115,-1.39413 -7.47257,-11.15216 -19.06899,-19.4534 -32.04301,-22.90896 -2.70267,-0.73058 -5.46029,-1.2549 -8.24115,-1.57777 -0.69845,-0.0785 -1.69579,-0.16701 -2.51023,-0.23253 -1.82814,-0.13929 -3.66274,-0.16965 -5.49563,-0.14443 z" />
      <path
         id="path2744"
         style="color:#000000;fill:#4d4d4d;stroke:#ffffff;stroke-width:66.2132;stroke-linecap:round;stroke-linejoin:round;stroke-miterlimit:4;stroke-dasharray:none;paint-order:stroke fill markers"
         inkscape:transform-center-x="-213.32752"
         inkscape:transform-center-y="215.92199"
         d="m 603.37109,587.54883 c -17.06411,0.0575 -33.82803,9.16071 -43.08704,23.50784 -8.26379,12.54442 -10.79461,28.76069 -6.46284,43.17499 2.70752,9.33032 8.11395,17.81252 15.26627,24.36764 41.63069,41.65655 83.27441,83.30006 124.94511,124.91659 2.9327,2.87752 5.75988,5.86562 8.76629,8.66596 8.97638,8.02755 20.80031,12.79225 32.84123,13.17668 1.50891,0.0583 3.01973,0.0345 4.52786,-0.0363 0.39101,-0.0193 1.1744,-0.0704 1.71346,-0.11855 2.27796,-0.18417 4.73334,-0.57385 6.84123,-1.03575 1.53134,-0.33971 3.1,-0.76087 4.50077,-1.20264 15.68984,-4.89133 28.72696,-17.65662 33.74141,-33.33252 2.85877,-8.63121 3.38379,-18.01008 1.56836,-26.91601 -0.0777,-0.319 -0.21298,-1.02675 -0.33453,-1.50245 -2.26652,-9.74793 -7.57095,-18.65752 -14.65779,-25.67558 -6.44153,-6.31105 -12.76891,-12.73919 -19.16365,-19.09823 -38.43669,-38.41172 -76.84864,-76.84799 -115.32439,-115.21923 -9.61662,-8.80714 -22.63207,-13.84226 -35.68175,-13.67248 z" />
      <path
         id="path2746"
         style="color:#000000;fill:#666666;stroke:#ffffff;stroke-width:66.2132;stroke-linecap:round;stroke-linejoin:round;stroke-miterlimit:4;stroke-dasharray:none;paint-order:stroke fill markers"
         inkscape:transform-center-x="1.8345581"
         inkscape:transform-center-y="303.52524"
         d="m 453.8457,649.55078 c -9.68078,0.32943 -19.22106,3.57686 -27.15234,9.125 -0.54696,0.39102 -1.34847,0.96576 -1.97313,1.45826 -5.93152,4.56194 -10.742,10.52962 -14.0425,17.23901 -0.21919,0.4608 -0.58915,1.22254 -0.84643,1.8099 -0.6141,1.37332 -1.14905,2.74645 -1.6173,4.0934 -0.86693,2.48954 -1.56719,5.22011 -2.00502,7.70412 -0.79378,4.14585 -0.81551,8.37771 -0.77133,12.58242 4.4e-4,61.8319 -0.001,123.66384 0.0513,185.49569 0.0248,13.70497 6.14324,27.23289 16.25712,36.45314 0.29375,0.25654 0.86594,0.78075 1.27863,1.12457 2.11368,1.80665 4.38128,3.43137 6.76434,4.86371 0.40333,0.23148 1.12101,0.65458 1.65229,0.94393 11.80759,6.4694 26.28138,8.0078 39.11273,3.82628 6.90617,-2.14681 13.4784,-5.97967 18.7135,-10.76435 10.05597,-9.15676 16.12871,-22.55996 16.24619,-36.17336 0.0686,-5.22277 0.003,-10.44667 0.032,-15.67 0.004,-58.59403 0.0383,-117.18851 -0.0323,-175.78226 -0.44051,-16.68315 -9.94158,-32.82327 -24.34311,-41.26813 -3.64372,-2.16628 -7.55866,-3.87604 -11.62734,-5.06719 -0.50881,-0.14857 -1.35453,-0.38209 -1.99957,-0.54096 -1.20341,-0.30521 -2.64584,-0.59501 -3.72113,-0.7813 -3.29276,-0.56068 -6.63889,-0.76773 -9.97657,-0.67188 z" />
      <path
         id="path2748"
         style="color:#000000;fill:#808080;stroke:#ffffff;stroke-width:66.2132;stroke-linecap:round;stroke-linejoin:round;stroke-miterlimit:4;stroke-dasharray:none;paint-order:stroke fill markers"
         inkscape:transform-center-x="215.92199"
         inkscape:transform-center-y="213.32752"
         d="m 307.1582,591.16016 c -12.68011,0.25402 -25.02678,6.14632 -33.49454,15.53554 -44.39885,44.40697 -88.84251,88.76994 -133.15367,133.26403 -10.4122,11.43567 -14.43968,28.36723 -10.07429,43.2314 3.57335,12.62486 12.74808,23.62829 24.73255,29.06749 8.89432,4.17855 19.14715,5.43363 28.76534,3.35961 8.89119,-1.84744 17.22175,-6.36229 23.53986,-12.898 43.46974,-43.43009 87.02776,-86.95888 130.45381,-130.50319 2.72643,-2.78239 5.62151,-5.44266 7.81077,-8.69196 8.34646,-11.80852 10.75922,-27.68683 5.91801,-41.35819 -3.94339,-11.45563 -12.54591,-21.30438 -23.54276,-26.46181 -0.46188,-0.22059 -1.24682,-0.57957 -1.84205,-0.82709 -6.01125,-2.57547 -12.57501,-3.84935 -19.11303,-3.71783 z" />
      <path
         id="path2750"
         style="color:#000000;fill:#b3b3b3;stroke:#ffffff;stroke-width:66.2132;stroke-linecap:round;stroke-linejoin:round;stroke-miterlimit:4;stroke-dasharray:none;paint-order:stroke fill markers"
         inkscape:transform-center-x="303.52524"
         inkscape:transform-center-y="-1.8345585"
         d="m 246.72852,442.77148 c -63.20126,0.0193 -126.4033,-0.0241 -189.604024,0.11014 -15.79404,0.6288 -30.921672,10.13913 -38.257231,24.15452 -5.692055,10.57981 -7.058141,23.44239 -3.48199,34.93466 3.254328,10.86725 10.665857,20.45837 20.482013,26.17994 6.886184,4.09701 14.853094,6.39237 22.875268,6.43732 8.808808,0.12203 17.6194,9.2e-4 26.428928,0.0318 54.945616,-10e-4 109.891646,0.0587 164.836976,-0.0646 15.88918,-0.43634 31.19402,-9.89813 38.62981,-23.95597 2.57073,-4.7492 4.29235,-9.95371 5.08634,-15.29458 0.094,-0.63151 0.21699,-1.58086 0.28696,-2.3411 1.42204,-14.14906 -4.27314,-28.80078 -14.88048,-38.27194 -7.25928,-6.56372 -16.63471,-10.76582 -26.39087,-11.67149 -1.99661,-0.20259 -4.00518,-0.28157 -6.0117,-0.24868 z" />
      <path
         id="path2752"
         style="color:#000000;fill:#cccccc;stroke:#ffffff;stroke-width:66.2132;stroke-linecap:round;stroke-linejoin:round;stroke-miterlimit:4;stroke-dasharray:none;paint-order:stroke fill markers"
         inkscape:transform-center-x="213.32752"
         inkscape:transform-center-y="-215.92199"
         d="m 176.30469,168.12109 c -14.1854,0.28281 -27.97775,8.75328 -34.3642,21.47103 -3.75606,7.26312 -5.18513,15.70756 -4.05377,23.80436 0.0859,0.56378 0.22194,1.45131 0.3676,2.13758 1.49833,7.73394 5.47875,14.87685 10.95673,20.50112 3.0774,3.09702 6.20111,6.14955 9.27562,9.25063 41.60717,41.53907 83.11458,83.18117 124.79838,124.64085 5.70666,5.74425 13.36531,9.38611 21.3248,10.67361 7.36699,1.21502 15.07703,0.29499 21.91311,-2.72684 9.95515,-4.27231 18.09084,-12.74177 21.65226,-23.00755 3.17425,-8.7745 3.16894,-18.68139 -0.20411,-27.39844 -2.26716,-6.03592 -6.02608,-11.47311 -10.76276,-15.83682 C 292.73571,267.23377 248.35999,222.7398 203.8125,178.41797 196.42128,171.6198 186.32543,167.92448 176.30469,168.12109 Z" />
    </g>
  </g>
</svg>
