<?xml version="1.0" encoding="UTF-8" standalone="no"?>
<!-- Created with Inkscape (http://www.inkscape.org/) -->

<svg
   version="1.1"
   id="svg824"
   width="1706.6667"
   height="1706.6667"
   viewBox="0 0 1706.6667 1706.6667"
   sodipodi:docname="ying_hug_dragn.svg"
   inkscape:version="1.1 (c68e22c387, 2021-05-23)"
   inkscape:export-filename="D:\Pictures\yingmotes\ying_smol.png"
   inkscape:export-xdpi="72"
   inkscape:export-ydpi="72"
   xmlns:inkscape="http://www.inkscape.org/namespaces/inkscape"
   xmlns:sodipodi="http://sodipodi.sourceforge.net/DTD/sodipodi-0.dtd"
   xmlns="http://www.w3.org/2000/svg"
   xmlns:svg="http://www.w3.org/2000/svg">
  <defs
     id="defs828" />
  <sodipodi:namedview
     id="namedview826"
     pagecolor="#ffffff"
     bordercolor="#666666"
     borderopacity="1.0"
     inkscape:pageshadow="2"
     inkscape:pageopacity="0.0"
     inkscape:pagecheckerboard="0"
     showgrid="false"
     inkscape:zoom="0.24892936"
     inkscape:cx="666.85584"
     inkscape:cy="925.96549"
     inkscape:window-width="1920"
     inkscape:window-height="1001"
     inkscape:window-x="-9"
     inkscape:window-y="-9"
     inkscape:window-maximized="1"
     inkscape:current-layer="layer1"
     showguides="false" />
  <g
     id="layer1"
     inkscape:label="Ying"
     style="display:inline"
     inkscape:groupmode="layer">
    <path
       style="display:inline;fill:none;fill-opacity:1;stroke:#f19020;stroke-width:64;stroke-linecap:round;stroke-linejoin:round;stroke-opacity:1;paint-order:fill markers stroke;stop-color:#000000"
       d="m 453.5298,1130.8738 67.45045,-43.662 298.86815,-89.18766 119.98644,0.61508"
       id="path14378-2"
       sodipodi:nodetypes="cccc"
       inkscape:transform-center-x="235.9187"
       inkscape:transform-center-y="53.29505" />
    <path
       style="display:inline;fill:none;fill-opacity:1;stroke:#f19020;stroke-width:64;stroke-linecap:round;stroke-linejoin:round;stroke-opacity:1;paint-order:fill markers stroke;stop-color:#000000"
       d="m 1167.6863,1623.7668 90.69,-0.3769 -97.4696,-228.9908 -75.4396,-148.7408 158.4657,1.1562 -83.0261,147.5846"
       id="path10187-8"
       sodipodi:nodetypes="cccccc" />
    <path
       style="fill:none;fill-opacity:1;stroke:#ffcb4c;stroke-width:64;stroke-linecap:round;stroke-linejoin:round;stroke-opacity:1;paint-order:fill markers stroke;stop-color:#000000"
       d="m 1236.3763,1635.3899 119.8249,-2.6077 -119.1254,-257.8315 -123.6929,-111.8705 148.3747,-55.6566 -24.6818,167.5271"
       id="path10187"
       sodipodi:nodetypes="cccccc" />
    <g
       id="g917"
       inkscape:label="body"
       transform="rotate(-19.688676,1424.4754,1193.8212)">
      <path
         style="fill:#ffcb4c;fill-opacity:1;stroke:#ffcb4c;stroke-width:64;stroke-linecap:round;stroke-linejoin:round;stroke-opacity:1;paint-order:fill markers stroke;stop-color:#000000"
         d="m 1012.0887,783.16769 c 0,0 -60.40681,94.90558 -52.94293,170.16477 8.54319,149.05824 104.68283,319.71474 253.59363,304.32174 148.911,-15.3929 169.2085,-58.7996 248.0789,-122.1449 78.8703,-63.3452 190.4577,-91.7962 190.4577,-91.7962 0,0 -122.7302,-12.161 -210.3271,22.4404 -97.2606,38.4187 -121.4277,42.7782 -226.4179,40.5277 -96.1994,-2.062 -156.4649,-57.6828 -163.0288,-176.13512 -6.0449,-109.08758 10.485,-171.33667 10.485,-171.33667"
         id="path2053"
         sodipodi:nodetypes="cczzcsssc" />
      <path
         style="fill:#ffcb4c;fill-opacity:1;stroke:#ffcb4c;stroke-width:64;stroke-linecap:round;stroke-linejoin:round;stroke-opacity:1;paint-order:fill markers stroke;stop-color:#000000"
         d="m 971.08091,865.57618 -24.20203,157.24192 19.59211,-28.90473"
         id="path964"
         sodipodi:nodetypes="ccc"
         inkscape:label="path964" />
      <path
         style="fill:#ffcb4c;fill-opacity:1;stroke:#ffcb4c;stroke-width:64;stroke-linecap:round;stroke-linejoin:round;stroke-opacity:1;paint-order:fill markers stroke;stop-color:#000000"
         d="m 966.47099,1042.4734 26.50699,146.8363 25.35452,-19.6553"
         id="path5564"
         sodipodi:nodetypes="ccc" />
    </g>
    <path
       style="display:none;fill:#234567;fill-opacity:1;stroke:#234567;stroke-width:64;stroke-linecap:round;stroke-linejoin:round;stroke-opacity:1;paint-order:fill markers stroke;stop-color:#000000"
       d="m 1417.4248,1006.2692 c 5.1141,28.8359 18.4502,55.813 69.086,74.3597 55.3385,-36.1387 116.729,-45.8362 178.9706,-51.8154 -42.5893,-39.88095 -91.9344,-69.96089 -158.1523,-75.56248 -34.2732,-0.0166 -65.9821,10.50408 -89.9043,53.01818 z"
       id="path31499"
       sodipodi:nodetypes="ccccc"
       inkscape:label="tail tuft" />
    <g
       id="g47627"
       inkscape:label="dragn"
       style="display:inline;opacity:1">
      <path
         style="fill:#ffba00;fill-opacity:1;stroke:#ffba00;stroke-width:64;stroke-linecap:round;stroke-linejoin:round;stroke-dashoffset:172.8;stroke-opacity:1;paint-order:fill markers stroke;stop-color:#000000"
         d="M 383.79593,1595.9893 C 215.60856,1213.4013 185.62305,1032.7035 373.46876,660.28896 195.22819,548.47503 67.918864,561.42682 55.392022,358.71666 L 468.28662,404.89361 C 350.34037,297.95271 222.70094,199.69101 228.13011,57.884858 385.79581,107.56812 632.97376,169.66246 763.83565,226.52058 c 244.02095,94.274 552.61635,107.11999 510.19415,322.54383 0,0 126.2973,113.64137 243.689,189.71596 54.5205,-45.23523 83.2657,-47.23995 154.9076,-47.50796 18.5052,87.90552 -123.8148,377.82429 -233.3941,419.30949 -122.9551,46.5493 -624.26967,-299.00056 -620.38515,-310.65485 -0.0135,308.86585 124.26597,441.23455 294.04675,674.19405 -238.55708,175.1442 -444.60872,144.8048 -729.09797,121.8682 z"
         id="path42076"
         sodipodi:nodetypes="cccccccccsccc" />
      <path
         style="fill:#ffba00;fill-opacity:1;stroke:#2f2f2f;stroke-width:72;stroke-linecap:round;stroke-linejoin:round;stroke-miterlimit:4;stroke-dasharray:none;stroke-dashoffset:172.8;stroke-opacity:1;paint-order:fill markers stroke;stop-color:#000000"
         d="M 886.01042,551.1691 C 1019.1499,443.69071 1129.8992,427.1457 1135.4216,643.29551"
         id="path47543"
         sodipodi:nodetypes="cc" />
      <ellipse
         style="fill:#2f2f2f;fill-opacity:1;stroke:none;stroke-width:32;stroke-linecap:round;stroke-linejoin:round;stroke-miterlimit:4;stroke-dasharray:none;stroke-dashoffset:172.8;stroke-opacity:1;paint-order:fill markers stroke;stop-color:#000000"
         id="path48003"
         cx="1592.152"
         cy="732.1626"
         rx="25.565329"
         ry="26.275478" />
      <path
         style="fill:none;fill-opacity:1;stroke:#2f2f2f;stroke-width:72;stroke-linecap:round;stroke-linejoin:round;stroke-miterlimit:4;stroke-dasharray:none;stroke-dashoffset:172.8;stroke-opacity:1;paint-order:fill markers stroke;stop-color:#000000"
         d="m 1302.8991,829.97205 27.1946,132.90791 156.2214,-55.91676 28.6983,126.6428 91.0164,-88.83055"
         id="path53871" />
    </g>
    <g
       id="g18131"
       transform="rotate(4.7266561,71.674279,938.88758)">
      <path
         style="fill:none;fill-opacity:1;stroke:#ffcb4c;stroke-width:64;stroke-linecap:round;stroke-linejoin:round;stroke-opacity:1;paint-order:fill markers stroke;stop-color:#000000"
         d="m 501.64051,1141.7712 85.70741,17.1741 296.91459,-86.9979 68.9433,-145.98697"
         id="path14378"
         sodipodi:nodetypes="cccc"
         inkscape:transform-center-x="194.57836"
         inkscape:transform-center-y="113.44343" />
      <path
         style="fill:#ffcb4c;fill-opacity:1;stroke:#ffcb4c;stroke-width:64;stroke-linecap:round;stroke-linejoin:round;stroke-dashoffset:172.8;stroke-opacity:1;paint-order:fill markers stroke;stop-color:#000000"
         d="m 884.26251,1071.9474 95.93524,-82.71094 -26.99194,-63.27603 z"
         id="path2099" />
    </g>
    <g
       id="g81993"
       inkscape:label="hands" />
    <g
       id="g31027"
       inkscape:label="head"
       transform="matrix(0.79915435,-0.14063691,0.14109006,0.80172928,473.30054,531.56195)"
       style="display:inline;stroke-width:1.2304">
      <path
         style="display:inline;fill:none;stroke:#65471b;stroke-width:78.7459;stroke-linecap:round;stroke-linejoin:round;stroke-opacity:1;paint-order:fill markers stroke;stop-color:#000000"
         d="m 219.85067,460.50396 c 49.76762,-91.0151 69.32981,-12.06063 65.92681,18.39941"
         id="path1517-8"
         sodipodi:nodetypes="cc" />
      <path
         style="fill:none;stroke:#65471b;stroke-width:78.7459;stroke-linecap:round;stroke-linejoin:round;stroke-opacity:1;paint-order:fill markers stroke;stop-color:#000000"
         d="m 137.99052,534.29931 21.93043,93.52394"
         id="path1858"
         sodipodi:nodetypes="cc" />
      <path
         style="fill:#f19020;fill-opacity:1;stroke:#f19020;stroke-width:78.7461;stroke-linecap:round;stroke-miterlimit:4;stroke-dasharray:none;stroke-dashoffset:0;stroke-opacity:1;paint-order:fill markers stroke;stop-color:#000000"
         d="m 365.55441,346.23288 c 0,0 33.60872,-50.47194 82.31857,-89.84329 53.58566,-43.31241 126.86466,-72.04043 143.20437,-55.54723 16.33973,16.4932 -10.12317,88.7056 -39.83115,127.19366 -29.70799,38.48807 -116.66469,98.77163 -116.66469,98.77163 z"
         id="path1640"
         inkscape:label="left ear"
         sodipodi:nodetypes="cssscc"
         inkscape:transform-center-x="-22.420557"
         inkscape:transform-center-y="-27.983334" />
      <path
         style="display:none;fill:#123456;fill-opacity:1;stroke:#123456;stroke-width:78.7459;stroke-linecap:round;stroke-linejoin:round;stroke-opacity:1;paint-order:fill markers stroke;stop-color:#000000"
         d="m 613.5679,322.40721 56.81184,427.50911 -58.23213,-69.5945 -34.08711,61.07273 -48.29007,-96.58014 -34.0871,46.86978 -4.26089,-288.32011 z"
         id="path30938"
         inkscape:label="mane" />
      <path
         id="path1148"
         style="display:inline;fill:#ffcb4c;stroke:#ffcb4c;stroke-width:78.7461;stroke-linecap:round;stroke-linejoin:round;stroke-miterlimit:4;stroke-dasharray:7.8746, 7.8746;stroke-dashoffset:0;stroke-opacity:1;paint-order:fill markers stroke;stop-color:#000000"
         inkscape:label="head"
         d="m 539.60091,477.49373 c 0,0 -0.0366,-3.70164 -0.3225,-9.72156 -0.14297,-3.00997 -0.34782,-6.59936 -0.64231,-10.59548 -0.29449,-3.99611 -0.67797,-8.3992 -1.17738,-13.03557 -0.49937,-4.63637 -1.11503,-9.50595 -1.87265,-14.43669 -0.75765,-4.93072 -1.65763,-9.92227 -2.7269,-14.80147 -0.53463,-2.4396 -1.11171,-4.85146 -1.73425,-7.21333 -0.62254,-2.36186 -1.29066,-4.67376 -2.00776,-6.91466 -0.7171,-2.24089 -1.48272,-4.41036 -2.30109,-6.48705 -0.81838,-2.07668 -1.68937,-4.06057 -2.61562,-5.92981 -0.92629,-1.86924 -2.01207,-3.68971 -3.23414,-5.46011 -1.22206,-1.77039 -2.58056,-3.49095 -4.05125,-5.1601 -1.47072,-1.66915 -3.05386,-3.28725 -4.72604,-4.85276 -1.67217,-1.56551 -3.43325,-3.07859 -5.25972,-4.53806 -1.82651,-1.45947 -3.71811,-2.86498 -5.65179,-4.21602 -1.93364,-1.35103 -3.90906,-2.64708 -5.90271,-3.88728 -3.98734,-2.4804 -8.04781,-4.73698 -11.9922,-6.75965 -3.94438,-2.02268 -7.77272,-3.81144 -11.2969,-5.35722 -3.52418,-1.54577 -6.7439,-2.84827 -9.47059,-3.89797 -5.45345,-2.09939 -8.93488,-3.18773 -8.93488,-3.18773 -36.22004,-5.46941 -78.71636,2.38418 -105.99223,20.53018 -34.33362,22.84136 -46.41019,60.42348 -67.36953,72.50809 -20.95933,12.08456 -76.35178,26.43446 -95.06548,28.7003 -18.71369,2.26585 -62.1291,2.26622 -54.64363,42.29643 7.48548,40.03021 38.17558,96.67678 128.00132,84.59222 89.82572,-12.0846 106.29402,-15.10592 181.89733,-30.21167 7.76309,-1.55108 18.25663,-6.26695 29.43815,-12.63933 l 72.51075,-3.90936 -31.50552,-25.74439 c 1.81651,-1.65589 3.59379,-3.32458 5.30014,-5.00709 l 48.16944,-0.81247 -28.77794,-23.83285 c 1.18006,-2.24196 2.19714,-4.45427 2.92486,-6.60463 0.35677,-1.05422 0.6892,-2.26697 1.03302,-3.41291 z" />
      <path
         style="display:none;fill:#123456;fill-opacity:1;stroke:#123456;stroke-width:78.7459;stroke-linecap:round;stroke-linejoin:round;stroke-opacity:1;paint-order:fill markers stroke;stop-color:#000000"
         d="m 328.26316,338.58459 c -38.92591,-28.12127 -95.27498,-32.28568 -164.4847,-18.76671 53.19265,-54.19875 122.01662,-91.20303 213.05736,-103.76887 -8.50024,-22.36759 -50.66592,-20.68843 -83.89823,-25.39026 71.84967,-34.61604 149.12201,-28.5621 228.5123,-6.62354 11.48715,33.4857 35.33869,66.9714 -33.11772,100.4571 -56.18757,-3.20348 -111.36025,1.20466 -160.06901,54.09228 z"
         id="path30246"
         sodipodi:nodetypes="ccccccc"
         inkscape:label="top hair" />
      <path
         id="path13483"
         style="display:inline;fill:#ffcb4c;stroke:#ffcb4c;stroke-width:78.7461;stroke-linecap:round;stroke-linejoin:round;stroke-miterlimit:4;stroke-dasharray:7.8746, 7.8746;stroke-dashoffset:0;stroke-opacity:1;paint-order:fill markers stroke;stop-color:#000000"
         inkscape:label="right ear"
         d="m 751.07502,307.40586 c -16.80524,-20.99805 -127.12545,-2.5755 -155.99601,8.55383 -25.70469,9.90893 -93.21626,31.35742 -112.36003,37.42111 0,0 1.31758,3.39149 3.07205,8.95013 0.87721,2.77929 1.86362,6.10041 2.84913,9.81048 0.98549,3.71008 1.97011,7.80868 2.84365,12.14359 0.87355,4.33491 1.63605,8.90615 2.1774,13.55997 0.27068,2.3269 0.48617,4.67442 0.6325,7.02367 0.14635,2.3493 0.22373,4.69977 0.2182,7.03316 -0.006,2.33338 -0.0939,4.64923 -0.27886,6.9285 -0.18492,2.27928 -0.46662,4.52196 -0.85847,6.70889 -0.39181,2.18691 -0.89401,4.31845 -1.52032,6.37475 -0.62631,2.05632 -1.37688,4.03766 -2.26516,5.92514 -0.88831,1.88745 -1.901,3.80334 -3.01925,5.73611 -1.11828,1.93275 -2.34221,3.88226 -3.65242,5.83852 -1.31021,1.95625 -2.70665,3.91861 -4.17069,5.87661 -1.46405,1.95802 -2.99565,3.91178 -4.57549,5.84976 -3.15965,3.87597 -6.513,7.6901 -9.90739,11.35538 -3.39443,3.66528 -6.82943,7.18179 -10.15405,10.46226 -3.3246,3.28049 -6.53855,6.32518 -9.48882,9.04672 -2.95028,2.72155 -5.63749,5.1196 -7.90888,7.10809 -4.54276,3.97699 -7.42295,6.31389 -7.42295,6.31389 52.01195,0.51549 156.55702,-4.60766 218.35218,-49.91229 84.60501,-62.02749 114.33151,-134.49149 103.43368,-148.10827 z"
         inkscape:transform-center-x="-80.317077"
         inkscape:transform-center-y="-18.729085" />
      <path
         style="fill:none;stroke:#65471b;stroke-width:78.7459;stroke-linecap:round;stroke-linejoin:round;stroke-opacity:1;paint-order:fill markers stroke;stop-color:#000000"
         d="m 338.76781,499.00929 c 34.62155,-120.20916 126.3071,-70.60243 134.39974,-15.20324"
         id="path1517"
         sodipodi:nodetypes="cc" />
    </g>
  </g>
</svg>
