<?xml version="1.0" encoding="UTF-8" standalone="no"?>
<!-- Created with Inkscape (http://www.inkscape.org/) -->

<svg
   version="1.1"
   id="svg824"
   width="1706.6667"
   height="1706.6667"
   viewBox="0 0 1706.6667 1706.6667"
   sodipodi:docname="ying_rubbish.svg"
   inkscape:version="1.3.2 (091e20e, 2023-11-25, custom)"
   inkscape:export-filename="D:\Pictures\yingmotes\ying_smol.png"
   inkscape:export-xdpi="72"
   inkscape:export-ydpi="72"
   xmlns:inkscape="http://www.inkscape.org/namespaces/inkscape"
   xmlns:sodipodi="http://sodipodi.sourceforge.net/DTD/sodipodi-0.dtd"
   xmlns="http://www.w3.org/2000/svg"
   xmlns:svg="http://www.w3.org/2000/svg">
  <defs
     id="defs828" />
  <sodipodi:namedview
     id="namedview826"
     pagecolor="#ffffff"
     bordercolor="#666666"
     borderopacity="1.0"
     inkscape:pageshadow="2"
     inkscape:pageopacity="0.0"
     inkscape:pagecheckerboard="0"
     showgrid="false"
     inkscape:zoom="0.39446457"
     inkscape:cx="684.47212"
     inkscape:cy="792.2131"
     inkscape:window-width="1920"
     inkscape:window-height="1001"
     inkscape:window-x="-9"
     inkscape:window-y="-9"
     inkscape:window-maximized="1"
     inkscape:current-layer="layer2"
     inkscape:showpageshadow="2"
     inkscape:deskcolor="#d1d1d1" />
  <g
     id="layer1"
     inkscape:label="Ying"
     style="display:inline"
     inkscape:groupmode="layer">
    <path
       style="fill:#ffcb4c;fill-opacity:1;stroke:#ffcb4c;stroke-width:64;stroke-linecap:round;stroke-linejoin:round;stroke-opacity:1;paint-order:fill markers stroke;stop-color:#000000"
       d="m 533.97112,1048.5709 c 0,0 -16.42305,137.347 32.01458,216.6281 89.00886,160.3637 286.7804,297.7415 443.8722,201.0063 157.0917,-96.7351 157.4966,-145.8102 229.9294,-317.2128 72.4329,-171.40257 -6.4047,-460.98537 -6.4047,-460.98537 0,0 -11.5074,211.95382 -49.7724,327.54237 -40.4344,122.1417 -134.5614,228.9375 -252.31028,282.6419 -107.88992,49.2078 -204.46457,19.9184 -274.94739,-107.6386 -64.91049,-117.4724 -79.7718,-195.19978 -79.7718,-195.19978"
       id="path2053"
       sodipodi:nodetypes="cczzcsssc" />
    <g
       id="g31027"
       inkscape:label="head"
       transform="matrix(1.3359638,0.53706068,-0.53483978,1.3395019,284.33084,-102.08234)"
       style="display:inline;stroke-width:0.693915">
      <path
         style="display:inline;fill:none;stroke:#65471b;stroke-width:44.4106;stroke-linecap:round;stroke-linejoin:round;stroke-opacity:1;paint-order:fill markers stroke;stop-color:#000000"
         d="m 278.04257,513.47886 c -3.8299,-44.8745 -27.01051,-128.59988 34.88507,-138.43279 61.89558,-9.83291 58.17034,65.86723 68.25052,127.22887"
         id="path952-4"
         sodipodi:nodetypes="czc" />
      <path
         style="fill:none;stroke:#65471b;stroke-width:44.4106;stroke-linecap:round;stroke-linejoin:round;stroke-opacity:1;paint-order:fill markers stroke;stop-color:#000000"
         d="m 137.99052,534.29931 21.93043,93.52394"
         id="path1858"
         sodipodi:nodetypes="cc" />
      <path
         style="fill:#f19020;fill-opacity:1;stroke:#f19020;stroke-width:44.4107;stroke-linecap:round;stroke-miterlimit:4;stroke-dasharray:none;stroke-dashoffset:0;stroke-opacity:1;paint-order:fill markers stroke;stop-color:#000000"
         d="m 383.61822,368.36921 c 0,0 -16.26371,-58.36871 -14.2224,-120.84588 2.24564,-68.73109 28.44481,-142.74919 51.64979,-144.25976 23.20499,-1.51058 60.63237,65.70995 70.36348,113.29301 9.73111,47.58307 -1.4971,152.56792 -1.4971,152.56792 z"
         id="path1640"
         inkscape:label="left ear"
         sodipodi:nodetypes="cssscc" />
      <path
         style="display:none;fill:#123456;fill-opacity:1;stroke:#123456;stroke-width:44.4106;stroke-linecap:round;stroke-linejoin:round;stroke-opacity:1;paint-order:fill markers stroke;stop-color:#000000"
         d="M 586.46546,305.39841 766.7314,697.03447 690.534,647.65922 675.91998,715.99619 601.28307,637.92843 582.48545,692.70018 493.48269,418.57675 Z"
         id="path30938"
         inkscape:label="mane"
         inkscape:transform-center-x="-20.068896"
         inkscape:transform-center-y="201.8778" />
      <path
         id="path1148"
         style="display:inline;fill:#ffcb4c;stroke:#ffcb4c;stroke-width:44.4107;stroke-linecap:round;stroke-linejoin:round;stroke-miterlimit:4;stroke-dasharray:4.44107, 4.44107;stroke-dashoffset:0;stroke-opacity:1;paint-order:fill markers stroke;stop-color:#000000"
         inkscape:label="head"
         d="m 539.60091,477.49373 c 0,0 -0.0366,-3.70164 -0.3225,-9.72156 -0.14297,-3.00997 -0.34782,-6.59936 -0.64231,-10.59548 -0.29449,-3.99611 -0.67797,-8.3992 -1.17738,-13.03557 -0.49937,-4.63637 -1.11503,-9.50595 -1.87265,-14.43669 -0.75765,-4.93072 -1.65763,-9.92227 -2.7269,-14.80147 -0.53463,-2.4396 -1.11171,-4.85146 -1.73425,-7.21333 -0.62254,-2.36186 -1.29066,-4.67376 -2.00776,-6.91466 -0.7171,-2.24089 -1.48272,-4.41036 -2.30109,-6.48705 -0.81838,-2.07668 -1.68937,-4.06057 -2.61562,-5.92981 -0.92629,-1.86924 -2.01207,-3.68971 -3.23414,-5.46011 -1.22206,-1.77039 -2.58056,-3.49095 -4.05125,-5.1601 -1.47072,-1.66915 -3.05386,-3.28725 -4.72604,-4.85276 -1.67217,-1.56551 -3.43325,-3.07859 -5.25972,-4.53806 -1.82651,-1.45947 -3.71811,-2.86498 -5.65179,-4.21602 -1.93364,-1.35103 -3.90906,-2.64708 -5.90271,-3.88728 -3.98734,-2.4804 -8.04781,-4.73698 -11.9922,-6.75965 -3.94438,-2.02268 -7.77272,-3.81144 -11.2969,-5.35722 -3.52418,-1.54577 -6.7439,-2.84827 -9.47059,-3.89797 -5.45345,-2.09939 -8.93488,-3.18773 -8.93488,-3.18773 -36.22004,-5.46941 -78.71636,2.38418 -105.99223,20.53018 -34.33362,22.84136 -46.41019,60.42348 -67.36953,72.50809 -20.95933,12.08456 -76.35178,26.43446 -95.06548,28.7003 -18.71369,2.26585 -62.1291,2.26622 -54.64363,42.29643 7.48548,40.03021 38.17558,96.67678 128.00132,84.59222 89.82572,-12.0846 106.29402,-15.10592 181.89733,-30.21167 7.76309,-1.55108 18.25663,-6.26695 29.43815,-12.63933 l 72.51075,-3.90936 -31.50552,-25.74439 c 1.81651,-1.65589 3.59379,-3.32458 5.30014,-5.00709 l 48.16944,-0.81247 -28.77794,-23.83285 c 1.18006,-2.24196 2.19714,-4.45427 2.92486,-6.60463 0.35677,-1.05422 0.6892,-2.26697 1.03302,-3.41291 z" />
      <path
         style="display:none;fill:#123456;fill-opacity:1;stroke:#123456;stroke-width:44.4106;stroke-linecap:round;stroke-linejoin:round;stroke-opacity:1;paint-order:fill markers stroke;stop-color:#000000"
         d="m 326.76156,347.08986 c -38.92591,-28.12127 -95.27498,-32.28568 -164.4847,-18.76671 53.19265,-54.19875 122.01662,-91.20303 213.05736,-103.76887 -8.50024,-22.36759 -50.66592,-20.68843 -83.89823,-25.39026 71.84967,-34.61604 149.12201,-28.5621 228.5123,-6.62354 11.48715,33.4857 35.33869,66.9714 -33.11772,100.4571 -56.18757,-3.20348 -111.36025,1.20466 -160.06901,54.09228 z"
         id="path30246"
         sodipodi:nodetypes="ccccccc"
         inkscape:label="top hair" />
      <path
         id="path13483"
         style="display:inline;fill:#ffcb4c;stroke:#ffcb4c;stroke-width:44.4107;stroke-linecap:round;stroke-linejoin:round;stroke-miterlimit:4;stroke-dasharray:4.44107, 4.44107;stroke-dashoffset:0;stroke-opacity:1;paint-order:fill markers stroke;stop-color:#000000"
         inkscape:label="right ear"
         d="m 584.97788,103.26337 c -26.94774,0 -81.29827,97.45178 -90.57453,126.88865 -8.25904,26.20889 -33.54002,92.19064 -40.72312,110.88919 0,0 3.48143,1.08834 8.93488,3.18773 2.72669,1.0497 5.94641,2.3522 9.47059,3.89797 3.52418,1.54578 7.35252,3.33454 11.2969,5.35722 3.94439,2.02267 8.00486,4.27925 11.9922,6.75965 1.99365,1.2402 3.96907,2.53625 5.90271,3.88728 1.93368,1.35104 3.82528,2.75655 5.65179,4.21602 1.82647,1.45947 3.58755,2.97255 5.25972,4.53806 1.67218,1.56551 3.25532,3.18361 4.72604,4.85276 1.47069,1.66915 2.82919,3.38971 4.05125,5.1601 1.22207,1.7704 2.30785,3.59087 3.23414,5.46011 0.92625,1.86924 1.79724,3.85313 2.61562,5.92981 0.81837,2.07669 1.58399,4.24616 2.30109,6.48705 0.7171,2.2409 1.38522,4.5528 2.00776,6.91466 0.62254,2.36187 1.19962,4.77373 1.73425,7.21333 1.06927,4.8792 1.96925,9.87075 2.7269,14.80147 0.75762,4.93074 1.37328,9.80032 1.87265,14.43669 0.49941,4.63637 0.88289,9.03946 1.17738,13.03557 0.29449,3.99612 0.49934,7.58551 0.64231,10.59548 0.28595,6.01992 0.3225,9.72156 0.3225,9.72156 32.84014,-40.20697 94.01914,-124.86486 97.02621,-201.26956 4.11703,-104.60722 -34.17423,-172.9608 -51.64924,-172.9608 z" />
      <path
         style="fill:none;stroke:#65471b;stroke-width:44.4106;stroke-linecap:round;stroke-linejoin:round;stroke-opacity:1;paint-order:fill markers stroke;stop-color:#000000"
         d="m 372.08399,511.19057 c -3.8299,-44.8745 -27.01051,-128.59988 34.88507,-138.43279 61.89558,-9.83291 58.17034,65.86723 68.25052,127.22887"
         id="path952"
         sodipodi:nodetypes="czc" />
    </g>
    <path
       style="display:none;fill:#234567;fill-opacity:1;stroke:#234567;stroke-width:64;stroke-linecap:round;stroke-linejoin:round;stroke-opacity:1;paint-order:fill markers stroke;stop-color:#000000"
       d="m 1292.3694,944.65599 c -41.412,12.28649 -85.762,12.51521 -143.4414,-41.9557 11.4134,-96.74307 -16.0398,-184.0152 -48.9583,-269.95561 80.5615,29.79576 152.6167,74.95744 203.4274,158.49589 22.494,45.13998 29.3989,93.85315 -11.0277,153.41542 z"
       id="path31499"
       sodipodi:nodetypes="ccccc"
       inkscape:label="tail tuft" />
  </g>
  <g
     inkscape:groupmode="layer"
     id="layer2"
     inkscape:label="rubbish">
    <path
       style="fill:#0066ff;fill-opacity:1;stroke:#0044aa;stroke-width:64;stroke-linecap:round;stroke-linejoin:round;stroke-dasharray:none;stroke-opacity:1;paint-order:fill markers stroke"
       d="M 223.42342,891.89189 V 994.5946 h 79.27928 l 72.07208,963.964 H 1401.8018 l 27.027,-972.97301 100.4334,-126.13302 -117.6124,23.61197 z"
       id="path5" />
    <g
       id="g3"
       transform="rotate(39.283021,572.57503,320.49126)"
       inkscape:label="lid"
       inkscape:transform-center-x="467.47509"
       inkscape:transform-center-y="-376.62528">
      <path
         id="path3"
         style="fill:#0066ff;fill-opacity:1;stroke:#0044aa;stroke-width:64;stroke-linecap:round;stroke-linejoin:round;stroke-dasharray:none;stroke-opacity:1;paint-order:fill markers stroke"
         d="M 861.26172,43.244141 817.99219,108.7793 414.41406,108.10742 344.14453,192.79297 H 1624.7559 l -127.459,-82.88281 -55.8574,-0.0937 L 1400,43.244141 Z"
         sodipodi:nodetypes="ccccccccc" />
      <path
         style="fill:none;stroke:#0044aa;stroke-width:64;stroke-linecap:round;stroke-linejoin:round;stroke-dasharray:none;paint-order:fill markers stroke"
         d="m 492.06723,99.099098 37.83783,-100.9009 183.78379,3.603604 19.81982,95.495496"
         id="path2" />
      <circle
         style="fill:#000000;fill-opacity:1;stroke:#0044aa;stroke-width:64;stroke-linecap:round;stroke-linejoin:round;stroke-dasharray:none;stroke-opacity:1;paint-order:fill markers stroke"
         id="path4"
         cx="1517.3154"
         cy="253.10585"
         r="61.182819"
         transform="translate(89.628681,-82.458387)" />
    </g>
    <path
       style="fill:#5aa02c;fill-opacity:1;stroke:#0044aa;stroke-width:64;stroke-linecap:round;stroke-linejoin:round;stroke-dasharray:none;stroke-opacity:1;paint-order:fill markers stroke"
       d="m 302.7027,994.5946 1126.1261,-9.00901"
       id="path6" />
    <path
       style="fill:#5aa02c;fill-opacity:1;stroke:#0044aa;stroke-width:64;stroke-linecap:round;stroke-linejoin:round;stroke-dasharray:none;stroke-opacity:1;paint-order:fill markers stroke"
       d="m 223.42342,994.5946 88.29502,120.5855 -9.01574,-120.5855 z"
       id="path7" />
    <path
       style="fill:#5aa02c;fill-opacity:1;stroke:#0044aa;stroke-width:64;stroke-linecap:round;stroke-linejoin:round;stroke-dasharray:none;stroke-opacity:1;paint-order:fill markers stroke"
       d="M 576.58073,995.35302 V 1100.9009"
       id="path8" />
    <path
       style="fill:#5aa02c;fill-opacity:1;stroke:#0044aa;stroke-width:64;stroke-linecap:round;stroke-linejoin:round;stroke-dasharray:none;stroke-opacity:1;paint-order:fill markers stroke"
       d="m 865.76575,990.0901 v 109.009"
       id="path9" />
    <path
       style="fill:#5aa02c;fill-opacity:1;stroke:#0044aa;stroke-width:64;stroke-linecap:round;stroke-linejoin:round;stroke-dasharray:none;stroke-opacity:1;paint-order:fill markers stroke"
       d="M 1141.9883,987.27231 V 1099.0991"
       id="path10" />
    <g
       id="g22"
       style="display:inline;fill:#ffffff;stroke-width:0.951739;opacity:0.76457399"
       transform="matrix(1.0507081,0,0,1.0507081,-1961.6754,617.16673)">
      <path
         id="path11"
         style="fill:#ffffff;fill-opacity:1;stroke:none;stroke-width:60.9113;stroke-linecap:round;stroke-linejoin:round;stroke-dasharray:none;stroke-opacity:1;paint-order:fill markers stroke"
         d="m 2464.0449,882.90234 46.25,207.69926 h 106.252 l 46.2519,-207.69926 z m 20.0137,20.91407 h 158.7266 l -36.9375,165.86909 h -84.8536 z" />
      <path
         style="fill:#ffffff;fill-opacity:1;stroke:none;stroke-width:60.9113;stroke-linecap:round;stroke-linejoin:round;stroke-dasharray:none;stroke-opacity:1;paint-order:fill markers stroke"
         d="m 2518.8549,858.28972 45.045,-30.63063 16.2163,-32.43243 34.2342,23.42342 -32.4324,52.25226 z"
         id="path12" />
      <path
         style="fill:#ffffff;fill-opacity:1;stroke:none;stroke-width:60.9113;stroke-linecap:round;stroke-linejoin:round;stroke-dasharray:none;stroke-opacity:1;paint-order:fill markers stroke"
         d="m 2747.5402,1094.9784 -1.2741,-124.8585 -21.6591,-112.11783 -108.9489,14.81244 124.2377,-39.0197 46.9774,-3.8222 15.9486,98.83476 120.8411,-34.7312 -110.6485,74.88059 3.1623,124.74764 -36.2832,-120.27209 z"
         id="path13"
         sodipodi:nodetypes="cccccccccccc" />
      <path
         id="path16"
         style="fill:#ffffff;fill-opacity:1;stroke:none;stroke-width:60.9113;stroke-linecap:round;stroke-linejoin:round;stroke-dasharray:none;stroke-opacity:1;paint-order:fill markers stroke"
         d="m 2809.2062,695.02933 -35.8553,86.07052 86.1533,-83.01709 -49.1001,102.62798 1.3336,23.03209 -117.7223,-13.28484 -19.9771,22.73438 -11.0509,-41.52112 73.0426,-6.9963 z" />
      <path
         style="fill:#b3ff80;fill-opacity:1;stroke:none;stroke-width:60.9113;stroke-linecap:round;stroke-linejoin:round;stroke-dasharray:none;stroke-opacity:1;paint-order:fill markers stroke"
         d="m 2541.3774,842.9744 9.8959,-29.53289 20.7348,-1.99864 4.1095,26.84293 z"
         id="path17" />
      <rect
         style="fill:#ffffff;fill-opacity:1;stroke:none;stroke-width:60.9113;stroke-linecap:round;stroke-linejoin:round;stroke-dasharray:none;stroke-opacity:1;paint-order:fill markers stroke"
         id="rect18"
         width="166.91621"
         height="11.399317"
         x="2478.6943"
         y="923.84979" />
      <rect
         style="fill:#ffffff;fill-opacity:1;stroke:none;stroke-width:60.9113;stroke-linecap:round;stroke-linejoin:round;stroke-dasharray:none;stroke-opacity:1;paint-order:fill markers stroke"
         id="rect19"
         width="148.53687"
         height="11.399317"
         x="2489.4685"
         y="968.84747" />
      <rect
         style="fill:#ffffff;fill-opacity:1;stroke:none;stroke-width:60.9113;stroke-linecap:round;stroke-linejoin:round;stroke-dasharray:none;stroke-opacity:1;paint-order:fill markers stroke"
         id="rect20"
         width="119.38348"
         height="11.399317"
         x="2504.011"
         y="1014.7103" />
      <path
         style="color:#000000;fill:#ffffff;stroke-width:0.951739;stroke-linecap:round;stroke-linejoin:round;-inkscape-stroke:none;paint-order:fill markers stroke"
         d="m 2520.2344,898.88477 a 5,5 0 0 0 -4.1074,5.75585 l 27.7109,165.86918 a 5,5 0 0 0 5.7559,4.1074 5,5 0 0 0 4.1074,-5.7559 l -27.711,-165.86911 a 5,5 0 0 0 -5.7558,-4.10742 z"
         id="path24" />
      <path
         style="color:#000000;fill:#ffffff;stroke-width:0.951739;stroke-linecap:round;stroke-linejoin:round;-inkscape-stroke:none;paint-order:fill markers stroke"
         d="m 2606.9492,898.38086 a 5,5 0 0 0 -5.7558,4.10742 l -27.711,165.86912 a 5,5 0 0 0 4.1094,5.7559 5,5 0 0 0 5.7539,-4.1074 l 27.7109,-165.86918 a 5,5 0 0 0 -4.1074,-5.75586 z"
         id="path26" />
      <circle
         style="fill:none;fill-opacity:1;stroke:#ffffff;stroke-width:32;stroke-linecap:round;stroke-linejoin:round;stroke-dasharray:none;stroke-opacity:1;paint-order:fill markers stroke"
         id="path27"
         cx="896.37982"
         cy="1578.7606"
         r="316.12503"
         transform="matrix(0.95173912,0,0,0.95173912,1841.6694,-582.55625)" />
    </g>
  </g>
</svg>
