<?xml version="1.0" encoding="UTF-8" standalone="no"?>
<!-- Created with Inkscape (http://www.inkscape.org/) -->

<svg
   version="1.1"
   id="svg824"
   width="1706.6667"
   height="1706.6667"
   viewBox="0 0 1706.6667 1706.6667"
   sodipodi:docname="ying_upside_down_blush.svg"
   inkscape:version="1.3.2 (091e20e, 2023-11-25, custom)"
   inkscape:export-filename="D:\Pictures\yingmotes\ying.png"
   inkscape:export-xdpi="72"
   inkscape:export-ydpi="72"
   xmlns:inkscape="http://www.inkscape.org/namespaces/inkscape"
   xmlns:sodipodi="http://sodipodi.sourceforge.net/DTD/sodipodi-0.dtd"
   xmlns:xlink="http://www.w3.org/1999/xlink"
   xmlns="http://www.w3.org/2000/svg"
   xmlns:svg="http://www.w3.org/2000/svg">
  <defs
     id="defs828">
    <linearGradient
       id="linearGradient5"
       inkscape:collect="always">
      <stop
         style="stop-color:#ff4c4c;stop-opacity:1;"
         offset="0"
         id="stop5" />
      <stop
         style="stop-color:#ff4c4c;stop-opacity:0;"
         offset="1"
         id="stop6" />
    </linearGradient>
    <radialGradient
       inkscape:collect="always"
       xlink:href="#linearGradient5"
       id="radialGradient6"
       cx="1207.2258"
       cy="574.02728"
       fx="1207.2258"
       fy="574.02728"
       r="779.97301"
       gradientTransform="matrix(-0.30492138,0.61377087,-0.95669707,-0.47529929,1771.6172,-181.72365)"
       gradientUnits="userSpaceOnUse" />
  </defs>
  <sodipodi:namedview
     id="namedview826"
     pagecolor="#ffffff"
     bordercolor="#666666"
     borderopacity="1.0"
     inkscape:pageshadow="2"
     inkscape:pageopacity="0.0"
     inkscape:pagecheckerboard="0"
     showgrid="false"
     inkscape:zoom="0.1395818"
     inkscape:cx="530.15509"
     inkscape:cy="891.95011"
     inkscape:window-width="1920"
     inkscape:window-height="1001"
     inkscape:window-x="-9"
     inkscape:window-y="-9"
     inkscape:window-maximized="1"
     inkscape:current-layer="g12988"
     inkscape:showpageshadow="2"
     inkscape:deskcolor="#d1d1d1" />
  <g
     id="layer1"
     inkscape:label="Ying"
     style="display:inline"
     inkscape:groupmode="layer">
    <path
       style="display:none;opacity:1;fill:#123456;fill-opacity:1;stroke:#123456;stroke-width:48;stroke-linecap:round;stroke-linejoin:round;stroke-opacity:1;paint-order:stroke fill markers;stop-color:#000000"
       d="m 1236.4302,370.40485 c 133.3153,79.64609 298.57,112.83475 346.6109,316.51635 -90.8554,84.30397 -55.1426,168.60793 -62.4473,252.9119 147.0891,217.7983 90.8502,476.6602 124.8947,702.5331 -72.49,-84.2653 -140.3241,1.0786 -261.4364,-6.7651 -59.0159,-3.8221 -138.4527,-60.0251 -183.2369,-55.1798 -106.1168,11.4809 -101.9324,61.3331 -120.4755,80.6791 -175.4039,-422.4796 144.6511,-858.38213 156.0905,-1290.69555 z"
       id="path4238"
       inkscape:label="mane"
       sodipodi:nodetypes="ccccsscc" />
    <path
       style="display:inline;opacity:1;fill:#ffcb4c;fill-opacity:1;stroke:#ffcb4c;stroke-width:64;stroke-linecap:round;stroke-linejoin:round;stroke-miterlimit:4;stroke-dasharray:none;stroke-dashoffset:0;stroke-opacity:1;paint-order:fill markers stroke;stop-color:#000000"
       d="m 854.33804,286.40165 -64.7849,-239.507897 62.82173,25.5214 -51.04266,-200.244303 459.38379,15.7054 c 0,0 -127.6066,94.232603 -149.2016,184.538903 -21.5949,90.306197 51.0427,253.249997 51.0427,253.249997 z"
       id="path3340"
       inkscape:label="neck" />
    <g
       id="g12988"
       inkscape:label="head">
      <path
         style="display:inline;fill:none;fill-opacity:1;stroke:#f19020;stroke-width:32;stroke-linecap:round;stroke-linejoin:round;stroke-miterlimit:4;stroke-dasharray:none;stroke-dashoffset:0;stroke-opacity:1;paint-order:fill markers stroke;stop-color:#000000"
         d="M 360.1487,1228.3124 C 462.80565,1089.7915 556.19188,916.83313 606.25175,764.06619"
         id="path6280-0-6"
         sodipodi:nodetypes="cc"
         inkscape:label="eyelash left small"
         inkscape:transform-center-x="100.48319"
         inkscape:transform-center-y="185.17877" />
      <path
         style="display:inline;fill:none;fill-opacity:1;stroke:#f19020;stroke-width:32;stroke-linecap:round;stroke-linejoin:round;stroke-miterlimit:4;stroke-dasharray:none;stroke-dashoffset:0;stroke-opacity:1;paint-order:fill markers stroke;stop-color:#000000"
         d="M 375.93389,1481.3565 C 556.75268,1261.1351 682.45795,1023.0042 701.28237,750.14182"
         id="path6280-3"
         sodipodi:nodetypes="cc"
         inkscape:label="eyelash left big"
         inkscape:transform-center-x="163.18961"
         inkscape:transform-center-y="321.67074" />
      <g
         id="g12997"
         inkscape:label="left eye"
         transform="matrix(1,0,0,-1,6.2447382,1625.2897)">
        <path
           id="path1915-9"
           style="display:inline;fill:#fefefe;stroke:#65471b;stroke-width:64;stroke-linecap:round;stroke-linejoin:round;paint-order:fill markers stroke;stop-color:#000000"
           inkscape:label="lefteye"
           d="m 792.61751,1048.7279 c 10e-6,120.7167 -155.86024,218.577 -276.57698,218.577 -120.71674,0 -160.57699,-55.8603 -160.57698,-176.577 0,-120.71673 97.86025,-260.57698 218.57698,-260.57698 120.71673,0 218.57698,97.86025 218.57698,218.57698 z"
           sodipodi:nodetypes="sssss" />
        <path
           style="opacity:1;fill:#ffffff;fill-opacity:1;stroke:#65471b;stroke-width:48;stroke-linecap:round;stroke-linejoin:round;stroke-miterlimit:4;stroke-dasharray:none;stroke-dashoffset:0;stroke-opacity:1;paint-order:fill markers stroke;stop-color:#000000"
           d="m 498.97372,962.62186 v 64.41644"
           id="path2372"
           inkscape:label="left pupil" />
      </g>
      <path
         style="opacity:1;fill:#f19020;fill-opacity:1;stroke:#f19020;stroke-width:64;stroke-linecap:round;stroke-miterlimit:4;stroke-dasharray:none;stroke-dashoffset:0;stroke-opacity:1;paint-order:fill markers stroke;stop-color:#000000"
         d="m 845.2271,790.72299 c 0,0 -47.96997,170.62296 -41.94911,353.25581 6.62354,200.9142 83.89823,417.2833 152.34153,421.699 68.44328,4.4157 178.83568,-192.0828 207.53768,-331.1772 28.702,-139.0945 -4.4157,-445.98546 -4.4157,-445.98546 z"
         id="path1640"
         inkscape:label="left ear"
         sodipodi:nodetypes="cssscc" />
      <path
         id="path1148"
         style="display:inline;opacity:1;fill:#ffcb4c;stroke:#ffcb4c;stroke-width:64;stroke-linecap:round;stroke-linejoin:round;stroke-miterlimit:4;stroke-dasharray:6.4, 6.4;stroke-dashoffset:0;stroke-opacity:1;paint-order:fill markers stroke;stop-color:#000000"
         inkscape:label="head"
         d="m 1305.2994,471.73105 c 0,0 -0.1078,10.8206 -0.9512,28.418 -0.4217,8.7987 -1.0259,19.2912 -1.8945,30.9726 -0.8686,11.6814 -1.9997,24.5525 -3.4727,38.1055 -1.4729,13.553 -3.2888,27.7877 -5.5234,42.2012 -2.2347,14.41345 -4.8892,29.0047 -8.043,43.26755 -1.5769,7.13143 -3.279,14.18175 -5.1152,21.08594 -1.8362,6.90419 -3.8068,13.66232 -5.9219,20.21289 -2.1151,6.55056 -4.3733,12.89234 -6.7871,18.96289 -2.4138,6.07055 -4.9828,11.86984 -7.7148,17.33398 -2.7321,5.46415 -5.9346,10.78574 -9.5391,15.96094 -3.6045,5.1752 -7.6114,10.20474 -11.9492,15.08399 -4.3379,4.87924 -9.0074,9.60926 -13.9395,14.18554 -4.9321,4.57628 -10.1264,8.99932 -15.5136,13.26563 -5.3873,4.2663 -10.9666,8.37489 -16.67,12.32422 -5.7033,3.94932 -11.5298,7.73794 -17.4101,11.36333 -11.7607,7.2506 -23.7371,13.847 -35.3711,19.7597 -11.634,5.9127 -22.9257,11.1416 -33.3203,15.6602 -10.3946,4.5186 -19.8912,8.326 -27.9336,11.3945 -16.085,6.1369 -26.3535,9.3184 -26.3535,9.3184 -106.83131,15.9881 -232.17457,-6.9695 -312.625,-60.01371 C 637.98326,743.82466 602.36333,633.96489 540.54357,598.63925 c -61.81975,-35.3255 -225.20029,-77.273 -280.39649,-83.8965 -55.19621,-6.6235 -183.250356,-6.6246 -161.171873,-123.6406 22.078483,-117.016 112.599213,-282.6048 377.541013,-247.2793 264.94179,35.3256 313.51517,44.1575 536.50778,88.3145 22.8973,4.5341 53.8481,18.3195 86.8281,36.9472 l 213.8711,11.4278 -92.9258,75.2558 c 5.3578,4.8405 10.5999,9.7184 15.6328,14.6367 l 142.0762,2.375 -84.8808,69.668 c 3.4806,6.5537 6.4805,13.0207 8.6269,19.3066 1.0523,3.0817 2.0328,6.6268 3.0469,9.9766 z" />
      <path
         style="display:none;fill:#123456;stroke:#123456;stroke-width:64;stroke-linecap:round;stroke-linejoin:round;-inkscape-stroke:none;paint-order:fill markers stroke;stop-color:#000000"
         d="M 845.60652,877.83466 C 534.56028,822.23629 448.93304,1281.7253 446.95163,1324.4714 c 113.75051,-71.0196 159.95515,-228.2022 264.95436,-358.63086 -24.6061,144.14686 -131.90976,406.28276 28.40072,624.71116 0,0 -0.19243,-229.0734 175.45929,-315.4846 155.1469,-76.324 95.0437,-56.0532 95.0437,-56.0532 6.8857,45.1617 145.1735,224.9742 264.513,319.2383 0,0 17.107,-433.239 39.141,-535.0255 22.034,-101.78634 2.3662,-170.21702 2.3662,-170.21702 l -114.9431,134.5727 c 0.1,0.17422 -45.234,-34.14935 -356.28028,-89.74772 z"
         id="path1637"
         sodipodi:nodetypes="zcccsccsccz"
         inkscape:label="top hair" />
      <path
         id="path13483"
         style="display:inline;opacity:1;fill:#ffcb4c;stroke:#ffcb4c;stroke-width:64;stroke-linecap:round;stroke-linejoin:round;stroke-miterlimit:4;stroke-dasharray:6.4, 6.4;stroke-dashoffset:0;stroke-opacity:1;paint-order:fill markers stroke;stop-color:#000000"
         inkscape:label="right ear"
         d="m 1439.1392,1565.6784 c -79.4826,0 -239.79,-284.8703 -267.1504,-370.9199 -24.3601,-76.6137 -98.9266,-269.49105 -120.1132,-324.15045 0,0 10.2685,-3.1815 26.3535,-9.3184 8.0424,-3.0685 17.539,-6.8759 27.9336,-11.3945 10.3946,-4.5186 21.6863,-9.7475 33.3203,-15.6602 11.634,-5.9127 23.6104,-12.5091 35.3711,-19.7597 5.8803,-3.62539 11.7068,-7.41401 17.4101,-11.36333 5.7034,-3.94933 11.2827,-8.05792 16.67,-12.32422 5.3872,-4.26631 10.5815,-8.68935 15.5136,-13.26563 4.9321,-4.57628 9.6016,-9.3063 13.9395,-14.18554 4.3378,-4.87925 8.3447,-9.90879 11.9492,-15.08399 3.6045,-5.1752 6.807,-10.49679 9.5391,-15.96094 2.732,-5.46414 5.301,-11.26343 7.7148,-17.33398 2.4138,-6.07055 4.672,-12.41233 6.7871,-18.96289 2.1151,-6.55057 4.0857,-13.3087 5.9219,-20.21289 1.8362,-6.90419 3.5383,-13.95451 5.1152,-21.08594 3.1538,-14.26285 5.8083,-28.8541 8.043,-43.26755 2.2346,-14.4135 4.0505,-28.6482 5.5234,-42.2012 1.473,-13.553 2.6041,-26.4241 3.4727,-38.1055 0.8686,-11.6814 1.4728,-22.1739 1.8945,-30.9726 0.8434,-17.5974 0.9512,-28.418 0.9512,-28.418 96.8623,117.5327 277.3103,365.004 286.1797,588.34965 12.1432,305.787 -100.7972,505.5977 -152.3399,505.5977 z" />
      <path
         id="path4"
         style="display:inline;color:#000000;fill:url(#radialGradient6);stroke-linecap:round;stroke-linejoin:round;stroke-dasharray:6.4, 6.4;-inkscape-stroke:none;paint-order:fill markers stroke;fill-opacity:1"
         d="M 802.42578 -159.81055 A 32 32 0 0 0 797.95898 -159.08008 A 32 32 0 0 0 793.42773 -158.83789 A 32 32 0 0 0 791.83984 -158.07812 A 32 32 0 0 0 786.25 -155.40625 A 32 32 0 0 0 780.98828 -152.14453 A 32 32 0 0 0 776.8457 -147.53711 A 32 32 0 0 0 773.22852 -142.50586 A 32 32 0 0 0 771.16992 -136.67578 A 32 32 0 0 0 769.75195 -130.63281 A 32 32 0 0 0 769.35156 -128.92383 A 32 32 0 0 0 770.08203 -124.45703 A 32 32 0 0 0 770.32422 -119.92578 L 771.9043 -113.72461 A 32 32 0 0 0 773.31055 -110.78125 A 32 32 0 0 0 773.48438 -107.52344 L 775.06641 -101.32031 A 32 32 0 0 0 776.47266 -98.378906 A 32 32 0 0 0 776.64648 -95.119141 L 778.22852 -88.917969 A 32 32 0 0 0 779.63477 -85.974609 A 32 32 0 0 0 779.80859 -82.714844 L 781.38867 -76.513672 A 32 32 0 0 0 782.79688 -73.568359 A 32 32 0 0 0 782.9707 -70.3125 L 784.55078 -64.111328 A 32 32 0 0 0 785.95703 -61.167969 A 32 32 0 0 0 786.13086 -57.908203 L 787.71289 -51.707031 A 32 32 0 0 0 789.11914 -48.765625 A 32 32 0 0 0 789.29297 -45.505859 L 790.875 -39.304688 A 32 32 0 0 0 792.28125 -36.361328 A 32 32 0 0 0 792.45508 -33.101562 L 794.03516 -26.900391 A 32 32 0 0 0 795.44336 -23.955078 A 32 32 0 0 0 795.61719 -20.699219 L 797.19727 -14.498047 A 32 32 0 0 0 798.60352 -11.554688 A 32 32 0 0 0 798.77734 -8.2949219 L 800.35938 -2.09375 A 32 32 0 0 0 801.76562 0.84960938 A 32 32 0 0 0 801.93945 4.1074219 L 803.52148 10.310547 A 32 32 0 0 0 804.92773 13.251953 A 32 32 0 0 0 805.10156 16.511719 L 805.71484 18.921875 L 801.59766 17.248047 A 32.0032 32.0032 0 0 0 758.66211 55.25 L 758.85742 55.966797 A 32 32 0 0 0 760.30664 58.886719 A 32 32 0 0 0 760.52734 62.144531 L 762.19922 68.322266 A 32 32 0 0 0 763.64844 71.242188 A 32 32 0 0 0 763.86914 74.5 L 765.54102 80.677734 A 32 32 0 0 0 766.99219 83.601562 A 32 32 0 0 0 767.21289 86.857422 L 768.88281 93.035156 A 32 32 0 0 0 770.33398 95.958984 A 32 32 0 0 0 770.55469 99.212891 L 772.22461 105.39062 A 32 32 0 0 0 773.67578 108.31445 A 32 32 0 0 0 773.89648 111.56836 L 775.56836 117.74609 A 32 32 0 0 0 777.01758 120.66602 A 32 32 0 0 0 777.23828 123.92383 L 778.91016 130.10156 A 32 32 0 0 0 780.36133 133.02539 A 32 32 0 0 0 780.58203 136.28125 L 782.25195 142.45898 A 32 32 0 0 0 783.70312 145.38281 A 32 32 0 0 0 783.92383 148.63672 L 785.59375 154.81445 A 32 32 0 0 0 786.63867 156.92188 L 786.48047 156.89453 A 32 32 0 0 0 784.62109 156.94336 A 32 32 0 0 0 780.10938 155.80469 L 776.98242 155.27344 A 32.0032 32.0032 0 0 0 776.95117 155.26758 L 773.76758 154.73047 A 32 32 0 0 0 771.91406 154.7832 A 32 32 0 0 0 767.39062 153.6582 L 763.35156 152.98438 A 32.0032 32.0032 0 0 0 763.32031 152.97852 L 761.04688 152.60156 A 32 32 0 0 0 759.19336 152.66016 A 32 32 0 0 0 754.70312 151.55273 C 752.5687 151.20059 750.43969 150.85335 748.31445 150.50781 A 32 32 0 0 0 746.4668 150.57227 A 32 32 0 0 0 741.9707 149.47656 L 740.27734 149.20312 A 32.0032 32.0032 0 0 0 740.24414 149.19922 L 735.61914 148.45508 A 32 32 0 0 0 733.75586 148.52344 A 32 32 0 0 0 729.23633 147.4375 L 726.11133 146.94141 A 32.0032 32.0032 0 0 0 726.08008 146.93555 L 722.88477 146.43359 A 32 32 0 0 0 721.0293 146.50781 A 32 32 0 0 0 716.53125 145.43555 C 714.39287 145.10047 712.26325 144.76926 710.14258 144.44141 A 32 32 0 0 0 708.29102 144.52148 A 32 32 0 0 0 703.79297 143.46289 L 701.75586 143.14844 A 32.0032 32.0032 0 0 0 701.72852 143.14453 L 697.43945 142.48828 A 32 32 0 0 0 695.58203 142.57227 A 32 32 0 0 0 691.05664 141.51953 L 686.5918 140.84375 A 32.0032 32.0032 0 0 0 686.56445 140.83984 L 684.70117 140.56055 A 32 32 0 0 0 682.85547 140.64844 A 32 32 0 0 0 678.34375 139.60742 L 676.20898 139.28906 A 32.0032 32.0032 0 0 0 676.18359 139.28516 L 671.98828 138.66211 A 32 32 0 0 0 670.13086 138.75391 A 32 32 0 0 0 665.63281 137.72266 C 663.50071 137.4077 661.37343 137.09532 659.25 136.78516 A 32 32 0 0 0 657.40234 136.88086 A 32 32 0 0 0 652.89648 135.85742 L 649.16602 135.31641 A 32.0032 32.0032 0 0 0 649.14258 135.3125 L 646.53906 134.93555 A 32 32 0 0 0 644.69141 135.0332 A 32 32 0 0 0 640.18359 134.01758 L 637.86133 133.68359 A 32.0032 32.0032 0 0 0 637.83984 133.68164 L 633.82812 133.10547 A 32 32 0 0 0 631.97266 133.20508 A 32 32 0 0 0 627.4707 132.19727 L 626.24805 132.02344 A 32.0032 32.0032 0 0 0 626.22852 132.02148 L 621.11523 131.29492 A 32 32 0 0 0 619.25977 131.39844 A 32 32 0 0 0 614.75977 130.39648 L 614.30664 130.33203 A 32.0032 32.0032 0 0 0 614.28711 130.32617 L 608.40234 129.5 A 32 32 0 0 0 606.55078 129.60547 A 32 32 0 0 0 602.04688 128.60938 L 602.01758 128.60547 A 32.0032 32.0032 0 0 0 602 128.60156 L 595.73828 127.72656 A 32.0032 32.0032 0 0 0 595.7207 127.72461 L 595.67578 127.71875 A 32 32 0 0 0 593.83203 127.82617 A 32 32 0 0 0 589.32031 126.83398 L 582.98242 125.95508 A 32 32 0 0 0 581.12891 126.06445 A 32 32 0 0 0 576.62695 125.07812 L 576.32031 125.03516 A 32.0032 32.0032 0 0 0 576.30469 125.0332 L 570.27148 124.20312 A 32 32 0 0 0 568.42188 124.3125 A 32 32 0 0 0 563.91797 123.33008 L 562.87109 123.1875 A 32.0032 32.0032 0 0 0 562.85742 123.18555 L 557.5625 122.46094 A 32 32 0 0 0 555.71289 122.57227 A 32 32 0 0 0 551.20898 121.59375 L 548.99609 121.29102 A 32.0032 32.0032 0 0 0 548.98242 121.28906 L 544.85547 120.72852 A 32 32 0 0 0 543.01172 120.8418 A 32 32 0 0 0 538.50195 119.86523 L 534.67383 119.3457 A 32.0032 32.0032 0 0 0 534.66211 119.34375 L 532.14844 119.00391 A 32 32 0 0 0 530.29883 119.11914 A 32 32 0 0 0 525.79102 118.14453 L 519.44727 117.29102 A 32 32 0 0 0 517.60547 117.40625 A 32 32 0 0 0 513.10547 116.43555 L 512.31641 116.33008 A 32.0032 32.0032 0 0 0 512.29688 116.32617 L 506.74219 115.58203 A 32 32 0 0 0 504.89648 115.69922 A 32 32 0 0 0 500.40039 114.73047 L 496.79297 114.24609 A 32.0032 32.0032 0 0 0 496.77539 114.24414 L 494.03906 113.87891 A 32 32 0 0 0 492.19531 113.99609 A 32 32 0 0 0 487.69531 113.03125 L 481.35156 112.18359 A 32 32 0 0 0 479.44727 112.30469 A 32 32 0 0 0 474.77539 111.33594 C 472.40779 111.03705 470.15913 110.78122 468.0332 110.53906 A 32 32 0 0 0 466.13867 110.69727 A 32 32 0 0 0 461.2207 109.8125 C 459.09101 109.6002 456.83429 109.37348 454.44531 109.16602 A 32 32 0 0 0 452.59375 109.36914 A 32 32 0 0 0 447.81445 108.61328 C 445.55464 108.43511 443.26637 108.26863 440.94922 108.12109 A 32 32 0 0 0 439.08203 108.37109 A 32 32 0 0 0 434.3125 107.72656 C 431.92297 107.59291 429.63862 107.49281 427.46094 107.40234 A 32 32 0 0 0 425.56445 107.69922 A 32 32 0 0 0 420.63281 107.17188 C 418.37248 107.10858 416.06861 107.0573 413.7207 107.0293 A 32 32 0 0 0 411.88477 107.37109 A 32 32 0 0 0 406.9668 106.98047 C 404.68519 106.97847 402.38064 106.99194 400.05273 107.02734 A 32 32 0 0 0 396.6875 107.75 A 32 32 0 0 0 393.31836 107.16992 C 390.91537 107.23162 388.60805 107.32088 386.39648 107.41406 A 32 32 0 0 0 382.98047 108.24414 A 32 32 0 0 0 379.55664 107.76172 C 377.17825 107.89544 374.86203 108.05436 372.60938 108.2207 A 32 32 0 0 0 369.22656 109.15625 A 32 32 0 0 0 365.78516 108.78125 C 363.39679 108.99134 361.08221 109.22512 358.8418 109.46289 A 32 32 0 0 0 355.46484 110.51562 A 32 32 0 0 0 351.98828 110.25391 C 349.63435 110.54099 347.30863 110.85107 345.01172 111.17773 A 32 32 0 0 0 341.69141 112.34375 A 32 32 0 0 0 338.16992 112.20703 C 335.87688 112.5712 333.55501 112.96059 331.20898 113.38281 A 32 32 0 0 0 327.95117 114.66211 A 32 32 0 0 0 324.43945 114.65234 C 322.09804 115.1107 319.80051 115.58949 317.54492 116.07812 A 32 32 0 0 0 314.26758 117.50195 A 32 32 0 0 0 310.72852 117.62695 C 308.42455 118.17085 306.12197 118.74045 303.82227 119.33789 A 32 32 0 0 0 300.63672 120.87891 A 32 32 0 0 0 297.10742 121.14453 C 294.81681 121.78202 292.52514 122.44813 290.23438 123.14453 A 32 32 0 0 0 287.10742 124.81836 A 32 32 0 0 0 283.56836 125.23438 C 281.31728 125.96404 279.05354 126.7257 276.7793 127.52344 A 32 32 0 0 0 273.70898 129.33789 A 32 32 0 0 0 270.17969 129.9082 C 267.96254 130.73431 265.72616 131.5954 263.47461 132.49805 A 32 32 0 0 0 260.48633 134.44531 A 32 32 0 0 0 256.98438 135.16992 C 254.77896 136.10398 252.57336 137.07023 250.37109 138.07031 A 32 32 0 0 0 247.46484 140.15625 A 32 32 0 0 0 244.00781 141.03711 C 241.7982 142.09276 239.64282 143.16073 237.53906 144.23242 A 32 32 0 0 0 234.68555 146.48242 A 32 32 0 0 0 231.19922 147.55469 C 229.14309 148.66419 227.04082 149.82291 224.90234 151.04688 A 32 32 0 0 0 222.19727 153.40039 A 32 32 0 0 0 218.82617 154.60742 C 216.71713 155.87149 214.66737 157.14226 212.67188 158.41016 A 32 32 0 0 0 210.03906 160.92578 A 32 32 0 0 0 206.68359 162.31641 C 204.70337 163.64086 202.71167 165.00685 200.71484 166.41992 A 32 32 0 0 0 198.23242 169.03906 A 32 32 0 0 0 194.93359 170.60156 C 193.0488 172.0014 191.1301 173.45668 189.1875 174.97852 A 32 32 0 0 0 186.84375 177.70508 A 32 32 0 0 0 183.64453 179.41211 C 181.79509 180.92722 179.9489 182.47772 178.10938 184.06641 A 32 32 0 0 0 175.89062 186.91211 A 32 32 0 0 0 172.7793 188.76953 C 171.00314 190.37355 169.23378 192.01021 167.47656 193.68164 A 32 32 0 0 0 165.39648 196.63281 A 32 32 0 0 0 162.37305 198.64062 C 160.69363 200.31128 159.00693 202.026 157.32227 203.78906 A 32 32 0 0 0 155.39258 206.82422 A 32 32 0 0 0 152.46484 208.97656 C 150.8756 210.71523 149.27967 212.50001 147.68359 214.33398 A 32 32 0 0 0 145.90039 217.44727 A 32 32 0 0 0 143.10547 219.70312 C 141.55496 221.5603 140.04995 223.41247 138.58398 225.25586 A 32 32 0 0 0 136.92773 228.47461 A 32 32 0 0 0 134.23438 230.85547 C 132.78408 232.76203 131.3609 234.68247 129.96289 236.61523 A 32 32 0 0 0 128.46875 239.87305 A 32 32 0 0 0 125.875 242.38477 C 124.5346 244.32219 123.20709 246.28729 121.89258 248.28125 A 32 32 0 0 0 120.54297 251.5957 A 32 32 0 0 0 118.08398 254.18555 C 116.81213 256.19941 115.56555 258.22329 114.3457 260.25586 A 32 32 0 0 0 113.14062 263.61523 A 32 32 0 0 0 110.79297 266.30664 C 109.61184 268.36368 108.46031 270.41988 107.33789 272.47266 A 32 32 0 0 0 106.26562 275.89062 A 32 32 0 0 0 104.0293 278.67383 C 102.94186 280.75907 101.87375 282.85914 100.82617 284.97461 A 32 32 0 0 0 99.902344 288.40234 A 32 32 0 0 0 97.787109 291.25195 C 96.778858 293.38341 95.795075 295.52413 94.833984 297.66992 A 32 32 0 0 0 94.044922 301.11914 A 32 32 0 0 0 92.044922 304.04297 C 91.121572 306.20452 90.221783 308.3729 89.34375 310.54883 A 32 32 0 0 0 88.685547 314.02148 A 32 32 0 0 0 86.800781 317.00781 C 85.959786 319.19811 85.142996 321.39445 84.347656 323.59375 A 32 32 0 0 0 83.818359 327.08008 A 32 32 0 0 0 82.044922 330.12891 C 81.282885 332.35059 80.547217 334.56679 79.835938 336.77539 A 32 32 0 0 0 79.429688 340.28906 A 32 32 0 0 0 77.759766 343.41602 C 77.089886 345.62753 76.434751 347.86028 75.796875 350.11133 A 32 32 0 0 0 75.515625 353.62109 A 32 32 0 0 0 73.964844 356.78125 C 73.363082 359.04399 72.786654 361.3014 72.232422 363.55078 A 32 32 0 0 0 72.072266 367.07812 A 32 32 0 0 0 70.628906 370.30273 C 70.11251 372.56196 69.614038 374.83541 69.134766 377.12305 A 32 32 0 0 0 69.099609 380.63477 A 32 32 0 0 0 67.775391 383.875 C 67.311306 386.27148 66.861808 388.77579 66.458984 391.39062 A 32 32 0 0 0 66.628906 395.29492 A 32 32 0 0 0 65.439453 399.0293 C 65.143067 401.66499 64.910242 404.3224 64.744141 406.99805 A 32 32 0 0 0 65.291016 411.04297 A 32 32 0 0 0 64.449219 415.07617 C 64.423869 417.79092 64.47118 420.57156 64.617188 423.41406 A 32 32 0 0 0 65.660156 427.53516 A 32 32 0 0 0 65.308594 431.79297 C 65.637966 434.66769 66.074092 437.55997 66.626953 440.46289 A 32 32 0 0 0 68.298828 444.59375 A 32 32 0 0 0 68.609375 449.09961 C 69.385909 451.95939 70.291726 454.85774 71.357422 457.7793 A 32 32 0 0 0 73.744141 461.70703 A 32 32 0 0 0 74.833984 466.19531 C 76.142322 469.01513 77.581146 471.78029 79.150391 474.48047 A 32 32 0 0 0 82.232422 477.97461 A 32 32 0 0 0 84.117188 482.22266 C 85.919931 484.78029 87.817665 487.2192 89.792969 489.54688 A 32 32 0 0 0 93.390625 492.40039 A 32 32 0 0 0 95.947266 496.21289 C 98.067097 498.32492 100.26749 500.34651 102.54102 502.27539 A 32 32 0 0 0 106.38086 504.4082 A 32 32 0 0 0 109.33594 507.63672 C 111.67753 509.35471 114.0388 510.95764 116.4043 512.45898 A 32 32 0 0 0 120.33594 513.98047 A 32 32 0 0 0 123.53906 516.69336 C 125.94028 518.0247 128.34732 519.26797 130.75 520.43555 A 32 32 0 0 0 134.65625 521.45898 A 32 32 0 0 0 137.97461 523.73047 C 140.37874 524.75874 142.78853 525.72511 145.19922 526.63477 A 32 32 0 0 0 149.02148 527.26953 A 32 32 0 0 0 152.37109 529.18359 C 154.7674 529.9855 157.16148 530.73834 159.55078 531.44531 A 32 32 0 0 0 163.2793 531.78711 A 32 32 0 0 0 166.63672 533.42578 C 169.01454 534.05273 171.37517 534.6358 173.7168 535.18359 A 32 32 0 0 0 177.37305 535.30664 A 32 32 0 0 0 180.73047 536.73242 C 183.06009 537.21769 185.38643 537.67344 187.70898 538.10352 A 32 32 0 0 0 191.27344 538.05664 A 32 32 0 0 0 194.59375 539.31055 C 196.90008 539.69379 199.2014 540.05426 201.49805 540.39258 A 32 32 0 0 0 204.97266 540.21875 A 32 32 0 0 0 208.26758 541.34375 C 210.52921 541.64544 212.78712 541.92918 215.03906 542.19922 A 32 32 0 0 0 218.4375 541.9375 A 32 32 0 0 0 221.68555 542.96484 C 223.91854 543.21201 226.12614 543.44438 228.30469 543.66797 A 32 32 0 0 0 231.63086 543.35352 A 32 32 0 0 0 234.80273 544.31641 C 236.98216 544.53107 239.12065 544.7359 241.2168 544.93945 A 32 32 0 0 0 244.42383 544.61914 A 32 32 0 0 0 247.50586 545.55859 C 249.5353 545.76078 251.53509 545.96842 253.50195 546.1875 A 32 32 0 0 0 256.41602 545.9375 A 32 32 0 0 0 259.16602 546.87695 C 261.00298 547.12193 262.88773 547.39722 264.82031 547.69727 A 32 32 0 0 0 267.85156 547.56836 A 32 32 0 0 0 270.69727 548.6543 C 272.64835 548.98515 274.61613 549.33474 276.60156 549.69727 A 32 32 0 0 0 279.72461 549.64844 A 32 32 0 0 0 282.62305 550.82422 C 284.59988 551.20266 286.60107 551.59757 288.62695 552.00391 A 32 32 0 0 0 291.77344 552.00977 A 32 32 0 0 0 294.67188 553.24023 C 296.6907 553.66027 298.71019 554.08747 300.73047 554.52148 A 32 32 0 0 0 303.9043 554.57031 A 32 32 0 0 0 306.8125 555.8457 C 308.83388 556.29157 310.85235 556.74355 312.86914 557.20117 A 32 32 0 0 0 316.06445 557.28711 A 32 32 0 0 0 318.98047 558.60156 C 320.98926 559.06605 323.01318 559.54084 325.05273 560.02344 A 32 32 0 0 0 328.23828 560.13867 A 32 32 0 0 0 331.14648 561.48242 C 333.15803 561.96721 335.17949 562.45904 337.20898 562.95898 A 32 32 0 0 0 340.40625 563.10352 A 32 32 0 0 0 343.30664 564.47461 C 345.31852 564.97793 347.33767 565.48878 349.36328 566.00586 A 32 32 0 0 0 352.5625 566.17773 A 32 32 0 0 0 355.46094 567.57617 C 357.45817 568.0929 359.47482 568.6213 361.51172 569.1582 A 32 32 0 0 0 364.70703 569.35352 A 32 32 0 0 0 367.58789 570.77344 C 369.58455 571.30725 371.59713 571.85213 373.625 572.4043 A 32 32 0 0 0 376.81836 572.62695 A 32 32 0 0 0 379.68164 574.06641 C 381.6915 574.62177 383.69651 575.18089 385.69727 575.74414 A 32 32 0 0 0 388.89453 575.99414 A 32 32 0 0 0 391.73242 577.45312 C 393.76365 578.0337 395.76486 578.60805 397.73633 579.18164 A 32 32 0 0 0 400.94336 579.46094 A 32 32 0 0 0 403.79102 580.95117 C 405.76961 581.53309 407.76114 582.12681 409.76953 582.72852 A 32 32 0 0 0 412.94727 583.03125 A 32 32 0 0 0 415.77734 584.54492 C 417.74556 585.14291 419.72832 585.75193 421.72656 586.37109 A 32 32 0 0 0 424.89648 586.70312 A 32 32 0 0 0 427.69531 588.23633 C 429.67506 588.85971 431.64721 589.48813 433.60938 590.11914 A 32 32 0 0 0 436.7793 590.48438 A 32 32 0 0 0 439.54492 592.04102 C 441.53342 592.6915 443.49375 593.33705 445.42383 593.98242 A 32 32 0 0 0 448.58398 594.38281 A 32 32 0 0 0 451.32031 595.9668 C 453.3036 596.64227 455.24791 597.3086 457.15234 597.97266 A 32 32 0 0 0 460.29883 598.41406 A 32 32 0 0 0 463.00195 600.02734 C 464.96313 600.72501 466.88926 601.41485 468.77539 602.10352 A 32 32 0 0 0 471.89648 602.58789 A 32 32 0 0 0 474.57617 604.24219 C 476.47791 604.95116 478.3758 605.66793 480.26758 606.39453 A 32 32 0 0 0 483.33789 606.92188 A 32 32 0 0 0 485.9668 608.61523 C 487.83166 609.35043 489.68304 610.09393 491.51953 610.8457 A 32 32 0 0 0 494.55664 611.4375 A 32 32 0 0 0 497.09375 613.1582 C 498.9226 613.93138 500.734 614.71304 502.5293 615.50391 A 32 32 0 0 0 505.46289 616.15625 A 32 32 0 0 0 507.89258 617.91797 C 509.64604 618.72464 511.38046 619.54238 513.09375 620.37305 A 32 32 0 0 0 515.88477 621.10156 A 32 32 0 0 0 518.13281 622.88867 C 519.77895 623.73617 521.37517 624.58479 522.92188 625.44141 A 32 32 0 0 0 525.26953 626.19141 A 32 32 0 0 0 527.00586 627.82422 C 528.2489 628.60014 529.49906 629.43215 530.75 630.32031 A 32 32 0 0 0 532.97266 631.31641 A 32 32 0 0 0 534.56836 633.18555 C 535.81433 634.169 537.07555 635.21775 538.35352 636.32617 A 32 32 0 0 0 540.62305 637.62109 A 32 32 0 0 0 542.15234 639.76172 C 543.41383 640.94737 544.67508 642.17674 545.93555 643.44727 A 32 32 0 0 0 548.23828 645 A 32 32 0 0 0 549.71094 647.37305 C 550.96901 648.71902 552.21779 650.09111 553.45703 651.48828 A 32 32 0 0 0 555.7832 653.25195 A 32 32 0 0 0 557.20508 655.80664 C 558.44987 657.27187 559.68766 658.75718 560.91797 660.26172 A 32 32 0 0 0 563.25195 662.18359 A 32 32 0 0 0 564.63672 664.88086 C 565.86125 666.42393 567.09043 667.99648 568.32617 669.5957 A 32 32 0 0 0 570.66016 671.62891 A 32 32 0 0 0 572.01367 674.42188 C 573.24147 676.04459 574.46947 677.68337 575.69727 679.33398 A 32 32 0 0 0 578.04688 681.45703 A 32 32 0 0 0 579.38867 684.32812 C 580.62114 686.00556 581.85447 687.69112 583.08789 689.38477 A 32 32 0 0 0 585.45312 691.56836 A 32 32 0 0 0 586.80078 694.5 L 588.4082 696.71875 L 590.54102 699.66602 A 32 32 0 0 0 592.9375 701.89062 A 32 32 0 0 0 594.30664 704.87109 L 596.45898 707.83984 A 32.0032 32.0032 0 0 0 596.48438 707.87695 L 598.0918 710.08789 A 32 32 0 0 0 600.52539 712.33594 A 32 32 0 0 0 601.92383 715.34375 C 603.20265 717.09142 604.49519 718.85325 605.80469 720.625 A 32 32 0 0 0 608.27148 722.86719 A 32 32 0 0 0 609.70312 725.875 C 611.02954 727.65335 612.35562 729.4178 613.68164 731.16992 A 32 32 0 0 0 616.20898 733.41602 A 32 32 0 0 0 617.69727 736.43164 C 619.05947 738.20624 620.43117 739.97702 621.8125 741.74023 A 32 32 0 0 0 624.38281 743.94922 A 32 32 0 0 0 625.9375 746.96289 C 627.35224 748.73934 628.76599 750.49017 630.17578 752.2207 A 32 32 0 0 0 632.82812 754.41406 A 32 32 0 0 0 634.47266 757.43555 C 635.92062 759.17306 637.37956 760.9019 638.84961 762.62305 A 32 32 0 0 0 641.57031 764.76758 A 32 32 0 0 0 643.30469 767.77344 C 644.804 769.48399 646.31865 771.18779 647.84766 772.88477 A 32 32 0 0 0 650.64258 774.9707 A 32 32 0 0 0 652.47266 777.94531 C 654.02969 779.62464 655.60269 781.29668 657.19141 782.95898 A 32 32 0 0 0 660.0625 784.97266 A 32 32 0 0 0 661.99414 787.9082 C 663.61182 789.549 665.2497 791.18422 666.9082 792.81055 A 32 32 0 0 0 669.85547 794.73828 A 32 32 0 0 0 671.88672 797.61328 C 673.57407 799.21517 675.27895 800.80475 677.00195 802.38086 A 32 32 0 0 0 680.02734 804.21289 A 32 32 0 0 0 682.17188 807.0293 C 683.9275 808.58048 685.69305 810.10951 687.46875 811.61914 A 32 32 0 0 0 690.58008 813.35156 A 32 32 0 0 0 692.83984 816.09961 C 694.65841 817.58843 696.49327 819.05968 698.3457 820.51367 A 32 32 0 0 0 701.53125 822.12891 A 32 32 0 0 0 703.91406 824.79883 C 705.77409 826.20084 707.66835 827.60333 709.60156 828.99805 A 32 32 0 0 0 712.84766 830.48242 A 32 32 0 0 0 715.33789 833.05469 C 717.26947 834.3916 719.22738 835.71772 721.21289 837.0293 A 32 32 0 0 0 724.54492 838.38867 A 32 32 0 0 0 727.16211 840.87109 C 729.17229 842.13822 731.19176 843.37799 733.21875 844.59375 A 32 32 0 0 0 736.5957 845.80273 A 32 32 0 0 0 739.29492 848.1543 C 741.34786 849.33018 743.40397 850.4782 745.45898 851.59961 A 32 32 0 0 0 748.86328 852.66602 A 32 32 0 0 0 751.63867 854.89453 C 753.716 855.97775 755.80026 857.04002 757.89258 858.08008 A 32 32 0 0 0 761.31445 859.00781 A 32 32 0 0 0 764.16016 861.12695 C 766.24932 862.11951 768.3565 863.09989 770.48438 864.06445 A 32 32 0 0 0 773.91211 864.86523 A 32 32 0 0 0 776.80273 866.86719 C 778.93827 867.79431 781.06982 868.69793 783.19531 869.57812 A 32 32 0 0 0 786.64844 870.26367 A 32 32 0 0 0 789.60156 872.16992 C 791.73832 873.01511 793.88827 873.84662 796.05078 874.66211 A 32 32 0 0 0 799.49805 875.23242 A 32 32 0 0 0 802.49023 877.03711 C 804.65498 877.8178 806.82453 878.58038 808.99805 879.32617 A 32 32 0 0 0 812.45117 879.79297 A 32 32 0 0 0 815.48438 881.50195 C 817.66661 882.21717 819.85115 882.9157 822.03516 883.5957 A 32 32 0 0 0 825.49414 883.96094 A 32 32 0 0 0 828.56836 885.58203 C 830.76237 886.23299 832.9577 886.86654 835.1543 887.48438 A 32 32 0 0 0 838.61523 887.75391 A 32 32 0 0 0 841.72852 889.28711 C 843.93328 889.87644 846.14019 890.44978 848.34961 891.00781 A 32 32 0 0 0 851.81055 891.18359 A 32 32 0 0 0 854.95312 892.63086 C 857.16888 893.16101 859.38817 893.67597 861.60938 894.17578 A 32 32 0 0 0 865.06445 894.26172 A 32 32 0 0 0 868.24219 895.62695 C 870.4684 896.09959 872.69676 896.55727 874.92773 897 A 32 32 0 0 0 878.38086 896.99805 A 32 32 0 0 0 881.58398 898.2793 C 883.81956 898.69542 886.05633 899.09608 888.29297 899.48242 A 32 32 0 0 0 891.74023 899.39453 A 32 32 0 0 0 894.98047 900.59766 C 897.22384 900.95779 899.46487 901.30237 901.70117 901.63281 A 32 32 0 0 0 905.1543 901.46094 A 32 32 0 0 0 908.42188 902.58398 C 910.66353 902.88744 912.91319 903.17855 915.16797 903.45508 A 32 32 0 0 0 918.60938 903.19922 A 32 32 0 0 0 921.89258 904.23828 C 924.14772 904.48839 926.40456 904.72586 928.66406 904.94727 A 32 32 0 0 0 932.09375 904.60742 A 32 32 0 0 0 935.40234 905.56836 C 937.66576 905.7639 939.92878 905.94496 942.1875 906.11133 A 32 32 0 0 0 945.61523 905.6875 A 32 32 0 0 0 948.95508 906.56836 C 951.21402 906.70751 953.47657 906.83397 955.74219 906.94531 A 32 32 0 0 0 959.16211 906.4375 A 32 32 0 0 0 962.51953 907.23633 C 964.78613 907.32053 967.05619 907.3903 969.33008 907.44531 A 32 32 0 0 0 972.72852 906.85352 A 32 32 0 0 0 976.10742 907.57031 C 978.38179 907.59841 980.65668 907.61137 982.93164 907.60938 A 32 32 0 0 0 987.85742 907.2168 A 32 32 0 0 0 989.71875 907.5625 C 991.99591 907.5329 994.27006 907.4876 996.54297 907.42773 A 32 32 0 0 0 1001.4785 906.9082 A 32 32 0 0 0 1003.3477 907.20508 C 1005.624 907.11608 1007.8965 907.01157 1010.166 906.89258 A 32 32 0 0 0 1015.1055 906.24414 A 32 32 0 0 0 1016.9824 906.49023 C 1019.2547 906.34063 1021.528 906.17563 1023.8047 905.99414 A 32 32 0 0 0 1028.7285 905.20898 A 32 32 0 0 0 1030.6133 905.4043 C 1030.7462 905.3919 1030.8788 905.37578 1031.0117 905.36328 L 1032.2676 908.61328 L 1032.2949 908.68164 A 32 32 0 0 0 1034.0391 911.43555 A 32 32 0 0 0 1034.5977 914.65234 L 1035.4629 916.89453 L 1036.8945 920.60938 A 32 32 0 0 0 1038.6367 923.36133 A 32 32 0 0 0 1039.1895 926.56641 L 1041.4883 932.54102 A 32 32 0 0 0 1043.2285 935.29297 A 32 32 0 0 0 1043.7793 938.49805 L 1046.0742 944.47266 A 32 32 0 0 0 1047.8086 947.21875 A 32 32 0 0 0 1048.3594 950.42969 L 1050.2324 955.3125 L 1050.6426 956.38672 A 32 32 0 0 0 1052.3828 959.14844 A 32 32 0 0 0 1052.9316 962.36523 L 1054.3262 966.00781 L 1055.209 968.32227 A 32 32 0 0 0 1056.9473 971.08594 A 32 32 0 0 0 1057.4941 974.30078 L 1058.541 977.04297 L 1059.7676 980.25781 A 32 32 0 0 0 1061.502 983.02148 A 32 32 0 0 0 1062.0469 986.23828 L 1062.8633 988.37891 L 1064.3164 992.20312 A 32 32 0 0 0 1066.0469 994.96289 A 32 32 0 0 0 1066.5879 998.17188 L 1067.2656 999.95703 L 1068.8535 1004.1426 A 32 32 0 0 0 1070.5801 1006.9023 A 32 32 0 0 0 1071.1191 1010.1152 L 1071.7344 1011.7402 L 1073.3789 1016.0859 A 32 32 0 0 0 1075.1035 1018.8457 A 32 32 0 0 0 1075.6387 1022.0586 L 1076.25 1023.6797 L 1077.8926 1028.0312 A 32 32 0 0 0 1079.6133 1030.791 A 32 32 0 0 0 1080.1445 1034.0039 L 1080.7949 1035.7266 L 1082.3945 1039.9766 A 32 32 0 0 0 1084.1094 1042.7363 A 32 32 0 0 0 1084.6387 1045.9512 L 1085.3457 1047.834 L 1086.8789 1051.9258 A 32 32 0 0 0 1088.5938 1054.6914 A 32 32 0 0 0 1089.1172 1057.9004 L 1089.8867 1059.957 L 1091.3496 1063.877 A 32 32 0 0 0 1093.0605 1066.6445 A 32 32 0 0 0 1093.5801 1069.8535 L 1094.3965 1072.0488 L 1095.8047 1075.8301 A 32 32 0 0 0 1097.5078 1078.5938 A 32 32 0 0 0 1098.0234 1081.8066 L 1098.8594 1084.0586 L 1100.2383 1087.7852 A 32 32 0 0 0 1101.9375 1090.5527 A 32 32 0 0 0 1102.4473 1093.7637 L 1103.252 1095.9434 L 1104.6523 1099.7422 A 32 32 0 0 0 1106.3457 1102.5098 A 32 32 0 0 0 1106.8496 1105.7227 L 1107.5586 1107.6523 L 1109.041 1111.7031 A 32 32 0 0 0 1110.7305 1114.4727 A 32 32 0 0 0 1111.2266 1117.6836 L 1111.7578 1119.1406 L 1113.4043 1123.6641 A 32 32 0 0 0 1115.082 1126.4297 A 32 32 0 0 0 1115.5723 1129.6465 L 1115.832 1130.3594 L 1117.7344 1135.6289 A 32 32 0 0 0 1119.3965 1138.3828 A 32 32 0 0 0 1119.8691 1141.5703 L 1121.6621 1146.5762 L 1122.0098 1147.5508 A 32 32 0 0 0 1123.6719 1150.332 A 32 32 0 0 0 1124.1367 1153.5332 L 1125.334 1156.9082 L 1126.252 1159.5137 A 32 32 0 0 0 1127.9004 1162.293 A 32 32 0 0 0 1128.3535 1165.4941 C 1129.0459 1167.4704 1129.7373 1169.4546 1130.4297 1171.4492 A 32 32 0 0 0 1132.0586 1174.2266 A 32 32 0 0 0 1132.4922 1177.418 C 1133.1727 1179.3956 1133.8493 1181.3725 1134.5215 1183.3516 A 32 32 0 0 0 1136.123 1186.127 A 32 32 0 0 0 1136.5293 1189.2969 C 1137.1924 1191.2744 1137.849 1193.2481 1138.498 1195.2168 A 32 32 0 0 0 1140.0664 1197.9883 A 32 32 0 0 0 1140.4473 1201.1934 C 1141 1202.8901 1141.6524 1205.017 1142.5 1207.5449 A 32 32 0 0 0 1144.3066 1210.7012 A 32 32 0 0 0 1144.8555 1214.3066 C 1145.6604 1216.5307 1146.4803 1218.725 1147.3125 1220.8906 A 32 32 0 0 0 1149.1895 1223.8633 A 32 32 0 0 0 1149.8359 1227.2988 C 1150.6916 1229.4282 1151.5559 1231.534 1152.4277 1233.6211 A 32 32 0 0 0 1154.3457 1236.4746 A 32 32 0 0 0 1155.0605 1239.8262 C 1155.95 1241.8935 1156.8489 1243.9517 1157.7559 1246 A 32 32 0 0 0 1159.707 1248.7734 A 32 32 0 0 0 1160.4746 1252.0723 C 1161.3959 1254.1092 1162.3205 1256.1283 1163.2461 1258.1309 A 32 32 0 0 0 1165.2324 1260.8594 A 32 32 0 0 0 1166.0449 1264.1309 C 1166.989 1266.1372 1167.9386 1268.1331 1168.8906 1270.1191 A 32 32 0 0 0 1170.9043 1272.8027 A 32 32 0 0 0 1171.752 1276.043 C 1172.7215 1278.0369 1173.6904 1280.0092 1174.6562 1281.9648 A 32 32 0 0 0 1176.6992 1284.623 A 32 32 0 0 0 1177.584 1287.8516 C 1178.5664 1289.8139 1179.5556 1291.7734 1180.5508 1293.7324 A 32 32 0 0 0 1182.6113 1296.3516 A 32 32 0 0 0 1183.5254 1299.5566 C 1184.5304 1301.5139 1185.5377 1303.458 1186.543 1305.3906 A 32 32 0 0 0 1188.6309 1307.9941 A 32 32 0 0 0 1189.5781 1311.1953 C 1190.5951 1313.1282 1191.6157 1315.0581 1192.6406 1316.9844 A 32 32 0 0 0 1194.7539 1319.5684 A 32 32 0 0 0 1195.7285 1322.752 C 1196.7621 1324.6737 1197.7988 1326.5927 1198.8398 1328.5078 A 32 32 0 0 0 1200.9727 1331.0684 A 32 32 0 0 0 1201.9746 1334.2441 C 1203.0234 1336.1539 1204.0774 1338.0639 1205.1367 1339.9727 A 32 32 0 0 0 1207.2852 1342.5078 A 32 32 0 0 0 1208.3125 1345.6699 C 1209.3802 1347.5764 1210.4537 1349.4795 1211.5293 1351.3789 A 32 32 0 0 0 1213.6973 1353.8945 A 32 32 0 0 0 1214.75 1357.043 C 1215.8334 1358.94 1216.9223 1360.8355 1218.0156 1362.7285 A 32 32 0 0 0 1220.2031 1365.2227 A 32 32 0 0 0 1221.2832 1368.3652 C 1222.384 1370.2553 1223.4875 1372.1363 1224.5898 1374.0098 A 32 32 0 0 0 1226.8066 1376.4961 A 32 32 0 0 0 1227.9141 1379.6309 C 1229.0287 1381.5077 1230.1493 1383.3844 1231.2754 1385.2598 A 32 32 0 0 0 1233.5078 1387.7188 A 32 32 0 0 0 1234.6406 1390.8418 C 1235.7742 1392.714 1236.9106 1394.5811 1238.0508 1396.4434 A 32 32 0 0 0 1240.3086 1398.8867 A 32 32 0 0 0 1241.4746 1402.0117 C 1242.619 1403.863 1243.7725 1405.719 1244.9355 1407.5801 A 32 32 0 0 0 1247.2148 1410.002 A 32 32 0 0 0 1248.4043 1413.1055 C 1249.5728 1414.9592 1250.7467 1416.8102 1251.9258 1418.6582 A 32 32 0 0 0 1254.2305 1421.0625 A 32 32 0 0 0 1255.4551 1424.166 C 1256.6385 1426.0028 1257.8296 1427.8419 1259.0273 1429.6797 A 32 32 0 0 0 1261.3594 1432.0664 A 32 32 0 0 0 1262.6133 1435.1523 C 1263.8213 1436.9878 1265.0352 1438.8202 1266.2559 1440.6504 A 32 32 0 0 0 1268.6133 1443.0117 A 32 32 0 0 0 1269.9023 1446.0898 C 1271.1333 1447.917 1272.3669 1449.7371 1273.6035 1451.5488 A 32 32 0 0 0 1275.9961 1453.8945 A 32 32 0 0 0 1277.3281 1456.9727 C 1278.576 1458.7788 1279.8337 1460.5886 1281.1016 1462.3984 A 32 32 0 0 0 1283.5234 1464.7148 A 32 32 0 0 0 1284.8887 1467.7715 C 1286.1691 1469.5781 1287.4562 1471.3812 1288.75 1473.1777 A 32 32 0 0 0 1291.207 1475.4688 A 32 32 0 0 0 1292.6172 1478.5137 C 1293.9234 1480.3049 1295.2391 1482.0961 1296.5664 1483.8848 A 32 32 0 0 0 1299.0625 1486.1465 A 32 32 0 0 0 1300.5234 1489.1797 C 1301.8589 1490.9548 1303.207 1492.7338 1304.5703 1494.5117 A 32 32 0 0 0 1307.1113 1496.7422 A 32 32 0 0 0 1308.627 1499.7617 C 1310.0001 1501.5257 1311.3864 1503.2892 1312.7871 1505.0508 A 32 32 0 0 0 1315.377 1507.2441 A 32 32 0 0 0 1316.9531 1510.2461 C 1318.3783 1512.0088 1319.8077 1513.7538 1321.2383 1515.4824 A 32 32 0 0 0 1323.9004 1517.6484 A 32 32 0 0 0 1325.5723 1520.666 C 1327.0138 1522.369 1328.4873 1524.0922 1329.998 1525.832 A 32 32 0 0 0 1332.7168 1527.9395 A 32 32 0 0 0 1334.4531 1530.9062 C 1335.9963 1532.6443 1337.5332 1534.3445 1339.0605 1536.0137 A 32 32 0 0 0 1341.8926 1538.0918 A 32 32 0 0 0 1343.7402 1541.0449 C 1345.3554 1542.7589 1346.9674 1544.4336 1348.5723 1546.0762 A 32 32 0 0 0 1351.5176 1548.0957 A 32 32 0 0 0 1353.5117 1551.0332 C 1355.193 1552.691 1356.9055 1554.3462 1358.6543 1555.9922 A 32 32 0 0 0 1361.7188 1557.9082 A 32 32 0 0 0 1363.8906 1560.8145 C 1365.6871 1562.4307 1367.5295 1564.0452 1369.4238 1565.6504 A 32 32 0 0 0 1372.6855 1567.4609 A 32 32 0 0 0 1375.0918 1570.3125 C 1377.092 1571.9091 1379.1184 1573.4614 1381.1699 1574.9707 A 32 32 0 0 0 1384.7539 1576.6484 A 32 32 0 0 0 1387.5449 1579.4492 C 1389.7763 1580.9459 1392.0936 1582.4169 1394.5059 1583.8418 A 32 32 0 0 0 1398.5352 1585.2539 A 32 32 0 0 0 1401.9141 1587.9082 C 1404.6005 1589.2708 1407.3914 1590.5487 1410.291 1591.7129 A 32 32 0 0 0 1415.1641 1592.627 A 32 32 0 0 0 1419.6445 1594.8984 C 1423.013 1595.8411 1426.6228 1596.6209 1430.4766 1597.1133 A 32 32 0 0 0 1436.5488 1596.6914 A 32 32 0 0 0 1443.6367 1597.4844 C 1448.8351 1597.0408 1453.4448 1595.9071 1457.4961 1594.5234 A 32 32 0 0 0 1464.6074 1590.9492 A 32 32 0 0 0 1468.0879 1589.8945 C 1471.1986 1588.2324 1474.0525 1586.4482 1476.6836 1584.625 A 32 32 0 0 0 1481.4355 1580.4863 A 32 32 0 0 0 1483.8691 1579.1836 C 1486.1381 1577.3197 1488.2684 1575.4263 1490.2793 1573.5352 A 32 32 0 0 0 1494.0273 1569.252 A 32 32 0 0 0 1495.9707 1567.8965 C 1497.8215 1565.971 1499.5838 1564.0404 1501.2695 1562.1211 A 32 32 0 0 0 1504.4668 1557.7402 A 32 32 0 0 0 1506.1543 1556.3477 C 1507.7313 1554.4148 1509.2709 1552.4617 1510.7734 1550.4902 A 32 32 0 0 0 1513.584 1546.0664 A 32 32 0 0 0 1515.0938 1544.6602 C 1516.5166 1542.6857 1517.9021 1540.7038 1519.2539 1538.7188 A 32 32 0 0 0 1521.793 1534.2344 A 32 32 0 0 0 1523.1875 1532.8027 C 1524.48 1530.8117 1525.7421 1528.8189 1526.9766 1526.8262 A 32 32 0 0 0 1529.3066 1522.2832 A 32 32 0 0 0 1530.6152 1520.8242 C 1531.7991 1518.828 1532.9706 1516.8138 1534.127 1514.7793 A 32 32 0 0 0 1536.2598 1510.2246 A 32 32 0 0 0 1537.4805 1508.7695 C 1538.6071 1506.7158 1539.6978 1504.6773 1540.7617 1502.6582 A 32 32 0 0 0 1542.7402 1498.0625 A 32 32 0 0 0 1543.9062 1496.584 C 1544.9634 1494.509 1545.984 1492.4559 1546.9785 1490.4297 A 32 32 0 0 0 1548.8145 1485.8047 A 32 32 0 0 0 1549.9355 1484.2988 C 1550.9212 1482.2245 1551.8862 1480.1552 1552.832 1478.0898 A 32 32 0 0 0 1554.5254 1473.4629 A 32 32 0 0 0 1555.6152 1471.918 C 1556.534 1469.8487 1557.4411 1467.7742 1558.334 1465.6953 A 32 32 0 0 0 1559.9102 1461.0488 A 32 32 0 0 0 1560.9629 1459.4805 C 1561.8272 1457.4062 1562.6858 1455.3138 1563.5352 1453.2051 A 32 32 0 0 0 1564.9922 1448.5645 A 32 32 0 0 0 1566.0098 1446.9766 C 1566.8308 1444.8809 1567.6411 1442.7784 1568.4395 1440.6719 A 32 32 0 0 0 1569.8027 1436 A 32 32 0 0 0 1570.7871 1434.3906 C 1571.5587 1432.2945 1572.3247 1430.1882 1573.0801 1428.0703 A 32 32 0 0 0 1574.3457 1423.3926 A 32 32 0 0 0 1575.291 1421.7793 C 1576.0286 1419.6553 1576.7543 1417.5277 1577.4688 1415.3965 A 32 32 0 0 0 1578.6387 1410.7246 A 32 32 0 0 0 1579.5605 1409.082 C 1580.2551 1406.9549 1580.9384 1404.8271 1581.6113 1402.6973 A 32 32 0 0 0 1582.6973 1398.0039 A 32 32 0 0 0 1583.584 1396.3633 C 1584.2488 1394.2043 1584.8945 1392.0627 1585.5254 1389.9414 A 32 32 0 0 0 1586.5312 1385.2344 A 32 32 0 0 0 1587.3926 1383.5703 C 1588.0141 1381.4217 1588.6244 1379.2709 1589.2246 1377.1191 A 32 32 0 0 0 1590.1484 1372.4121 A 32 32 0 0 0 1590.9824 1370.7344 C 1591.5638 1368.5925 1592.1412 1366.4359 1592.709 1364.2656 A 32 32 0 0 0 1593.5508 1359.5664 A 32 32 0 0 0 1594.3594 1357.873 C 1594.9094 1355.7145 1595.4513 1353.5515 1595.9824 1351.3867 A 32 32 0 0 0 1596.752 1346.6797 A 32 32 0 0 0 1597.5293 1344.9922 C 1598.0585 1342.7821 1598.5626 1340.6172 1599.0508 1338.5 A 32 32 0 0 0 1599.7598 1333.7422 A 32 32 0 0 0 1600.5098 1332.0449 C 1600.9988 1329.8562 1601.4727 1327.6825 1601.9355 1325.5234 A 32 32 0 0 0 1602.5684 1320.7734 A 32 32 0 0 0 1603.3027 1319.041 C 1603.7451 1316.9047 1604.1907 1314.7298 1604.6309 1312.5117 A 32 32 0 0 0 1605.1836 1307.8301 A 32 32 0 0 0 1605.8906 1306.0977 C 1606.3242 1303.863 1606.7307 1301.6827 1607.125 1299.5625 A 32 32 0 0 0 1607.6309 1294.7754 A 32 32 0 0 0 1608.3105 1293.0371 C 1608.6962 1290.8761 1609.0804 1288.6873 1609.457 1286.4707 A 32 32 0 0 0 1609.8789 1281.7754 A 32 32 0 0 0 1610.5371 1280.0293 C 1610.9071 1277.7956 1611.2559 1275.6042 1611.5938 1273.459 A 32 32 0 0 0 1611.9668 1268.6699 A 32 32 0 0 0 1612.6055 1266.8945 C 1612.923 1264.774 1613.2493 1262.5867 1613.5703 1260.3301 A 32 32 0 0 0 1613.8652 1255.625 A 32 32 0 0 0 1614.4785 1253.8535 C 1614.7796 1251.6683 1615.0763 1249.4658 1615.3633 1247.248 A 32 32 0 0 0 1615.5996 1242.5391 A 32 32 0 0 0 1616.1875 1240.7715 C 1616.4664 1238.5457 1616.7309 1236.3418 1616.9863 1234.1602 A 32 32 0 0 0 1617.166 1229.4316 A 32 32 0 0 0 1617.7305 1227.6641 C 1617.9843 1225.4109 1618.2177 1223.209 1618.4434 1221.0605 A 32 32 0 0 0 1618.5684 1216.3008 A 32 32 0 0 0 1619.1055 1214.5371 C 1619.3327 1212.2658 1619.5368 1210.0673 1619.7344 1207.9453 A 32 32 0 0 0 1619.8027 1203.1641 A 32 32 0 0 0 1620.3184 1201.3965 C 1620.5182 1199.1151 1620.6944 1196.9197 1620.8652 1194.8125 A 32 32 0 0 0 1620.877 1190.0195 A 32 32 0 0 0 1621.3691 1188.248 C 1621.5411 1185.9644 1621.6908 1183.7677 1621.8359 1181.6602 A 32 32 0 0 0 1621.7891 1176.8652 A 32 32 0 0 0 1622.2598 1175.0938 C 1622.4037 1172.8155 1622.5285 1170.6136 1622.6484 1168.4902 A 32 32 0 0 0 1622.543 1163.7109 A 32 32 0 0 0 1622.9922 1161.9316 C 1623.1082 1159.666 1623.2082 1157.4575 1623.3027 1155.3066 A 32 32 0 0 0 1623.1387 1150.5625 A 32 32 0 0 0 1623.5703 1148.7637 C 1623.6583 1146.5185 1623.732 1144.3022 1623.8008 1142.1172 A 32 32 0 0 0 1623.5781 1137.4023 A 32 32 0 0 0 1623.9922 1135.584 C 1624.0522 1133.3695 1624.1038 1131.1532 1624.1465 1128.9316 A 32 32 0 0 0 1623.8672 1124.2285 A 32 32 0 0 0 1624.2617 1122.3906 C 1624.2937 1120.224 1624.3238 1118.0108 1624.3398 1115.752 A 32 32 0 0 0 1624.0039 1111.043 A 32 32 0 0 0 1624.3789 1109.1738 L 1624.3887 1105.8906 A 32.0032 32.0032 0 0 0 1624.3887 1105.791 L 1624.3887 1102.6738 A 32 32 0 0 0 1624.0156 1100.8105 A 32 32 0 0 0 1624.3535 1096.1016 C 1624.3385 1093.8567 1624.3122 1091.6415 1624.2812 1089.4551 A 32 32 0 0 0 1623.8906 1087.6309 A 32 32 0 0 0 1624.1719 1082.9141 C 1624.1309 1080.7354 1624.0849 1078.5207 1624.0254 1076.2715 A 32 32 0 0 0 1623.6191 1074.4824 A 32 32 0 0 0 1623.8438 1069.6973 L 1623.7324 1066.2012 A 32.0032 32.0032 0 0 0 1623.7324 1066.1035 L 1623.6309 1063.2031 A 32 32 0 0 0 1623.1992 1061.3711 A 32 32 0 0 0 1623.3672 1056.5254 C 1623.2668 1054.2396 1623.1505 1051.9337 1623.0098 1049.6074 A 32 32 0 0 0 1622.5293 1047.7754 A 32 32 0 0 0 1622.5664 1042.8887 C 1622.3993 1040.5327 1622.2107 1038.2391 1622.0176 1036.0098 A 32 32 0 0 0 1621.4824 1034.166 A 32 32 0 0 0 1621.3867 1029.2793 C 1621.1562 1026.9274 1620.9093 1024.6482 1620.6602 1022.4434 A 32 32 0 0 0 1620.0762 1020.6152 A 32 32 0 0 0 1619.8516 1015.7129 C 1619.5657 1013.4258 1619.2627 1011.1553 1618.9473 1008.9023 A 32 32 0 0 0 1618.3301 1007.1289 A 32 32 0 0 0 1617.9746 1002.2109 C 1617.6397 999.99974 1617.2881 997.74693 1616.9082 995.45312 A 32 32 0 0 0 1616.2539 993.71484 A 32 32 0 0 0 1615.7832 988.82617 C 1615.3988 986.64226 1614.9971 984.40738 1614.5645 982.12305 A 32 32 0 0 0 1613.8613 980.38086 A 32 32 0 0 0 1613.3047 975.60938 C 1612.8517 973.30917 1612.3926 971.09365 1611.9453 968.95898 A 32 32 0 0 0 1611.1934 967.19336 A 32 32 0 0 0 1610.5234 962.37891 C 1610.0345 960.16111 1609.5317 957.94974 1609.0176 955.74805 A 32 32 0 0 0 1608.248 954.05273 A 32 32 0 0 0 1607.4629 949.21289 C 1606.9458 947.09385 1606.4079 944.90685 1605.832 942.65625 A 32 32 0 0 0 1605.0234 940.9668 A 32 32 0 0 0 1604.1797 936.2793 C 1603.5898 934.02887 1603.0008 931.86205 1602.4297 929.77344 A 32 32 0 0 0 1601.5781 928.06836 A 32 32 0 0 0 1600.627 923.32227 C 1600.0138 921.1591 1599.3881 918.99632 1598.75 916.83594 A 32 32 0 0 0 1597.8848 915.18945 A 32 32 0 0 0 1596.8379 910.44336 C 1596.2049 908.36583 1595.5498 906.22681 1594.8574 904.03125 A 32 32 0 0 0 1593.957 902.39062 A 32 32 0 0 0 1592.8633 897.76758 C 1592.1662 895.5982 1591.4667 893.47147 1590.7734 891.38477 A 32 32 0 0 0 1589.8438 889.74805 A 32 32 0 0 0 1588.6465 885.07031 C 1587.9388 882.99742 1587.2126 880.8855 1586.457 878.73828 A 32 32 0 0 0 1585.5039 877.12891 A 32 32 0 0 0 1584.2676 872.5625 C 1583.497 870.40554 1582.7324 868.31682 1581.9883 866.28906 A 32 32 0 0 0 1581 864.66992 A 32 32 0 0 0 1579.6699 860.05664 C 1578.8927 857.98873 1578.1006 855.90562 1577.291 853.80859 A 32 32 0 0 0 1576.291 852.23047 A 32 32 0 0 0 1574.916 847.70312 C 1574.0865 845.58419 1573.2657 843.52564 1572.4629 841.52148 A 32 32 0 0 0 1571.4297 839.93555 A 32 32 0 0 0 1569.9746 835.38477 C 1569.1366 833.33408 1568.2881 831.28111 1567.4277 829.22461 A 32 32 0 0 0 1566.3867 827.67773 A 32 32 0 0 0 1564.8809 823.17773 C 1564.0074 821.1187 1563.134 819.08799 1562.2656 817.08203 A 32 32 0 0 0 1561.1973 815.53516 A 32 32 0 0 0 1559.6289 811.04883 C 1558.7371 809.02114 1557.8379 806.99507 1556.9297 804.97266 A 32 32 0 0 0 1555.8516 803.45703 A 32 32 0 0 0 1554.2285 798.99219 C 1553.3138 796.98279 1552.3914 794.97787 1551.4648 792.97852 A 32 32 0 0 0 1550.3613 791.4668 A 32 32 0 0 0 1548.6914 787.03711 C 1547.7511 785.0342 1546.8043 783.03683 1545.8516 781.04492 A 32 32 0 0 0 1544.7383 779.55664 A 32 32 0 0 0 1543.0078 775.13086 C 1542.0546 773.16366 1541.0899 771.18491 1540.1113 769.19727 A 32 32 0 0 0 1538.9727 767.71289 A 32 32 0 0 0 1537.2109 763.33984 C 1536.2259 761.36075 1535.2354 759.39018 1534.2422 757.42773 A 32 32 0 0 0 1533.0977 755.96875 A 32 32 0 0 0 1531.2656 751.57617 C 1530.2791 749.65157 1529.2748 747.6989 1528.2461 745.7207 A 32 32 0 0 0 1527.0801 744.26758 A 32 32 0 0 0 1525.2305 739.94531 C 1524.2032 737.98716 1523.1735 736.04328 1522.1445 734.11133 A 32 32 0 0 0 1520.9668 732.67188 A 32 32 0 0 0 1519.0449 728.32227 C 1518.0257 726.43265 1516.9847 724.5039 1515.9121 722.54102 A 32 32 0 0 0 1514.7188 721.11523 A 32 32 0 0 0 1512.7891 716.84375 C 1511.7207 714.90253 1510.6548 712.98423 1509.5957 711.08594 A 32 32 0 0 0 1508.3848 709.66406 A 32 32 0 0 0 1506.3887 705.36914 C 1505.3259 703.48558 1504.2477 701.57962 1503.1465 699.65234 A 32 32 0 0 0 1501.9238 698.24609 A 32 32 0 0 0 1499.918 694.02148 C 1498.8086 692.09257 1497.7103 690.20216 1496.6289 688.34375 A 32 32 0 0 0 1495.3848 686.93555 A 32 32 0 0 0 1493.3223 682.69531 C 1492.2151 680.81226 1491.0998 678.92607 1489.9766 677.03906 A 32 32 0 0 0 1488.7324 675.6582 A 32 32 0 0 0 1486.6309 671.4375 C 1485.5183 669.58486 1484.3906 667.71245 1483.2441 665.82422 A 32 32 0 0 0 1481.9844 664.44922 A 32 32 0 0 0 1479.8672 660.28125 C 1478.7156 658.39651 1477.5693 656.53594 1476.4336 654.69727 A 32 32 0 0 0 1475.1582 653.32812 A 32 32 0 0 0 1472.9922 649.15234 C 1471.8395 647.30278 1470.6795 645.44951 1469.5117 643.5957 A 32 32 0 0 0 1468.2363 642.24805 A 32 32 0 0 0 1466.0273 638.08203 C 1464.8732 636.26552 1463.7008 634.42588 1462.5078 632.56641 A 32 32 0 0 0 1461.2207 631.23047 A 32 32 0 0 0 1459 627.11133 C 1457.81 625.26744 1456.6209 623.43884 1455.4375 621.62305 A 32 32 0 0 0 1454.1289 620.28516 A 32 32 0 0 0 1451.877 616.18359 C 1450.6693 614.34315 1449.4682 612.52637 1448.2773 610.72852 A 32 32 0 0 0 1446.959 609.39844 A 32 32 0 0 0 1444.6699 605.30664 C 1443.4543 603.4852 1442.2407 601.67533 1441.0293 599.87695 A 32 32 0 0 0 1439.7012 598.55859 A 32 32 0 0 0 1437.3848 594.49023 C 1436.1594 592.68384 1434.9328 590.88337 1433.7051 589.08984 A 32 32 0 0 0 1432.373 587.78711 A 32 32 0 0 0 1430.0254 583.73242 C 1428.788 581.9368 1427.549 580.14764 1426.3086 578.36328 A 32 32 0 0 0 1424.9668 577.07031 A 32 32 0 0 0 1422.5918 573.03516 C 1421.34 571.24605 1420.0874 569.46633 1418.8379 567.69531 A 32 32 0 0 0 1417.4883 566.41211 A 32 32 0 0 0 1415.084 562.39453 C 1413.8169 560.60999 1412.5541 558.84034 1411.2969 557.08398 A 32 32 0 0 0 1409.9355 555.80664 A 32 32 0 0 0 1407.502 551.80273 C 1406.2289 550.03622 1404.9522 548.27264 1403.6738 546.51367 A 32 32 0 0 0 1402.3086 545.25391 A 32 32 0 0 0 1399.8438 541.25977 C 1398.5665 539.51399 1397.2812 537.76207 1395.9863 536.00586 A 32 32 0 0 0 1394.6094 534.75195 A 32 32 0 0 0 1392.1289 530.79102 C 1390.8313 529.0411 1389.5335 527.29834 1388.2363 525.5625 A 32 32 0 0 0 1386.8535 524.31836 A 32 32 0 0 0 1384.3379 520.36133 C 1383.034 518.62795 1381.724 516.89348 1380.4102 515.16016 A 32 32 0 0 0 1379.0176 513.92383 A 32 32 0 0 0 1376.4805 509.99023 C 1375.1718 508.27432 1373.8488 506.5418 1372.5078 504.79883 A 32 32 0 0 0 1371.1074 503.57422 A 32 32 0 0 0 1368.5703 499.69141 C 1367.2387 497.96598 1365.8989 496.23709 1364.5469 494.50391 A 32 32 0 0 0 1363.1406 493.29102 A 32 32 0 0 0 1360.5801 489.42578 C 1359.2358 487.70732 1357.884 485.98875 1356.5234 484.26758 A 32 32 0 0 0 1355.1113 483.06445 A 32 32 0 0 0 1352.5254 479.2168 C 1351.1609 477.49527 1349.7979 475.78478 1348.4375 474.08594 A 32 32 0 0 0 1347.0293 472.90039 A 32 32 0 0 0 1344.3633 469.00586 L 1341.9258 466 A 32.0032 32.0032 0 0 0 1341.8848 465.95117 L 1340.291 463.98047 A 32 32 0 0 0 1338.8516 462.7832 A 32 32 0 0 0 1336.1836 458.92969 C 1335.4951 458.0855 1334.7835 457.22035 1334.084 456.36523 C 1333.7023 455.0963 1333.3905 453.99072 1332.9023 452.51172 A 32 32 0 0 0 1332.5527 451.89453 L 1336.498 448.65625 A 32 32 0 0 0 1339.8125 445.46875 A 32 32 0 0 0 1341.4453 444.5957 L 1346.3926 440.53516 A 32 32 0 0 0 1349.707 437.34766 A 32 32 0 0 0 1351.3398 436.47461 L 1356.2871 432.41406 A 32 32 0 0 0 1359.6016 429.22656 A 32 32 0 0 0 1361.2344 428.35352 L 1366.1816 424.29492 A 32 32 0 0 0 1369.5 421.10352 A 32 32 0 0 0 1371.127 420.23438 L 1376.0742 416.17383 A 32 32 0 0 0 1379.3887 412.98633 A 32 32 0 0 0 1381.0215 412.11328 L 1385.9688 408.05273 A 32 32 0 0 0 1389.2832 404.86523 A 32 32 0 0 0 1390.916 403.99219 L 1395.8633 399.93164 A 32 32 0 0 0 1407.4648 375.33398 A 32 32 0 0 0 1407.9121 373.27148 A 32 32 0 0 0 1376.4512 340.74023 L 1370.0527 340.63281 A 32 32 0 0 0 1368.2305 340.96289 A 32 32 0 0 0 1363.6523 340.52734 L 1357.2539 340.41992 A 32 32 0 0 0 1355.4316 340.75 A 32 32 0 0 0 1350.8555 340.3125 L 1344.4551 340.20508 A 32 32 0 0 0 1342.6328 340.53516 A 32 32 0 0 0 1338.0566 340.09961 L 1331.6582 339.99219 A 32 32 0 0 0 1329.8359 340.32227 A 32 32 0 0 0 1325.2578 339.88477 L 1318.8594 339.77734 A 32 32 0 0 0 1317.0371 340.10742 A 32 32 0 0 0 1312.459 339.66992 L 1306.0605 339.56445 A 32 32 0 0 0 1304.2461 339.89453 A 32 32 0 0 0 1299.6621 339.45703 L 1293.2617 339.34961 A 32 32 0 0 0 1291.4395 339.67969 A 32 32 0 0 0 1291.2949 339.66602 A 32 32 0 0 0 1293.291 337.77148 A 32 32 0 0 0 1294.9277 336.91016 L 1299.9023 332.88281 A 32 32 0 0 0 1303.2422 329.71289 A 32 32 0 0 0 1304.875 328.85352 L 1309.8496 324.82617 A 32 32 0 0 0 1313.1855 321.66016 A 32 32 0 0 0 1314.8223 320.79883 L 1319.7969 316.77148 A 32 32 0 0 0 1323.1367 313.60156 A 32 32 0 0 0 1324.7695 312.74219 L 1329.7441 308.71484 A 32 32 0 0 0 1336.9746 300.29492 A 32 32 0 0 0 1344.5781 282.16016 A 32 32 0 0 0 1314.332 248.49805 L 1307.9395 248.15625 A 32 32 0 0 0 1306.1035 248.41992 A 32 32 0 0 0 1301.5488 247.81641 L 1295.1582 247.47461 A 32 32 0 0 0 1293.3301 247.73828 A 32 32 0 0 0 1288.7676 247.13281 L 1282.377 246.79102 A 32 32 0 0 0 1280.541 247.05469 A 32 32 0 0 0 1275.9863 246.44922 L 1269.5957 246.10938 A 32 32 0 0 0 1267.7656 246.37305 A 32 32 0 0 0 1263.2031 245.76758 L 1256.8125 245.42578 A 32 32 0 0 0 1254.9844 245.68945 A 32 32 0 0 0 1250.4219 245.08398 L 1244.0312 244.74219 A 32 32 0 0 0 1242.1973 245.00586 A 32 32 0 0 0 1237.6406 244.40039 L 1231.25 244.06055 A 32 32 0 0 0 1229.4199 244.32422 A 32 32 0 0 0 1224.8594 243.71875 L 1218.4688 243.37695 A 32 32 0 0 0 1216.6387 243.64062 A 32 32 0 0 0 1212.0762 243.03516 L 1205.6855 242.69336 A 32 32 0 0 0 1203.8516 242.95703 A 32 32 0 0 0 1199.2949 242.35156 L 1192.9043 242.01172 A 32 32 0 0 0 1191.0742 242.27539 A 32 32 0 0 0 1186.5137 241.66992 L 1180.123 241.32812 A 32 32 0 0 0 1178.2949 241.5918 A 32 32 0 0 0 1173.7324 240.98633 L 1167.3398 240.64453 A 32 32 0 0 0 1165.5039 240.9082 A 32 32 0 0 0 1164.9277 240.83203 C 1164.4161 239.24926 1163.9057 237.66694 1163.4082 236.0918 A 32 32 0 0 0 1162.5332 234.5 A 32 32 0 0 0 1161.5742 230.20703 C 1160.9733 228.25477 1160.3821 226.3035 1159.8008 224.35352 A 32 32 0 0 0 1158.9512 222.74609 A 32 32 0 0 0 1158.0664 218.45312 C 1157.5005 216.49895 1156.9443 214.54635 1156.3984 212.5918 A 32 32 0 0 0 1155.5801 210.97461 A 32 32 0 0 0 1154.7754 206.68555 C 1154.2479 204.73183 1153.7292 202.77248 1153.2188 200.80469 A 32 32 0 0 0 1152.4355 199.18555 A 32 32 0 0 0 1151.7207 194.90625 C 1151.2321 192.94396 1150.7568 190.98787 1150.2949 189.03906 A 32 32 0 0 0 1149.5449 187.39844 A 32 32 0 0 0 1148.9219 183.11719 C 1148.4816 181.1726 1148.0522 179.21863 1147.6328 177.25391 A 32 32 0 0 0 1146.9238 175.60742 A 32 32 0 0 0 1146.4141 171.36719 C 1146.0197 169.40336 1145.6398 167.45353 1145.2793 165.51953 A 32 32 0 0 0 1144.6152 163.85742 A 32 32 0 0 0 1144.2168 159.61719 C 1143.8816 157.68447 1143.563 155.74716 1143.2578 153.80469 A 32 32 0 0 0 1142.6406 152.125 A 32 32 0 0 0 1142.3848 147.96875 C 1142.1094 146.01776 1141.851 144.08624 1141.6152 142.17578 A 32 32 0 0 0 1141.0625 140.50195 A 32 32 0 0 0 1140.9492 136.36133 C 1140.7468 134.45442 1140.5642 132.55621 1140.4043 130.66797 A 32 32 0 0 0 1139.918 128.98047 A 32 32 0 0 0 1139.9727 124.91406 C 1139.8511 123.04006 1139.753 121.17633 1139.6797 119.32617 A 32 32 0 0 0 1139.2715 117.63281 A 32 32 0 0 0 1139.5215 113.71094 C 1139.4935 111.85765 1139.4887 110.02623 1139.5117 108.21484 A 32 32 0 0 0 1139.2637 104.42188 A 32 32 0 0 0 1139.6641 102.78125 C 1139.7411 101.00478 1139.8464 99.242781 1139.9824 97.494141 A 32 32 0 0 0 1139.9824 93.876953 A 32 32 0 0 0 1140.4824 92.320312 C 1140.6786 90.624607 1140.905 88.962566 1141.1641 87.335938 A 32 32 0 0 0 1141.4355 83.951172 A 32 32 0 0 0 1142.0469 82.505859 C 1142.3679 80.958586 1142.7272 79.427244 1143.125 77.914062 A 32 32 0 0 0 1143.7363 74.533203 A 32 32 0 0 0 1144.5 73.126953 C 1144.9815 71.578671 1145.5143 69.995423 1146.0957 68.376953 A 32 32 0 0 0 1147.0371 64.931641 A 32 32 0 0 0 1147.9414 63.548828 C 1148.5825 61.958893 1149.2645 60.357318 1149.9844 58.746094 A 32 32 0 0 0 1151.2402 55.212891 A 32 32 0 0 0 1152.2598 53.867188 C 1153.0371 52.266097 1153.85 50.658442 1154.6973 49.042969 A 32 32 0 0 0 1156.2227 45.482422 A 32 32 0 0 0 1157.3398 44.171875 C 1158.2284 42.582718 1159.1549 40.982197 1160.1152 39.367188 A 32 32 0 0 0 1161.8672 35.8125 A 32 32 0 0 0 1163.0566 34.552734 C 1164.0612 32.950789 1165.0831 31.360866 1166.1211 29.787109 A 32 32 0 0 0 1168.0898 26.224609 A 32 32 0 0 0 1169.3457 25 C 1170.4236 23.433466 1171.5283 21.864541 1172.6582 20.291016 A 32 32 0 0 0 1174.7852 16.775391 A 32 32 0 0 0 1176.0957 15.59375 C 1177.2634 14.028309 1178.4422 12.476641 1179.6309 10.939453 A 32 32 0 0 0 1181.918 7.4453125 A 32 32 0 0 0 1183.2793 6.296875 C 1184.5019 4.7653572 1185.7386 3.2403513 1186.9902 1.7226562 A 32 32 0 0 0 1189.4121 -1.7363281 A 32 32 0 0 0 1190.8145 -2.8496094 C 1192.0885 -4.3519489 1193.384 -5.8541045 1194.6973 -7.359375 A 32 32 0 0 0 1197.2305 -10.769531 A 32 32 0 0 0 1198.6602 -11.84375 C 1199.9927 -13.331697 1201.3348 -14.807923 1202.6836 -16.275391 A 32 32 0 0 0 1205.3281 -19.650391 A 32 32 0 0 0 1206.7871 -20.691406 C 1208.1676 -22.158818 1209.5506 -23.611647 1210.9355 -25.048828 A 32 32 0 0 0 1213.6797 -28.384766 A 32 32 0 0 0 1215.1738 -29.402344 C 1216.5852 -30.837578 1218.0004 -32.262184 1219.4199 -33.671875 A 32 32 0 0 0 1222.2617 -36.976562 A 32 32 0 0 0 1223.7812 -37.964844 C 1225.2191 -39.36805 1226.6655 -40.764288 1228.1211 -42.152344 A 32 32 0 0 0 1231.0391 -45.408203 A 32 32 0 0 0 1232.5742 -46.363281 C 1234.0498 -47.746694 1235.5299 -49.119162 1237.0137 -50.480469 A 32 32 0 0 0 1240.002 -53.6875 A 32 32 0 0 0 1241.5605 -54.619141 C 1243.0459 -55.960424 1244.5581 -57.308904 1246.0957 -58.669922 A 32 32 0 0 0 1249.1133 -61.796875 A 32 32 0 0 0 1250.6973 -62.701172 C 1252.2187 -64.024061 1253.7547 -65.347323 1255.3066 -66.669922 A 32 32 0 0 0 1258.3828 -69.740234 A 32 32 0 0 0 1259.9707 -70.607422 C 1261.5312 -71.912552 1263.0901 -73.203982 1264.6484 -74.480469 A 32 32 0 0 0 1267.7793 -77.484375 A 32 32 0 0 0 1269.3828 -78.320312 C 1270.9501 -79.57952 1272.5107 -80.818622 1274.0664 -82.035156 A 32 32 0 0 0 1277.459 -85.146484 A 32 32 0 0 0 1279.3906 -86.146484 C 1278.3761 -85.336392 1278.807 -85.646663 1280.4238 -86.912109 C 1281.2323 -87.544834 1282.3467 -88.29519 1284.6504 -90.779297 C 1286.9541 -93.263403 1294.9907 -97.026883 1293.2266 -115.85547 C 1292.3445 -125.26976 1285.2962 -135.31809 1279.4141 -139.35938 C 1273.532 -143.40067 1269.4426 -144.07662 1266.6426 -144.57031 C 1261.0424 -145.5577 1259.0959 -145.0864 1257.2754 -144.91992 C 1255.4103 -144.74937 1254.3564 -144.44875 1253.0645 -144.21094 A 32 32 0 0 0 1250.6348 -144.48633 L 1244.2383 -144.70508 A 32 32 0 0 0 1242.4141 -144.40625 A 32 32 0 0 0 1237.8418 -144.92383 L 1231.4453 -145.14258 A 32 32 0 0 0 1229.6211 -144.84375 A 32 32 0 0 0 1225.0488 -145.36133 L 1218.6523 -145.58008 A 32 32 0 0 0 1216.8281 -145.28125 A 32 32 0 0 0 1212.2578 -145.79883 L 1205.8613 -146.01758 A 32 32 0 0 0 1204.0371 -145.71875 A 32 32 0 0 0 1199.4648 -146.23633 L 1193.0684 -146.45508 A 32 32 0 0 0 1191.2441 -146.15625 A 32 32 0 0 0 1186.6719 -146.67383 L 1180.2754 -146.89258 A 32 32 0 0 0 1178.4512 -146.59375 A 32 32 0 0 0 1173.8789 -147.11133 L 1167.4824 -147.33008 A 32 32 0 0 0 1165.6582 -147.03125 A 32 32 0 0 0 1161.0879 -147.54883 L 1154.6914 -147.76758 A 32 32 0 0 0 1152.8613 -147.46875 A 32 32 0 0 0 1148.2949 -147.98633 L 1141.8984 -148.20508 A 32 32 0 0 0 1140.0684 -147.90625 A 32 32 0 0 0 1135.502 -148.42383 L 1129.1055 -148.64258 A 32 32 0 0 0 1127.2754 -148.34375 A 32 32 0 0 0 1122.709 -148.86133 L 1116.3125 -149.08008 A 32 32 0 0 0 1114.4824 -148.78125 A 32 32 0 0 0 1109.916 -149.29688 L 1103.5215 -149.51562 A 32 32 0 0 0 1101.6973 -149.2168 A 32 32 0 0 0 1097.125 -149.73438 L 1090.7285 -149.95312 A 32 32 0 0 0 1088.9043 -149.6543 A 32 32 0 0 0 1084.332 -150.17188 L 1077.9355 -150.39062 A 32 32 0 0 0 1076.1113 -150.0918 A 32 32 0 0 0 1071.5391 -150.60938 L 1065.1426 -150.82812 A 32 32 0 0 0 1063.3184 -150.5293 A 32 32 0 0 0 1058.7461 -151.04688 L 1052.3496 -151.26562 A 32 32 0 0 0 1050.5254 -150.9668 A 32 32 0 0 0 1045.9551 -151.48438 L 1039.5586 -151.70312 A 32 32 0 0 0 1037.7344 -151.4043 A 32 32 0 0 0 1033.1621 -151.92188 L 1026.7656 -152.14062 A 32 32 0 0 0 1024.9414 -151.8418 A 32 32 0 0 0 1020.3691 -152.35938 L 1013.9727 -152.57812 A 32 32 0 0 0 1012.1484 -152.2793 A 32 32 0 0 0 1007.5762 -152.79688 L 1001.1797 -153.01562 A 32 32 0 0 0 999.35547 -152.7168 A 32 32 0 0 0 994.7832 -153.23438 L 988.38867 -153.45312 A 32 32 0 0 0 986.56445 -153.1543 A 32 32 0 0 0 981.99219 -153.67188 L 975.5957 -153.89062 A 32 32 0 0 0 973.77148 -153.5918 A 32 32 0 0 0 969.19922 -154.10938 L 962.80273 -154.32812 A 32 32 0 0 0 960.97852 -154.0293 A 32 32 0 0 0 956.40625 -154.54688 L 950.00977 -154.76562 A 32 32 0 0 0 948.18555 -154.4668 A 32 32 0 0 0 943.61328 -154.98438 L 937.2168 -155.20312 A 32 32 0 0 0 935.39258 -154.9043 A 32 32 0 0 0 930.82227 -155.42188 L 924.42578 -155.64062 A 32 32 0 0 0 922.59375 -155.3418 A 32 32 0 0 0 918.0293 -155.85938 L 911.63281 -156.07812 A 32 32 0 0 0 909.80273 -155.7793 A 32 32 0 0 0 905.23633 -156.29688 L 898.83984 -156.51562 A 32 32 0 0 0 897.00977 -156.2168 A 32 32 0 0 0 892.44336 -156.73438 L 886.04688 -156.95312 A 32 32 0 0 0 884.2168 -156.6543 A 32 32 0 0 0 879.65234 -157.17188 L 873.25586 -157.38867 A 32 32 0 0 0 871.43164 -157.08984 A 32 32 0 0 0 866.85938 -157.60742 L 860.46289 -157.82617 A 32 32 0 0 0 858.63867 -157.52734 A 32 32 0 0 0 854.06641 -158.04492 L 847.66992 -158.26367 A 32 32 0 0 0 845.8457 -157.96484 A 32 32 0 0 0 841.27344 -158.48242 L 834.87695 -158.70117 A 32 32 0 0 0 833.05273 -158.40234 A 32 32 0 0 0 828.48047 -158.91992 L 822.08594 -159.13867 A 32 32 0 0 0 820.26172 -158.83984 A 32 32 0 0 0 815.68945 -159.35742 L 809.29297 -159.57617 A 32 32 0 0 0 807.46875 -159.27734 A 32 32 0 0 0 806.09766 -159.43164 A 32 32 0 0 0 805.60547 -159.48828 A 32 32 0 0 0 802.89648 -159.79492 L 802.42578 -159.81055 z M 1163.0039 240.41211 L 1164.5664 240.49609 L 1164.6719 240.79883 A 32 32 0 0 0 1163.1055 240.58984 A 32 32 0 0 0 1163.0039 240.41211 z "
         inkscape:label="blush" />
      <g
         id="g13003"
         inkscape:label="face"
         transform="matrix(1,0,0,-1,6.2447382,1625.2897)">
        <path
           style="opacity:1;fill:none;fill-opacity:1;stroke:#65471b;stroke-width:64;stroke-linecap:round;stroke-linejoin:round;stroke-miterlimit:4;stroke-dasharray:none;stroke-dashoffset:0;stroke-opacity:1;paint-order:fill markers stroke;stop-color:#000000"
           d="m 83.898236,1201.0695 68.443294,6.6235 -37.53342,39.7413"
           id="path2163"
           inkscape:label="left nostril" />
        <path
           style="opacity:1;fill:none;fill-opacity:1;stroke:#65471b;stroke-width:64;stroke-linecap:round;stroke-linejoin:round;stroke-miterlimit:4;stroke-dasharray:none;stroke-dashoffset:0;stroke-opacity:1;paint-order:fill markers stroke;stop-color:#000000"
           d="m 401.82839,1251.85 -59.6119,-44.157 121.43166,-17.6628"
           id="path2198"
           inkscape:label="right nostril" />
        <path
           style="opacity:1;fill:#ffffff;fill-opacity:1;stroke:#65471b;stroke-width:64;stroke-linecap:round;stroke-linejoin:round;stroke-miterlimit:4;stroke-dasharray:none;stroke-dashoffset:0;stroke-opacity:1;paint-order:fill markers stroke;stop-color:#000000"
           d="m 222.99268,1530.0389 -90.52178,-183.2514 90.52178,-72.859 103.76887,66.2354 z"
           id="path2202"
           sodipodi:nodetypes="ccccc"
           inkscape:label="toof" />
      </g>
      <g
         id="g12993"
         inkscape:label="right eye"
         transform="matrix(1,0,0,-1,6.2447382,1625.2897)">
        <path
           style="opacity:1;fill:#65471b;fill-opacity:1;stroke:#65471b;stroke-width:64;stroke-linecap:round;stroke-linejoin:round;stroke-miterlimit:4;stroke-dasharray:none;stroke-dashoffset:0;stroke-opacity:1;paint-order:fill markers stroke;stop-color:#000000"
           d="m 661.97569,1226.0485 53.36716,-115.5008 86.53085,168.711 z"
           id="path7852"
           inkscape:label="eyenub"
           sodipodi:nodetypes="cccc" />
        <path
           id="path1915"
           style="opacity:1;fill:#fefefe;stroke:#65471b;stroke-width:64;stroke-linecap:round;stroke-linejoin:round;paint-order:fill markers stroke;stop-color:#000000"
           inkscape:label="righteye"
           d="m 1150.289,1075.2222 c 0,120.7167 -151.8603,218.5769 -272.57702,218.5769 -120.71671,0 -164.57695,-71.8602 -164.57699,-192.5769 -2e-5,-120.71675 97.86024,-244.57702 218.57699,-244.57701 120.71672,-2e-5 218.57702,97.86025 218.57702,218.57701 z"
           sodipodi:nodetypes="sssss" />
        <path
           style="opacity:1;fill:#ffffff;fill-opacity:1;stroke:#65471b;stroke-width:48;stroke-linecap:round;stroke-linejoin:round;stroke-miterlimit:4;stroke-dasharray:none;stroke-dashoffset:0;stroke-opacity:1;paint-order:fill markers stroke;stop-color:#000000"
           d="m 841.19021,982.4925 v 80.3885"
           id="path2350"
           inkscape:label="right pupil" />
      </g>
      <path
         style="opacity:1;fill:none;fill-opacity:1;stroke:#ffcb4c;stroke-width:32;stroke-linecap:round;stroke-linejoin:round;stroke-miterlimit:4;stroke-dasharray:none;stroke-dashoffset:0;stroke-opacity:1;paint-order:fill markers stroke;stop-color:#000000"
         d="M 583.8119,1550.5605 C 709.41352,1294.7928 777.2653,1034.2083 733.12357,764.28281"
         id="path6280"
         sodipodi:nodetypes="cc"
         inkscape:label="eyelash right big"
         inkscape:transform-center-x="75.603329"
         inkscape:transform-center-y="356.55721" />
      <path
         style="display:inline;fill:none;fill-opacity:1;stroke:#ffcb4c;stroke-width:32;stroke-linecap:round;stroke-linejoin:round;stroke-miterlimit:4;stroke-dasharray:none;stroke-dashoffset:0;stroke-opacity:1;paint-order:fill markers stroke;stop-color:#000000"
         d="M 829.31361,1336.8614 C 848.15343,1165.4801 841.62809,969.02908 807.86049,811.85561"
         id="path6280-0"
         sodipodi:nodetypes="cc"
         inkscape:label="eyelash right small"
         inkscape:transform-center-x="-16.108796"
         inkscape:transform-center-y="225.10948" />
    </g>
  </g>
</svg>
