<?xml version="1.0" encoding="UTF-8" standalone="no"?>
<!-- Created with Inkscape (http://www.inkscape.org/) -->

<svg
   version="1.1"
   id="svg824"
   width="1706.6667"
   height="1706.6667"
   viewBox="0 0 1706.6667 1706.6667"
   sodipodi:docname="ying_head_tilt.svg"
   inkscape:version="1.1 (c68e22c387, 2021-05-23)"
   inkscape:export-filename="D:\Pictures\yingmotes\ying_confused.png"
   inkscape:export-xdpi="72"
   inkscape:export-ydpi="72"
   xmlns:inkscape="http://www.inkscape.org/namespaces/inkscape"
   xmlns:sodipodi="http://sodipodi.sourceforge.net/DTD/sodipodi-0.dtd"
   xmlns="http://www.w3.org/2000/svg"
   xmlns:svg="http://www.w3.org/2000/svg">
  <defs
     id="defs828">
    <rect
       x="46.835537"
       y="1064.7279"
       width="593.25013"
       height="574.51592"
       id="rect14460" />
  </defs>
  <sodipodi:namedview
     id="namedview826"
     pagecolor="#ffffff"
     bordercolor="#666666"
     borderopacity="1.0"
     inkscape:pageshadow="2"
     inkscape:pageopacity="0.0"
     inkscape:pagecheckerboard="0"
     showgrid="false"
     inkscape:zoom="0.32026963"
     inkscape:cx="290.38033"
     inkscape:cy="754.05214"
     inkscape:window-width="1920"
     inkscape:window-height="1001"
     inkscape:window-x="-9"
     inkscape:window-y="-9"
     inkscape:window-maximized="1"
     inkscape:current-layer="g12988" />
  <g
     id="layer1"
     inkscape:label="Ying"
     style="display:inline"
     inkscape:groupmode="layer">
    <path
       style="display:none;fill:#123456;stroke:#123456;stroke-width:64;stroke-linecap:round;stroke-linejoin:round;-inkscape-stroke:none;paint-order:fill markers stroke;stop-color:#000000"
       d="m 1298.031,865.09775 c 70.7982,131.45402 185.3824,239.02475 198.7064,401.82835 -29.438,-19.1346 -55.9321,-14.719 -79.4825,13.2471 91.0222,54.7003 58.5139,175.917 81.6903,267.1496 l -99.3531,6.6236 c 66.7588,58.9185 81.773,128.1858 90.5218,198.7063 l -494.50725,2.2079 c -24.3802,-41.4813 23.11455,-208.5632 66.23555,-227.0436 0,0 3.3791,-20.0154 -75.35325,-9.4549 C 1015.23,1271.0896 1172.1837,1096.1858 1298.031,865.09775 Z"
       id="path3091"
       sodipodi:nodetypes="cccccccccc"
       inkscape:label="mane" />
    <path
       style="opacity:1;fill:#ffcb4c;fill-opacity:1;stroke:#ffcb4c;stroke-width:64;stroke-linecap:round;stroke-linejoin:round;stroke-miterlimit:4;stroke-dasharray:none;stroke-dashoffset:0;stroke-opacity:1;paint-order:fill markers stroke;stop-color:#000000"
       d="m 848.0933,1338.888 -170.94545,183.3053 106.5349,-0.5425 -38.55319,212.7338 465.62854,-0.094 c 0,0 -152.5855,-59.8865 -174.1805,-150.1928 -21.5949,-90.3062 119.7348,-284.4737 119.7348,-284.4737 z"
       id="path3340"
       inkscape:label="neck"
       sodipodi:nodetypes="cccccscc" />
    <g
       id="g12988"
       inkscape:label="head"
       inkscape:transform-center-x="-166.03022"
       inkscape:transform-center-y="-531.47196"
       transform="rotate(35.721316,997.3237,995.09923)"
       inkscape:groupmode="layer">
      <path
         style="display:inline;fill:none;fill-opacity:1;stroke:#f19020;stroke-width:32;stroke-linecap:round;stroke-linejoin:round;stroke-miterlimit:4;stroke-dasharray:none;stroke-dashoffset:0;stroke-opacity:1;paint-order:fill markers stroke;stop-color:#000000"
         d="m 96.355928,750.04929 c 172.380622,3.3773 366.357362,35.13579 517.876622,88.85401"
         id="path6280-0-6"
         sodipodi:nodetypes="cc"
         inkscape:label="eyelash left small"
         inkscape:transform-center-x="164.42517"
         inkscape:transform-center-y="-183.21914" />
      <path
         style="display:inline;fill:none;fill-opacity:1;stroke:#f19020;stroke-width:32;stroke-linecap:round;stroke-linejoin:round;stroke-miterlimit:4;stroke-dasharray:none;stroke-dashoffset:0;stroke-opacity:1;paint-order:fill markers stroke;stop-color:#000000"
         d="M -69.547232,621.35688 C 215.26218,612.60967 480.60573,658.44565 708.19934,810.13406"
         id="path6280-3"
         sodipodi:nodetypes="cc"
         inkscape:label="eyelash left big"
         inkscape:transform-center-x="147.66006"
         inkscape:transform-center-y="-268.13783" />
      <path
         style="opacity:1;fill:#f19020;fill-opacity:1;stroke:#f19020;stroke-width:64;stroke-linecap:round;stroke-miterlimit:4;stroke-dasharray:none;stroke-dashoffset:0;stroke-opacity:1;paint-order:fill markers stroke;stop-color:#000000"
         d="m 841.19021,982.4925 c 0,0 -155.81049,-84.47727 -282.61606,-216.04975 C 419.07539,621.69994 317.71885,415.51111 362.24102,363.34064 c 44.5222,-52.1705 262.38733,5.56111 382.15728,81.89084 119.76995,76.32975 316.8243,313.91843 316.8243,313.91843 z"
         id="path1640"
         inkscape:label="left ear"
         sodipodi:nodetypes="cssscc"
         inkscape:transform-center-x="-2.4809287"
         inkscape:transform-center-y="-288.19752" />
      <g
         id="g12997"
         inkscape:label="left eye">
        <path
           id="path1915-9"
           style="display:inline;fill:#fefefe;stroke:#65471b;stroke-width:64;stroke-linecap:round;stroke-linejoin:round;paint-order:fill markers stroke;stop-color:#000000"
           inkscape:label="lefteye"
           d="m 792.61751,1048.7279 c 10e-6,120.7167 -155.86024,218.577 -276.57698,218.577 -120.71674,0 -160.57699,-55.8603 -160.57698,-176.577 0,-120.71673 97.86025,-260.57698 218.57698,-260.57698 120.71673,0 218.57698,97.86025 218.57698,218.57698 z"
           sodipodi:nodetypes="sssss" />
        <path
           style="opacity:1;fill:#ffffff;fill-opacity:1;stroke:#65471b;stroke-width:48;stroke-linecap:round;stroke-linejoin:round;stroke-miterlimit:4;stroke-dasharray:none;stroke-dashoffset:0;stroke-opacity:1;paint-order:fill markers stroke;stop-color:#000000"
           d="M 498.97372,962.62186 V 1132.6262"
           id="path2372"
           inkscape:label="left pupil" />
      </g>
      <path
         id="path1148"
         style="display:inline;opacity:1;fill:#ffcb4c;stroke:#ffcb4c;stroke-width:64;stroke-linecap:round;stroke-linejoin:round;stroke-miterlimit:4;stroke-dasharray:6.4, 6.4;stroke-dashoffset:0;stroke-opacity:1;paint-order:fill markers stroke;stop-color:#000000"
         inkscape:label="head"
         d="m 666.95508,1275.2539 c -1.24673,-1.1269 -0.83192,-0.7586 -2.11524,-1.918 -32.18554,-29.0779 -75.68714,-68.2147 -120.94922,-108.4472 -22.63103,-20.1163 -45.7023,-40.5065 -68.01953,-60.0508 -22.31722,-19.5443 -43.87934,-38.2428 -63.49414,-54.9746 -19.61479,-16.7319 -37.2829,-31.4968 -51.80664,-43.1758 -7.26187,-5.8395 -13.73806,-10.90823 -19.27929,-15.06445 -5.54124,-4.15623 -10.14595,-7.40087 -13.66797,-9.59375 -4.04433,-2.51809 -8.05893,-5.5518 -12.03125,-9.02735 -3.97233,-3.47554 -7.90308,-7.39142 -11.7793,-11.67578 -3.87622,-4.28435 -7.69907,-8.93633 -11.45508,-13.88086 -3.75601,-4.94452 -7.44494,-10.18262 -11.05664,-15.63867 -3.6117,-5.45605 -7.1446,-11.13029 -10.58789,-16.94922 -3.44329,-5.81892 -6.79806,-11.78129 -10.04883,-17.81445 -6.50154,-12.06632 -12.59281,-24.41393 -18.17968,-36.44531 -5.58688,-12.03138 -10.66906,-23.74741 -15.14844,-34.55469 -4.47938,-10.80728 -8.35609,-20.7056 -11.53516,-29.09961 -6.35814,-16.78803 -9.92383,-27.56055 -9.92383,-27.56055 l -114.214841,6.20508 c -9.336966,100.05921 28.662301,218.3845 193.802731,306.66011 187.91254,100.4484 257.48922,135.6172 381.49024,193.0059 z"
         transform="rotate(-35.721316,997.3237,995.09923)" />
      <path
         id="path10138"
         style="display:inline;opacity:1;fill:#ffcb4c;stroke:#ffcb4c;stroke-width:64;stroke-linecap:round;stroke-linejoin:round;stroke-miterlimit:4;stroke-dasharray:6.4, 6.4;stroke-dashoffset:0;stroke-opacity:1;paint-order:fill markers stroke;stop-color:#000000"
         inkscape:label="head"
         d="m 203.9668,604.54883 c -30.85637,-1.00025 -60.16993,12.68656 -80.64258,56.51758 -15.08939,32.30567 -27.671467,71.75591 -31.662111,114.52148 l 114.214841,-6.20508 c 0,0 3.56569,10.77252 9.92383,27.56055 3.17907,8.39401 7.05578,18.29233 11.53516,29.09961 4.47938,10.80728 9.56156,22.52331 15.14844,34.55469 5.58687,12.03138 11.67814,24.37899 18.17968,36.44531 3.25077,6.03316 6.60554,11.99553 10.04883,17.81445 3.44329,5.81893 6.97619,11.49317 10.58789,16.94922 3.6117,5.45605 7.30063,10.69415 11.05664,15.63867 3.75601,4.94453 7.57886,9.59651 11.45508,13.88086 3.87622,4.28436 7.80697,8.20024 11.7793,11.67578 3.97232,3.47555 7.98692,6.50926 12.03125,9.02735 3.52202,2.19288 8.12673,5.43752 13.66797,9.59375 5.54123,4.15622 12.01742,9.22495 19.27929,15.06445 14.52374,11.679 32.19185,26.4439 51.80664,43.1758 19.6148,16.7318 41.17692,35.4303 63.49414,54.9746 22.31723,19.5443 45.3885,39.9345 68.01953,60.0508 45.26208,40.2325 88.76368,79.3693 120.94922,108.4472 1.28332,1.1594 0.86851,0.7911 2.11524,1.918 31.5488,14.6011 63.69684,29.3965 105.64453,48.5313 21.23675,9.6873 54.41344,16.5672 92.06445,20.6992 l 180.30664,115.5879 -31.5059,-115.3516 c 7.176,-0.8017 14.2808,-1.7013 21.2383,-2.7559 l 116.7324,81.0215 -28.2363,-106.1172 c 6.6521,-3.2886 12.8628,-6.7885 18.2754,-10.6386 2.6536,-1.8876 5.5198,-4.1928 8.2988,-6.3203 0,0 6.231,-8.8478 15.8204,-23.627 4.7946,-7.3896 10.43,-16.2611 16.5449,-26.252 6.1149,-9.9908 12.7108,-21.0996 19.4277,-32.9628 6.717,-11.8632 13.5533,-24.4799 20.1543,-37.4864 6.6009,-13.0065 12.9656,-26.4033 18.7324,-39.8242 2.8834,-6.7104 5.618,-13.4281 8.1582,-20.1055 2.5402,-6.6773 4.8849,-13.3141 6.9922,-19.8671 2.1073,-6.5531 3.9779,-13.0197 5.5625,-19.3575 1.5846,-6.3377 2.8833,-12.5469 3.8555,-18.5781 0.9721,-6.0313 1.4791,-12.2213 1.5742,-18.5273 0.095,-6.3061 -0.2215,-12.7288 -0.8945,-19.2227 -0.6731,-6.4939 -1.7028,-13.0594 -3.0352,-19.6543 -1.3324,-6.59489 -2.9668,-13.21916 -4.8496,-19.82811 -1.8829,-6.60901 -4.0133,-13.20206 -6.3379,-19.73828 -2.3245,-6.53616 -4.8426,-13.01416 -7.5,-19.39063 -5.3148,-12.75298 -11.1865,-25.10063 -17.1797,-36.69336 -5.9932,-11.59273 -12.1073,-22.43065 -17.9082,-32.16797 -5.8008,-9.73731 -11.2895,-18.3719 -16.0273,-25.55859 -9.4759,-14.37349 -15.9551,-22.95313 -15.9551,-22.95313 C 1099.51,752.76224 984.34506,698.22007 888.06055,694.31445 766.86197,689.39825 673.8023,757.79421 602.98828,750.38086 532.17435,742.9674 375.04035,681.63369 326.36133,654.78516 297.45815,638.84384 249.06457,606.01073 203.9668,604.54883 Z"
         transform="rotate(-35.721316,997.3237,995.09923)" />
      <path
         style="display:none;fill:#123456;stroke:#123456;stroke-width:64;stroke-linecap:round;stroke-linejoin:round;-inkscape-stroke:none;paint-order:fill markers stroke;stop-color:#000000"
         d="M 880.93148,744.0449 C 763.91552,771.643 622.61323,916.25706 622.61323,916.25706 620.95257,833.21142 611.27974,749.4374 735.2135,677.80944 c -124.69479,-7.45678 -249.2876,-15.1175 -408.45194,46.36482 0,0 303.22641,-263.62224 490.14233,-280.39675 172.2122,-15.45493 264.94181,37.53343 264.94181,37.53343 -0.1923,-45.68323 -31.4577,-88.25915 -90.52179,-128.0552 0,0 295.85169,97.14532 333.38509,194.29065 37.5334,97.14533 28.702,167.79647 28.702,167.79647 l -243.7525,34.92308 c 0,0 -111.71105,-33.81914 -228.72702,-6.22104 z"
         id="path1637"
         sodipodi:nodetypes="zcccsccsccz"
         inkscape:label="top hair" />
      <path
         id="path13483"
         style="display:inline;opacity:1;fill:#ffcb4c;stroke:#ffcb4c;stroke-width:64;stroke-linecap:round;stroke-linejoin:round;stroke-miterlimit:4;stroke-dasharray:6.4, 6.4;stroke-dashoffset:0;stroke-opacity:1;paint-order:fill markers stroke;stop-color:#000000"
         inkscape:label="right ear"
         d="m 1004.183,41.727265 c -70.55306,36.602671 -81.66439,363.292245 -66.32407,452.274305 13.65814,79.22447 36.2912,284.77149 42.65615,343.0468 57.66232,327.89933 201.29002,535.22013 408.64012,237.35993 31.8549,-148.93455 78.0668,-451.70175 -16.9135,-654.03978 C 1242.2021,143.34351 1049.935,17.991245 1004.183,41.727265 Z"
         inkscape:transform-center-x="-180.42712"
         inkscape:transform-center-y="-292.96137"
         sodipodi:nodetypes="ssccss" />
      <g
         id="g13003"
         inkscape:label="face">
        <path
           style="opacity:1;fill:none;fill-opacity:1;stroke:#65471b;stroke-width:64;stroke-linecap:round;stroke-linejoin:round;stroke-miterlimit:4;stroke-dasharray:none;stroke-dashoffset:0;stroke-opacity:1;paint-order:fill markers stroke;stop-color:#000000"
           d="m 83.898236,1201.0695 68.443294,6.6235 -37.53342,39.7413"
           id="path2163"
           inkscape:label="left nostril" />
        <path
           style="opacity:1;fill:none;fill-opacity:1;stroke:#65471b;stroke-width:64;stroke-linecap:round;stroke-linejoin:round;stroke-miterlimit:4;stroke-dasharray:none;stroke-dashoffset:0;stroke-opacity:1;paint-order:fill markers stroke;stop-color:#000000"
           d="m 401.82839,1251.85 -59.6119,-44.157 121.43166,-17.6628"
           id="path2198"
           inkscape:label="right nostril" />
        <path
           style="opacity:1;fill:#ffffff;fill-opacity:1;stroke:#65471b;stroke-width:64;stroke-linecap:round;stroke-linejoin:round;stroke-miterlimit:4;stroke-dasharray:none;stroke-dashoffset:0;stroke-opacity:1;paint-order:fill markers stroke;stop-color:#000000"
           d="m 222.99268,1530.0389 -90.52178,-183.2514 90.52178,-72.859 103.76887,66.2354 z"
           id="path2202"
           sodipodi:nodetypes="ccccc"
           inkscape:label="toof" />
      </g>
      <g
         id="g12993"
         inkscape:label="right eye">
        <path
           style="opacity:1;fill:#65471b;fill-opacity:1;stroke:#65471b;stroke-width:64;stroke-linecap:round;stroke-linejoin:round;stroke-miterlimit:4;stroke-dasharray:none;stroke-dashoffset:0;stroke-opacity:1;paint-order:fill markers stroke;stop-color:#000000"
           d="m 661.97569,1226.0485 53.36716,-115.5008 86.53085,168.711 z"
           id="path7852"
           inkscape:label="eyenub"
           sodipodi:nodetypes="cccc" />
        <path
           id="path1915"
           style="opacity:1;fill:#fefefe;stroke:#65471b;stroke-width:64;stroke-linecap:round;stroke-linejoin:round;paint-order:fill markers stroke;stop-color:#000000"
           inkscape:label="righteye"
           d="m 1150.289,1075.2222 c 0,120.7167 -151.8603,218.5769 -272.57702,218.5769 -120.71671,0 -164.57695,-71.8602 -164.57699,-192.5769 -2e-5,-120.71675 97.86024,-244.57702 218.57699,-244.57701 120.71672,-2e-5 218.57702,97.86025 218.57702,218.57701 z"
           sodipodi:nodetypes="sssss" />
        <path
           style="opacity:1;fill:#ffffff;fill-opacity:1;stroke:#65471b;stroke-width:48;stroke-linecap:round;stroke-linejoin:round;stroke-miterlimit:4;stroke-dasharray:none;stroke-dashoffset:0;stroke-opacity:1;paint-order:fill markers stroke;stop-color:#000000"
           d="m 841.19021,982.4925 v 189.8749"
           id="path2350"
           inkscape:label="right pupil" />
      </g>
      <path
         id="path19479"
         style="opacity:1;fill:#00ff00;stroke:#000000;stroke-width:127.999;stroke-linecap:round;stroke-linejoin:round;stroke-miterlimit:4;stroke-dasharray:12.7999, 12.7999;stroke-dashoffset:0;paint-order:markers stroke fill;stop-color:#000000"
         d="m 1274.514,584.15905 a 111.08957,105.50131 87.887987 0 1 -21.4224,155.37944 111.08957,105.50131 87.887987 0 1 -147.6667,-23.14513 111.08957,105.50131 87.887987 0 1 21.4225,-155.37945 111.08957,105.50131 87.887987 0 1 147.6666,23.14514 z M 910.9749,23.987549 a 85.925706,81.603295 87.887991 0 0 -13.05126,1.179388 85.925706,81.603295 87.887991 0 0 -13.11427,-0.244907 c -8.70331,0.868365 -17.34612,2.291883 -25.88864,4.266186 a 85.925706,81.603295 87.887991 0 0 -12.39439,4.447813 85.925706,81.603295 87.887991 0 0 -12.72444,3.057615 c -8.21831,3.02954 -16.22975,6.567924 -24.00282,10.588422 a 85.925706,81.603295 87.887991 0 0 -10.97318,7.392652 85.925706,81.603295 87.887991 0 0 -11.66697,6.150915 c -7.31875,5.013508 -14.33998,10.490422 -21.02966,16.40831 a 85.925706,81.603295 87.887991 0 0 -9.00394,9.986081 85.925706,81.603295 87.887991 0 0 -9.94533,8.95623 c -5.95179,6.718806 -11.50448,13.808036 -16.63515,21.232806 a 85.925706,81.603295 87.887991 0 0 -6.44727,11.95416 85.925706,81.603295 87.887991 0 0 -7.58175,11.15302 c -4.24372,8.0133 -8.01621,16.27648 -11.305,24.74924 a 85.925706,81.603295 87.887991 0 0 -3.55022,13.22404 85.925706,81.603295 87.887991 0 0 -4.84236,12.75643 c -2.30283,8.83825 -4.10139,17.82691 -5.37986,26.92854 a 85.925706,81.603295 87.887991 0 0 -0.45127,13.76281 85.925706,81.603295 87.887991 0 0 -1.80687,13.65313 c -0.2289,9.21389 0.0749,18.4298 0.90964,27.60642 a 85.925706,81.603295 87.887991 0 0 2.70144,13.50759 85.925706,81.603295 87.887991 0 0 1.35861,13.71113 c 1.87482,8.99545 4.25629,17.82135 7.11299,26.44594 a 85.925706,81.603295 87.887991 0 0 103.9519,53.20631 85.925706,81.603295 87.887991 0 0 50.14195,-109.24105 c -0.73047,-2.20534 -1.32847,-4.42997 -1.78758,-6.63339 a 85.925706,81.603295 87.887991 0 0 -0.78212,-2.42074 85.925706,81.603295 87.887991 0 0 -0.22269,-4.31188 c -0.20281,-2.23108 -0.27629,-4.48666 -0.22127,-6.72332 a 85.925706,81.603295 87.887991 0 0 -0.0621,-4.31966 85.925706,81.603295 87.887991 0 0 0.62178,-2.47167 c 0.3125,-2.2247 0.75754,-4.45722 1.3304,-6.65591 a 85.925706,81.603295 87.887991 0 0 0.92924,-4.24651 85.925706,81.603295 87.887991 0 0 1.17096,-2.25436 c 0.8217,-2.11766 1.76543,-4.18223 2.81207,-6.15856 a 85.925706,81.603295 87.887991 0 0 1.86424,-3.89046 85.925706,81.603295 87.887991 0 0 1.64666,-1.89303 c 1.25911,-1.82201 2.62917,-3.57044 4.08469,-5.21354 a 85.925706,81.603295 87.887991 0 0 2.65338,-3.25713 85.925706,81.603295 87.887991 0 0 2.01111,-1.40531 c 1.62541,-1.43785 3.34698,-2.78259 5.13279,-4.0056 a 85.925706,81.603295 87.887991 0 0 3.37199,-2.52433 85.925706,81.603295 87.887991 0 0 2.30654,-0.87062 c 1.97847,-1.02333 4.00663,-1.917 6.04575,-2.6688 a 85.925706,81.603295 87.887991 0 0 3.82231,-1.5999 85.925706,81.603295 87.887991 0 0 2.41156,-0.26394 c 2.07704,-0.47998 4.19827,-0.82959 6.32378,-1.04177 a 85.925706,81.603295 87.887991 0 0 4.04254,-0.58167 85.925706,81.603295 87.887991 0 0 2.39335,0.35137 c 2.15092,0.0601 4.31158,0.25873 6.44241,0.5915 a 85.925706,81.603295 87.887991 0 0 3.31351,0.12281 85.925706,81.603295 87.887991 0 0 3.08819,1.2941 c 2.08624,0.60069 4.15375,1.33924 6.16211,2.20076 a 85.925706,81.603295 87.887991 0 0 3.19177,0.94794 85.925706,81.603295 87.887991 0 0 2.6957,2.01998 c 1.89557,1.10725 3.72619,2.33476 5.4583,3.65612 a 85.925706,81.603295 87.887991 0 0 2.85349,1.70151 85.925706,81.603295 87.887991 0 0 2.13909,2.61175 c 1.56514,1.52754 3.05101,3.16592 4.43177,4.88423 a 85.925706,81.603295 87.887991 0 0 2.40053,2.3876 85.925706,81.603295 87.887991 0 0 1.49832,3.10123 c 1.20557,1.92756 2.30899,3.94421 3.29148,6.01443 a 85.925706,81.603295 87.887991 0 0 1.80328,2.92742 85.925706,81.603295 87.887991 0 0 0.75857,3.38767 c 0.71851,2.11405 1.31842,4.2856 1.78743,6.47053 a 85.925706,81.603295 87.887991 0 0 1.07408,3.25814 85.925706,81.603295 87.887991 0 0 -0.0349,3.4505 c 0.21666,2.24042 0.30479,4.51118 0.26315,6.77124 a 85.925706,81.603295 87.887991 0 0 0.30692,3.4794 85.925706,81.603295 87.887991 0 0 -0.82568,3.37959 c -0.29883,2.24136 -0.73143,4.49298 -1.29198,6.71285 a 85.925706,81.603295 87.887991 0 0 -0.48578,3.4413 85.925706,81.603295 87.887991 0 0 -1.56448,3.06927 c -0.8001,2.10836 -1.72242,4.16596 -2.74768,6.13532 a 85.925706,81.603295 87.887991 0 0 -1.24368,3.19545 85.925706,81.603295 87.887991 0 0 -2.19822,2.55938 c -1.23585,1.81299 -2.5862,3.55961 -4.02635,5.20486 a 85.925706,81.603295 87.887991 0 0 -1.93775,2.78622 85.925706,81.603295 87.887991 0 0 -2.73311,1.93782 c -1.30979,1.1741 -2.70567,2.30917 -4.17549,3.38717 a 85.925706,81.603295 87.887991 0 0 -0.93189,0.86229 85.925706,81.603295 87.887991 0 0 -1.06989,0.65451 85.925706,81.603295 87.887991 0 0 -5.75091,5.6579 85.925706,81.603295 87.887991 0 0 -6.67587,6.56601 85.925706,81.603295 87.887991 0 0 -5.30676,7.75577 85.925706,81.603295 87.887991 0 0 -5.11279,7.96685 85.925706,81.603295 87.887991 0 0 -3.53993,8.83378 85.925706,81.603295 87.887991 0 0 -3.28656,8.94939 85.925706,81.603295 87.887991 0 0 -1.58186,9.44721 85.925706,81.603295 87.887991 0 0 -1.31173,9.51144 85.925706,81.603295 87.887991 0 0 0.4565,9.58243 85.925706,81.603295 87.887991 0 0 0.73318,9.58867 85.925706,81.603295 87.887991 0 0 2.47109,9.2521 85.925706,81.603295 87.887991 0 0 2.73877,9.17866 85.925706,81.603295 87.887991 0 0 4.37046,8.46229 85.925706,81.603295 87.887991 0 0 3.77938,7.31707 85.925706,81.603295 87.887991 0 0 0.8186,0.9791 85.925706,81.603295 87.887991 0 0 0.6282,1.13414 l 9.76527,13.80827 a 85.925706,81.603295 87.887991 0 0 5.61823,6.32723 85.925706,81.603295 87.887991 0 0 4.14593,7.48079 l 9.76523,13.80958 a 85.925706,81.603295 87.887991 0 0 5.61832,6.32726 85.925706,81.603295 87.887991 0 0 4.14575,7.48089 l 9.76529,13.8081 a 85.925706,81.603295 87.887991 0 0 5.61694,6.32477 85.925706,81.603295 87.887991 0 0 4.14715,7.48475 l 9.7648,13.80859 a 85.925706,81.603295 87.887991 0 0 5.6207,6.3299 85.925706,81.603295 87.887991 0 0 4.1445,7.47827 l 1.715,2.42533 a 85.925706,81.603295 87.887991 0 0 114.21714,17.9026 85.925706,81.603295 87.887991 0 0 16.5704,-120.18303 l -1.7153,-2.42509 a 85.925706,81.603295 87.887991 0 0 -4.2758,-4.81576 85.925706,81.603295 87.887991 0 0 -5.4892,-8.99369 l -9.7649,-13.80859 a 85.925706,81.603295 87.887991 0 0 -4.2723,-4.81203 85.925706,81.603295 87.887991 0 0 -5.4917,-8.99636 l -8.9244,-12.6194 a 85.925706,81.603295 87.887991 0 0 1.1291,-2.51577 85.925706,81.603295 87.887991 0 0 6.2687,-9.36348 c 4.196,-8.06037 7.9147,-16.36887 11.1465,-24.88456 a 85.925706,81.603295 87.887991 0 0 4.2521,-15.40185 85.925706,81.603295 87.887991 0 0 3.9517,-10.65446 c 2.2324,-8.84076 3.9635,-17.82827 5.1768,-26.92554 a 85.925706,81.603295 87.887991 0 0 0.6442,-16.03672 85.925706,81.603295 87.887991 0 0 1.4279,-11.33327 c 0.1709,-9.19265 -0.187,-18.39067 -1.0732,-27.55143 a 85.925706,81.603295 87.887991 0 0 -2.314,-11.23324 85.925706,81.603295 87.887991 0 0 -1.9053,-15.97646 c -1.931,-8.99827 -4.3787,-17.85997 -7.33,-26.54499 a 85.925706,81.603295 87.887991 0 0 -4.7929,-10.29954 85.925706,81.603295 87.887991 0 0 -5.4744,-15.01639 c -3.8883,-8.19318 -8.2355,-16.13636 -13.0244,-23.79345 a 85.925706,81.603295 87.887991 0 0 -6.9719,-8.81969 85.925706,81.603295 87.887991 0 0 -8.7048,-13.24687 c -5.6603,-7.043936 -11.7187,-13.719186 -18.1482,-19.994956 a 85.925706,81.603295 87.887991 0 0 -8.8014,-6.840134 85.925706,81.603295 87.887991 0 0 -11.4707,-10.677793 c -7.0948,-5.413033 -14.4775,-10.357836 -22.1116,-14.818564 a 85.925706,81.603295 87.887991 0 0 -10.0554,-4.411421 85.925706,81.603295 87.887991 0 0 -13.52384,-7.480056 c -8.0817,-3.467163 -16.35043,-6.419206 -24.77001,-8.843084 A 85.925706,81.603295 87.887991 0 0 951.85831,30.26793 85.925706,81.603295 87.887991 0 0 937.04212,26.379323 c -8.63848,-1.348884 -17.33999,-2.146755 -26.06754,-2.39103 z"
         inkscape:label="qm1" />
      <path
         style="opacity:1;fill:none;fill-opacity:1;stroke:#ffcb4c;stroke-width:32;stroke-linecap:round;stroke-linejoin:round;stroke-miterlimit:4;stroke-dasharray:none;stroke-dashoffset:0;stroke-opacity:1;paint-order:fill markers stroke;stop-color:#000000"
         d="M 92.563343,477.22565 C 371.55845,535.14502 618.8942,641.60232 804.8334,842.18856"
         id="path6280"
         sodipodi:nodetypes="cc"
         inkscape:label="eyelash right big"
         inkscape:transform-center-x="232.47425"
         inkscape:transform-center-y="-231.44121" />
      <path
         style="display:inline;fill:none;fill-opacity:1;stroke:#ffcb4c;stroke-width:32;stroke-linecap:round;stroke-linejoin:round;stroke-miterlimit:4;stroke-dasharray:none;stroke-dashoffset:0;stroke-opacity:1;paint-order:fill markers stroke;stop-color:#000000"
         d="M 468.79703,426.30382 C 609.80704,525.51401 752.8464,660.32989 848.40781,789.60383"
         id="path6280-0"
         sodipodi:nodetypes="cc"
         inkscape:label="eyelash right small"
         inkscape:transform-center-x="31.844486"
         inkscape:transform-center-y="-186.90689" />
    </g>
  </g>
</svg>
