<?xml version="1.0" encoding="UTF-8" standalone="no"?>
<!-- Created with Inkscape (http://www.inkscape.org/) -->

<svg
   version="1.1"
   id="svg824"
   width="1706.6667"
   height="1706.6667"
   viewBox="0 0 1706.6667 1706.6667"
   sodipodi:docname="ying_dazed.svg"
   inkscape:version="1.1 (c68e22c387, 2021-05-23)"
   inkscape:export-filename="D:\Pictures\yingmotes\ying_dazed.png"
   inkscape:export-xdpi="72"
   inkscape:export-ydpi="72"
   xmlns:inkscape="http://www.inkscape.org/namespaces/inkscape"
   xmlns:sodipodi="http://sodipodi.sourceforge.net/DTD/sodipodi-0.dtd"
   xmlns="http://www.w3.org/2000/svg"
   xmlns:svg="http://www.w3.org/2000/svg">
  <defs
     id="defs828" />
  <sodipodi:namedview
     id="namedview826"
     pagecolor="#ffffff"
     bordercolor="#666666"
     borderopacity="1.0"
     inkscape:pageshadow="2"
     inkscape:pageopacity="0.0"
     inkscape:pagecheckerboard="0"
     showgrid="false"
     inkscape:zoom="0.90585932"
     inkscape:cx="380.85384"
     inkscape:cy="1412.471"
     inkscape:window-width="1920"
     inkscape:window-height="1001"
     inkscape:window-x="-9"
     inkscape:window-y="-9"
     inkscape:window-maximized="1"
     inkscape:current-layer="g13003" />
  <g
     id="layer1"
     inkscape:label="Ying"
     style="display:inline"
     inkscape:groupmode="layer">
    <path
       style="display:inline;fill:#913fef;stroke:#913fef;stroke-width:64;stroke-linecap:round;stroke-linejoin:round;-inkscape-stroke:none;paint-order:fill markers stroke;stop-color:#000000"
       d="m 1298.031,865.09775 c 70.7982,131.45402 185.3824,239.02475 198.7064,401.82835 -29.438,-19.1346 -55.9321,-14.719 -79.4825,13.2471 91.0222,54.7003 58.5139,175.917 81.6903,267.1496 l -99.3531,6.6236 c 66.7588,58.9185 81.773,128.1858 90.5218,198.7063 l -494.50725,2.2079 c -24.3802,-41.4813 23.11455,-208.5632 66.23555,-227.0436 0,0 3.3791,-20.0154 -75.35325,-9.4549 C 1015.23,1271.0896 1172.1837,1096.1858 1298.031,865.09775 Z"
       id="path3091"
       sodipodi:nodetypes="cccccccccc"
       inkscape:label="mane" />
    <path
       style="opacity:1;fill:#e4d9b9;fill-opacity:1;stroke:#e4d9b9;stroke-width:64;stroke-linecap:round;stroke-linejoin:round;stroke-miterlimit:4;stroke-dasharray:none;stroke-dashoffset:0;stroke-opacity:1;paint-order:fill markers stroke;stop-color:#000000"
       d="m 848.0933,1338.888 -64.7849,239.5079 62.82173,-25.5214 -51.04266,200.2443 459.38383,-15.7054 c 0,0 -127.6066,-94.2326 -149.2016,-184.5389 -21.5949,-90.3062 51.0427,-253.25 51.0427,-253.25 z"
       id="path3340"
       inkscape:label="neck" />
    <g
       id="g12988"
       inkscape:label="head">
      <path
         style="display:inline;fill:none;fill-opacity:1;stroke:#a99f8b;stroke-width:32;stroke-linecap:round;stroke-linejoin:round;stroke-miterlimit:4;stroke-dasharray:none;stroke-dashoffset:0;stroke-opacity:1;paint-order:fill markers stroke;stop-color:#000000"
         d="m 214.24675,510.63421 c 147.1679,90.37822 469.02207,391.00726 421.52811,363.05249"
         id="path6280-0-6"
         sodipodi:nodetypes="cc"
         inkscape:label="eyelash left small" />
      <path
         style="display:inline;fill:none;fill-opacity:1;stroke:#a99f8b;stroke-width:32;stroke-linecap:round;stroke-linejoin:round;stroke-miterlimit:4;stroke-dasharray:none;stroke-dashoffset:0;stroke-opacity:1;paint-order:fill markers stroke;stop-color:#000000"
         d="M 136.3074,315.66998 C 386.36359,452.28922 592.00322,626.1296 711.50637,872.15241"
         id="path6280-3"
         sodipodi:nodetypes="cc"
         inkscape:label="eyelash left big" />
      <path
         sodipodi:type="spiral"
         style="display:inline;fill:none;fill-rule:evenodd;stroke:#880056;stroke-width:64;stroke-linecap:round;stroke-linejoin:round;stroke-miterlimit:4;stroke-dasharray:none;stroke-opacity:1"
         id="path1108-3"
         sodipodi:cx="896.38641"
         sodipodi:cy="1046.5201"
         sodipodi:expansion="1"
         sodipodi:revolution="2.3504226"
         sodipodi:radius="284.2439"
         sodipodi:argument="-18.077454"
         sodipodi:t0="0.20026168"
         d="m 849.02347,1014.9449 c 10.91053,-40.69478 59.41518,-55.04763 95.70862,-40.94331 54.10832,21.02752 72.12131,87.33851 49.32848,137.63461 -30.6443,67.6217 -115.39102,89.375 -179.56063,57.7137 -81.19743,-40.0628 -106.71874,-143.5022 -66.0989,-221.48663 49.38401,-94.81044 171.64565,-124.11384 263.41266,-74.48411 108.4468,58.65055 141.5409,199.80894 82.8693,305.33864 -67.8834,122.0986 -227.98546,158.9891 -347.26465,91.2545 -65.96819,-37.461 -113.63606,-102.3854 -131.2873,-176.0019"
         transform="rotate(152.98339,714.30435,1025.9141)" />
      <path
         style="opacity:1;fill:#a99f8b;fill-opacity:1;stroke:#a99f8b;stroke-width:64;stroke-linecap:round;stroke-miterlimit:4;stroke-dasharray:none;stroke-dashoffset:0;stroke-opacity:1;paint-order:fill markers stroke;stop-color:#000000"
         d="m 869.09994,890.4646 c 0,0 -108.59311,-140.07447 -171.67044,-311.57439 -69.39135,-188.66696 -79.12378,-418.21491 -17.36083,-448.03639 61.76296,-29.82147 237.92708,110.76426 316.81312,228.86617 78.88601,118.10192 163.56611,414.93199 163.56611,414.93199 z"
         id="path1640"
         inkscape:label="leftear"
         sodipodi:nodetypes="cssscc"
         inkscape:transform-center-x="89.149478"
         inkscape:transform-center-y="-248.10001" />
      <path
         id="path1148"
         style="display:inline;opacity:1;fill:#e4d9b9;stroke:#e4d9b9;stroke-width:64;stroke-linecap:round;stroke-linejoin:round;stroke-miterlimit:4;stroke-dasharray:6.4, 6.4;stroke-dashoffset:0;stroke-opacity:1;paint-order:fill markers stroke;stop-color:#000000"
         inkscape:label="head"
         d="m 1299.0547,1153.5586 c 0,0 -0.1078,-10.8206 -0.9512,-28.418 -0.4217,-8.7987 -1.0259,-19.2912 -1.8945,-30.9726 -0.8686,-11.6814 -1.9997,-24.5525 -3.4727,-38.1055 -1.4729,-13.553 -3.2888,-27.7877 -5.5234,-42.2012 -2.2347,-14.41345 -4.8892,-29.0047 -8.043,-43.26755 -1.5769,-7.13143 -3.279,-14.18175 -5.1152,-21.08594 -1.8362,-6.90419 -3.8068,-13.66232 -5.9219,-20.21289 -2.1151,-6.55056 -4.3733,-12.89234 -6.7871,-18.96289 -2.4138,-6.07055 -4.9828,-11.86984 -7.7148,-17.33398 -2.7321,-5.46415 -5.9346,-10.78574 -9.5391,-15.96094 -3.6045,-5.1752 -7.6114,-10.20474 -11.9492,-15.08399 -4.3379,-4.87924 -9.0074,-9.60926 -13.9395,-14.18554 -4.9321,-4.57628 -10.1264,-8.99932 -15.5136,-13.26563 -5.3873,-4.2663 -10.9666,-8.37489 -16.67,-12.32422 -5.7033,-3.94932 -11.5298,-7.73794 -17.4101,-11.36328 -11.7607,-7.25067 -23.7371,-13.84709 -35.3711,-19.75976 -11.634,-5.91267 -22.9257,-11.14156 -33.3203,-15.66016 -10.3946,-4.5186 -19.8912,-8.32606 -27.9336,-11.39453 -16.085,-6.13693 -26.3535,-9.31836 -26.3535,-9.31836 -106.83135,-15.98813 -232.17461,6.96944 -312.62504,60.01367 -101.26734,66.76968 -136.88727,176.62945 -198.70703,211.95509 -61.81975,35.3255 -225.20029,77.273 -280.39649,83.8965 -55.19621,6.6235 -183.250354,6.6246 -161.171871,123.6406 22.078481,117.016 112.599211,282.6048 377.541011,247.2793 264.94179,-35.3256 313.51517,-44.1575 536.50782,-88.3145 22.8973,-4.5341 53.8481,-18.3195 86.8281,-36.9472 l 213.8711,-11.4278 -92.9258,-75.2558 c 5.3578,-4.8405 10.5999,-9.7184 15.6328,-14.6367 l 142.0762,-2.375 -84.8808,-69.668 c 3.4806,-6.5537 6.4805,-13.0207 8.6269,-19.3066 1.0523,-3.0817 2.0328,-6.6268 3.0469,-9.9766 z" />
      <path
         style="display:inline;fill:#913fef;stroke:#913fef;stroke-width:64;stroke-linecap:round;stroke-linejoin:round;-inkscape-stroke:none;paint-order:fill markers stroke;stop-color:#000000"
         d="M 880.93148,744.0449 C 763.91552,771.643 622.61323,916.25706 622.61323,916.25706 620.95257,833.21142 611.27974,749.4374 735.2135,677.80944 c -124.69479,-7.45678 -249.2876,-15.1175 -408.45194,46.36482 0,0 303.22641,-263.62224 490.14233,-280.39675 172.2122,-15.45493 264.94181,37.53343 264.94181,37.53343 -0.1923,-45.68323 -31.4577,-88.25915 -90.52179,-128.0552 0,0 295.85169,97.14532 333.38509,194.29065 37.5334,97.14533 28.702,167.79647 28.702,167.79647 l -243.7525,34.92308 c 0,0 -111.71105,-33.81914 -228.72702,-6.22104 z"
         id="path1637"
         sodipodi:nodetypes="zcccsccsccz"
         inkscape:label="top hair" />
      <path
         id="path13483"
         style="display:inline;opacity:1;fill:#e4d9b9;stroke:#e4d9b9;stroke-width:64;stroke-linecap:round;stroke-linejoin:round;stroke-miterlimit:4;stroke-dasharray:6.4, 6.4;stroke-dashoffset:0;stroke-opacity:1;paint-order:fill markers stroke;stop-color:#000000"
         inkscape:label="rightear"
         d="m 1530.7083,98.409592 c -78.9871,-8.861247 -270.0544,256.360998 -306.8376,338.823878 -32.7497,73.42017 -128.3546,256.78192 -155.5029,308.73857 -106.73845,355.74826 99.8854,366.63856 207.3745,424.64376 109.3617,-106.0012 316.2745,-331.81217 349.9887,-552.77662 46.1587,-302.5269 -43.8014,-513.68328 -95.0227,-519.429588 z"
         sodipodi:nodetypes="ssccss"
         inkscape:transform-center-x="-132.14668"
         inkscape:transform-center-y="-323.22963" />
      <g
         id="g13003"
         inkscape:label="face">
        <path
           style="opacity:1;fill:none;fill-opacity:1;stroke:#880056;stroke-width:64;stroke-linecap:round;stroke-linejoin:round;stroke-miterlimit:4;stroke-dasharray:none;stroke-dashoffset:0;stroke-opacity:1;paint-order:fill markers stroke;stop-color:#000000"
           d="m 83.898236,1201.0695 68.443294,6.6235 -37.53342,39.7413"
           id="path2163"
           inkscape:label="left nostril" />
        <path
           style="opacity:1;fill:none;fill-opacity:1;stroke:#880056;stroke-width:64;stroke-linecap:round;stroke-linejoin:round;stroke-miterlimit:4;stroke-dasharray:none;stroke-dashoffset:0;stroke-opacity:1;paint-order:fill markers stroke;stop-color:#000000"
           d="m 401.82839,1251.85 -59.6119,-44.157 121.43166,-17.6628"
           id="path2198"
           inkscape:label="right nostril" />
        <path
           id="path1929"
           style="display:inline;fill:#ff66aa;fill-opacity:1;stroke:#ff66aa;stroke-width:64;stroke-linecap:round;stroke-linejoin:round;stroke-opacity:1;paint-order:fill markers stroke;stop-color:#000000"
           d="m 269.08666,1315.3728 c 20.25517,105.643 18.61614,65.232 86.58703,144.3516 52.15991,-67.6283 28.02127,-50.4313 52.15991,-67.6283"
           sodipodi:nodetypes="ccc" />
        <path
           style="opacity:1;fill:none;fill-opacity:1;stroke:#880056;stroke-width:64;stroke-linecap:round;stroke-linejoin:round;stroke-miterlimit:4;stroke-dasharray:none;stroke-dashoffset:0;stroke-opacity:1;paint-order:fill markers stroke;stop-color:#000000"
           d="m 132.4709,1346.7875 90.52178,-72.859 c 0,0 227.99027,157.1936 304.17428,154.6413 131.8052,-4.4157 125.46854,-93.7361 125.46854,-93.7361"
           id="path2200"
           sodipodi:nodetypes="ccsc"
           inkscape:label="mouf" />
        <path
           style="opacity:1;fill:#ffffff;fill-opacity:1;stroke:#880056;stroke-width:64;stroke-linecap:round;stroke-linejoin:round;stroke-miterlimit:4;stroke-dasharray:none;stroke-dashoffset:0;stroke-opacity:1;paint-order:fill markers stroke;stop-color:#000000"
           d="m 222.99268,1530.0389 -90.52178,-183.2514 90.52178,-72.859 103.76887,66.2354 z"
           id="path2202"
           sodipodi:nodetypes="ccccc"
           inkscape:label="toof" />
      </g>
      <path
         style="opacity:1;fill:none;fill-opacity:1;stroke:#e4d9b9;stroke-width:32;stroke-linecap:round;stroke-linejoin:round;stroke-miterlimit:4;stroke-dasharray:none;stroke-dashoffset:0;stroke-opacity:1;paint-order:fill markers stroke;stop-color:#000000"
         d="M 422.09799,125.10137 C 599.10012,348.40199 720.6887,588.66091 734.81454,861.80682"
         id="path6280"
         sodipodi:nodetypes="cc"
         inkscape:label="eyelash right big" />
      <path
         style="display:inline;fill:none;fill-opacity:1;stroke:#e4d9b9;stroke-width:32;stroke-linecap:round;stroke-linejoin:round;stroke-miterlimit:4;stroke-dasharray:none;stroke-dashoffset:0;stroke-opacity:1;paint-order:fill markers stroke;stop-color:#000000"
         d="m 711.56797,296.29281 c 57.33566,162.60107 95.67474,355.38513 98.55015,516.11928"
         id="path6280-0"
         sodipodi:nodetypes="cc"
         inkscape:label="eyelash right small" />
      <path
         sodipodi:type="spiral"
         style="fill:none;fill-rule:evenodd;stroke:#880056;stroke-width:64;stroke-linecap:round;stroke-linejoin:round;stroke-miterlimit:4;stroke-dasharray:none;stroke-opacity:1"
         id="path1108"
         sodipodi:cx="896.38641"
         sodipodi:cy="1046.5201"
         sodipodi:expansion="1"
         sodipodi:revolution="2.3504226"
         sodipodi:radius="284.2439"
         sodipodi:argument="-18.077454"
         sodipodi:t0="0.20026168"
         d="m 849.02347,1014.9449 c 10.91053,-40.69478 59.41518,-55.04763 95.70862,-40.94331 54.10832,21.02752 72.12131,87.33851 49.32848,137.63461 -30.6443,67.6217 -115.39102,89.375 -179.56063,57.7137 -81.19743,-40.0628 -106.71874,-143.5022 -66.0989,-221.48663 49.38401,-94.81044 171.64565,-124.11384 263.41266,-74.48411 108.4468,58.65055 141.5409,199.80894 82.8693,305.33864 -67.8834,122.0986 -227.98546,158.9891 -347.26465,91.2545 -65.96819,-37.461 -113.63606,-102.3854 -131.2873,-176.0019"
         transform="rotate(145.08452,892.30419,1066.6482)" />
      <g
         id="g6469"
         transform="matrix(0.80745451,0,0,0.80745451,2057.622,-400.13177)"
         style="stroke-width:1.23846">
        <path
           style="fill:#55ffdd;stroke:none;stroke-width:79.2614;stroke-linecap:round;stroke-linejoin:round;stroke-miterlimit:4;stroke-dasharray:none;stroke-opacity:1;paint-order:fill markers stroke;stop-color:#000000"
           d="m -1472.6348,1033.8976 c 0,0 629.23673,-58.89671 629.23673,-127.60952 0,-68.71281 -390.78913,-158.69387 -680.01723,-158.69387 -289.2282,0 -715.343,104.70523 -717.5508,179.96212 -2.2079,75.25687 377.5421,196.32227 377.5421,196.32227 0,0 -487.9345,-42.5364 -498.9737,-199.59431 -11.0393,-157.05785 415.1041,-269.14589 856.6451,-273.21522 443.7859,-4.09002 958.20621,91.61709 953.79051,247.03891 -5.95116,209.46622 -816.67911,352.34482 -816.67911,352.34482 z"
           id="path5811"
           sodipodi:nodetypes="cssscssscc" />
        <path
           sodipodi:type="star"
           style="fill:#d4aa00;stroke:#846e00;stroke-width:110.729;stroke-linecap:round;stroke-linejoin:round;stroke-miterlimit:4;stroke-dasharray:none;stroke-opacity:1;paint-order:fill markers stroke;stop-color:#000000"
           id="path5552"
           inkscape:flatsided="false"
           sodipodi:sides="5"
           sodipodi:cx="-1337.9561"
           sodipodi:cy="1033.2729"
           sodipodi:r1="369.76022"
           sodipodi:r2="175.70895"
           sodipodi:arg1="0.70085441"
           sodipodi:arg2="1.3291729"
           inkscape:rounded="0"
           inkscape:randomized="0"
           d="m -1055.3515,1271.7206 -240.5611,-67.8429 -181.491,171.8526 -9.8151,-249.7518 -219.5253,-119.5029 234.4951,-86.51224 45.8169,-245.7094 154.741,196.2843 247.8417,-32.35388 -138.8598,207.82262 z"
           inkscape:transform-center-x="19.39122"
           inkscape:transform-center-y="4.5103387"
           transform="matrix(0.70749793,-0.1066403,0.10673654,0.7081364,-521.96112,237.67699)" />
      </g>
    </g>
  </g>
</svg>
