<?xml version="1.0" encoding="UTF-8" standalone="no"?>
<!-- Created with Inkscape (http://www.inkscape.org/) -->

<svg
   version="1.1"
   id="svg824"
   width="1706.6667"
   height="1706.6667"
   viewBox="0 0 1706.6667 1706.6667"
   sodipodi:docname="ying_comfy_sleep.svg"
   inkscape:version="1.1 (c68e22c387, 2021-05-23)"
   inkscape:export-filename="D:\Pictures\yingmotes\ying_comfy_sleep.png"
   inkscape:export-xdpi="72"
   inkscape:export-ydpi="72"
   xmlns:inkscape="http://www.inkscape.org/namespaces/inkscape"
   xmlns:sodipodi="http://sodipodi.sourceforge.net/DTD/sodipodi-0.dtd"
   xmlns="http://www.w3.org/2000/svg"
   xmlns:svg="http://www.w3.org/2000/svg">
  <defs
     id="defs828" />
  <sodipodi:namedview
     id="namedview826"
     pagecolor="#ffffff"
     bordercolor="#666666"
     borderopacity="1.0"
     inkscape:pageshadow="2"
     inkscape:pageopacity="0.0"
     inkscape:pagecheckerboard="0"
     showgrid="false"
     inkscape:zoom="0.22646483"
     inkscape:cx="-245.07117"
     inkscape:cy="1154.7047"
     inkscape:window-width="1920"
     inkscape:window-height="1001"
     inkscape:window-x="-9"
     inkscape:window-y="-9"
     inkscape:window-maximized="1"
     inkscape:current-layer="g12988">
    <inkscape:grid
       type="xygrid"
       id="grid17001" />
  </sodipodi:namedview>
  <g
     id="layer1"
     inkscape:label="Ying"
     style="display:inline"
     transform="translate(78.059228)"
     inkscape:groupmode="layer">
    <path
       style="display:inline;fill:#913fef;stroke:#913fef;stroke-width:64;stroke-linecap:round;stroke-linejoin:round;-inkscape-stroke:none;paint-order:fill markers stroke;stop-color:#000000"
       d="m 1298.031,865.09775 c 70.7982,131.45402 185.3824,239.02475 198.7064,401.82835 -29.438,-19.1346 -55.9321,-14.719 -79.4825,13.2471 91.0222,54.7003 58.5139,175.917 81.6903,267.1496 l -99.3531,6.6236 c 66.7588,58.9185 81.773,128.1858 90.5218,198.7063 l -494.50725,2.2079 c -24.3802,-41.4813 23.11455,-208.5632 66.23555,-227.0436 0,0 3.3791,-20.0154 -75.35325,-9.4549 C 1015.23,1271.0896 1172.1837,1096.1858 1298.031,865.09775 Z"
       id="path3091"
       sodipodi:nodetypes="cccccccccc"
       inkscape:label="mane" />
    <path
       style="opacity:1;fill:#e4d9b9;fill-opacity:1;stroke:#e4d9b9;stroke-width:64;stroke-linecap:round;stroke-linejoin:round;stroke-miterlimit:4;stroke-dasharray:none;stroke-dashoffset:0;stroke-opacity:1;paint-order:fill markers stroke;stop-color:#000000"
       d="m 848.0933,1338.888 -64.7849,239.5079 62.82173,-25.5214 -51.04266,200.2443 459.38383,-15.7054 c 0,0 -127.6066,-94.2326 -149.2016,-184.5389 -21.5949,-90.3062 51.0427,-253.25 51.0427,-253.25 z"
       id="path3340"
       inkscape:label="neck" />
    <g
       id="g12988"
       inkscape:label="head"
       inkscape:groupmode="layer">
      <path
         style="display:inline;fill:none;fill-opacity:1;stroke:#a99f8b;stroke-width:32;stroke-linecap:round;stroke-linejoin:round;stroke-miterlimit:4;stroke-dasharray:none;stroke-dashoffset:0;stroke-opacity:1;paint-order:fill markers stroke;stop-color:#000000"
         d="m 214.24675,510.63421 c 146.95696,90.16728 298.17327,215.74277 401.65747,338.76616"
         id="path6280-0-6"
         sodipodi:nodetypes="cc"
         inkscape:label="eyelash left small" />
      <path
         style="display:inline;fill:none;fill-opacity:1;stroke:#a99f8b;stroke-width:32;stroke-linecap:round;stroke-linejoin:round;stroke-miterlimit:4;stroke-dasharray:none;stroke-dashoffset:0;stroke-opacity:1;paint-order:fill markers stroke;stop-color:#000000"
         d="M 136.3074,315.66998 C 386.36359,452.28922 592.00322,626.1296 711.50637,872.15241"
         id="path6280-3"
         sodipodi:nodetypes="cc"
         inkscape:label="eyelash left big" />
      <g
         id="g12997"
         inkscape:label="left eye">
        <path
           id="path1915-9"
           style="display:inline;fill:#cdebfd;stroke:#880056;stroke-width:64;stroke-linecap:round;stroke-linejoin:round;paint-order:fill markers stroke;stop-color:#000000"
           inkscape:label="lefteye"
           d="m 792.61751,1048.7279 c 10e-6,120.7167 -155.86024,218.577 -276.57698,218.577 -120.71674,0 -160.57699,-55.8603 -160.57698,-176.577 0,-120.71673 97.86025,-260.57698 218.57698,-260.57698 120.71673,0 218.57698,97.86025 218.57698,218.57698 z"
           sodipodi:nodetypes="sssss" />
        <path
           style="opacity:1;fill:#ffffff;fill-opacity:1;stroke:#880056;stroke-width:48;stroke-linecap:round;stroke-linejoin:round;stroke-miterlimit:4;stroke-dasharray:none;stroke-dashoffset:0;stroke-opacity:1;paint-order:fill markers stroke;stop-color:#000000"
           d="M 498.97372,962.62186 V 1132.6262"
           id="path2372"
           inkscape:label="pupil left" />
        <path
           id="path11566"
           style="display:inline;fill:#a99f8b;fill-opacity:1;stroke:#880056;stroke-width:64;stroke-linecap:round;stroke-linejoin:round;paint-order:fill markers stroke;stop-color:#000000"
           inkscape:label="leftlid"
           d="m 792.61751,1048.7279 c 10e-6,120.7167 -155.86024,218.577 -276.57698,218.577 -120.71674,0 -160.57699,-55.8603 -160.57698,-176.577 0,-120.71673 97.86025,-260.57698 218.57698,-260.57698 120.71673,0 218.57698,97.86025 218.57698,218.57698 z"
           sodipodi:nodetypes="sssss" />
      </g>
      <path
         style="display:inline;opacity:1;fill:#a99f8b;fill-opacity:1;stroke:#a99f8b;stroke-width:64;stroke-linecap:round;stroke-miterlimit:4;stroke-dasharray:none;stroke-dashoffset:0;stroke-opacity:1;paint-order:fill markers stroke;stop-color:#000000"
         d="m 902.36415,846.27524 c 0,0 18.22417,-176.29861 91.06804,-343.88361 80.13551,-184.36018 231.64921,-357.07551 296.90991,-335.97991 65.2608,21.09561 95.546,244.43603 71.0165,384.32662 -24.5295,139.89054 -168.3189,413.02685 -168.3189,413.02685 z"
         id="path1640"
         inkscape:label="leftear"
         sodipodi:nodetypes="cssscc"
         inkscape:transform-center-x="-87.210493"
         inkscape:transform-center-y="-290.27729" />
      <path
         id="path1148"
         style="display:inline;opacity:1;fill:#e4d9b9;stroke:#e4d9b9;stroke-width:64;stroke-linecap:round;stroke-linejoin:round;stroke-miterlimit:4;stroke-dasharray:6.4, 6.4;stroke-dashoffset:0;stroke-opacity:1;paint-order:fill markers stroke;stop-color:#000000"
         inkscape:label="head"
         d="m 1299.0547,1153.5586 c 0,0 -0.1078,-10.8206 -0.9512,-28.418 -0.4217,-8.7987 -1.0259,-19.2912 -1.8945,-30.9726 -0.8686,-11.6814 -1.9997,-24.5525 -3.4727,-38.1055 -1.4729,-13.553 -3.2888,-27.7877 -5.5234,-42.2012 -2.2347,-14.41345 -4.8892,-29.0047 -8.043,-43.26755 -1.5769,-7.13143 -3.279,-14.18175 -5.1152,-21.08594 -1.8362,-6.90419 -3.8068,-13.66232 -5.9219,-20.21289 -2.1151,-6.55056 -4.3733,-12.89234 -6.7871,-18.96289 -2.4138,-6.07055 -4.9828,-11.86984 -7.7148,-17.33398 -2.7321,-5.46415 -5.9346,-10.78574 -9.5391,-15.96094 -3.6045,-5.1752 -7.6114,-10.20474 -11.9492,-15.08399 -4.3379,-4.87924 -9.0074,-9.60926 -13.9395,-14.18554 -4.9321,-4.57628 -10.1264,-8.99932 -15.5136,-13.26563 -5.3873,-4.2663 -10.9666,-8.37489 -16.67,-12.32422 -5.7033,-3.94932 -11.5298,-7.73794 -17.4101,-11.36328 -11.7607,-7.25067 -23.7371,-13.84709 -35.3711,-19.75976 -11.634,-5.91267 -22.9257,-11.14156 -33.3203,-15.66016 -10.3946,-4.5186 -19.8912,-8.32606 -27.9336,-11.39453 -16.085,-6.13693 -26.3535,-9.31836 -26.3535,-9.31836 -106.83135,-15.98813 -232.17461,6.96944 -312.62504,60.01367 -101.26734,66.76968 -136.88727,176.62945 -198.70703,211.95509 -61.81975,35.3255 -225.20029,77.273 -280.39649,83.8965 -55.19621,6.6235 -183.250354,6.6246 -161.171871,123.6406 22.078481,117.016 112.599211,282.6048 377.541011,247.2793 264.94179,-35.3256 313.51517,-44.1575 536.50782,-88.3145 22.8973,-4.5341 116.5531,-74.9001 149.5331,-93.5278 l 185.5122,60.7646 -127.2719,-90.8676 c 5.3578,-4.8405 10.5999,-9.7184 15.6328,-14.6367 l 160.8104,0.7474 -103.615,-72.7904 c 3.4806,-6.5537 6.4805,-13.0207 8.6269,-19.3066 1.0523,-3.0817 2.0328,-6.6268 3.0469,-9.9766 z"
         sodipodi:nodetypes="csssssssssssssssssscssssssccccccsc" />
      <path
         style="display:inline;fill:#913fef;stroke:#913fef;stroke-width:64;stroke-linecap:round;stroke-linejoin:round;-inkscape-stroke:none;paint-order:fill markers stroke;stop-color:#000000"
         d="M 880.93148,744.0449 C 763.91552,771.643 622.61323,916.25706 622.61323,916.25706 620.95257,833.21142 611.27974,749.4374 735.2135,677.80944 c -124.69479,-7.45678 -249.2876,-15.1175 -408.45194,46.36482 0,0 303.22641,-263.62224 490.14233,-280.39675 172.2122,-15.45493 264.94181,37.53343 264.94181,37.53343 -0.1923,-45.68323 -31.4577,-88.25915 -90.52179,-128.0552 0,0 295.85169,97.14532 333.38509,194.29065 37.5334,97.14533 28.702,167.79647 28.702,167.79647 l -243.7525,34.92308 c 0,0 -111.71105,-33.81914 -228.72702,-6.22104 z"
         id="path1637"
         sodipodi:nodetypes="zcccsccsccz"
         inkscape:label="top hair" />
      <path
         id="path13483"
         style="display:inline;opacity:1;fill:#e4d9b9;stroke:#e4d9b9;stroke-width:64;stroke-linecap:round;stroke-linejoin:round;stroke-miterlimit:4;stroke-dasharray:6.4, 6.4;stroke-dashoffset:0;stroke-opacity:1;paint-order:fill markers stroke;stop-color:#000000"
         inkscape:label="rightear"
         d="m 1499.5231,167.57394 c -78.2009,-14.21632 -286.8754,237.38757 -329.1854,317.15591 -37.6705,71.02111 -145.5328,247.45118 -176.15417,297.43974 0,0 9.53387,4.96675 24.26177,13.88169 7.3639,4.45747 16.0264,9.9021 25.4452,16.20703 9.4188,6.30491 19.5932,13.46912 29.982,21.36732 10.3888,7.89818 20.9923,16.53033 31.2664,25.76762 5.1371,4.61863 10.192,9.38829 15.097,14.29402 4.905,4.90575 9.6595,9.94601 14.1969,15.10709 4.5372,5.16107 8.8566,10.44184 12.8907,15.82649 4.0341,5.38465 7.7822,10.87358 11.1775,16.45002 3.3951,5.57643 6.4378,11.24154 9.0586,16.978 2.6206,5.73643 4.8197,11.54502 6.5305,17.40973 1.7106,5.86468 3.2009,12.02993 4.49,18.43433 1.2891,6.40439 2.3766,13.04781 3.2859,19.87105 0.9094,6.82322 1.6395,13.82482 2.2111,20.94612 0.5717,7.1212 0.9854,14.3623 1.2613,21.6608 0.5519,14.597 0.5538,29.4278 0.1745,44.0085 -0.3795,14.5807 -1.1389,28.9107 -2.1138,42.5086 -0.975,13.5979 -2.1642,26.4637 -3.3989,38.1122 -1.2348,11.6484 -2.517,22.0797 -3.6759,30.812 -2.3177,17.4645 -4.147,28.1298 -4.147,28.1298 116.3223,-98.3126 338.1234,-309.51817 386.7975,-527.67585 66.6407,-298.68405 -8.7402,-515.47325 -59.4517,-524.69221 z"
         inkscape:transform-center-x="-150.24314"
         inkscape:transform-center-y="-332.60484" />
      <g
         id="g13003"
         inkscape:label="face">
        <path
           style="opacity:1;fill:none;fill-opacity:1;stroke:#880056;stroke-width:64;stroke-linecap:round;stroke-linejoin:round;stroke-miterlimit:4;stroke-dasharray:none;stroke-dashoffset:0;stroke-opacity:1;paint-order:fill markers stroke;stop-color:#000000"
           d="m 83.898236,1201.0695 68.443294,6.6235 -37.53342,39.7413"
           id="path2163"
           inkscape:label="left nostril" />
        <path
           style="opacity:1;fill:none;fill-opacity:1;stroke:#880056;stroke-width:64;stroke-linecap:round;stroke-linejoin:round;stroke-miterlimit:4;stroke-dasharray:none;stroke-dashoffset:0;stroke-opacity:1;paint-order:fill markers stroke;stop-color:#000000"
           d="m 401.82839,1251.85 -59.6119,-44.157 121.43166,-17.6628"
           id="path2198"
           inkscape:label="right nostril" />
        <path
           style="opacity:1;fill:none;fill-opacity:1;stroke:#880056;stroke-width:64;stroke-linecap:round;stroke-linejoin:round;stroke-miterlimit:4;stroke-dasharray:none;stroke-dashoffset:0;stroke-opacity:1;paint-order:fill markers stroke;stop-color:#000000"
           d="m 132.4709,1346.7875 90.52178,-72.859 c 0,0 134.93476,106.6315 210.99268,101.561"
           id="path2200"
           sodipodi:nodetypes="ccc"
           inkscape:label="mouf" />
        <path
           style="opacity:1;fill:#ffffff;fill-opacity:1;stroke:#880056;stroke-width:64;stroke-linecap:round;stroke-linejoin:round;stroke-miterlimit:4;stroke-dasharray:none;stroke-dashoffset:0;stroke-opacity:1;paint-order:fill markers stroke;stop-color:#000000"
           d="m 222.99268,1530.0389 -90.52178,-183.2514 90.52178,-72.859 103.76887,66.2354 z"
           id="path2202"
           sodipodi:nodetypes="ccccc"
           inkscape:label="toof" />
      </g>
      <g
         id="g12993"
         inkscape:label="right eye">
        <path
           style="opacity:1;fill:#880056;fill-opacity:1;stroke:#880056;stroke-width:64;stroke-linecap:round;stroke-linejoin:round;stroke-miterlimit:4;stroke-dasharray:none;stroke-dashoffset:0;stroke-opacity:1;paint-order:fill markers stroke;stop-color:#000000"
           d="m 661.97569,1226.0485 53.36716,-115.5008 86.53085,168.711 z"
           id="path7852"
           inkscape:label="eyenub"
           sodipodi:nodetypes="cccc" />
        <path
           id="path1915"
           style="opacity:1;fill:#cdebfd;stroke:#880056;stroke-width:64;stroke-linecap:round;stroke-linejoin:round;paint-order:fill markers stroke;stop-color:#000000"
           inkscape:label="righteye"
           d="m 1150.289,1075.2222 c 0,120.7167 -151.8603,218.5769 -272.57702,218.5769 -120.71671,0 -164.57695,-71.8602 -164.57699,-192.5769 -2e-5,-120.71675 97.86024,-244.57702 218.57699,-244.57701 120.71672,-2e-5 218.57702,97.86025 218.57702,218.57701 z"
           sodipodi:nodetypes="sssss" />
        <path
           style="opacity:1;fill:#ffffff;fill-opacity:1;stroke:#880056;stroke-width:48;stroke-linecap:round;stroke-linejoin:round;stroke-miterlimit:4;stroke-dasharray:none;stroke-dashoffset:0;stroke-opacity:1;paint-order:fill markers stroke;stop-color:#000000"
           d="m 841.19021,982.4925 v 189.8749"
           id="path2350"
           inkscape:label="pupil right" />
        <path
           id="path11676"
           style="opacity:1;fill:#a99f8b;fill-opacity:1;stroke:#880056;stroke-width:64;stroke-linecap:round;stroke-linejoin:round;paint-order:fill markers stroke;stop-color:#000000"
           inkscape:label="rightlid"
           d="m 1150.289,1075.2222 c 0,120.7167 -151.8603,218.5769 -272.57702,218.5769 -120.71671,0 -164.57695,-71.8602 -164.57699,-192.5769 -2e-5,-120.71675 97.86024,-244.57702 218.57699,-244.57701 120.71672,-2e-5 218.57702,97.86025 218.57702,218.57701 z"
           sodipodi:nodetypes="sssss" />
      </g>
      <g
         id="g10350"
         transform="rotate(16.523108,-1682.5554,4529.9736)"
         inkscape:label="wizard hat"
         style="display:none">
        <ellipse
           style="fill:#5a2ca0;stroke:#442178;stroke-width:128;stroke-linecap:round;stroke-linejoin:round;stroke-opacity:1;paint-order:stroke fill markers;stop-color:#000000"
           id="path10133"
           cx="-156.11845"
           cy="137.38425"
           rx="1183.3779"
           ry="243.54478" />
        <path
           style="fill:#5a2ca0;stroke:#442178;stroke-width:128;stroke-linecap:round;stroke-linejoin:round;stroke-opacity:1;paint-order:fill markers stroke;stop-color:#000000"
           d="m -574.04058,136.8866 194.29066,-688.84869 604.95045,-547.54641 22.07849,1223.14801"
           id="path10248" />
      </g>
      <path
         style="display:inline;opacity:1;fill:none;fill-opacity:1;stroke:#e4d9b9;stroke-width:32;stroke-linecap:round;stroke-linejoin:round;stroke-miterlimit:4;stroke-dasharray:none;stroke-dashoffset:0;stroke-opacity:1;paint-order:fill markers stroke;stop-color:#000000"
         d="M 422.09799,125.10137 C 599.10012,348.40199 720.6887,588.66091 734.81454,861.80682"
         id="path6280"
         sodipodi:nodetypes="cc"
         inkscape:label="eyelash right big" />
      <path
         style="display:inline;fill:none;fill-opacity:1;stroke:#e4d9b9;stroke-width:32;stroke-linecap:round;stroke-linejoin:round;stroke-miterlimit:4;stroke-dasharray:none;stroke-dashoffset:0;stroke-opacity:1;paint-order:fill markers stroke;stop-color:#000000"
         d="m 711.56797,296.29281 c 57.33566,162.60107 95.67474,355.38513 98.55015,516.11928"
         id="path6280-0"
         sodipodi:nodetypes="cc"
         inkscape:label="eyelash right small" />
      <path
         style="fill:#a99f8b;fill-opacity:1;stroke:#880056;stroke-width:64;stroke-linecap:round;stroke-linejoin:round;stroke-miterlimit:4;stroke-dasharray:none;stroke-opacity:1;paint-order:fill markers stroke;stop-color:#000000"
         d="m 715.34285,1110.5477 c 0,0 76.17772,67.3661 190.92478,75.9526 114.74707,8.5865 232.61647,-53.8609 232.61647,-53.8609"
         id="path14012"
         sodipodi:nodetypes="csc" />
      <path
         style="fill:#ffffff;stroke:#000000;stroke-width:128;stroke-linecap:round;stroke-linejoin:round;stroke-miterlimit:4;stroke-dasharray:none;paint-order:stroke fill markers;stop-color:#000000"
         d="M 54.287965,839.34159 66.90706,894.79848 146.888,876.19 l -63.155469,92.55101 12.619112,55.45689 175.958067,-40.93867 -12.61911,-55.4569 -79.98093,18.60849 63.15547,-92.55101 -12.61911,-55.4569 z"
         id="path17036"
         sodipodi:nodetypes="ccccccccccc" />
      <path
         style="display:inline;fill:#ffffff;stroke:#000000;stroke-width:128;stroke-linecap:round;stroke-linejoin:round;stroke-miterlimit:4;stroke-dasharray:none;paint-order:stroke fill markers;stop-color:#000000"
         d="m 403.25831,463.29573 -13.80161,72.13079 104.27275,20.17971 -122.6749,75.99467 -13.80161,72.13082 229.40005,44.39534 13.8016,-72.1308 -104.27274,-20.1797 122.6749,-75.99468 13.80161,-72.1308 z"
         id="path17036-0"
         sodipodi:nodetypes="ccccccccccc" />
      <path
         style="display:inline;fill:#ffffff;stroke:#000000;stroke-width:128;stroke-linecap:round;stroke-linejoin:round;stroke-miterlimit:4;stroke-dasharray:none;paint-order:stroke fill markers;stop-color:#000000"
         d="M 88.516689,84.326717 62.963261,162.27106 175.64388,199.81107 28.89201,266.19685 3.3385779,344.14121 251.23596,426.72922 l 25.55343,-77.94436 -112.68062,-37.54 146.75187,-66.38579 25.55343,-77.94435 z"
         id="path17036-3"
         sodipodi:nodetypes="ccccccccccc" />
    </g>
    <g
       id="g7978"
       transform="matrix(0.77053894,0,0,1,122.41554,-218.47359)"
       inkscape:label="blankie"
       style="stroke-width:1.1392">
      <path
         style="fill:#8800aa;stroke:#660080;stroke-width:72.9093;stroke-linecap:round;stroke-linejoin:round;stroke-miterlimit:4;stroke-dasharray:none;stroke-opacity:1;paint-order:fill markers stroke;stop-color:#000000"
         d="m 480.40661,1868.8792 -122.62512,189.4413 1151.48191,8.3589 c -0.085,-172.2252 17.2265,-253.9017 -93.0437,-426.1269 0,0 -189.3294,106.9611 -420.2668,137.4499 -230.9374,30.4887 -515.54629,90.8768 -515.54629,90.8768 z"
         id="path7226"
         sodipodi:nodetypes="ccccsc"
         sodipodi:insensitive="true" />
      <path
         style="fill:#8800aa;stroke:#660080;stroke-width:72.9093;stroke-linecap:round;stroke-linejoin:round;stroke-miterlimit:4;stroke-dasharray:none;stroke-opacity:1;paint-order:fill markers stroke;stop-color:#000000"
         d="m 423.50448,1863.8586 c -56.02416,-35.5643 -16.63604,-74.4704 7.6395,-112.8471 0,0 243.38389,13.1075 588.18102,-70.3605 338.0194,-81.8273 313.3109,-124.2678 377.761,-127.6913 64.45,-3.4235 104.7407,74.8729 69.3728,150.9099 0,0 -119.8906,26.2 -380.2031,95.3644 -269.04991,71.4859 -662.75122,64.6246 -662.75122,64.6246 z"
         id="path7894"
         sodipodi:nodetypes="ccszcsc" />
    </g>
    <path
       id="path18343"
       style="display:inline;fill:#e4d9b9;stroke:#e4d9b9;stroke-width:64;stroke-linecap:round;stroke-linejoin:round;stroke-miterlimit:4;stroke-dasharray:6.4, 6.4;stroke-dashoffset:0;stroke-opacity:1;paint-order:fill markers stroke;stop-color:#000000"
       inkscape:label="head_line"
       d="m 385.89679,1485.9236 c 27.03227,1.1377 56.40906,-0.2026 88.31546,-4.4568 264.9418,-35.3255 362.24475,-76.4716 575.87025,-153.4135"
       sodipodi:nodetypes="csc" />
  </g>
</svg>
