<?xml version="1.0" encoding="UTF-8" standalone="no"?>
<!-- Created with Inkscape (http://www.inkscape.org/) -->

<svg
   version="1.1"
   id="svg824"
   width="1706.6667"
   height="1706.6667"
   viewBox="0 0 1706.6667 1706.6667"
   sodipodi:docname="ying_lurk_ping.svg"
   inkscape:version="1.1 (c68e22c387, 2021-05-23)"
   inkscape:export-filename="D:\Pictures\yingmotes\ying_lurk_ping.png"
   inkscape:export-xdpi="72"
   inkscape:export-ydpi="72"
   xmlns:inkscape="http://www.inkscape.org/namespaces/inkscape"
   xmlns:sodipodi="http://sodipodi.sourceforge.net/DTD/sodipodi-0.dtd"
   xmlns="http://www.w3.org/2000/svg"
   xmlns:svg="http://www.w3.org/2000/svg">
  <defs
     id="defs828" />
  <sodipodi:namedview
     id="namedview826"
     pagecolor="#ffffff"
     bordercolor="#666666"
     borderopacity="1.0"
     inkscape:pageshadow="2"
     inkscape:pageopacity="0.0"
     inkscape:pagecheckerboard="0"
     showgrid="false"
     inkscape:zoom="0.32026963"
     inkscape:cx="340.33823"
     inkscape:cy="750.92977"
     inkscape:window-width="1920"
     inkscape:window-height="1001"
     inkscape:window-x="-9"
     inkscape:window-y="-9"
     inkscape:window-maximized="1"
     inkscape:current-layer="layer1" />
  <g
     id="layer1"
     inkscape:label="Ying"
     style="display:inline"
     inkscape:groupmode="layer">
    <g
       id="g5278"
       inkscape:label="ping"
       transform="rotate(23.956496,394.75434,1368.081)">
      <rect
         style="fill:#ff0000;stroke:none;stroke-width:64;stroke-linecap:round;stroke-linejoin:round;paint-order:fill markers stroke;stop-color:#000000"
         id="rect5153"
         width="897.68115"
         height="897.68115"
         x="-575.6731"
         y="60.997616"
         transform="rotate(-23.970572)"
         ry="243.5448"
         rx="243.5448" />
      <path
         id="rect3975"
         style="fill:#ffffff;stroke:none;stroke-width:64;stroke-linecap:round;stroke-linejoin:round;paint-order:fill markers stroke;stop-color:#000000"
         d="M -77.263377,234.74069 -180.27246,474.66787 -29.075712,539.4013 12.712179,441.79735 176.33607,809.81141 326.62322,742.99173 71.283215,168.69488 Z"
         sodipodi:nodetypes="cccccccc" />
    </g>
    <g
       id="g12988"
       inkscape:label="head"
       transform="rotate(23.970572,348.84182,1442.8374)">
      <path
         style="display:inline;fill:none;fill-opacity:1;stroke:#cccc00;stroke-width:32;stroke-linecap:round;stroke-linejoin:round;stroke-miterlimit:4;stroke-dasharray:none;stroke-dashoffset:0;stroke-opacity:1;paint-order:fill markers stroke;stop-color:#000000"
         d="M 103.27127,866.18303 C 272.8829,835.22534 469.30154,827.7893 628.47545,850.31487"
         id="path6280-0-6"
         sodipodi:nodetypes="cc"
         inkscape:label="eyelash left small"
         inkscape:transform-center-x="245.38549"
         inkscape:transform-center-y="-81.939857" />
      <path
         style="display:inline;fill:none;fill-opacity:1;stroke:#cccc00;stroke-width:32;stroke-linecap:round;stroke-linejoin:round;stroke-miterlimit:4;stroke-dasharray:none;stroke-dashoffset:0;stroke-opacity:1;paint-order:fill markers stroke;stop-color:#000000"
         d="M -60.019482,698.09977 C 224.37421,680.40393 491.02747,717.8762 723.27692,862.33527"
         id="path6280-3"
         sodipodi:nodetypes="cc"
         inkscape:label="eyelash left big"
         inkscape:transform-center-x="309.88345"
         inkscape:transform-center-y="-210.71201" />
      <path
         style="opacity:1;fill:#cccc00;fill-opacity:1;stroke:#cccc00;stroke-width:64;stroke-linecap:round;stroke-miterlimit:4;stroke-dasharray:none;stroke-dashoffset:0;stroke-opacity:1;paint-order:fill markers stroke;stop-color:#000000"
         d="m 739.93918,1002.4031 c 0,0 -141.89198,-106.20729 -248.24774,-254.79876 C 374.68953,584.13895 304.34817,365.41749 355.97418,320.26509 c 51.62602,-45.15241 258.79864,43.60372 366.21519,136.51633 107.41656,92.91261 267.88187,356.59747 267.88187,356.59747 z"
         id="path1640"
         inkscape:label="leftear"
         sodipodi:nodetypes="cssscc"
         inkscape:transform-center-x="55.93538"
         inkscape:transform-center-y="-307.15733" />
      <g
         id="g12997"
         inkscape:label="left eye">
        <path
           id="path1915-9"
           style="display:inline;fill:#fefefe;stroke:#6a6a1c;stroke-width:64;stroke-linecap:round;stroke-linejoin:round;paint-order:fill markers stroke;stop-color:#000000"
           inkscape:label="lefteye"
           d="m 792.61751,1048.7279 c 10e-6,120.7167 -155.86024,218.577 -276.57698,218.577 -120.71674,0 -160.57699,-55.8603 -160.57698,-176.577 0,-120.71673 97.86025,-260.57698 218.57698,-260.57698 120.71673,0 218.57698,97.86025 218.57698,218.57698 z"
           sodipodi:nodetypes="sssss" />
        <path
           style="opacity:1;fill:#ffffff;fill-opacity:1;stroke:#6a6a1c;stroke-width:48;stroke-linecap:round;stroke-linejoin:round;stroke-miterlimit:4;stroke-dasharray:none;stroke-dashoffset:0;stroke-opacity:1;paint-order:fill markers stroke;stop-color:#000000"
           d="M 502.77494,940.42933 V 1110.4337"
           id="path2372"
           inkscape:label="pupil left" />
      </g>
      <path
         id="path1148"
         style="display:inline;opacity:1;fill:#ffff00;stroke:#ffff00;stroke-width:64;stroke-linecap:round;stroke-linejoin:round;stroke-miterlimit:4;stroke-dasharray:6.4, 6.4;stroke-dashoffset:0;stroke-opacity:1;paint-order:fill markers stroke;stop-color:#000000"
         inkscape:label="head"
         d="m 1299.0547,1153.5586 c 0,0 -0.1078,-10.8206 -0.9512,-28.418 -0.4217,-8.7987 -1.0259,-19.2912 -1.8945,-30.9726 -0.8686,-11.6814 -1.9997,-24.5525 -3.4727,-38.1055 -1.4729,-13.553 -3.2888,-27.7877 -5.5234,-42.2012 -2.2347,-14.41345 -4.8892,-29.0047 -8.043,-43.26755 -1.5769,-7.13143 -3.279,-14.18175 -5.1152,-21.08594 -1.8362,-6.90419 -3.8068,-13.66232 -5.9219,-20.21289 -2.1151,-6.55056 -4.3733,-12.89234 -6.7871,-18.96289 -2.4138,-6.07055 -4.9828,-11.86984 -7.7148,-17.33398 -2.7321,-5.46415 -5.9346,-10.78574 -9.5391,-15.96094 -3.6045,-5.1752 -7.6114,-10.20474 -11.9492,-15.08399 -4.3379,-4.87924 -9.0074,-9.60926 -13.9395,-14.18554 -4.9321,-4.57628 -10.1264,-8.99932 -15.5136,-13.26563 -5.3873,-4.2663 -10.9666,-8.37489 -16.67,-12.32422 -5.7033,-3.94932 -11.5298,-7.73794 -17.4101,-11.36328 -11.7607,-7.25067 -23.7371,-13.84709 -35.3711,-19.75976 -11.634,-5.91267 -22.9257,-11.14156 -33.3203,-15.66016 -10.3946,-4.5186 -19.8912,-8.32606 -27.9336,-11.39453 -16.085,-6.13693 -26.3535,-9.31836 -26.3535,-9.31836 -106.83135,-15.98813 -232.17461,6.96944 -312.62504,60.01367 -101.26734,66.76968 -136.88727,176.62945 -198.70703,211.95509 -61.81975,35.3255 -225.20029,77.273 -280.39649,83.8965 -55.19621,6.6235 -183.250354,6.6246 -161.171871,123.6406 22.078481,117.016 112.599211,282.6048 377.541011,247.2793 264.94179,-35.3256 313.51517,-44.1575 536.50782,-88.3145 22.8973,-4.5341 53.8481,-18.3195 86.8281,-36.9472 l 213.8711,-11.4278 -92.9258,-75.2558 c 5.3578,-4.8405 10.5999,-9.7184 15.6328,-14.6367 l 142.0762,-2.375 -84.8808,-69.668 c 3.4806,-6.5537 6.4805,-13.0207 8.6269,-19.3066 1.0523,-3.0817 2.0328,-6.6268 3.0469,-9.9766 z" />
      <path
         style="display:none;fill:#123456;stroke:#123456;stroke-width:64;stroke-linecap:round;stroke-linejoin:round;-inkscape-stroke:none;paint-order:fill markers stroke;stop-color:#000000"
         d="M 880.93148,744.0449 C 763.91552,771.643 622.61323,916.25706 622.61323,916.25706 620.95257,833.21142 611.27974,749.4374 735.2135,677.80944 c -124.69479,-7.45678 -249.2876,-15.1175 -408.45194,46.36482 0,0 303.22641,-263.62224 490.14233,-280.39675 172.2122,-15.45493 264.94181,37.53343 264.94181,37.53343 -0.1923,-45.68323 -31.4577,-88.25915 -90.52179,-128.0552 0,0 295.85169,97.14532 333.38509,194.29065 37.5334,97.14533 28.702,167.79647 28.702,167.79647 l -243.7525,34.92308 c 0,0 -111.71105,-33.81914 -228.72702,-6.22104 z"
         id="path1637"
         sodipodi:nodetypes="zcccsccsccz"
         inkscape:label="top hair" />
      <path
         id="path13483"
         style="display:inline;opacity:1;fill:#ffff00;stroke:#ffff00;stroke-width:64;stroke-linecap:round;stroke-linejoin:round;stroke-miterlimit:4;stroke-dasharray:6.4, 6.4;stroke-dashoffset:0;stroke-opacity:1;paint-order:fill markers stroke;stop-color:#000000"
         inkscape:label="rightear"
         d="M 962.84018,59.848066 C 891.42325,94.735088 872.4205,421.06075 885.60602,510.38754 c 11.73964,79.53138 29.39891,285.56532 34.35373,343.97743 0,0 10.62293,-1.64853 27.76936,-3.19449 8.57307,-0.77294 18.77721,-1.52015 30.10032,-2.02256 11.3231,-0.5024 23.76407,-0.76035 36.81277,-0.55415 13.0486,0.2062 26.705,0.87648 40.4548,2.22929 6.8748,0.67643 13.773,1.52318 20.631,2.5684 6.8581,1.0452 13.6746,2.28795 20.3878,3.75669 6.7131,1.4688 13.3217,3.16308 19.762,5.11015 6.4402,1.94706 12.712,4.14753 18.7513,6.62762 6.0393,2.48014 11.8472,5.24056 17.3574,8.30848 5.5103,3.06793 10.7236,6.44384 15.5768,10.15431 4.8532,3.7105 9.7069,7.7937 14.5403,12.18874 4.8334,4.39506 9.646,9.10211 14.4216,14.05956 4.7757,4.95747 9.5127,10.16485 14.193,15.56247 4.6803,5.39762 9.3042,10.9854 13.8513,16.70101 9.0942,11.4312 17.8837,23.37665 26.2181,35.34659 8.3343,11.97004 16.2139,23.96322 23.4862,35.49442 7.2722,11.5311 13.9381,22.5997 19.8458,32.7144 5.9077,10.1148 11.056,19.2774 15.2969,26.998 8.4818,15.4415 13.3281,25.1167 13.3281,25.1167 35.4448,-148.12124 88.9597,-449.68328 -1.1033,-654.25747 C 1198.3343,167.18653 1009.1525,37.224605 962.84018,59.848066 Z"
         inkscape:transform-center-x="-102.05385"
         inkscape:transform-center-y="-290.52834" />
      <g
         id="g13003"
         inkscape:label="face">
        <path
           style="opacity:1;fill:none;fill-opacity:1;stroke:#6a6a1c;stroke-width:64;stroke-linecap:round;stroke-linejoin:round;stroke-miterlimit:4;stroke-dasharray:none;stroke-dashoffset:0;stroke-opacity:1;paint-order:fill markers stroke;stop-color:#000000"
           d="m 83.898236,1201.0695 68.443294,6.6235 -37.53342,39.7413"
           id="path2163"
           inkscape:label="left nostril" />
        <path
           style="opacity:1;fill:none;fill-opacity:1;stroke:#6a6a1c;stroke-width:64;stroke-linecap:round;stroke-linejoin:round;stroke-miterlimit:4;stroke-dasharray:none;stroke-dashoffset:0;stroke-opacity:1;paint-order:fill markers stroke;stop-color:#000000"
           d="m 401.82839,1251.85 -59.6119,-44.157 121.43166,-17.6628"
           id="path2198"
           inkscape:label="right nostril" />
        <path
           style="opacity:1;fill:none;fill-opacity:1;stroke:#6a6a1c;stroke-width:64;stroke-linecap:round;stroke-linejoin:round;stroke-miterlimit:4;stroke-dasharray:none;stroke-dashoffset:0;stroke-opacity:1;paint-order:fill markers stroke;stop-color:#000000"
           d="m 132.4709,1346.7875 90.52178,-72.859 c 0,0 146.93476,106.6315 222.99268,101.561 66.23545,-4.4157 119.2238,-37.5334 119.2238,-37.5334"
           id="path2200"
           sodipodi:nodetypes="ccsc"
           inkscape:label="mouf" />
        <path
           style="opacity:1;fill:#ffffff;fill-opacity:1;stroke:#6a6a1c;stroke-width:64;stroke-linecap:round;stroke-linejoin:round;stroke-miterlimit:4;stroke-dasharray:none;stroke-dashoffset:0;stroke-opacity:1;paint-order:fill markers stroke;stop-color:#000000"
           d="m 222.99268,1530.0389 -90.52178,-183.2514 90.52178,-72.859 103.76887,66.2354 z"
           id="path2202"
           sodipodi:nodetypes="ccccc"
           inkscape:label="toof" />
      </g>
      <g
         id="g12993"
         inkscape:label="right eye">
        <path
           style="opacity:1;fill:#6a6a1c;fill-opacity:1;stroke:#6a6a1c;stroke-width:64;stroke-linecap:round;stroke-linejoin:round;stroke-miterlimit:4;stroke-dasharray:none;stroke-dashoffset:0;stroke-opacity:1;paint-order:fill markers stroke;stop-color:#000000"
           d="m 661.97569,1226.0485 53.36716,-115.5008 86.53085,168.711 z"
           id="path7852"
           inkscape:label="eyenub"
           sodipodi:nodetypes="cccc" />
        <path
           id="path1915"
           style="opacity:1;fill:#fefefe;stroke:#6a6a1c;stroke-width:64;stroke-linecap:round;stroke-linejoin:round;paint-order:fill markers stroke;stop-color:#000000"
           inkscape:label="righteye"
           d="m 1150.289,1075.2222 c 0,120.7167 -151.8603,218.5769 -272.57702,218.5769 -120.71671,0 -164.57695,-71.8602 -164.57699,-192.5769 -2e-5,-120.71675 97.86024,-244.57702 218.57699,-244.57701 120.71672,-2e-5 218.57702,97.86025 218.57702,218.57701 z"
           sodipodi:nodetypes="sssss" />
        <path
           style="opacity:1;fill:#ffffff;fill-opacity:1;stroke:#6a6a1c;stroke-width:48;stroke-linecap:round;stroke-linejoin:round;stroke-miterlimit:4;stroke-dasharray:none;stroke-dashoffset:0;stroke-opacity:1;paint-order:fill markers stroke;stop-color:#000000"
           d="M 867.22012,941.12603 V 1131.0009"
           id="path2350"
           inkscape:label="pupil right" />
      </g>
      <path
         style="opacity:1;fill:none;fill-opacity:1;stroke:#ffff00;stroke-width:32;stroke-linecap:round;stroke-linejoin:round;stroke-miterlimit:4;stroke-dasharray:none;stroke-dashoffset:0;stroke-opacity:1;paint-order:fill markers stroke;stop-color:#000000"
         d="M 37.362611,522.92702 C 318.51761,569.23884 570.0512,665.35847 764.14039,858.06969"
         id="path6280"
         sodipodi:nodetypes="cc"
         inkscape:label="eyelash right big"
         inkscape:transform-center-x="267.61085"
         inkscape:transform-center-y="-229.36148" />
      <path
         style="display:inline;fill:none;fill-opacity:1;stroke:#ffff00;stroke-width:32;stroke-linecap:round;stroke-linejoin:round;stroke-miterlimit:4;stroke-dasharray:none;stroke-dashoffset:0;stroke-opacity:1;paint-order:fill markers stroke;stop-color:#000000"
         d="m 443.56183,455.23715 c 143.64508,95.355 290.28303,226.24767 389.31036,352.88623"
         id="path6280-0"
         sodipodi:nodetypes="cc"
         inkscape:label="eyelash right small"
         inkscape:transform-center-x="102.87503"
         inkscape:transform-center-y="-203.97091" />
      <rect
         style="fill:#ffffff;stroke:#000000;stroke-width:128;stroke-linecap:round;stroke-linejoin:round;stroke-miterlimit:4;stroke-dasharray:12.8, 12.8;stroke-dashoffset:0;paint-order:fill markers stroke;stop-color:#000000"
         id="rect1442"
         width="2035.7847"
         height="327.84875"
         x="-800.4837"
         y="1465.0426"
         transform="rotate(-23.970572)"
         inkscape:label="peek bar" />
      <path
         style="display:inline;fill:#ffffff;fill-opacity:1;stroke:#6a6a1c;stroke-width:64;stroke-linecap:round;stroke-linejoin:round;stroke-miterlimit:4;stroke-dasharray:none;stroke-dashoffset:0;stroke-opacity:1;paint-order:fill markers stroke;stop-color:#000000"
         d="m 222.99268,1530.0389 -90.52178,-183.2514 90.52178,-72.859 103.76887,66.2354 z"
         id="path2202-8"
         sodipodi:nodetypes="ccccc"
         inkscape:label="toof" />
    </g>
  </g>
</svg>
