<?xml version="1.0" encoding="UTF-8" standalone="no"?>
<!-- Created with Inkscape (http://www.inkscape.org/) -->

<svg
   version="1.1"
   id="svg824"
   width="1706.6667"
   height="1706.6667"
   viewBox="0 0 1706.6667 1706.6667"
   sodipodi:docname="ying_tail_up.svg"
   inkscape:version="1.1 (c68e22c387, 2021-05-23)"
   inkscape:export-filename="D:\Pictures\yingmotes\ying_tail_up.png"
   inkscape:export-xdpi="72"
   inkscape:export-ydpi="72"
   xmlns:inkscape="http://www.inkscape.org/namespaces/inkscape"
   xmlns:sodipodi="http://sodipodi.sourceforge.net/DTD/sodipodi-0.dtd"
   xmlns="http://www.w3.org/2000/svg"
   xmlns:svg="http://www.w3.org/2000/svg">
  <defs
     id="defs828" />
  <sodipodi:namedview
     id="namedview826"
     pagecolor="#ffffff"
     bordercolor="#666666"
     borderopacity="1.0"
     inkscape:pageshadow="2"
     inkscape:pageopacity="0.0"
     inkscape:pagecheckerboard="0"
     showgrid="false"
     inkscape:zoom="0.1852875"
     inkscape:cx="-51.271672"
     inkscape:cy="688.11981"
     inkscape:window-width="1920"
     inkscape:window-height="1001"
     inkscape:window-x="-9"
     inkscape:window-y="-9"
     inkscape:window-maximized="1"
     inkscape:current-layer="svg824" />
  <path
     style="fill:#ffff00;fill-opacity:1;stroke:#ffff00;stroke-width:64;stroke-linecap:round;stroke-linejoin:round;stroke-miterlimit:4;stroke-dasharray:6.4, 6.4;stroke-dashoffset:0;stroke-opacity:1;paint-order:markers stroke fill;stop-color:#000000"
     d="M 483.33782,1744.0345 C 628.77081,1663.1688 672.57099,1551.019 717.4005,1362.7484 772.80009,1130.0866 681.84335,938.98652 714.53578,942.77023 853.41008,1117.8434 927.15223,1292.5047 935.3681,1397.4074 952.34818,1614.214 815.88748,1755.3562 769.55792,1732.5857 Z"
     id="path980"
     sodipodi:nodetypes="cscscc"
     inkscape:label="tail"
     inkscape:export-filename="D:\Pictures\yingmotes\path980.png"
     inkscape:export-xdpi="72"
     inkscape:export-ydpi="72" />
  <path
     style="display:none;fill:#123456;fill-opacity:1;stroke:#123456;stroke-width:64;stroke-linecap:round;stroke-linejoin:round;stroke-miterlimit:4;stroke-dasharray:6.4, 6.4;stroke-dashoffset:0;stroke-opacity:1;paint-order:markers stroke fill;stop-color:#000000"
     d="M 465.74696,639.86856 C 653.4544,666.79581 770.1026,834.69732 857.193,970.25182 l 18.5316,-93.5897 c 53.2857,204.73988 22.5552,346.49678 -59.1864,390.40378 -99.557,-8.042 -203.0094,-127.2015 -203.0094,-127.2015 -24.6699,-77.1321 -192.60394,-124.058 -306.88644,-115.2311 17.7082,-39.14608 140.8879,-48.80738 195.0965,-27.50538 -7.677,-114.243 -56.8241,-214.7905 -317.0578,-245.6272 88.393,-18.45629 196.4379,-37.83917 350.67874,68.1024 72.4705,-33.6313 -22.67374,-122.45907 -69.61284,-179.73456 z"
     id="path7036"
     sodipodi:nodetypes="cccccccccc"
     inkscape:label="tail tuft" />
</svg>
