<?xml version="1.0" encoding="UTF-8" standalone="no"?>
<!-- Created with Inkscape (http://www.inkscape.org/) -->

<svg
   version="1.1"
   id="svg824"
   width="1706.6667"
   height="1706.6667"
   viewBox="0 0 1706.6667 1706.6667"
   sodipodi:docname="ying_tail_down.svg"
   inkscape:version="1.1 (c68e22c387, 2021-05-23)"
   inkscape:export-filename="D:\Pictures\yingmotes\ying_tail_down.png"
   inkscape:export-xdpi="72"
   inkscape:export-ydpi="72"
   xmlns:inkscape="http://www.inkscape.org/namespaces/inkscape"
   xmlns:sodipodi="http://sodipodi.sourceforge.net/DTD/sodipodi-0.dtd"
   xmlns="http://www.w3.org/2000/svg"
   xmlns:svg="http://www.w3.org/2000/svg">
  <defs
     id="defs828" />
  <sodipodi:namedview
     id="namedview826"
     pagecolor="#ffffff"
     bordercolor="#666666"
     borderopacity="1.0"
     inkscape:pageshadow="2"
     inkscape:pageopacity="0.0"
     inkscape:pagecheckerboard="0"
     showgrid="false"
     inkscape:zoom="0.52407219"
     inkscape:cx="825.26798"
     inkscape:cy="1332.8316"
     inkscape:window-width="1920"
     inkscape:window-height="1001"
     inkscape:window-x="-9"
     inkscape:window-y="-9"
     inkscape:window-maximized="1"
     inkscape:current-layer="svg824" />
  <path
     style="fill:#ffff00;fill-opacity:1;stroke:#ffff00;stroke-width:64;stroke-linecap:round;stroke-linejoin:round;stroke-miterlimit:4;stroke-dasharray:6.4, 6.4;stroke-dashoffset:0;stroke-opacity:1;paint-order:markers stroke fill;stop-color:#000000"
     d="m 280.92587,1749.8862 c 155.85367,58.3065 269.63881,18.9495 442.04883,-68.9725 213.0616,-108.6526 299.5966,-301.7952 317.9101,-274.4505 -43.2676,219.2364 -128.4464,388.6148 -202.992,462.8781 -154.0663,153.4829 -349.99718,141.0847 -362.69515,91.0478 z"
     id="path980"
     sodipodi:nodetypes="cscscc"
     inkscape:label="tail" />
  <path
     style="display:none;fill:#123456;fill-opacity:1;stroke:#123456;stroke-width:64;stroke-linecap:round;stroke-linejoin:round;stroke-miterlimit:4;stroke-dasharray:6.4, 6.4;stroke-dashoffset:0;stroke-opacity:1;paint-order:markers stroke fill;stop-color:#000000"
     d="m 1404.055,1016.8298 c -189.5044,-6.8754 -334.1462,137.6115 -443.94996,255.522 l -1.59644,-95.3934 c -88.83852,192.004 -83.80144,336.966 -11.16855,394.7068 99.40065,9.7869 222.39075,-89.0808 222.39075,-89.0808 37.9905,-71.517 211.5922,-87.8373 322.4845,-58.8322 -10.4661,-41.6708 -129.9655,-73.079 -187.0978,-61.7544 27.8666,-111.0579 94.1075,-201.2653 355.6776,-185.3423 -83.7032,-33.878 -186.5805,-72.162 -357.1997,4.6683 -65.3364,-45.9804 44.085,-116.4767 100.4596,-164.494 z"
     id="path7036"
     sodipodi:nodetypes="cccccccccc"
     inkscape:label="tail tuft" />
</svg>
