<?xml version="1.0" encoding="UTF-8" standalone="no"?>
<!-- Created with Inkscape (http://www.inkscape.org/) -->

<svg
   version="1.1"
   id="svg824"
   width="1706.6667"
   height="1706.6667"
   viewBox="0 0 1706.6667 1706.6667"
   sodipodi:docname="ying_sigh.svg"
   inkscape:version="1.1 (c68e22c387, 2021-05-23)"
   inkscape:export-filename="D:\Pictures\yingmotes\ying_sigh.png"
   inkscape:export-xdpi="72"
   inkscape:export-ydpi="72"
   xmlns:inkscape="http://www.inkscape.org/namespaces/inkscape"
   xmlns:sodipodi="http://sodipodi.sourceforge.net/DTD/sodipodi-0.dtd"
   xmlns="http://www.w3.org/2000/svg"
   xmlns:svg="http://www.w3.org/2000/svg">
  <defs
     id="defs828" />
  <sodipodi:namedview
     id="namedview826"
     pagecolor="#ffffff"
     bordercolor="#666666"
     borderopacity="1.0"
     inkscape:pageshadow="2"
     inkscape:pageopacity="0.0"
     inkscape:pagecheckerboard="0"
     showgrid="false"
     inkscape:zoom="0.32026963"
     inkscape:cx="402.78562"
     inkscape:cy="588.56658"
     inkscape:window-width="1920"
     inkscape:window-height="1001"
     inkscape:window-x="-9"
     inkscape:window-y="-9"
     inkscape:window-maximized="1"
     inkscape:current-layer="g13003">
    <inkscape:grid
       type="xygrid"
       id="grid17001" />
  </sodipodi:namedview>
  <g
     id="layer1"
     inkscape:label="Ying"
     style="display:inline"
     transform="translate(78.059228)"
     inkscape:groupmode="layer">
    <path
       style="display:inline;fill:#262;stroke:#262;stroke-width:64;stroke-linecap:round;stroke-linejoin:round;-inkscape-stroke:none;paint-order:fill markers stroke;stop-color:#000000"
       d="m 1298.031,865.09775 c 70.7982,131.45402 185.3824,239.02475 198.7064,401.82835 -29.438,-19.1346 -55.9321,-14.719 -79.4825,13.2471 91.0222,54.7003 58.5139,175.917 81.6903,267.1496 l -99.3531,6.6236 c 66.7588,58.9185 81.773,128.1858 90.5218,198.7063 l -494.50725,2.2079 c -24.3802,-41.4813 23.11455,-208.5632 66.23555,-227.0436 0,0 3.3791,-20.0154 -75.35325,-9.4549 C 1015.23,1271.0896 1172.1837,1096.1858 1298.031,865.09775 Z"
       id="path3091"
       sodipodi:nodetypes="cccccccccc"
       inkscape:label="mane" />
    <path
       style="opacity:1;fill:#9f8;fill-opacity:1;stroke:#9f8;stroke-width:64;stroke-linecap:round;stroke-linejoin:round;stroke-miterlimit:4;stroke-dasharray:none;stroke-dashoffset:0;stroke-opacity:1;paint-order:fill markers stroke;stop-color:#000000"
       d="m 925.5249,1343.3037 -64.7849,239.5079 62.82173,-25.5214 -51.04266,200.2443 459.38383,-15.7054 c 0,0 -127.6066,-94.2326 -149.2016,-184.5389 -21.5949,-90.3062 51.0427,-253.25 51.0427,-253.25 z"
       id="path3340"
       inkscape:label="neck" />
    <g
       id="g12988"
       inkscape:label="head"
       transform="rotate(-10.529837,655.82342,405.81054)">
      <path
         style="display:inline;fill:none;fill-opacity:1;stroke:#3b4;stroke-width:32;stroke-linecap:round;stroke-linejoin:round;stroke-miterlimit:4;stroke-dasharray:none;stroke-dashoffset:0;stroke-opacity:1;paint-order:fill markers stroke;stop-color:#000000"
         d="M 229.59569,513.48724 C 376.55265,603.65452 527.76896,729.23001 631.25316,852.2534"
         id="path6280-0-6"
         sodipodi:nodetypes="cc"
         inkscape:label="eyelash left small" />
      <path
         style="display:inline;fill:none;fill-opacity:1;stroke:#3b4;stroke-width:32;stroke-linecap:round;stroke-linejoin:round;stroke-miterlimit:4;stroke-dasharray:none;stroke-dashoffset:0;stroke-opacity:1;paint-order:fill markers stroke;stop-color:#000000"
         d="M 151.65634,318.52301 C 401.71253,455.14225 607.35216,628.98263 726.85531,875.00544"
         id="path6280-3"
         sodipodi:nodetypes="cc"
         inkscape:label="eyelash left big" />
      <g
         id="g12997"
         inkscape:label="left eye"
         transform="translate(15.34894,2.8530263)">
        <path
           id="path1915-9"
           style="display:inline;fill:#cff;stroke:#131;stroke-width:64;stroke-linecap:round;stroke-linejoin:round;paint-order:fill markers stroke;stop-color:#000000"
           inkscape:label="lefteye"
           d="m 792.61751,1048.7279 c 10e-6,120.7167 -155.86024,218.577 -276.57698,218.577 -120.71674,0 -160.57699,-55.8603 -160.57698,-176.577 0,-120.71673 97.86025,-260.57698 218.57698,-260.57698 120.71673,0 218.57698,97.86025 218.57698,218.57698 z"
           sodipodi:nodetypes="sssss" />
        <path
           style="opacity:1;fill:#ffffff;fill-opacity:1;stroke:#131;stroke-width:48;stroke-linecap:round;stroke-linejoin:round;stroke-miterlimit:4;stroke-dasharray:none;stroke-dashoffset:0;stroke-opacity:1;paint-order:fill markers stroke;stop-color:#000000"
           d="M 498.97372,962.62186 V 1132.6262"
           id="path2372"
           inkscape:label="pupil left" />
        <path
           id="path11566"
           style="display:inline;fill:#474;fill-opacity:1;stroke:#131;stroke-width:64;stroke-linecap:round;stroke-linejoin:round;paint-order:fill markers stroke;stop-color:#000000"
           inkscape:label="leftlid"
           d="m 707.08008,873.56445 c -14.52132,-0.26232 -29.28561,0.92601 -44.1211,3.6836 -84.47643,15.70229 -144.57917,98.95881 -164.27539,188.44145 266.68518,9.95 275.82326,-75.37363 392.40039,-84.84966 C 852.94177,916.36596 783.35783,874.94239 707.08008,873.56445 Z"
           transform="rotate(10.529837,874.0471,371.22829)"
           sodipodi:nodetypes="ssccs" />
      </g>
      <path
         style="display:inline;opacity:1;fill:#3b4;fill-opacity:1;stroke:#3b4;stroke-width:64;stroke-linecap:round;stroke-miterlimit:4;stroke-dasharray:none;stroke-dashoffset:0;stroke-opacity:1;paint-order:fill markers stroke;stop-color:#000000"
         d="m 868.04796,839.53791 c 0,0 9.43442,-176.98676 73.85438,-347.98691 70.86826,-188.11715 213.60546,-368.15348 279.83446,-350.32933 66.229,17.82414 107.5834,239.38217 90.0409,380.31947 -17.5425,140.93731 -147.5712,420.88623 -147.5712,420.88623 z"
         id="path1640"
         inkscape:label="leftear"
         sodipodi:nodetypes="cssscc"
         inkscape:transform-center-x="-30.219106"
         inkscape:transform-center-y="-287.33883" />
      <path
         id="path1148"
         style="display:inline;opacity:1;fill:#9f8;stroke:#9f8;stroke-width:64;stroke-linecap:round;stroke-linejoin:round;stroke-miterlimit:4;stroke-dasharray:6.4, 6.4;stroke-dashoffset:0;stroke-opacity:1;paint-order:fill markers stroke;stop-color:#000000"
         inkscape:label="head"
         d="m 1314.4036,1156.4116 c 0,0 -0.1078,-10.8206 -0.9512,-28.418 -0.4217,-8.7987 -1.0259,-19.2912 -1.8945,-30.9726 -0.8686,-11.6814 -1.9997,-24.5525 -3.4727,-38.1055 -1.4729,-13.553 -3.2888,-27.7877 -5.5234,-42.2012 -2.2347,-14.4134 -4.8892,-29.00467 -8.043,-43.26752 -1.5769,-7.13143 -3.279,-14.18175 -5.1152,-21.08594 -1.8362,-6.90419 -3.8068,-13.66232 -5.9219,-20.21289 -2.1151,-6.55056 -4.3733,-12.89234 -6.7871,-18.96289 -2.4138,-6.07055 -4.9828,-11.86984 -7.7148,-17.33398 -2.7321,-5.46415 -5.9346,-10.78574 -9.5391,-15.96094 -3.6045,-5.1752 -7.6114,-10.20474 -11.9492,-15.08399 -4.3379,-4.87924 -9.0074,-9.60926 -13.9395,-14.18554 -4.9321,-4.57628 -10.1264,-8.99932 -15.5136,-13.26563 -5.3873,-4.2663 -10.9666,-8.37489 -16.67,-12.32422 -5.7033,-3.94932 -11.5298,-7.73794 -17.4101,-11.36328 -11.7607,-7.25067 -23.7371,-13.84709 -35.3711,-19.75976 -11.634,-5.91267 -22.9257,-11.14156 -33.3203,-15.66016 -10.3946,-4.5186 -19.8912,-8.32606 -27.9336,-11.39453 -16.085,-6.13693 -26.3535,-9.31836 -26.3535,-9.31836 -106.83131,-15.98813 -232.17457,6.96944 -312.625,60.01367 -101.26734,66.76968 -136.88727,176.62945 -198.70703,211.95506 -61.81975,35.3255 -225.20029,77.273 -280.39649,83.8965 -55.19621,6.6235 -183.250354,6.6246 -161.17187,123.6406 22.07848,117.016 112.59921,282.6048 377.54101,247.2793 264.94179,-35.3256 313.51517,-44.1575 536.50778,-88.3145 22.8973,-4.5341 116.5531,-74.9001 149.5331,-93.5278 l 185.5122,60.7646 -127.2719,-90.8676 c 5.3578,-4.8405 10.5999,-9.7184 15.6328,-14.6367 l 160.8104,0.7474 -103.615,-72.7904 c 3.4806,-6.5537 6.4805,-13.0207 8.6269,-19.3066 1.0523,-3.0817 2.0328,-6.6268 3.0469,-9.9766 z"
         sodipodi:nodetypes="csssssssssssssssssscssssssccccccsc" />
      <path
         style="display:inline;fill:#262;stroke:#262;stroke-width:64;stroke-linecap:round;stroke-linejoin:round;-inkscape-stroke:none;paint-order:fill markers stroke;stop-color:#000000"
         d="M 880.93148,744.0449 C 763.91552,771.643 622.61323,916.25706 622.61323,916.25706 620.95257,833.21142 611.27974,749.4374 735.2135,677.80944 c -124.69479,-7.45678 -249.2876,-15.1175 -408.45194,46.36482 0,0 303.22641,-263.62224 490.14233,-280.39675 172.2122,-15.45493 264.94181,37.53343 264.94181,37.53343 -0.1923,-45.68323 -31.4577,-88.25915 -90.52179,-128.0552 0,0 295.85169,97.14532 333.38509,194.29065 37.5334,97.14533 28.702,167.79647 28.702,167.79647 l -243.7525,34.92308 c 0,0 -111.71105,-33.81914 -228.72702,-6.22104 z"
         id="path1637"
         sodipodi:nodetypes="zcccsccsccz"
         inkscape:label="top hair" />
      <path
         id="path13483"
         style="display:inline;opacity:1;fill:#9f8;stroke:#9f8;stroke-width:64;stroke-linecap:round;stroke-linejoin:round;stroke-miterlimit:4;stroke-dasharray:6.4, 6.4;stroke-dashoffset:0;stroke-opacity:1;paint-order:fill markers stroke;stop-color:#000000"
         inkscape:label="rightear"
         d="m 1437.541,183.95345 c -79.2482,-6.09984 -260.945,265.6276 -294.8285,349.32371 -30.168,74.51818 -119.3168,261.10412 -144.63563,313.97638 0,0 9.99403,3.9601 25.56053,11.31338 7.7832,3.67663 16.9596,8.20166 26.9767,13.50468 10.0173,5.30298 20.8744,11.38302 32.0203,18.1711 11.1459,6.78808 22.5807,14.28417 33.7503,22.41602 5.5847,4.06594 11.1033,8.29053 16.4867,12.6659 5.3835,4.3754 10.631,8.90004 15.675,13.56719 5.0439,4.66719 9.8834,9.47581 14.4498,14.41709 4.5663,4.94131 8.8591,10.01572 12.8098,15.21348 3.9505,5.19776 7.5596,10.51999 10.7563,15.95655 3.1967,5.43657 5.9813,10.98824 8.2861,16.64597 2.3046,5.6576 4.4209,11.637 6.3617,17.8749 1.9408,6.2379 3.7056,12.7343 5.3115,19.4279 1.6062,6.6935 3.0522,13.583 4.3532,20.6077 1.3009,7.0248 2.457,14.1849 3.4819,21.4163 2.0499,14.4629 3.5768,29.2148 4.6988,43.7572 1.1218,14.5425 1.84,28.8746 2.2684,42.5007 0.4285,13.6261 0.5685,26.5461 0.538,38.2596 -0.031,11.7136 -0.2332,22.2215 -0.488,31.0267 -0.5096,17.6102 -1.2326,28.4072 -1.2326,28.4072 105.5967,-109.7524 304.5045,-342.64554 330.4882,-564.6518 35.5748,-303.95324 -61.6981,-511.84218 -113.0888,-515.79778 z"
         inkscape:transform-center-x="-56.66848"
         inkscape:transform-center-y="-216.6328" />
      <g
         id="g13003"
         inkscape:label="face"
         inkscape:groupmode="layer">
        <path
           style="opacity:1;fill:none;fill-opacity:1;stroke:#131;stroke-width:64;stroke-linecap:round;stroke-linejoin:round;stroke-miterlimit:4;stroke-dasharray:none;stroke-dashoffset:0;stroke-opacity:1;paint-order:fill markers stroke;stop-color:#000000"
           d="m 99.247176,1203.9225 68.443294,6.6235 -37.53342,39.7413"
           id="path2163"
           inkscape:label="left nostril" />
        <path
           style="opacity:1;fill:none;fill-opacity:1;stroke:#131;stroke-width:64;stroke-linecap:round;stroke-linejoin:round;stroke-miterlimit:4;stroke-dasharray:none;stroke-dashoffset:0;stroke-opacity:1;paint-order:fill markers stroke;stop-color:#000000"
           d="m 417.17733,1254.703 -59.6119,-44.157 121.43166,-17.6628"
           id="path2198"
           inkscape:label="right nostril" />
        <path
           style="opacity:1;fill:#141;fill-opacity:1;stroke:#131;stroke-width:64;stroke-linecap:round;stroke-linejoin:round;stroke-miterlimit:4;stroke-dasharray:none;stroke-dashoffset:0;stroke-opacity:1;paint-order:fill markers stroke;stop-color:#000000"
           d="m 449.3343,1378.3425 c -46.79968,-25.229 -210.99268,-101.561 -210.99268,-101.561 l -90.52178,72.859 c 0,0 70.03025,139.6046 184.8782,111.9736 65.82219,-15.836 116.63626,-83.2716 116.63626,-83.2716 z"
           id="path2200"
           sodipodi:nodetypes="cccsc"
           inkscape:label="mouf" />
        <path
           style="opacity:1;fill:#ffffff;fill-opacity:1;stroke:#131;stroke-width:64;stroke-linecap:round;stroke-linejoin:round;stroke-miterlimit:4;stroke-dasharray:none;stroke-dashoffset:0;stroke-opacity:1;paint-order:fill markers stroke;stop-color:#000000"
           d="m 238.34162,1532.8919 -90.52178,-183.2514 90.52178,-72.859 103.76887,66.2354 z"
           id="path2202"
           sodipodi:nodetypes="ccccc"
           inkscape:label="toof" />
        <path
           style="fill:#e6e6e6;fill-opacity:1;stroke:#000000;stroke-width:64;stroke-linecap:round;stroke-linejoin:round;stroke-miterlimit:4;stroke-dasharray:none;paint-order:fill markers stroke;stop-color:#000000"
           d="m 83.091301,1461.9858 -145.986289,-20.8822 42.854497,13.0708 c 0,0 36.690843,93.7867 -82.647919,94.71 -125.80177,0.9733 -56.44081,-99.0559 -56.44081,-99.0559 0,0 -64.74031,10.7969 -73.27176,-53.0311 -7.66774,-57.3664 47.32019,-58.9989 47.32019,-58.9989 0,0 -35.72483,-81.4361 69.73822,-84.9747 124.3067076,-4.1709 92.953714,87.0831 92.953714,87.0831 l -45.808229,7.5178 107.959795,-7.4698"
           id="path10357"
           sodipodi:nodetypes="cccscscsccc" />
      </g>
      <g
         id="g12993"
         inkscape:label="right eye"
         transform="translate(15.34894,2.8530263)">
        <path
           style="opacity:1;fill:#131;fill-opacity:1;stroke:#131;stroke-width:64;stroke-linecap:round;stroke-linejoin:round;stroke-miterlimit:4;stroke-dasharray:none;stroke-dashoffset:0;stroke-opacity:1;paint-order:fill markers stroke;stop-color:#000000"
           d="m 661.97569,1226.0485 53.36716,-115.5008 86.53085,168.711 z"
           id="path7852"
           inkscape:label="eyenub"
           sodipodi:nodetypes="cccc" />
        <path
           id="path1915"
           style="opacity:1;fill:#cff;stroke:#131;stroke-width:64;stroke-linecap:round;stroke-linejoin:round;paint-order:fill markers stroke;stop-color:#000000"
           inkscape:label="righteye"
           d="m 1150.289,1075.2222 c 0,120.7167 -151.8603,218.5769 -272.57702,218.5769 -120.71671,0 -164.57695,-71.8602 -164.57699,-192.5769 -2e-5,-120.71675 97.86024,-244.57702 218.57699,-244.57701 120.71672,-2e-5 218.57702,97.86025 218.57702,218.57701 z"
           sodipodi:nodetypes="sssss" />
        <path
           style="opacity:1;fill:#ffffff;fill-opacity:1;stroke:#131;stroke-width:48;stroke-linecap:round;stroke-linejoin:round;stroke-miterlimit:4;stroke-dasharray:none;stroke-dashoffset:0;stroke-opacity:1;paint-order:fill markers stroke;stop-color:#000000"
           d="m 841.19021,982.4925 v 189.8749"
           id="path2350"
           inkscape:label="pupil right" />
        <path
           id="path11676"
           style="opacity:1;fill:#474;fill-opacity:1;stroke:#131;stroke-width:64;stroke-linecap:round;stroke-linejoin:round;paint-order:fill markers stroke;stop-color:#000000"
           inkscape:label="rightlid"
           d="m 1063.5703,834.24805 c -14.5213,-0.26233 -29.2856,0.926 -44.1211,3.68359 -93.22106,17.32772 -158.58402,107.21009 -171.66209,202.49026 124.34353,9.3915 240.01669,12.9094 421.77149,-47.56252 C 1243.114,899.7812 1158.5461,835.96375 1063.5703,834.24805 Z"
           transform="rotate(10.529837,874.0471,371.22829)"
           sodipodi:nodetypes="ssccs" />
      </g>
      <g
         id="g10350"
         transform="rotate(16.523108,-1682.5554,4529.9736)"
         inkscape:label="wizard hat"
         style="display:none">
        <ellipse
           style="fill:#5a2ca0;stroke:#442178;stroke-width:128;stroke-linecap:round;stroke-linejoin:round;stroke-opacity:1;paint-order:stroke fill markers;stop-color:#000000"
           id="path10133"
           cx="-156.11845"
           cy="137.38425"
           rx="1183.3779"
           ry="243.54478" />
        <path
           style="fill:#5a2ca0;stroke:#442178;stroke-width:128;stroke-linecap:round;stroke-linejoin:round;stroke-opacity:1;paint-order:fill markers stroke;stop-color:#000000"
           d="m -574.04058,136.8866 194.29066,-688.84869 604.95045,-547.54641 22.07849,1223.14801"
           id="path10248" />
      </g>
      <path
         style="display:inline;opacity:1;fill:none;fill-opacity:1;stroke:#9f8;stroke-width:32;stroke-linecap:round;stroke-linejoin:round;stroke-miterlimit:4;stroke-dasharray:none;stroke-dashoffset:0;stroke-opacity:1;paint-order:fill markers stroke;stop-color:#000000"
         d="M 437.44693,127.9544 C 614.44906,351.25502 736.03764,591.51394 750.16348,864.65985"
         id="path6280"
         sodipodi:nodetypes="cc"
         inkscape:label="eyelash right big" />
      <path
         style="display:inline;fill:none;fill-opacity:1;stroke:#9f8;stroke-width:32;stroke-linecap:round;stroke-linejoin:round;stroke-miterlimit:4;stroke-dasharray:none;stroke-dashoffset:0;stroke-opacity:1;paint-order:fill markers stroke;stop-color:#000000"
         d="m 726.91691,299.14584 c 57.33566,162.60107 95.67474,355.38513 98.55015,516.11928"
         id="path6280-0"
         sodipodi:nodetypes="cc"
         inkscape:label="eyelash right small" />
    </g>
    <g
       id="g1021"
       transform="translate(75.066844,-4.4156967)" />
  </g>
</svg>
