<?xml version="1.0" encoding="UTF-8" standalone="no"?>
<!-- Created with Inkscape (http://www.inkscape.org/) -->

<svg
   version="1.1"
   id="svg824"
   width="1706.6667"
   height="1706.6667"
   viewBox="0 0 1706.6667 1706.6667"
   sodipodi:docname="ying_angry.svg"
   inkscape:version="1.1 (c68e22c387, 2021-05-23)"
   inkscape:export-filename="D:\Pictures\yingmotes\ying_angry.png"
   inkscape:export-xdpi="72"
   inkscape:export-ydpi="72"
   xmlns:inkscape="http://www.inkscape.org/namespaces/inkscape"
   xmlns:sodipodi="http://sodipodi.sourceforge.net/DTD/sodipodi-0.dtd"
   xmlns:xlink="http://www.w3.org/1999/xlink"
   xmlns="http://www.w3.org/2000/svg"
   xmlns:svg="http://www.w3.org/2000/svg">
  <defs
     id="defs828">
    <linearGradient
       inkscape:collect="always"
       id="linearGradient13351">
      <stop
         style="stop-color:#ff0000;stop-opacity:1;"
         offset="0"
         id="stop13347" />
      <stop
         style="stop-color:#ff0000;stop-opacity:0;"
         offset="1"
         id="stop13349" />
    </linearGradient>
    <linearGradient
       inkscape:collect="always"
       xlink:href="#linearGradient13351"
       id="linearGradient13353"
       x1="933.58838"
       y1="793.08173"
       x2="996.03577"
       y2="1361.3529"
       gradientUnits="userSpaceOnUse" />
  </defs>
  <sodipodi:namedview
     id="namedview826"
     pagecolor="#ffffff"
     bordercolor="#666666"
     borderopacity="1.0"
     inkscape:pageshadow="2"
     inkscape:pageopacity="0.0"
     inkscape:pagecheckerboard="0"
     showgrid="false"
     inkscape:zoom="0.32026963"
     inkscape:cx="693.16594"
     inkscape:cy="960.1285"
     inkscape:window-width="1920"
     inkscape:window-height="1001"
     inkscape:window-x="-9"
     inkscape:window-y="-9"
     inkscape:window-maximized="1"
     inkscape:current-layer="g12988" />
  <g
     id="layer1"
     inkscape:label="Ying"
     style="display:inline;"
     inkscape:groupmode="layer">
    <path
       style="display:inline;fill:#262;stroke:#262;stroke-width:64;stroke-linecap:round;stroke-linejoin:round;-inkscape-stroke:none;paint-order:fill markers stroke;stop-color:#000000"
       d="m 1298.031,865.09775 c 70.7982,131.45402 185.3824,239.02475 198.7064,401.82835 -29.438,-19.1346 -55.9321,-14.719 -79.4825,13.2471 91.0222,54.7003 58.5139,175.917 81.6903,267.1496 l -99.3531,6.6236 c 66.7588,58.9185 81.773,128.1858 90.5218,198.7063 l -494.50725,2.2079 c -24.3802,-41.4813 23.11455,-208.5632 66.23555,-227.0436 0,0 3.3791,-20.0154 -75.35325,-9.4549 C 1015.23,1271.0896 1172.1837,1096.1858 1298.031,865.09775 Z"
       id="path3091"
       sodipodi:nodetypes="cccccccccc"
       inkscape:label="mane" />
    <path
       style="opacity:1;fill:#9f8;fill-opacity:1;stroke:#9f8;stroke-width:64;stroke-linecap:round;stroke-linejoin:round;stroke-miterlimit:4;stroke-dasharray:none;stroke-dashoffset:0;stroke-opacity:1;paint-order:fill markers stroke;stop-color:#000000"
       d="m 848.0933,1338.888 -64.7849,239.5079 62.82173,-25.5214 -51.04266,200.2443 459.38383,-15.7054 c 0,0 -127.6066,-94.2326 -149.2016,-184.5389 -21.5949,-90.3062 51.0427,-253.25 51.0427,-253.25 z"
       id="path3340"
       inkscape:label="neck" />
    <g
       id="g12988"
       inkscape:label="head"
       inkscape:groupmode="layer">
      <path
         style="display:inline;fill:none;fill-opacity:1;stroke:#800000;stroke-width:32;stroke-linecap:round;stroke-linejoin:round;stroke-miterlimit:4;stroke-dasharray:none;stroke-dashoffset:0;stroke-opacity:1;paint-order:fill markers stroke;stop-color:#000000"
         d="m 214.24675,510.63421 c 146.95696,90.16728 298.17327,215.74277 401.65747,338.76616"
         id="path6280-0-6"
         sodipodi:nodetypes="cc"
         inkscape:label="angry eyelash left small" />
      <path
         style="display:inline;fill:none;fill-opacity:1;stroke:#800000;stroke-width:32;stroke-linecap:round;stroke-linejoin:round;stroke-miterlimit:4;stroke-dasharray:none;stroke-dashoffset:0;stroke-opacity:1;paint-order:fill markers stroke;stop-color:#000000"
         d="M 136.3074,315.66998 C 386.36359,452.28922 592.00322,626.1296 711.50637,872.15241"
         id="path6280-3"
         sodipodi:nodetypes="cc"
         inkscape:label="angry eyelash left big" />
      <g
         id="g12997"
         inkscape:label="left eye">
        <path
           id="path1915-9"
           style="display:inline;fill:#cff;stroke:#131;stroke-width:64;stroke-linecap:round;stroke-linejoin:round;paint-order:fill markers stroke;stop-color:#000000"
           inkscape:label="lefteye"
           d="m 792.61751,1048.7279 c 10e-6,120.7167 -155.86024,218.577 -276.57698,218.577 -120.71674,0 -160.57699,-55.8603 -160.57698,-176.577 0,-120.71673 97.86025,-260.57698 218.57698,-260.57698 120.71673,0 218.57698,97.86025 218.57698,218.57698 z"
           sodipodi:nodetypes="sssss" />
        <path
           style="opacity:1;fill:#ffffff;fill-opacity:1;stroke:#131;stroke-width:48;stroke-linecap:round;stroke-linejoin:round;stroke-miterlimit:4;stroke-dasharray:none;stroke-dashoffset:0;stroke-opacity:1;paint-order:fill markers stroke;stop-color:#000000"
           d="M 498.97372,962.62186 V 1132.6262"
           id="path2372"
           inkscape:label="pupil left" />
        <path
           id="rect11202"
           style="fill:#474;stroke:#131;stroke-width:64;stroke-linecap:round;stroke-linejoin:round;stroke-opacity:1;-inkscape-stroke:none;paint-order:fill markers stroke;stop-color:#000000"
           d="m 574.04102,830.15039 c -76.1729,0 -143.21277,55.7062 -182.33985,127.13281 l 399.48633,110.877 c 0.8882,-6.407 1.42969,-12.878 1.42969,-19.4317 0,-120.71671 -97.85944,-218.57811 -218.57617,-218.57811 z"
           inkscape:label="leftlid" />
      </g>
      <path
         style="opacity:1;fill:#3b4;fill-opacity:1;stroke:#3b4;stroke-width:64;stroke-linecap:round;stroke-miterlimit:4;stroke-dasharray:none;stroke-dashoffset:0;stroke-opacity:1;paint-order:fill markers stroke;stop-color:#000000"
         d="m 760.91804,885.9589 c 0,0 -108.89417,-139.84055 -172.34028,-311.20438 -69.79704,-188.51726 -80.02324,-418.04374 -18.32458,-447.99801 61.69869,-29.954281 238.16481,110.25217 317.30472,228.18412 79.1399,117.93196 164.4583,414.5792 164.4583,414.5792 z"
         id="path1640"
         inkscape:label="leftear"
         sodipodi:nodetypes="cssscc"
         inkscape:transform-center-x="82.124208"
         inkscape:transform-center-y="-259.29533" />
      <path
         style="opacity:0.616896;fill:#ff0000;fill-opacity:1;stroke:#ff0000;stroke-width:64;stroke-linecap:round;stroke-miterlimit:4;stroke-dasharray:none;stroke-dashoffset:0;stroke-opacity:1;paint-order:fill markers stroke;stop-color:#000000"
         d="m 760.91804,885.9589 c 0,0 -108.89417,-139.84055 -172.34028,-311.20438 -69.79704,-188.51726 -80.02324,-418.04374 -18.32458,-447.99801 61.69869,-29.954281 238.16481,110.25217 317.30472,228.18412 79.1399,117.93196 164.4583,414.5792 164.4583,414.5792 z"
         id="path13789"
         inkscape:label="angry overlay back ear"
         sodipodi:nodetypes="cssscc"
         inkscape:transform-center-x="82.124208"
         inkscape:transform-center-y="-259.29533" />
      <path
         id="path1148"
         style="display:inline;opacity:1;fill:#9f8;stroke:#9f8;stroke-width:64;stroke-linecap:round;stroke-linejoin:round;stroke-miterlimit:4;stroke-dasharray:6.4, 6.4;stroke-dashoffset:0;stroke-opacity:1;paint-order:fill markers stroke;stop-color:#000000"
         inkscape:label="head"
         d="m 1299.0547,1153.5586 c 0,0 -0.1078,-10.8206 -0.9512,-28.418 -0.4217,-8.7987 -1.0259,-19.2912 -1.8945,-30.9726 -0.8686,-11.6814 -1.9997,-24.5525 -3.4727,-38.1055 -1.4729,-13.553 -3.2888,-27.7877 -5.5234,-42.2012 -2.2347,-14.41345 -4.8892,-29.0047 -8.043,-43.26755 -1.5769,-7.13143 -3.279,-14.18175 -5.1152,-21.08594 -1.8362,-6.90419 -3.8068,-13.66232 -5.9219,-20.21289 -2.1151,-6.55056 -4.3733,-12.89234 -6.7871,-18.96289 -2.4138,-6.07055 -4.9828,-11.86984 -7.7148,-17.33398 -2.7321,-5.46415 -5.9346,-10.78574 -9.5391,-15.96094 -3.6045,-5.1752 -7.6114,-10.20474 -11.9492,-15.08399 -4.3379,-4.87924 -9.0074,-9.60926 -13.9395,-14.18554 -4.9321,-4.57628 -10.1264,-8.99932 -15.5136,-13.26563 -5.3873,-4.2663 -10.9666,-8.37489 -16.67,-12.32422 -5.7033,-3.94932 -11.5298,-7.73794 -17.4101,-11.36328 -11.7607,-7.25067 -23.7371,-13.84709 -35.3711,-19.75976 -11.634,-5.91267 -22.9257,-11.14156 -33.3203,-15.66016 -10.3946,-4.5186 -19.8912,-8.32606 -27.9336,-11.39453 -16.085,-6.13693 -26.3535,-9.31836 -26.3535,-9.31836 -106.83135,-15.98813 -232.17461,6.96944 -312.62504,60.01367 -101.26734,66.76968 -136.88727,176.62945 -198.70703,211.95509 -61.81975,35.3255 -225.20029,77.273 -280.39649,83.8965 -55.19621,6.6235 -183.250354,6.6246 -161.171871,123.6406 22.078481,117.016 112.599211,282.6048 377.541011,247.2793 264.94179,-35.3256 313.51517,-44.1575 536.50782,-88.3145 22.8973,-4.5341 53.8481,-18.3195 86.8281,-36.9472 l 213.8711,-11.4278 -92.9258,-75.2558 c 5.3578,-4.8405 10.5999,-9.7184 15.6328,-14.6367 l 142.0762,-2.375 -84.8808,-69.668 c 3.4806,-6.5537 6.4805,-13.0207 8.6269,-19.3066 1.0523,-3.0817 2.0328,-6.6268 3.0469,-9.9766 z" />
      <path
         id="path13291"
         style="color:#000000;opacity:0.827112;fill:url(#linearGradient13353);fill-opacity:1;stroke-width:64;stroke-linecap:round;stroke-linejoin:round;stroke-dasharray:6.4, 6.4;-inkscape-stroke:none;paint-order:fill markers stroke"
         d="m 978.5918,717.68164 0.006,0.002 c -2.2769,-0.01 -4.54909,-0.004 -6.81641,0.0156 a 32,32 0 0 0 -3.38672,0.70312 32,32 0 0 0 -3.41015,-0.60351 c -2.26145,0.0476 -4.52914,0.10912 -6.80079,0.18555 a 32,32 0 0 0 -3.36328,0.7871 32,32 0 0 0 -3.41211,-0.51757 c -2.26619,0.10325 -4.53242,0.22093 -6.80078,0.35351 a 32,32 0 0 0 -3.33398,0.86914 32,32 0 0 0 -3.42188,-0.43554 c -2.26607,0.15871 -4.52917,0.3322 -6.78906,0.51953 a 32,32 0 0 0 -3.31641,0.95117 32,32 0 0 0 -3.42968,-0.35156 c -2.26104,0.21402 -4.51612,0.44112 -6.76172,0.68164 a 32,32 0 0 0 -3.29883,1.03125 32,32 0 0 0 -3.44336,-0.26758 c -2.24671,0.26813 -4.49757,0.5501 -6.75,0.84765 a 32,32 0 0 0 -3.26562,1.10938 32,32 0 0 0 -3.44141,-0.18359 c -2.24699,0.32339 -4.49227,0.66306 -6.73633,1.01562 a 32,32 0 0 0 -3.23633,1.18945 32,32 0 0 0 -3.44922,-0.0996 c -2.24094,0.37892 -4.47794,0.77232 -6.71093,1.17968 a 32,32 0 0 0 -3.21094,1.27149 32,32 0 0 0 -3.45703,-0.0137 c -2.23123,0.43493 -4.45634,0.88344 -6.67578,1.3457 a 32,32 0 0 0 -3.18946,1.35351 32,32 0 0 0 -3.46484,0.0762 c -2.21454,0.49064 -4.42936,0.99651 -6.64453,1.51757 a 32,32 0 0 0 -3.15625,1.4375 32,32 0 0 0 -3.46289,0.16407 c -2.20882,0.54945 -4.41484,1.11323 -6.61914,1.69336 a 32,32 0 0 0 -3.12305,1.52343 32,32 0 0 0 -3.45898,0.25586 c -2.19989,0.60978 -4.39502,1.23453 -6.58594,1.875 a 32,32 0 0 0 -3.08399,1.60742 32,32 0 0 0 -3.46289,0.35352 c -2.18772,0.67189 -4.3686,1.36033 -6.54297,2.0625 a 32,32 0 0 0 -3.04882,1.69922 32,32 0 0 0 -3.4668,0.45508 c -2.16404,0.73351 -4.33006,1.48463 -6.49805,2.25586 a 32,32 0 0 0 -3.0039,1.79296 32,32 0 0 0 -3.45118,0.5586 c -2.15397,0.80204 -4.30878,1.62288 -6.46289,2.46484 a 32,32 0 0 0 -2.94922,1.88672 32,32 0 0 0 -3.4414,0.66602 c -2.14854,0.87726 -4.28267,1.77024 -6.40234,2.67773 a 32,32 0 0 0 -2.91016,1.99414 32,32 0 0 0 -3.43945,0.78711 c -2.1086,0.94469 -4.22337,1.91408 -6.33985,2.9082 a 32,32 0 0 0 -2.8418,2.09571 32,32 0 0 0 -3.42187,0.91015 c -2.09466,1.02805 -4.18228,2.07642 -6.26172,3.14649 a 32,32 0 0 0 -2.78515,2.21484 32,32 0 0 0 -3.39844,1.04102 c -2.07765,1.11794 -4.13643,2.25473 -6.17578,3.40625 a 32,32 0 0 0 -2.72071,2.33984 32,32 0 0 0 -3.375,1.18555 c -2.0404,1.20681 -4.06593,2.43392 -6.07617,3.68359 a 32,32 0 0 0 -2.63476,2.4668 32,32 0 0 0 -3.35938,1.34961 c -1.97632,1.28982 -3.94484,2.60434 -5.9043,3.94531 a 32,32 0 0 0 -2.5,2.55664 32,32 0 0 0 -3.26367,1.4707 c -1.9142,1.36615 -3.81926,2.75578 -5.71484,4.16993 a 32,32 0 0 0 -2.38672,2.64843 32,32 0 0 0 -3.18359,1.58985 c -1.87532,1.45452 -3.71533,2.915 -5.52344,4.37695 a 32,32 0 0 0 -2.28711,2.74414 32,32 0 0 0 -3.11914,1.71484 c -1.79265,1.50662 -3.57226,3.03185 -5.33789,4.57618 a 32,32 0 0 0 -2.15821,2.80468 32,32 0 0 0 -3.03515,1.81836 c -1.73623,1.5723 -3.44563,3.14964 -5.13086,4.73243 a 32,32 0 0 0 -2.05664,2.8789 32,32 0 0 0 -2.96485,1.91992 c -1.65887,1.61217 -3.30529,3.24148 -4.93945,4.88477 a 32,32 0 0 0 -1.93945,2.91992 32,32 0 0 0 -2.87695,1.99805 c -1.60268,1.66129 -3.18991,3.33342 -4.75977,5.01367 a 32,32 0 0 0 -1.83594,2.96094 32,32 0 0 0 -2.79883,2.07031 c -1.54255,1.69738 -3.06967,3.40206 -4.58007,5.11328 a 32,32 0 0 0 -1.74024,2.99219 32,32 0 0 0 -2.72461,2.13086 c -1.48574,1.72591 -2.95601,3.45776 -4.41015,5.1914 a 32,32 0 0 0 -1.65235,3.01563 32,32 0 0 0 -2.66211,2.18555 c -1.41647,1.72779 -2.83978,3.48046 -4.26562,5.26172 a 32,32 0 0 0 -1.56055,3.00781 32,32 0 0 0 -2.59375,2.2207 c -1.36946,1.74144 -2.74421,3.50336 -4.12109,5.28906 a 32,32 0 0 0 -1.4961,3.01367 32,32 0 0 0 -2.51758,2.22657 c -1.35294,1.77758 -2.68408,3.54371 -3.99804,5.29687 a 32,32 0 0 0 -1.44922,3.02344 32,32 0 0 0 -2.47461,2.24414 c -1.31232,1.77023 -2.61056,3.53396 -3.89844,5.29102 a 32,32 0 0 0 -1.40234,3.00781 32,32 0 0 0 -2.45117,2.26562 l -2.66407,3.66602 a 32.0032,32.0032 0 0 0 -0.0254,0.0371 l -1.09765,1.51367 a 32,32 0 0 0 -1.36719,2.97656 32,32 0 0 0 -2.39844,2.22657 l -3.1875,4.40429 -0.55078,0.76172 a 32,32 0 0 0 -1.35547,2.94922 32,32 0 0 0 -2.38672,2.20898 c -1.21956,1.6803 -2.44862,3.36291 -3.68554,5.05079 a 32,32 0 0 0 -1.34375,2.88476 32,32 0 0 0 -2.35352,2.13477 c -1.22987,1.65994 -2.45552,3.30203 -3.67969,4.92773 a 32,32 0 0 0 -1.35351,2.81055 32,32 0 0 0 -2.33985,2.05078 c -1.23828,1.61317 -2.46058,3.19112 -3.67382,4.73047 a 32,32 0 0 0 -1.38672,2.72265 32,32 0 0 0 -2.33789,1.94336 c -1.22913,1.51721 -2.46658,3.01864 -3.71094,4.5 a 32,32 0 0 0 -1.41406,2.57422 32,32 0 0 0 -2.32422,1.78711 c -1.24047,1.41683 -2.48799,2.80608 -3.74024,4.16602 a 32,32 0 0 0 -1.46679,2.40234 32,32 0 0 0 -2.30469,1.58399 c -1.26211,1.29461 -2.52148,2.54718 -3.78125,3.75585 a 32,32 0 0 0 -1.51953,2.17579 32,32 0 0 0 -2.27735,1.33398 c -1.27694,1.1342 -2.53962,2.2106 -3.78906,3.22461 a 32,32 0 0 0 -1.58398,1.91016 32,32 0 0 0 -2.24219,1.04492 c -1.24254,0.91138 -2.49302,1.77711 -3.75195,2.59375 a 32,32 0 0 0 -1.64258,1.59765 32,32 0 0 0 -2.20117,0.72852 c -1.50856,0.85544 -3.07684,1.7072 -4.70313,2.5605 a 32,32 0 0 0 -2.21484,1.7911 32,32 0 0 0 -2.75781,0.7363 c -1.70412,0.8391 -3.42514,1.6617 -5.16016,2.4707 a 32,32 0 0 0 -2.41211,1.7676 32,32 0 0 0 -2.91602,0.6621 c -1.78663,0.7964 -3.59289,1.584 -5.41601,2.3633 a 32,32 0 0 0 -2.52149,1.7265 32,32 0 0 0 -3.01562,0.5957 c -1.83836,0.7591 -3.68767,1.5084 -5.54688,2.2481 a 32,32 0 0 0 -2.61914,1.6972 32,32 0 0 0 -3.08398,0.5411 c -1.85713,0.7205 -3.74772,1.4401 -5.67188,2.164 a 32,32 0 0 0 -2.66015,1.6524 32,32 0 0 0 -3.10547,0.4882 c -1.90481,0.6997 -3.82128,1.3928 -5.74609,2.0801 a 32,32 0 0 0 -2.71485,1.625 32,32 0 0 0 -3.1289,0.4414 c -1.94431,0.6806 -3.88183,1.352 -5.81446,2.0117 a 32,32 0 0 0 -2.75586,1.5977 32,32 0 0 0 -3.15234,0.4043 c -1.9549,0.6563 -3.91196,1.305 -5.86914,1.9473 a 32,32 0 0 0 -2.7832,1.5683 32,32 0 0 0 -3.17579,0.3731 c -1.93769,0.6271 -3.91114,1.2549 -5.91601,1.8906 a 32,32 0 0 0 -2.78516,1.5332 32,32 0 0 0 -3.18164,0.3398 c -1.96171,0.6123 -3.94484,1.2239 -5.94531,1.836 a 32,32 0 0 0 -2.81055,1.5117 32,32 0 0 0 -3.17969,0.3066 c -1.99729,0.6017 -3.98749,1.1953 -5.9707,1.7813 a 32,32 0 0 0 -2.8418,1.4922 32,32 0 0 0 -3.17578,0.2773 c -2.0271,0.5901 -4.02711,1.1697 -6.00195,1.7344 a 32,32 0 0 0 -2.86328,1.4727 32,32 0 0 0 -3.21094,0.2558 c -1.97765,0.5599 -3.98543,1.1192 -6.02148,1.6856 a 32,32 0 0 0 -2.85352,1.4414 32,32 0 0 0 -3.20117,0.2285 c -1.99776,0.5476 -4.00791,1.0922 -6.03125,1.6367 a 32,32 0 0 0 -2.87109,1.4199 32,32 0 0 0 -3.19922,0.2012 c -2.01774,0.5351 -4.03266,1.0643 -6.04492,1.5879 a 32,32 0 0 0 -2.89063,1.4004 32,32 0 0 0 -3.19531,0.1738 c -2.03017,0.5204 -4.04807,1.0342 -6.05664,1.5391 a 32,32 0 0 0 -2.89844,1.373 32,32 0 0 0 -3.19922,0.1484 c -2.03071,0.5027 -4.05131,1.0004 -6.06445,1.4883 a 32,32 0 0 0 -2.90625,1.3477 32,32 0 0 0 -3.20313,0.1211 c -2.01591,0.4808 -4.0397,0.9563 -6.07031,1.4297 a 32,32 0 0 0 -2.9043,1.3164 32,32 0 0 0 -3.19336,0.09 c -2.01832,0.4611 -4.03628,0.9156 -6.05273,1.3633 a 32,32 0 0 0 -2.91406,1.2832 32,32 0 0 0 -3.17969,0.055 c -2.02105,0.4381 -4.03651,0.8695 -6.04688,1.291 a 32,32 0 0 0 -2.9082,1.2402 32,32 0 0 0 -3.1582,0.012 c -2.01956,0.4099 -4.02178,0.8104 -6.00586,1.1953 a 32,32 0 0 0 -2.9043,1.1875 32,32 0 0 0 -3.12695,-0.041 c -1.99038,0.3692 -3.96615,0.7249 -5.92578,1.0644 a 32,32 0 0 0 -2.85352,1.0996 32,32 0 0 0 -3.04101,-0.1152 c -1.95613,0.3123 -3.86046,0.6015 -5.7168,0.8613 a 32,32 0 0 0 -2.73047,0.9512 32,32 0 0 0 -2.86133,-0.2324 c -1.93949,0.2244 -3.92002,0.4376 -5.9414,0.6445 a 32,32 0 0 0 -3.04102,0.9355 32,32 0 0 0 -3.19336,-0.3164 c -2.0515,0.2012 -4.17385,0.4026 -6.36523,0.6172 a 32,32 0 0 0 -3.15821,0.9571 32,32 0 0 0 -3.30078,-0.3184 c -2.17841,0.2196 -4.37925,0.4473 -6.59961,0.6875 a 32,32 0 0 0 -3.23828,1.0156 32,32 0 0 0 -3.39258,-0.2715 c -2.24464,0.2623 -4.49453,0.5398 -6.75,0.8321 a 32,32 0 0 0 -3.28906,1.1093 32,32 0 0 0 -3.46484,-0.1894 c -2.29539,0.3278 -4.59169,0.6757 -6.88672,1.0449 a 32,32 0 0 0 -3.32422,1.2344 32,32 0 0 0 -3.55078,-0.064 c -2.31582,0.4152 -4.6384,0.8545 -6.9668,1.3242 a 32,32 0 0 0 -3.35351,1.4004 32,32 0 0 0 -3.64649,0.096 c -2.3332,0.5285 -4.68752,1.0921 -7.06054,1.6973 a 32,32 0 0 0 -3.35547,1.6055 32,32 0 0 0 -3.71875,0.3066 c -2.38288,0.6818 -4.77391,1.4083 -7.16993,2.1836 a 32,32 0 0 0 -3.35156,1.8711 32,32 0 0 0 -3.80664,0.5879 c -2.40999,0.8783 -4.81954,1.8114 -7.22461,2.8047 a 32,32 0 0 0 -3.32226,2.2148 32,32 0 0 0 -3.89649,0.961 c -2.40678,1.1277 -4.81775,2.3287 -7.22265,3.6132 a 32,32 0 0 0 -3.22657,2.6465 32,32 0 0 0 -3.92968,1.4414 c -2.37477,1.4498 -4.7464,2.9979 -7.10352,4.6582 a 32,32 0 0 0 -2.99805,3.1504 32,32 0 0 0 -3.863278,2.041 c -2.295956,1.8663 -4.527674,3.8278 -6.6875,5.8848 a 32,32 0 0 0 -2.625,3.7285 32,32 0 0 0 -3.652343,2.7578 c -2.017892,2.2657 -3.968523,4.65 -5.832031,7.1582 a 32,32 0 0 0 -1.986329,4.1934 32,32 0 0 0 -3.167968,3.4121 c -1.637998,2.6607 -3.147133,5.389 -4.527344,8.1777 a 32,32 0 0 0 -1.205078,4.4747 32,32 0 0 0 -2.492188,3.8867 c -1.132607,2.8878 -2.117236,5.7841 -2.970703,8.6738 a 32,32 0 0 0 -0.410156,4.4922 32,32 0 0 0 -1.767578,4.1133 c -0.622972,2.9273 -1.115935,5.8254 -1.501953,8.6816 a 32,32 0 0 0 0.267578,4.3125 32,32 0 0 0 -1.125,4.1465 c -0.194001,2.8243 -0.293122,5.6296 -0.308594,8.4102 a 32,32 0 0 0 0.779297,4.0332 32,32 0 0 0 -0.609375,4.0488 c 0.128571,2.7265 0.331807,5.3941 0.587891,8.0019 a 32,32 0 0 0 1.152343,3.8047 32,32 0 0 0 -0.214843,3.9512 c 0.36513,2.5533 0.78487,5.1023 1.257812,7.6426 a 32,32 0 0 0 1.318359,3.2988 32,32 0 0 0 0.02148,3.5508 c 0.463699,2.2619 0.948619,4.5366 1.460937,6.8242 a 32,32 0 0 0 1.425781,3.2207 32,32 0 0 0 0.144532,3.5391 c 0.54006,2.2342 1.104108,4.4891 1.697265,6.7636 a 32,32 0 0 0 1.535157,3.1661 32,32 0 0 0 0.261718,3.5039 c 0.627996,2.2605 1.273694,4.5003 1.933594,6.7168 a 32,32 0 0 0 1.652344,3.1289 32,32 0 0 0 0.390625,3.5254 c 0.698204,2.203 1.420452,4.4158 2.169922,6.6386 a 32,32 0 0 0 1.759765,3.0625 32,32 0 0 0 0.513672,3.4961 c 0.781637,2.1948 1.586929,4.392 2.417969,6.5899 a 32,32 0 0 0 1.869141,2.9961 32,32 0 0 0 0.640625,3.4785 c 0.864878,2.1752 1.753245,4.3474 2.666015,6.5156 a 32,32 0 0 0 1.982422,2.9297 32,32 0 0 0 0.771484,3.459 c 0.948511,2.1479 1.920651,4.2892 2.916016,6.4238 a 32,32 0 0 0 2.097656,2.8613 32,32 0 0 0 0.908204,3.4375 c 1.035636,2.1199 2.089072,4.2211 3.160156,6.3047 a 32,32 0 0 0 2.226562,2.8027 32,32 0 0 0 1.050779,3.42 c 1.11039,2.0589 2.25,4.1239 3.42187,6.1914 a 32,32 0 0 0 2.33008,2.6992 32,32 0 0 0 1.18164,3.3613 c 1.20923,2.0422 2.44379,4.0723 3.70117,6.0899 a 32,32 0 0 0 2.44336,2.6035 32,32 0 0 0 1.33203,3.3301 c 1.29573,1.9904 2.61349,3.9629 3.94922,5.9179 a 32,32 0 0 0 2.57031,2.5176 32,32 0 0 0 1.47266,3.2656 c 1.38805,1.9446 2.79966,3.874 4.23438,5.7852 a 32,32 0 0 0 2.67773,2.3984 32,32 0 0 0 1.63867,3.2325 c 1.44916,1.8454 2.9402,3.707 4.48242,5.5781 a 32,32 0 0 0 2.7793,2.2695 32,32 0 0 0 1.76172,3.127 c 1.58105,1.8404 3.16742,3.6349 4.74805,5.3867 a 32,32 0 0 0 2.91015,2.1679 32,32 0 0 0 1.91016,3.0489 c 1.6725,1.7737 3.34593,3.4984 5.01367,5.1797 a 32,32 0 0 0 3.01172,2.0293 32,32 0 0 0 2.05859,2.9629 c 1.74377,1.6809 3.50215,3.3295 5.26954,4.9472 a 32,32 0 0 0 3.09765,1.877 32,32 0 0 0 2.20117,2.8632 c 1.82276,1.5955 3.65798,3.1587 5.50391,4.6915 a 32,32 0 0 0 3.18164,1.7246 32,32 0 0 0 2.33008,2.748 c 1.92417,1.5281 3.83444,2.9979 5.7207,4.418 a 32,32 0 0 0 3.28125,1.5801 32,32 0 0 0 2.45899,2.6308 c 1.99574,1.4332 3.97687,2.8102 5.93554,4.1406 a 32,32 0 0 0 3.35157,1.418 32,32 0 0 0 2.61132,2.5293 c 2.00131,1.2917 4.04503,2.5774 6.13477,3.8496 a 32,32 0 0 0 3.37109,1.2324 32,32 0 0 0 2.70117,2.3809 c 2.10996,1.2251 4.20274,2.4 6.27149,3.5332 a 32,32 0 0 0 3.47266,1.0918 32,32 0 0 0 2.82226,2.2578 c 2.11626,1.097 4.26738,2.1812 6.45898,3.2461 a 32,32 0 0 0 3.45508,0.9043 32,32 0 0 0 2.89063,2.1035 c 2.21278,1.0226 4.40814,1.9981 6.58398,2.9375 a 32,32 0 0 0 3.51367,0.7539 32,32 0 0 0 2.99219,1.9746 c 2.23866,0.9126 4.46141,1.7842 6.66211,2.6211 a 32,32 0 0 0 3.55078,0.5996 32,32 0 0 0 3.07813,1.8399 c 2.24851,0.802 4.49598,1.5748 6.74023,2.3183 a 32,32 0 0 0 3.55469,0.4414 32,32 0 0 0 3.13086,1.6973 c 2.28038,0.7066 4.56061,1.3842 6.83789,2.0332 a 32,32 0 0 0 3.53516,0.2871 32,32 0 0 0 3.17773,1.5606 c 2.30161,0.6123 4.60906,1.196 6.91992,1.7539 a 32,32 0 0 0 3.51953,0.1426 32,32 0 0 0 3.22852,1.4296 c 2.32872,0.5216 4.6272,1.0074 6.89062,1.4668 a 32,32 0 0 0 3.56055,0.014 32,32 0 0 0 3.27344,1.3047 c 2.31552,0.4279 4.63913,0.8327 6.97265,1.2129 a 32,32 0 0 0 3.50196,-0.1231 32,32 0 0 0 3.33203,1.1856 c 2.27393,0.3331 4.58818,0.6558 6.94336,0.9551 a 32,32 0 0 0 3.47851,-0.2442 32,32 0 0 0 3.31641,1.0586 c 2.33961,0.2644 4.65919,0.5022 6.95703,0.7188 a 32,32 0 0 0 3.47656,-0.3574 32,32 0 0 0 3.33789,0.9472 c 2.35527,0.1893 4.67389,0.3518 6.95508,0.4942 a 32,32 0 0 0 3.46094,-0.4668 32,32 0 0 0 3.36133,0.8418 c 2.32734,0.1136 4.64552,0.205 6.95312,0.2773 a 32,32 0 0 0 3.41992,-0.5703 32,32 0 0 0 3.40821,0.7422 c 2.25143,0.04 4.56079,0.069 6.92773,0.072 a 32,32 0 0 0 3.35352,-0.6621 32,32 0 0 0 3.37695,0.6407 c 2.31998,-0.021 4.61424,-0.06 6.88477,-0.1153 a 32,32 0 0 0 4.90039,-0.5058 32,32 0 0 0 1.84765,0.3007 c 2.31243,-0.081 4.61222,-0.1824 6.89844,-0.2988 a 32,32 0 0 0 4.82617,-0.6289 32,32 0 0 0 1.86328,0.2559 c 2.35056,-0.1418 4.62014,-0.3038 6.8086,-0.4649 a 32,32 0 0 0 4.91015,-0.7519 32,32 0 0 0 1.86133,0.207 c 2.21636,-0.1907 4.49221,-0.3946 6.82617,-0.6289 a 32,32 0 0 0 4.71485,-0.8516 32,32 0 0 0 1.8789,0.168 c 2.27867,-0.2453 4.54896,-0.5072 6.81055,-0.7832 a 32,32 0 0 0 4.73047,-0.959 32,32 0 0 0 1.89063,0.125 l 1.18554,-0.1543 a 32.0032,32.0032 0 0 0 0.0859,-0.012 l 5.1582,-0.6895 a 32,32 0 0 0 4.49414,-0.9628 32,32 0 0 0 1.84961,0.1171 l 0.75977,-0.1015 a 32.0032,32.0032 0 0 0 0.01,0 l 5.58399,-0.7461 a 32,32 0 0 0 4.5,-0.9668 32,32 0 0 0 1.84375,0.1172 h 0.0254 a 32.0032,32.0032 0 0 0 0.0117,0 l 6.3164,-0.8477 a 32,32 0 0 0 4.50586,-0.9687 32,32 0 0 0 1.84961,0.1152 l 6.3418,-0.8535 a 32,32 0 0 0 4.50976,-0.9707 32,32 0 0 0 1.84766,0.1152 l 6.3418,-0.8554 a 32,32 0 0 0 4.50781,-0.9747 32,32 0 0 0 1.84961,0.1153 l 6.3418,-0.8594 a 32,32 0 0 0 4.50976,-0.9766 32,32 0 0 0 1.84766,0.1133 l 4.75,-0.6465 a 32.0032,32.0032 0 0 0 0.0156,0 l 1.59375,-0.2168 a 32,32 0 0 0 4.4961,-0.9765 32,32 0 0 0 1.84375,0.1113 l 2.36133,-0.3223 a 32.0032,32.0032 0 0 0 0.0176,0 l 3.98047,-0.5468 a 32,32 0 0 0 4.50781,-0.9825 32,32 0 0 0 1.85352,0.1114 l 6.33984,-0.8731 a 32,32 0 0 0 4.51758,-0.9863 32,32 0 0 0 1.84375,0.1074 l 6.33985,-0.8769 a 32,32 0 0 0 4.51953,-0.9922 32,32 0 0 0 1.84375,0.1074 l 3.13086,-0.4355 a 32.0032,32.0032 0 0 0 0.0254,0 l 3.20703,-0.4493 a 32,32 0 0 0 4.5039,-0.9961 32,32 0 0 0 1.85938,0.1055 l 6.33789,-0.8926 a 32,32 0 0 0 4.51367,-1.0019 32,32 0 0 0 1.85156,0.1035 l 4.65821,-0.6602 a 32.0032,32.0032 0 0 0 0.0293,-0.012 l 1.67969,-0.2383 a 32,32 0 0 0 4.48828,-1.0058 32,32 0 0 0 1.84766,0.1015 l 0.56641,-0.08 a 32.0032,32.0032 0 0 0 0.0312,-0.01 l 5.76953,-0.8281 a 32,32 0 0 0 4.52344,-1.0176 32,32 0 0 0 1.84374,0.1 L 655.75,1488.25 a 32.0032,32.0032 0 0 0 0.0352,-0.012 l 1.78711,-0.2598 a 32,32 0 0 0 4.50195,-1.0234 32,32 0 0 0 1.86914,0.096 l 6.33203,-0.9317 a 32,32 0 0 0 4.52149,-1.0332 32,32 0 0 0 1.84765,0.09 l 3.04492,-0.4512 a 32.0032,32.0032 0 0 0 0.0312,-0.012 l 3.28516,-0.4902 a 32,32 0 0 0 4.51562,-1.0411 32,32 0 0 0 1.84961,0.088 c 2.12049,-0.3192 4.24756,-0.642 6.38086,-0.9668 a 32,32 0 0 0 4.49024,-1.0488 32,32 0 0 0 1.85156,0.082 c 2.13726,-0.3264 4.26336,-0.6536 6.37891,-0.9804 a 32,32 0 0 0 4.50586,-1.0645 32,32 0 0 0 1.85546,0.076 c 2.11384,-0.329 4.24008,-0.6613 6.37891,-0.9981 a 32,32 0 0 0 4.48828,-1.0722 32,32 0 0 0 1.85156,0.072 c 2.13962,-0.3383 4.2661,-0.6776 6.37891,-1.0156 a 32,32 0 0 0 4.50586,-1.0898 32,32 0 0 0 1.85156,0.068 c 2.12253,-0.3422 4.24843,-0.6868 6.38086,-1.0351 a 32,32 0 0 0 4.49805,-1.1016 32,32 0 0 0 1.86328,0.061 l 2.99609,-0.4942 a 32.0032,32.0032 0 0 0 0.0254,0 l 3.32032,-0.5508 a 32,32 0 0 0 4.51757,-1.1171 32,32 0 0 0 1.8418,0.058 c 2.13676,-0.3571 4.26005,-0.7147 6.37305,-1.0722 a 32,32 0 0 0 4.49219,-1.1289 32,32 0 0 0 1.85546,0.051 c 2.12256,-0.3617 4.24621,-0.7268 6.37305,-1.0938 a 32,32 0 0 0 4.48438,-1.1426 32,32 0 0 0 1.86133,0.045 c 2.10377,-0.3657 4.22493,-0.734 6.36132,-1.1093 a 32,32 0 0 0 4.47266,-1.1543 32,32 0 0 0 1.84961,0.041 c 2.13503,-0.3765 4.2551,-0.7545 6.35742,-1.1289 a 32,32 0 0 0 4.48242,-1.168 32,32 0 0 0 1.85547,0.035 c 2.10986,-0.3785 4.23391,-0.76 6.3711,-1.1485 a 32,32 0 0 0 4.45507,-1.1777 32,32 0 0 0 1.87305,0.029 l 6.29492,-1.1523 a 32,32 0 0 0 4.4961,-1.1915 32,32 0 0 0 1.83984,0.024 l 0.81055,-0.1485 a 32.0032,32.0032 0 0 0 0.041,-0.01 l 5.48047,-1.0176 a 32,32 0 0 0 4.48633,-1.2012 32,32 0 0 0 1.84375,0.021 l 2.6543,-0.4941 a 32.0032,32.0032 0 0 0 0.0371,-0.01 l 3.63476,-0.6816 a 32,32 0 0 0 4.4668,-1.209 32,32 0 0 0 1.85547,0.018 l 4.88281,-0.9219 a 32.0032,32.0032 0 0 0 0.0312,-0.01 l 1.40625,-0.2676 a 32,32 0 0 0 4.45508,-1.2148 32,32 0 0 0 1.86328,0.014 l 6.28515,-1.1992 a 32,32 0 0 0 4.46875,-1.2227 32,32 0 0 0 1.84375,0.012 l 2.81055,-0.539 a 32.0032,32.0032 0 0 0 0.0254,-0.01 l 3.47461,-0.668 a 32,32 0 0 0 4.45117,-1.2285 32,32 0 0 0 1.85743,0.01 l 6.2832,-1.2149 a 32,32 0 0 0 4.46094,-1.2324 32,32 0 0 0 1.84179,0.01 l 2.00196,-0.3887 a 32.0032,32.0032 0 0 0 0.0195,0 l 4.28125,-0.834 a 32,32 0 0 0 4.43945,-1.2324 32,32 0 0 0 1.85938,0.012 l 6.28124,-1.2305 a 32,32 0 0 0 4.44922,-1.2363 32,32 0 0 0 1.84571,0.01 l 2.69922,-0.5293 a 32.0032,32.0032 0 0 0 0.0137,0 l 3.58203,-0.7031 a 32,32 0 0 0 4.4375,-1.2403 32,32 0 0 0 1.85351,0 l 6.2793,-1.2363 a 32,32 0 0 0 4.44141,-1.2422 32,32 0 0 0 1.84961,0 l 5.13672,-1.0117 a 32.0032,32.0032 0 0 0 0.0137,0 l 1.14062,-0.2246 a 32,32 0 0 0 4.43164,-1.2422 32,32 0 0 0 1.84766,0 l 6.27734,-1.2402 a 32,32 0 0 0 4.4375,-1.2442 32,32 0 0 0 1.85352,0 l 6.2793,-1.2422 a 32,32 0 0 0 4.42976,-1.2441 32,32 0 0 0 1.8476,0 l 6.2793,-1.2422 a 32,32 0 0 0 5.2813,-1.5645 32,32 0 0 0 2.3457,-0.1015 c 2.571,-0.6274 5.0759,-1.3048 7.5175,-2.0137 a 32,32 0 0 0 5.0235,-1.959 32,32 0 0 0 2.1406,-0.2597 c 2.3583,-0.7735 4.6728,-1.5749 6.9473,-2.3965 a 32,32 0 0 0 4.7207,-2.1699 32,32 0 0 0 1.9824,-0.3477 c 2.2559,-0.876 4.4553,-1.7642 6.6035,-2.6543 a 32,32 0 0 0 4.541,-2.3301 32,32 0 0 0 1.9043,-0.416 c 2.1319,-0.9311 4.2549,-1.8824 6.3692,-2.8516 a 32,32 0 0 0 4.3711,-2.4335 32,32 0 0 0 1.8359,-0.4649 c 2.0784,-0.9884 4.1426,-1.9905 6.1934,-3.0039 a 32,32 0 0 0 4.2363,-2.5254 32,32 0 0 0 1.8203,-0.5117 c 2.0344,-1.0353 4.0467,-2.0776 6.0391,-3.1231 a 32,32 0 0 0 4.1523,-2.6152 32,32 0 0 0 1.8047,-0.5527 c 1.6931,-0.9119 3.3855,-1.841 5.0781,-2.7735 a 32,32 0 0 0 3.6406,-0.4824 32,32 0 0 0 1.8282,0.2637 l 6.3925,-0.3418 a 32,32 0 0 0 4.5625,-0.6055 32,32 0 0 0 1.8282,0.2637 l 6.3906,-0.3418 a 32,32 0 0 0 4.5547,-0.6035 32,32 0 0 0 1.8359,0.2637 l 6.3906,-0.3418 a 32,32 0 0 0 4.5625,-0.6055 32,32 0 0 0 1.8282,0.2637 l 6.3906,-0.3418 a 32,32 0 0 0 4.5625,-0.6055 32,32 0 0 0 1.8281,0.2637 l 6.3926,-0.3418 a 32,32 0 0 0 4.5547,-0.6035 32,32 0 0 0 1.8359,0.2636 l 6.3906,-0.3418 a 32,32 0 0 0 4.5547,-0.6054 32,32 0 0 0 1.836,0.2636 l 6.3906,-0.3418 a 32,32 0 0 0 4.5625,-0.6054 32,32 0 0 0 1.8281,0.2636 l 6.3906,-0.3418 a 32,32 0 0 0 4.5625,-0.6054 32,32 0 0 0 1.8301,0.2636 l 6.3906,-0.3398 a 32,32 0 0 0 4.5547,-0.6055 32,32 0 0 0 1.836,0.2637 l 6.3906,-0.3418 a 32,32 0 0 0 4.5625,-0.6055 32,32 0 0 0 1.8281,0.2637 l 6.3906,-0.3418 a 32,32 0 0 0 4.5625,-0.6055 32,32 0 0 0 1.8282,0.2637 l 6.3906,-0.3398 a 32,32 0 0 0 4.5566,-0.6055 32,32 0 0 0 1.836,0.2637 l 6.3906,-0.3418 a 32,32 0 0 0 4.5625,-0.6055 32,32 0 0 0 1.8281,0.2637 l 6.3906,-0.3418 a 32,32 0 0 0 4.5625,-0.6055 32,32 0 0 0 1.8282,0.2637 l 6.3906,-0.3399 a 32,32 0 0 0 4.5566,-0.6054 32,32 0 0 0 1.834,0.2637 l 6.3926,-0.3418 a 32,32 0 0 0 30.2461,-33.6622 32,32 0 0 0 -0.1191,-0.4668 32,32 0 0 0 -11.7813,-25.1347 l -4.9727,-4.0293 a 32,32 0 0 0 -1.6406,-0.8633 32,32 0 0 0 -3.334,-3.1641 l -4.9726,-4.0273 a 32,32 0 0 0 -1.6367,-0.8613 32,32 0 0 0 -3.3379,-3.166 l -4.9727,-4.0293 a 32,32 0 0 0 -1.6406,-0.8633 32,32 0 0 0 -3.334,-3.1641 l -4.9726,-4.0273 a 32,32 0 0 0 -1.6368,-0.8614 32,32 0 0 0 -2.7343,-2.5957 l 6.1679,-0.1035 a 32,32 0 0 0 4.584,-0.4375 32,32 0 0 0 1.8145,0.3301 l 6.3984,-0.1055 a 32,32 0 0 0 4.5781,-0.4375 32,32 0 0 0 1.8223,0.3301 l 6.3984,-0.1074 a 32,32 0 0 0 4.584,-0.4375 32,32 0 0 0 1.8145,0.3301 l 6.4004,-0.1055 a 32,32 0 0 0 4.5761,-0.4375 32,32 0 0 0 1.8223,0.3301 l 6.3984,-0.1074 a 32,32 0 0 0 4.586,-0.4375 32,32 0 0 0 1.8144,0.33 l 6.3985,-0.1054 a 32,32 0 0 0 4.5761,-0.4375 32,32 0 0 0 1.8223,0.33 l 6.4004,-0.1074 a 32,32 0 0 0 16.5,-5.0234 32,32 0 0 0 1.75,-1.1133 32,32 0 0 0 1.7851,-1.4668 32,32 0 0 0 6.7403,-5.5293 32,32 0 0 0 -4.4336,-45.0371 l -4.9473,-4.0605 a 32,32 0 0 0 -1.6328,-0.8731 32,32 0 0 0 -3.3144,-3.1875 l -4.9473,-4.0605 a 32,32 0 0 0 -1.6289,-0.8711 32,32 0 0 0 -3.3184,-3.1895 l -4.9453,-4.0605 a 32,32 0 0 0 -1.6328,-0.8731 32,32 0 0 0 -3.3145,-3.1875 l -4.9472,-4.0605 a 32,32 0 0 0 -1.6367,-0.875 32,32 0 0 0 -3.3106,-3.1836 l -4.9473,-4.0606 a 32,32 0 0 0 -1.6328,-0.873 32,32 0 0 0 -3.3144,-3.1875 l -4.9473,-4.0606 a 32,32 0 0 0 -1.6289,-0.8711 32,32 0 0 0 -3.3184,-3.1894 l -3.6738,-3.0156 -0.5625,1.0683 a 32,32 0 0 0 -1.1445,-1.5136 c 0.091,-0.2653 0.1395,-0.4521 0.2266,-0.711 a 32,32 0 0 0 -1.0704,-0.5723 32,32 0 0 0 0,-0.3632 l 1.0821,0.8886 c 0.751,-2.2372 1.4482,-4.4168 1.9629,-6.1523 a 32,32 0 0 0 0.5,-2.3496 32,32 0 0 0 2.1992,-11.8047 c -0.029,-2.3332 -0.08,-4.6044 -0.1367,-6.8125 a 32,32 0 0 0 -0.4161,-1.8438 32,32 0 0 0 0.2227,-4.7636 c -0.072,-2.2424 -0.155,-4.4509 -0.2402,-6.6231 a 32,32 0 0 0 -0.4395,-1.8261 32,32 0 0 0 0.1602,-4.7579 c -0.099,-2.1974 -0.2063,-4.3919 -0.3184,-6.5839 a 32,32 0 0 0 -0.459,-1.8145 32,32 0 0 0 0.1074,-4.7324 c -0.1235,-2.2054 -0.2542,-4.3954 -0.3886,-6.5703 a 32,32 0 0 0 -0.4766,-1.8086 32,32 0 0 0 0.053,-4.752 c -0.1468,-2.1843 -0.3007,-4.3733 -0.461,-6.5683 a 32,32 0 0 0 -0.4961,-1.7969 32,32 0 0 0 0,-4.75 c -0.1706,-2.1813 -0.3489,-4.3684 -0.5332,-6.5625 a 32,32 0 0 0 -0.5176,-1.7969 32,32 0 0 0 -0.047,-4.7305 c -0.1953,-2.2002 -0.3988,-4.3942 -0.6075,-6.582 a 32,32 0 0 0 -0.5371,-1.791 32,32 0 0 0 -0.1035,-4.7441 c -0.2201,-2.1863 -0.4462,-4.3829 -0.6836,-6.5879 a 32,32 0 0 0 -0.5586,-1.7793 32,32 0 0 0 -0.1601,-4.7481 c -0.2467,-2.1837 -0.5034,-4.3798 -0.7696,-6.5898 a 32,32 0 0 0 -0.582,-1.7774 32,32 0 0 0 -0.2168,-4.7285 c -0.2793,-2.2285 -0.5671,-4.426 -0.8555,-6.5918 a 32,32 0 0 0 -0.6093,-1.7871 32,32 0 0 0 -0.2852,-4.7441 c -0.3103,-2.2269 -0.629,-4.4288 -0.9512,-6.6055 a 32,32 0 0 0 -0.6308,-1.7676 32,32 0 0 0 -0.3633,-4.791 c -0.3385,-2.1772 -0.6896,-4.3826 -1.0586,-6.6172 a 32,32 0 0 0 -0.6543,-1.7383 32,32 0 0 0 -0.4433,-4.79097 c -0.3784,-2.19607 -0.7663,-4.39443 -1.1661,-6.59375 a 32,32 0 0 0 -0.6894,-1.7461 32,32 0 0 0 -0.5352,-4.83007 c -0.418,-2.18648 -0.8492,-4.38684 -1.2949,-6.59766 a 32,32 0 0 0 -0.7246,-1.73633 32,32 0 0 0 -0.6309,-4.83398 c -0.4676,-2.2089 -0.9487,-4.4102 -1.4394,-6.60547 a 32,32 0 0 0 -0.7637,-1.72656 32,32 0 0 0 -0.748,-4.86524 c -0.5198,-2.20792 -1.0565,-4.41678 -1.6075,-6.62695 a 32,32 0 0 0 -0.8027,-1.70313 32,32 0 0 0 -0.8848,-4.89648 c -0.5805,-2.20718 -1.1786,-4.41531 -1.7949,-6.62695 a 32,32 0 0 0 -0.8594,-1.69922 32,32 0 0 0 -1.0371,-4.91406 c -0.6532,-2.21514 -1.3274,-4.43518 -2.0254,-6.65821 a 32,32 0 0 0 -0.9277,-1.69726 32,32 0 0 0 -1.2109,-4.91602 c -0.7409,-2.22529 -1.5075,-4.45247 -2.3008,-6.67969 a 32,32 0 0 0 -1.0156,-1.69922 32,32 0 0 0 -1.4239,-4.93164 c -0.8521,-2.2433 -1.7299,-4.47174 -2.6347,-6.6875 a 32,32 0 0 0 -1.1367,-1.71875 32,32 0 0 0 -1.6895,-4.94921 c -0.9821,-2.23501 -2.0058,-4.47562 -3.0742,-6.7168 a 32,32 0 0 0 -1.3203,-1.76953 32,32 0 0 0 -2.1172,-5.12305 c -1.2665,-2.40017 -2.5891,-4.74617 -3.9571,-7.03906 a 32,32 0 0 0 -1.5742,-1.74414 32,32 0 0 0 -2.6367,-4.94336 c -1.4585,-2.20245 -2.9575,-4.35525 -4.4941,-6.45899 a 32,32 0 0 0 -1.6524,-1.51953 32,32 0 0 0 -3.0058,-4.59765 c -1.5735,-1.98166 -3.1922,-3.94565 -4.8594,-5.88672 a 32,32 0 0 0 -1.6934,-1.32813 32,32 0 0 0 -3.2558,-4.24219 c -1.7011,-1.85362 -3.4172,-3.65798 -5.1446,-5.41796 a 32,32 0 0 0 -1.7324,-1.18165 32,32 0 0 0 -3.4746,-3.9707 c -1.7696,-1.70159 -3.5499,-3.36335 -5.3359,-4.98633 a 32,32 0 0 0 -1.7578,-1.05664 32,32 0 0 0 -3.6465,-3.72851 c -1.8166,-1.56801 -3.6452,-3.10542 -5.4844,-4.61719 a 32,32 0 0 0 -1.7676,-0.94727 32,32 0 0 0 -3.7773,-3.50781 c -1.8595,-1.46029 -3.732,-2.89725 -5.6153,-4.3125 a 32,32 0 0 0 -1.7695,-0.85156 32,32 0 0 0 -3.8789,-3.30859 c -1.8981,-1.37013 -3.8053,-2.71969 -5.7226,-4.04883 a 32,32 0 0 0 -1.7715,-0.76953 32,32 0 0 0 -3.961,-3.13282 c -1.9309,-1.29136 -3.8684,-2.56238 -5.8125,-3.81445 a 32,32 0 0 0 -1.7734,-0.69922 32,32 0 0 0 -4.0332,-2.97851 c -1.9559,-1.21911 -3.9187,-2.42023 -5.8848,-3.60352 a 32,32 0 0 0 -1.7871,-0.64258 32,32 0 0 0 -4.0859,-2.83984 c -1.9758,-1.15339 -3.9579,-2.29042 -5.9434,-3.41211 a 32,32 0 0 0 -1.8008,-0.5918 32,32 0 0 0 -4.1328,-2.71093 c -1.9947,-1.09492 -3.9924,-2.17501 -5.9941,-3.24024 a 32,32 0 0 0 -1.8125,-0.54687 32,32 0 0 0 -4.1738,-2.59571 c -2.0149,-1.04327 -4.0273,-2.06812 -6.0352,-3.07812 a 32,32 0 0 0 -1.8301,-0.50586 32,32 0 0 0 -4.1933,-2.48047 c -2.041,-1.00098 -4.0816,-1.98727 -6.1231,-2.95703 a 32,32 0 0 0 -1.8183,-0.45899 32,32 0 0 0 -4.2461,-2.38867 c -2.041,-0.94627 -4.0828,-1.87911 -6.127,-2.80078 a 32,32 0 0 0 -1.8359,-0.42383 32,32 0 0 0 -4.2813,-2.29883 c -2.0651,-0.90818 -4.1253,-1.80043 -6.1777,-2.67773 a 32,32 0 0 0 -1.8399,-0.38672 32,32 0 0 0 -4.3437,-2.22265 c -2.0461,-0.85118 -4.1192,-1.70336 -6.2207,-2.55274 a 32,32 0 0 0 -1.8399,-0.34961 32,32 0 0 0 -4.3613,-2.12695 c -2.081,-0.8201 -4.1723,-1.63381 -6.2754,-2.4375 a 32,32 0 0 0 -1.8574,-0.31641 32,32 0 0 0 -4.4121,-2.04687 c -2.1068,-0.78251 -4.2224,-1.5559 -6.3477,-2.31836 a 32,32 0 0 0 -1.8613,-0.27735 32,32 0 0 0 -4.5254,-1.97461 c -2.14,-0.73971 -4.3164,-1.47596 -6.5293,-2.20312 a 32,32 0 0 0 -4.0176,-0.49024 32,32 0 0 0 -7.6992,-2.19921 c -2.2786,-0.32319 -4.5553,-0.62699 -6.8301,-0.91407 a 32,32 0 0 0 -1.8964,0.13477 32,32 0 0 0 -4.9004,-0.94336 c -2.2788,-0.25548 -4.5571,-0.49346 -6.834,-0.71484 a 32,32 0 0 0 -1.8867,0.1875 32,32 0 0 0 -4.9121,-0.80274 c -2.2791,-0.19091 -4.5573,-0.36528 -6.836,-0.52344 a 32,32 0 0 0 -1.8808,0.24024 32,32 0 0 0 -4.916,-0.66797 c -2.2794,-0.12887 -4.5591,-0.24282 -6.83797,-0.33984 a 32,32 0 0 0 -1.875,0.29101 32,32 0 0 0 -4.91602,-0.53711 c -2.27857,-0.0687 -4.55604,-0.12237 -6.83203,-0.16015 a 32,32 0 0 0 -1.86523,0.33984 32,32 0 0 0 -4.92578,-0.41211 z"
         inkscape:label="angry overlay" />
      <path
         style="display:inline;fill:#262;stroke:#262;stroke-width:64;stroke-linecap:round;stroke-linejoin:round;-inkscape-stroke:none;paint-order:fill markers stroke;stop-color:#000000"
         d="M 880.93148,744.0449 C 763.91552,771.643 622.61323,916.25706 622.61323,916.25706 620.95257,833.21142 611.27974,749.4374 735.2135,677.80944 c -124.69479,-7.45678 -249.2876,-15.1175 -408.45194,46.36482 0,0 303.22641,-263.62224 490.14233,-280.39675 172.2122,-15.45493 264.94181,37.53343 264.94181,37.53343 -0.1923,-45.68323 -31.4577,-88.25915 -90.52179,-128.0552 0,0 295.85169,97.14532 333.38509,194.29065 37.5334,97.14533 28.702,167.79647 28.702,167.79647 l -243.7525,34.92308 c 0,0 -111.71105,-33.81914 -228.72702,-6.22104 z"
         id="path1637"
         sodipodi:nodetypes="zcccsccsccz"
         inkscape:label="top hair" />
      <path
         id="path13483"
         style="display:inline;opacity:1;fill:#9f8;stroke:#9f8;stroke-width:64;stroke-linecap:round;stroke-linejoin:round;stroke-miterlimit:4;stroke-dasharray:6.4, 6.4;stroke-dashoffset:0;stroke-opacity:1;paint-order:fill markers stroke;stop-color:#000000"
         inkscape:label="rightear"
         d="m 1556.908,105.71168 c -78.5723,-11.994869 -280.0341,245.42057 -320.067,326.35569 -35.6431,72.05995 -155.632,286.61634 -184.8248,337.45246 -19.396,224.10302 72.2551,297.52267 207.4952,397.41237 113.49,-101.569 329.2177,-318.97425 371.6911,-538.42347 58.151,-300.45232 -23.3421,-515.01864 -74.2945,-522.79705 z"
         sodipodi:nodetypes="ssccss"
         inkscape:transform-center-x="-167.54907"
         inkscape:transform-center-y="-263.5974" />
      <path
         id="path13621"
         style="color:#000000;font-variation-settings:normal;opacity:0.827112;vector-effect:none;fill:url(#linearGradient13353);fill-opacity:1;stroke-width:64;stroke-linecap:round;stroke-linejoin:round;stroke-miterlimit:4;stroke-dasharray:6.4, 6.4;stroke-dashoffset:0;stroke-opacity:1;-inkscape-stroke:none;paint-order:fill markers stroke;stop-color:#000000;stop-opacity:1"
         d="m 1549.7832,73.326172 a 32,32 0 0 0 -5.2285,1.167969 32,32 0 0 0 -5.2774,-0.228516 c -3.3202,0.51251 -6.5035,1.197842 -9.5488,2.001953 a 32,32 0 0 0 -4.0508,1.978516 32,32 0 0 0 -4.4511,0.626953 c -2.7187,0.949868 -5.3431,1.973432 -7.877,3.044922 a 32,32 0 0 0 -3.3828,2.296875 32,32 0 0 0 -3.918,1.017578 c -2.3684,1.146061 -4.6917,2.338195 -6.9687,3.568359 a 32,32 0 0 0 -2.9297,2.425781 32,32 0 0 0 -3.5762,1.234376 c -2.1855,1.276493 -4.3035,2.567771 -6.3613,3.861328 a 32,32 0 0 0 -2.6719,2.527343 32,32 0 0 0 -3.3887,1.394531 c -2.0081,1.33519 -3.9894,2.69027 -5.9453,4.0625 a 32,32 0 0 0 -2.4648,2.58008 32,32 0 0 0 -3.2227,1.49414 c -1.9283,1.40734 -3.803,2.80963 -5.6289,4.19726 a 32,32 0 0 0 -2.3418,2.64649 32,32 0 0 0 -3.1172,1.58008 c -1.8503,1.45282 -3.6482,2.89451 -5.4004,4.3164 a 32,32 0 0 0 -2.2285,2.68555 32,32 0 0 0 -3.0449,1.6582 c -1.7596,1.46759 -3.5005,2.94269 -5.2266,4.42383 a 32,32 0 0 0 -2.1191,2.70117 32,32 0 0 0 -2.9824,1.72266 c -1.6939,1.48618 -3.3803,2.98177 -5.0586,4.48828 a 32,32 0 0 0 -2.0488,2.73438 32,32 0 0 0 -2.918,1.76757 c -1.6503,1.50994 -3.2996,3.03447 -4.9473,4.57422 a 32,32 0 0 0 -1.9746,2.75 32,32 0 0 0 -2.8613,1.80469 c -1.6217,1.53876 -3.2371,3.08475 -4.8438,4.63867 a 32,32 0 0 0 -1.9179,2.76953 32,32 0 0 0 -2.8223,1.84571 c -1.5889,1.5578 -3.1706,3.12377 -4.7461,4.69531 a 32,32 0 0 0 -1.8711,2.79102 32,32 0 0 0 -2.7871,1.88281 c -1.5577,1.57304 -3.1105,3.15309 -4.6582,4.74023 a 32,32 0 0 0 -1.8262,2.81055 32,32 0 0 0 -2.7578,1.91601 c -1.5345,1.59192 -3.056,3.18206 -4.5683,4.77149 a 32,32 0 0 0 -1.7969,2.83789 32,32 0 0 0 -2.7285,1.94726 c -1.5068,1.60214 -3.0108,3.21184 -4.5098,4.82618 a 32,32 0 0 0 -1.75,2.84375 32,32 0 0 0 -2.6973,1.96875 c -1.49,1.6201 -2.9728,3.2435 -4.4511,4.87109 a 32,32 0 0 0 -1.7168,2.85547 32,32 0 0 0 -2.6758,2 c -1.4673,1.63057 -2.9285,3.26476 -4.3828,4.89844 a 32,32 0 0 0 -1.6895,2.87695 32,32 0 0 0 -2.6484,2.01953 c -1.4511,1.64476 -2.8968,3.29337 -4.3379,4.94531 a 32,32 0 0 0 -1.6563,2.88477 32,32 0 0 0 -2.625,2.04297 c -1.4367,1.66015 -2.863,3.31578 -4.2792,4.96875 a 32,32 0 0 0 -1.6348,2.9082 32,32 0 0 0 -2.6074,2.06836 c -1.4142,1.665 -2.8256,3.33407 -4.2344,5.00977 a 32,32 0 0 0 -1.6016,2.91211 32,32 0 0 0 -2.584,2.08593 c -1.4021,1.68029 -2.7975,3.36069 -4.1875,5.04297 a 32,32 0 0 0 -1.5781,2.92774 32,32 0 0 0 -2.5722,2.11523 c -1.3781,1.68191 -2.7575,3.37334 -4.1368,5.07227 a 32,32 0 0 0 -1.5488,2.93554 32,32 0 0 0 -2.5488,2.12891 c -1.3716,1.70199 -2.7388,3.4071 -4.1016,5.11523 a 32,32 0 0 0 -1.5254,2.95118 32,32 0 0 0 -2.5293,2.15039 c -1.3558,1.71211 -2.7064,3.4263 -4.0527,5.14257 a 32,32 0 0 0 -1.502,2.9668 32,32 0 0 0 -2.5195,2.17969 c -1.3372,1.719 -2.6717,3.44186 -4.0039,5.16992 a 32,32 0 0 0 -1.4785,2.98047 32,32 0 0 0 -2.4961,2.19726 c -1.3272,1.73607 -2.6499,3.47542 -3.9668,5.21485 a 32,32 0 0 0 -1.4531,2.99414 32,32 0 0 0 -2.4766,2.21875 c -1.3153,1.7519 -2.6231,3.50363 -3.9238,5.25391 a 32,32 0 0 0 -1.4258,3.00976 32,32 0 0 0 -2.4629,2.24609 c -1.2996,1.76478 -2.591,3.52939 -3.875,5.29102 a 32,32 0 0 0 -1.4023,3.03125 32,32 0 0 0 -2.4473,2.27734 c -1.2753,1.76811 -2.554,3.55025 -3.834,5.34571 a 32,32 0 0 0 -1.3691,3.04101 32,32 0 0 0 -2.416,2.29493 c -1.2744,1.80459 -2.5369,3.60491 -3.7871,5.39843 a 32,32 0 0 0 -1.3458,3.07422 32,32 0 0 0 -2.4023,2.33594 c -1.251,1.81639 -2.4951,3.63702 -3.7344,5.46289 a 32,32 0 0 0 -1.3105,3.09766 32,32 0 0 0 -2.377,2.37304 c -1.2376,1.84784 -2.464,3.69455 -3.6777,5.53711 a 32,32 0 0 0 -1.2773,3.14258 32,32 0 0 0 -2.3594,2.42773 c -1.2113,1.87089 -2.417,3.75324 -3.6172,5.64649 a 32,32 0 0 0 -1.2285,3.18164 32,32 0 0 0 -2.3321,2.49219 c -1.1945,1.92402 -2.3755,3.85363 -3.5429,5.78515 a 32,32 0 0 0 -1.1836,3.26758 32,32 0 0 0 -2.3086,2.59766 c -1.1643,1.98567 -2.3223,3.9955 -3.4688,6.03125 a 32,32 0 0 0 -1.1152,3.40234 32,32 0 0 0 -2.2773,2.76367 c -1.1385,2.11914 -2.2648,4.28007 -3.3711,6.48828 a 32,32 0 0 0 -0.8711,3.16993 32,32 0 0 0 -1.9785,2.54296 c -0.9213,1.83642 -1.8563,3.68365 -2.8028,5.54297 a 32,32 0 0 0 -0.8691,3.08399 32,32 0 0 0 -1.9922,2.51172 c -0.9512,1.85199 -1.913,3.70948 -2.8809,5.57617 a 32,32 0 0 0 -0.8965,3.0957 32,32 0 0 0 -2.0234,2.51758 c -0.9673,1.85539 -1.9424,3.7201 -2.9258,5.59375 a 32,32 0 0 0 -0.914,3.09375 32,32 0 0 0 -2.0293,2.5 l -2.1426,4.05664 -0.8262,1.55664 a 32,32 0 0 0 -0.9297,3.10742 32,32 0 0 0 -2.0488,2.50586 l -1.7266,3.2461 -1.2617,2.36718 a 32,32 0 0 0 -0.9394,3.10547 32,32 0 0 0 -2.0567,2.50391 l -1.58,2.95117 -1.4258,2.6582 a 32,32 0 0 0 -0.9473,3.10547 32,32 0 0 0 -2.0664,2.50391 l -1.6738,3.11133 -1.3438,2.49609 a 32,32 0 0 0 -0.9551,3.10547 32,32 0 0 0 -2.0703,2.5 l -1.9843,3.67187 -1.0469,1.9336 a 32,32 0 0 0 -0.961,3.10547 32,32 0 0 0 -2.0761,2.49804 l -2.4785,4.57032 -0.5625,1.0332 a 32,32 0 0 0 -0.9668,3.11133 32,32 0 0 0 -2.0782,2.49218 l -3.0605,5.61915 a 32,32 0 0 0 -0.9668,3.10156 32,32 0 0 0 -2.0859,2.49805 l -0.4454,0.81445 -2.6132,4.78515 a 32,32 0 0 0 -0.9727,3.10157 32,32 0 0 0 -2.0879,2.49609 l -1.2676,2.31836 -1.7968,3.27734 a 32,32 0 0 0 -0.9766,3.10157 32,32 0 0 0 -2.0918,2.49414 l -2.1738,3.96289 -0.8965,1.63281 a 32,32 0 0 0 -0.9824,3.10937 32,32 0 0 0 -2.0899,2.48633 l -3.084,5.60743 a 32,32 0 0 0 -0.9804,3.09765 32,32 0 0 0 -2.0996,2.49414 l -0.5293,0.96289 -2.5528,4.62891 a 32,32 0 0 0 -0.9843,3.10156 32,32 0 0 0 -2.0997,2.48828 l -1.498,2.71289 -1.5879,2.87696 a 32,32 0 0 0 -0.9883,3.10351 32,32 0 0 0 -2.1015,2.48633 l -2.4375,4.40625 -0.6543,1.18164 a 32,32 0 0 0 -0.9922,3.10547 32,32 0 0 0 -2.0996,2.48047 l -3.1036,5.59961 a 32,32 0 0 0 -0.9902,3.09765 32,32 0 0 0 -2.1074,2.48633 l -0.6211,1.1211 -2.4785,4.46289 a 32,32 0 0 0 -0.9942,3.10156 32,32 0 0 0 -2.1074,2.48242 l -1.3496,2.42773 -1.7558,3.1543 a 32,32 0 0 0 -0.9981,3.10156 32,32 0 0 0 -2.1074,2.48047 l -1.9375,3.48047 -1.1719,2.10156 a 32,32 0 0 0 -1,3.09961 32,32 0 0 0 -2.1094,2.47852 l -2.3535,4.22266 -0.7578,1.35742 a 32,32 0 0 0 -1.0019,3.09765 32,32 0 0 0 -2.1094,2.47461 l -3.1231,5.58594 a 32,32 0 0 0 -1.0039,3.0957 32,32 0 0 0 -2.1074,2.46875 l -3.1269,5.58594 a 32,32 0 0 0 -1.004,3.08984 32,32 0 0 0 -2.1132,2.47071 l -3.1309,5.58203 a 32,32 0 0 0 -1.0078,3.09375 32,32 0 0 0 -2.1113,2.46484 l -3.1368,5.57813 a 32,32 0 0 0 -1.0078,3.08984 32,32 0 0 0 -2.1172,2.46485 l -3.1406,5.57617 a 32,32 0 0 0 -1.0078,3.07812 32,32 0 0 0 -2.123,2.46875 l -1.8028,3.19336 -1.332,2.35742 a 32,32 0 0 0 -1.0156,3.08399 32,32 0 0 0 -2.1172,2.45117 l -1.9434,3.42578 -1.2051,2.12109 a 32,32 0 0 0 -1.0195,3.07227 32,32 0 0 0 -2.123,2.44922 c -1.05,1.84217 -2.0919,3.66741 -3.1289,5.47461 a 32,32 0 0 0 -3.834,14.0039 32,32 0 0 0 -1.5625,5.48829 c -0.1807,2.22836 -0.3507,4.46291 -0.5098,6.70117 a 32,32 0 0 0 0.4238,3.35547 32,32 0 0 0 -0.8691,3.26757 c -0.1423,2.23893 -0.2739,4.48433 -0.3926,6.73438 a 32,32 0 0 0 0.4863,3.35547 32,32 0 0 0 -0.8125,3.30859 c -0.098,2.22612 -0.1868,4.47857 -0.2617,6.75782 a 32,32 0 0 0 0.5528,3.35156 32,32 0 0 0 -0.7461,3.33008 c -0.054,2.24508 -0.097,4.5014 -0.125,6.76953 a 32,32 0 0 0 0.625,3.36133 32,32 0 0 0 -0.6739,3.34179 c -0.01,2.27477 4e-4,4.55187 0.025,6.82813 a 32,32 0 0 0 0.7032,3.35156 32,32 0 0 0 -0.5997,3.39062 c 0.048,2.27168 0.1121,4.54259 0.1895,6.81055 a 32,32 0 0 0 0.7891,3.36719 32,32 0 0 0 -0.5157,3.41211 c 0.1057,2.28935 0.2285,4.57396 0.3672,6.85547 a 32,32 0 0 0 0.8809,3.34961 32,32 0 0 0 -0.4258,3.42773 c 0.1689,2.31146 0.3559,4.60525 0.5586,6.88281 a 32,32 0 0 0 0.9785,3.33985 32,32 0 0 0 -0.3262,3.46093 c 0.2379,2.31745 0.4961,4.60941 0.7657,6.875 a 32,32 0 0 0 1.0879,3.34375 32,32 0 0 0 -0.2168,3.51563 c 0.3059,2.26011 0.6336,4.55998 0.9921,6.89648 a 32,32 0 0 0 1.1915,3.2793 32,32 0 0 0 -0.1036,3.49023 c 0.3927,2.3362 0.8072,4.63737 1.2325,6.90235 a 32,32 0 0 0 1.3222,3.29101 32,32 0 0 0 0.024,3.53907 c 0.4693,2.27793 0.9623,4.57437 1.4882,6.88867 a 32,32 0 0 0 1.4434,3.23242 32,32 0 0 0 0.1621,3.56836 c 0.5517,2.23731 1.1333,4.52003 1.7578,6.84375 a 32,32 0 0 0 1.5703,3.17773 32,32 0 0 0 0.3047,3.57032 c 0.6448,2.22988 1.3219,4.49632 2.041,6.79492 a 32,32 0 0 0 1.7032,3.12305 32,32 0 0 0 0.4492,3.54492 c 0.7534,2.25717 1.53,4.50006 2.3301,6.72851 a 32,32 0 0 0 1.8515,3.08008 32,32 0 0 0 0.5996,3.52734 c 0.8551,2.23851 1.7351,4.45679 2.6368,6.65821 a 32,32 0 0 0 1.9863,2.99805 32,32 0 0 0 0.7676,3.5371 c 0.9407,2.16248 1.9139,4.33351 2.9218,6.51172 a 32,32 0 0 0 2.1172,2.90625 32,32 0 0 0 0.916,3.47465 c 1.0498,2.1502 2.1261,4.2889 3.2286,6.414 a 32,32 0 0 0 2.2441,2.8028 32,32 0 0 0 1.0703,3.4296 c 1.1454,2.1009 2.3133,4.182 3.502,6.2442 a 32,32 0 0 0 2.3691,2.7051 32,32 0 0 0 1.2266,3.3847 c 1.2328,2.0385 2.4832,4.0529 3.748,6.043 a 32,32 0 0 0 2.4902,2.6074 32,32 0 0 0 1.3731,3.3281 c 1.3073,1.9635 2.6376,3.9172 3.9922,5.8594 a 32,32 0 0 0 2.5801,2.4785 32,32 0 0 0 1.4961,3.2442 c 1.3886,1.9105 2.7953,3.8035 4.2207,5.6797 a 32,32 0 0 0 2.6601,2.3554 32,32 0 0 0 1.6113,3.1602 c 1.458,1.8489 2.9316,3.6794 4.42,5.4902 a 32,32 0 0 0 2.7324,2.2383 32,32 0 0 0 1.7148,3.0801 c 1.5153,1.7821 3.044,3.5452 4.586,5.291 a 32,32 0 0 0 2.7929,2.127 32,32 0 0 0 1.8106,3.0039 c 1.5649,1.7177 3.1365,3.4147 4.7148,5.0898 a 32,32 0 0 0 2.8516,2.0293 32,32 0 0 0 1.9023,2.9414 c 1.5907,1.6384 3.1977,3.2699 4.8223,4.8945 a 32,32 0 0 0 2.8848,1.9278 32,32 0 0 0 1.9609,2.8554 c 1.6368,1.5957 3.2815,3.1781 4.9355,4.7461 a 32,32 0 0 0 2.9102,1.834 32,32 0 0 0 2.0176,2.7852 c 1.6701,1.5484 3.3371,3.0722 4.998,4.5761 a 32,32 0 0 0 2.9492,1.7657 32,32 0 0 0 2.0684,2.7265 c 1.6835,1.4928 3.3731,2.9748 5.0703,4.4473 a 32,32 0 0 0 2.9492,1.6816 32,32 0 0 0 2.1133,2.6758 c 1.694,1.444 3.3971,2.8813 5.1094,4.3145 a 32,32 0 0 0 2.9609,1.6191 32,32 0 0 0 2.1367,2.6172 c 1.7221,1.4207 3.4388,2.8216 5.1446,4.207 a 32,32 0 0 0 2.9785,1.5723 32,32 0 0 0 2.1601,2.5723 c 1.7308,1.3876 3.4534,2.7586 5.168,4.1152 a 32,32 0 0 0 2.9844,1.5273 32,32 0 0 0 2.1777,2.5313 c 1.7323,1.356 3.4608,2.7018 5.1856,4.0371 a 32,32 0 0 0 2.9765,1.4844 32,32 0 0 0 2.1719,2.4824 c 1.7589,1.3529 3.5036,2.6826 5.2285,3.9941 a 32,32 0 0 0 2.9727,1.4493 32,32 0 0 0 2.2129,2.4843 l 2.3886,1.8047 a 32.0032,32.0032 0 0 0 0.045,0.033 l 2.7207,2.0469 a 32,32 0 0 0 2.9902,1.4395 32,32 0 0 0 2.2012,2.4492 c 1.7337,1.297 3.4689,2.5906 5.207,3.8828 a 32,32 0 0 0 2.9551,1.4023 32,32 0 0 0 2.1992,2.4278 c 1.7373,1.2897 3.4721,2.5738 5.2012,3.8515 a 32,32 0 0 0 5.8965,2.7774 32,32 0 0 0 39.5898,-1.7383 l 2.1738,-1.9492 a 32.0032,32.0032 0 0 0 0.045,-0.041 l 2.5859,-2.3262 a 32,32 0 0 0 3.2441,-3.4199 32,32 0 0 0 1.5801,-0.9454 c 1.6201,-1.468 3.2377,-2.9409 4.8496,-4.416 a 32,32 0 0 0 3.166,-3.3906 32,32 0 0 0 1.586,-0.9648 c 1.6338,-1.4995 3.2341,-2.9795 4.8066,-4.4356 a 32,32 0 0 0 3.1856,-3.4512 32,32 0 0 0 1.5937,-0.9863 l 2.4961,-2.3281 a 32.0032,32.0032 0 0 0 0.049,-0.047 l 2.1797,-2.043 a 32,32 0 0 0 3.1778,-3.4824 32,32 0 0 0 1.5839,-0.9961 l 2.3575,-2.2285 a 32.0032,32.0032 0 0 0 0.051,-0.047 l 2.2891,-2.1738 a 32,32 0 0 0 3.1523,-3.5019 32,32 0 0 0 1.5645,-0.9961 c 1.5581,-1.4899 3.1294,-2.9935 4.709,-4.5157 a 32,32 0 0 0 3.0937,-3.4921 32,32 0 0 0 1.5684,-1.0118 c 1.5623,-1.5133 3.118,-3.0272 4.668,-4.539 a 32,32 0 0 0 3.0898,-3.5274 32,32 0 0 0 1.5566,-1.0195 c 1.5495,-1.5209 3.0992,-3.0457 4.6465,-4.5762 a 32,32 0 0 0 3.0586,-3.5429 32,32 0 0 0 1.5469,-1.0274 c 1.546,-1.5376 3.0831,-3.0726 4.6113,-4.6035 a 32,32 0 0 0 3.0469,-3.5742 32,32 0 0 0 1.5371,-1.0352 c 1.5323,-1.5447 3.0617,-3.0916 4.5879,-4.6426 a 32,32 0 0 0 3.0098,-3.5839 32,32 0 0 0 1.5449,-1.0567 c 1.5112,-1.5455 3.0294,-3.1038 4.5527,-4.6738 a 32,32 0 0 0 2.9844,-3.6016 32,32 0 0 0 1.5332,-1.0664 c 1.5042,-1.5596 3.0118,-3.1274 4.5215,-4.7051 a 32,32 0 0 0 2.959,-3.625 32,32 0 0 0 1.5254,-1.0742 c 1.498,-1.5749 2.9963,-3.1547 4.4922,-4.7402 a 32,32 0 0 0 2.9375,-3.6484 32,32 0 0 0 1.5156,-1.086 c 1.4877,-1.5866 2.9739,-3.1782 4.459,-4.7754 a 32,32 0 0 0 2.9121,-3.6738 32,32 0 0 0 1.5078,-1.0957 c 1.4732,-1.5948 2.9506,-3.1978 4.4277,-4.8106 a 32,32 0 0 0 2.8867,-3.6972 32,32 0 0 0 1.502,-1.1094 c 1.4541,-1.5985 2.9189,-3.2117 4.3906,-4.8437 a 32,32 0 0 0 2.8574,-3.7168 32,32 0 0 0 1.4942,-1.1211 c 1.4399,-1.6076 2.8933,-3.2339 4.3554,-4.8809 a 32,32 0 0 0 2.8204,-3.7285 32,32 0 0 0 1.4785,-1.127 c 1.4581,-1.6512 2.8961,-3.2908 4.3183,-4.916 a 32,32 0 0 0 2.8125,-3.7734 32,32 0 0 0 1.4668,-1.1367 c 1.4408,-1.6583 2.8685,-3.3127 4.2852,-4.959 a 32,32 0 0 0 2.7812,-3.7988 32,32 0 0 0 1.4649,-1.1543 c 1.4089,-1.6504 2.8249,-3.3167 4.2461,-4.9981 a 32,32 0 0 0 2.7363,-3.8047 32,32 0 0 0 1.459,-1.1699 c 1.402,-1.67 2.8032,-3.3472 4.2031,-5.03125 a 32,32 0 0 0 2.709,-3.83594 32,32 0 0 0 1.4394,-1.17383 c 1.4033,-1.69957 2.7906,-3.39246 4.1661,-5.07617 a 32,32 0 0 0 2.6894,-3.87695 32,32 0 0 0 1.4395,-1.19727 c 1.3612,-1.68135 2.7359,-3.38571 4.1211,-5.11523 a 32,32 0 0 0 2.6289,-3.86914 32,32 0 0 0 1.4218,-1.20117 c 1.3882,-1.74317 2.7429,-3.46137 4.0723,-5.14844 a 32,32 0 0 0 2.6348,-3.94531 32,32 0 0 0 1.4082,-1.21485 c 1.3449,-1.72384 2.6892,-3.45902 4.0351,-5.20507 a 32,32 0 0 0 2.5664,-3.9336 32,32 0 0 0 1.4063,-1.23633 c 1.338,-1.74928 2.6642,-3.4936 3.9805,-5.23437 a 32,32 0 0 0 2.5488,-3.98438 32,32 0 0 0 1.3808,-1.24023 c 1.3206,-1.76201 2.6343,-3.52596 3.9415,-5.29297 a 32,32 0 0 0 2.5058,-4.01172 32,32 0 0 0 1.3828,-1.26953 c 1.2775,-1.74477 2.5725,-3.51773 3.8789,-5.32422 a 32,32 0 0 0 2.4493,-4.01562 32,32 0 0 0 1.3613,-1.27344 c 1.2903,-1.79824 2.5699,-3.59448 3.8379,-5.38672 a 32,32 0 0 0 2.4238,-4.07227 32,32 0 0 0 1.3652,-1.30859 c 1.2308,-1.76079 2.4893,-3.56473 3.7676,-5.41797 a 32,32 0 0 0 2.3535,-4.0625 32,32 0 0 0 1.3379,-1.30859 c 1.2553,-1.83424 2.4955,-3.66355 3.7227,-5.48438 a 32,32 0 0 0 2.3437,-4.14648 32,32 0 0 0 1.3301,-1.33594 c 1.188,-1.78673 2.4079,-3.62261 3.6484,-5.51562 a 32,32 0 0 0 2.2598,-4.1211 32,32 0 0 0 1.3066,-1.33984 c 1.2165,-1.87181 2.4147,-3.73493 3.5977,-5.58594 a 32,32 0 0 0 2.2461,-4.21094 32,32 0 0 0 1.3008,-1.37304 c 1.1452,-1.8188 2.3213,-3.6904 3.5176,-5.6211 a 32,32 0 0 0 2.1621,-4.18945 32,32 0 0 0 1.2675,-1.36914 c 1.1747,-1.91315 2.3256,-3.81129 3.459,-5.69141 a 32,32 0 0 0 2.1465,-4.28711 32,32 0 0 0 1.2578,-1.40039 c 1.1029,-1.85956 2.234,-3.76836 3.3789,-5.73437 a 32,32 0 0 0 2.0469,-4.25391 32,32 0 0 0 1.2305,-1.40429 c 1.1305,-1.96093 2.2306,-3.89664 3.3066,-5.80079 a 32,32 0 0 0 2.0313,-4.36132 32,32 0 0 0 1.2148,-1.4336 c 1.0603,-1.91001 2.1393,-3.86225 3.2246,-5.85937 a 32,32 0 0 0 1.9258,-4.32422 32,32 0 0 0 1.1875,-1.43946 c 1.0846,-2.01837 2.1249,-3.98801 3.1328,-5.90429 a 32,32 0 0 0 1.9121,-4.45508 32,32 0 0 0 1.1621,-1.45898 c 1.0171,-1.97313 2.0354,-3.96715 3.0508,-5.98633 a 32,32 0 0 0 1.8047,-4.42383 32,32 0 0 0 1.1484,-1.49414 c 0.9921,-2.00606 1.9734,-4.01494 2.9453,-6.0293 a 32,32 0 0 0 1.7422,-4.48047 32,32 0 0 0 1.1133,-1.49804 c 0.972,-2.05108 1.9214,-4.08809 2.8535,-6.11133 a 32,32 0 0 0 1.6739,-4.54297 32,32 0 0 0 1.1015,-1.54688 c 0.8974,-1.99539 1.8158,-4.04748 2.7403,-6.16406 a 32,32 0 0 0 1.5605,-4.51172 32,32 0 0 0 1.0586,-1.53906 c 0.9163,-2.13295 1.7865,-4.20796 2.625,-6.2207 a 32,32 0 0 0 1.5234,-4.65039 32,32 0 0 0 1.0196,-1.55274 c 0.8559,-2.11064 1.6913,-4.21575 2.5117,-6.3125 a 32,32 0 0 0 1.4121,-4.65625 32,32 0 0 0 1.0117,-1.61718 c 0.782,-2.06 1.578,-4.17941 2.377,-6.36524 a 32,32 0 0 0 1.2929,-4.63672 32,32 0 0 0 0.9727,-1.62695 c 0.7653,-2.14779 1.5124,-4.29302 2.2441,-6.43359 a 32,32 0 0 0 1.209,-4.71876 32,32 0 0 0 0.9199,-1.61914 c 0.7364,-2.21887 1.4339,-4.38543 2.1036,-6.49804 a 32,32 0 0 0 1.1191,-4.81446 32,32 0 0 0 0.8809,-1.64453 c 0.6671,-2.19002 1.3183,-4.38351 1.9531,-6.58203 a 32,32 0 0 0 0.9863,-4.80859 32,32 0 0 0 0.8594,-1.70899 c 0.5951,-2.15483 1.1957,-4.36792 1.7871,-6.64062 a 32,32 0 0 0 0.8574,-4.82227 32,32 0 0 0 0.8203,-1.74609 c 0.5322,-2.14923 1.075,-4.37992 1.6114,-6.69727 a 32,32 0 0 0 0.7246,-4.82226 32,32 0 0 0 0.7656,-1.7461 c 0.4962,-2.25078 0.9731,-4.5084 1.4336,-6.77343 a 32,32 0 0 0 0.5957,-4.85938 32,32 0 0 0 0.707,-1.73437 c 0.4155,-2.1542 0.8295,-4.33174 1.2363,-6.53321 a 32,32 0 0 0 0.4903,-4.6914 32,32 0 0 0 0.6953,-1.77539 l 0.5781,-3.22461 a 32.0032,32.0032 0 0 0 0.02,-0.0977 l 0.541,-3.07617 a 32,32 0 0 0 0.455,-4.76172 32,32 0 0 0 0.6582,-1.71484 c 0.3762,-2.2063 0.7359,-4.39351 1.0879,-6.56055 a 32,32 0 0 0 0.3907,-4.69727 32,32 0 0 0 0.6464,-1.75976 c 0.3397,-2.15059 0.6813,-4.33958 1.0157,-6.56641 a 32,32 0 0 0 0.332,-4.70312 32,32 0 0 0 0.6367,-1.80078 l 0.4492,-3.1211 a 32.0032,32.0032 0 0 0 0.016,-0.0976 l 0.455,-3.21289 a 32,32 0 0 0 0.2969,-4.78516 32,32 0 0 0 0.5957,-1.73242 c 0.3043,-2.24169 0.5883,-4.43568 0.8633,-6.58008 a 32,32 0 0 0 0.2324,-4.73047 32,32 0 0 0 0.5821,-1.76172 c 0.2739,-2.21479 0.5357,-4.41889 0.789,-6.60937 a 32,32 0 0 0 0.1719,-4.71289 32,32 0 0 0 0.5644,-1.77735 c 0.2441,-2.19129 0.4835,-4.39668 0.7129,-6.61718 a 32,32 0 0 0 0.1133,-4.70508 32,32 0 0 0 0.5469,-1.79883 c 0.2152,-2.17308 0.4286,-4.37898 0.6328,-6.61914 a 32,32 0 0 0 0.059,-4.70703 32,32 0 0 0 0.5254,-1.8086 c 0.1875,-2.16305 0.373,-4.36958 0.5508,-6.62109 a 32,32 0 0 0 0,-4.70899 32,32 0 0 0 0.5039,-1.8164 c 0.161,-2.16365 0.3222,-4.37383 0.4726,-6.62891 a 32,32 0 0 0 -0.057,-4.70898 32,32 0 0 0 0.4805,-1.81836 c 0.1354,-2.17552 0.2701,-4.388 0.3925,-6.63867 a 32,32 0 0 0 -0.1152,-4.70313 32,32 0 0 0 0.459,-1.82422 c 0.1103,-2.19714 0.2144,-4.41289 0.3086,-6.65039 a 32,32 0 0 0 -0.1719,-4.70898 32,32 0 0 0 0.4336,-1.81641 c 0.085,-2.22594 0.1587,-4.44481 0.2246,-6.6582 a 32,32 0 0 0 -0.2305,-4.71875 32,32 0 0 0 0.4102,-1.8125 c 0.058,-2.26003 0.102,-4.4757 0.1406,-6.64844 a 32,32 0 0 0 -0.2929,-4.7793 32,32 0 0 0 0.3886,-1.84765 c 0.023,-2.15765 0.045,-4.36761 0.053,-6.62695 a 32,32 0 0 0 -0.2461,-3.27149 32,32 0 0 0 0.2539,-3.29101 c 0,-2.19935 -0.013,-4.42246 -0.035,-6.66602 a 32,32 0 0 0 -0.3828,-1.83008 32,32 0 0 0 0.3047,-4.70117 c -0.032,-2.26607 -0.076,-4.48329 -0.1231,-6.65234 a 32,32 0 0 0 -0.4062,-1.83594 32,32 0 0 0 0.2363,-4.79297 c -0.063,-2.17935 -0.1326,-4.39913 -0.2168,-6.6582 a 32,32 0 0 0 -0.4316,-1.81641 32,32 0 0 0 0.1738,-4.71484 c -0.094,-2.2724 -0.2018,-4.48779 -0.3086,-6.64649 a 32,32 0 0 0 -0.4609,-1.83984 32,32 0 0 0 0.1055,-4.7793 c -0.1256,-2.21742 -0.2609,-4.43819 -0.4063,-6.66406 a 32,32 0 0 0 -0.4805,-1.79688 32,32 0 0 0 0.031,-4.81445 c -0.1568,-2.16525 -0.321,-4.38161 -0.5039,-6.64648 a 32,32 0 0 0 -0.5098,-1.79297 32,32 0 0 0 -0.037,-4.76953 c -0.1911,-2.20774 -0.3907,-4.42554 -0.6035,-6.6543 a 32,32 0 0 0 -0.5391,-1.79492 32,32 0 0 0 -0.1093,-4.76953 c -0.2266,-2.22814 -0.4621,-4.44781 -0.7071,-6.65625 a 32,32 0 0 0 -0.5683,-1.79102 32,32 0 0 0 -0.1856,-4.78516 c -0.2615,-2.21883 -0.5337,-4.43533 -0.8164,-6.65234 a 32,32 0 0 0 -0.5937,-1.77148 32,32 0 0 0 -0.2676,-4.8086 c -0.2965,-2.19596 -0.6043,-4.41142 -0.9278,-6.64453 a 32,32 0 0 0 -0.6211,-1.75781 32,32 0 0 0 -0.3515,-4.80859 c -0.3351,-2.19806 -0.6813,-4.40559 -1.041,-6.62305 a 32,32 0 0 0 -0.6582,-1.76172 32,32 0 0 0 -0.4317,-4.79102 c -0.3769,-2.21739 -0.765,-4.43027 -1.164,-6.63671 a 32,32 0 0 0 -0.6856,-1.74024 32,32 0 0 0 -0.5293,-4.83008 c -0.4159,-2.18889 -0.8444,-4.38885 -1.2871,-6.59765 a 32,32 0 0 0 -0.7246,-1.74219 32,32 0 0 0 -0.6172,-4.79883 c -0.4635,-2.21276 -0.9388,-4.41907 -1.4258,-6.61719 a 32,32 0 0 0 -0.7597,-1.72851 32,32 0 0 0 -0.7188,-4.79492 c -0.5111,-2.21241 -1.0351,-4.41572 -1.5703,-6.60938 a 32,32 0 0 0 -0.7949,-1.70703 32,32 0 0 0 -0.8262,-4.80274 c -0.5638,-2.21745 -1.1388,-4.41307 -1.7207,-6.58593 a 32,32 0 0 0 -0.834,-1.69141 32,32 0 0 0 -0.9609,-4.85742 c -0.605,-2.1532 -1.232,-4.33927 -1.8867,-6.55664 a 32,32 0 0 0 -0.877,-1.66992 32,32 0 0 0 -1.0703,-4.79688 c -0.6828,-2.222 -1.3756,-4.4021 -2.0684,-6.54492 a 32,32 0 0 0 -0.9335,-1.67188 32,32 0 0 0 -1.2208,-4.82421 c -0.7484,-2.21004 -1.5088,-4.3873 -2.2753,-6.53516 a 32,32 0 0 0 -0.9864,-1.64844 32,32 0 0 0 -1.3906,-4.83984 c -0.8146,-2.17281 -1.6523,-4.35109 -2.5176,-6.5332 a 32,32 0 0 0 -1.0469,-1.6211 32,32 0 0 0 -1.5683,-4.8164 c -0.9046,-2.17169 -1.8364,-4.34572 -2.7988,-6.52149 a 32,32 0 0 0 -1.1348,-1.61328 32,32 0 0 0 -1.7793,-4.80078 c -1.0241,-2.1947 -2.0707,-4.35837 -3.1328,-6.49219 a 32,32 0 0 0 -1.2617,-1.63281 32,32 0 0 0 -2.0508,-4.80274 c -1.1568,-2.179 -2.3506,-4.3448 -3.582,-6.49609 a 32,32 0 0 0 -1.4141,-1.625 32,32 0 0 0 -2.418,-4.81641 c -1.327,-2.14447 -2.7235,-4.31574 -4.207,-6.50195 a 32,32 0 0 0 -1.6504,-1.62695 32,32 0 0 0 -2.9375,-4.82031 c -1.6175,-2.15681 -3.3373,-4.33137 -5.1797,-6.50391 a 32,32 0 0 0 -2.0976,-1.66602 32,32 0 0 0 -3.8145,-4.814449 c -2.1606,-2.194961 -4.5174,-4.394202 -7.1094,-6.539063 a 32,32 0 0 0 -2.998,-1.617187 32,32 0 0 0 -5.8457,-4.744141 c -3.3173,-2.036423 -7.1843,-4.047506 -11.7227,-5.667969 a 32,32 0 0 0 -2.6875,-0.396484 32,32 0 0 0 -7.4277,-2.173828 c -4.0749,-0.61885 -8.0638,-0.838054 -11.9297,-0.748047 z"
         inkscape:label="angry overlay ear" />
      <g
         id="g13003"
         inkscape:label="face">
        <path
           style="fill:none;stroke:#131;stroke-width:64;stroke-linecap:round;stroke-linejoin:round;stroke-opacity:1;-inkscape-stroke:none;paint-order:fill markers stroke;stop-color:#000000"
           d="m 132.4709,1346.7875 90.52178,-72.859 103.76887,66.2354 67.95029,53.1054 60.88619,-57.32 c 0,0 92.22636,-8.5955 121.68049,15.7496 29.45413,24.345 48.77552,75.1319 48.77552,75.1319"
           id="path6032"
           inkscape:label="mouf"
           sodipodi:nodetypes="ccccczc" />
        <path
           style="opacity:1;fill:none;fill-opacity:1;stroke:#131;stroke-width:64;stroke-linecap:round;stroke-linejoin:round;stroke-miterlimit:4;stroke-dasharray:none;stroke-dashoffset:0;stroke-opacity:1;paint-order:fill markers stroke;stop-color:#000000"
           d="m 83.898236,1201.0695 68.443294,6.6235 -37.53342,39.7413"
           id="path2163"
           inkscape:label="left nostril" />
        <path
           style="opacity:1;fill:none;fill-opacity:1;stroke:#131;stroke-width:64;stroke-linecap:round;stroke-linejoin:round;stroke-miterlimit:4;stroke-dasharray:none;stroke-dashoffset:0;stroke-opacity:1;paint-order:fill markers stroke;stop-color:#000000"
           d="m 401.82839,1251.85 -59.6119,-44.157 121.43166,-17.6628"
           id="path2198"
           inkscape:label="right nostril" />
        <path
           style="opacity:1;fill:#ffffff;fill-opacity:1;stroke:#131;stroke-width:64;stroke-linecap:round;stroke-linejoin:round;stroke-miterlimit:4;stroke-dasharray:none;stroke-dashoffset:0;stroke-opacity:1;paint-order:fill markers stroke;stop-color:#000000"
           d="m 222.99268,1530.0389 -90.52178,-183.2514 90.52178,-72.859 103.76887,66.2354 z"
           id="path2202"
           sodipodi:nodetypes="ccccc"
           inkscape:label="toof" />
      </g>
      <g
         id="g12993"
         inkscape:label="right eye">
        <path
           style="opacity:1;fill:#131;fill-opacity:1;stroke:#131;stroke-width:64;stroke-linecap:round;stroke-linejoin:round;stroke-miterlimit:4;stroke-dasharray:none;stroke-dashoffset:0;stroke-opacity:1;paint-order:fill markers stroke;stop-color:#000000"
           d="m 661.97569,1226.0485 53.36716,-115.5008 86.53085,168.711 z"
           id="path7852"
           inkscape:label="eyenub"
           sodipodi:nodetypes="cccc" />
        <path
           id="path1915"
           style="opacity:1;fill:#cff;stroke:#131;stroke-width:64;stroke-linecap:round;stroke-linejoin:round;paint-order:fill markers stroke;stop-color:#000000"
           inkscape:label="righteye"
           d="m 1150.289,1075.2222 c 0,120.7167 -151.8603,218.5769 -272.57702,218.5769 -120.71671,0 -164.57695,-71.8602 -164.57699,-192.5769 -2e-5,-120.71675 97.86024,-244.57702 218.57699,-244.57701 120.71672,-2e-5 218.57702,97.86025 218.57702,218.57701 z"
           sodipodi:nodetypes="sssss" />
        <path
           style="opacity:1;fill:#ffffff;fill-opacity:1;stroke:#131;stroke-width:48;stroke-linecap:round;stroke-linejoin:round;stroke-miterlimit:4;stroke-dasharray:none;stroke-dashoffset:0;stroke-opacity:1;paint-order:fill markers stroke;stop-color:#000000"
           d="m 841.19021,982.4925 v 189.8749"
           id="path2350"
           inkscape:label="pupil right" />
        <path
           id="path11159"
           style="opacity:1;fill:#474;stroke:#131;stroke-width:64;stroke-linecap:round;stroke-linejoin:round;paint-order:fill markers stroke;stop-color:#000000"
           inkscape:label="rightlid"
           d="m 931.71289,856.64453 c -120.71675,-10e-6 -218.57814,123.86138 -218.57812,244.57817 0,8.0113 0.22509,15.7733 0.62109,23.3476 l 432.95894,-88.541 C 1128.2371,934.02713 1039.0424,856.64451 931.71289,856.64453 Z" />
      </g>
      <path
         style="opacity:1;fill:none;fill-opacity:1;stroke:#ff0000;stroke-width:32;stroke-linecap:round;stroke-linejoin:round;stroke-miterlimit:4;stroke-dasharray:none;stroke-dashoffset:0;stroke-opacity:1;paint-order:fill markers stroke;stop-color:#000000"
         d="M 422.09799,125.10137 C 599.10012,348.40199 720.6887,588.66091 734.81454,861.80682"
         id="path14092"
         sodipodi:nodetypes="cc"
         inkscape:label="angry eyelash big" />
      <path
         style="display:inline;fill:none;fill-opacity:1;stroke:#ff0000;stroke-width:32;stroke-linecap:round;stroke-linejoin:round;stroke-miterlimit:4;stroke-dasharray:none;stroke-dashoffset:0;stroke-opacity:1;paint-order:fill markers stroke;stop-color:#000000"
         d="m 711.56797,296.29281 c 57.33566,162.60107 95.67474,355.38513 98.55015,516.11928"
         id="path14094"
         sodipodi:nodetypes="cc"
         inkscape:label="angry eyelash small" />
      <path
         style="color:#000000;fill:#000000;stroke:#ffffff;stroke-width:32;stroke-linecap:round;stroke-linejoin:round;stroke-miterlimit:4;stroke-dasharray:none;paint-order:fill markers stroke"
         d="m 661.67362,97.737456 a 50.171951,50.482923 0 0 0 -19.65771,2.803634 L 69.649282,304.61232 a 50.166934,50.477875 0 0 0 -30.53067,64.43755 50.166934,50.477875 0 0 0 64.040608,30.7199 L 409.71826,290.47088 281.44107,397.57309 a 50.171951,50.482923 0 0 0 50.42414,85.80991 l 156.46547,-62.02518 -66.56671,97.26788 a 50.171951,50.482923 0 0 0 23.26772,75.72606 l 110.15355,42.74167 a 50.166934,50.477875 0 0 0 64.85814,-28.93605 50.166934,50.477875 0 0 0 -28.7578,-65.26015 L 540.46952,523.17931 664.18441,342.39987 A 50.171951,50.482923 0 0 0 604.47644,266.8063 l -17.69804,7.01526 104.02657,-86.85435 A 50.171951,50.482923 0 0 0 661.67362,97.737456 Z"
         id="path11435" />
    </g>
  </g>
</svg>
