<?xml version="1.0" encoding="UTF-8" standalone="no"?>
<!-- Created with Inkscape (http://www.inkscape.org/) -->

<svg
   version="1.1"
   id="svg824"
   width="1706.6667"
   height="1706.6667"
   viewBox="0 0 1706.6667 1706.6667"
   sodipodi:docname="ying_exasperated.svg"
   inkscape:version="1.1 (c68e22c387, 2021-05-23)"
   inkscape:export-filename="D:\Pictures\yingmotes\ying_exasperated.png"
   inkscape:export-xdpi="72"
   inkscape:export-ydpi="72"
   xmlns:inkscape="http://www.inkscape.org/namespaces/inkscape"
   xmlns:sodipodi="http://sodipodi.sourceforge.net/DTD/sodipodi-0.dtd"
   xmlns="http://www.w3.org/2000/svg"
   xmlns:svg="http://www.w3.org/2000/svg">
  <defs
     id="defs828" />
  <sodipodi:namedview
     id="namedview826"
     pagecolor="#ffffff"
     bordercolor="#666666"
     borderopacity="1.0"
     inkscape:pageshadow="2"
     inkscape:pageopacity="0.0"
     inkscape:pagecheckerboard="0"
     showgrid="false"
     inkscape:zoom="0.32026963"
     inkscape:cx="572.95473"
     inkscape:cy="922.66007"
     inkscape:window-width="1920"
     inkscape:window-height="1001"
     inkscape:window-x="-9"
     inkscape:window-y="-9"
     inkscape:window-maximized="1"
     inkscape:current-layer="layer1">
    <inkscape:grid
       type="xygrid"
       id="grid17001" />
  </sodipodi:namedview>
  <g
     id="layer1"
     inkscape:label="Ying"
     style="display:inline"
     transform="translate(78.059228)"
     inkscape:groupmode="layer">
    <path
       style="fill:#474;fill-opacity:1;stroke:#474;stroke-width:128;stroke-linecap:round;stroke-linejoin:round;stroke-miterlimit:4;stroke-dasharray:none;stroke-opacity:1;paint-order:fill markers stroke;stop-color:#000000"
       d="M -5.0640997,1133.798 192.69205,1749.4999"
       id="path11466"
       inkscape:transform-center-x="-89.642867"
       inkscape:transform-center-y="253.93841"
       sodipodi:nodetypes="cc" />
    <path
       style="display:inline;fill:#262;stroke:#262;stroke-width:64;stroke-linecap:round;stroke-linejoin:round;-inkscape-stroke:none;paint-order:fill markers stroke;stop-color:#000000"
       d="m 1298.031,865.09775 c 70.7982,131.45402 185.3824,239.02475 198.7064,401.82835 -29.438,-19.1346 -55.9321,-14.719 -79.4825,13.2471 91.0222,54.7003 58.5139,175.917 81.6903,267.1496 l -99.3531,6.6236 c 66.7588,58.9185 81.773,128.1858 90.5218,198.7063 l -494.50725,2.2079 c -24.3802,-41.4813 23.11455,-208.5632 66.23555,-227.0436 0,0 3.3791,-20.0154 -75.35325,-9.4549 C 1015.23,1271.0896 1172.1837,1096.1858 1298.031,865.09775 Z"
       id="path3091"
       sodipodi:nodetypes="cccccccccc"
       inkscape:label="mane" />
    <path
       style="opacity:1;fill:#9f8;fill-opacity:1;stroke:#9f8;stroke-width:64;stroke-linecap:round;stroke-linejoin:round;stroke-miterlimit:4;stroke-dasharray:none;stroke-dashoffset:0;stroke-opacity:1;paint-order:fill markers stroke;stop-color:#000000"
       d="m 866.19989,1343.3037 -64.7849,239.5079 62.82173,-25.5214 -51.04266,200.2443 459.38384,-15.7054 c 0,0 -127.6066,-94.2326 -149.2016,-184.5389 -21.5949,-90.3062 51.0427,-253.25 51.0427,-253.25 z"
       id="path3340"
       inkscape:label="neck" />
    <g
       id="g25848"
       transform="rotate(8.704993,2716.6722,2070.3588)"
       inkscape:transform-center-x="-204.23977"
       inkscape:transform-center-y="54.197756">
      <path
         style="fill:none;fill-opacity:1;stroke:#474;stroke-width:70.6944;stroke-linecap:round;stroke-linejoin:round;stroke-miterlimit:4;stroke-dasharray:none;stroke-opacity:1;paint-order:fill markers stroke;stop-color:#000000"
         d="m 495.33736,1491.7226 c -131.55072,45.4026 -270.56193,3.6199 -405.842889,5.4299"
         id="path20257"
         sodipodi:nodetypes="cc" />
      <path
         style="display:inline;opacity:0.469214;fill:none;fill-opacity:1;stroke:#000000;stroke-width:70.6944;stroke-linecap:round;stroke-linejoin:round;stroke-miterlimit:4;stroke-dasharray:none;stroke-opacity:1;paint-order:fill markers stroke;stop-color:#000000"
         d="m 495.33736,1491.7226 c -131.55072,45.4026 -270.56193,3.6199 -405.842889,5.4299"
         id="path20257-6"
         sodipodi:nodetypes="cc" />
    </g>
    <g
       id="g12988"
       inkscape:label="head"
       transform="rotate(-10.529837,626.16092,727.7054)"
       sodipodi:insensitive="true">
      <path
         style="display:inline;fill:none;fill-opacity:1;stroke:#3b4;stroke-width:32;stroke-linecap:round;stroke-linejoin:round;stroke-miterlimit:4;stroke-dasharray:none;stroke-dashoffset:0;stroke-opacity:1;paint-order:fill markers stroke;stop-color:#000000"
         d="M 229.59569,513.48724 C 376.55265,603.65452 527.76896,729.23001 631.25316,852.2534"
         id="path6280-0-6"
         sodipodi:nodetypes="cc"
         inkscape:label="eyelash left small" />
      <path
         style="display:inline;fill:none;fill-opacity:1;stroke:#3b4;stroke-width:32;stroke-linecap:round;stroke-linejoin:round;stroke-miterlimit:4;stroke-dasharray:none;stroke-dashoffset:0;stroke-opacity:1;paint-order:fill markers stroke;stop-color:#000000"
         d="M 151.65634,318.52301 C 401.71253,455.14225 607.35216,628.98263 726.85531,875.00544"
         id="path6280-3"
         sodipodi:nodetypes="cc"
         inkscape:label="eyelash left big" />
      <g
         id="g12997"
         inkscape:label="left eye"
         transform="translate(15.34894,2.8530263)">
        <path
           id="path1915-9"
           style="display:inline;fill:#474;fill-opacity:1;stroke:#131;stroke-width:64;stroke-linecap:round;stroke-linejoin:round;paint-order:fill markers stroke;stop-color:#000000"
           inkscape:label="leftlid"
           d="m 792.61751,1048.7279 c 10e-6,120.7167 -155.86024,218.577 -276.57698,218.577 -120.71674,0 -160.57699,-55.8603 -160.57698,-176.577 0,-120.71673 97.86025,-260.57698 218.57698,-260.57698 120.71673,0 218.57698,97.86025 218.57698,218.57698 z"
           sodipodi:nodetypes="sssss" />
        <path
           style="fill:#474;fill-opacity:1;stroke:#131;stroke-width:64;stroke-linecap:round;stroke-linejoin:round;stroke-miterlimit:4;stroke-dasharray:none;stroke-opacity:1;paint-order:fill markers stroke;stop-color:#000000"
           d="m 391.10132,966.46711 c 91.30335,-2.38652 147.37143,25.65236 198.89707,57.61359"
           id="path9933"
           sodipodi:nodetypes="cc" />
      </g>
      <path
         style="display:inline;opacity:1;fill:#3b4;fill-opacity:1;stroke:#3b4;stroke-width:64;stroke-linecap:round;stroke-miterlimit:4;stroke-dasharray:none;stroke-dashoffset:0;stroke-opacity:1;paint-order:fill markers stroke;stop-color:#000000"
         d="m 864.34053,800.12583 c 0,0 50.54871,-169.87687 153.15977,-321.07857 112.8823,-166.33691 293.7528,-308.01549 353.9797,-275.20233 60.2269,32.81316 48.6398,257.89956 -1.3647,390.8304 -50.0045,132.93085 -241.8762,374.72441 -241.8762,374.72441 z"
         id="path1640"
         inkscape:label="leftear"
         sodipodi:nodetypes="cssscc"
         inkscape:transform-center-x="-68.205881"
         inkscape:transform-center-y="-254.52912" />
      <path
         id="path1148"
         style="display:inline;opacity:1;fill:#9f8;stroke:#9f8;stroke-width:64;stroke-linecap:round;stroke-linejoin:round;stroke-miterlimit:4;stroke-dasharray:6.4, 6.4;stroke-dashoffset:0;stroke-opacity:1;paint-order:fill markers stroke;stop-color:#000000"
         inkscape:label="head"
         d="m 1314.4036,1156.4116 c 0,0 -0.1078,-10.8206 -0.9512,-28.418 -0.4217,-8.7987 -1.0259,-19.2912 -1.8945,-30.9726 -0.8686,-11.6814 -1.9997,-24.5525 -3.4727,-38.1055 -1.4729,-13.553 -3.2888,-27.7877 -5.5234,-42.2012 -2.2347,-14.4134 -4.8892,-29.00467 -8.043,-43.26752 -1.5769,-7.13143 -3.279,-14.18175 -5.1152,-21.08594 -1.8362,-6.90419 -3.8068,-13.66232 -5.9219,-20.21289 -2.1151,-6.55056 -4.3733,-12.89234 -6.7871,-18.96289 -2.4138,-6.07055 -4.9828,-11.86984 -7.7148,-17.33398 -2.7321,-5.46415 -5.9346,-10.78574 -9.5391,-15.96094 -3.6045,-5.1752 -7.6114,-10.20474 -11.9492,-15.08399 -4.3379,-4.87924 -9.0074,-9.60926 -13.9395,-14.18554 -4.9321,-4.57628 -10.1264,-8.99932 -15.5136,-13.26563 -5.3873,-4.2663 -10.9666,-8.37489 -16.67,-12.32422 -5.7033,-3.94932 -11.5298,-7.73794 -17.4101,-11.36328 -11.7607,-7.25067 -23.7371,-13.84709 -35.3711,-19.75976 -11.634,-5.91267 -22.9257,-11.14156 -33.3203,-15.66016 -10.3946,-4.5186 -19.8912,-8.32606 -27.9336,-11.39453 -16.085,-6.13693 -26.3535,-9.31836 -26.3535,-9.31836 -106.83131,-15.98813 -232.17457,6.96944 -312.625,60.01367 -101.26734,66.76968 -136.88727,176.62945 -198.70703,211.95506 -61.81975,35.3255 -225.20029,77.273 -280.39649,83.8965 -55.19621,6.6235 -183.250354,6.6246 -161.17187,123.6406 22.07848,117.016 112.59921,282.6048 377.54101,247.2793 264.94179,-35.3256 313.51517,-44.1575 536.50778,-88.3145 22.8973,-4.5341 116.5531,-74.9001 149.5331,-93.5278 l 185.5122,60.7646 -127.2719,-90.8676 c 5.3578,-4.8405 10.5999,-9.7184 15.6328,-14.6367 l 160.8104,0.7474 -103.615,-72.7904 c 3.4806,-6.5537 6.4805,-13.0207 8.6269,-19.3066 1.0523,-3.0817 2.0328,-6.6268 3.0469,-9.9766 z"
         sodipodi:nodetypes="csssssssssssssssssscssssssccccccsc" />
      <path
         style="display:inline;fill:#262;stroke:#262;stroke-width:64;stroke-linecap:round;stroke-linejoin:round;-inkscape-stroke:none;paint-order:fill markers stroke;stop-color:#000000"
         d="M 880.93148,744.0449 C 763.91552,771.643 622.61323,916.25706 622.61323,916.25706 620.95257,833.21142 611.27974,749.4374 735.2135,677.80944 c -124.69479,-7.45678 -249.2876,-15.1175 -408.45194,46.36482 0,0 303.22641,-263.62224 490.14233,-280.39675 172.2122,-15.45493 264.94181,37.53343 264.94181,37.53343 -0.1923,-45.68323 -31.4577,-88.25915 -90.52179,-128.0552 0,0 295.85169,97.14532 333.38509,194.29065 37.5334,97.14533 28.702,167.79647 28.702,167.79647 l -243.7525,34.92308 c 0,0 -111.71105,-33.81914 -228.72702,-6.22104 z"
         id="path1637"
         sodipodi:nodetypes="zcccsccsccz"
         inkscape:label="top hair" />
      <path
         id="path13483"
         style="display:inline;opacity:1;fill:#9f8;stroke:#9f8;stroke-width:64;stroke-linecap:round;stroke-linejoin:round;stroke-miterlimit:4;stroke-dasharray:6.4, 6.4;stroke-dashoffset:0;stroke-opacity:1;paint-order:fill markers stroke;stop-color:#000000"
         inkscape:label="rightear"
         d="m 1560.043,237.33505 c -77.0234,-19.61826 -302.6839,216.87039 -350.4369,293.50446 -42.5166,68.23054 -162.3828,236.73545 -196.4051,284.47435 0,0 9.1655,5.61752 23.238,15.53474 7.0362,4.9586 15.2992,10.99224 24.2568,17.93669 8.9578,6.94444 18.6096,14.79861 28.4242,23.3999 9.8146,8.60129 19.7923,17.94968 29.3995,27.87884 4.8035,4.96459 9.5146,10.07411 14.0667,15.30895 4.5521,5.2349 8.9447,10.59346 13.1123,16.05746 4.1675,5.46403 8.1093,11.03229 11.7593,16.68434 3.6499,5.65206 7.0076,11.38828 10.007,17.18726 2.9992,5.79895 5.6407,11.6619 7.8563,17.56665 2.2156,5.90477 4.0055,11.85216 5.3045,17.82161 1.2988,5.9693 2.3568,12.2233 3.1976,18.7019 0.8407,6.4785 1.4637,13.1814 1.8963,20.0514 0.4329,6.8699 0.6743,13.9053 0.7496,21.0491 0.075,7.1438 -0.015,14.3961 -0.2476,21.6961 -0.4642,14.6001 -1.4933,29.395 -2.8852,43.9141 -1.3922,14.5191 -3.1459,28.7616 -5.0638,42.2589 -1.9179,13.4972 -3.9987,26.2493 -6.0402,37.7836 -2.0421,11.5343 -4.0458,21.8513 -5.8089,30.482 -3.5262,17.2611 -6.0926,27.7735 -6.0926,27.7735 122.8755,-89.9882 358.8224,-285.26388 422.5445,-499.51006 87.2432,-293.32876 27.1154,-514.83378 -22.8326,-527.55578 z"
         inkscape:transform-center-x="-85.606721"
         inkscape:transform-center-y="-196.09848" />
      <g
         id="g13003"
         inkscape:label="face"
         inkscape:groupmode="layer">
        <path
           style="opacity:1;fill:none;fill-opacity:1;stroke:#131;stroke-width:64;stroke-linecap:round;stroke-linejoin:round;stroke-miterlimit:4;stroke-dasharray:none;stroke-dashoffset:0;stroke-opacity:1;paint-order:fill markers stroke;stop-color:#000000"
           d="m 99.247176,1203.9225 68.443294,6.6235 -37.53342,39.7413"
           id="path2163"
           inkscape:label="left nostril" />
        <path
           style="opacity:1;fill:none;fill-opacity:1;stroke:#131;stroke-width:64;stroke-linecap:round;stroke-linejoin:round;stroke-miterlimit:4;stroke-dasharray:none;stroke-dashoffset:0;stroke-opacity:1;paint-order:fill markers stroke;stop-color:#000000"
           d="m 417.17733,1254.703 -59.6119,-44.157 121.43166,-17.6628"
           id="path2198"
           inkscape:label="right nostril" />
        <path
           style="opacity:1;fill:#ffffff;fill-opacity:1;stroke:#131;stroke-width:64;stroke-linecap:round;stroke-linejoin:round;stroke-miterlimit:4;stroke-dasharray:none;stroke-dashoffset:0;stroke-opacity:1;paint-order:fill markers stroke;stop-color:#000000"
           d="m 238.34162,1532.8919 -90.52178,-183.2514 90.52178,-72.859 103.76887,66.2354 z"
           id="path2202"
           sodipodi:nodetypes="ccccc"
           inkscape:label="toof" />
      </g>
      <g
         id="g12993"
         inkscape:label="right eye"
         transform="translate(15.34894,2.8530263)">
        <path
           style="opacity:1;fill:#131;fill-opacity:1;stroke:#131;stroke-width:64;stroke-linecap:round;stroke-linejoin:round;stroke-miterlimit:4;stroke-dasharray:none;stroke-dashoffset:0;stroke-opacity:1;paint-order:fill markers stroke;stop-color:#000000"
           d="m 661.97569,1226.0485 53.36716,-115.5008 86.53085,168.711 z"
           id="path7852"
           inkscape:label="eyenub"
           sodipodi:nodetypes="cccc" />
        <path
           id="path1915"
           style="opacity:1;fill:#474;fill-opacity:1;stroke:#131;stroke-width:64;stroke-linecap:round;stroke-linejoin:round;paint-order:fill markers stroke;stop-color:#000000"
           inkscape:label="rightlid"
           d="m 1150.289,1075.2222 c 0,120.7167 -151.8603,218.5769 -272.57702,218.5769 -120.71671,0 -164.57695,-71.8602 -164.57699,-192.5769 -2e-5,-120.71675 97.86024,-244.57702 218.57699,-244.57701 120.71672,-2e-5 218.57702,97.86025 218.57702,218.57701 z"
           sodipodi:nodetypes="sssss" />
        <path
           style="fill:#474;fill-opacity:1;stroke:#131;stroke-width:64;stroke-linecap:round;stroke-linejoin:round;stroke-miterlimit:4;stroke-dasharray:none;stroke-opacity:1;paint-order:fill markers stroke;stop-color:#000000"
           d="M 1127.868,992.26082 C 985.05829,1021.1093 847.74887,1069.0952 720.33844,1151.5231"
           id="path6715"
           sodipodi:nodetypes="cc" />
      </g>
      <path
         style="display:inline;opacity:1;fill:none;fill-opacity:1;stroke:#9f8;stroke-width:32;stroke-linecap:round;stroke-linejoin:round;stroke-miterlimit:4;stroke-dasharray:none;stroke-dashoffset:0;stroke-opacity:1;paint-order:fill markers stroke;stop-color:#000000"
         d="M 437.44693,127.9544 C 614.44906,351.25502 736.03764,591.51394 750.16348,864.65985"
         id="path6280"
         sodipodi:nodetypes="cc"
         inkscape:label="eyelash right big" />
      <path
         style="display:inline;fill:none;fill-opacity:1;stroke:#9f8;stroke-width:32;stroke-linecap:round;stroke-linejoin:round;stroke-miterlimit:4;stroke-dasharray:none;stroke-dashoffset:0;stroke-opacity:1;paint-order:fill markers stroke;stop-color:#000000"
         d="m 726.91691,299.14584 c 57.33566,162.60107 95.67474,355.38513 98.55015,516.11928"
         id="path6280-0"
         sodipodi:nodetypes="cc"
         inkscape:label="eyelash right small" />
    </g>
    <g
       id="layer2"
       inkscape:label="hand"
       transform="matrix(1.2009597,0.61487546,-0.60159572,1.2274699,967.46041,-846.31681)"
       style="display:inline;fill:none;fill-opacity:1;stroke:#888800;stroke-width:0.7364;stroke-opacity:1"
       inkscape:transform-center-x="-191.16558"
       inkscape:transform-center-y="38.856505">
      <path
         style="fill:none;fill-opacity:1;stroke:#474;stroke-width:70.6944;stroke-linecap:round;stroke-linejoin:round;stroke-miterlimit:4;stroke-dasharray:none;stroke-opacity:1;paint-order:fill markers stroke;stop-color:#000000"
         d="m 83.585394,1562.0096 55.706506,-4.2826 -61.906385,35.6038"
         id="path20259"
         sodipodi:nodetypes="ccc" />
      <path
         style="fill:none;fill-opacity:1;stroke:#474;stroke-width:70.6944;stroke-linecap:round;stroke-linejoin:round;stroke-miterlimit:4;stroke-dasharray:none;stroke-opacity:1;paint-order:fill markers stroke;stop-color:#000000"
         d="m 48.606472,1659.2616 62.121158,-28.3041 -66.308282,-36.1463"
         id="path20261"
         sodipodi:nodetypes="ccc" />
      <path
         style="fill:#474;fill-opacity:1;stroke:#474;stroke-width:70.6944;stroke-linecap:round;stroke-linejoin:round;stroke-miterlimit:4;stroke-dasharray:none;stroke-opacity:1;paint-order:fill markers stroke;stop-color:#000000"
         d="m 62.88949,1503.0855 c 0,0 -91.661563,27.9317 -87.474013,89.3687 4.187559,61.437 73.190995,66.8074 73.190995,66.8074 L 62.88949,1503.0855"
         id="path20376" />
    </g>
    <path
       style="display:inline;fill:none;fill-opacity:1;stroke:#474;stroke-width:96;stroke-linecap:round;stroke-linejoin:round;stroke-miterlimit:4;stroke-dasharray:none;stroke-opacity:1;paint-order:fill markers stroke;stop-color:#000000"
       d="M 566.48546,1112.0278 C 412.4544,1066.2322 292.76941,1058.0582 138.73835,1037.3446"
       id="path20257-9"
       sodipodi:nodetypes="cc" />
    <path
       style="color:#000000;display:inline;fill:#000000;stroke:#ffffff;stroke-width:32;stroke-linecap:round;stroke-linejoin:round;stroke-miterlimit:4;stroke-dasharray:none;paint-order:fill markers stroke"
       d="m 636.69467,160.18484 a 50.171951,50.482923 0 0 0 -19.65771,2.80363 L 44.670327,367.0597 a 50.166934,50.477875 0 0 0 -30.530668,64.43755 50.166934,50.477875 0 0 0 64.040608,30.7199 L 384.73931,352.91826 256.46212,460.02047 a 50.171951,50.482923 0 0 0 50.42414,85.80991 l 156.46547,-62.02518 -66.56671,97.26788 a 50.171951,50.482923 0 0 0 23.26772,75.72606 l 110.15355,42.74167 a 50.166934,50.477875 0 0 0 64.85814,-28.93605 50.166934,50.477875 0 0 0 -28.7578,-65.26015 L 515.49057,585.62669 639.20546,404.84725 a 50.171951,50.482923 0 0 0 -59.70797,-75.59357 l -17.69804,7.01526 104.02657,-86.85435 a 50.171951,50.482923 0 0 0 -29.13135,-89.22975 z"
       id="path11435" />
  </g>
</svg>
