<?xml version="1.0" encoding="UTF-8" standalone="no"?>
<!-- Created with Inkscape (http://www.inkscape.org/) -->

<svg
   version="1.1"
   id="svg824"
   width="1706.6667"
   height="1706.6667"
   viewBox="0 0 1706.6667 1706.6667"
   sodipodi:docname="ying_peek.svg"
   inkscape:version="1.1 (c68e22c387, 2021-05-23)"
   inkscape:export-filename="D:\Pictures\yingmotes\ying_happy.png"
   inkscape:export-xdpi="72"
   inkscape:export-ydpi="72"
   xmlns:inkscape="http://www.inkscape.org/namespaces/inkscape"
   xmlns:sodipodi="http://sodipodi.sourceforge.net/DTD/sodipodi-0.dtd"
   xmlns="http://www.w3.org/2000/svg"
   xmlns:svg="http://www.w3.org/2000/svg">
  <defs
     id="defs828" />
  <sodipodi:namedview
     id="namedview826"
     pagecolor="#ffffff"
     bordercolor="#666666"
     borderopacity="1.0"
     inkscape:pageshadow="2"
     inkscape:pageopacity="0.0"
     inkscape:pagecheckerboard="0"
     showgrid="false"
     inkscape:zoom="0.32026963"
     inkscape:cx="771.22516"
     inkscape:cy="816.49951"
     inkscape:window-width="1920"
     inkscape:window-height="1001"
     inkscape:window-x="-9"
     inkscape:window-y="-9"
     inkscape:window-maximized="1"
     inkscape:current-layer="svg824" />
  <g
     id="layer1"
     inkscape:label="Ying"
     style="display:inline;stroke-width:1.02053"
     transform="matrix(0.98463117,0,0,0.97516562,70.048015,-280.1572)">
    <path
       style="display:inline;fill:#ffff00;fill-opacity:1;stroke:#ffff00;stroke-width:64;stroke-linecap:round;stroke-linejoin:round;stroke-miterlimit:4;stroke-dasharray:none;stroke-dashoffset:0;stroke-opacity:1;paint-order:fill markers stroke;stop-color:#000000"
       d="m 977.65122,1282.1205 87.76888,232.0727 35.9711,-57.4803 75.9109,192.1995 363.1458,-281.7893 c 0,0 -158.6207,-1.6396 -229.0162,-62.1875 -70.3954,-60.5478 -106.9561,-235.1623 -106.9561,-235.1623 z"
       id="path3340"
       inkscape:label="neck" />
    <g
       id="g12988"
       inkscape:label="head"
       style="stroke-width:1.02053"
       transform="translate(9.5133158,-99.258464)">
      <path
         style="display:inline;fill:none;fill-opacity:1;stroke:#cccc00;stroke-width:32.6568;stroke-linecap:round;stroke-linejoin:round;stroke-miterlimit:4;stroke-dasharray:none;stroke-dashoffset:0;stroke-opacity:1;paint-order:fill markers stroke;stop-color:#000000"
         d="m 121.49556,756.77259 c 171.49252,11.75025 362.86185,52.96526 510.68158,114.10597"
         id="path6280-0-6"
         sodipodi:nodetypes="cc"
         inkscape:label="eyelash left small"
         inkscape:transform-center-x="260.77392"
         inkscape:transform-center-y="-11.096939" />
      <path
         style="display:inline;fill:none;fill-opacity:1;stroke:#cccc00;stroke-width:32.6568;stroke-linecap:round;stroke-linejoin:round;stroke-miterlimit:4;stroke-dasharray:none;stroke-dashoffset:0;stroke-opacity:1;paint-order:fill markers stroke;stop-color:#000000"
         d="M -36.337988,619.86658 C 247.82811,624.93552 509.46732,683.71017 727.42037,846.63561"
         id="path6280-3"
         sodipodi:nodetypes="cc"
         inkscape:label="eyelash left big"
         inkscape:transform-center-x="288.83625"
         inkscape:transform-center-y="-82.535484" />
      <g
         id="g12997"
         inkscape:label="left eye"
         style="stroke-width:1.02053">
        <path
           id="path1915-9"
           style="display:inline;fill:#fefefe;stroke:#6a6a1c;stroke-width:65.3136;stroke-linecap:round;stroke-linejoin:round;paint-order:fill markers stroke;stop-color:#000000"
           inkscape:label="lefteye"
           d="m 792.61751,1048.7279 c 10e-6,120.7167 -155.86024,218.577 -276.57698,218.577 -120.71674,0 -160.57699,-55.8603 -160.57698,-176.577 0,-120.71673 97.86025,-260.57698 218.57698,-260.57698 120.71673,0 218.57698,97.86025 218.57698,218.57698 z"
           sodipodi:nodetypes="sssss" />
        <path
           style="opacity:1;fill:#ffffff;fill-opacity:1;stroke:#6a6a1c;stroke-width:48.9852;stroke-linecap:round;stroke-linejoin:round;stroke-miterlimit:4;stroke-dasharray:none;stroke-dashoffset:0;stroke-opacity:1;paint-order:fill markers stroke;stop-color:#000000"
           d="m 530.31236,930.9268 v 170.0043"
           id="path2372"
           inkscape:label="pupil left" />
      </g>
      <path
         style="opacity:1;fill:#cccc00;fill-opacity:1;stroke:#cccc00;stroke-width:65.3136;stroke-linecap:round;stroke-miterlimit:4;stroke-dasharray:none;stroke-dashoffset:0;stroke-opacity:1;paint-order:fill markers stroke;stop-color:#000000"
         d="m 785.98445,912.64707 c 0,0 67.4977,-163.48872 184.76277,-302.50584 129.00338,-152.93269 322.97038,-273.63853 379.39908,-234.16526 56.4288,39.47329 21.9695,262.34264 -41.2196,389.09612 -63.1891,126.75351 -278.2866,345.92871 -278.2866,345.92871 z"
         id="path1640"
         inkscape:label="leftear"
         sodipodi:nodetypes="cssscc"
         inkscape:transform-center-x="-94.835918"
         inkscape:transform-center-y="-163.72317" />
      <path
         id="path1148"
         style="display:inline;opacity:1;fill:#ffff00;stroke:#ffff00;stroke-width:65.3136;stroke-linecap:round;stroke-linejoin:round;stroke-miterlimit:4;stroke-dasharray:6.53136, 6.53136;stroke-dashoffset:0;stroke-opacity:1;paint-order:fill markers stroke;stop-color:#000000"
         inkscape:label="head"
         d="m 1275.4323,1183.7326 c 0,0 -0.1078,-10.8206 -0.9512,-28.418 -0.4217,-8.7987 -1.0259,-19.2912 -1.8945,-30.9726 -0.8686,-11.6814 -1.9997,-24.5525 -3.4727,-38.1055 -1.4729,-13.553 -3.2888,-27.7877 -5.5234,-42.2012 -2.2347,-14.4134 -4.8892,-29.0047 -8.043,-43.2675 -1.5769,-7.13146 -3.279,-14.18178 -5.1152,-21.08597 -1.8362,-6.90419 -3.8068,-13.66232 -5.9219,-20.21289 -2.1151,-6.55056 -4.3733,-12.89234 -6.7871,-18.96289 -2.4138,-6.07055 -4.9828,-11.86984 -7.7148,-17.33398 -2.7321,-5.46415 -5.9346,-10.78574 -9.5391,-15.96094 -3.6045,-5.1752 -7.6114,-10.20474 -11.9492,-15.08399 -4.3379,-4.87924 -9.0074,-9.60926 -13.9395,-14.18554 -4.9321,-4.57628 -10.1264,-8.99932 -15.5136,-13.26563 -5.3873,-4.2663 -10.9666,-8.37489 -16.67,-12.32422 -5.7033,-3.94932 -11.5298,-7.73794 -17.4101,-11.36328 -11.7607,-7.25067 -23.7371,-13.84709 -35.3711,-19.75976 -11.634,-5.91267 -22.9257,-11.14156 -33.3203,-15.66016 -10.3946,-4.5186 -19.8912,-8.32606 -27.9336,-11.39453 -16.085,-6.13693 -26.3535,-9.31836 -26.3535,-9.31836 -106.83135,-15.98813 -232.17461,6.96944 -312.62504,60.01367 -101.26734,66.76968 -136.88727,176.62947 -198.70703,211.95507 -61.81975,35.3255 -225.20029,77.273 -280.39649,83.8965 -55.19621,6.6235 -183.250354,6.6246 -161.171871,123.6406 22.078481,117.016 112.599211,282.6048 377.541011,247.2793 264.94179,-35.3256 313.51517,-44.1575 536.50782,-88.3145 22.8973,-4.5341 53.8481,-18.3195 86.8281,-36.9472 l 213.8711,-11.4278 -92.9258,-75.2558 c 5.3578,-4.8405 10.5999,-9.7184 15.6328,-14.6367 l 142.0762,-2.375 -84.8808,-69.668 c 3.4806,-6.5537 6.4805,-13.0207 8.6269,-19.3066 1.0523,-3.0817 2.0328,-6.6268 3.0469,-9.9766 z" />
      <path
         style="display:none;fill:#123456;stroke:#123456;stroke-width:65.3136;stroke-linecap:round;stroke-linejoin:round;-inkscape-stroke:none;paint-order:fill markers stroke;stop-color:#000000"
         d="M 880.93148,744.0449 C 763.91552,771.643 622.61323,916.25706 622.61323,916.25706 620.95257,833.21142 611.27974,749.4374 735.2135,677.80944 c -124.69479,-7.45678 -249.2876,-15.1175 -408.45194,46.36482 0,0 303.22641,-263.62224 490.14233,-280.39675 172.2122,-15.45493 264.94181,37.53343 264.94181,37.53343 -0.1923,-45.68323 -31.4577,-88.25915 -90.52179,-128.0552 0,0 295.85169,97.14532 333.38509,194.29065 37.5334,97.14533 28.702,167.79647 28.702,167.79647 l -243.7525,34.92308 c 0,0 -111.71105,-33.81914 -228.72702,-6.22104 z"
         id="path1637"
         sodipodi:nodetypes="zcccsccsccz"
         inkscape:label="top hair" />
      <path
         id="path13483"
         style="display:inline;opacity:1;fill:#ffff00;stroke:#ffff00;stroke-width:65.3136;stroke-linecap:round;stroke-linejoin:round;stroke-miterlimit:4;stroke-dasharray:6.53136, 6.53136;stroke-dashoffset:0;stroke-opacity:1;paint-order:fill markers stroke;stop-color:#000000"
         inkscape:label="rightear"
         d="m 1707.884,225.39593 c -72.9338,-31.9682 -331.2021,165.27716 -389.8886,233.3299 -52.251,60.59024 -195.9432,207.80334 -236.7148,249.49979 -203.54715,309.02428 -9.2493,380.87858 76.884,468.39218 134.7481,-69.0237 396.9028,-223.80835 492.2008,-425.43758 130.4744,-276.05459 104.8145,-505.05364 57.5186,-525.78429 z"
         sodipodi:nodetypes="ssccss"
         inkscape:transform-center-x="-220.05563"
         inkscape:transform-center-y="-256.21292" />
      <g
         id="g13003"
         inkscape:label="face"
         style="stroke-width:1.02053"
         transform="translate(-23.78329,36.821688)">
        <path
           style="opacity:1;fill:none;fill-opacity:1;stroke:#6a6a1c;stroke-width:65.3136;stroke-linecap:round;stroke-linejoin:round;stroke-miterlimit:4;stroke-dasharray:none;stroke-dashoffset:0;stroke-opacity:1;paint-order:fill markers stroke;stop-color:#000000"
           d="m 83.898236,1201.0695 68.443294,6.6235 -37.53342,39.7413"
           id="path2163"
           inkscape:label="left nostril" />
        <path
           style="opacity:1;fill:none;fill-opacity:1;stroke:#6a6a1c;stroke-width:65.3136;stroke-linecap:round;stroke-linejoin:round;stroke-miterlimit:4;stroke-dasharray:none;stroke-dashoffset:0;stroke-opacity:1;paint-order:fill markers stroke;stop-color:#000000"
           d="m 401.82839,1251.85 -59.6119,-44.157 121.43166,-17.6628"
           id="path2198"
           inkscape:label="right nostril" />
        <path
           style="opacity:1;fill:none;fill-opacity:1;stroke:#6a6a1c;stroke-width:65.3136;stroke-linecap:round;stroke-linejoin:round;stroke-miterlimit:4;stroke-dasharray:none;stroke-dashoffset:0;stroke-opacity:1;paint-order:fill markers stroke;stop-color:#000000"
           d="m 132.4709,1346.7875 90.52178,-72.859 c 0,0 227.99027,157.1936 304.17428,154.6413 131.8052,-4.4157 125.46854,-93.7361 125.46854,-93.7361"
           id="path2200"
           sodipodi:nodetypes="ccsc"
           inkscape:label="mouf" />
        <path
           style="opacity:1;fill:#ffffff;fill-opacity:1;stroke:#6a6a1c;stroke-width:65.3136;stroke-linecap:round;stroke-linejoin:round;stroke-miterlimit:4;stroke-dasharray:none;stroke-dashoffset:0;stroke-opacity:1;paint-order:fill markers stroke;stop-color:#000000"
           d="m 222.99268,1530.0389 -90.52178,-183.2514 90.52178,-72.859 103.76887,66.2354 z"
           id="path2202"
           sodipodi:nodetypes="ccccc"
           inkscape:label="toof" />
      </g>
      <g
         id="g12993"
         inkscape:label="right eye"
         style="stroke-width:1.02053">
        <path
           style="opacity:1;fill:#6a6a1c;fill-opacity:1;stroke:#6a6a1c;stroke-width:65.3136;stroke-linecap:round;stroke-linejoin:round;stroke-miterlimit:4;stroke-dasharray:none;stroke-dashoffset:0;stroke-opacity:1;paint-order:fill markers stroke;stop-color:#000000"
           d="m 661.97569,1226.0485 53.36716,-115.5008 86.53085,168.711 z"
           id="path7852"
           inkscape:label="eyenub"
           sodipodi:nodetypes="cccc" />
        <path
           id="path1915"
           style="opacity:1;fill:#fefefe;stroke:#6a6a1c;stroke-width:65.3136;stroke-linecap:round;stroke-linejoin:round;paint-order:fill markers stroke;stop-color:#000000"
           inkscape:label="righteye"
           d="m 1150.289,1075.2222 c 0,120.7167 -151.8603,218.5769 -272.57702,218.5769 -120.71671,0 -164.57695,-71.8602 -164.57699,-192.5769 -2e-5,-120.71675 97.86024,-244.57702 218.57699,-244.57701 120.71672,-2e-5 218.57702,97.86025 218.57702,218.57701 z"
           sodipodi:nodetypes="sssss" />
        <path
           style="opacity:1;fill:#ffffff;fill-opacity:1;stroke:#6a6a1c;stroke-width:48.9852;stroke-linecap:round;stroke-linejoin:round;stroke-miterlimit:4;stroke-dasharray:none;stroke-dashoffset:0;stroke-opacity:1;paint-order:fill markers stroke;stop-color:#000000"
           d="M 896.90335,957.84079 V 1147.7157"
           id="path2350"
           inkscape:label="pupil right" />
        <path
           id="path1749"
           style="fill:#808000;stroke:#6a6a1c;stroke-width:65.3136;stroke-linecap:round;stroke-linejoin:round;-inkscape-stroke:none;paint-order:fill markers stroke;stop-color:#000000"
           d="m 925.63867,1159.8789 a 181.24155,186.60266 0 0 0 -159.73047,99.4063 c 25.91815,22.4745 62.42395,34.5136 111.80469,34.5136 62.20101,0 132.62321,-26.0259 186.32621,-67.7285 a 181.24155,186.60266 0 0 0 -138.40043,-66.1914 z"
           inkscape:label="rightlid" />
      </g>
      <path
         style="opacity:1;fill:none;fill-opacity:1;stroke:#ffff00;stroke-width:32.6568;stroke-linecap:round;stroke-linejoin:round;stroke-miterlimit:4;stroke-dasharray:none;stroke-dashoffset:0;stroke-opacity:1;paint-order:fill markers stroke;stop-color:#000000"
         d="M 84.004699,492.69358 C 362.03868,545.96981 608.87094,648.56817 795.19414,846.81623"
         id="path6280"
         sodipodi:nodetypes="cc"
         inkscape:label="eyelash right big"
         inkscape:transform-center-x="273.80273"
         inkscape:transform-center-y="-90.356183" />
      <path
         style="display:inline;fill:none;fill-opacity:1;stroke:#ffff00;stroke-width:32.6568;stroke-linecap:round;stroke-linejoin:round;stroke-miterlimit:4;stroke-dasharray:none;stroke-dashoffset:0;stroke-opacity:1;paint-order:fill markers stroke;stop-color:#000000"
         d="m 413.99374,432.42396 c 148.09091,85.84336 318.59225,255.13929 424.10407,375.37452"
         id="path6280-0"
         sodipodi:nodetypes="cc"
         inkscape:label="eyelash right small"
         inkscape:transform-center-x="114.43621"
         inkscape:transform-center-y="-155.66233" />
    </g>
  </g>
  <g
     id="layer2"
     inkscape:label="wall"
     style="display:inline;opacity:1;stroke:#291c1c;stroke-opacity:1"
     transform="translate(37.468429,3.1223691)">
    <rect
       style="fill:#b95a1b;fill-opacity:1;stroke:#291c1c;stroke-width:96;stroke-linecap:round;stroke-linejoin:round;paint-order:fill markers stroke;stop-color:#000000;stroke-opacity:1"
       id="rect1177"
       width="761.85803"
       height="1879.5823"
       x="1261.4371"
       y="-81.097717" />
    <path
       style="fill:#000000;fill-opacity:1;stroke:#291c1c;stroke-width:96;stroke-linecap:round;stroke-linejoin:round;paint-order:fill markers stroke;stop-color:#000000;stroke-opacity:1"
       d="m 1287.7785,212.3211 h 702.629"
       id="path1554" />
    <path
       style="fill:#000000;fill-opacity:1;stroke:#291c1c;stroke-width:96;stroke-linecap:round;stroke-linejoin:round;paint-order:fill markers stroke;stop-color:#000000;stroke-opacity:1"
       d="m 1275.4397,530.80276 h 702.629"
       id="path1554-0" />
    <path
       style="fill:#000000;fill-opacity:1;stroke:#291c1c;stroke-width:96;stroke-linecap:round;stroke-linejoin:round;paint-order:fill markers stroke;stop-color:#000000;stroke-opacity:1"
       d="m 1267.4348,849.28436 h 702.629"
       id="path1554-8" />
    <path
       style="fill:#000000;fill-opacity:1;stroke:#291c1c;stroke-width:96;stroke-linecap:round;stroke-linejoin:round;paint-order:fill markers stroke;stop-color:#000000;stroke-opacity:1"
       d="m 1275.4398,1167.766 h 702.629"
       id="path1554-4" />
    <path
       style="fill:#000000;fill-opacity:1;stroke:#291c1c;stroke-width:96;stroke-linecap:round;stroke-linejoin:round;paint-order:fill markers stroke;stop-color:#000000;stroke-opacity:1"
       d="m 1287.9292,1486.2476 h 702.629"
       id="path1554-49" />
    <path
       style="fill:#000000;fill-opacity:1;stroke:#291c1c;stroke-width:95.9998;stroke-linecap:round;stroke-linejoin:round;paint-order:fill markers stroke;stop-color:#000000;stroke-opacity:1"
       d="M 1489.8299,-59.43644 V 193.58688"
       id="path1730" />
    <path
       style="fill:#000000;fill-opacity:1;stroke:#291c1c;stroke-width:95.9998;stroke-linecap:round;stroke-linejoin:round;paint-order:fill markers stroke;stop-color:#000000;stroke-opacity:1"
       d="M 1489.8299,560.40954 V 813.43285"
       id="path1730-2" />
    <path
       style="fill:#000000;fill-opacity:1;stroke:#291c1c;stroke-width:95.9998;stroke-linecap:round;stroke-linejoin:round;paint-order:fill markers stroke;stop-color:#000000;stroke-opacity:1"
       d="m 1489.8299,1194.2505 v 253.0233"
       id="path1730-8" />
    <path
       style="fill:#000000;fill-opacity:1;stroke:#291c1c;stroke-width:95.9998;stroke-linecap:round;stroke-linejoin:round;paint-order:fill markers stroke;stop-color:#000000;stroke-opacity:1"
       d="M 1767.2609,239.55825 V 492.58157"
       id="path1730-0" />
    <path
       style="fill:#000000;fill-opacity:1;stroke:#291c1c;stroke-width:95.9998;stroke-linecap:round;stroke-linejoin:round;paint-order:fill markers stroke;stop-color:#000000;stroke-opacity:1"
       d="M 1767.2609,859.40423 V 1112.4275"
       id="path1730-2-6" />
    <path
       style="fill:#000000;fill-opacity:1;stroke:#291c1c;stroke-width:95.9998;stroke-linecap:round;stroke-linejoin:round;paint-order:fill markers stroke;stop-color:#000000;stroke-opacity:1"
       d="m 1767.2609,1493.2452 v 253.0233"
       id="path1730-8-6" />
  </g>
  <g
     id="layer2-8"
     inkscape:label="hand"
     transform="matrix(1.1253617,0.25831202,-0.19432328,1.4959322,1440.8665,-828.6328)"
     style="display:inline;fill:none;fill-opacity:1;stroke:#888800;stroke-width:0.759483;stroke-opacity:1">
    <path
       style="fill:none;fill-opacity:1;stroke:#aaaa00;stroke-width:72.9103;stroke-linecap:round;stroke-linejoin:round;stroke-miterlimit:4;stroke-dasharray:none;stroke-opacity:1;paint-order:fill markers stroke;stop-color:#000000"
       d="m 286.70996,1468.2104 c -73.56485,10.8388 -143.56694,27.3097 -197.215489,28.9421"
       id="path20257"
       sodipodi:nodetypes="cc" />
    <path
       style="fill:none;fill-opacity:1;stroke:#aaaa00;stroke-width:72.9103;stroke-linecap:round;stroke-linejoin:round;stroke-miterlimit:4;stroke-dasharray:none;stroke-opacity:1;paint-order:fill markers stroke;stop-color:#000000"
       d="m 83.585394,1562.0096 c 60.616216,-4.3427 134.610426,-26.373 195.933746,-36.5553"
       id="path20259"
       sodipodi:nodetypes="cc" />
    <path
       style="fill:none;fill-opacity:1;stroke:#aaaa00;stroke-width:72.9103;stroke-linecap:round;stroke-linejoin:round;stroke-miterlimit:4;stroke-dasharray:none;stroke-opacity:1;paint-order:fill markers stroke;stop-color:#000000"
       d="m 71.288958,1621.58 c 55.722662,-3.4551 127.836852,-15.1215 196.228562,-36.85"
       id="path20261"
       sodipodi:nodetypes="cc" />
    <path
       style="fill:#aaaa00;fill-opacity:1;stroke:#aaaa00;stroke-width:72.9103;stroke-linecap:round;stroke-linejoin:round;stroke-miterlimit:4;stroke-dasharray:none;stroke-opacity:1;paint-order:fill markers stroke;stop-color:#000000"
       d="m 89.494471,1497.1525 c 0,0 -60.322302,8.5795 -56.134751,70.0165 4.187558,61.437 37.929238,54.411 37.929238,54.411 l 18.205513,-124.4275"
       id="path20376"
       sodipodi:nodetypes="cscc" />
  </g>
</svg>
