<?xml version="1.0" encoding="UTF-8" standalone="no"?>
<!-- Created with Inkscape (http://www.inkscape.org/) -->

<svg
   version="1.1"
   id="svg824"
   width="1706.6667"
   height="1706.6667"
   viewBox="0 0 1706.6667 1706.6667"
   sodipodi:docname="ying_comfy_mug.svg"
   inkscape:version="1.1 (c68e22c387, 2021-05-23)"
   inkscape:export-filename="D:\Pictures\yingmotes\ying_mug.png"
   inkscape:export-xdpi="72"
   inkscape:export-ydpi="72"
   xmlns:inkscape="http://www.inkscape.org/namespaces/inkscape"
   xmlns:sodipodi="http://sodipodi.sourceforge.net/DTD/sodipodi-0.dtd"
   xmlns="http://www.w3.org/2000/svg"
   xmlns:svg="http://www.w3.org/2000/svg">
  <defs
     id="defs828" />
  <sodipodi:namedview
     id="namedview826"
     pagecolor="#ffffff"
     bordercolor="#666666"
     borderopacity="1.0"
     inkscape:pageshadow="2"
     inkscape:pageopacity="0.0"
     inkscape:pagecheckerboard="0"
     showgrid="false"
     inkscape:zoom="0.22646483"
     inkscape:cx="77.274692"
     inkscape:cy="695.47223"
     inkscape:window-width="1920"
     inkscape:window-height="1001"
     inkscape:window-x="-9"
     inkscape:window-y="-9"
     inkscape:window-maximized="1"
     inkscape:current-layer="layer1" />
  <g
     id="layer1"
     inkscape:label="Ying"
     style="display:inline"
     inkscape:groupmode="layer">
    <path
       style="display:none;fill:#123456;stroke:#123456;stroke-width:64;stroke-linecap:round;stroke-linejoin:round;-inkscape-stroke:none;paint-order:fill markers stroke;stop-color:#000000"
       d="m 1461.4118,865.09775 c 70.7982,131.45405 185.3824,239.02475 198.7064,401.82835 -29.438,-19.1346 -55.9321,-14.719 -79.4825,13.2471 91.0222,54.7003 58.5139,175.917 81.6903,267.1496 l -99.3531,6.6236 c 66.7588,58.9185 81.773,128.1858 90.5218,198.7063 l -494.5073,2.2079 c -24.3802,-41.4813 23.1146,-208.5632 66.2356,-227.0436 0,0 3.3791,-20.0154 -75.3533,-9.4549 28.7411,-247.2725 185.6948,-422.1763 311.5421,-653.26435 z"
       id="path3091"
       sodipodi:nodetypes="cccccccccc"
       inkscape:label="mane" />
    <path
       style="opacity:1;fill:#ffff00;fill-opacity:1;stroke:#ffff00;stroke-width:64;stroke-linecap:round;stroke-linejoin:round;stroke-miterlimit:4;stroke-dasharray:none;stroke-dashoffset:0;stroke-opacity:1;paint-order:fill markers stroke;stop-color:#000000"
       d="m 1057.292,1323.2762 -64.78487,239.5079 62.82177,-25.5214 -51.0427,200.2443 459.3838,-15.7054 c 0,0 -127.6066,-94.2326 -149.2016,-184.5389 -21.5949,-90.3062 51.0427,-253.25 51.0427,-253.25 z"
       id="path3340"
       inkscape:label="neck" />
    <g
       id="g12988"
       inkscape:label="head"
       transform="rotate(14.037417,864.68,1035.7055)">
      <path
         style="display:inline;fill:none;fill-opacity:1;stroke:#cccc00;stroke-width:32;stroke-linecap:round;stroke-linejoin:round;stroke-miterlimit:4;stroke-dasharray:none;stroke-dashoffset:0;stroke-opacity:1;paint-order:fill markers stroke;stop-color:#000000"
         d="m 413.41155,444.74627 c 146.95696,90.16728 298.17327,215.74277 401.65747,338.76616"
         id="path6280-0-6"
         sodipodi:nodetypes="cc"
         inkscape:label="eyelash left small" />
      <path
         style="display:inline;fill:none;fill-opacity:1;stroke:#cccc00;stroke-width:32;stroke-linecap:round;stroke-linejoin:round;stroke-miterlimit:4;stroke-dasharray:none;stroke-dashoffset:0;stroke-opacity:1;paint-order:fill markers stroke;stop-color:#000000"
         d="M 335.4722,249.78204 C 585.52839,386.40128 791.16802,560.24166 910.67117,806.26447"
         id="path6280-3"
         sodipodi:nodetypes="cc"
         inkscape:label="eyelash left big" />
      <g
         id="g12997"
         inkscape:label="left eye"
         transform="translate(199.1648,-65.887939)">
        <path
           id="path1915-9"
           style="display:inline;fill:#808000;fill-opacity:1;stroke:#6a6a1c;stroke-width:64;stroke-linecap:round;stroke-linejoin:round;paint-order:fill markers stroke;stop-color:#000000"
           inkscape:label="lefteye"
           d="m 792.61751,1048.7279 c 10e-6,120.7167 -155.86024,218.577 -276.57698,218.577 -120.71674,0 -160.57699,-55.8603 -160.57698,-176.577 0,-120.71673 97.86025,-260.57698 218.57698,-260.57698 120.71673,0 218.57698,97.86025 218.57698,218.57698 z"
           sodipodi:nodetypes="sssss" />
      </g>
      <path
         style="opacity:1;fill:#cccc00;fill-opacity:1;stroke:#cccc00;stroke-width:64;stroke-linecap:round;stroke-miterlimit:4;stroke-dasharray:none;stroke-dashoffset:0;stroke-opacity:1;paint-order:fill markers stroke;stop-color:#000000"
         d="m 939.23743,860.34461 c 0,0 -83.18079,-156.50647 -116.16321,-336.2372 -36.28394,-197.72166 -6.82394,-425.579269 59.11195,-444.458969 65.9359,-18.87971 215.61583,149.625709 273.26043,279.426169 57.6447,129.80044 90.5939,436.7095 90.5939,436.7095 z"
         id="path1640"
         inkscape:label="leftear"
         sodipodi:nodetypes="cssscc"
         inkscape:transform-center-x="4.5182473"
         inkscape:transform-center-y="-229.54228" />
      <path
         id="path1148"
         style="display:inline;opacity:1;fill:#ffff00;stroke:#ffff00;stroke-width:64;stroke-linecap:round;stroke-linejoin:round;stroke-miterlimit:4;stroke-dasharray:6.4, 6.4;stroke-dashoffset:0;stroke-opacity:1;paint-order:fill markers stroke;stop-color:#000000"
         inkscape:label="head"
         d="m 1498.2195,1087.6707 c 0,0 -0.1078,-10.8206 -0.9512,-28.418 -0.4217,-8.7987 -1.0259,-19.2912 -1.8945,-30.9726 -0.8686,-11.6814 -1.9997,-24.5525 -3.4727,-38.10554 -1.4729,-13.553 -3.2888,-27.7877 -5.5234,-42.2012 -2.2347,-14.41345 -4.8892,-29.0047 -8.043,-43.26755 -1.5769,-7.13143 -3.279,-14.18175 -5.1152,-21.08594 -1.8362,-6.90419 -3.8068,-13.66232 -5.9219,-20.21289 -2.1151,-6.55056 -4.3733,-12.89234 -6.7871,-18.96289 -2.4138,-6.07055 -4.9828,-11.86984 -7.7148,-17.33398 -2.7321,-5.46415 -5.9346,-10.78574 -9.5391,-15.96094 -3.6045,-5.1752 -7.6114,-10.20474 -11.9492,-15.08399 -4.3379,-4.87924 -9.0074,-9.60926 -13.9395,-14.18554 -4.9321,-4.57628 -10.1264,-8.99932 -15.5136,-13.26563 -5.3873,-4.2663 -10.9666,-8.37489 -16.67,-12.32422 -5.7033,-3.94932 -11.5298,-7.73794 -17.4101,-11.36328 -11.7607,-7.25067 -23.7371,-13.84709 -35.3711,-19.75976 -11.634,-5.91267 -22.9257,-11.14156 -33.3203,-15.66016 -10.3946,-4.5186 -19.8912,-8.32606 -27.9336,-11.39453 -16.085,-6.13693 -26.3535,-9.31836 -26.3535,-9.31836 -106.8313,-15.98813 -232.1746,6.96944 -312.62504,60.01367 -101.26734,66.76968 -136.88727,176.62945 -198.70703,211.95509 -61.81975,35.3255 -225.20029,77.27304 -280.39649,83.89654 -55.19621,6.6235 -183.25035,6.6246 -161.17187,123.6406 22.07848,117.016 112.59921,282.6048 377.54101,247.2793 264.94179,-35.3256 313.51517,-44.1575 536.50782,-88.3145 22.8973,-4.5341 53.8481,-18.3195 86.8281,-36.9472 l 213.8711,-11.4278 -92.9258,-75.2558 c 5.3578,-4.8405 10.5999,-9.7184 15.6328,-14.6367 l 142.0762,-2.375 -84.8808,-69.668 c 3.4806,-6.5537 6.4805,-13.0207 8.6269,-19.3066 1.0523,-3.0817 2.0328,-6.6268 3.0469,-9.9766 z" />
      <path
         style="display:none;fill:#123456;stroke:#123456;stroke-width:64;stroke-linecap:round;stroke-linejoin:round;-inkscape-stroke:none;paint-order:fill markers stroke;stop-color:#000000"
         d="m 1022.0915,653.63588 c -109.87896,48.79551 -221.94899,217.08061 -221.94899,217.08061 -17.01456,-81.30093 -42.03756,-161.83353 66.4838,-255.17836 -123.91817,15.76962 -247.7739,31.31993 -392.79546,121.22049 0,0 249.14803,-315.22722 429.7222,-366.33409 166.36935,-47.08654 267.30975,-12.19156 267.30975,-12.19156 -8.6509,-44.85706 -47.2616,-80.90488 -112.6755,-109.07175 0,0 308.7267,40.66328 363.6049,129.17516 54.8783,88.51187 59.2865,159.57624 59.2865,159.57624 l -233.0655,79.46929 c 0,0 -116.0423,-12.54154 -225.9217,36.25397 z"
         id="path1637"
         sodipodi:nodetypes="zcccsccsccz"
         inkscape:label="top hair" />
      <path
         id="path13483"
         style="display:inline;opacity:1;fill:#ffff00;stroke:#ffff00;stroke-width:64;stroke-linecap:round;stroke-linejoin:round;stroke-miterlimit:4;stroke-dasharray:6.4, 6.4;stroke-dashoffset:0;stroke-opacity:1;paint-order:fill markers stroke;stop-color:#000000"
         inkscape:label="rightear"
         d="m 1191.5931,29.080047 c -73.0939,31.221194 -108.6175,356.163653 -99.9779,446.044073 7.6921,80.02433 14.8825,286.68861 16.8693,345.27682 0,0 10.6928,-1.1078 27.8955,-1.78242 8.6013,-0.33727 18.8302,-0.56616 30.1642,-0.4938 11.334,0.0723 23.7721,0.44549 36.7935,1.31301 13.0214,0.86753 26.6262,2.22935 40.2897,4.27756 6.8317,1.02412 13.6782,2.21952 20.4743,3.61113 6.7963,1.39156 13.541,2.97834 20.1711,4.78556 6.63,1.80726 13.1443,3.83443 19.4775,6.10552 6.3333,2.27109 12.4854,4.78671 18.3912,7.56983 5.9057,2.78314 11.5662,5.83449 16.9138,9.17784 5.3476,3.34337 10.3831,6.97925 15.0419,10.93102 4.6588,3.95179 9.2993,8.27583 13.9036,12.91029 4.6043,4.63446 9.1721,9.57947 13.6903,14.77267 4.5182,5.19323 8.985,10.63409 13.3857,16.26206 4.4005,5.62799 8.7352,11.44301 12.9866,17.38182 8.5028,11.87763 16.6755,24.25333 24.3923,36.63043 7.7167,12.3772 14.9781,24.7545 21.6563,36.63954 6.6782,11.885 12.7743,23.2773 18.1616,33.6786 5.3873,10.4012 10.0645,19.8131 13.9084,27.7389 7.688,15.8517 12.0375,25.7602 12.0375,25.7602 42.9092,-146.13374 111.645,-444.59463 32.0702,-653.47206 C 1421.3421,148.22039 1238.9929,8.833792 1191.5931,29.080047 Z" />
      <g
         id="g13003"
         inkscape:label="face"
         transform="translate(199.1648,-65.887939)">
        <path
           style="opacity:1;fill:#ffff00;fill-opacity:1;stroke:none;stroke-width:64;stroke-linecap:round;stroke-linejoin:round;stroke-miterlimit:4;stroke-dasharray:none;stroke-dashoffset:0;stroke-opacity:1;paint-order:fill markers stroke;stop-color:#000000"
           d="m 132.4709,1346.7875 90.52178,-72.859 c 0,0 146.93476,106.6315 222.99268,101.561 66.23545,-4.4157 119.2238,-37.5334 119.2238,-37.5334 l -32.92171,-235.8975 -431.65198,43.5528 -7.569527,162.8166 z"
           id="path3264"
           sodipodi:nodetypes="ccsc"
           inkscape:label="mouf" />
        <path
           style="opacity:1;fill:none;fill-opacity:1;stroke:#6a6a1c;stroke-width:64;stroke-linecap:round;stroke-linejoin:round;stroke-miterlimit:4;stroke-dasharray:none;stroke-dashoffset:0;stroke-opacity:1;paint-order:fill markers stroke;stop-color:#000000"
           d="m 83.898236,1201.0695 68.443294,6.6235 -37.53342,39.7413"
           id="path2163"
           inkscape:label="left nostril" />
        <path
           style="opacity:1;fill:none;fill-opacity:1;stroke:#6a6a1c;stroke-width:64;stroke-linecap:round;stroke-linejoin:round;stroke-miterlimit:4;stroke-dasharray:none;stroke-dashoffset:0;stroke-opacity:1;paint-order:fill markers stroke;stop-color:#000000"
           d="m 401.82839,1251.85 -59.6119,-44.157 121.43166,-17.6628"
           id="path2198"
           inkscape:label="right nostril" />
        <path
           style="opacity:1;fill:#ffff00;fill-opacity:1;stroke:#6a6a1c;stroke-width:64;stroke-linecap:round;stroke-linejoin:round;stroke-miterlimit:4;stroke-dasharray:none;stroke-dashoffset:0;stroke-opacity:1;paint-order:fill markers stroke;stop-color:#000000"
           d="m 132.4709,1346.7875 90.52178,-72.859 c 0,0 146.93476,106.6315 222.99268,101.561 28.81892,-1.9213 55.13003,-9.2761 75.6599,-16.9725 13.91355,-5.2161 25.17173,-10.589 32.75557,-14.5338 6.94474,-3.6124 10.80833,-6.0271 10.80833,-6.0271"
           id="path2200"
           sodipodi:nodetypes="ccsssc"
           inkscape:label="mouf" />
        <path
           style="opacity:1;fill:#ffffff;fill-opacity:1;stroke:#6a6a1c;stroke-width:64;stroke-linecap:round;stroke-linejoin:round;stroke-miterlimit:4;stroke-dasharray:none;stroke-dashoffset:0;stroke-opacity:1;paint-order:fill markers stroke;stop-color:#000000"
           d="m 222.99268,1530.0389 -90.52178,-183.2514 90.52178,-72.859 103.76887,66.2354 z"
           id="path2202"
           sodipodi:nodetypes="ccccc"
           inkscape:label="toof" />
      </g>
      <g
         id="g12993"
         inkscape:label="right eye"
         transform="translate(199.1648,-65.887939)"
         style="fill:#808000;fill-opacity:1">
        <path
           style="opacity:1;fill:#808000;fill-opacity:1;stroke:#6a6a1c;stroke-width:64;stroke-linecap:round;stroke-linejoin:round;stroke-miterlimit:4;stroke-dasharray:none;stroke-dashoffset:0;stroke-opacity:1;paint-order:fill markers stroke;stop-color:#000000"
           d="m 661.97569,1226.0485 53.36716,-115.5008 86.53085,168.711 z"
           id="path7852"
           inkscape:label="eyenub"
           sodipodi:nodetypes="cccc" />
        <path
           id="path1915"
           style="opacity:1;fill:#808000;fill-opacity:1;stroke:#6a6a1c;stroke-width:64;stroke-linecap:round;stroke-linejoin:round;paint-order:fill markers stroke;stop-color:#000000"
           inkscape:label="righteye"
           d="m 1150.289,1075.2222 c 0,120.7167 -151.8603,218.5769 -272.57702,218.5769 -120.71671,0 -164.57695,-71.8602 -164.57699,-192.5769 -2e-5,-120.71675 97.86024,-244.57702 218.57699,-244.57701 120.71672,-2e-5 218.57702,97.86025 218.57702,218.57701 z"
           sodipodi:nodetypes="sssss" />
        <path
           id="path1749"
           style="display:inline;fill:#808000;fill-opacity:1;stroke:#6a6a1c;stroke-width:64;stroke-linecap:round;stroke-linejoin:round;-inkscape-stroke:none;paint-order:fill markers stroke;stop-color:#000000"
           d="m 936.06526,1099.2639 c -111.90142,23.5165 -184.88263,63.0713 -214.38468,110.5509 39.96804,93.9647 177.10005,86.8811 225.00615,74.9035 60.34347,-15.0872 171.34587,-89.0116 196.72947,-172.4815 -38.4856,-7.457 -95.4495,-36.4894 -207.35094,-12.9729 z"
           inkscape:label="rightlid"
           sodipodi:nodetypes="zcscz" />
      </g>
      <path
         style="opacity:1;fill:none;fill-opacity:1;stroke:#ffff00;stroke-width:32;stroke-linecap:round;stroke-linejoin:round;stroke-miterlimit:4;stroke-dasharray:none;stroke-dashoffset:0;stroke-opacity:1;paint-order:fill markers stroke;stop-color:#000000"
         d="M 621.26279,59.213431 C 798.26492,282.51405 919.8535,522.77297 933.97934,795.91888"
         id="path6280"
         sodipodi:nodetypes="cc"
         inkscape:label="eyelash right big" />
      <path
         style="display:inline;fill:none;fill-opacity:1;stroke:#ffff00;stroke-width:32;stroke-linecap:round;stroke-linejoin:round;stroke-miterlimit:4;stroke-dasharray:none;stroke-dashoffset:0;stroke-opacity:1;paint-order:fill markers stroke;stop-color:#000000"
         d="M 910.73277,230.40487 C 968.06843,393.00594 1006.4075,585.79 1009.2829,746.52415"
         id="path6280-0"
         sodipodi:nodetypes="cc"
         inkscape:label="eyelash right small" />
      <g
         id="layer2-4"
         inkscape:label="hand"
         transform="matrix(-1.1033309,0.42043227,0.42043227,1.1033309,-125.83591,-25.435361)"
         style="display:inline;fill:none;fill-opacity:1;stroke:#888800;stroke-width:0.84694;stroke-opacity:1">
        <path
           style="fill:none;fill-opacity:1;stroke:#aaaa00;stroke-width:81.3062;stroke-linecap:round;stroke-linejoin:round;stroke-miterlimit:4;stroke-dasharray:none;stroke-opacity:1;paint-order:fill markers stroke;stop-color:#000000"
           d="m 83.265067,1455.261 c 0,0 -46.374345,55.1899 -58.970242,72.2879"
           id="path15392-5"
           sodipodi:nodetypes="cc" />
        <path
           style="fill:none;fill-opacity:1;stroke:#aaaa00;stroke-width:81.3062;stroke-linecap:round;stroke-linejoin:round;stroke-miterlimit:4;stroke-dasharray:none;stroke-opacity:1;paint-order:fill markers stroke;stop-color:#000000"
           d="m 204.58178,1487.2593 -115.087309,9.8932"
           id="path20257-6"
           sodipodi:nodetypes="cc" />
        <path
           style="fill:none;fill-opacity:1;stroke:#aaaa00;stroke-width:81.3062;stroke-linecap:round;stroke-linejoin:round;stroke-miterlimit:4;stroke-dasharray:none;stroke-opacity:1;paint-order:fill markers stroke;stop-color:#000000"
           d="M 83.585394,1562.0096 207.09774,1538.9405"
           id="path20259-2"
           sodipodi:nodetypes="cc" />
        <path
           style="fill:none;fill-opacity:1;stroke:#aaaa00;stroke-width:81.3062;stroke-linecap:round;stroke-linejoin:round;stroke-miterlimit:4;stroke-dasharray:none;stroke-opacity:1;paint-order:fill markers stroke;stop-color:#000000"
           d="M 71.288958,1621.58 198.01288,1607.2199"
           id="path20261-9"
           sodipodi:nodetypes="cc" />
        <path
           style="fill:none;fill-opacity:1;stroke:#aaaa00;stroke-width:81.3062;stroke-linecap:round;stroke-linejoin:round;stroke-miterlimit:4;stroke-dasharray:none;stroke-opacity:1;paint-order:fill markers stroke;stop-color:#000000"
           d="m 89.494447,1497.1525 c 0,0 -88.0865714,16.5046 -83.8990211,77.9416 4.1875585,61.437 65.6935321,46.4859 65.6935321,46.4859 l 18.205513,-124.4275"
           id="path20376-8"
           sodipodi:nodetypes="cscc" />
      </g>
      <g
         id="g3600"
         inkscape:label="mug"
         transform="translate(17.136824,68.54133)">
        <path
           style="fill:none;stroke:#000000;stroke-width:64;stroke-linecap:round;stroke-linejoin:round;paint-order:fill markers stroke;stop-color:#000000"
           d="m 269.84613,1404.9183 c 0,0 10.36094,-43.3494 150.33251,-74.9897 141.19607,-31.9172 163.48602,-6.8856 163.48602,-6.8856 l -4.11061,107.2873 -241.19565,72.9803 z"
           id="path3635"
           sodipodi:nodetypes="cscccc" />
        <path
           style="display:inline;fill:none;stroke:#aa4400;stroke-width:96;stroke-linecap:round;stroke-linejoin:round;stroke-miterlimit:4;stroke-dasharray:none;paint-order:fill markers stroke;stop-color:#000000"
           d="m 293.28744,1438.5894 c 0,0 40.12914,-45.8941 130.75945,-67.2513 100.84237,-23.7636 152.93835,-3.1111 152.93835,-3.1111 l -1.57583,115.7569 -210.95685,65.4199 z"
           id="path3635-0"
           sodipodi:nodetypes="cscccc" />
        <path
           style="display:inline;fill:#ffffff;fill-opacity:1;stroke:#6a6a1c;stroke-width:64;stroke-linecap:round;stroke-linejoin:round;stroke-miterlimit:4;stroke-dasharray:none;stroke-dashoffset:0;stroke-opacity:1;paint-order:fill markers stroke;stop-color:#000000"
           d="m 396.68095,1395.4738 -84.50657,-186.1019 92.84628,-69.8727 101.55701,69.5792 z"
           id="path2202-4"
           sodipodi:nodetypes="ccccc"
           inkscape:label="toof" />
        <path
           id="rect953"
           style="fill:#ffffff;stroke:#000000;stroke-width:63.9999;stroke-linecap:round;stroke-linejoin:round;paint-order:fill markers stroke;stop-color:#000000"
           d="m 265.14339,1408.8651 71.30664,285.2016 4.1404,16.5603 c 10.44944,41.794 54.10971,66.628 97.89259,55.6812 l 161.91509,-40.4823 c 43.7829,-10.9466 70.61835,-53.406 60.16891,-95.2001 l -4.1404,-16.5602 -71.30663,-285.2017 c -133.90214,83.1025 -224.58393,76.6725 -319.9766,80.0012 z"
           sodipodi:nodetypes="ccscssccc"
           inkscape:label="mug" />
        <path
           style="fill:none;stroke:#000000;stroke-width:64;stroke-linecap:round;stroke-linejoin:round;paint-order:fill markers stroke;stop-color:#000000"
           d="m 284.40971,1487.7885 c 0,0 -113.04234,-40.0187 -75.50056,116.7365 20.56782,85.8807 131.73077,108.1647 131.73077,108.1647"
           id="path2948"
           sodipodi:nodetypes="csc" />
        <path
           style="opacity:0.481953;fill:none;stroke:#cccccc;stroke-width:64;stroke-linecap:round;stroke-linejoin:round;paint-order:fill markers stroke;stop-color:#000000"
           d="m 155.61353,863.41924 c 0,0 102.81255,1.60434 126.37531,77.64229 23.56276,76.03797 -129.04828,139.22797 -105.7533,214.19487 23.29502,74.9671 99.33379,92.3686 99.33379,92.3686"
           id="path4227" />
        <path
           style="display:inline;opacity:0.481953;fill:none;stroke:#e6e6e6;stroke-width:64;stroke-linecap:round;stroke-linejoin:round;paint-order:fill markers stroke;stop-color:#000000"
           d="m 361.50188,649.22229 c 0,0 -89.95993,49.80166 -74.96484,127.98171 14.99511,78.18007 179.38772,62.11226 194.11501,139.22124 14.72737,77.10917 -44.17463,128.24886 -44.17463,128.24886"
           id="path4227-1" />
      </g>
      <g
         id="layer2"
         inkscape:label="hand"
         transform="matrix(-1.0800257,0.47712354,0.47712354,1.0800257,44.405466,-22.910177)"
         style="display:inline;fill:none;fill-opacity:1;stroke:#888800;stroke-width:0.84694;stroke-opacity:1">
        <path
           style="fill:none;fill-opacity:1;stroke:#aaaa00;stroke-width:81.3062;stroke-linecap:round;stroke-linejoin:round;stroke-miterlimit:4;stroke-dasharray:none;stroke-opacity:1;paint-order:fill markers stroke;stop-color:#000000"
           d="m 83.265067,1455.261 c 0,0 -46.374345,55.1899 -58.970242,72.2879"
           id="path15392"
           sodipodi:nodetypes="cc" />
        <path
           style="fill:none;fill-opacity:1;stroke:#aaaa00;stroke-width:81.3062;stroke-linecap:round;stroke-linejoin:round;stroke-miterlimit:4;stroke-dasharray:none;stroke-opacity:1;paint-order:fill markers stroke;stop-color:#000000"
           d="m 277.63359,1471.865 c -59.8589,30.7091 -127.24835,42.2017 -188.139119,25.2875"
           id="path20257"
           sodipodi:nodetypes="cc" />
        <path
           style="fill:none;fill-opacity:1;stroke:#aaaa00;stroke-width:81.3062;stroke-linecap:round;stroke-linejoin:round;stroke-miterlimit:4;stroke-dasharray:none;stroke-opacity:1;paint-order:fill markers stroke;stop-color:#000000"
           d="m 83.585394,1562.0096 c 61.353666,-0.072 121.637446,-17.8548 182.068076,-33.2069"
           id="path20259"
           sodipodi:nodetypes="cc" />
        <path
           style="fill:none;fill-opacity:1;stroke:#aaaa00;stroke-width:81.3062;stroke-linecap:round;stroke-linejoin:round;stroke-miterlimit:4;stroke-dasharray:none;stroke-opacity:1;paint-order:fill markers stroke;stop-color:#000000"
           d="m 71.288958,1621.58 c 57.429262,0.9097 115.240372,-0.2554 179.011012,-33.8028"
           id="path20261"
           sodipodi:nodetypes="cc" />
        <path
           style="fill:none;fill-opacity:1;stroke:#aaaa00;stroke-width:81.3062;stroke-linecap:round;stroke-linejoin:round;stroke-miterlimit:4;stroke-dasharray:none;stroke-opacity:1;paint-order:fill markers stroke;stop-color:#000000"
           d="m 89.494447,1497.1525 c 0,0 -88.0865714,16.5046 -83.8990211,77.9416 4.1875585,61.437 65.6935321,46.4859 65.6935321,46.4859 l 18.205513,-124.4275"
           id="path20376"
           sodipodi:nodetypes="cscc" />
      </g>
      <g
         id="g7978"
         transform="matrix(0.77053083,0.00353629,-0.00458936,0.99998947,482.07231,-320.95296)"
         inkscape:label="blankie"
         style="display:inline;stroke-width:1.1392">
        <path
           style="fill:#8800aa;stroke:#660080;stroke-width:72.9093;stroke-linecap:round;stroke-linejoin:round;stroke-miterlimit:4;stroke-dasharray:none;stroke-opacity:1;paint-order:fill markers stroke;stop-color:#000000"
           d="m 480.40661,1868.8792 c 29.27455,74.5019 -197.75302,41.0936 -210.26904,30.7791 -65.47051,-53.9545 142.23992,279.1736 173.52757,242.4255 L 1632.3944,1910.5126 c -25.9465,-107.7024 -52.1902,-122.6035 -216.1747,-269.9601 0,0 -189.3294,106.9611 -420.2668,137.4499 -230.9374,30.4887 -515.54629,90.8768 -515.54629,90.8768 z"
           id="path7226"
           sodipodi:nodetypes="cscccsc" />
        <path
           style="fill:#8800aa;stroke:#660080;stroke-width:72.9093;stroke-linecap:round;stroke-linejoin:round;stroke-miterlimit:4;stroke-dasharray:none;stroke-opacity:1;paint-order:fill markers stroke;stop-color:#000000"
           d="m 459.518,1901.2148 c -48.68646,-17.7087 -59.49353,-99.5885 -12.20465,-119.2024 61.02868,-25.3127 166.2388,1.764 503.57795,-98.1731 325.7699,-96.5097 304.5698,-109.6607 375.1825,-116.1606 33.7164,-3.1036 132.3445,36.3515 96.9766,112.3885 0,0 -76.4822,50.0024 -336.7947,119.1668 -269.04991,71.4859 -578.05124,119.6895 -626.7377,101.9808 z"
           id="path7894"
           sodipodi:nodetypes="zssscsz" />
      </g>
      <path
         id="path18343"
         style="display:inline;fill:#ffff00;stroke:#ffff00;stroke-width:64;stroke-linecap:round;stroke-linejoin:round;stroke-miterlimit:4;stroke-dasharray:6.4, 6.4;stroke-dashoffset:0;stroke-opacity:1;paint-order:fill markers stroke;stop-color:#000000"
         inkscape:label="head_line"
         d="m 754.44929,1400.7945 c 26.99958,1.7495 100.49787,-12.6137 132.03516,-19.0568 264.06685,-53.9496 277.91015,-78.6328 497.82845,-161.1033"
         sodipodi:nodetypes="csc" />
    </g>
  </g>
</svg>
