<?xml version="1.0" encoding="UTF-8" standalone="no"?>
<!-- Created with Inkscape (http://www.inkscape.org/) -->

<svg
   version="1.1"
   id="svg824"
   width="1706.6667"
   height="1706.6667"
   viewBox="0 0 1706.6667 1706.6667"
   sodipodi:docname="ying_confused.svg"
   inkscape:version="1.1 (c68e22c387, 2021-05-23)"
   inkscape:export-filename="D:\Pictures\yingmotes\ying_confused.png"
   inkscape:export-xdpi="72"
   inkscape:export-ydpi="72"
   xmlns:inkscape="http://www.inkscape.org/namespaces/inkscape"
   xmlns:sodipodi="http://sodipodi.sourceforge.net/DTD/sodipodi-0.dtd"
   xmlns="http://www.w3.org/2000/svg"
   xmlns:svg="http://www.w3.org/2000/svg">
  <defs
     id="defs828">
    <rect
       x="46.835537"
       y="1064.7279"
       width="593.25013"
       height="574.51592"
       id="rect14460" />
  </defs>
  <sodipodi:namedview
     id="namedview826"
     pagecolor="#ffffff"
     bordercolor="#666666"
     borderopacity="1.0"
     inkscape:pageshadow="2"
     inkscape:pageopacity="0.0"
     inkscape:pagecheckerboard="0"
     showgrid="false"
     inkscape:zoom="0.32026963"
     inkscape:cx="499.57906"
     inkscape:cy="754.05214"
     inkscape:window-width="1920"
     inkscape:window-height="1001"
     inkscape:window-x="-9"
     inkscape:window-y="-9"
     inkscape:window-maximized="1"
     inkscape:current-layer="g12988" />
  <g
     id="layer1"
     inkscape:label="Ying"
     style="display:inline"
     inkscape:groupmode="layer">
    <path
       style="display:inline;fill:#6dadfb;stroke:#6dadfb;stroke-width:64;stroke-linecap:round;stroke-linejoin:round;-inkscape-stroke:none;paint-order:fill markers stroke;stop-color:#000000"
       d="m 1298.031,865.09775 c 70.7982,131.45402 185.3824,239.02475 198.7064,401.82835 -29.438,-19.1346 -55.9321,-14.719 -79.4825,13.2471 91.0222,54.7003 58.5139,175.917 81.6903,267.1496 l -99.3531,6.6236 c 66.7588,58.9185 81.773,128.1858 90.5218,198.7063 l -494.50725,2.2079 c -24.3802,-41.4813 23.11455,-208.5632 66.23555,-227.0436 0,0 3.3791,-20.0154 -75.35325,-9.4549 C 1015.23,1271.0896 1172.1837,1096.1858 1298.031,865.09775 Z"
       id="path3091"
       sodipodi:nodetypes="cccccccccc"
       inkscape:label="mane" />
    <path
       style="opacity:1;fill:#b79879;fill-opacity:1;stroke:#b79879;stroke-width:64;stroke-linecap:round;stroke-linejoin:round;stroke-miterlimit:4;stroke-dasharray:none;stroke-dashoffset:0;stroke-opacity:1;paint-order:fill markers stroke;stop-color:#000000"
       d="m 848.0933,1338.888 -170.94545,183.3053 106.5349,-0.5425 -38.55319,212.7338 465.62854,-0.094 c 0,0 -152.5855,-59.8865 -174.1805,-150.1928 -21.5949,-90.3062 119.7348,-284.4737 119.7348,-284.4737 z"
       id="path3340"
       inkscape:label="neck"
       sodipodi:nodetypes="cccccscc" />
    <g
       id="g12988"
       inkscape:label="head"
       inkscape:transform-center-x="-166.03022"
       inkscape:transform-center-y="-531.47196"
       transform="rotate(35.721316,997.3237,995.09923)"
       inkscape:groupmode="layer">
      <path
         style="display:inline;fill:none;fill-opacity:1;stroke:#b58765;stroke-width:32;stroke-linecap:round;stroke-linejoin:round;stroke-miterlimit:4;stroke-dasharray:none;stroke-dashoffset:0;stroke-opacity:1;paint-order:fill markers stroke;stop-color:#000000"
         d="m 96.355928,750.04929 c 172.380622,3.3773 366.357362,35.13579 517.876622,88.85401"
         id="path6280-0-6"
         sodipodi:nodetypes="cc"
         inkscape:label="eyelash left small"
         inkscape:transform-center-x="164.42517"
         inkscape:transform-center-y="-183.21914" />
      <path
         style="display:inline;fill:none;fill-opacity:1;stroke:#b58765;stroke-width:32;stroke-linecap:round;stroke-linejoin:round;stroke-miterlimit:4;stroke-dasharray:none;stroke-dashoffset:0;stroke-opacity:1;paint-order:fill markers stroke;stop-color:#000000"
         d="M -69.547232,621.35688 C 215.26218,612.60967 480.60573,658.44565 708.19934,810.13406"
         id="path6280-3"
         sodipodi:nodetypes="cc"
         inkscape:label="eyelash left big"
         inkscape:transform-center-x="147.66006"
         inkscape:transform-center-y="-268.13783" />
      <path
         style="opacity:1;fill:#b58765;fill-opacity:1;stroke:#b58765;stroke-width:64;stroke-linecap:round;stroke-miterlimit:4;stroke-dasharray:none;stroke-dashoffset:0;stroke-opacity:1;paint-order:fill markers stroke;stop-color:#000000"
         d="m 841.19021,982.4925 c 0,0 -155.81049,-84.47727 -282.61606,-216.04975 C 419.07539,621.69994 317.71885,415.51111 362.24102,363.34064 c 44.5222,-52.1705 262.38733,5.56111 382.15728,81.89084 119.76995,76.32975 316.8243,313.91843 316.8243,313.91843 z"
         id="path1640"
         inkscape:label="leftear"
         sodipodi:nodetypes="cssscc"
         inkscape:transform-center-x="-2.4809287"
         inkscape:transform-center-y="-288.19752" />
      <g
         id="g12997"
         inkscape:label="left eye">
        <path
           id="path1915-9"
           style="display:inline;fill:#6574c1;stroke:#3a332d;stroke-width:64;stroke-linecap:round;stroke-linejoin:round;paint-order:fill markers stroke;stop-color:#000000"
           inkscape:label="lefteye"
           d="m 792.61751,1048.7279 c 10e-6,120.7167 -155.86024,218.577 -276.57698,218.577 -120.71674,0 -160.57699,-55.8603 -160.57698,-176.577 0,-120.71673 97.86025,-260.57698 218.57698,-260.57698 120.71673,0 218.57698,97.86025 218.57698,218.57698 z"
           sodipodi:nodetypes="sssss" />
        <path
           style="opacity:1;fill:#ffffff;fill-opacity:1;stroke:#3a332d;stroke-width:48;stroke-linecap:round;stroke-linejoin:round;stroke-miterlimit:4;stroke-dasharray:none;stroke-dashoffset:0;stroke-opacity:1;paint-order:fill markers stroke;stop-color:#000000"
           d="M 498.97372,962.62186 V 1132.6262"
           id="path2372"
           inkscape:label="pupil left" />
      </g>
      <path
         id="path19479-9-3"
         style="display:inline;fill:#00ff00;stroke:#000000;stroke-width:128;stroke-linecap:round;stroke-linejoin:round;stroke-miterlimit:4;stroke-dasharray:12.8, 12.8;stroke-dashoffset:0;paint-order:markers stroke fill;stop-color:#000000"
         d="m 1696.4615,1102.6036 a 78.869195,76.630401 67.473237 0 1 25.3309,108.5331 78.869195,76.630401 67.473237 0 1 -105.8536,23.6445 78.869195,76.630401 67.473237 0 1 -25.3309,-108.5331 78.869195,76.630401 67.473237 0 1 105.8536,-23.6445 z M 1306.8839,827.64165 a 61.00385,59.272185 67.473239 0 0 -8.5291,4.2252 61.00385,59.272185 67.473239 0 0 -8.9368,3.29869 c -5.6666,2.87177 -11.1501,6.09516 -16.4244,9.65675 a 61.00385,59.272185 67.473239 0 0 -7.2468,6.21587 61.00385,59.272185 67.473239 0 0 -7.8265,5.38249 c -4.7845,4.17474 -9.2987,8.6318 -13.5279,13.34517 a 61.00385,59.272185 67.473239 0 0 -5.5303,7.79064 61.00385,59.272185 67.473239 0 0 -6.318,7.15156 c -3.6673,5.25096 -7.0145,10.73023 -10.0244,16.41401 a 61.00385,59.272185 67.473239 0 0 -3.533,8.98811 61.00385,59.272185 67.473239 0 0 -4.434,8.55467 c -2.3052,6.01932 -4.2454,12.1786 -5.814,18.44867 a 61.00385,59.272185 67.473239 0 0 -1.2986,9.61653 61.00385,59.272185 67.473239 0 0 -2.2716,9.38544 c -0.8176,6.42569 -1.2523,12.89245 -1.306,19.37033 a 61.00385,59.272185 67.473239 0 0 0.9873,9.69281 61.00385,59.272185 67.473239 0 0 -0.01,9.72418 c 0.7071,6.45973 1.7941,12.88593 3.2619,19.24963 a 61.00385,59.272185 67.473239 0 0 3.2224,9.2317 61.00385,59.272185 67.473239 0 0 2.2769,9.5168 c 2.2068,6.1612 4.7746,12.183 7.6915,18.0387 a 61.00385,59.272185 67.473239 0 0 5.2903,8.2307 61.00385,59.272185 67.473239 0 0 4.4337,8.7199 c 3.5744,5.4613 7.4481,10.6766 11.5918,15.6332 a 61.00385,59.272185 67.473239 0 0 83.9785,7.796 61.00385,59.272185 67.473239 0 0 5.9288,-85.5631 c -1.0596,-1.2674 -2.0344,-2.5826 -2.9099,-3.9204 a 61.00385,59.272185 67.473239 0 0 -1.1497,-1.3964 61.00385,59.272185 67.473239 0 0 -1.2559,-2.79616 c -0.7092,-1.42371 -1.3374,-2.89762 -1.8731,-4.39326 a 61.00385,59.272185 67.473239 0 0 -1.1492,-2.84372 61.00385,59.272185 67.473239 0 0 -0.2128,-1.80063 c -0.3588,-1.55549 -0.6299,-3.15112 -0.8058,-4.75812 a 61.00385,59.272185 67.473239 0 0 -0.4597,-3.0569 61.00385,59.272185 67.473239 0 0 0.2145,-1.80167 c 0.013,-1.619 0.1227,-3.23504 0.3243,-4.8198 a 61.00385,59.272185 67.473239 0 0 0.2643,-3.06794 61.00385,59.272185 67.473239 0 0 0.629,-1.68796 c 0.385,-1.53867 0.8639,-3.0579 1.4276,-4.52994 a 61.00385,59.272185 67.473239 0 0 0.9606,-2.85683 61.00385,59.272185 67.473239 0 0 1.0007,-1.46123 c 0.7313,-1.38097 1.5515,-2.72566 2.4464,-4.00672 a 61.00385,59.272185 67.473239 0 0 1.6347,-2.56127 61.00385,59.272185 67.473239 0 0 1.3376,-1.18516 c 1.0764,-1.19972 2.2198,-2.32667 3.4069,-3.36255 a 61.00385,59.272185 67.473239 0 0 2.1763,-2.06803 61.00385,59.272185 67.473239 0 0 1.5642,-0.81119 c 1.2824,-0.86594 2.6282,-1.65723 4.0121,-2.35863 a 61.00385,59.272185 67.473239 0 0 2.5863,-1.45196 61.00385,59.272185 67.473239 0 0 1.7096,-0.39896 c 1.4708,-0.52783 2.9838,-0.9665 4.511,-1.3085 a 61.00385,59.272185 67.473239 0 0 2.2736,-0.79316 61.00385,59.272185 67.473239 0 0 2.4213,0.0419 c 1.5657,-0.15284 3.154,-0.20946 4.7338,-0.16903 a 61.00385,59.272185 67.473239 0 0 2.4028,-0.21466 61.00385,59.272185 67.473239 0 0 2.3418,0.62607 c 1.5665,0.23288 3.1198,0.56254 4.6306,0.98034 a 61.00385,59.272185 67.473239 0 0 2.367,0.37356 61.00385,59.272185 67.473239 0 0 2.1169,1.16478 c 1.4506,0.59837 2.876,1.29105 4.2507,2.06439 a 61.00385,59.272185 67.473239 0 0 2.2364,0.94737 61.00385,59.272185 67.473239 0 0 1.8089,1.65786 c 1.3098,0.95811 2.5734,2.00219 3.7688,3.11363 a 61.00385,59.272185 67.473239 0 0 1.9706,1.46243 61.00385,59.272185 67.473239 0 0 1.3816,2.04283 c 1.0281,1.21013 1.9906,2.48964 2.868,3.81256 a 61.00385,59.272185 67.473239 0 0 1.562,1.87385 61.00385,59.272185 67.473239 0 0 0.8608,2.29382 c 0.7209,1.42626 1.3628,2.90638 1.9137,4.41395 a 61.00385,59.272185 67.473239 0 0 1.0995,2.22273 61.00385,59.272185 67.473239 0 0 0.3076,2.4556 c 0.3723,1.56291 0.6567,3.16792 0.8464,4.78567 a 61.00385,59.272185 67.473239 0 0 0.5533,2.40674 61.00385,59.272185 67.473239 0 0 -0.2719,2.44508 c -10e-4,1.60714 -0.098,3.21292 -0.2867,4.78743 a 61.00385,59.272185 67.473239 0 0 -0.023,2.44396 61.00385,59.272185 67.473239 0 0 -0.8314,2.27475 c -0.3715,1.52656 -0.8376,3.03938 -1.3904,4.50881 a 61.00385,59.272185 67.473239 0 0 -0.5971,2.35616 61.00385,59.272185 67.473239 0 0 -1.3526,2.00434 c -0.5854,1.12307 -1.239,2.24297 -1.9573,3.34467 a 61.00385,59.272185 67.473239 0 0 -0.4095,0.8168 61.00385,59.272185 67.473239 0 0 -0.5562,0.7157 61.00385,59.272185 67.473239 0 0 -2.4412,5.2639 61.00385,59.272185 67.473239 0 0 -2.8344,6.1092 61.00385,59.272185 67.473239 0 0 -1.6029,6.5357 61.00385,59.272185 67.473239 0 0 -1.4176,6.6243 61.00385,59.272185 67.473239 0 0 -0.1312,6.7832 61.00385,59.272185 67.473239 0 0 0.07,6.7929 61.00385,59.272185 67.473239 0 0 1.3512,6.6726 61.00385,59.272185 67.473239 0 0 1.5503,6.6439 61.00385,59.272185 67.473239 0 0 2.7651,6.2242 61.00385,59.272185 67.473239 0 0 2.9539,6.1554 61.00385,59.272185 67.473239 0 0 4.0436,5.4738 61.00385,59.272185 67.473239 0 0 4.2059,5.3546 61.00385,59.272185 67.473239 0 0 5.1264,4.4497 61.00385,59.272185 67.473239 0 0 4.4329,3.8474 61.00385,59.272185 67.473239 0 0 0.8048,0.4323 61.00385,59.272185 67.473239 0 0 0.7159,0.5851 l 10.1471,6.5656 a 61.00385,59.272185 67.473239 0 0 5.4235,2.7067 61.00385,59.272185 67.473239 0 0 4.7228,3.8591 l 10.1475,6.5665 a 61.00385,59.272185 67.473239 0 0 5.4235,2.7067 61.00385,59.272185 67.473239 0 0 4.7228,3.8592 l 10.1472,6.5655 a 61.00385,59.272185 67.473239 0 0 5.4219,2.7055 61.00385,59.272185 67.473239 0 0 4.7247,3.8614 l 10.147,6.5659 a 61.00385,59.272185 67.473239 0 0 5.4258,2.7079 61.00385,59.272185 67.473239 0 0 4.7213,3.8578 l 1.7821,1.1532 a 61.00385,59.272185 67.473239 0 0 81.8757,-18.2883 61.00385,59.272185 67.473239 0 0 -19.5928,-83.9483 l -1.7821,-1.1532 a 61.00385,59.272185 67.473239 0 0 -4.1279,-2.0601 61.00385,59.272185 67.473239 0 0 -6.0196,-4.5063 l -10.1469,-6.566 a 61.00385,59.272185 67.473239 0 0 -4.1243,-2.0586 61.00385,59.272185 67.473239 0 0 -6.022,-4.5074 l -9.2735,-6.0004 a 61.00385,59.272185 67.473239 0 0 0.1193,-1.9638 61.00385,59.272185 67.473239 0 0 1.8416,-7.854 c 0.7733,-6.44418 1.1601,-12.92686 1.1643,-19.41816 a 61.00385,59.272185 67.473239 0 0 -1.0707,-11.31994 61.00385,59.272185 67.473239 0 0 -0.057,-8.09735 c -0.7555,-6.44274 -1.8876,-12.85052 -3.3985,-19.19409 a 61.00385,59.272185 67.473239 0 0 -3.6746,-10.78827 61.00385,59.272185 67.473239 0 0 -1.9388,-7.88074 c -2.2406,-6.13171 -4.8404,-12.12746 -7.7881,-17.9592 a 61.00385,59.272185 67.473239 0 0 -4.4451,-6.82699 61.00385,59.272185 67.473239 0 0 -5.3843,-10.07554 c -3.6132,-5.44834 -7.5408,-10.6699 -11.7641,-15.6415 a 61.00385,59.272185 67.473239 0 0 -5.883,-5.55471 61.00385,59.272185 67.473239 0 0 -7.5533,-8.49798 c -4.7313,-4.39864 -9.709,-8.51073 -14.9121,-12.31687 a 61.00385,59.272185 67.473239 0 0 -6.9783,-3.99978 61.00385,59.272185 67.473239 0 0 -9.2856,-6.47391 c -5.6357,-3.17008 -11.4462,-5.99108 -17.4054,-8.44962 a 61.00385,59.272185 67.473239 0 0 -7.7089,-2.20631 61.00385,59.272185 67.473239 0 0 -10.4987,-4.04284 c -6.1883,-1.71178 -12.4514,-3.03748 -18.7605,-3.9764 a 61.00385,59.272185 67.473239 0 0 -7.9348,-0.26728 61.00385,59.272185 67.473239 0 0 -11.0685,-1.38367 c -6.3572,-0.16297 -12.7091,0.0646 -19.0277,0.68161 a 61.00385,59.272185 67.473239 0 0 -7.7147,1.66405 61.00385,59.272185 67.473239 0 0 -11.0223,1.33527 c -6.1911,1.38657 -12.2838,3.15472 -18.252,5.29618 z"
         transform="rotate(-10.286582,4510.9833,5826.7482)"
         inkscape:label="qm3" />
      <path
         id="path1148"
         style="display:inline;opacity:1;fill:#b79879;stroke:#b79879;stroke-width:64;stroke-linecap:round;stroke-linejoin:round;stroke-miterlimit:4;stroke-dasharray:6.4, 6.4;stroke-dashoffset:0;stroke-opacity:1;paint-order:fill markers stroke;stop-color:#000000"
         inkscape:label="head"
         d="m 666.95508,1275.2539 c -1.24673,-1.1269 -0.83192,-0.7586 -2.11524,-1.918 -32.18554,-29.0779 -75.68714,-68.2147 -120.94922,-108.4472 -22.63103,-20.1163 -45.7023,-40.5065 -68.01953,-60.0508 -22.31722,-19.5443 -43.87934,-38.2428 -63.49414,-54.9746 -19.61479,-16.7319 -37.2829,-31.4968 -51.80664,-43.1758 -7.26187,-5.8395 -13.73806,-10.90823 -19.27929,-15.06445 -5.54124,-4.15623 -10.14595,-7.40087 -13.66797,-9.59375 -4.04433,-2.51809 -8.05893,-5.5518 -12.03125,-9.02735 -3.97233,-3.47554 -7.90308,-7.39142 -11.7793,-11.67578 -3.87622,-4.28435 -7.69907,-8.93633 -11.45508,-13.88086 -3.75601,-4.94452 -7.44494,-10.18262 -11.05664,-15.63867 -3.6117,-5.45605 -7.1446,-11.13029 -10.58789,-16.94922 -3.44329,-5.81892 -6.79806,-11.78129 -10.04883,-17.81445 -6.50154,-12.06632 -12.59281,-24.41393 -18.17968,-36.44531 -5.58688,-12.03138 -10.66906,-23.74741 -15.14844,-34.55469 -4.47938,-10.80728 -8.35609,-20.7056 -11.53516,-29.09961 -6.35814,-16.78803 -9.92383,-27.56055 -9.92383,-27.56055 l -114.214841,6.20508 c -9.336966,100.05921 28.662301,218.3845 193.802731,306.66011 187.91254,100.4484 257.48922,135.6172 381.49024,193.0059 z"
         transform="rotate(-35.721316,997.3237,995.09923)" />
      <path
         id="path10138"
         style="display:inline;opacity:1;fill:#b79879;stroke:#b79879;stroke-width:64;stroke-linecap:round;stroke-linejoin:round;stroke-miterlimit:4;stroke-dasharray:6.4, 6.4;stroke-dashoffset:0;stroke-opacity:1;paint-order:fill markers stroke;stop-color:#000000"
         inkscape:label="head"
         d="m 203.9668,604.54883 c -30.85637,-1.00025 -60.16993,12.68656 -80.64258,56.51758 -15.08939,32.30567 -27.671467,71.75591 -31.662111,114.52148 l 114.214841,-6.20508 c 0,0 3.56569,10.77252 9.92383,27.56055 3.17907,8.39401 7.05578,18.29233 11.53516,29.09961 4.47938,10.80728 9.56156,22.52331 15.14844,34.55469 5.58687,12.03138 11.67814,24.37899 18.17968,36.44531 3.25077,6.03316 6.60554,11.99553 10.04883,17.81445 3.44329,5.81893 6.97619,11.49317 10.58789,16.94922 3.6117,5.45605 7.30063,10.69415 11.05664,15.63867 3.75601,4.94453 7.57886,9.59651 11.45508,13.88086 3.87622,4.28436 7.80697,8.20024 11.7793,11.67578 3.97232,3.47555 7.98692,6.50926 12.03125,9.02735 3.52202,2.19288 8.12673,5.43752 13.66797,9.59375 5.54123,4.15622 12.01742,9.22495 19.27929,15.06445 14.52374,11.679 32.19185,26.4439 51.80664,43.1758 19.6148,16.7318 41.17692,35.4303 63.49414,54.9746 22.31723,19.5443 45.3885,39.9345 68.01953,60.0508 45.26208,40.2325 88.76368,79.3693 120.94922,108.4472 1.28332,1.1594 0.86851,0.7911 2.11524,1.918 31.5488,14.6011 63.69684,29.3965 105.64453,48.5313 21.23675,9.6873 54.41344,16.5672 92.06445,20.6992 l 180.30664,115.5879 -31.5059,-115.3516 c 7.176,-0.8017 14.2808,-1.7013 21.2383,-2.7559 l 116.7324,81.0215 -28.2363,-106.1172 c 6.6521,-3.2886 12.8628,-6.7885 18.2754,-10.6386 2.6536,-1.8876 5.5198,-4.1928 8.2988,-6.3203 0,0 6.231,-8.8478 15.8204,-23.627 4.7946,-7.3896 10.43,-16.2611 16.5449,-26.252 6.1149,-9.9908 12.7108,-21.0996 19.4277,-32.9628 6.717,-11.8632 13.5533,-24.4799 20.1543,-37.4864 6.6009,-13.0065 12.9656,-26.4033 18.7324,-39.8242 2.8834,-6.7104 5.618,-13.4281 8.1582,-20.1055 2.5402,-6.6773 4.8849,-13.3141 6.9922,-19.8671 2.1073,-6.5531 3.9779,-13.0197 5.5625,-19.3575 1.5846,-6.3377 2.8833,-12.5469 3.8555,-18.5781 0.9721,-6.0313 1.4791,-12.2213 1.5742,-18.5273 0.095,-6.3061 -0.2215,-12.7288 -0.8945,-19.2227 -0.6731,-6.4939 -1.7028,-13.0594 -3.0352,-19.6543 -1.3324,-6.59489 -2.9668,-13.21916 -4.8496,-19.82811 -1.8829,-6.60901 -4.0133,-13.20206 -6.3379,-19.73828 -2.3245,-6.53616 -4.8426,-13.01416 -7.5,-19.39063 -5.3148,-12.75298 -11.1865,-25.10063 -17.1797,-36.69336 -5.9932,-11.59273 -12.1073,-22.43065 -17.9082,-32.16797 -5.8008,-9.73731 -11.2895,-18.3719 -16.0273,-25.55859 -9.4759,-14.37349 -15.9551,-22.95313 -15.9551,-22.95313 C 1099.51,752.76224 984.34506,698.22007 888.06055,694.31445 766.86197,689.39825 673.8023,757.79421 602.98828,750.38086 532.17435,742.9674 375.04035,681.63369 326.36133,654.78516 297.45815,638.84384 249.06457,606.01073 203.9668,604.54883 Z"
         transform="rotate(-35.721316,997.3237,995.09923)" />
      <path
         style="display:inline;fill:#6dadfb;stroke:#6dadfb;stroke-width:64;stroke-linecap:round;stroke-linejoin:round;-inkscape-stroke:none;paint-order:fill markers stroke;stop-color:#000000"
         d="M 880.93148,744.0449 C 763.91552,771.643 622.61323,916.25706 622.61323,916.25706 620.95257,833.21142 611.27974,749.4374 735.2135,677.80944 c -124.69479,-7.45678 -249.2876,-15.1175 -408.45194,46.36482 0,0 303.22641,-263.62224 490.14233,-280.39675 172.2122,-15.45493 264.94181,37.53343 264.94181,37.53343 -0.1923,-45.68323 -31.4577,-88.25915 -90.52179,-128.0552 0,0 295.85169,97.14532 333.38509,194.29065 37.5334,97.14533 28.702,167.79647 28.702,167.79647 l -243.7525,34.92308 c 0,0 -111.71105,-33.81914 -228.72702,-6.22104 z"
         id="path1637"
         sodipodi:nodetypes="zcccsccsccz"
         inkscape:label="top hair" />
      <path
         id="path13483"
         style="display:inline;opacity:1;fill:#b79879;stroke:#b79879;stroke-width:64;stroke-linecap:round;stroke-linejoin:round;stroke-miterlimit:4;stroke-dasharray:6.4, 6.4;stroke-dashoffset:0;stroke-opacity:1;paint-order:fill markers stroke;stop-color:#000000"
         inkscape:label="rightear"
         d="m 1004.183,41.727265 c -70.55306,36.602671 -81.66439,363.292245 -66.32407,452.274305 13.65814,79.22447 36.2912,284.77149 42.65615,343.0468 57.66232,327.89933 201.29002,535.22013 408.64012,237.35993 31.8549,-148.93455 78.0668,-451.70175 -16.9135,-654.03978 C 1242.2021,143.34351 1049.935,17.991245 1004.183,41.727265 Z"
         inkscape:transform-center-x="-180.42712"
         inkscape:transform-center-y="-292.96137"
         sodipodi:nodetypes="ssccss" />
      <g
         id="g13003"
         inkscape:label="face">
        <path
           style="opacity:1;fill:none;fill-opacity:1;stroke:#3a332d;stroke-width:64;stroke-linecap:round;stroke-linejoin:round;stroke-miterlimit:4;stroke-dasharray:none;stroke-dashoffset:0;stroke-opacity:1;paint-order:fill markers stroke;stop-color:#000000"
           d="m 83.898236,1201.0695 68.443294,6.6235 -37.53342,39.7413"
           id="path2163"
           inkscape:label="left nostril" />
        <path
           style="opacity:1;fill:none;fill-opacity:1;stroke:#3a332d;stroke-width:64;stroke-linecap:round;stroke-linejoin:round;stroke-miterlimit:4;stroke-dasharray:none;stroke-dashoffset:0;stroke-opacity:1;paint-order:fill markers stroke;stop-color:#000000"
           d="m 401.82839,1251.85 -59.6119,-44.157 121.43166,-17.6628"
           id="path2198"
           inkscape:label="right nostril" />
        <path
           style="opacity:1;fill:#ffffff;fill-opacity:1;stroke:#3a332d;stroke-width:64;stroke-linecap:round;stroke-linejoin:round;stroke-miterlimit:4;stroke-dasharray:none;stroke-dashoffset:0;stroke-opacity:1;paint-order:fill markers stroke;stop-color:#000000"
           d="m 222.99268,1530.0389 -90.52178,-183.2514 90.52178,-72.859 103.76887,66.2354 z"
           id="path2202"
           sodipodi:nodetypes="ccccc"
           inkscape:label="toof" />
      </g>
      <g
         id="g12993"
         inkscape:label="right eye">
        <path
           style="opacity:1;fill:#3a332d;fill-opacity:1;stroke:#3a332d;stroke-width:64;stroke-linecap:round;stroke-linejoin:round;stroke-miterlimit:4;stroke-dasharray:none;stroke-dashoffset:0;stroke-opacity:1;paint-order:fill markers stroke;stop-color:#000000"
           d="m 661.97569,1226.0485 53.36716,-115.5008 86.53085,168.711 z"
           id="path7852"
           inkscape:label="eyenub"
           sodipodi:nodetypes="cccc" />
        <path
           id="path1915"
           style="opacity:1;fill:#6574c1;stroke:#3a332d;stroke-width:64;stroke-linecap:round;stroke-linejoin:round;paint-order:fill markers stroke;stop-color:#000000"
           inkscape:label="righteye"
           d="m 1150.289,1075.2222 c 0,120.7167 -151.8603,218.5769 -272.57702,218.5769 -120.71671,0 -164.57695,-71.8602 -164.57699,-192.5769 -2e-5,-120.71675 97.86024,-244.57702 218.57699,-244.57701 120.71672,-2e-5 218.57702,97.86025 218.57702,218.57701 z"
           sodipodi:nodetypes="sssss" />
        <path
           style="opacity:1;fill:#ffffff;fill-opacity:1;stroke:#3a332d;stroke-width:48;stroke-linecap:round;stroke-linejoin:round;stroke-miterlimit:4;stroke-dasharray:none;stroke-dashoffset:0;stroke-opacity:1;paint-order:fill markers stroke;stop-color:#000000"
           d="m 841.19021,982.4925 v 189.8749"
           id="path2350"
           inkscape:label="pupil right" />
        <path
           id="path10404"
           style="opacity:1;fill:#ddcdbd;stroke:#3a332d;stroke-width:64;stroke-linecap:round;stroke-linejoin:round;paint-order:fill markers stroke;stop-color:#000000"
           inkscape:label="righteye"
           d="m 910.25195,809.67188 c -40.73941,0.28033 -82.33527,11.52836 -119.37695,31.3457 l 324.0625,200.65622 c 6.714,-74.47591 -24.9406,-150.46678 -90.0469,-197.28708 -33.68949,-24.22739 -73.72978,-34.99635 -114.63865,-34.71484 z"
           transform="rotate(-35.721316,997.3237,995.09923)" />
        <path
           id="path10549"
           style="opacity:1;fill:#ddcdbd;stroke:#3a332d;stroke-width:64;stroke-linecap:round;stroke-linejoin:round;paint-order:fill markers stroke;stop-color:#000000"
           inkscape:label="righteye"
           d="m 652.30469,1036.502 c -3.5354,48.0526 18.6003,91.7759 73.51562,131.2675 57.53215,41.3735 143.45278,61.5907 218.875,51.4434 z"
           transform="rotate(-35.721316,997.3237,995.09923)" />
      </g>
      <path
         id="path19479"
         style="opacity:1;fill:#00ff00;stroke:#000000;stroke-width:128;stroke-linecap:round;stroke-linejoin:round;stroke-miterlimit:4;stroke-dasharray:12.8, 12.8;stroke-dashoffset:0;paint-order:markers stroke fill;stop-color:#000000"
         d="m 1148.9035,406.48828 a 78.869195,76.630401 67.473237 0 1 25.3309,108.5331 78.869195,76.630401 67.473237 0 1 -105.8536,23.6445 78.869195,76.630401 67.473237 0 1 -25.3309,-108.53311 78.869195,76.630401 67.473237 0 1 105.8536,-23.64449 z m -389.57763,-274.962 a 61.00385,59.272185 67.473239 0 0 -8.52912,4.2252 61.00385,59.272185 67.473239 0 0 -8.93674,3.29869 c -5.66665,2.87177 -11.15009,6.09516 -16.42445,9.65675 a 61.00385,59.272185 67.473239 0 0 -7.24681,6.21587 61.00385,59.272185 67.473239 0 0 -7.82648,5.38249 c -4.78452,4.17474 -9.29864,8.6318 -13.52788,13.34517 a 61.00385,59.272185 67.473239 0 0 -5.53029,7.79064 61.00385,59.272185 67.473239 0 0 -6.31804,7.15156 c -3.6673,5.25096 -7.01449,10.73023 -10.02432,16.41401 a 61.00385,59.272185 67.473239 0 0 -3.53301,8.98811 61.00385,59.272185 67.473239 0 0 -4.43403,8.55467 c -2.3052,6.01932 -4.24541,12.1786 -5.81405,18.44867 a 61.00385,59.272185 67.473239 0 0 -1.29857,9.61653 61.00385,59.272185 67.473239 0 0 -2.27157,9.38544 c -0.81763,6.42569 -1.25233,12.89245 -1.30601,19.37033 a 61.00385,59.272185 67.473239 0 0 0.98726,9.69281 61.00385,59.272185 67.473239 0 0 -0.007,9.72418 c 0.70717,6.45969 1.79411,12.8859 3.26195,19.24964 a 61.00385,59.272185 67.473239 0 0 3.22234,9.2317 61.00385,59.272185 67.473239 0 0 2.27691,9.51684 c 2.20679,6.16111 4.77459,12.18294 7.69157,18.03868 a 61.00385,59.272185 67.473239 0 0 5.29025,8.2307 61.00385,59.272185 67.473239 0 0 4.43375,8.71989 c 3.57434,5.46129 7.44803,10.67662 11.59173,15.63323 a 61.00385,59.272185 67.473239 0 0 83.97857,7.79593 61.00385,59.272185 67.473239 0 0 5.92874,-85.56309 c -1.05954,-1.26741 -2.0344,-2.58256 -2.90986,-3.92034 a 61.00385,59.272185 67.473239 0 0 -1.14972,-1.39642 61.00385,59.272185 67.473239 0 0 -1.25593,-2.79619 c -0.70914,-1.42371 -1.33733,-2.89762 -1.87304,-4.39326 a 61.00385,59.272185 67.473239 0 0 -1.14923,-2.84372 61.00385,59.272185 67.473239 0 0 -0.2128,-1.80063 c -0.35877,-1.55549 -0.62989,-3.15112 -0.8058,-4.75812 a 61.00385,59.272185 67.473239 0 0 -0.45969,-3.0569 61.00385,59.272185 67.473239 0 0 0.21452,-1.80167 c 0.0129,-1.619 0.12267,-3.23504 0.32427,-4.8198 a 61.00385,59.272185 67.473239 0 0 0.26427,-3.06794 61.00385,59.272185 67.473239 0 0 0.62902,-1.68796 c 0.38498,-1.53867 0.86389,-3.0579 1.42763,-4.52994 a 61.00385,59.272185 67.473239 0 0 0.9606,-2.85683 61.00385,59.272185 67.473239 0 0 1.00064,-1.46123 c 0.73131,-1.38097 1.55155,-2.72566 2.44647,-4.00672 a 61.00385,59.272185 67.473239 0 0 1.63468,-2.56127 61.00385,59.272185 67.473239 0 0 1.33759,-1.18516 c 1.07644,-1.19972 2.21976,-2.32667 3.40691,-3.36255 a 61.00385,59.272185 67.473239 0 0 2.17633,-2.06803 61.00385,59.272185 67.473239 0 0 1.56416,-0.81119 c 1.28245,-0.86594 2.6282,-1.65723 4.01207,-2.35863 a 61.00385,59.272185 67.473239 0 0 2.58635,-1.45196 61.00385,59.272185 67.473239 0 0 1.70955,-0.39896 c 1.47087,-0.52783 2.98382,-0.9665 4.51101,-1.3085 a 61.00385,59.272185 67.473239 0 0 2.27358,-0.79316 61.00385,59.272185 67.473239 0 0 2.42138,0.0419 c 1.56568,-0.15284 3.15398,-0.20946 4.73379,-0.16903 a 61.00385,59.272185 67.473239 0 0 2.40275,-0.21466 61.00385,59.272185 67.473239 0 0 2.34184,0.62607 c 1.56648,0.23288 3.11983,0.56254 4.63058,0.98034 a 61.00385,59.272185 67.473239 0 0 2.36699,0.37356 61.00385,59.272185 67.473239 0 0 2.11689,1.16478 c 1.45062,0.59837 2.87601,1.29105 4.25076,2.06439 a 61.00385,59.272185 67.473239 0 0 2.23635,0.94737 61.00385,59.272185 67.473239 0 0 1.80888,1.65786 c 1.30985,0.95811 2.5734,2.00219 3.76887,3.11363 a 61.00385,59.272185 67.473239 0 0 1.97055,1.46243 61.00385,59.272185 67.473239 0 0 1.38162,2.04283 c 1.02808,1.21013 1.99063,2.48964 2.86802,3.81256 a 61.00385,59.272185 67.473239 0 0 1.56193,1.87385 61.00385,59.272185 67.473239 0 0 0.86083,2.29382 c 0.7209,1.42626 1.36284,2.90638 1.91367,4.41395 a 61.00385,59.272185 67.473239 0 0 1.09955,2.22273 61.00385,59.272185 67.473239 0 0 0.30755,2.4556 c 0.3723,1.56291 0.65671,3.16792 0.84642,4.78567 a 61.00385,59.272185 67.473239 0 0 0.55335,2.40674 61.00385,59.272185 67.473239 0 0 -0.27192,2.44508 c -10e-4,1.60714 -0.0977,3.21292 -0.28666,4.78743 a 61.00385,59.272185 67.473239 0 0 -0.0225,2.44396 61.00385,59.272185 67.473239 0 0 -0.83144,2.27475 c -0.37155,1.52656 -0.8376,3.03938 -1.39038,4.50881 a 61.00385,59.272185 67.473239 0 0 -0.59708,2.35616 61.00385,59.272185 67.473239 0 0 -1.35266,2.00434 c -0.58537,1.12305 -1.23898,2.24295 -1.95724,3.34463 a 61.00385,59.272185 67.473239 0 0 -0.40955,0.81685 61.00385,59.272185 67.473239 0 0 -0.55622,0.71568 61.00385,59.272185 67.473239 0 0 -2.44122,5.26388 61.00385,59.272185 67.473239 0 0 -2.83434,6.10924 61.00385,59.272185 67.473239 0 0 -1.60295,6.53572 61.00385,59.272185 67.473239 0 0 -1.41758,6.62426 61.00385,59.272185 67.473239 0 0 -0.13115,6.7832 61.00385,59.272185 67.473239 0 0 0.07,6.7929 61.00385,59.272185 67.473239 0 0 1.35112,6.67263 61.00385,59.272185 67.473239 0 0 1.55035,6.64388 61.00385,59.272185 67.473239 0 0 2.7651,6.22421 61.00385,59.272185 67.473239 0 0 2.95387,6.15537 61.00385,59.272185 67.473239 0 0 4.04359,5.47385 61.00385,59.272185 67.473239 0 0 4.20591,5.35461 61.00385,59.272185 67.473239 0 0 5.1264,4.44967 61.00385,59.272185 67.473239 0 0 4.43288,3.84739 61.00385,59.272185 67.473239 0 0 0.80489,0.43226 61.00385,59.272185 67.473239 0 0 0.71583,0.5851 l 10.14715,6.56565 a 61.00385,59.272185 67.473239 0 0 5.42347,2.70672 61.00385,59.272185 67.473239 0 0 4.72288,3.85906 l 10.14747,6.56654 a 61.00385,59.272185 67.473239 0 0 5.42352,2.70672 61.00385,59.272185 67.473239 0 0 4.7228,3.85918 l 10.14713,6.56552 a 61.00385,59.272185 67.473239 0 0 5.42196,2.70543 61.00385,59.272185 67.473239 0 0 4.72469,3.86138 l 10.14693,6.56598 a 61.00385,59.272185 67.473239 0 0 5.42584,2.70785 61.00385,59.272185 67.473239 0 0 4.72127,3.85777 l 1.7821,1.15329 a 61.00385,59.272185 67.473239 0 0 81.87572,-18.28836 61.00385,59.272185 67.473239 0 0 -19.5928,-83.9483 l -1.7821,-1.15315 a 61.00385,59.272185 67.473239 0 0 -4.1279,-2.06009 61.00385,59.272185 67.473239 0 0 -6.01955,-4.50633 l -10.14693,-6.56598 a 61.00385,59.272185 67.473239 0 0 -4.12431,-2.05866 61.00385,59.272185 67.473239 0 0 -6.02199,-4.50736 l -9.27347,-6.00045 a 61.00385,59.272185 67.473239 0 0 0.11922,-1.96374 61.00385,59.272185 67.473239 0 0 1.84162,-7.85398 c 0.77337,-6.44423 1.16016,-12.92691 1.16434,-19.41821 a 61.00385,59.272185 67.473239 0 0 -1.07072,-11.31994 61.00385,59.272185 67.473239 0 0 -0.0574,-8.09735 c -0.7555,-6.44274 -1.88763,-12.85052 -3.39852,-19.19409 a 61.00385,59.272185 67.473239 0 0 -3.67454,-10.78827 61.00385,59.272185 67.473239 0 0 -1.93883,-7.88074 c -2.24064,-6.13171 -4.84041,-12.12746 -7.78807,-17.9592 a 61.00385,59.272185 67.473239 0 0 -4.44514,-6.82699 61.00385,59.272185 67.473239 0 0 -5.38434,-10.07554 c -3.61313,-5.44834 -7.54077,-10.6699 -11.76404,-15.6415 a 61.00385,59.272185 67.473239 0 0 -5.88303,-5.55471 61.00385,59.272185 67.473239 0 0 -7.55331,-8.49798 c -4.73132,-4.39864 -9.70896,-8.51073 -14.91203,-12.31687 a 61.00385,59.272185 67.473239 0 0 -6.97834,-3.99978 61.00385,59.272185 67.473239 0 0 -9.2856,-6.47391 c -5.63572,-3.17008 -11.44624,-5.99108 -17.40546,-8.44962 a 61.00385,59.272185 67.473239 0 0 -7.70883,-2.20631 61.00385,59.272185 67.473239 0 0 -10.49876,-4.04284 c -6.18824,-1.71178 -12.45141,-3.03748 -18.76044,-3.9764 a 61.00385,59.272185 67.473239 0 0 -7.93488,-0.26728 61.00385,59.272185 67.473239 0 0 -11.06846,-1.38367 c -6.35724,-0.16297 -12.70914,0.0646 -19.02765,0.68161 a 61.00385,59.272185 67.473239 0 0 -7.71475,1.66405 61.00385,59.272185 67.473239 0 0 -11.02233,1.33527 c -6.19111,1.38657 -12.28373,3.15472 -18.25198,5.29618 z"
         inkscape:label="qm1" />
      <path
         id="path19479-9"
         style="display:inline;fill:#00ff00;stroke:#000000;stroke-width:128;stroke-linecap:round;stroke-linejoin:round;stroke-miterlimit:4;stroke-dasharray:12.8, 12.8;stroke-dashoffset:0;paint-order:markers stroke fill;stop-color:#000000"
         d="m 1696.4615,1102.6036 a 78.869195,76.630401 67.473237 0 1 25.3309,108.5331 78.869195,76.630401 67.473237 0 1 -105.8536,23.6445 78.869195,76.630401 67.473237 0 1 -25.3309,-108.5331 78.869195,76.630401 67.473237 0 1 105.8536,-23.6445 z M 1306.8839,827.64165 a 61.00385,59.272185 67.473239 0 0 -8.5291,4.2252 61.00385,59.272185 67.473239 0 0 -8.9368,3.29869 c -5.6666,2.87177 -11.1501,6.09516 -16.4244,9.65675 a 61.00385,59.272185 67.473239 0 0 -7.2468,6.21587 61.00385,59.272185 67.473239 0 0 -7.8265,5.38249 c -4.7845,4.17474 -9.2987,8.6318 -13.5279,13.34517 a 61.00385,59.272185 67.473239 0 0 -5.5303,7.79064 61.00385,59.272185 67.473239 0 0 -6.318,7.15156 c -3.6673,5.25096 -7.0145,10.73023 -10.0244,16.41401 a 61.00385,59.272185 67.473239 0 0 -3.533,8.98811 61.00385,59.272185 67.473239 0 0 -4.434,8.55467 c -2.3052,6.01932 -4.2454,12.1786 -5.814,18.44867 a 61.00385,59.272185 67.473239 0 0 -1.2986,9.61653 61.00385,59.272185 67.473239 0 0 -2.2716,9.38544 c -0.8176,6.42569 -1.2523,12.89245 -1.306,19.37033 a 61.00385,59.272185 67.473239 0 0 0.9873,9.69281 61.00385,59.272185 67.473239 0 0 -0.01,9.72418 c 0.7071,6.45973 1.7941,12.88593 3.2619,19.24963 a 61.00385,59.272185 67.473239 0 0 3.2224,9.2317 61.00385,59.272185 67.473239 0 0 2.2769,9.5168 c 2.2068,6.1612 4.7746,12.183 7.6915,18.0387 a 61.00385,59.272185 67.473239 0 0 5.2903,8.2307 61.00385,59.272185 67.473239 0 0 4.4337,8.7199 c 3.5744,5.4613 7.4481,10.6766 11.5918,15.6332 a 61.00385,59.272185 67.473239 0 0 83.9785,7.796 61.00385,59.272185 67.473239 0 0 5.9288,-85.5631 c -1.0596,-1.2674 -2.0344,-2.5826 -2.9099,-3.9204 a 61.00385,59.272185 67.473239 0 0 -1.1497,-1.3964 61.00385,59.272185 67.473239 0 0 -1.2559,-2.79616 c -0.7092,-1.42371 -1.3374,-2.89762 -1.8731,-4.39326 a 61.00385,59.272185 67.473239 0 0 -1.1492,-2.84372 61.00385,59.272185 67.473239 0 0 -0.2128,-1.80063 c -0.3588,-1.55549 -0.6299,-3.15112 -0.8058,-4.75812 a 61.00385,59.272185 67.473239 0 0 -0.4597,-3.0569 61.00385,59.272185 67.473239 0 0 0.2145,-1.80167 c 0.013,-1.619 0.1227,-3.23504 0.3243,-4.8198 a 61.00385,59.272185 67.473239 0 0 0.2643,-3.06794 61.00385,59.272185 67.473239 0 0 0.629,-1.68796 c 0.385,-1.53867 0.8639,-3.0579 1.4276,-4.52994 a 61.00385,59.272185 67.473239 0 0 0.9606,-2.85683 61.00385,59.272185 67.473239 0 0 1.0007,-1.46123 c 0.7313,-1.38097 1.5515,-2.72566 2.4464,-4.00672 a 61.00385,59.272185 67.473239 0 0 1.6347,-2.56127 61.00385,59.272185 67.473239 0 0 1.3376,-1.18516 c 1.0764,-1.19972 2.2198,-2.32667 3.4069,-3.36255 a 61.00385,59.272185 67.473239 0 0 2.1763,-2.06803 61.00385,59.272185 67.473239 0 0 1.5642,-0.81119 c 1.2824,-0.86594 2.6282,-1.65723 4.0121,-2.35863 a 61.00385,59.272185 67.473239 0 0 2.5863,-1.45196 61.00385,59.272185 67.473239 0 0 1.7096,-0.39896 c 1.4708,-0.52783 2.9838,-0.9665 4.511,-1.3085 a 61.00385,59.272185 67.473239 0 0 2.2736,-0.79316 61.00385,59.272185 67.473239 0 0 2.4213,0.0419 c 1.5657,-0.15284 3.154,-0.20946 4.7338,-0.16903 a 61.00385,59.272185 67.473239 0 0 2.4028,-0.21466 61.00385,59.272185 67.473239 0 0 2.3418,0.62607 c 1.5665,0.23288 3.1198,0.56254 4.6306,0.98034 a 61.00385,59.272185 67.473239 0 0 2.367,0.37356 61.00385,59.272185 67.473239 0 0 2.1169,1.16478 c 1.4506,0.59837 2.876,1.29105 4.2507,2.06439 a 61.00385,59.272185 67.473239 0 0 2.2364,0.94737 61.00385,59.272185 67.473239 0 0 1.8089,1.65786 c 1.3098,0.95811 2.5734,2.00219 3.7688,3.11363 a 61.00385,59.272185 67.473239 0 0 1.9706,1.46243 61.00385,59.272185 67.473239 0 0 1.3816,2.04283 c 1.0281,1.21013 1.9906,2.48964 2.868,3.81256 a 61.00385,59.272185 67.473239 0 0 1.562,1.87385 61.00385,59.272185 67.473239 0 0 0.8608,2.29382 c 0.7209,1.42626 1.3628,2.90638 1.9137,4.41395 a 61.00385,59.272185 67.473239 0 0 1.0995,2.22273 61.00385,59.272185 67.473239 0 0 0.3076,2.4556 c 0.3723,1.56291 0.6567,3.16792 0.8464,4.78567 a 61.00385,59.272185 67.473239 0 0 0.5533,2.40674 61.00385,59.272185 67.473239 0 0 -0.2719,2.44508 c -10e-4,1.60714 -0.098,3.21292 -0.2867,4.78743 a 61.00385,59.272185 67.473239 0 0 -0.023,2.44396 61.00385,59.272185 67.473239 0 0 -0.8314,2.27475 c -0.3715,1.52656 -0.8376,3.03938 -1.3904,4.50881 a 61.00385,59.272185 67.473239 0 0 -0.5971,2.35616 61.00385,59.272185 67.473239 0 0 -1.3526,2.00434 c -0.5854,1.12307 -1.239,2.24297 -1.9573,3.34467 a 61.00385,59.272185 67.473239 0 0 -0.4095,0.8168 61.00385,59.272185 67.473239 0 0 -0.5562,0.7157 61.00385,59.272185 67.473239 0 0 -2.4412,5.2639 61.00385,59.272185 67.473239 0 0 -2.8344,6.1092 61.00385,59.272185 67.473239 0 0 -1.6029,6.5357 61.00385,59.272185 67.473239 0 0 -1.4176,6.6243 61.00385,59.272185 67.473239 0 0 -0.1312,6.7832 61.00385,59.272185 67.473239 0 0 0.07,6.7929 61.00385,59.272185 67.473239 0 0 1.3512,6.6726 61.00385,59.272185 67.473239 0 0 1.5503,6.6439 61.00385,59.272185 67.473239 0 0 2.7651,6.2242 61.00385,59.272185 67.473239 0 0 2.9539,6.1554 61.00385,59.272185 67.473239 0 0 4.0436,5.4738 61.00385,59.272185 67.473239 0 0 4.2059,5.3546 61.00385,59.272185 67.473239 0 0 5.1264,4.4497 61.00385,59.272185 67.473239 0 0 4.4329,3.8474 61.00385,59.272185 67.473239 0 0 0.8048,0.4323 61.00385,59.272185 67.473239 0 0 0.7159,0.5851 l 10.1471,6.5656 a 61.00385,59.272185 67.473239 0 0 5.4235,2.7067 61.00385,59.272185 67.473239 0 0 4.7228,3.8591 l 10.1475,6.5665 a 61.00385,59.272185 67.473239 0 0 5.4235,2.7067 61.00385,59.272185 67.473239 0 0 4.7228,3.8592 l 10.1472,6.5655 a 61.00385,59.272185 67.473239 0 0 5.4219,2.7055 61.00385,59.272185 67.473239 0 0 4.7247,3.8614 l 10.147,6.5659 a 61.00385,59.272185 67.473239 0 0 5.4258,2.7079 61.00385,59.272185 67.473239 0 0 4.7213,3.8578 l 1.7821,1.1532 a 61.00385,59.272185 67.473239 0 0 81.8757,-18.2883 61.00385,59.272185 67.473239 0 0 -19.5928,-83.9483 l -1.7821,-1.1532 a 61.00385,59.272185 67.473239 0 0 -4.1279,-2.0601 61.00385,59.272185 67.473239 0 0 -6.0196,-4.5063 l -10.1469,-6.566 a 61.00385,59.272185 67.473239 0 0 -4.1243,-2.0586 61.00385,59.272185 67.473239 0 0 -6.022,-4.5074 l -9.2735,-6.0004 a 61.00385,59.272185 67.473239 0 0 0.1193,-1.9638 61.00385,59.272185 67.473239 0 0 1.8416,-7.854 c 0.7733,-6.44418 1.1601,-12.92686 1.1643,-19.41816 a 61.00385,59.272185 67.473239 0 0 -1.0707,-11.31994 61.00385,59.272185 67.473239 0 0 -0.057,-8.09735 c -0.7555,-6.44274 -1.8876,-12.85052 -3.3985,-19.19409 a 61.00385,59.272185 67.473239 0 0 -3.6746,-10.78827 61.00385,59.272185 67.473239 0 0 -1.9388,-7.88074 c -2.2406,-6.13171 -4.8404,-12.12746 -7.7881,-17.9592 a 61.00385,59.272185 67.473239 0 0 -4.4451,-6.82699 61.00385,59.272185 67.473239 0 0 -5.3843,-10.07554 c -3.6132,-5.44834 -7.5408,-10.6699 -11.7641,-15.6415 a 61.00385,59.272185 67.473239 0 0 -5.883,-5.55471 61.00385,59.272185 67.473239 0 0 -7.5533,-8.49798 c -4.7313,-4.39864 -9.709,-8.51073 -14.9121,-12.31687 a 61.00385,59.272185 67.473239 0 0 -6.9783,-3.99978 61.00385,59.272185 67.473239 0 0 -9.2856,-6.47391 c -5.6357,-3.17008 -11.4462,-5.99108 -17.4054,-8.44962 a 61.00385,59.272185 67.473239 0 0 -7.7089,-2.20631 61.00385,59.272185 67.473239 0 0 -10.4987,-4.04284 c -6.1883,-1.71178 -12.4514,-3.03748 -18.7605,-3.9764 a 61.00385,59.272185 67.473239 0 0 -7.9348,-0.26728 61.00385,59.272185 67.473239 0 0 -11.0685,-1.38367 c -6.3572,-0.16297 -12.7091,0.0646 -19.0277,0.68161 a 61.00385,59.272185 67.473239 0 0 -7.7147,1.66405 61.00385,59.272185 67.473239 0 0 -11.0223,1.33527 c -6.1911,1.38657 -12.2838,3.15472 -18.252,5.29618 z"
         transform="rotate(49.126328,1468.5187,1032.8593)"
         inkscape:label="qm2" />
      <path
         style="opacity:1;fill:none;fill-opacity:1;stroke:#b79879;stroke-width:32;stroke-linecap:round;stroke-linejoin:round;stroke-miterlimit:4;stroke-dasharray:none;stroke-dashoffset:0;stroke-opacity:1;paint-order:fill markers stroke;stop-color:#000000"
         d="M 92.563343,477.22565 C 371.55845,535.14502 618.8942,641.60232 804.8334,842.18856"
         id="path6280"
         sodipodi:nodetypes="cc"
         inkscape:label="eyelash right big"
         inkscape:transform-center-x="232.47425"
         inkscape:transform-center-y="-231.44121" />
      <path
         style="display:inline;fill:none;fill-opacity:1;stroke:#b79879;stroke-width:32;stroke-linecap:round;stroke-linejoin:round;stroke-miterlimit:4;stroke-dasharray:none;stroke-dashoffset:0;stroke-opacity:1;paint-order:fill markers stroke;stop-color:#000000"
         d="M 468.79703,426.30382 C 609.80704,525.51401 752.8464,660.32989 848.40781,789.60383"
         id="path6280-0"
         sodipodi:nodetypes="cc"
         inkscape:label="eyelash right small"
         inkscape:transform-center-x="31.844486"
         inkscape:transform-center-y="-186.90689" />
    </g>
  </g>
</svg>
