<?xml version="1.0" encoding="UTF-8" standalone="no"?>
<!-- Created with Inkscape (http://www.inkscape.org/) -->

<svg
   version="1.1"
   id="svg824"
   width="1706.6667"
   height="1706.6667"
   viewBox="0 0 1706.6667 1706.6667"
   sodipodi:docname="ying_nom_clam.svg"
   inkscape:version="1.1 (c68e22c387, 2021-05-23)"
   inkscape:export-filename="D:\Pictures\yingmotes\ying_nom_pizza.png"
   inkscape:export-xdpi="72"
   inkscape:export-ydpi="72"
   xmlns:inkscape="http://www.inkscape.org/namespaces/inkscape"
   xmlns:sodipodi="http://sodipodi.sourceforge.net/DTD/sodipodi-0.dtd"
   xmlns="http://www.w3.org/2000/svg"
   xmlns:svg="http://www.w3.org/2000/svg">
  <defs
     id="defs828" />
  <sodipodi:namedview
     id="namedview826"
     pagecolor="#ffffff"
     bordercolor="#666666"
     borderopacity="1.0"
     inkscape:pageshadow="2"
     inkscape:pageopacity="0.0"
     inkscape:pagecheckerboard="0"
     showgrid="false"
     inkscape:zoom="0.32026963"
     inkscape:cx="3.1223691"
     inkscape:cy="1116.247"
     inkscape:window-width="1920"
     inkscape:window-height="1001"
     inkscape:window-x="-9"
     inkscape:window-y="-9"
     inkscape:window-maximized="1"
     inkscape:current-layer="g13003" />
  <g
     id="layer1"
     inkscape:label="Ying"
     style="display:inline"
     inkscape:groupmode="layer">
    <path
       style="display:inline;fill:#262;stroke:#262;stroke-width:64;stroke-linecap:round;stroke-linejoin:round;-inkscape-stroke:none;paint-order:fill markers stroke;stop-color:#000000"
       d="m 1298.031,865.09775 c 70.7982,131.45402 185.3824,239.02475 198.7064,401.82835 -29.438,-19.1346 -55.9321,-14.719 -79.4825,13.2471 91.0222,54.7003 58.5139,175.917 81.6903,267.1496 l -99.3531,6.6236 c 66.7588,58.9185 81.773,128.1858 90.5218,198.7063 l -494.50725,2.2079 c -24.3802,-41.4813 23.11455,-208.5632 66.23555,-227.0436 0,0 3.3791,-20.0154 -75.35325,-9.4549 C 1015.23,1271.0896 1172.1837,1096.1858 1298.031,865.09775 Z"
       id="path3091"
       sodipodi:nodetypes="cccccccccc"
       inkscape:label="mane" />
    <path
       style="opacity:1;fill:#9f8;fill-opacity:1;stroke:#9f8;stroke-width:64;stroke-linecap:round;stroke-linejoin:round;stroke-miterlimit:4;stroke-dasharray:none;stroke-dashoffset:0;stroke-opacity:1;paint-order:fill markers stroke;stop-color:#000000"
       d="m 848.0933,1338.888 -64.7849,239.5079 62.82173,-25.5214 -51.04266,200.2443 459.38383,-15.7054 c 0,0 -127.6066,-94.2326 -149.2016,-184.5389 -21.5949,-90.3062 51.0427,-253.25 51.0427,-253.25 z"
       id="path3340"
       inkscape:label="neck" />
    <g
       id="g12988"
       inkscape:label="head"
       transform="rotate(14.037417,864.68,1035.7055)">
      <path
         style="display:inline;fill:none;fill-opacity:1;stroke:#3b4;stroke-width:32;stroke-linecap:round;stroke-linejoin:round;stroke-miterlimit:4;stroke-dasharray:none;stroke-dashoffset:0;stroke-opacity:1;paint-order:fill markers stroke;stop-color:#000000"
         d="m 214.24675,510.63421 c 146.95696,90.16728 298.17327,215.74277 401.65747,338.76616"
         id="path6280-0-6"
         sodipodi:nodetypes="cc"
         inkscape:label="eyelash left small" />
      <path
         style="display:inline;fill:none;fill-opacity:1;stroke:#3b4;stroke-width:32;stroke-linecap:round;stroke-linejoin:round;stroke-miterlimit:4;stroke-dasharray:none;stroke-dashoffset:0;stroke-opacity:1;paint-order:fill markers stroke;stop-color:#000000"
         d="M 136.3074,315.66998 C 386.36359,452.28922 592.00322,626.1296 711.50637,872.15241"
         id="path6280-3"
         sodipodi:nodetypes="cc"
         inkscape:label="eyelash left big" />
      <g
         id="g12997"
         inkscape:label="left eye">
        <path
           id="path1915-9"
           style="display:inline;fill:#cff;stroke:#131;stroke-width:64;stroke-linecap:round;stroke-linejoin:round;paint-order:fill markers stroke;stop-color:#000000"
           inkscape:label="lefteye"
           d="m 792.61751,1048.7279 c 10e-6,120.7167 -155.86024,218.577 -276.57698,218.577 -120.71674,0 -160.57699,-55.8603 -160.57698,-176.577 0,-120.71673 97.86025,-260.57698 218.57698,-260.57698 120.71673,0 218.57698,97.86025 218.57698,218.57698 z"
           sodipodi:nodetypes="sssss" />
        <path
           style="opacity:1;fill:#ffffff;fill-opacity:1;stroke:#131;stroke-width:64;stroke-linecap:round;stroke-linejoin:round;stroke-miterlimit:4;stroke-dasharray:none;stroke-dashoffset:0;stroke-opacity:1;paint-order:fill markers stroke;stop-color:#000000"
           d="M 495.18725,960.35009 516.39114,1125.053"
           id="path2372"
           inkscape:label="pupil left"
           sodipodi:nodetypes="cc" />
      </g>
      <path
         style="opacity:1;fill:#3b4;fill-opacity:1;stroke:#3b4;stroke-width:64;stroke-linecap:round;stroke-miterlimit:4;stroke-dasharray:none;stroke-dashoffset:0;stroke-opacity:1;paint-order:fill markers stroke;stop-color:#000000"
         d="m 834.17099,894.54897 c 0,0 -75.39274,-160.40341 -99.5069,-341.53728 -26.52799,-199.26527 14.08889,-425.40074 80.87256,-441.01886 66.78368,-15.618127 208.00585,160.03621 259.20505,292.5115 51.1993,132.47529 69.0332,440.63234 69.0332,440.63234 z"
         id="path1640"
         inkscape:label="leftear"
         sodipodi:nodetypes="cssscc" />
      <path
         id="path1148"
         style="display:inline;opacity:1;fill:#9f8;stroke:#9f8;stroke-width:64;stroke-linecap:round;stroke-linejoin:round;stroke-miterlimit:4;stroke-dasharray:6.4, 6.4;stroke-dashoffset:0;stroke-opacity:1;paint-order:fill markers stroke;stop-color:#000000"
         inkscape:label="head"
         d="m 1299.0547,1153.5586 c 0,0 -0.1078,-10.8206 -0.9512,-28.418 -0.4217,-8.7987 -1.0259,-19.2912 -1.8945,-30.9726 -0.8686,-11.6814 -1.9997,-24.5525 -3.4727,-38.1055 -1.4729,-13.553 -3.2888,-27.7877 -5.5234,-42.2012 -2.2347,-14.41345 -4.8892,-29.0047 -8.043,-43.26755 -1.5769,-7.13143 -3.279,-14.18175 -5.1152,-21.08594 -1.8362,-6.90419 -3.8068,-13.66232 -5.9219,-20.21289 -2.1151,-6.55056 -4.3733,-12.89234 -6.7871,-18.96289 -2.4138,-6.07055 -4.9828,-11.86984 -7.7148,-17.33398 -2.7321,-5.46415 -5.9346,-10.78574 -9.5391,-15.96094 -3.6045,-5.1752 -7.6114,-10.20474 -11.9492,-15.08399 -4.3379,-4.87924 -9.0074,-9.60926 -13.9395,-14.18554 -4.9321,-4.57628 -10.1264,-8.99932 -15.5136,-13.26563 -5.3873,-4.2663 -10.9666,-8.37489 -16.67,-12.32422 -5.7033,-3.94932 -11.5298,-7.73794 -17.4101,-11.36328 -11.7607,-7.25067 -23.7371,-13.84709 -35.3711,-19.75976 -11.634,-5.91267 -22.9257,-11.14156 -33.3203,-15.66016 -10.3946,-4.5186 -19.8912,-8.32606 -27.9336,-11.39453 -16.085,-6.13693 -26.3535,-9.31836 -26.3535,-9.31836 -106.83135,-15.98813 -232.17461,6.96944 -312.62504,60.01367 -101.26734,66.76968 -136.88727,176.62945 -198.70703,211.95509 -61.81975,35.3255 -225.20029,77.273 -280.39649,83.8965 -55.19621,6.6235 -183.250354,6.6246 -161.171871,123.6406 22.078481,117.016 112.599211,282.6048 377.541011,247.2793 264.94179,-35.3256 313.51517,-44.1575 536.50782,-88.3145 22.8973,-4.5341 53.8481,-18.3195 86.8281,-36.9472 l 213.8711,-11.4278 -92.9258,-75.2558 c 5.3578,-4.8405 10.5999,-9.7184 15.6328,-14.6367 l 142.0762,-2.375 -84.8808,-69.668 c 3.4806,-6.5537 6.4805,-13.0207 8.6269,-19.3066 1.0523,-3.0817 2.0328,-6.6268 3.0469,-9.9766 z" />
      <path
         style="display:inline;fill:#262;stroke:#262;stroke-width:64;stroke-linecap:round;stroke-linejoin:round;-inkscape-stroke:none;paint-order:fill markers stroke;stop-color:#000000"
         d="M 880.93148,744.0449 C 763.91552,771.643 622.61323,916.25706 622.61323,916.25706 620.95257,833.21142 611.27974,749.4374 735.2135,677.80944 c -124.69479,-7.45678 -249.2876,-15.1175 -408.45194,46.36482 0,0 303.22641,-263.62224 490.14233,-280.39675 172.2122,-15.45493 264.94181,37.53343 264.94181,37.53343 -0.1923,-45.68323 -31.4577,-88.25915 -90.52179,-128.0552 0,0 295.85169,97.14532 333.38509,194.29065 37.5334,97.14533 28.702,167.79647 28.702,167.79647 l -243.7525,34.92308 c 0,0 -111.71105,-33.81914 -228.72702,-6.22104 z"
         id="path1637"
         sodipodi:nodetypes="zcccsccsccz"
         inkscape:label="top hair" />
      <path
         id="path13483"
         style="display:inline;opacity:1;fill:#9f8;stroke:#9f8;stroke-width:64;stroke-linecap:round;stroke-linejoin:round;stroke-miterlimit:4;stroke-dasharray:6.4, 6.4;stroke-dashoffset:0;stroke-opacity:1;paint-order:fill markers stroke;stop-color:#000000"
         inkscape:label="rightear"
         d="m 1292.4649,32.427155 c -78.3991,13.079178 -189.6446,320.445355 -202.4722,409.824235 -11.421,79.57778 -53.2322,282.09605 -65.1356,339.4967 0,0 10.652,1.44834 27.5276,4.85476 8.4377,1.70323 18.4314,3.89609 29.4278,6.64262 10.9965,2.74653 22.9947,6.04604 35.4431,9.96369 12.4483,3.91765 25.3469,8.45338 38.1404,13.66994 6.3967,2.60829 12.7673,5.38649 19.0427,8.34348 6.2755,2.95697 12.4548,6.09146 18.4707,9.4131 6.0158,3.32166 11.8672,6.82967 17.4851,10.53197 5.6179,3.7023 11.0021,7.59945 16.0837,11.69836 5.0816,4.09893 9.8615,8.40056 14.2685,12.91208 4.4069,4.51151 8.4415,9.23358 12.0355,14.17366 3.5939,4.94009 7.0822,10.23759 10.462,15.82819 3.3798,5.59059 6.6508,11.47433 9.815,17.58754 3.1642,6.11323 6.22,12.45496 9.1673,18.96288 2.9472,6.50792 5.7863,13.18204 8.5152,19.95677 5.4578,13.54945 10.4772,27.50498 15.0532,41.35422 4.576,13.84935 8.7095,27.59115 12.3925,40.71705 3.6831,13.1258 6.9168,25.6354 9.6958,37.0146 2.779,11.3792 5.1015,21.6293 6.9653,30.2386 3.7276,17.2188 5.6145,27.8741 5.6145,27.8741 76.2014,-131.8696 213.4672,-405.6608 185.4633,-627.4213 C 1487.5855,202.44766 1343.305,23.945597 1292.4649,32.427155 Z" />
      <g
         id="g5955"
         inkscape:label="clam"
         transform="matrix(0.26726264,-0.02643979,0.02649369,0.2678076,134.66894,1324.87)"
         style="stroke-width:3.71967">
        <path
           id="path2157"
           style="fill:#cbcbd8;fill-opacity:1;stroke:#4d4d4d;stroke-width:357.089;stroke-linecap:round;stroke-linejoin:round;paint-order:fill markers stroke;stop-color:#000000"
           d="M 168.54885,134.68279 C 84.511839,468.45913 90.218777,848.05834 286.45366,1142.0208 c 129.24701,192.6221 319.08934,336.6315 539.45753,409.2183 220.36821,72.5868 585.95811,134.9225 736.46791,-33.4629 150.5099,-168.3853 45.6044,-671.03409 -150.024,-964.21764 C 1283.5123,360.68061 1093.9801,216.28506 873.77605,143.24073 653.57198,70.196397 399.67177,69.556379 168.54885,134.68279 Z"
           sodipodi:nodetypes="ccszcsc" />
        <path
           id="path2157-8"
           style="fill:#ff9955;stroke:#ff9955;stroke-width:357.089;stroke-linecap:round;stroke-linejoin:round;paint-order:fill markers stroke;stop-color:#000000"
           d="m 324.22348,280.10074 c -23.41633,47.1441 12.85322,68.12877 2.56768,118.05821 -13.02654,63.23515 -74.9117,121.57845 -67.16882,185.288 6.06997,49.94457 71.5521,89.98213 90.20713,137.77186 16.86324,43.19959 -14.24414,94.44667 12.78027,134.21295 49.72757,72.79433 120.30208,139.46817 200.64686,193.45094 33.42806,22.4599 52.93554,98.9257 88.94839,116.5187 57.14137,27.9147 132.1441,-7.0954 190.59776,5.4844 59.71543,12.8514 102.84089,-33.2435 157.20245,-40.3843 53.2542,-6.9954 117.9209,25.407 159.5823,-4.6033 71.4754,-51.4865 29.295,-128.10817 36.5944,-197.53668 6.8163,-64.83295 66.371,-121.79482 39.5891,-189.88018 -30.8547,-78.43941 -98.6966,-120.71962 -143.2995,-186.382 -28.4626,-41.85395 -52.8247,-95.2723 -97.35509,-121.78958 -58.4518,-34.80731 -140.36616,-39.06644 -198.78994,-68.35897 -67.72718,-33.95708 -81.76284,-126.00595 -157.5995,-137.68391 -40.62852,-6.25632 -75.72295,25.18541 -117.28725,25.79888 -65.81682,0.97144 -132.19814,10.76362 -197.21624,30.03498 z"
           sodipodi:nodetypes="cssscssssssscssssc" />
        <path
           id="path2157-8-9"
           style="fill:#ffb380;stroke:#ffb380;stroke-width:357.089;stroke-linecap:round;stroke-linejoin:round;paint-order:fill markers stroke;stop-color:#000000"
           d="m 418.92786,316.29463 c -14.1625,28.46096 7.7738,41.12943 1.553,71.27191 -7.8786,38.17515 -45.3075,73.39708 -40.6245,111.85863 3.6712,30.15161 43.2755,54.32234 54.5583,83.17307 10.1991,26.07965 -8.615,57.01759 7.7296,81.02455 30.0758,43.94604 72.7601,84.19714 121.3535,116.78664 20.2177,13.55907 32.016,59.72158 53.7969,70.3425 34.5598,16.85215 79.9223,-4.2835 115.2757,3.31094 36.1166,7.75841 62.1993,-20.06915 95.0778,-24.38006 32.2088,-4.22313 71.3199,15.33825 96.51717,-2.77902 43.2291,-31.08247 17.7179,-77.3391 22.1327,-119.2532 4.1226,-39.13975 40.1419,-73.52771 23.9439,-114.63094 -18.6612,-47.35398 -59.69277,-72.8786 -86.66907,-112.51908 -17.2145,-25.26729 -31.949,-57.51602 -58.8815,-73.52454 -35.3523,-21.01322 -84.895,-23.58447 -120.2304,-41.26841 -40.9621,-20.49994 -49.451,-76.06997 -95.3179,-83.11997 -24.5726,-3.77695 -45.7981,15.20447 -70.9366,15.57482 -39.8067,0.58646 -79.9549,6.49801 -119.2786,18.13216 z"
           sodipodi:nodetypes="cssscssssssscssssc" />
      </g>
      <g
         id="g13003"
         inkscape:label="face">
        <path
           style="opacity:1;fill:#9f8;fill-opacity:1;stroke:none;stroke-width:64;stroke-linecap:round;stroke-linejoin:round;stroke-miterlimit:4;stroke-dasharray:none;stroke-dashoffset:0;stroke-opacity:1;paint-order:fill markers stroke;stop-color:#000000"
           d="m 132.4709,1346.7875 90.52178,-72.859 c 0,0 146.93476,106.6315 222.99268,101.561 66.23545,-4.4157 119.2238,-37.5334 119.2238,-37.5334 l -32.92171,-235.8975 -431.65198,43.5528 -7.569527,162.8166 z"
           id="path3264"
           sodipodi:nodetypes="ccsc"
           inkscape:label="mouf" />
        <path
           style="opacity:1;fill:none;fill-opacity:1;stroke:#131;stroke-width:64;stroke-linecap:round;stroke-linejoin:round;stroke-miterlimit:4;stroke-dasharray:none;stroke-dashoffset:0;stroke-opacity:1;paint-order:fill markers stroke;stop-color:#000000"
           d="m 83.898236,1201.0695 68.443294,6.6235 -37.53342,39.7413"
           id="path2163"
           inkscape:label="left nostril" />
        <path
           style="opacity:1;fill:none;fill-opacity:1;stroke:#131;stroke-width:64;stroke-linecap:round;stroke-linejoin:round;stroke-miterlimit:4;stroke-dasharray:none;stroke-dashoffset:0;stroke-opacity:1;paint-order:fill markers stroke;stop-color:#000000"
           d="m 401.82839,1251.85 -59.6119,-44.157 121.43166,-17.6628"
           id="path2198"
           inkscape:label="right nostril" />
        <path
           style="opacity:1;fill:none;fill-opacity:1;stroke:#131;stroke-width:64;stroke-linecap:round;stroke-linejoin:round;stroke-miterlimit:4;stroke-dasharray:none;stroke-dashoffset:0;stroke-opacity:1;paint-order:fill markers stroke;stop-color:#000000"
           d="m 132.4709,1346.7875 90.52178,-72.859 c 0,0 146.93476,106.6315 222.99268,101.561 28.81892,-1.9213 55.13003,-9.2761 75.6599,-16.9725 92.85975,-27.1232 58.65443,-103.8836 53.02791,-121.0908"
           id="path2200"
           sodipodi:nodetypes="ccscc"
           inkscape:label="mouf" />
        <path
           style="opacity:1;fill:#ffffff;fill-opacity:1;stroke:#131;stroke-width:64;stroke-linecap:round;stroke-linejoin:round;stroke-miterlimit:4;stroke-dasharray:none;stroke-dashoffset:0;stroke-opacity:1;paint-order:fill markers stroke;stop-color:#000000"
           d="m 222.99268,1530.0389 -90.52178,-183.2514 90.52178,-72.859 103.76887,66.2354 z"
           id="path2202"
           sodipodi:nodetypes="ccccc"
           inkscape:label="toof" />
      </g>
      <g
         id="g12993"
         inkscape:label="right eye">
        <path
           style="opacity:1;fill:#131;fill-opacity:1;stroke:#131;stroke-width:64;stroke-linecap:round;stroke-linejoin:round;stroke-miterlimit:4;stroke-dasharray:none;stroke-dashoffset:0;stroke-opacity:1;paint-order:fill markers stroke;stop-color:#000000"
           d="m 661.97569,1226.0485 53.36716,-115.5008 86.53085,168.711 z"
           id="path7852"
           inkscape:label="eyenub"
           sodipodi:nodetypes="cccc" />
        <path
           id="path1915"
           style="opacity:1;fill:#cff;stroke:#131;stroke-width:64;stroke-linecap:round;stroke-linejoin:round;paint-order:fill markers stroke;stop-color:#000000"
           inkscape:label="righteye"
           d="m 1150.289,1075.2222 c 0,120.7167 -151.8603,218.5769 -272.57702,218.5769 -120.71671,0 -164.57695,-71.8602 -164.57699,-192.5769 -2e-5,-120.71675 97.86024,-244.57702 218.57699,-244.57701 120.71672,-2e-5 218.57702,97.86025 218.57702,218.57701 z"
           sodipodi:nodetypes="sssss" />
        <path
           style="opacity:1;fill:#ffffff;fill-opacity:1;stroke:#131;stroke-width:64;stroke-linecap:round;stroke-linejoin:round;stroke-miterlimit:4;stroke-dasharray:none;stroke-dashoffset:0;stroke-opacity:1;paint-order:fill markers stroke;stop-color:#000000"
           d="m 839.18766,976.85429 44.89818,184.49011"
           id="path2350"
           inkscape:label="pupil right" />
        <g
           id="g1475"
           inkscape:label="rightlid"
           style="display:inline"
           transform="rotate(-2.5111826,988.08089,1107.8063)">
          <path
             id="path1280"
             style="opacity:1;fill:#474;stroke:#131;stroke-width:64;stroke-linecap:round;stroke-linejoin:round;paint-order:fill markers stroke;stop-color:#000000"
             inkscape:label="rightlid 2"
             d="m 943.80903,1137.3439 c -112.23557,23.1054 -143.9314,81.0001 -175.67561,113.4837 24.64657,15.9581 55.2774,45.9036 177.57238,22.3456 122.295,-23.558 126.267,-55.7594 158.2236,-84.2582 -39.8623,-19.1991 -47.8848,-74.6765 -160.12037,-51.5711 z"
             sodipodi:nodetypes="zczcz" />
        </g>
      </g>
      <path
         style="opacity:1;fill:none;fill-opacity:1;stroke:#9f8;stroke-width:32;stroke-linecap:round;stroke-linejoin:round;stroke-miterlimit:4;stroke-dasharray:none;stroke-dashoffset:0;stroke-opacity:1;paint-order:fill markers stroke;stop-color:#000000"
         d="M 422.09799,125.10137 C 599.10012,348.40199 720.6887,588.66091 734.81454,861.80682"
         id="path6280"
         sodipodi:nodetypes="cc"
         inkscape:label="eyelash right big" />
      <path
         style="display:inline;fill:none;fill-opacity:1;stroke:#9f8;stroke-width:32;stroke-linecap:round;stroke-linejoin:round;stroke-miterlimit:4;stroke-dasharray:none;stroke-dashoffset:0;stroke-opacity:1;paint-order:fill markers stroke;stop-color:#000000"
         d="m 711.56797,296.29281 c 57.33566,162.60107 95.67474,355.38513 98.55015,516.11928"
         id="path6280-0"
         sodipodi:nodetypes="cc"
         inkscape:label="eyelash right small" />
    </g>
  </g>
</svg>
